<?xml version="1.0" encoding="iso-8859-1"?>
<!-- Generator: Adobe Illustrator 18.1.1, SVG Export Plug-In . SVG Version: 6.00 Build 0)  -->
<svg version="1.1" id="Capa_1" xmlns="http://www.w3.org/2000/svg" xmlns:xlink="http://www.w3.org/1999/xlink" x="0px" y="0px"
	 viewBox="0 0 20.546 20.546" style="enable-background:new 0 0 20.546 20.546;" xml:space="preserve">
<g>
	<g>
		<path style="fill:#030104;" d="M18.778,0H1.767C0.793,0,0,0.793,0,1.768v17.01c0,0.975,0.792,1.768,1.767,1.768h17.011
			c0.973,0,1.767-0.793,1.767-1.768V1.767C20.544,0.793,19.751,0,18.778,0z M19.03,18.777c0,0.139-0.113,0.252-0.252,0.252H1.767
			c-0.139,0-0.252-0.113-0.252-0.252V1.767c0-0.14,0.113-0.253,0.252-0.253h17.011c0.139,0,0.252,0.113,0.252,0.253
			C19.031,1.767,19.031,18.777,19.03,18.777z"/>
		<polygon style="fill:#030104;" points="6.62,5.89 7.109,8.121 9.535,6.965 9.575,6.965 9.575,17.043 12.453,17.043 12.453,4.324 
			9.984,4.324 		"/>
	</g>
</g>
<g>
</g>
<g>
</g>
<g>
</g>
<g>
</g>
<g>
</g>
<g>
</g>
<g>
</g>
<g>
</g>
<g>
</g>
<g>
</g>
<g>
</g>
<g>
</g>
<g>
</g>
<g>
</g>
<g>
</g>
</svg>
