<svg width="121" height="120" viewBox="0 0 121 120" fill="none" xmlns="http://www.w3.org/2000/svg">
<rect x="0.5" width="120" height="120" rx="8" fill="#FEFCE5"/>
<path d="M67.1666 26.6667L87.1666 46.6667V86.6667C87.1666 88.4348 86.4642 90.1305 85.214 91.3807C83.9637 92.631 82.268 93.3333 80.4999 93.3333H40.4999C38.7318 93.3333 37.0361 92.631 35.7859 91.3807C34.5356 90.1305 33.8333 88.4348 33.8333 86.6667V33.3333C33.8333 31.5652 34.5356 29.8695 35.7859 28.6193C37.0361 27.369 38.7318 26.6667 40.4999 26.6667H67.1666ZM80.4999 86.6667V50H63.8333V33.3333H40.4999V86.6667H80.4999ZM77.1666 63.3333V83.3333H43.8333L60.4999 66.6667L67.1666 73.3333M53.8333 55C53.8333 56.3261 53.3065 57.5978 52.3688 58.5355C51.4311 59.4732 50.1593 60 48.8333 60C47.5072 60 46.2354 59.4732 45.2977 58.5355C44.36 57.5978 43.8333 56.3261 43.8333 55C43.8333 53.6739 44.36 52.4021 45.2977 51.4645C46.2354 50.5268 47.5072 50 48.8333 50C50.1593 50 51.4311 50.5268 52.3688 51.4645C53.3065 52.4021 53.8333 53.6739 53.8333 55Z" fill="#FB7E00"/>
</svg>
