<svg width="12" height="14" viewBox="0 0 12 14" fill="none" xmlns="http://www.w3.org/2000/svg">
<path d="M10.6667 1.33333H10V0H8.66667V1.33333H3.33333V0H2V1.33333H1.33333C0.979711 1.33333 0.640573 1.47381 0.390524 1.72386C0.140476 1.97391 0 2.31304 0 2.66667V12C0 12.3536 0.140476 12.6928 0.390524 12.9428C0.640573 13.1929 0.979711 13.3333 1.33333 13.3333H10.6667C11.0203 13.3333 11.3594 13.1929 11.6095 12.9428C11.8595 12.6928 12 12.3536 12 12V2.66667C12 2.31304 11.8595 1.97391 11.6095 1.72386C11.3594 1.47381 11.0203 1.33333 10.6667 1.33333ZM10.6667 12H1.33333V5.33333H10.6667V12ZM1.33333 4V2.66667H10.6667V4H1.33333ZM2.66667 6.66667H9.33333V8H2.66667V6.66667ZM2.66667 9.33333H7.33333V10.6667H2.66667V9.33333Z" fill="#3B3B3B"/>
</svg>
