<svg width="30" height="30" viewBox="0 0 30 30" fill="none" xmlns="http://www.w3.org/2000/svg">
<path d="M25.5 0H4.5C3.30653 0 2.16193 0.474106 1.31802 1.31802C0.474106 2.16193 2.71317e-07 3.30653 2.71317e-07 4.5V6.255C-0.000214811 6.87441 0.12745 7.4872 0.375 8.055V8.145C0.58692 8.62646 0.887088 9.06399 1.26 9.435L10.5 18.615V28.5C10.4995 28.7549 10.564 29.0058 10.6873 29.2288C10.8107 29.4519 10.9888 29.6399 11.205 29.775C11.4437 29.9229 11.7192 30.0009 12 30C12.2348 29.9986 12.466 29.9421 12.675 29.835L18.675 26.835C18.9224 26.7104 19.1304 26.5196 19.276 26.284C19.4216 26.0484 19.4992 25.777 19.5 25.5V18.615L28.68 9.435C29.0529 9.06399 29.3531 8.62646 29.565 8.145V8.055C29.8332 7.49165 29.9814 6.87867 30 6.255V4.5C30 3.30653 29.5259 2.16193 28.682 1.31802C27.8381 0.474106 26.6935 0 25.5 0ZM16.935 16.935C16.796 17.0752 16.686 17.2414 16.6113 17.4241C16.5367 17.6069 16.4989 17.8026 16.5 18V24.57L13.5 26.07V18C13.5011 17.8026 13.4633 17.6069 13.3887 17.4241C13.314 17.2414 13.204 17.0752 13.065 16.935L5.115 9H24.885L16.935 16.935ZM27 6H3V4.5C3 4.10218 3.15804 3.72064 3.43934 3.43934C3.72065 3.15804 4.10218 3 4.5 3H25.5C25.8978 3 26.2794 3.15804 26.5607 3.43934C26.842 3.72064 27 4.10218 27 4.5V6Z" fill="white"/>
</svg>
