<svg width="28" height="31" viewBox="0 0 28 31" fill="none" xmlns="http://www.w3.org/2000/svg">
<path d="M23.6923 0.153809H4.30769C3.20602 0.153809 2.14947 0.627914 1.37047 1.47183C0.591476 2.31574 0.153839 3.46033 0.153839 4.65381V6.40881C0.153641 7.02822 0.271485 7.64101 0.499993 8.20881V8.29881C0.695611 8.78026 0.97269 9.2178 1.31692 9.58881L9.84615 18.7688V28.6538C9.84568 28.9087 9.90518 29.1596 10.019 29.3826C10.1329 29.6057 10.2974 29.7937 10.4969 29.9288C10.7173 30.0767 10.9715 30.1547 11.2308 30.1538C11.4475 30.1524 11.6609 30.0959 11.8538 29.9888L17.3923 26.9888C17.6206 26.8642 17.8127 26.6734 17.9471 26.4378C18.0815 26.2022 18.1531 25.9308 18.1538 25.6538V18.7688L26.6277 9.58881C26.9719 9.2178 27.249 8.78026 27.4446 8.29881V8.20881C27.6922 7.64545 27.8289 7.03248 27.8461 6.40881V4.65381C27.8461 3.46033 27.4085 2.31574 26.6295 1.47183C25.8505 0.627914 24.794 0.153809 23.6923 0.153809ZM15.7861 17.0888C15.6578 17.229 15.5563 17.3952 15.4874 17.5779C15.4185 17.7607 15.3836 17.9564 15.3846 18.1538V24.7238L12.6154 26.2238V18.1538C12.6164 17.9564 12.5815 17.7607 12.5126 17.5779C12.4437 17.3952 12.3422 17.229 12.2138 17.0888L4.87538 9.15381H23.1246L15.7861 17.0888ZM25.0769 6.15381H2.92307V4.65381C2.92307 4.25598 3.06895 3.87445 3.32861 3.59315C3.58828 3.31184 3.94046 3.15381 4.30769 3.15381H23.6923C24.0595 3.15381 24.4117 3.31184 24.6714 3.59315C24.931 3.87445 25.0769 4.25598 25.0769 4.65381V6.15381Z" fill="#4A5B8C"/>
</svg>
