<svg width="32" height="32" viewBox="0 0 32 32" fill="none" xmlns="http://www.w3.org/2000/svg">
<path d="M16.5521 14.6666L19.6094 11.6093C19.8568 11.3587 19.9951 11.0204 19.994 10.6683C19.9928 10.3162 19.8525 9.9788 19.6035 9.72982C19.3545 9.48083 19.0171 9.34046 18.665 9.33936C18.3128 9.33826 17.9746 9.47652 17.724 9.72394L14.6667 12.7812L11.6093 9.72394C11.3586 9.47766 11.0207 9.34038 10.6692 9.34198C10.3177 9.34357 9.98105 9.4839 9.73251 9.73244C9.48397 9.98098 9.34363 10.3176 9.34204 10.6691C9.34045 11.0206 9.47773 11.3585 9.72401 11.6093L12.7813 14.6666L9.72401 17.7239C9.59837 17.8473 9.49842 17.9944 9.42993 18.1566C9.36144 18.3188 9.32576 18.493 9.32496 18.6691C9.32417 18.8452 9.35826 19.0197 9.42528 19.1825C9.4923 19.3454 9.59092 19.4933 9.71543 19.6179C9.83995 19.7424 9.9879 19.841 10.1507 19.908C10.3136 19.975 10.4881 20.0091 10.6642 20.0083C10.8403 20.0075 11.0145 19.9718 11.1767 19.9034C11.3389 19.8349 11.486 19.7349 11.6093 19.6093L14.6667 16.552L17.724 19.6094C17.9746 19.8568 18.3128 19.995 18.665 19.9939C19.0171 19.9928 19.3545 19.8524 19.6035 19.6034C19.8525 19.3544 19.9928 19.017 19.9939 18.6649C19.995 18.3128 19.8568 17.9745 19.6093 17.7239L16.5521 14.6666ZM28 23.9999H26.6667V22.6666C26.6667 22.313 26.5262 21.9738 26.2762 21.7238C26.0261 21.4738 25.687 21.3333 25.3333 21.3333C24.9797 21.3333 24.6406 21.4738 24.3905 21.7238C24.1405 21.9738 24 22.313 24 22.6666V23.9999H22.6667C22.3131 23.9999 21.9739 24.1404 21.7239 24.3905C21.4738 24.6405 21.3333 24.9797 21.3333 25.3333C21.3333 25.6869 21.4738 26.026 21.7239 26.2761C21.9739 26.5261 22.3131 26.6666 22.6667 26.6666H24V27.9999C24 28.3536 24.1405 28.6927 24.3905 28.9428C24.6406 29.1928 24.9797 29.3333 25.3333 29.3333C25.687 29.3333 26.0261 29.1928 26.2762 28.9428C26.5262 28.6927 26.6667 28.3536 26.6667 27.9999V26.6666H28C28.3536 26.6666 28.6928 26.5261 28.9428 26.2761C29.1929 26.026 29.3333 25.6869 29.3333 25.3333C29.3333 24.9797 29.1929 24.6405 28.9428 24.3905C28.6928 24.1404 28.3536 23.9999 28 23.9999Z" fill="#FB7E00"/>
<path d="M9.33329 26.6665C7.56582 26.6644 5.87133 25.9614 4.62154 24.7116C3.37175 23.4618 2.6687 21.7673 2.66663 19.9998V9.33317C2.6687 7.5657 3.37175 5.87121 4.62154 4.62142C5.87133 3.37162 7.56582 2.66858 9.33329 2.6665C9.68691 2.6665 10.0261 2.80698 10.2761 3.05703C10.5262 3.30708 10.6666 3.64622 10.6666 3.99984C10.6666 4.35346 10.5262 4.6926 10.2761 4.94265C10.0261 5.19269 9.68691 5.33317 9.33329 5.33317C8.27278 5.33433 7.25604 5.75613 6.50614 6.50602C5.75625 7.25592 5.33445 8.27266 5.33329 9.33317V19.9998C5.33445 21.0603 5.75625 22.0771 6.50614 22.827C7.25604 23.5769 8.27278 23.9987 9.33329 23.9998C9.68691 23.9998 10.0261 24.1403 10.2761 24.3904C10.5262 24.6404 10.6666 24.9795 10.6666 25.3332C10.6666 25.6868 10.5262 26.0259 10.2761 26.276C10.0261 26.526 9.68691 26.6665 9.33329 26.6665ZM25.3333 18.6665C24.9797 18.6665 24.6405 18.526 24.3905 18.276C24.1404 18.0259 24 17.6868 24 17.3332V9.33317C23.9988 8.27266 23.577 7.25592 22.8271 6.50602C22.0772 5.75613 21.0605 5.33433 20 5.33317C19.6463 5.33317 19.3072 5.19269 19.0572 4.94265C18.8071 4.6926 18.6666 4.35346 18.6666 3.99984C18.6666 3.64622 18.8071 3.30708 19.0572 3.05703C19.3072 2.80698 19.6463 2.6665 20 2.6665C21.7674 2.66858 23.4619 3.37162 24.7117 4.62142C25.9615 5.87121 26.6646 7.5657 26.6666 9.33317V17.3332C26.6666 17.6868 26.5262 18.0259 26.2761 18.276C26.0261 18.526 25.6869 18.6665 25.3333 18.6665Z" fill="#FB7E00"/>
</svg>
