<svg width="32" height="32" viewBox="0 0 32 32" fill="none" xmlns="http://www.w3.org/2000/svg">
<path d="M29.3333 9.33317H24C23.6463 9.33317 23.3072 9.19269 23.0571 8.94265C22.8071 8.6926 22.6666 8.35346 22.6666 7.99984C22.6666 7.64622 22.8071 7.30708 23.0571 7.05703C23.3072 6.80698 23.6463 6.6665 24 6.6665H29.3333C29.6869 6.6665 30.0261 6.80698 30.2761 7.05703C30.5262 7.30708 30.6666 7.64622 30.6666 7.99984C30.6666 8.35346 30.5262 8.6926 30.2761 8.94265C30.0261 9.19269 29.6869 9.33317 29.3333 9.33317Z" fill="#FB7E00"/>
<path d="M26.6667 12C26.4916 12 26.3182 11.9656 26.1564 11.8986C25.9946 11.8316 25.8476 11.7334 25.7238 11.6096C25.6 11.4858 25.5018 11.3388 25.4348 11.177C25.3678 11.0152 25.3333 10.8418 25.3334 10.6667V5.33333C25.3334 4.97971 25.4738 4.64057 25.7239 4.39052C25.9739 4.14048 26.3131 4 26.6667 4C27.0203 4 27.3595 4.14048 27.6095 4.39052C27.8596 4.64057 28 4.97971 28 5.33333V10.6667C28.0001 10.8418 27.9656 11.0152 27.8986 11.177C27.8316 11.3388 27.7334 11.4858 27.6096 11.6096C27.4858 11.7334 27.3388 11.8316 27.177 11.8986C27.0152 11.9656 26.8418 12 26.6667 12Z" fill="#FB7E00"/>
<path d="M5.33325 28.8335C4.64106 28.8335 3.96442 28.6282 3.38888 28.2436C2.81331 27.8591 2.3647 27.3124 2.0998 26.6729C1.83489 26.0333 1.76558 25.3296 1.90063 24.6507C2.03568 23.9717 2.36902 23.3481 2.8585 22.8586C3.34799 22.3691 3.97163 22.0358 4.65056 21.9007C5.32949 21.7657 6.03323 21.835 6.67277 22.0999C7.31231 22.3648 7.85893 22.8134 8.24352 23.389C8.62808 23.9645 8.83335 24.6412 8.83338 25.3334C8.83225 26.2613 8.46313 27.1509 7.80697 27.8071C7.15081 28.4633 6.26119 28.8324 5.33325 28.8335Z" fill="#FB7E00" stroke="white"/>
<path d="M13.7058 20.0252C13.6164 19.8746 13.4983 19.7431 13.3581 19.6382C13.2179 19.5333 13.0585 19.457 12.8888 19.4138C12.7192 19.3706 12.5426 19.3612 12.3694 19.3862C12.1961 19.4113 12.0294 19.4702 11.8789 19.5597L7.6416 22.0776C8.38827 22.6112 8.92861 23.3855 9.17191 24.2705L13.2409 21.8527C13.5449 21.6719 13.7646 21.3779 13.8518 21.0352C13.9389 20.6925 13.8864 20.3292 13.7058 20.0252Z" fill="#FB7E00"/>
<path d="M26.6665 28.8335C25.9743 28.8335 25.2977 28.6282 24.7221 28.2436C24.1466 27.8591 23.698 27.3124 23.433 26.6729C23.1681 26.0333 23.0988 25.3296 23.2339 24.6507C23.3689 23.9717 23.7023 23.3481 24.1918 22.8586C24.6812 22.3691 25.3049 22.0358 25.9838 21.9007C26.6627 21.7657 27.3665 21.835 28.006 22.0999C28.6456 22.3648 29.1922 22.8134 29.5768 23.389C29.9613 23.9645 30.1666 24.6412 30.1666 25.3334C30.1655 26.2613 29.7964 27.1509 29.1402 27.8071C28.4841 28.4633 27.5944 28.8324 26.6665 28.8335Z" fill="#FB7E00" stroke="white"/>
<path d="M24.3585 22.0779L20.1212 19.56C19.9706 19.4706 19.8039 19.4117 19.6306 19.3867C19.4573 19.3617 19.2807 19.3711 19.111 19.4143C18.9413 19.4575 18.7818 19.5338 18.6416 19.6386C18.5013 19.7435 18.3831 19.875 18.2937 20.0255C18.2043 20.1761 18.1454 20.3428 18.1204 20.5161C18.0953 20.6894 18.1047 20.866 18.148 21.0357C18.1912 21.2054 18.2674 21.3649 18.3723 21.5051C18.4772 21.6454 18.6086 21.7636 18.7592 21.853L22.8281 24.2708C23.0714 23.3859 23.6118 22.6116 24.3585 22.0779Z" fill="#FB7E00"/>
<path d="M15.9999 10.1665C15.3077 10.1665 14.631 9.96121 14.0555 9.57665C13.4799 9.19206 13.0313 8.64544 12.7664 8.0059C12.5015 7.36636 12.4322 6.66262 12.5673 5.98369C12.7023 5.30476 13.0356 4.68112 13.5251 4.19163C14.0146 3.70215 14.6383 3.36881 15.3172 3.23376C15.9961 3.09871 16.6999 3.16802 17.3394 3.43293C17.9789 3.69783 18.5256 4.14644 18.9101 4.72201C19.2947 5.29755 19.5 5.97419 19.5 6.66638C19.4989 7.59432 19.1298 8.48394 18.4736 9.1401C17.8174 9.79626 16.9278 10.1654 15.9999 10.1665Z" fill="#FB7E00" stroke="white"/>
<path d="M16 10.6667C15.5447 10.6621 15.0936 10.579 14.6666 10.4209V14.6667C14.6666 15.0203 14.8071 15.3594 15.0572 15.6095C15.3072 15.8595 15.6463 16 16 16C16.3536 16 16.6927 15.8595 16.9428 15.6095C17.1928 15.3594 17.3333 15.0203 17.3333 14.6667V10.421C16.9063 10.5791 16.4552 10.6622 16 10.6667Z" fill="#FB7E00"/>
<path d="M15.9994 23.5002C15.0437 23.5001 14.1094 23.2166 13.3147 22.6856C12.5199 22.1545 11.9004 21.3996 11.5345 20.5165C11.1687 19.6333 11.073 18.6615 11.2595 17.7239C11.446 16.7863 11.9063 15.9251 12.5823 15.2491C13.2582 14.5732 14.1195 14.1129 15.057 13.9264C15.9946 13.7399 16.9664 13.8356 17.8496 14.2014C18.7328 14.5672 19.4876 15.1867 20.0187 15.9816C20.5497 16.7763 20.8332 17.7105 20.8333 18.6663C20.8319 19.9479 20.3222 21.1766 19.416 22.0829C18.5098 22.9891 17.281 23.4988 15.9994 23.5002Z" fill="#FB7E00" stroke="white"/>
</svg>
