<svg width="32" height="32" viewBox="0 0 32 32" fill="none" xmlns="http://www.w3.org/2000/svg">
<path d="M29.3333 9.33317H24C23.6463 9.33317 23.3072 9.19269 23.0571 8.94265C22.8071 8.6926 22.6666 8.35346 22.6666 7.99984C22.6666 7.64622 22.8071 7.30708 23.0571 7.05703C23.3072 6.80698 23.6463 6.6665 24 6.6665H29.3333C29.6869 6.6665 30.0261 6.80698 30.2761 7.05703C30.5262 7.30708 30.6666 7.64622 30.6666 7.99984C30.6666 8.35346 30.5262 8.6926 30.2761 8.94265C30.0261 9.19269 29.6869 9.33317 29.3333 9.33317Z" fill="white"/>
<path d="M26.6667 12C26.4916 12 26.3182 11.9656 26.1564 11.8986C25.9946 11.8316 25.8476 11.7334 25.7238 11.6096C25.6 11.4858 25.5018 11.3388 25.4348 11.177C25.3678 11.0152 25.3333 10.8418 25.3334 10.6667V5.33333C25.3334 4.97971 25.4738 4.64057 25.7239 4.39052C25.9739 4.14048 26.3131 4 26.6667 4C27.0203 4 27.3595 4.14048 27.6095 4.39052C27.8596 4.64057 28 4.97971 28 5.33333V10.6667C28.0001 10.8418 27.9656 11.0152 27.8986 11.177C27.8316 11.3388 27.7334 11.4858 27.6096 11.6096C27.4858 11.7334 27.3388 11.8316 27.177 11.8986C27.0152 11.9656 26.8418 12 26.6667 12Z" fill="white"/>
<path d="M14.0642 19.6526C13.9748 19.502 13.8567 19.3705 13.7165 19.2656C13.5763 19.1607 13.4169 19.0845 13.2472 19.0413C13.0776 18.998 12.901 18.9887 12.7278 19.0137C12.5545 19.0387 12.3878 19.0976 12.2373 19.1871L8.5 21C9.24667 21.5337 9.75671 22.6151 10 23.5L13.5993 21.4801C13.9033 21.2994 14.123 21.0053 14.2102 20.6626C14.2973 20.3199 14.2448 19.9566 14.0642 19.6526Z" fill="white"/>
<path d="M23.5 22L19.2626 19.7334C19.1121 19.644 18.9454 19.5851 18.7721 19.5601C18.5987 19.535 18.4222 19.5444 18.2525 19.5877C18.0828 19.6309 17.9233 19.7071 17.783 19.812C17.6428 19.9169 17.5246 20.0483 17.4352 20.1989C17.3457 20.3494 17.2868 20.5161 17.2618 20.6895C17.2368 20.8628 17.2462 21.0393 17.2894 21.209C17.3327 21.3787 17.4089 21.5382 17.5138 21.6785C17.6186 21.8187 17.7501 21.9369 17.9007 22.0264L21.9696 24.4442C22.2129 23.5592 22.7533 22.5336 23.5 22Z" fill="white"/>
<path d="M16 10.6667C15.5447 10.6621 15.0936 10.579 14.6666 10.4209V14.6667C14.6666 15.0203 14.8071 15.3594 15.0572 15.6095C15.3072 15.8595 15.6463 16 16 16C16.3536 16 16.6927 15.8595 16.9428 15.6095C17.1928 15.3594 17.3333 15.0203 17.3333 14.6667V10.421C16.9063 10.5791 16.4552 10.6622 16 10.6667Z" fill="white"/>
<path fill-rule="evenodd" clip-rule="evenodd" d="M12.9444 23.0731C13.8488 23.6774 14.9122 24 16 24C12.9639 24 10.5024 21.54 10.5 18.5044C10.5006 19.2218 10.6415 19.9356 10.9187 20.6048C11.3349 21.6098 12.0399 22.4687 12.9444 23.0731ZM10.5 18.4943C10.5004 18.1376 10.5354 17.7802 10.6057 17.427C10.8179 16.3601 11.3417 15.3801 12.1109 14.6109C12.8801 13.8417 13.8601 13.3179 14.927 13.1057C15.9939 12.8935 17.0998 13.0024 18.1048 13.4187C19.1098 13.8349 19.9687 14.5399 20.5731 15.4444C21.1774 16.3488 21.5 17.4122 21.5 18.5C21.4984 19.9582 20.9185 21.3563 19.8874 22.3874C18.8563 23.4185 17.4582 23.9984 16 24C19.0376 24 21.5 21.5376 21.5 18.5C21.5 15.4624 19.0376 13 16 13C12.9643 13 10.5031 15.4594 10.5 18.4943ZM10.5 18.4943C10.5 18.4977 10.5 18.5011 10.5 18.5044C10.5 18.503 10.5 18.5015 10.5 18.5C10.5 18.4981 10.5 18.4962 10.5 18.4943ZM20.5 18.5C20.5 20.9853 18.4853 23 16 23C13.5147 23 11.5 20.9853 11.5 18.5C11.5 16.0147 13.5147 14 16 14C18.4853 14 20.5 16.0147 20.5 18.5Z" fill="white"/>
<path fill-rule="evenodd" clip-rule="evenodd" d="M19 7C19 8.65685 17.6569 10 16 10C14.3431 10 13 8.65685 13 7C13 5.34315 14.3431 4 16 4C17.6569 4 19 5.34315 19 7ZM20 7.00311C19.9983 9.21024 18.209 10.9991 16.0017 11C17.0616 10.9984 18.0777 10.5766 18.8272 9.82715C19.5763 9.07799 19.998 8.0625 20 7.00311ZM19.9999 6.96756C19.9914 5.90705 19.5703 4.94485 18.8892 4.23366C19.0496 4.40119 19.1958 4.58311 19.3259 4.77772C19.7594 5.42652 19.9936 6.18775 19.9999 6.96756ZM15.9732 10.9999C15.1914 10.9947 14.4281 10.7604 13.7777 10.3259C13.5722 10.1886 13.3809 10.0332 13.2057 9.86215C13.9208 10.5604 14.8965 10.9928 15.9732 10.9999ZM13.1188 9.77469C12.7738 9.41637 12.4968 8.99497 12.3045 8.53074C12.0017 7.79983 11.9225 6.99556 12.0769 6.21964C12.2312 5.44372 12.6122 4.73098 13.1716 4.17157C13.731 3.61216 14.4437 3.2312 15.2196 3.07686C15.4758 3.02592 15.735 3.00042 15.9936 3.00001C16.5185 2.99917 17.0411 3.10166 17.5307 3.30448C18.0035 3.5003 18.4318 3.78393 18.7943 4.13784C18.0733 3.43383 17.0873 3 16 3C15.9979 3 15.9957 3 15.9936 3.00001C13.7874 3.00346 12 4.793 12 7C12 8.07749 12.426 9.05547 13.1188 9.77469Z" fill="white"/>
<path fill-rule="evenodd" clip-rule="evenodd" d="M9 24C9 25.6569 7.65685 27 6 27C4.34315 27 3 25.6569 3 24C3 22.3431 4.34315 21 6 21C7.65685 21 9 22.3431 9 24ZM10 24.0031C9.99832 26.2102 8.20904 27.9991 6.00174 28C7.06163 27.9984 8.07767 27.5766 8.82715 26.8272C9.57631 26.078 9.99802 25.0625 10 24.0031ZM9.99991 23.9732C9.99292 22.9083 9.56978 21.9421 8.88498 21.2293C9.04704 21.398 9.19471 21.5814 9.32588 21.7777C9.76043 22.4281 9.99467 23.1914 9.99991 23.9732ZM5.97316 27.9999C5.1914 27.9947 4.42808 27.7604 3.77772 27.3259C3.57223 27.1886 3.3809 27.0332 3.20571 26.8622C3.92077 27.5604 4.89647 27.9928 5.97316 27.9999ZM3.11399 26.7697C2.77117 26.4124 2.49588 25.9928 2.30448 25.5307C2.10249 25.0431 2 24.5228 2 24C2 23.7392 2.0255 23.4779 2.07686 23.2196C2.2312 22.4437 2.61216 21.731 3.17157 21.1716C3.73098 20.6122 4.44372 20.2312 5.21964 20.0769C5.47576 20.0259 5.73496 20.0004 5.99359 20C6.51851 19.9992 7.04109 20.1017 7.53074 20.3045C8.00347 20.5003 8.43178 20.7839 8.79429 21.1378C8.07329 20.4338 7.08731 20 6 20C5.99786 20 5.99573 20 5.99359 20C3.7874 20.0035 2 21.793 2 24C2 25.075 2.42405 26.0509 3.11399 26.7697Z" fill="white"/>
<path fill-rule="evenodd" clip-rule="evenodd" d="M29 25C29 26.6569 27.6569 28 26 28C24.3431 28 23 26.6569 23 25C23 23.3431 24.3431 22 26 22C27.6569 22 29 23.3431 29 25ZM30 25.0031C29.9983 27.2102 28.209 28.9991 26.0017 29C27.0616 28.9984 28.0777 28.5766 28.8272 27.8272C29.5763 27.078 29.998 26.0625 30 25.0031ZM29.9999 24.9732C29.9929 23.9107 29.5717 22.9466 28.8898 22.2342C29.0499 22.4016 29.196 22.5833 29.3259 22.7777C29.7604 23.4281 29.9947 24.1914 29.9999 24.9732ZM25.9732 28.9999C25.1914 28.9947 24.4281 28.7604 23.7777 28.3259C23.5722 28.1886 23.3809 28.0332 23.2057 27.8622C23.9208 28.5604 24.8965 28.9928 25.9732 28.9999ZM23.118 27.7738C22.7733 27.4157 22.4966 26.9946 22.3045 26.5307C22.1025 26.0431 22 25.5228 22 25C22 24.7392 22.0255 24.4779 22.0769 24.2196C22.2312 23.4437 22.6122 22.731 23.1716 22.1716C23.731 21.6122 24.4437 21.2312 25.2196 21.0769C25.4758 21.0259 25.735 21.0004 25.9936 21C26.5185 20.9992 27.0411 21.1017 27.5307 21.3045C28.0035 21.5003 28.4318 21.7839 28.7943 22.1378C28.0733 21.4338 27.0873 21 26 21C25.9979 21 25.9957 21 25.9936 21C23.7874 21.0035 22 22.793 22 25C22 26.0771 22.4257 27.0547 23.118 27.7738Z" fill="white"/>
</svg>
