<svg width="32" height="32" viewBox="0 0 32 32" fill="none" xmlns="http://www.w3.org/2000/svg">
<path d="M25.3333 28.6668H6.66663C5.60612 28.6657 4.58937 28.2439 3.83948 27.494C3.08958 26.7441 2.66778 25.7273 2.66663 24.6668V7.3335C2.66778 6.27299 3.08958 5.25624 3.83948 4.50635C4.58937 3.75645 5.60612 3.33466 6.66663 3.3335H12.7447C13.5843 3.33279 14.4027 3.59659 15.0838 4.08744C15.7649 4.57828 16.2741 5.27122 16.539 6.06787L16.9609 7.3335H25.3333C26.3938 7.33465 27.4105 7.75645 28.1604 8.50635C28.9103 9.25624 29.3321 10.273 29.3333 11.3335V24.6668C29.3321 25.7273 28.9103 26.7441 28.1604 27.494C27.4105 28.2439 26.3938 28.6657 25.3333 28.6668Z" fill="#61C454"/>
<path d="M16 23.3333C15.8248 23.3334 15.6514 23.299 15.4896 23.232C15.3278 23.1651 15.1808 23.0669 15.0569 22.943C14.9331 22.8192 14.8349 22.6722 14.7679 22.5104C14.7009 22.3485 14.6665 22.1751 14.6666 22V15.3333C14.6666 14.9797 14.8071 14.6406 15.0572 14.3905C15.3072 14.1405 15.6463 14 16 14C16.3536 14 16.6927 14.1405 16.9428 14.3905C17.1928 14.6406 17.3333 14.9797 17.3333 15.3333V22C17.3334 22.1751 17.299 22.3485 17.232 22.5104C17.165 22.6722 17.0668 22.8192 16.943 22.943C16.8192 23.0669 16.6721 23.1651 16.5103 23.232C16.3485 23.299 16.1751 23.3334 16 23.3333Z" fill="white"/>
<path d="M18.6667 19.3333C18.4916 19.3335 18.3181 19.2991 18.1564 19.232C17.9946 19.165 17.8477 19.0666 17.724 18.9426L16 17.2187L14.276 18.9427C14.0255 19.1901 13.6872 19.3284 13.3351 19.3273C12.9829 19.3261 12.6456 19.1858 12.3966 18.9368C12.1476 18.6878 12.0072 18.3504 12.0061 17.9982C12.005 17.6461 12.1433 17.3078 12.3907 17.0573L15.0574 14.3906C15.1811 14.2668 15.3281 14.1686 15.4898 14.1015C15.6516 14.0345 15.825 14 16.0001 14C16.1752 14 16.3485 14.0345 16.5103 14.1015C16.672 14.1686 16.819 14.2668 16.9428 14.3906L19.6094 17.0573C19.7959 17.2438 19.9228 17.4813 19.9742 17.7399C20.0256 17.9986 19.9992 18.2666 19.8983 18.5102C19.7974 18.7538 19.6266 18.962 19.4073 19.1085C19.1881 19.255 18.9304 19.3333 18.6667 19.3333Z" fill="white"/>
</svg>
