<svg width="32" height="32" viewBox="0 0 32 32" fill="none" xmlns="http://www.w3.org/2000/svg">
<path d="M18.6667 13.3333H16V9.33333C16 8.97971 16.1405 8.64057 16.3905 8.39052C16.6406 8.14048 16.9797 8 17.3333 8C17.687 8 18.0261 8.14048 18.2761 8.39052C18.5262 8.64057 18.6667 8.97971 18.6667 9.33333V13.3333ZM12 8C11.6464 8 11.3072 8.14048 11.0572 8.39052C10.8071 8.64057 10.6667 8.97971 10.6667 9.33333V10.6667H9.33333C8.97971 10.6667 8.64057 10.8071 8.39052 11.0572C8.14048 11.3072 8 11.6464 8 12C8 12.3536 8.14048 12.6928 8.39052 12.9428C8.64057 13.1929 8.97971 13.3333 9.33333 13.3333H13.3333V9.33333C13.3333 8.97971 13.1929 8.64057 12.9428 8.39052C12.6928 8.14048 12.3536 8 12 8ZM13.3333 16V18.6667H9.33333C8.97971 18.6667 8.64057 18.5262 8.39052 18.2761C8.14048 18.0261 8 17.687 8 17.3333C8 16.9797 8.14048 16.6406 8.39052 16.3905C8.64057 16.1405 8.97971 16 9.33333 16H13.3333Z" fill="white"/>
<path d="M13.3333 16V18.6667H9.33333C8.97971 18.6667 8.64057 18.5262 8.39052 18.2761C8.14048 18.0261 8 17.687 8 17.3333C8 16.9797 8.14048 16.6406 8.39052 16.3905C8.64057 16.1405 8.97971 16 9.33333 16H13.3333Z" fill="white"/>
<path d="M28 2.6665H3.99996C3.82485 2.66646 3.65145 2.70092 3.48966 2.76791C3.32787 2.8349 3.18087 2.93311 3.05705 3.05693C2.93323 3.18075 2.83502 3.32775 2.76803 3.48954C2.70104 3.65133 2.66658 3.82473 2.66663 3.99984V27.9998C2.66658 28.1749 2.70104 28.3483 2.76803 28.5101C2.83502 28.6719 2.93323 28.8189 3.05705 28.9427C3.18087 29.0666 3.32787 29.1648 3.48966 29.2318C3.65145 29.2988 3.82485 29.3332 3.99996 29.3332H12C12.1751 29.3332 12.3485 29.2988 12.5103 29.2318C12.672 29.1648 12.819 29.0666 12.9429 28.9427C13.0667 28.8189 13.1649 28.6719 13.2319 28.5101C13.2989 28.3483 13.3333 28.1749 13.3333 27.9998V23.9998H9.33329C8.97967 23.9998 8.64053 23.8594 8.39048 23.6093C8.14044 23.3593 7.99996 23.0201 7.99996 22.6665C7.99996 22.3129 8.14044 21.9737 8.39048 21.7237C8.64053 21.4736 8.97967 21.3332 9.33329 21.3332H13.3333V18.6665H9.33329C8.97967 18.6665 8.64053 18.526 8.39048 18.276C8.14044 18.0259 7.99996 17.6868 7.99996 17.3332C7.99996 16.9795 8.14044 16.6404 8.39048 16.3904C8.64053 16.1403 8.97967 15.9998 9.33329 15.9998H13.3333V13.3332H9.33329C8.97967 13.3332 8.64053 13.1927 8.39048 12.9426C8.14044 12.6926 7.99996 12.3535 7.99996 11.9998C7.99996 11.6462 8.14044 11.3071 8.39048 11.057C8.64053 10.807 8.97967 10.6665 9.33329 10.6665H10.6666V9.33317C10.6666 8.97955 10.8071 8.64041 11.0572 8.39036C11.3072 8.14031 11.6463 7.99984 12 7.99984C12.3536 7.99984 12.6927 8.14031 12.9428 8.39036C13.1928 8.64041 13.3333 8.97955 13.3333 9.33317V13.3332H16V9.33317C16 8.97955 16.1404 8.64041 16.3905 8.39036C16.6405 8.14031 16.9797 7.99984 17.3333 7.99984C17.6869 7.99984 18.0261 8.14031 18.2761 8.39036C18.5262 8.64041 18.6666 8.97955 18.6666 9.33317V13.3332H21.3333V9.33317C21.3333 8.97955 21.4738 8.64041 21.7238 8.39036C21.9739 8.14031 22.313 7.99984 22.6666 7.99984C23.0202 7.99984 23.3594 8.14031 23.6094 8.39036C23.8595 8.64041 24 8.97955 24 9.33317V13.3332H28C28.1751 13.3332 28.3485 13.2988 28.5103 13.2318C28.672 13.1648 28.819 13.0666 28.9429 12.9427C29.0667 12.8189 29.1649 12.6719 29.2319 12.5101C29.2989 12.3483 29.3333 12.1749 29.3333 11.9998V3.99984C29.3333 3.82473 29.2989 3.65133 29.2319 3.48954C29.1649 3.32775 29.0667 3.18075 28.9429 3.05693C28.819 2.93311 28.672 2.8349 28.5103 2.76791C28.3485 2.70092 28.1751 2.66646 28 2.6665Z" fill="#4A5B8C"/>
<path d="M13.3333 21.3333V24H9.33333C8.97971 24 8.64057 23.8595 8.39052 23.6095C8.14048 23.3594 8 23.0203 8 22.6667C8 22.313 8.14048 21.9739 8.39052 21.7239C8.64057 21.4738 8.97971 21.3333 9.33333 21.3333H13.3333ZM24 13.3333H21.3333V9.33333C21.3333 8.97971 21.4738 8.64057 21.7239 8.39052C21.9739 8.14048 22.313 8 22.6667 8C23.0203 8 23.3594 8.14048 23.6095 8.39052C23.8595 8.64057 24 8.97971 24 9.33333V13.3333Z" fill="white"/>
<path d="M24.5578 22.8386V18.3862L26.4275 20.2558C26.5478 20.3746 26.7102 20.4409 26.8792 20.4404C27.0482 20.4399 27.2102 20.3725 27.3297 20.253C27.4492 20.1334 27.5166 19.9715 27.5171 19.8025C27.5176 19.6334 27.4513 19.4711 27.3325 19.3508L24.3705 16.3888C24.2502 16.2693 24.0875 16.2021 23.9178 16.2021C23.7482 16.2021 23.5855 16.2693 23.4651 16.3888L20.5028 19.3508C20.3828 19.4708 20.3154 19.6336 20.3154 19.8033C20.3154 19.973 20.3828 20.1358 20.5028 20.2558C20.6228 20.3758 20.7856 20.4432 20.9553 20.4432C21.125 20.4432 21.2878 20.3758 21.4078 20.2558L23.2778 18.386V22.8386C23.2773 23.3477 23.0748 23.8357 22.7148 24.1957C22.3549 24.5556 21.8669 24.7581 21.3578 24.7586H15.36C15.1903 24.7586 15.0275 24.8261 14.9075 24.9461C14.7874 25.0661 14.72 25.2289 14.72 25.3986C14.72 25.5684 14.7874 25.7312 14.9075 25.8512C15.0275 25.9712 15.1903 26.0386 15.36 26.0386H21.3578C22.2062 26.0376 23.0196 25.7002 23.6195 25.1003C24.2194 24.5004 24.5568 23.687 24.5578 22.8386Z" fill="#4A5B8C"/>
</svg>
