<?xml version="1.0" encoding="iso-8859-1"?>
<!-- Generator: Adobe Illustrator 19.0.0, SVG Export Plug-In . SVG Version: 6.00 Build 0)  -->
<svg version="1.1" id="Capa_1" xmlns="http://www.w3.org/2000/svg" xmlns:xlink="http://www.w3.org/1999/xlink" x="0px" y="0px"
	 viewBox="0 0 511.999 511.999" style="enable-background:new 0 0 511.999 511.999;" xml:space="preserve">
<path style="fill:#FD3C65;" d="M483.8,21.474c26.3,22.37,23.08,61.3-3.13,79.65c-7.8,5.47-16.61,8.33-25.46,8.84
	c-7.78,0.44-15.42,1.94-22.72,4.45c-7.29,2.5-14.24,6.01-20.63,10.48l-34.41-49.15c12.53-8.77,22.72-20.66,28.51-34.81
	c5.11-12.46,15.3-23.05,30.25-28.29C452.24,7.024,470.85,10.474,483.8,21.474z"/>
<path style="fill:#4DBBEB;" d="M411.86,124.894c6.34,9.05,4.14,21.52-4.91,27.86c-3.49,2.44-7.49,3.61-11.45,3.61
	c-6.31,0-12.51-2.97-16.4-8.53l-34.42-49.15c-6.33-9.04-4.14-21.51,4.91-27.85c3.49-2.45,7.49-3.62,11.46-3.62
	c6.3,0,12.51,2.97,16.4,8.53L411.86,124.894z"/>
<path style="fill:#C4F0FF;" d="M344.68,98.684l34.42,49.15l-145.26,103.51c-13.57,9.51-32.28,6.21-41.78-7.37
	c-9.5-13.57-6.21-32.27,7.37-41.78L344.68,98.684z"/>
<path style="fill:#4DBBEB;" d="M336,415.984v86H10v-86H336z"/>
<path style="fill:#FD3C65;" d="M176,345.984c0,16.57-13.43,30-30,30s-30-13.43-30-30s30-70,30-70S176,329.414,176,345.984z"/>
<path d="M196,468.984c5.52,0,10-4.48,10-10s-4.48-10-10-10s-10,4.48-10,10C186,464.503,190.48,468.984,196,468.984z"/>
<path d="M336,405.984H10c-5.522,0-10,4.477-10,10v86c0,5.522,4.478,10,10,10h326c5.522,0,10-4.478,10-10v-86
	C346,410.461,341.522,405.984,336,405.984z M326,491.984H20v-66h306V491.984z"/>
<path d="M50,468.984h106c5.522,0,10-4.477,10-10s-4.478-10-10-10H50c-5.522,0-10,4.477-10,10S44.478,468.984,50,468.984z"/>
<path d="M490.273,13.852c-15.57-13.227-38.092-17.407-57.371-10.646c-16.777,5.88-29.632,17.931-36.197,33.94
	c-3.897,9.523-10.254,18.186-18.577,25.401c-4.954-3.423-10.896-5.334-17.078-5.334c-6.19,0-12.141,1.879-17.197,5.43
	c-10.695,7.493-14.998,20.751-11.67,32.667l-138.489,98.692c-15.238,10.671-20.758,30.122-14.524,46.789l-37.202,26.051
	c-1.948,0.86-3.61,2.325-4.688,4.245c-5.224,9.303-31.28,56.636-31.28,74.896c0,22.056,17.944,40,40,40s40-17.944,40-40
	c0-15.04-17.668-49.784-26.821-66.776l31.454-22.026c5.373,4.611,11.899,7.721,19.054,8.984c2.344,0.414,4.69,0.618,7.022,0.618
	c8.14,0,16.081-2.493,22.934-7.296L378.12,160.81c5.014,3.557,11.069,5.553,17.38,5.553c6.173,0,12.113-1.872,17.188-5.419
	c10.536-7.381,14.874-20.354,11.823-32.13c3.587-1.951,7.34-3.609,11.232-4.943c6.442-2.216,13.183-3.535,20.043-3.923
	c11.019-0.635,21.609-4.313,30.62-10.631c15.341-10.741,24.646-27.64,25.526-46.365C512.813,44.205,504.921,26.311,490.273,13.852z
	 M146,365.984c-11.028,0-20-8.972-20-20c0-6.798,9.292-28.105,20.001-48.882C156.709,317.873,166,339.179,166,345.984
	C166,357.011,157.028,365.984,146,365.984z M228.101,243.154c-4.376,3.065-9.682,4.241-14.94,3.315
	c-5.26-0.928-9.844-3.85-12.908-8.23c-6.324-9.033-4.119-21.528,4.981-27.902l137.039-97.658l22.947,32.767L228.101,243.154z
	 M401.221,144.558c-1.689,1.181-3.668,1.806-5.721,1.806c-3.271,0-6.339-1.594-8.209-4.266l-34.42-49.149
	c-3.161-4.515-2.06-10.761,2.465-13.93c1.682-1.181,3.657-1.805,5.714-1.805c3.27,0,6.338,1.593,8.206,4.262
	c0.001,0.001,0.001,0.002,0.002,0.003l34.41,49.15c0.001,0.001,0.001,0.002,0.002,0.003
	C406.834,135.148,405.731,141.398,401.221,144.558z M491.953,62.011c-0.587,12.49-6.79,23.76-17.024,30.925
	c-5.972,4.188-12.989,6.623-20.283,7.043c-8.682,0.491-17.229,2.166-25.399,4.975c-5.063,1.736-9.951,3.898-14.616,6.459
	L391.09,77.787c10.759-9.29,19.014-20.571,24.123-33.06c4.364-10.641,12.996-18.684,24.307-22.647
	c12.706-4.456,27.546-1.701,37.803,7.01C487.209,37.501,492.542,49.5,491.953,62.011z"/>
<g>
</g>
<g>
</g>
<g>
</g>
<g>
</g>
<g>
</g>
<g>
</g>
<g>
</g>
<g>
</g>
<g>
</g>
<g>
</g>
<g>
</g>
<g>
</g>
<g>
</g>
<g>
</g>
<g>
</g>
</svg>
