<svg width="32" height="32" viewBox="0 0 32 32" fill="none" xmlns="http://www.w3.org/2000/svg">
<path d="M24 26.6668V4.0001C23.9999 3.2639 23.403 2.66715 22.6668 2.66722C22.4342 2.66725 22.2057 2.72814 22.0039 2.84385L18 5.13813L13.9961 2.84385C13.5855 2.60861 13.0811 2.60861 12.6705 2.84385L8.66663 5.13813L4.66272 2.84385C4.02407 2.47763 3.20947 2.69847 2.84325 3.33713C2.72755 3.53891 2.66665 3.76749 2.66663 4.0001V26.6668C2.66663 28.1395 3.86053 29.3334 5.33329 29.3334H26.6666C25.1939 29.3334 24 28.1395 24 26.6668Z" fill="#FB7E00"/>
<path d="M17.3326 18.5665L17.3323 18.5665C16.6587 18.5735 16.107 18.0331 16.1 17.3595C16.0982 17.19 16.1319 17.0219 16.1987 16.8661L16.1988 16.8661L16.2002 16.8624C16.4383 16.2402 17.1358 15.9288 17.758 16.1669C17.9231 16.2301 18.0722 16.3287 18.195 16.4559L18.1949 16.456L18.1977 16.4587C18.3159 16.572 18.4077 16.7098 18.4666 16.8626L18.4665 16.8626L18.4679 16.8658C18.531 17.0138 18.5646 17.1726 18.5667 17.3335C18.5615 18.0126 18.0119 18.5618 17.3326 18.5665ZM16.8661 23.8011L16.8653 23.8008C16.7155 23.7383 16.5774 23.6507 16.457 23.5418C16.3448 23.4214 16.2528 23.2836 16.1845 23.1339C16.1262 22.9856 16.0975 22.8274 16.1 22.6681L16.1 22.6678C16.1043 22.3404 16.2322 22.0268 16.4581 21.7899C16.7491 21.5015 17.1645 21.3767 17.5662 21.4572L17.5662 21.4573L17.5713 21.4581C17.6491 21.4695 17.7244 21.4935 17.7945 21.5291L17.8009 21.5323L17.8077 21.5346C17.8838 21.5604 17.956 21.5964 18.0223 21.6418C18.0878 21.688 18.1505 21.738 18.2102 21.7916C18.4345 22.0286 18.5618 22.3412 18.5667 22.6676C18.5694 22.9945 18.4413 23.3089 18.211 23.5408C18.09 23.6499 17.9515 23.7379 17.8012 23.801L17.8007 23.8012C17.6528 23.8642 17.4941 23.8977 17.3334 23.8998C17.1726 23.8977 17.0139 23.8642 16.8661 23.8011ZM16 13.2332H10.6667C9.98552 13.2332 9.43333 12.681 9.43333 11.9998C9.43333 11.3187 9.98552 10.7665 10.6667 10.7665H16C16.6812 10.7665 17.2333 11.3187 17.2333 11.9998C17.2333 12.681 16.6812 13.2332 16 13.2332ZM12 18.5665H9.33333C8.65219 18.5665 8.1 18.0143 8.1 17.3332C8.1 16.652 8.65219 16.0998 9.33333 16.0998H12C12.6812 16.0998 13.2333 16.652 13.2333 17.3332C13.2333 18.0143 12.6812 18.5665 12 18.5665ZM9.33333 23.8998C8.65219 23.8998 8.1 23.3476 8.1 22.6665C8.1 21.9854 8.65219 21.4332 9.33333 21.4332H12C12.6812 21.4332 13.2333 21.9854 13.2333 22.6665C13.2333 23.3476 12.6812 23.8998 12 23.8998H9.33333Z" fill="white" stroke="white" stroke-width="0.2"/>
<path d="M28.832 18.6667V26.6667C28.832 27.8633 27.8619 28.8333 26.6653 28.8333C25.4687 28.8333 24.4987 27.8633 24.4987 26.6667V16.5H26.6653C27.8619 16.5 28.832 17.47 28.832 18.6667Z" fill="white" stroke="#FB7E00"/>
</svg>
