<svg width="32" height="32" viewBox="0 0 32 32" fill="none" xmlns="http://www.w3.org/2000/svg">
<path fill-rule="evenodd" clip-rule="evenodd" d="M24 4.0001V26.6668C24 28.1395 25.1939 29.3334 26.6666 29.3334H5.33329C3.86053 29.3334 2.66663 28.1395 2.66663 26.6668V4.0001C2.66665 3.76749 2.72755 3.53891 2.84325 3.33713C3.20947 2.69847 4.02407 2.47763 4.66272 2.84385L8.66663 5.13813L12.6705 2.84385C13.0811 2.60861 13.5855 2.60861 13.9961 2.84385L18 5.13813L22.0039 2.84385C22.2057 2.72814 22.4342 2.66725 22.6668 2.66722C23.403 2.66715 23.9999 3.2639 24 4.0001ZM10.6667 13.3332H16C16.7364 13.3332 17.3333 12.7362 17.3333 11.9998C17.3333 11.2635 16.7364 10.6665 16 10.6665H10.6667C9.93029 10.6665 9.33333 11.2635 9.33333 11.9998C9.33333 12.7362 9.93029 13.3332 10.6667 13.3332ZM8 17.3332C8 18.0696 8.59696 18.6665 9.33333 18.6665H12C12.7364 18.6665 13.3333 18.0696 13.3333 17.3332C13.3333 16.5968 12.7364 15.9998 12 15.9998H9.33333C8.59696 15.9998 8 16.5968 8 17.3332ZM8 22.6665C8 23.4029 8.59696 23.9998 9.33333 23.9998H12C12.7364 23.9998 13.3333 23.4029 13.3333 22.6665C13.3333 21.9301 12.7364 21.3332 12 21.3332H9.33333C8.59696 21.3332 8 21.9301 8 22.6665ZM16 17.3605C16.0076 18.0894 16.6045 18.6741 17.3333 18.6665C18.0676 18.6615 18.6616 18.0674 18.6667 17.3332C18.6645 17.159 18.6283 16.9869 18.5599 16.8266C18.4957 16.6602 18.3957 16.5099 18.2669 16.3865C18.134 16.2488 17.9725 16.1419 17.7938 16.0735C17.1199 15.8156 16.3647 16.1528 16.1068 16.8267C16.0345 16.9953 15.9981 17.1771 16 17.3605ZM16.8268 23.8931C16.9871 23.9614 17.1591 23.9977 17.3333 23.9998C17.5075 23.9977 17.6796 23.9615 17.8399 23.8932C18.0014 23.8254 18.1502 23.7307 18.28 23.6132C18.5304 23.3621 18.6697 23.0211 18.6667 22.6665C18.6615 22.3135 18.5234 21.9755 18.28 21.7198C18.2164 21.6625 18.1494 21.609 18.0794 21.5597C18.0054 21.509 17.9247 21.4687 17.8398 21.4399C17.7601 21.3994 17.6743 21.3722 17.5859 21.3592C17.151 21.2721 16.7013 21.4073 16.3867 21.7198C16.1428 21.9752 16.0046 22.3134 16 22.6665C15.9972 22.8398 16.0287 23.0119 16.0925 23.173C16.1659 23.3347 16.2653 23.4834 16.3867 23.6131C16.5163 23.7309 16.6652 23.8256 16.8268 23.8931Z" fill="white"/>
</svg>
