<svg width="32" height="32" viewBox="0 0 32 32" fill="none" xmlns="http://www.w3.org/2000/svg">
<path d="M18.6666 23.3332C18.6666 20.7998 20.8 18.6665 23.3333 18.6665C23.6 18.6665 23.7333 18.6665 24 18.7998V11.9998L14.6666 2.6665H6.66663C4.39996 2.6665 2.66663 4.39984 2.66663 6.6665V25.3332C2.66663 27.5998 4.39996 29.3332 6.66663 29.3332H20C21.2 29.3332 22.2666 28.7998 23.0666 27.8665C20.5333 27.7332 18.6666 25.7332 18.6666 23.3332Z" fill="#61C454"/>
<path d="M14.9166 3.27006L23.3964 11.7498H17.3333C16.0047 11.7498 14.9166 10.6618 14.9166 9.33317V3.27006Z" fill="white" stroke="#61C454" stroke-width="0.5"/>
<path d="M26.4965 26.35L26.4964 26.3498L26.4899 26.3564C25.5974 27.2488 24.459 27.7498 23.3333 27.7498C20.938 27.7498 18.9166 25.7284 18.9166 23.3332C18.9166 20.9379 20.938 18.9165 23.3333 18.9165C24.4583 18.9165 25.5994 19.417 26.4966 20.1834C28.2626 21.9565 28.2506 24.7211 26.4965 26.35Z" fill="white" stroke="#61C454" stroke-width="0.5"/>
<path d="M14.6667 23.9998H9.33333C8.53333 23.9998 8 23.4665 8 22.6665C8 21.8665 8.53333 21.3332 9.33333 21.3332H14.6667C15.4667 21.3332 16 21.8665 16 22.6665C16 23.4665 15.4667 23.9998 14.6667 23.9998ZM17.3333 18.6665H9.33333C8.53333 18.6665 8 18.1332 8 17.3332C8 16.5332 8.53333 15.9998 9.33333 15.9998H17.3333C18.1333 15.9998 18.6667 16.5332 18.6667 17.3332C18.6667 18.1332 18.1333 18.6665 17.3333 18.6665ZM10.6667 13.3332H9.33333C8.53333 13.3332 8 12.7998 8 11.9998C8 11.1998 8.53333 10.6665 9.33333 10.6665H10.6667C11.4667 10.6665 12 11.1998 12 11.9998C12 12.7998 11.4667 13.3332 10.6667 13.3332Z" fill="white"/>
<path d="M27.3333 25.4668L28.9333 27.0668C29.4667 27.6001 29.4667 28.4001 28.9333 28.9335C28.6667 29.2001 28.4 29.3335 28 29.3335C27.6 29.3335 27.3333 29.2001 27.0667 28.9335L25.4667 27.3335C25.8667 27.0668 26.2667 26.8001 26.5333 26.5335C26.9333 26.2668 27.0667 25.8668 27.3333 25.4668Z" fill="#61C454"/>
</svg>
