<svg width="32" height="32" viewBox="0 0 32 32" fill="none" xmlns="http://www.w3.org/2000/svg">
<path fill-rule="evenodd" clip-rule="evenodd" d="M23.3333 18.6665C20.8 18.6665 18.6666 20.7998 18.6666 23.3332C18.6666 25.7332 20.5333 27.7332 23.0666 27.8665C22.2666 28.7998 21.2 29.3332 20 29.3332H6.66663C4.39996 29.3332 2.66663 27.5998 2.66663 25.3332V6.6665C2.66663 4.39984 4.39996 2.6665 6.66663 2.6665H14.6666L24 11.9998V18.7998C23.7333 18.6665 23.6 18.6665 23.3333 18.6665ZM8 22.6665C8 23.4665 8.53333 23.9998 9.33333 23.9998H14.6667C15.4667 23.9998 16 23.4665 16 22.6665C16 21.8665 15.4667 21.3332 14.6667 21.3332H9.33333C8.53333 21.3332 8 21.8665 8 22.6665ZM9.33333 18.6665H17.3333C18.1333 18.6665 18.6667 18.1332 18.6667 17.3332C18.6667 16.5332 18.1333 15.9998 17.3333 15.9998H9.33333C8.53333 15.9998 8 16.5332 8 17.3332C8 18.1332 8.53333 18.6665 9.33333 18.6665ZM9.33333 13.3332H10.6667C11.4667 13.3332 12 12.7998 12 11.9998C12 11.1998 11.4667 10.6665 10.6667 10.6665H9.33333C8.53333 10.6665 8 11.1998 8 11.9998C8 12.7998 8.53333 13.3332 9.33333 13.3332ZM24 11.9998L23 10.9998L15.6666 3.6665L14.6666 2.6665V4.08072V9.33317C14.6666 10.7998 15.8666 11.9998 17.3333 11.9998H22.5857H24ZM21.5857 10.9998L15.6666 5.08072V9.33317C15.6666 10.2476 16.4189 10.9998 17.3333 10.9998H21.5857Z" fill="white"/>
<path d="M27.3333 25.4668L28.9333 27.0668C29.4667 27.6001 29.4667 28.4001 28.9333 28.9335C28.6667 29.2001 28.4 29.3335 28 29.3335C27.6 29.3335 27.3333 29.2001 27.0667 28.9335L25.4667 27.3335C25.8667 27.0668 26.2667 26.8001 26.5333 26.5335C26.9333 26.2668 27.0667 25.8668 27.3333 25.4668Z" fill="white"/>
<path d="M23.2234 27C21.2021 27 19.5 25.2857 19.5 23.25C19.5 21.2143 21.2021 19.5 23.2234 19.5C24.1809 19.5 25.1383 19.9286 25.883 20.5714C27.3723 22.0714 27.3723 24.4286 25.883 25.8214C25.1383 26.5714 24.1809 27 23.2234 27Z" fill="white"/>
</svg>
