<svg width="32" height="32" viewBox="0 0 32 32" fill="none" xmlns="http://www.w3.org/2000/svg">
<path d="M27.9999 10.6667H14.6666C14.313 10.6667 13.9738 10.5262 13.7238 10.2761C13.4737 10.0261 13.3333 9.68696 13.3333 9.33333C13.3333 8.97971 13.4737 8.64057 13.7238 8.39052C13.9738 8.14048 14.313 8 14.6666 8H27.9999C28.3535 8 28.6927 8.14048 28.9427 8.39052C29.1928 8.64057 29.3333 8.97971 29.3333 9.33333C29.3333 9.68696 29.1928 10.0261 28.9427 10.2761C28.6927 10.5262 28.3535 10.6667 27.9999 10.6667ZM27.9999 17.3333H14.6666C14.313 17.3333 13.9738 17.1929 13.7238 16.9428C13.4737 16.6928 13.3333 16.3536 13.3333 16C13.3333 15.6464 13.4737 15.3072 13.7238 15.0572C13.9738 14.8071 14.313 14.6667 14.6666 14.6667H27.9999C28.3535 14.6667 28.6927 14.8071 28.9427 15.0572C29.1928 15.3072 29.3333 15.6464 29.3333 16C29.3333 16.3536 29.1928 16.6928 28.9427 16.9428C28.6927 17.1929 28.3535 17.3333 27.9999 17.3333Z" fill="#4A5B8C"/>
<path d="M6.66659 24C6.49146 24.0001 6.31803 23.9657 6.15622 23.8987C5.99441 23.8317 5.84738 23.7335 5.72355 23.6097C5.59972 23.4859 5.50151 23.3388 5.43454 23.177C5.36757 23.0152 5.33315 22.8418 5.33325 22.6667V9.33333C5.33325 8.97971 5.47373 8.64057 5.72378 8.39052C5.97383 8.14048 6.31296 8 6.66659 8C7.02021 8 7.35935 8.14048 7.6094 8.39052C7.85944 8.64057 7.99992 8.97971 7.99992 9.33333V22.6667C8.00002 22.8418 7.9656 23.0152 7.89863 23.177C7.83166 23.3388 7.73345 23.4859 7.60962 23.6097C7.48579 23.7335 7.33876 23.8317 7.17695 23.8987C7.01514 23.9657 6.84171 24.0001 6.66659 24Z" fill="#4A5B8C"/>
<path d="M27.9999 24.0002H14.6666C14.313 24.0002 13.9738 23.8597 13.7238 23.6096C13.4737 23.3596 13.3333 23.0205 13.3333 22.6668C13.3333 22.3132 13.4737 21.9741 13.7238 21.724C13.9738 21.474 14.313 21.3335 14.6666 21.3335H27.9999C28.3535 21.3335 28.6927 21.474 28.9427 21.724C29.1928 21.9741 29.3333 22.3132 29.3333 22.6668C29.3333 23.0205 29.1928 23.3596 28.9427 23.6096C28.6927 23.8597 28.3535 24.0002 27.9999 24.0002Z" fill="#4A5B8C"/>
<path d="M6.66655 23.9998C6.49144 24 6.31801 23.9656 6.15623 23.8986C5.99446 23.8315 5.84753 23.7332 5.72389 23.6092L3.05722 20.9425C2.80929 20.692 2.67061 20.3536 2.67151 20.0012C2.67241 19.6488 2.81281 19.311 3.06202 19.0618C3.31122 18.8127 3.64895 18.6723 4.00137 18.6714C4.35379 18.6705 4.69222 18.8092 4.94266 19.0572L6.66666 20.7812L8.39066 19.0572C8.64144 18.8109 8.97934 18.6736 9.33083 18.6752C9.68231 18.6768 10.019 18.8171 10.2675 19.0657C10.516 19.3142 10.6564 19.6508 10.658 20.0023C10.6596 20.3538 10.5223 20.6917 10.276 20.9425L7.60933 23.6092C7.48567 23.7332 7.33872 23.8315 7.17693 23.8986C7.01514 23.9656 6.84169 24 6.66655 23.9998Z" fill="#4A5B8C"/>
</svg>
