<svg width="32" height="32" viewBox="0 0 32 32" fill="none" xmlns="http://www.w3.org/2000/svg">
<path d="M9.33728 21.2539C8.54616 21.2539 7.7728 21.4885 7.115 21.928C6.4572 22.3676 5.94451 22.9923 5.64176 23.7232C5.33901 24.4541 5.2598 25.2583 5.41414 26.0343C5.56848 26.8102 5.94944 27.5229 6.50885 28.0823C7.06826 28.6417 7.781 29.0227 8.55692 29.177C9.33284 29.3314 10.1371 29.2522 10.868 28.9494C11.5989 28.6467 12.2236 28.134 12.6632 27.4762C13.1027 26.8184 13.3373 26.045 13.3373 25.2539C13.3361 24.1934 12.9143 23.1767 12.1644 22.4268C11.4145 21.6769 10.3978 21.2551 9.33728 21.2539ZM9.33728 26.5872C9.07357 26.5872 8.81579 26.509 8.59652 26.3625C8.37726 26.216 8.20636 26.0078 8.10544 25.7641C8.00453 25.5205 7.97812 25.2524 8.02957 24.9938C8.08102 24.7351 8.208 24.4976 8.39447 24.3111C8.58094 24.1246 8.81852 23.9976 9.07716 23.9462C9.3358 23.8947 9.60389 23.9211 9.84753 24.0221C10.0912 24.123 10.2994 24.2939 10.4459 24.5131C10.5924 24.7324 10.6706 24.9902 10.6706 25.2539C10.6702 25.6074 10.5295 25.9463 10.2796 26.1962C10.0296 26.4462 9.69076 26.5868 9.33728 26.5872ZM22.6706 15.9206C21.8795 15.9206 21.1061 16.1552 20.4483 16.5947C19.7905 17.0342 19.2778 17.6589 18.9751 18.3898C18.6723 19.1207 18.5931 19.925 18.7475 20.7009C18.9018 21.4769 19.2828 22.1896 19.8422 22.749C20.4016 23.3084 21.1143 23.6894 21.8903 23.8437C22.6662 23.9981 23.4704 23.9188 24.2013 23.6161C24.9323 23.3133 25.557 22.8006 25.9965 22.1429C26.436 21.4851 26.6706 20.7117 26.6706 19.9206C26.6695 18.8601 26.2477 17.8433 25.4978 17.0934C24.7479 16.3435 23.7311 15.9217 22.6706 15.9206ZM22.6706 21.2539C22.4069 21.2539 22.1491 21.1757 21.9299 21.0292C21.7106 20.8827 21.5397 20.6745 21.4388 20.4308C21.3379 20.1872 21.3115 19.9191 21.3629 19.6605C21.4143 19.4018 21.5413 19.1642 21.7278 18.9778C21.9143 18.7913 22.1519 18.6643 22.4105 18.6129C22.6691 18.5614 22.9372 18.5878 23.1809 18.6887C23.4245 18.7896 23.6327 18.9605 23.7792 19.1798C23.9258 19.3991 24.0039 19.6569 24.0039 19.9206C24.0035 20.2741 23.8629 20.6129 23.6129 20.8629C23.363 21.1128 23.0241 21.2534 22.6706 21.2539ZM9.33728 2.58724C8.54616 2.58724 7.7728 2.82184 7.115 3.26136C6.4572 3.70089 5.94451 4.3256 5.64176 5.05651C5.33901 5.78741 5.2598 6.59168 5.41414 7.3676C5.56848 8.14353 5.94944 8.85626 6.50885 9.41567C7.06826 9.97508 7.781 10.356 8.55692 10.5104C9.33284 10.6647 10.1371 10.5855 10.868 10.2828C11.5989 9.98001 12.2236 9.46732 12.6632 8.80952C13.1027 8.15172 13.3373 7.37836 13.3373 6.58724C13.3361 5.52673 12.9143 4.50998 12.1644 3.76009C11.4145 3.01019 10.3978 2.5884 9.33728 2.58724ZM9.33728 7.92057C9.07357 7.92057 8.81579 7.84237 8.59652 7.69587C8.37726 7.54936 8.20636 7.34112 8.10544 7.09748C8.00453 6.85385 7.97812 6.58576 8.02957 6.32712C8.08102 6.06848 8.208 5.8309 8.39447 5.64443C8.58094 5.45796 8.81852 5.33097 9.07716 5.27952C9.3358 5.22808 9.60389 5.25448 9.84753 5.3554C10.0912 5.45631 10.2994 5.62721 10.4459 5.84648C10.5924 6.06574 10.6706 6.32353 10.6706 6.58724C10.6702 6.94072 10.5295 7.27959 10.2796 7.52954C10.0296 7.77949 9.69076 7.92011 9.33728 7.92057Z" fill="white"/>
<path d="M22.6706 15.9204C22.1421 15.9203 21.6189 16.0256 21.1316 16.2301C20.9292 15.7441 20.5875 15.3287 20.1496 15.0363C19.7117 14.744 19.1971 14.5877 18.6706 14.5871H13.3372C12.3981 14.5817 11.4775 14.3256 10.6706 13.8451V21.4994C9.81186 21.1718 8.86259 21.1718 8.00391 21.4995L8.00391 10.3414C8.93403 10.6899 9.96262 10.667 10.8763 10.2774C11.0787 10.7634 11.4204 11.1788 11.8583 11.4711C12.2961 11.7635 12.8107 11.9198 13.3372 11.9204L18.6706 11.9204C19.8883 11.9225 21.0687 12.3409 22.016 13.106C22.9633 13.8712 23.6206 14.9371 23.8788 16.1272C23.4893 15.9957 23.0816 15.926 22.6706 15.9204Z" fill="white"/>
</svg>
