<svg width="31" height="31" viewBox="0 0 31 31" fill="none" xmlns="http://www.w3.org/2000/svg">
<path d="M10.1539 26.9205H10.2539V26.8205V20.1538V20.0538H10.1539H3.4872H3.3872V20.1538V26.8205V26.9205H3.4872H10.1539ZM26.8205 10.2538H26.9205V10.1538V3.48714V3.38714H26.8205H20.1539H20.0539V3.48714V10.1538V10.2538H20.1539H26.8205ZM25.0539 21.8205V21.9205H25.1539H28.4872C28.9027 21.9205 29.3012 22.0855 29.595 22.3793C29.8888 22.6731 30.0539 23.0716 30.0539 23.4871C30.0539 23.9026 29.8888 24.3011 29.595 24.5949C29.3012 24.8888 28.9027 25.0538 28.4872 25.0538H25.1539H25.0539V25.1538V28.4871C25.0539 28.9026 24.8888 29.3011 24.595 29.5949C24.3012 29.8888 23.9027 30.0538 23.4872 30.0538C23.0717 30.0538 22.6732 29.8888 22.3794 29.5949C22.0856 29.3011 21.9205 28.9026 21.9205 28.4871V25.1538V25.0538H21.8205H18.4872C18.0717 25.0538 17.6732 24.8888 17.3794 24.5949C17.0856 24.3011 16.9205 23.9026 16.9205 23.4871C16.9205 23.0716 17.0856 22.6731 17.3794 22.3793C17.6732 22.0855 18.0717 21.9205 18.4872 21.9205H21.8205H21.9205V21.8205V18.4871C21.9205 18.0716 22.0856 17.6731 22.3794 17.3793C22.6732 17.0855 23.0717 16.9205 23.4872 16.9205C23.9027 16.9205 24.3012 17.0855 24.595 17.3793C24.8888 17.6731 25.0539 18.0716 25.0539 18.4871V21.8205ZM10.1539 10.2538H10.2539V10.1538V3.48714V3.38714H10.1539H3.4872H3.3872V3.48714V10.1538V10.2538H3.4872H10.1539ZM1.82054 16.9205H11.8205C12.236 16.9205 12.6345 17.0855 12.9283 17.3793C13.2221 17.6731 13.3872 18.0716 13.3872 18.4871V28.4871C13.3872 28.9026 13.2221 29.3011 12.9283 29.5949C12.6345 29.8888 12.236 30.0538 11.8205 30.0538H1.82054C1.40503 30.0538 1.00654 29.8888 0.712736 29.5949C0.418929 29.3011 0.25387 28.9026 0.25387 28.4871V18.4871C0.25387 18.0716 0.418929 17.6731 0.712736 17.3793C1.00654 17.0855 1.40503 16.9205 1.82054 16.9205ZM18.4872 0.253809H28.4872C28.9027 0.253809 29.3012 0.418868 29.595 0.712675C29.8888 1.00648 30.0539 1.40497 30.0539 1.82048V11.8205C30.0539 12.236 29.8888 12.6345 29.595 12.9283C29.3012 13.2221 28.9027 13.3871 28.4872 13.3871H18.4872C18.0717 13.3871 17.6732 13.2221 17.3794 12.9283C17.0856 12.6345 16.9205 12.236 16.9205 11.8205V1.82048C16.9205 1.40497 17.0856 1.00648 17.3794 0.712675C17.6732 0.418868 18.0717 0.253809 18.4872 0.253809ZM1.82054 0.253809H11.8205C12.236 0.253809 12.6345 0.418868 12.9283 0.712675C13.2221 1.00648 13.3872 1.40497 13.3872 1.82048V11.8205C13.3872 12.236 13.2221 12.6345 12.9283 12.9283C12.6345 13.2221 12.236 13.3871 11.8205 13.3871H1.82054C1.40503 13.3871 1.00654 13.2221 0.712736 12.9283C0.418929 12.6345 0.25387 12.236 0.25387 11.8205V1.82048C0.25387 1.40497 0.418929 1.00648 0.712736 0.712675C1.00654 0.418868 1.40503 0.253809 1.82054 0.253809Z" fill="#FB7E00" stroke="white" stroke-width="0.2"/>
</svg>
