<svg width="29" height="29" viewBox="0 0 29 29" fill="none" xmlns="http://www.w3.org/2000/svg">
<path d="M11.2778 16.1111H1.61111C1.18382 16.1111 0.774025 16.2809 0.471883 16.583C0.169742 16.8851 0 17.2949 0 17.7222V27.3889C0 27.8162 0.169742 28.226 0.471883 28.5281C0.774025 28.8303 1.18382 29 1.61111 29H11.2778C11.7051 29 12.1149 28.8303 12.417 28.5281C12.7191 28.226 12.8889 27.8162 12.8889 27.3889V17.7222C12.8889 17.2949 12.7191 16.8851 12.417 16.583C12.1149 16.2809 11.7051 16.1111 11.2778 16.1111ZM9.66667 25.7778H3.22222V19.3333H9.66667V25.7778ZM27.3889 0H17.7222C17.2949 0 16.8851 0.169742 16.583 0.471883C16.2809 0.774025 16.1111 1.18382 16.1111 1.61111V11.2778C16.1111 11.7051 16.2809 12.1149 16.583 12.417C16.8851 12.7191 17.2949 12.8889 17.7222 12.8889H27.3889C27.8162 12.8889 28.226 12.7191 28.5281 12.417C28.8303 12.1149 29 11.7051 29 11.2778V1.61111C29 1.18382 28.8303 0.774025 28.5281 0.471883C28.226 0.169742 27.8162 0 27.3889 0ZM25.7778 9.66667H19.3333V3.22222H25.7778V9.66667ZM27.3889 20.9444H24.1667V17.7222C24.1667 17.2949 23.9969 16.8851 23.6948 16.583C23.3926 16.2809 22.9828 16.1111 22.5556 16.1111C22.1283 16.1111 21.7185 16.2809 21.4163 16.583C21.1142 16.8851 20.9444 17.2949 20.9444 17.7222V20.9444H17.7222C17.2949 20.9444 16.8851 21.1142 16.583 21.4163C16.2809 21.7185 16.1111 22.1283 16.1111 22.5556C16.1111 22.9828 16.2809 23.3926 16.583 23.6948C16.8851 23.9969 17.2949 24.1667 17.7222 24.1667H20.9444V27.3889C20.9444 27.8162 21.1142 28.226 21.4163 28.5281C21.7185 28.8303 22.1283 29 22.5556 29C22.9828 29 23.3926 28.8303 23.6948 28.5281C23.9969 28.226 24.1667 27.8162 24.1667 27.3889V24.1667H27.3889C27.8162 24.1667 28.226 23.9969 28.5281 23.6948C28.8303 23.3926 29 22.9828 29 22.5556C29 22.1283 28.8303 21.7185 28.5281 21.4163C28.226 21.1142 27.8162 20.9444 27.3889 20.9444ZM11.2778 0H1.61111C1.18382 0 0.774025 0.169742 0.471883 0.471883C0.169742 0.774025 0 1.18382 0 1.61111V11.2778C0 11.7051 0.169742 12.1149 0.471883 12.417C0.774025 12.7191 1.18382 12.8889 1.61111 12.8889H11.2778C11.7051 12.8889 12.1149 12.7191 12.417 12.417C12.7191 12.1149 12.8889 11.7051 12.8889 11.2778V1.61111C12.8889 1.18382 12.7191 0.774025 12.417 0.471883C12.1149 0.169742 11.7051 0 11.2778 0ZM9.66667 9.66667H3.22222V3.22222H9.66667V9.66667Z" fill="white"/>
</svg>
