<svg width="32" height="32" viewBox="0 0 32 32" fill="none" xmlns="http://www.w3.org/2000/svg">
<path d="M3.99998 29.3335L28 29.3335C28.1751 29.3335 28.3485 29.2991 28.5103 29.2321C28.6721 29.1651 28.8191 29.0669 28.9429 28.9431C29.0667 28.8193 29.1649 28.6722 29.2319 28.5105C29.2989 28.3487 29.3334 28.1753 29.3333 28.0002L29.3333 4.00016C29.3334 3.82505 29.2989 3.65165 29.2319 3.48986C29.1649 3.32807 29.0667 3.18107 28.9429 3.05725C28.8191 2.93343 28.6721 2.83522 28.5103 2.76823C28.3485 2.70124 28.1751 2.66678 28 2.66683H20C19.8249 2.66678 19.6515 2.70124 19.4897 2.76823C19.3279 2.83522 19.1809 2.93343 19.0571 3.05725C18.9332 3.18107 18.835 3.32807 18.768 3.48986C18.7011 3.65165 18.6666 3.82505 18.6666 4.00016L18.6666 8.00016H22.6666C23.0203 8.00016 23.3594 8.14064 23.6095 8.39069C23.8595 8.64073 24 8.97987 24 9.3335C24 9.68712 23.8595 10.0263 23.6095 10.2763C23.3594 10.5264 23.0203 10.6668 22.6666 10.6668H18.6666V13.3335H22.6666C23.0203 13.3335 23.3594 13.474 23.6095 13.724C23.8595 13.9741 24 14.3132 24 14.6668C24 15.0205 23.8595 15.3596 23.6095 15.6096C23.3594 15.8597 23.0203 16.0002 22.6666 16.0002H18.6666V18.6668H22.6666C23.0203 18.6668 23.3594 18.8073 23.6095 19.0574C23.8595 19.3074 24 19.6465 24 20.0002C24 20.3538 23.8595 20.6929 23.6095 20.943C23.3594 21.193 23.0203 21.3335 22.6666 21.3335H21.3333V22.6668C21.3333 23.0205 21.1928 23.3596 20.9428 23.6096C20.6927 23.8597 20.3536 24.0002 20 24.0002C19.6464 24.0002 19.3072 23.8597 19.0572 23.6096C18.8071 23.3596 18.6666 23.0205 18.6666 22.6668V18.6668H16L16 22.6668C16 23.0205 15.8595 23.3596 15.6095 23.6096C15.3594 23.8597 15.0203 24.0002 14.6666 24.0002C14.313 24.0002 13.9739 23.8597 13.7238 23.6096C13.4738 23.3596 13.3333 23.0205 13.3333 22.6668L13.3333 18.6668H10.6666V22.6668C10.6666 23.0205 10.5262 23.3596 10.2761 23.6096C10.0261 23.8597 9.68694 24.0002 9.33331 24.0002C8.97969 24.0002 8.64055 23.8597 8.3905 23.6096C8.14046 23.3596 7.99998 23.0205 7.99998 22.6668V18.6668L3.99998 18.6668C3.82487 18.6668 3.65147 18.7012 3.48968 18.7682C3.32789 18.8352 3.18089 18.9334 3.05707 19.0573C2.93325 19.1811 2.83504 19.3281 2.76805 19.4899C2.70106 19.6517 2.6666 19.8251 2.66665 20.0002V28.0002C2.6666 28.1753 2.70106 28.3487 2.76805 28.5105C2.83504 28.6722 2.93325 28.8193 3.05707 28.9431C3.18089 29.0669 3.32789 29.1651 3.48968 29.2321C3.65147 29.2991 3.82487 29.3335 3.99998 29.3335Z" fill="white"/>
<path d="M7.44218 9.16137V13.6138L5.57247 11.7442C5.4522 11.6254 5.28983 11.5591 5.12081 11.5596C4.95179 11.5601 4.78985 11.6275 4.67033 11.747C4.55082 11.8666 4.48344 12.0285 4.48291 12.1975C4.48239 12.3666 4.54875 12.5289 4.66751 12.6492L7.62948 15.6112C7.74981 15.7307 7.91255 15.7979 8.08218 15.7979C8.25181 15.7979 8.41455 15.7307 8.53487 15.6112L11.4972 12.6492C11.6172 12.5292 11.6846 12.3664 11.6846 12.1967C11.6846 12.027 11.6172 11.8642 11.4972 11.7442C11.3772 11.6242 11.2144 11.5568 11.0447 11.5568C10.875 11.5568 10.7122 11.6242 10.5922 11.7442L8.72218 13.614V9.16137C8.72274 8.65232 8.9252 8.16429 9.28515 7.80434C9.6451 7.44439 10.1331 7.24193 10.6422 7.24137H16.64C16.8097 7.24137 16.9725 7.17394 17.0925 7.05392C17.2126 6.9339 17.28 6.77111 17.28 6.60137C17.28 6.43163 17.2126 6.26885 17.0925 6.14882C16.9725 6.0288 16.8097 5.96137 16.64 5.96137H10.6422C9.79379 5.96237 8.98044 6.29983 8.38054 6.89973C7.78064 7.49963 7.44318 8.31298 7.44218 9.16137Z" fill="white"/>
</svg>
