<svg width="36" height="36" viewBox="0 0 36 36" fill="none" xmlns="http://www.w3.org/2000/svg">
<path d="M15.2692 20.7308H18.1538V25.0577C18.1538 25.4402 18.0019 25.8071 17.7314 26.0776C17.4609 26.348 17.094 26.5 16.7115 26.5C16.329 26.5 15.9621 26.348 15.6917 26.0776C15.4212 25.8071 15.2692 25.4402 15.2692 25.0577V20.7308ZM22.4808 26.5C22.8633 26.5 23.2301 26.348 23.5006 26.0776C23.7711 25.8071 23.9231 25.4402 23.9231 25.0577V23.6154H25.3654C25.7479 23.6154 26.1148 23.4634 26.3852 23.1929C26.6557 22.9225 26.8077 22.5556 26.8077 22.1731C26.8077 21.7906 26.6557 21.4237 26.3852 21.1532C26.1148 20.8827 25.7479 20.7308 25.3654 20.7308H21.0384V25.0577C21.0384 25.4402 21.1904 25.8071 21.4609 26.0776C21.7314 26.348 22.0982 26.5 22.4808 26.5ZM21.0384 17.8462V14.9615H25.3654C25.7479 14.9615 26.1148 15.1135 26.3852 15.384C26.6557 15.6545 26.8077 16.0213 26.8077 16.4038C26.8077 16.7864 26.6557 17.1532 26.3852 17.4237C26.1148 17.6942 25.7479 17.8462 25.3654 17.8462H21.0384Z" fill="white"/>
<path d="M21.0384 17.8462V14.9616H25.3654C25.7479 14.9616 26.1148 15.1135 26.3852 15.384C26.6557 15.6545 26.8077 16.0214 26.8077 16.4039C26.8077 16.7864 26.6557 17.1533 26.3852 17.4237C26.1148 17.6942 25.7479 17.8462 25.3654 17.8462H21.0384Z" fill="white"/>
<path d="M5.17305 32.269H31.1346C31.324 32.2691 31.5116 32.2318 31.6866 32.1594C31.8616 32.0869 32.0206 31.9807 32.1546 31.8467C32.2885 31.7128 32.3947 31.5538 32.4672 31.3787C32.5397 31.2037 32.577 31.0162 32.5769 30.8267V4.86519C32.577 4.67577 32.5397 4.4882 32.4672 4.31318C32.3947 4.13817 32.2885 3.97916 32.1546 3.84521C32.0206 3.71128 31.8616 3.60504 31.6866 3.53257C31.5116 3.46011 31.324 3.42283 31.1346 3.42288H22.4807C22.2913 3.42283 22.1038 3.46011 21.9287 3.53257C21.7537 3.60504 21.5947 3.71128 21.4608 3.84521C21.3268 3.97916 21.2206 4.13817 21.1481 4.31318C21.0757 4.4882 21.0384 4.67577 21.0384 4.86519V9.19212H25.3654C25.7479 9.19212 26.1147 9.34407 26.3852 9.61456C26.6557 9.88504 26.8077 10.2519 26.8077 10.6344C26.8077 11.0169 26.6557 11.3838 26.3852 11.6543C26.1147 11.9248 25.7479 12.0767 25.3654 12.0767H21.0384V14.9613H25.3654C25.7479 14.9613 26.1147 15.1133 26.3852 15.3838C26.6557 15.6543 26.8077 16.0211 26.8077 16.4037C26.8077 16.7862 26.6557 17.153 26.3852 17.4235C26.1147 17.694 25.7479 17.846 25.3654 17.846H21.0384V20.7306H25.3654C25.7479 20.7306 26.1147 20.8825 26.3852 21.153C26.6557 21.4235 26.8077 21.7904 26.8077 22.1729C26.8077 22.5554 26.6557 22.9223 26.3852 23.1928C26.1147 23.4632 25.7479 23.6152 25.3654 23.6152H23.9231V25.0575C23.9231 25.44 23.7711 25.8069 23.5006 26.0774C23.2301 26.3479 22.8633 26.4998 22.4807 26.4998C22.0982 26.4998 21.7314 26.3479 21.4609 26.0774C21.1904 25.8069 21.0384 25.44 21.0384 25.0575V20.7306H18.1538V25.0575C18.1538 25.44 18.0019 25.8069 17.7314 26.0774C17.4609 26.3479 17.094 26.4998 16.7115 26.4998C16.329 26.4998 15.9621 26.3479 15.6917 26.0774C15.4212 25.8069 15.2692 25.44 15.2692 25.0575V20.7306H12.3846V25.0575C12.3846 25.44 12.2326 25.8069 11.9622 26.0774C11.6917 26.3479 11.3248 26.4998 10.9423 26.4998C10.5598 26.4998 10.1929 26.3479 9.92242 26.0774C9.65193 25.8069 9.49998 25.44 9.49998 25.0575V20.7306H5.17305C4.98363 20.7305 4.79606 20.7678 4.62105 20.8403C4.44604 20.9127 4.28702 21.019 4.15308 21.1529C4.01914 21.2869 3.9129 21.4459 3.84043 21.6209C3.76797 21.7959 3.73069 21.9835 3.73074 22.1729V30.8267C3.73069 31.0162 3.76797 31.2037 3.84043 31.3787C3.9129 31.5538 4.01914 31.7128 4.15308 31.8467C4.28702 31.9807 4.44604 32.0869 4.62105 32.1594C4.79606 32.2318 4.98363 32.2691 5.17305 32.269Z" fill="#4A5B8C"/>
<path d="M21.0384 12.0769V9.19231H25.3654C25.7479 9.19231 26.1148 9.34426 26.3852 9.61475C26.6557 9.88523 26.8077 10.2521 26.8077 10.6346C26.8077 11.0171 26.6557 11.384 26.3852 11.6545C26.1148 11.925 25.7479 12.0769 25.3654 12.0769H21.0384ZM9.49998 20.7308H12.3846V25.0577C12.3846 25.4402 12.2326 25.8071 11.9622 26.0776C11.6917 26.348 11.3248 26.5 10.9423 26.5C10.5598 26.5 10.1929 26.348 9.92243 26.0776C9.65194 25.8071 9.49998 25.4402 9.49998 25.0577V20.7308Z" fill="white"/>
<path d="M8.89657 10.4486V15.2649L6.87405 13.2425C6.74395 13.114 6.56831 13.0422 6.38547 13.0428C6.20264 13.0434 6.02746 13.1163 5.89817 13.2456C5.76889 13.3748 5.69601 13.55 5.69544 13.7329C5.69487 13.9157 5.76665 14.0913 5.89512 14.2214L9.09918 17.4255C9.22934 17.5548 9.40538 17.6274 9.58887 17.6274C9.77237 17.6274 9.94841 17.5548 10.0786 17.4255L13.283 14.2214C13.4128 14.0916 13.4857 13.9155 13.4857 13.7319C13.4857 13.5484 13.4128 13.3723 13.283 13.2425C13.1532 13.1126 12.9771 13.0397 12.7935 13.0397C12.6099 13.0397 12.4338 13.1126 12.304 13.2425L10.2812 15.265V10.4486C10.2818 9.8979 10.5008 9.36998 10.8902 8.98061C11.2795 8.59124 11.8075 8.37223 12.3581 8.37163H18.8461C19.0297 8.37163 19.2058 8.29869 19.3357 8.16886C19.4655 8.03903 19.5384 7.86294 19.5384 7.67932C19.5384 7.49571 19.4655 7.31962 19.3357 7.18979C19.2058 7.05996 19.0297 6.98702 18.8461 6.98702H12.3581C11.4404 6.9881 10.5606 7.35314 9.91162 8.00207C9.26269 8.651 8.89765 9.53083 8.89657 10.4486Z" fill="#4A5B8C"/>
</svg>
