<svg width="30" height="32" viewBox="0 0 30 32" fill="none" xmlns="http://www.w3.org/2000/svg">
<path d="M28.6 11.41C28.6 16.8049 24.2052 21.1862 18.7743 21.1862C13.3433 21.1862 8.94849 16.8049 8.94849 11.41C8.94849 6.01506 13.3433 1.63379 18.7743 1.63379C24.2052 1.63379 28.6 6.01506 28.6 11.41Z" fill="white" stroke="#FB7E00" stroke-width="2"/>
<path d="M22.2319 19.6507C22.2319 25.0456 17.8371 29.4269 12.4061 29.4269C6.97514 29.4269 2.58032 25.0456 2.58032 19.6507C2.58032 14.2558 6.97514 9.87451 12.4061 9.87451C17.8371 9.87451 22.2319 14.2558 22.2319 19.6507Z" fill="white" stroke="#FB7E00" stroke-width="2"/>
<path d="M23.0948 21.3606C23.4054 19.4364 23.1859 17.4643 22.4598 15.6544C21.7337 13.8445 20.5281 12.2645 18.9714 11.0826C17.4147 9.90074 15.5651 9.1612 13.6196 8.94275C11.6741 8.72429 9.70545 9.03511 7.92334 9.84211L10.2196 14.8666C11.0888 14.4729 12.049 14.3213 12.998 14.4279C13.9469 14.5344 14.8491 14.8952 15.6084 15.4717C16.3677 16.0481 16.9558 16.8188 17.31 17.7016C17.6641 18.5844 17.7712 19.5463 17.6197 20.4849L23.0948 21.3606Z" fill="#FFA926"/>
<path d="M8.02029 9.81734C7.80208 11.7483 8.08286 13.7041 8.8345 15.4888C9.58614 17.2735 10.7822 18.8246 12.303 19.9865C13.8238 21.1484 15.6158 21.8805 17.4996 22.1094C19.3834 22.3382 21.2928 22.0558 23.0366 21.2905L20.8532 16.0672C20.0027 16.4405 19.0714 16.5782 18.1525 16.4666C17.2337 16.355 16.3596 15.9979 15.6178 15.4311C14.876 14.8644 14.2926 14.1079 13.926 13.2373C13.5593 12.3668 13.4224 11.4128 13.5288 10.471L8.02029 9.81734Z" fill="#FFA926"/>
</svg>
