<svg width="30" height="32" viewBox="0 0 30 32" fill="none" xmlns="http://www.w3.org/2000/svg">
<path d="M29.5 11.41C29.5 17.3058 24.6983 22.0862 18.7742 22.0862C12.8501 22.0862 8.04843 17.3058 8.04843 11.41C8.04843 5.51412 12.8501 0.733789 18.7742 0.733789C24.6983 0.733789 29.5 5.51412 29.5 11.41Z" fill="white" stroke="#FB7E00" stroke-width="0.2"/>
<path d="M23.1319 19.6507C23.1319 25.5466 18.3303 30.3269 12.4062 30.3269C6.48204 30.3269 1.68038 25.5466 1.68038 19.6507C1.68038 13.7548 6.48204 8.97451 12.4062 8.97451C18.3303 8.97451 23.1319 13.7548 23.1319 19.6507Z" fill="white" stroke="#FB7E00" stroke-width="0.2"/>
<path d="M23.0948 21.3601C23.4054 19.4359 23.1859 17.4639 22.4598 15.654C21.7337 13.8441 20.5281 12.2641 18.9714 11.0822C17.4147 9.90026 15.5651 9.16071 13.6196 8.94226C11.6741 8.7238 9.70545 9.03462 7.92334 9.84162L10.2196 14.8661C11.0888 14.4725 12.049 14.3208 12.998 14.4274C13.9469 14.534 14.8491 14.8947 15.6084 15.4712C16.3677 16.0477 16.9558 16.8183 17.31 17.7011C17.6641 18.5839 17.7712 19.5458 17.6197 20.4844L23.0948 21.3601Z" fill="#FFA926"/>
<path d="M8.02029 9.81734C7.80208 11.7483 8.08286 13.7041 8.8345 15.4888C9.58614 17.2735 10.7822 18.8246 12.303 19.9865C13.8238 21.1484 15.6158 21.8805 17.4996 22.1094C19.3834 22.3382 21.2928 22.0558 23.0366 21.2905L20.8532 16.0672C20.0027 16.4405 19.0713 16.5782 18.1525 16.4666C17.2337 16.355 16.3596 15.9979 15.6178 15.4311C14.876 14.8644 14.2926 14.1079 13.926 13.2373C13.5593 12.3668 13.4224 11.4128 13.5288 10.471L8.02029 9.81734Z" fill="#FFA926"/>
</svg>
