<svg width="32" height="32" viewBox="0 0 32 32" fill="none" xmlns="http://www.w3.org/2000/svg">
<path fill-rule="evenodd" clip-rule="evenodd" d="M15.2253 29.0846C15.4513 29.2463 15.7221 29.3333 16 29.3333C16.2779 29.3333 16.5487 29.2463 16.7747 29.0846L21.6419 25.608C23.1948 24.4965 24.4605 23.0311 25.3343 21.3331C26.2081 19.6351 26.6648 17.7533 26.6666 15.8437V5.901C26.6665 5.70263 26.6222 5.50679 26.5368 5.32772C26.4515 5.14866 26.3272 4.99089 26.1732 4.8659C26.0192 4.74092 25.8392 4.65187 25.6464 4.60523C25.4536 4.5586 25.2528 4.55555 25.0586 4.59632C23.6338 4.8959 22.1626 4.9005 20.7359 4.60983C19.3092 4.31917 17.9571 3.7394 16.763 2.90626C16.5393 2.74988 16.2729 2.66602 16 2.66602C15.727 2.66602 15.4607 2.74988 15.237 2.90626C14.0427 3.73916 12.6907 4.31879 11.264 4.60945C9.83733 4.90012 8.36626 4.89566 6.94138 4.59636C6.74724 4.55558 6.54645 4.55862 6.35363 4.60525C6.16081 4.65188 5.98083 4.74093 5.82678 4.86591C5.67273 4.9909 5.54849 5.14867 5.46313 5.32774C5.37776 5.50681 5.33341 5.70267 5.33331 5.90104V15.8437C5.33514 17.7534 5.79187 19.6351 6.66568 21.3331C7.53949 23.0311 8.80524 24.4966 10.3581 25.608L15.2253 29.0846ZM13.772 20.8581C13.9938 20.95 14.2316 20.9974 14.4717 20.9973C14.7119 20.9974 14.9497 20.9501 15.1715 20.8581C15.3934 20.7662 15.5949 20.6314 15.7647 20.4616L21.9831 14.2431C22.1545 14.0737 22.2907 13.8721 22.3839 13.6498C22.477 13.4275 22.5254 13.1891 22.5261 12.9481C22.5268 12.7071 22.4798 12.4683 22.3879 12.2455C22.296 12.0227 22.1609 11.8203 21.9905 11.6499C21.8201 11.4794 21.6177 11.3444 21.3949 11.2525C21.1721 11.1606 20.9334 11.1136 20.6924 11.1143C20.4514 11.1149 20.2129 11.1633 19.9906 11.2564C19.7683 11.3496 19.5667 11.4858 19.3972 11.6572L14.4717 16.5826L12.8394 14.9486C12.4957 14.6092 12.0318 14.4196 11.5488 14.4211C11.0659 14.4227 10.6031 14.6152 10.2616 14.9567C9.92011 15.2982 9.72759 15.761 9.72608 16.244C9.72457 16.7269 9.9142 17.1909 10.2536 17.5345L13.1788 20.4615C13.3486 20.6314 13.5501 20.7662 13.772 20.8581Z" fill="white"/>
</svg>
