<svg width="38" height="34" viewBox="0 0 38 34" fill="none" xmlns="http://www.w3.org/2000/svg">
<path d="M37.0696 10.3153C36.8981 10.1424 36.694 10.0051 36.4692 9.91143C36.2444 9.81776 36.0032 9.76953 35.7596 9.76953C35.516 9.76953 35.2749 9.81776 35.05 9.91143C34.8252 10.0051 34.6211 10.1424 34.4496 10.3153L22.844 21.9393L14.9286 14.0055C14.7571 13.8325 14.553 13.6953 14.3282 13.6016C14.1033 13.5079 13.8622 13.4597 13.6186 13.4597C13.375 13.4597 13.1339 13.5079 12.909 13.6016C12.6842 13.6953 12.4801 13.8325 12.3086 14.0055L1.23809 25.076C1.06516 25.2475 0.927894 25.4516 0.834221 25.6764C0.740549 25.9012 0.692322 26.1424 0.692322 26.386C0.692322 26.6296 0.740549 26.8707 0.834221 27.0956C0.927894 27.3204 1.06516 27.5245 1.23809 27.696C1.40962 27.8689 1.61369 28.0062 1.83853 28.0999C2.06337 28.1935 2.30453 28.2418 2.5481 28.2418C2.79168 28.2418 3.03284 28.1935 3.25768 28.0999C3.48252 28.0062 3.68659 27.8689 3.85811 27.696L13.6186 17.917L21.534 25.8509C21.7055 26.0238 21.9096 26.1611 22.1345 26.2548C22.3593 26.3485 22.6005 26.3967 22.844 26.3967C23.0876 26.3967 23.3288 26.3485 23.5536 26.2548C23.7784 26.1611 23.9825 26.0238 24.154 25.8509L37.0696 12.9353C37.2426 12.7638 37.3798 12.5597 37.4735 12.3349C37.5672 12.11 37.6154 11.8689 37.6154 11.6253C37.6154 11.3817 37.5672 11.1406 37.4735 10.9157C37.3798 10.6909 37.2426 10.4868 37.0696 10.3153Z" fill="#FB7E00"/>
<line x1="1.84619" y1="18.25" x2="36.4616" y2="18.25" stroke="#FB7E00" stroke-width="1.5"/>
</svg>
