<svg width="30" height="30" viewBox="0 0 30 30" fill="none" xmlns="http://www.w3.org/2000/svg">
<path d="M27.1375 9.11242C27.0213 8.99526 26.883 8.90227 26.7307 8.83881C26.5784 8.77535 26.415 8.74268 26.25 8.74268C26.085 8.74268 25.9216 8.77535 25.7693 8.83881C25.6169 8.90227 25.4787 8.99526 25.3625 9.11242L17.5 16.9874L12.1375 11.6124C12.0213 11.4953 11.883 11.4023 11.7307 11.3388C11.5784 11.2753 11.415 11.2427 11.25 11.2427C11.085 11.2427 10.9216 11.2753 10.7693 11.3388C10.6169 11.4023 10.4787 11.4953 10.3625 11.6124L2.86248 19.1124C2.74532 19.2286 2.65233 19.3669 2.58887 19.5192C2.52541 19.6715 2.49274 19.8349 2.49274 19.9999C2.49274 20.1649 2.52541 20.3283 2.58887 20.4806C2.65233 20.633 2.74532 20.7712 2.86248 20.8874C2.97869 21.0046 3.11694 21.0976 3.26926 21.161C3.42159 21.2245 3.58497 21.2572 3.74998 21.2572C3.915 21.2572 4.07838 21.2245 4.23071 21.161C4.38303 21.0976 4.52128 21.0046 4.63748 20.8874L11.25 14.2624L16.6125 19.6374C16.7287 19.7546 16.8669 19.8476 17.0193 19.911C17.1716 19.9745 17.335 20.0072 17.5 20.0072C17.665 20.0072 17.8284 19.9745 17.9807 19.911C18.133 19.8476 18.2713 19.7546 18.3875 19.6374L27.1375 10.8874C27.2546 10.7712 27.3476 10.633 27.4111 10.4806C27.4746 10.3283 27.5072 10.1649 27.5072 9.99992C27.5072 9.83491 27.4746 9.67153 27.4111 9.5192C27.3476 9.36688 27.2546 9.22863 27.1375 9.11242Z" fill="white"/>
<line y1="14.25" x2="30" y2="14.25" stroke="white" stroke-width="1.5"/>
</svg>
