<svg xmlns="http://www.w3.org/2000/svg" width="550.533" height="490.898" viewBox="0 0 550.533 490.898">
  <g id="Group_60" data-name="Group 60" transform="translate(-684.734 -271)">
    <path id="Path_11" data-name="Path 11" d="M140.76,482.9C129.2,480.4-9.686,457.876.537,291.765S23.594,75.7,77.59,57.42,262.844-47.338,365.843,34.893C429.5,85.711,530.917,190.64,538.618,216.639s23.787,75.886-2.74,105.534c-69.444,77.613-51.326,175.093-166.4,168.4s-173.754,4.219-228.72-7.674" transform="translate(684.734 271.001)" fill="#f9f9f9" fill-rule="evenodd"/>
    <path id="Path_122" data-name="Path 122" d="M474.277,264.135H425.328a5.447,5.447,0,1,1,0-10.893h5.381a5.447,5.447,0,1,0,0-10.893H397.8a5.447,5.447,0,1,0,0,10.893h5.115a5.447,5.447,0,1,1,0,10.893h-15.1a5.447,5.447,0,0,0,0,10.895h34.411a5.447,5.447,0,0,1,0,10.893h-6.206a5.447,5.447,0,1,0,0,10.893H454.9a5.447,5.447,0,1,0,0-10.893h-3.326a5.447,5.447,0,1,1,0-10.893h22.7a5.447,5.447,0,1,0,0-10.895Z" transform="translate(347.633 207.651)" fill="none" stroke="#e8e8e8" stroke-linecap="round" stroke-linejoin="round" stroke-width="2"/>
    <path id="Path_123" data-name="Path 123" d="M26.111,294.785h13.3a5.447,5.447,0,0,1,0,10.895H33.2a5.446,5.446,0,0,0,0,10.892H72.091a5.446,5.446,0,1,0,0-10.892H68.762a5.447,5.447,0,1,1,0-10.895H98.708a5.446,5.446,0,0,0,0-10.892h-72.6a5.446,5.446,0,1,0,0,10.892Z" transform="translate(1066.336 318.107)" fill="none" stroke="#e8e8e8" stroke-linecap="round" stroke-linejoin="round" stroke-width="2"/>
    <g id="Group_59" data-name="Group 59" transform="translate(11)">
      <g id="Group_58" data-name="Group 58" transform="translate(712.544 338.875)">
        <g id="Group_50" data-name="Group 50">
          <g id="Group_46" data-name="Group 46">
            <g id="Group_10" data-name="Group 10">
              <g id="Group_9" data-name="Group 9">
                <rect id="Rectangle_20" data-name="Rectangle 20" width="299.894" height="264.224" transform="translate(92.456 74.725)" fill="#dbdbdb"/>
                <rect id="Rectangle_11" data-name="Rectangle 11" width="299.894" height="264.224" transform="translate(86.456 68.725)" fill="#fff"/>
              </g>
            </g>
            <g id="Group_12" data-name="Group 12">
              <g id="Group_11" data-name="Group 11">
                <rect id="Rectangle_12" data-name="Rectangle 12" width="299.894" height="44.643" transform="translate(86.456 229.593)" fill="#fff"/>
              </g>
            </g>
            <g id="Group_14" data-name="Group 14">
              <g id="Group_13" data-name="Group 13">
                <rect id="Rectangle_13" data-name="Rectangle 13" width="299.894" height="51.078" transform="translate(86.456 178.515)" fill="#f5f5f5"/>
              </g>
            </g>
            <g id="Group_16" data-name="Group 16">
              <g id="Group_15" data-name="Group 15">
                <rect id="Rectangle_14" data-name="Rectangle 14" width="299.894" height="51.078" transform="translate(86.456 281.53)" fill="#f5f5f5"/>
              </g>
            </g>
            <g id="Group_19" data-name="Group 19">
              <g id="Group_18" data-name="Group 18">
                <g id="Group_17" data-name="Group 17">
                  <path id="Path_98" data-name="Path 98" d="M267.528,194.425c0,.144-35.367.26-78.983.26-43.632,0-78.991-.116-78.991-.26s35.359-.261,78.991-.261C232.161,194.164,267.528,194.281,267.528,194.425Z" fill="#4d4d4d"/>
                </g>
              </g>
            </g>
            <g id="Group_22" data-name="Group 22">
              <g id="Group_21" data-name="Group 21">
                <g id="Group_20" data-name="Group 20">
                  <path id="Path_99" data-name="Path 99" d="M176.235,208.641c0,.144-15.03.261-33.565.261s-33.569-.117-33.569-.261,15.026-.26,33.569-.26S176.235,208.5,176.235,208.641Z" fill="#4d4d4d"/>
                </g>
              </g>
            </g>
            <g id="Group_25" data-name="Group 25">
              <g id="Group_24" data-name="Group 24">
                <g id="Group_23" data-name="Group 23">
                  <path id="Path_100" data-name="Path 100" d="M267.528,244.806c0,.144-35.367.261-78.983.261-43.632,0-78.991-.117-78.991-.261s35.359-.26,78.991-.26C232.161,244.546,267.528,244.663,267.528,244.806Z" fill="#4d4d4d"/>
                </g>
              </g>
            </g>
            <g id="Group_28" data-name="Group 28">
              <g id="Group_27" data-name="Group 27">
                <g id="Group_26" data-name="Group 26">
                  <path id="Path_101" data-name="Path 101" d="M176.235,259.023c0,.144-15.03.26-33.565.26s-33.569-.116-33.569-.26,15.026-.261,33.569-.261S176.235,258.879,176.235,259.023Z" fill="#4d4d4d"/>
                </g>
              </g>
            </g>
            <g id="Group_31" data-name="Group 31">
              <g id="Group_30" data-name="Group 30">
                <g id="Group_29" data-name="Group 29">
                  <path id="Path_102" data-name="Path 102" d="M267.528,295.188c0,.144-35.367.26-78.983.26-43.632,0-78.991-.116-78.991-.26s35.359-.26,78.991-.26C232.161,294.928,267.528,295.044,267.528,295.188Z" fill="#4d4d4d"/>
                </g>
              </g>
            </g>
            <g id="Group_34" data-name="Group 34">
              <g id="Group_33" data-name="Group 33">
                <g id="Group_32" data-name="Group 32">
                  <path id="Path_103" data-name="Path 103" d="M176.235,309.4c0,.144-15.03.261-33.565.261s-33.569-.117-33.569-.261,15.026-.26,33.569-.26S176.235,309.261,176.235,309.4Z" fill="#4d4d4d"/>
                </g>
              </g>
            </g>
            <g id="Group_36" data-name="Group 36">
              <g id="Group_35" data-name="Group 35">
                <rect id="Rectangle_15" data-name="Rectangle 15" width="299.894" height="25.206" transform="translate(86.456 68.386)" fill="rgba(0,0,0,0.12)"/>
              </g>
            </g>
            <g id="Group_38" data-name="Group 38">
              <g id="Group_37" data-name="Group 37">
                <rect id="Rectangle_16" data-name="Rectangle 16" width="299.894" height="25.206" transform="translate(86.456 91.209)" fill="#f5f5f5"/>
              </g>
            </g>
            <g id="Group_45" data-name="Group 45">
              <g id="Group_40" data-name="Group 40">
                <g id="Group_39" data-name="Group 39">
                  <path id="Path_104" data-name="Path 104" d="M104.515,80.2a3.167,3.167,0,1,1-3.167-3.167A3.167,3.167,0,0,1,104.515,80.2Z" fill="#4d4d4d"/>
                </g>
              </g>
              <g id="Group_42" data-name="Group 42">
                <g id="Group_41" data-name="Group 41">
                  <path id="Path_105" data-name="Path 105" d="M116.126,80.2a3.167,3.167,0,1,1-3.166-3.167A3.166,3.166,0,0,1,116.126,80.2Z" fill="#4d4d4d"/>
                </g>
              </g>
              <g id="Group_44" data-name="Group 44">
                <g id="Group_43" data-name="Group 43">
                  <path id="Path_106" data-name="Path 106" d="M127.738,80.2a3.167,3.167,0,1,1-3.167-3.167A3.167,3.167,0,0,1,127.738,80.2Z" fill="#4d4d4d"/>
                </g>
              </g>
            </g>
          </g>
          <g id="Group_49" data-name="Group 49">
            <g id="Group_48" data-name="Group 48">
              <g id="Group_47" data-name="Group 47">
                <path id="Path_107" data-name="Path 107" d="M386.406,332.949c0-1.677-.058-102.972-.15-264.563l.15.206-299.737.054h-.024l.19-.26c-.006,93.917-.011,183.357-.015,264.563l-.175-.24,299.761.24-299.761.24h-.174v-.24c0-81.206-.01-170.646-.015-264.563v-.261h.213l299.737.055h.15v.206C386.464,229.977,386.407,331.273,386.406,332.949Z" fill="#263238"/>
              </g>
            </g>
          </g>
        </g>
        <g id="Group_53" data-name="Group 53" transform="translate(16)">
          <g id="Group_51" data-name="Group 51">
            <rect id="Rectangle_17" data-name="Rectangle 17" width="82.516" height="27.91" rx="5.768" transform="translate(270.791 131.285)" fill="#f68b22"/>
          </g>
        </g>
        <g id="Group_54" data-name="Group 54">
          <path id="Path_116" data-name="Path 116" d="M119.56,142.873h-2.988v-1.759h8.135v1.759H121.72v7.576h-2.16Z" fill="#4d4d4d"/>
          <path id="Path_117" data-name="Path 117" d="M131.548,148.449h-4.334l-.827,2h-2.214l4.161-9.335h2.134l4.174,9.335h-2.267Zm-.68-1.641-1.48-3.574-1.481,3.574Z" fill="#4d4d4d"/>
          <path id="Path_118" data-name="Path 118" d="M134.882,149.529l.733-1.627a5.5,5.5,0,0,0,3.081.973c1.281,0,1.8-.426,1.8-1,0-1.747-5.428-.546-5.428-4.013,0-1.587,1.281-2.908,3.934-2.908a6.27,6.27,0,0,1,3.241.827l-.667,1.64a5.279,5.279,0,0,0-2.588-.733c-1.279,0-1.773.48-1.773,1.067,0,1.72,5.428.533,5.428,3.96,0,1.561-1.293,2.895-3.961,2.895A6.664,6.664,0,0,1,134.882,149.529Z" fill="#4d4d4d"/>
          <path id="Path_119" data-name="Path 119" d="M147.525,146.782l-1.254,1.306v2.361h-2.148v-9.335h2.148v4.36l4.134-4.36h2.4l-3.868,4.16,4.094,5.175h-2.52Z" fill="#4d4d4d"/>
          <path id="Path_120" data-name="Path 120" d="M153.058,149.529l.733-1.627a5.5,5.5,0,0,0,3.081.973c1.28,0,1.8-.426,1.8-1,0-1.747-5.428-.546-5.428-4.013,0-1.587,1.28-2.908,3.934-2.908a6.27,6.27,0,0,1,3.241.827l-.667,1.64a5.279,5.279,0,0,0-2.588-.733c-1.279,0-1.773.48-1.773,1.067,0,1.72,5.427.533,5.427,3.96,0,1.561-1.293,2.895-3.961,2.895A6.663,6.663,0,0,1,153.058,149.529Z" fill="#4d4d4d"/>
        </g>
        <g id="Group_55" data-name="Group 55">
          <path id="Rectangle_18" data-name="Rectangle 18" d="M8.853,0H52.659a8.853,8.853,0,0,1,8.853,8.853v0a8.854,8.854,0,0,1-8.854,8.854H8.853A8.853,8.853,0,0,1,0,8.853v0A8.853,8.853,0,0,1,8.853,0Z" transform="translate(307.348 198.089)" fill="#e0e0e0"/>
        </g>
        <g id="Group_56" data-name="Group 56">
          <path id="Path_121" data-name="Path 121" d="M360.007,266.933H316.2a8.854,8.854,0,0,1-8.854-8.854h0a8.854,8.854,0,0,1,8.854-8.853h43.8a8.854,8.854,0,0,1,8.854,8.853h0A8.854,8.854,0,0,1,360.007,266.933Z" fill="#ebebeb"/>
        </g>
        <g id="Group_57" data-name="Group 57">
          <rect id="Rectangle_19" data-name="Rectangle 19" width="61.512" height="17.707" rx="8.853" transform="translate(307.348 299.324)" fill="#e0e0e0"/>
        </g>
      </g>
      <ellipse id="Ellipse_1" data-name="Ellipse 1" cx="155.928" cy="15.554" rx="155.928" ry="15.554" transform="translate(793.068 676.227)" fill="rgba(0,0,0,0.12)"/>
    </g>
  </g>
</svg>
