<svg xmlns="http://www.w3.org/2000/svg" width="550.533" height="490.898" viewBox="0 0 550.533 490.898">
  <g id="Group_8" data-name="Group 8" transform="translate(-619 -99)">
    <path id="Path_11" data-name="Path 11" d="M140.76,482.9C129.2,480.4-9.686,457.876.537,291.765S23.594,75.7,77.59,57.42,262.844-47.338,365.843,34.893C429.5,85.711,530.917,190.64,538.618,216.639s23.787,75.886-2.74,105.534c-69.444,77.613-51.326,175.093-166.4,168.4s-173.754,4.219-228.72-7.674" transform="translate(619 99.001)" fill="#f9f9f9" fill-rule="evenodd"/>
    <g id="Group_6" data-name="Group 6" transform="translate(694.012 207.628)">
      <g id="Group_3" data-name="Group 3" transform="translate(48.46 0)">
        <path id="Path_1" data-name="Path 1" d="M638.861,176.449l-.163-.194H424.326l.487.524h-1.967a22.572,22.572,0,0,0-22.572,22.572V427.544H381.351l-.163.194a30.113,30.113,0,0,0,0,38.555l.163.194H596.007a24.573,24.573,0,0,0,24.573-24.573V215.723s0-.187,0-.524H638.7l.163-.2A30.113,30.113,0,0,0,638.861,176.449Z" transform="translate(-367.189 -170.67)" fill="#dbdbdb"/>
        <ellipse id="Ellipse_1" data-name="Ellipse 1" cx="126.428" cy="15.554" rx="126.428" ry="15.554" transform="translate(0.863 281.599)" opacity="0.12"/>
        <g id="Group_2" data-name="Group 2" transform="translate(0 0)">
          <g id="Group_1" data-name="Group 1">
            <path id="Path_2" data-name="Path 2" d="M438.084,206.922H652.457l.162-.195a30.11,30.11,0,0,0,0-38.554l-.162-.195H438.084l1.061,1.141a26.975,26.975,0,0,1-.871,37.618Z" transform="translate(-387.967 -167.978)" fill="#f2f2f2" stroke="#ccc" stroke-width="3"/>
            <path id="Path_3" data-name="Path 3" d="M598.169,458.211H402.437V191.074A22.572,22.572,0,0,1,425.009,168.5H616.5s19.873-1.18,19.472,0c-13.943.273-13.228,38.944-13.228,38.944V433.638A24.573,24.573,0,0,1,598.169,458.211Z" transform="translate(-376.371 -167.978)" fill="#fff" stroke="#ccc" stroke-width="3"/>
            <path id="Path_4" data-name="Path 4" d="M585.318,579.364H370.946l-.163-.2a30.113,30.113,0,0,1,0-38.555l.163-.194H585.318l-1.06,1.141c-9.947,10.7-11.637,28.969,1.06,37.8Z" transform="translate(-363.804 -289.131)" fill="#efefef" stroke="#ccc" stroke-width="3"/>
          </g>
          <rect id="Rectangle_1" data-name="Rectangle 1" width="133.175" height="11.207" transform="translate(73.687 43.725)" fill="#e6e6e6"/>
          <rect id="Rectangle_2" data-name="Rectangle 2" width="59.545" height="3.651" transform="translate(165.85 234.151)" fill="#f68b22"/>
          <rect id="Rectangle_3" data-name="Rectangle 3" width="170.239" height="4.552" transform="translate(55.155 75.986)" fill="#e6e6e6"/>
          <rect id="Rectangle_4" data-name="Rectangle 4" width="170.239" height="4.552" transform="translate(55.155 98.335)" fill="#e6e6e6"/>
          <rect id="Rectangle_5" data-name="Rectangle 5" width="170.239" height="4.552" transform="translate(55.155 120.683)" fill="#e6e6e6"/>
          <rect id="Rectangle_6" data-name="Rectangle 6" width="170.239" height="4.552" transform="translate(55.155 143.031)" fill="#e6e6e6"/>
          <rect id="Rectangle_7" data-name="Rectangle 7" width="170.239" height="4.552" transform="translate(55.155 165.379)" fill="#e6e6e6"/>
          <rect id="Rectangle_8" data-name="Rectangle 8" width="170.239" height="4.552" transform="translate(55.155 210.076)" fill="#e6e6e6"/>
          <rect id="Rectangle_9" data-name="Rectangle 9" width="170.239" height="4.552" transform="translate(55.155 187.728)" fill="#e6e6e6"/>
        </g>
      </g>
      <g id="Group_5" data-name="Group 5" transform="translate(0 118.191)">
        <g id="Group_4" data-name="Group 4">
          <path id="Path_22" data-name="Path 22" d="M30,272.873H50.607v-168.3H30Z" transform="translate(-28.789 -99.574)" fill="#f9f9f9" fill-rule="evenodd"/>
          <path id="Path_23" data-name="Path 23" d="M30,218.652c0,2.37,4.614,4.293,10.3,4.293s10.3-1.923,10.3-4.293H30" transform="translate(-28.789 -45.931)" fill="#f9f9f9" fill-rule="evenodd"/>
          <path id="Path_24" data-name="Path 24" d="M29.308,110.766V265.834a44.957,44.957,0,0,0,0,6.325,1.885,1.885,0,0,1,0,.288c0,1.1,2.157.773,2.157-.169V117.212a44.977,44.977,0,0,0,0-6.326,2.073,2.073,0,0,1,0-.287c0-1.1-2.157-.775-2.157.168m22.765.332v-6.366c0-.55-.519-.684-.982-.684H30.484c-1.207,0-1.642,1.536-.194,1.536H50.9l-.981-.684v6.366c0,1.1,2.157.773,2.157-.169m0,161.179V123.693a41.983,41.983,0,0,0,0-6.021,1.753,1.753,0,0,1,0-.278c0-1.1-2.158-.773-2.158.169V266.15a41.75,41.75,0,0,0,0,6.019,1.772,1.772,0,0,1,0,.279c0,1.1,2.157.772,2.157-.171" transform="translate(-29.176 -99.82)" fill="#ccc" fill-rule="evenodd"/>
          <path id="Path_25" data-name="Path 25" d="M29.277,219.36c.294,3.176,5.062,4.189,7.535,4.558,4.175.628,9,.353,12.762-1.725,1.264-.7.125-1.923-.962-1.323-3.067,1.692-6.926,1.929-10.343,1.536-2.058-.238-6.609-.889-6.862-3.617-.094-1.017-2.229-.5-2.13.57" transform="translate(-29.13 -46.124)" fill="#ccc" fill-rule="evenodd"/>
          <path id="Path_26" data-name="Path 26" d="M30,106.02c0,2.371,4.614,4.293,10.3,4.293s10.3-1.922,10.3-4.293-4.612-4.293-10.3-4.293S30,103.65,30,106.02" transform="translate(-28.789 -100.912)" fill="#fff" fill-rule="evenodd"/>
          <path id="Path_27" data-name="Path 27" d="M29.282,106.565c.422,4.562,8.933,4.916,12.087,4.808,2.868-.1,10.762-.956,10.656-5.271-.107-4.4-8.374-4.931-11.291-4.928-3.264,0-11.05.662-11.468,5.178-.1,1.132,2.07.866,2.163-.144.294-3.186,6.91-3.412,9.136-3.407,2.011.006,9.492.428,9.265,3.715-.218,3.186-7.67,3.289-9.753,3.22-2.357-.075-8.364-.5-8.664-3.742-.094-1.017-2.229-.5-2.13.57M55.608,117.16c.494,8.818,16.586,8.593,16.691-.147.107-8.885-16.206-8.523-16.691.147-.063,1.132,2.105.851,2.161-.147.373-6.669,12.24-6.429,12.368.147.132,6.719-12,6.375-12.368-.147-.063-1.144-2.217-.838-2.161.147" transform="translate(-29.136 -101.172)" fill="#ccc" fill-rule="evenodd"/>
          <path id="Path_28" data-name="Path 28" d="M48.687,111.455H45.115c-.469,0-1.122.363-1.172.873-.054.559.562.717.991.717h3.573c.468,0,1.12-.362,1.17-.872.054-.559-.562-.719-.989-.719" transform="translate(-22.234 -96.337)" fill="#ccc" fill-rule="evenodd"/>
          <path id="Path_29" data-name="Path 29" d="M255.984,272.873h20.607v-168.3H255.984Z" transform="translate(77.474 -99.574)" fill="#f9f9f9" fill-rule="evenodd"/>
          <path id="Path_30" data-name="Path 30" d="M276.59,218.652c0,2.37-4.614,4.293-10.3,4.293s-10.3-1.923-10.3-4.293h20.6" transform="translate(77.474 -45.931)" fill="#f9f9f9" fill-rule="evenodd"/>
          <path id="Path_31" data-name="Path 31" d="M275.9,110.766V265.834a44.959,44.959,0,0,0,0,6.325,1.889,1.889,0,0,1,0,.288c0,1.1,2.155.773,2.155-.169V117.212a44.528,44.528,0,0,0,0-6.326,1.869,1.869,0,0,1,0-.287c0-1.1-2.155-.775-2.155.168m-18.45.332v-6.366l-1.176.853H276.88c1.209,0,1.641-1.536.194-1.536H256.467c-.41,0-1.176.357-1.176.853v6.366c0,1.1,2.157.773,2.157-.169m0,161.179V123.693a41.56,41.56,0,0,0,0-6.021,1.95,1.95,0,0,1,0-.278c0-1.1-2.155-.773-2.155.169V266.15a41.538,41.538,0,0,0,0,6.019,1.966,1.966,0,0,1,0,.279c0,1.1,2.155.772,2.155-.171" transform="translate(77.088 -99.82)" fill="#ccc" fill-rule="evenodd"/>
          <path id="Path_32" data-name="Path 32" d="M275.279,219.139c-.246,2.646-5.258,3.17-7.159,3.324-3.2.262-6.825.013-9.695-1.573-.853-.469-2.693.681-1.632,1.266,3.9,2.154,8.836,2.41,13.157,1.685,2.595-.434,7.189-1.579,7.491-4.846.106-1.132-2.07-.867-2.163.144" transform="translate(77.704 -46.117)" fill="#ccc" fill-rule="evenodd"/>
          <path id="Path_33" data-name="Path 33" d="M276.59,106.02c0,2.371-4.614,4.293-10.3,4.293s-10.3-1.922-10.3-4.293,4.612-4.293,10.3-4.293,10.3,1.923,10.3,4.293" transform="translate(77.474 -100.912)" fill="#fff" fill-rule="evenodd"/>
          <path id="Path_34" data-name="Path 34" d="M282.742,106.353c-.294,3.186-6.91,3.412-9.136,3.406-2.013-.006-9.492-.428-9.267-3.715.219-3.186,7.672-3.289,9.755-3.22,2.357.075,8.364.5,8.664,3.742.094,1.017,2.23.5,2.129-.57-.419-4.562-8.932-4.916-12.085-4.808-2.868.1-10.762.956-10.656,5.272.107,4.4,8.373,4.93,11.29,4.927,3.264,0,11.05-.662,11.468-5.178.107-1.132-2.069-.866-2.161.144M255.132,117.16c-.375,6.667-12.24,6.426-12.368-.147-.132-6.719,12-6.378,12.368.147.063,1.142,2.217.835,2.161-.147-.494-8.821-16.586-8.595-16.691.147-.107,8.883,16.206,8.521,16.691-.147.063-1.134-2.105-.853-2.161.147" transform="translate(70.241 -101.173)" fill="#ccc" fill-rule="evenodd"/>
          <path id="Path_35" data-name="Path 35" d="M252.286,113.046h3.573c.469,0,1.122-.362,1.172-.872.054-.559-.562-.719-.989-.719h-3.573c-.469,0-1.122.363-1.172.873-.054.559.562.717.989.717" transform="translate(75.268 -96.337)" fill="#ccc" fill-rule="evenodd"/>
          <path id="Path_36" data-name="Path 36" d="M194.144,143.509q-3.462.057-6.9.059-16.02,0-31.526-1.27C120.08,139.372,86.7,131.356,56.5,118.471a4.491,4.491,0,0,1-2.31-5.746,4.126,4.126,0,0,1,5.463-2.429c46.071,19.657,93.838,24.991,134.5,24.338l-.009,8.874" transform="translate(-17.56 -97.035)" fill="#ef8f7f" fill-rule="evenodd"/>
          <path id="Path_37" data-name="Path 37" d="M194.144,141.3q-3.462.057-6.9.059-16.02,0-31.526-1.27C120.08,137.167,86.7,129.151,56.5,116.266c-2.147-.916-3.182-1.284-2.31-3.54a4.126,4.126,0,0,1,5.463-2.429c46.071,19.657,93.838,24.991,134.5,24.338l-.009,6.669" transform="translate(-17.56 -97.035)" fill="#f68b22" fill-rule="evenodd"/>
          <path id="Path_38" data-name="Path 38" d="M134.885,135.054a33.91,33.91,0,0,1,10.1-7.513c1.316-.644.126-1.551-.889-1.054a36.672,36.672,0,0,0-10.953,8.086c-.878.953,1.182,1.089,1.744.481" transform="translate(19.61 -89.336)" fill="#ef8f7f" fill-rule="evenodd"/>
          <path id="Path_39" data-name="Path 39" d="M164.28,134.922q15.034.893,30.1.644c1.16-.018,1.685-1.436.228-1.414q-14.785.223-29.551-.647c-.956-.057-2.213,1.332-.773,1.417m-13.851,6.345a323.46,323.46,0,0,1-78.6-17.565q-4.361-1.59-8.67-3.318c-2.7-1.085-7.4-1.992-7.827-5.431a3.725,3.725,0,0,1,1.905-3.852c1.63-.676,3.839.812,5.288,1.408q5.108,2.1,10.3,4a297.637,297.637,0,0,0,39.671,11.41,343.375,343.375,0,0,0,42.891,6.354c.959.082,2.211-1.3.772-1.419-29.372-2.524-58.478-8.592-86.04-19.16q-2.58-.992-5.146-2.033a32.122,32.122,0,0,0-5.16-2.051,5.707,5.707,0,0,0-5.234,1.614,5.151,5.151,0,0,0-.8,5.969c1.275,2.326,4.422,3.011,6.7,3.94a300.128,300.128,0,0,0,40.51,13.185,341.29,341.29,0,0,0,48.679,8.366c.96.094,2.208-1.276.772-1.42m44.167,1.758q-19.1.3-38.154-1.214c-.959-.078-2.211,1.3-.773,1.419,12.875,1.042,25.785,1.414,38.7,1.21,1.159-.018,1.685-1.438.228-1.414" transform="translate(-17.899 -97.258)" fill="#ccc" fill-rule="evenodd"/>
          <path id="Path_40" data-name="Path 40" d="M204.206,229.865H129.974a16.32,16.32,0,0,1-16.319-16.319V152.505h106.87v61.041a16.32,16.32,0,0,1-16.319,16.319" transform="translate(10.548 -77.035)" fill="#dbdbdb" fill-rule="evenodd"/>
          <path id="Path_41" data-name="Path 41" d="M202.774,225.127H133.019A16.32,16.32,0,0,1,116.7,208.807v-56.3H219.094v56.3a16.32,16.32,0,0,1-16.319,16.319" transform="translate(11.979 -77.035)" fill="#efefef" fill-rule="evenodd"/>
          <path id="Path_42" data-name="Path 42" d="M204.948,229.37H140.632c-3.212,0-6.426.021-9.64,0a15.887,15.887,0,0,1-15.9-15.692c-.147-9.287,0-18.589,0-27.877V152.642l-1.456.823h106.87l-.7-.632v60.013c0,8.824-5.875,16.353-15.134,16.525-1.175.021-1.673,1.481-.218,1.454a17.636,17.636,0,0,0,17.5-17.144c.046-3.014,0-6.032,0-9.046V152.642a.656.656,0,0,0-.694-.632H114.4c-.429,0-1.456.191-1.456.823,0,20.235-.122,40.474,0,60.707a17.124,17.124,0,0,0,12.619,16.7c3.176.832,6.6.581,9.85.581h68.777c.96,0,2.2-1.456.762-1.456" transform="translate(10.186 -77.268)" fill="#ccc" fill-rule="evenodd"/>
          <path id="Path_43" data-name="Path 43" d="M165.27,114.334a47.745,47.745,0,0,0-47.744,47.744v8H131.3v-7.651a33.972,33.972,0,0,1,67.943,0v7.651h13.773v-8a47.745,47.745,0,0,0-47.744-47.744" transform="translate(12.368 -94.984)" fill="#dbdbdb" fill-rule="evenodd"/>
          <path id="Path_44" data-name="Path 44" d="M206.659,140.755c-3.095.493-6.166,1.119-9.279,1.426a29.964,29.964,0,0,1,5.3,16.977v2.011a5.119,5.119,0,0,0,5.121,5.119H211.4v-7.46a38.377,38.377,0,0,0-4.737-18.073M194.38,136.19a56.623,56.623,0,0,0,8.742-1.073c-9.065-12.487-23.734-20.783-34.411-20.783-26.368,0-47.744,19.922-47.744,44.495v1.848a5.61,5.61,0,0,0,5.61,5.612h3.1v-7.131c0-17.485,20.268-31.66,39.031-31.66a35.145,35.145,0,0,1,23.959,9.218,3.011,3.011,0,0,1,1.71-.526" transform="translate(13.986 -94.984)" fill="#efefef" fill-rule="evenodd"/>
          <path id="Path_45" data-name="Path 45" d="M200.826,128.561A49.112,49.112,0,0,0,118.477,149.8c-1.851,6.784-1.679,13.647-1.679,20.6a.611.611,0,0,0,.678.576h13.773c.394,0,1.464-.194,1.464-.794,0-3.554-.181-7.166.135-10.709a33.507,33.507,0,0,1,6.557-17.1,32.809,32.809,0,0,1,37.383-10.949c.781.279,2.495-.85,1.269-1.288a35.966,35.966,0,0,0-32.3,4.064,34.947,34.947,0,0,0-15.079,25.8c-.276,3.446-.112,6.953-.112,10.406l1.466-.792H118.263l.678.575c0-4.9-.216-9.865.47-14.732a47.219,47.219,0,0,1,8.915-21.617,46.585,46.585,0,0,1,42.664-18.262,47.3,47.3,0,0,1,27.87,13.87c.592.6,2.617-.221,1.964-.882m-8.53,14.8a34.258,34.258,0,0,1,6.219,19.392c.026,2.549,0,5.1,0,7.65a.613.613,0,0,0,.679.576h13.773c.394,0,1.464-.194,1.464-.794,0-2.93.041-5.865-.007-8.795a48.744,48.744,0,0,0-5.006-20.692c-.4-.822-2.492-.171-2.129.57a48.642,48.642,0,0,1,5,21.13c.019,2.668,0,5.337,0,8l1.464-.792H199.979l.678.575c0-3.051.091-6.116-.032-9.164a34.8,34.8,0,0,0-6.365-18.542c-.475-.679-2.529.076-1.966.882" transform="translate(12.024 -95.194)" fill="#ccc" fill-rule="evenodd"/>
          <path id="Path_49" data-name="Path 49" d="M149.292,134.635a427.394,427.394,0,0,0,49.289-3.695c51.208-6.806,87.071-20.557,87.427-20.695a4.14,4.14,0,0,1,5.387,2.611,4.478,4.478,0,0,1-2.483,5.665c-.362.141-36.951,14.191-89.053,21.142a439.476,439.476,0,0,1-50.576,3.846l.009-8.874" transform="translate(27.301 -97.035)" fill="#ef8f7f" fill-rule="evenodd"/>
          <path id="Path_50" data-name="Path 50" d="M149.292,134.635a427.394,427.394,0,0,0,49.289-3.695c51.208-6.806,87.071-20.557,87.427-20.695a4.14,4.14,0,0,1,5.387,2.611c.8,2.285-.309,2.617-2.483,3.459-.362.141-36.951,14.191-89.053,21.142a439.469,439.469,0,0,1-50.576,3.846l.009-6.669" transform="translate(27.301 -97.035)" fill="#f68b22" fill-rule="evenodd"/>
          <path id="Path_51" data-name="Path 51" d="M149.5,135.546A436.806,436.806,0,0,0,278.808,113.8c2.6-.862,5.278-2.2,7.948-2.788,4.522-1,5.391,5.681,1.647,7.3-1.151.5-2.38.867-3.564,1.279a404.006,404.006,0,0,1-45.528,12.65,452.641,452.641,0,0,1-89.594,10.763c-1.159.021-1.685,1.441-.228,1.414a454.334,454.334,0,0,0,83.873-9.518,417.809,417.809,0,0,0,50.761-13.632c2.918-1,7.31-1.811,8.571-5.016,1.685-4.278-2.56-7.692-6.543-6.459-.764.237-1.511.562-2.267.832a376.973,376.973,0,0,1-44.293,12.538,444.612,444.612,0,0,1-79.1,10.652q-5.381.227-10.768.315c-1.159.021-1.685,1.441-.228,1.414" transform="translate(26.98 -97.238)" fill="#ccc" fill-rule="evenodd"/>
          <rect id="Rectangle_10" data-name="Rectangle 10" width="77.577" height="16.853" rx="5.879" transform="translate(138.855 103.354)" fill="#4d4d4d"/>
          <g id="Group_7" data-name="Group 7" transform="translate(146.008 107.608)">
            <path id="Path_93" data-name="Path 93" d="M210.025,285.126l-.956-.551.957-.553a1.123,1.123,0,0,0-1.123-1.946l-.956.552v-1.1a1.123,1.123,0,1,0-2.247,0v1.1l-.956-.553a1.123,1.123,0,1,0-1.123,1.946l.956.552-.955.551a1.123,1.123,0,1,0,1.123,1.946l.956-.551v1.1a1.123,1.123,0,1,0,2.247,0v-1.1l.955.552a1.124,1.124,0,0,0,1.123-1.947Z" transform="translate(-203.058 -280.402)" fill="#fff"/>
            <path id="Path_94" data-name="Path 94" d="M230.679,285.126l-.955-.551.956-.553a1.123,1.123,0,0,0-1.123-1.946l-.956.552v-1.1a1.123,1.123,0,1,0-2.247,0v1.1l-.957-.553a1.123,1.123,0,1,0-1.123,1.946l.956.552-.955.551a1.123,1.123,0,1,0,1.123,1.946l.956-.551v1.1a1.123,1.123,0,1,0,2.247,0v-1.1l.955.552a1.124,1.124,0,0,0,1.123-1.947Z" transform="translate(-209.777 -280.402)" fill="#fff"/>
            <path id="Path_95" data-name="Path 95" d="M251.333,285.126l-.955-.551.957-.553a1.124,1.124,0,0,0-1.124-1.946l-.955.552v-1.1a1.124,1.124,0,1,0-2.247,0v1.1l-.956-.553a1.124,1.124,0,0,0-1.124,1.946l.957.552-.955.551a1.123,1.123,0,0,0,1.123,1.946l.955-.551v1.1a1.124,1.124,0,1,0,2.247,0v-1.1l.954.552a1.124,1.124,0,0,0,1.123-1.947Z" transform="translate(-216.496 -280.402)" fill="#fff"/>
            <path id="Path_96" data-name="Path 96" d="M271.989,285.126l-.956-.551.957-.553a1.123,1.123,0,0,0-1.123-1.946l-.956.552v-1.1a1.124,1.124,0,0,0-2.248,0v1.1l-.956-.553a1.123,1.123,0,1,0-1.123,1.946l.955.552-.955.551a1.123,1.123,0,0,0,1.123,1.946l.955-.551v1.1a1.124,1.124,0,0,0,2.248,0v-1.1l.955.552a1.124,1.124,0,0,0,1.123-1.947Z" transform="translate(-223.215 -280.402)" fill="#fff"/>
            <path id="Path_97" data-name="Path 97" d="M292.643,285.126l-.956-.551.957-.553a1.123,1.123,0,0,0-1.123-1.946l-.956.552v-1.1a1.123,1.123,0,1,0-2.247,0v1.1l-.957-.553a1.123,1.123,0,1,0-1.123,1.946l.957.552-.956.551a1.123,1.123,0,1,0,1.123,1.946l.956-.551v1.1a1.123,1.123,0,1,0,2.247,0v-1.1l.955.552a1.124,1.124,0,0,0,1.123-1.947Z" transform="translate(-229.934 -280.402)" fill="#fff"/>
          </g>
        </g>
      </g>
    </g>
  </g>
</svg>
