<svg width="312" height="278" viewBox="0 0 312 278" fill="none" xmlns="http://www.w3.org/2000/svg">
<path fill-rule="evenodd" clip-rule="evenodd" d="M79.7133 273.47C73.1668 272.054 -5.48502 259.298 0.304318 165.229C6.09365 71.1596 13.3616 42.8704 43.9398 32.5183C74.518 22.1663 148.85 -26.8066 207.179 19.7612C243.228 48.5397 300.661 107.961 305.022 122.685C309.383 137.408 318.493 165.659 303.47 182.449C264.144 226.402 274.404 281.605 209.237 277.815C144.07 274.025 110.84 280.204 79.7121 273.469" fill="#F9F9F9"/>
<path d="M155.693 248.669C204.461 248.669 243.996 244.725 243.996 239.861C243.996 234.996 204.461 231.052 155.693 231.052C106.925 231.052 67.3901 234.996 67.3901 239.861C67.3901 244.725 106.925 248.669 155.693 248.669Z" fill="black" fill-opacity="0.12"/>
<path d="M62.314 105.679C63.1956 104.649 64.2109 103.741 65.333 102.98L64.9046 99.2487L70.7694 97.1943L72.7639 100.376C74.1159 100.27 75.4759 100.345 76.808 100.6L79.1424 97.6596L84.7414 100.353L83.8993 104.011C84.9296 104.893 85.8375 105.909 86.5986 107.031L90.3273 106.603L92.3821 112.466L89.2004 114.461C89.3062 115.813 89.2309 117.172 88.9767 118.504L91.916 120.839L89.2234 126.438L85.5649 125.598C84.6831 126.629 83.6675 127.537 82.545 128.298L82.9734 132.029L77.1102 134.083L75.1158 130.902C73.7638 131.007 72.4037 130.932 71.0717 130.677L68.7377 133.618L63.1418 130.923L63.9812 127.264C62.9507 126.382 62.0427 125.367 61.2814 124.244L57.5507 124.673L55.4976 118.811L58.6797 116.817C58.5739 115.465 58.6491 114.105 58.9034 112.773L55.9636 110.439L58.6563 104.84L62.3156 105.679H62.314ZM66.3878 112.006C65.6694 113.5 65.4102 115.173 65.6428 116.814C65.8754 118.455 66.5894 119.991 67.6945 121.226C68.7996 122.461 70.2463 123.341 71.8515 123.754C73.4567 124.168 75.1484 124.096 76.7126 123.547C78.2769 122.999 79.6434 121.999 80.6395 120.675C81.6356 119.35 82.2164 117.759 82.3086 116.104C82.4008 114.449 82.0002 112.804 81.1574 111.377C80.3147 109.95 79.0676 108.804 77.5739 108.086C76.582 107.609 75.5059 107.332 74.4069 107.27C73.3079 107.209 72.2076 107.365 71.1689 107.729C70.1302 108.093 69.1733 108.658 68.353 109.392C67.5326 110.126 66.8648 111.014 66.3878 112.006Z" fill="#EBEBEB"/>
<path d="M204.245 163.617C205.114 162.602 206.115 161.707 207.221 160.957L206.798 157.279L212.577 155.256L214.543 158.39C215.876 158.286 217.216 158.36 218.529 158.611L220.83 155.713L226.348 158.368L225.521 161.973C226.536 162.842 227.431 163.842 228.181 164.948L231.858 164.526L233.884 170.305L230.748 172.271C230.852 173.603 230.778 174.943 230.527 176.256L233.423 178.557L230.769 184.075L227.163 183.248C226.294 184.263 225.294 185.158 224.188 185.908L224.61 189.586L218.832 191.613L216.866 188.476C215.534 188.581 214.193 188.507 212.881 188.256L210.58 191.152L205.061 188.497L205.889 184.892C204.873 184.023 203.979 183.022 203.228 181.917L199.551 182.339L197.526 176.56L200.662 174.594C200.558 173.262 200.632 171.921 200.883 170.608L197.987 168.308L200.64 162.79L204.246 163.617H204.245ZM208.261 169.853C207.553 171.325 207.297 172.975 207.527 174.592C207.756 176.21 208.46 177.723 209.549 178.94C210.638 180.158 212.064 181.025 213.646 181.433C215.228 181.84 216.896 181.769 218.437 181.228C219.979 180.688 221.326 179.703 222.308 178.397C223.289 177.091 223.862 175.523 223.953 173.892C224.044 172.261 223.649 170.64 222.818 169.233C221.987 167.826 220.758 166.697 219.286 165.989C218.308 165.519 217.247 165.246 216.164 165.186C215.081 165.125 213.997 165.279 212.973 165.638C211.949 165.996 211.006 166.553 210.198 167.277C209.389 168 208.731 168.875 208.261 169.853Z" fill="#F68B22"/>
<path d="M201.044 108.171C201.716 107.386 202.489 106.694 203.345 106.113L203.018 103.269L207.487 101.703L209.008 104.128C210.038 104.048 211.075 104.105 212.09 104.299L213.87 102.058L218.138 104.111L217.498 106.9C218.284 107.571 218.976 108.345 219.556 109.2L222.4 108.874L223.966 113.343L221.541 114.864C221.621 115.894 221.564 116.931 221.37 117.946L223.611 119.726L221.559 123.994L218.77 123.354C218.098 124.139 217.324 124.831 216.469 125.412L216.796 128.256L212.326 129.824L210.805 127.398C209.775 127.479 208.738 127.421 207.723 127.227L205.943 129.469L201.675 127.415L202.315 124.627C201.529 123.955 200.837 123.181 200.257 122.326L197.413 122.653L195.847 118.183L198.272 116.662C198.192 115.632 198.249 114.595 198.443 113.58L196.202 111.8L198.255 107.533L201.044 108.172V108.171ZM204.15 112.994C203.602 114.133 203.404 115.408 203.582 116.659C203.759 117.91 204.303 119.081 205.145 120.023C205.988 120.965 207.091 121.635 208.314 121.95C209.538 122.265 210.828 122.211 212.02 121.793C213.213 121.375 214.254 120.613 215.014 119.603C215.773 118.593 216.216 117.38 216.286 116.118C216.356 114.857 216.051 113.603 215.408 112.515C214.766 111.427 213.815 110.554 212.676 110.006C211.149 109.271 209.393 109.173 207.794 109.734C206.196 110.294 204.884 111.466 204.15 112.993V112.994Z" fill="#EBEBEB"/>
<path d="M189.768 87.5093C190.22 86.9814 190.74 86.5164 191.315 86.1265L191.095 84.215L194.099 83.1626L195.121 84.7925C195.813 84.7382 196.51 84.7767 197.193 84.9072L198.389 83.3998L201.257 84.7798L200.827 86.6537C201.355 87.1054 201.82 87.6257 202.21 88.2007L204.121 87.981L205.174 90.9846L203.543 92.0088C203.598 92.7014 203.559 93.3982 203.429 94.0806L204.936 95.2766L203.556 98.1445L201.682 97.7145C201.231 98.2424 200.71 98.7075 200.135 99.0973L200.354 101.009L197.348 102.06L196.326 100.431C195.634 100.485 194.937 100.446 194.254 100.316L193.058 101.823L190.19 100.444L190.621 98.5693C190.093 98.1177 189.627 97.5974 189.237 97.0223L187.326 97.2417L186.273 94.2381L187.904 93.2162C187.849 92.5237 187.888 91.8271 188.018 91.1448L186.511 89.9489L187.891 87.0805L189.765 87.5105L189.768 87.5093ZM191.855 90.7505C191.487 91.5158 191.354 92.3731 191.474 93.2139C191.593 94.0547 191.958 94.8413 192.525 95.4742C193.091 96.1072 193.832 96.558 194.654 96.7697C195.477 96.9814 196.343 96.9444 197.145 96.6635C197.946 96.3826 198.646 95.8704 199.157 95.1916C199.667 94.5128 199.964 93.6979 200.012 92.85C200.059 92.0021 199.853 91.1593 199.422 90.4281C198.99 89.6969 198.351 89.1102 197.585 88.7422C197.077 88.4978 196.526 88.3559 195.963 88.3246C195.4 88.2932 194.836 88.3731 194.304 88.5596C193.772 88.7461 193.282 89.0356 192.862 89.4115C192.442 89.7874 192.1 90.2424 191.855 90.7505Z" fill="#F5F5F5"/>
<path d="M85.3135 191.601C85.7654 191.073 86.2857 190.608 86.8605 190.218L86.6411 188.307L89.6447 187.254L90.6666 188.884C91.3592 188.83 92.0559 188.868 92.7384 188.998L93.9339 187.491L96.8023 188.871L96.3723 190.745C96.9001 191.197 97.3651 191.717 97.7551 192.292L99.6662 192.072L100.719 195.076L99.0891 196.098C99.1434 196.79 99.1049 197.487 98.9744 198.17L100.482 199.365L99.1026 202.233L97.2283 201.803C96.7765 202.331 96.2563 202.797 95.6813 203.187L95.9006 205.098L92.897 206.151L91.8752 204.52C91.1827 204.575 90.4861 204.536 89.8038 204.406L88.6078 205.913L85.7395 204.533L86.1695 202.659C85.6416 202.207 85.1765 201.687 84.7867 201.112L82.8751 201.331L81.8228 198.328L83.4527 197.306C83.3985 196.613 83.4371 195.917 83.5673 195.235L82.06 194.039L83.4392 191.17L85.3139 191.6L85.3135 191.601ZM87.4004 194.842C87.0323 195.607 86.8994 196.464 87.0186 197.305C87.1377 198.146 87.5035 198.933 88.0696 199.565C88.6358 200.198 89.377 200.649 90.1993 200.861C91.0217 201.073 91.8884 201.036 92.6898 200.755C93.4912 200.474 94.1913 199.962 94.7016 199.283C95.2119 198.604 95.5094 197.789 95.5566 196.941C95.6038 196.094 95.3985 195.251 94.9667 194.519C94.5349 193.788 93.8959 193.202 93.1307 192.833C92.6225 192.589 92.0713 192.447 91.5083 192.416C90.9453 192.385 90.3817 192.464 89.8496 192.651C89.3175 192.837 88.8273 193.127 88.4071 193.503C87.9868 193.879 87.6447 194.334 87.4004 194.842Z" fill="#F5F5F5"/>
<path d="M108.049 202.034C108.729 201.24 109.513 200.539 110.378 199.952L110.048 197.074L114.57 195.49L116.108 197.944C117.151 197.862 118.2 197.92 119.228 198.116L121.028 195.849L125.347 197.926L124.699 200.748C125.494 201.428 126.195 202.211 126.782 203.077L129.66 202.747L131.244 207.269L128.79 208.808C128.872 209.85 128.814 210.899 128.618 211.927L130.885 213.727L128.808 218.046L125.986 217.397C125.306 218.192 124.522 218.892 123.657 219.479L123.987 222.357L119.465 223.942L117.926 221.488C116.884 221.569 115.835 221.511 114.807 221.315L113.007 223.582L108.688 221.505L109.336 218.684C108.541 218.003 107.841 217.22 107.253 216.354L104.376 216.685L102.789 212.163L105.243 210.624C105.162 209.581 105.22 208.532 105.416 207.505L103.148 205.704L105.225 201.386L108.048 202.033L108.049 202.034ZM111.192 206.913C110.637 208.066 110.437 209.357 110.616 210.623C110.795 211.89 111.346 213.074 112.199 214.027C113.051 214.981 114.167 215.66 115.406 215.979C116.644 216.297 117.95 216.242 119.157 215.819C120.364 215.396 121.418 214.624 122.186 213.602C122.955 212.58 123.403 211.353 123.474 210.076C123.545 208.799 123.235 207.529 122.585 206.428C121.934 205.327 120.972 204.444 119.819 203.89C119.054 203.522 118.224 203.308 117.376 203.261C116.528 203.214 115.68 203.334 114.878 203.615C114.077 203.896 113.339 204.332 112.706 204.898C112.073 205.464 111.558 206.149 111.19 206.915L111.192 206.913Z" fill="#EBEBEB"/>
<path d="M118.302 100.22C122.118 97.914 126.226 96.1287 130.516 94.9114L133.032 82.8209L153.461 82.4639L156.4 94.4572C160.731 95.5228 164.899 97.1626 168.795 99.3331L179.119 92.5659L193.817 106.756L187.418 117.308C189.724 121.126 191.509 125.234 192.726 129.525L204.816 132.041L205.173 152.47L193.179 155.41C192.113 159.74 190.473 163.908 188.303 167.804L195.069 178.129L180.88 192.827L170.325 186.428C166.507 188.734 162.398 190.519 158.108 191.735L155.591 203.826L135.162 204.183L132.222 192.189C127.892 191.123 123.724 189.483 119.828 187.313L109.504 194.08L94.8079 179.89L101.207 169.336C98.9008 165.519 97.1153 161.41 95.8983 157.119L83.8101 154.603L83.4531 134.175L95.4473 131.234C96.5135 126.905 98.1527 122.738 100.322 118.842L93.5552 108.518L107.745 93.8198L118.302 100.22ZM124.485 124.179C120.699 128.1 118.161 133.056 117.192 138.42C116.222 143.784 116.865 149.316 119.04 154.314C121.214 159.313 124.821 163.554 129.406 166.503C133.991 169.451 139.347 170.973 144.797 170.878C150.247 170.782 155.547 169.072 160.025 165.964C164.503 162.857 167.96 158.491 169.957 153.419C171.954 148.347 172.402 142.797 171.245 137.47C170.088 132.144 167.377 127.28 163.455 123.494C160.851 120.98 157.778 119.003 154.41 117.677C151.043 116.351 147.447 115.702 143.828 115.765C140.21 115.829 136.639 116.605 133.32 118.048C130.001 119.492 126.999 121.575 124.485 124.179Z" fill="#EBEBEB"/>
<path d="M124.485 124.179C124.485 124.179 124.895 123.731 125.737 122.942C127.87 120.966 130.309 119.35 132.96 118.155C134.278 117.552 135.643 117.059 137.042 116.679C140.46 115.748 144.025 115.478 147.544 115.881C151.818 116.377 155.917 117.867 159.512 120.232C162.553 122.242 165.175 124.826 167.229 127.839C167.944 128.904 168.589 130.015 169.159 131.165C171.562 136.085 172.454 141.607 171.721 147.034C171.532 148.448 171.232 149.846 170.823 151.213C170.418 152.606 169.896 153.962 169.263 155.267C166.684 160.657 162.427 165.066 157.132 167.835C155.85 168.514 154.513 169.083 153.135 169.538C151.782 169.994 150.396 170.343 148.989 170.582C143.59 171.506 138.039 170.809 133.036 168.58C131.867 168.05 130.734 167.444 129.644 166.767C126.561 164.82 123.887 162.292 121.77 159.324C119.281 155.814 117.648 151.771 117.002 147.517C116.476 144.013 116.621 140.442 117.431 136.993C117.762 135.582 118.207 134.2 118.763 132.862C119.864 130.171 121.394 127.677 123.293 125.476C124.053 124.608 124.485 124.182 124.485 124.182C124.485 124.182 124.388 124.299 124.191 124.519C123.994 124.739 123.686 125.052 123.325 125.502C122.241 126.786 121.276 128.166 120.441 129.625C119.84 130.679 119.31 131.773 118.854 132.898C118.306 134.233 117.867 135.611 117.543 137.018C116.749 140.453 116.614 144.008 117.146 147.493C117.798 151.721 119.429 155.738 121.909 159.223C124.016 162.171 126.677 164.68 129.743 166.611C130.827 167.283 131.953 167.883 133.115 168.408C138.084 170.616 143.596 171.304 148.956 170.385C150.353 170.147 151.728 169.799 153.071 169.346C154.438 168.895 155.765 168.329 157.038 167.655C162.293 164.906 166.517 160.529 169.078 155.18C169.707 153.885 170.226 152.539 170.628 151.157C171.034 149.8 171.333 148.413 171.522 147.009C172.251 141.622 171.37 136.138 168.989 131.25C168.424 130.108 167.785 129.004 167.075 127.946C165.039 124.95 162.438 122.379 159.42 120.376C155.848 118.02 151.775 116.531 147.526 116.028C144.024 115.619 140.476 115.878 137.07 116.792C135.676 117.166 134.314 117.652 132.999 118.247C131.89 118.742 130.816 119.31 129.783 119.947C128.355 120.833 127.009 121.846 125.763 122.975C125.327 123.351 125.028 123.676 124.811 123.875C124.598 124.08 124.485 124.179 124.485 124.179Z" fill="#263238"/>
<path d="M118.302 100.22L107.728 93.8483L107.768 93.8431L93.5917 108.555L93.5977 108.49L100.371 118.809L100.391 118.84L100.374 118.872C98.2109 122.765 96.5756 126.928 95.5108 131.252L95.5009 131.292L95.4612 131.301L83.4686 134.248L83.5246 134.175C83.6396 140.606 83.7626 147.433 83.8907 154.604L83.826 154.524L95.9186 157.037L95.969 157.047L95.9832 157.097C97.2019 161.379 98.9853 165.479 101.286 169.291L101.314 169.337L101.286 169.383C99.3026 172.654 97.1169 176.263 94.8896 179.938L94.8749 179.824L109.576 194.012L109.457 194.001L119.78 187.232L119.829 187.199L119.881 187.228C123.771 189.391 127.93 191.027 132.251 192.093L132.31 192.107L132.324 192.167C133.245 195.923 134.251 200.021 135.266 204.161L135.166 204.081L155.594 203.722L155.496 203.803C156.289 199.985 157.148 195.864 158.012 191.713L158.024 191.652L158.085 191.635C162.361 190.419 166.457 188.64 170.265 186.344L170.276 186.337L170.33 186.305L170.383 186.337L180.937 192.737L180.81 192.754L195 178.056L194.988 178.184C192.711 174.707 190.456 171.266 188.223 167.858L188.189 167.807L188.219 167.753C190.385 163.865 192.022 159.706 193.086 155.385L193.1 155.326L193.16 155.312L205.153 152.373L205.078 152.47C204.957 145.497 204.838 138.687 204.721 132.042L204.797 132.133L192.707 129.618L192.652 129.607L192.636 129.553C191.422 125.27 189.641 121.168 187.341 117.356L187.313 117.31L187.341 117.264L193.743 106.712L193.756 106.819L179.063 92.6218L179.161 92.6313L168.835 99.3942L168.795 99.4192L168.755 99.397C164.865 97.229 160.703 95.5897 156.379 94.5223L156.34 94.5123L156.33 94.4727C155.263 90.1117 154.303 86.185 153.397 82.4777L153.457 82.5245L133.028 82.8676L133.073 82.8307L130.548 94.9185L130.544 94.938L130.525 94.9435C127.298 95.8558 124.171 97.0882 121.19 98.6223C120.205 99.1268 119.49 99.5398 119.012 99.8091C118.536 100.087 118.301 100.22 118.301 100.22L119.003 99.794C119.479 99.5199 120.191 99.1018 121.175 98.5921C124.152 97.0431 127.279 95.7993 130.506 94.8797L130.483 94.9046L132.986 82.8117L132.994 82.7752H133.031L153.459 82.4023H153.508L153.52 82.4499C154.432 86.1564 155.395 90.0819 156.466 94.4417L156.417 94.3921C160.754 95.458 164.929 97.0982 168.832 99.2692L168.756 99.272L179.077 92.5004L179.13 92.4659L179.176 92.5095L193.878 106.697L193.927 106.744L193.892 106.803C191.816 110.229 189.684 113.748 187.496 117.358V117.265C189.806 121.09 191.595 125.206 192.816 129.504L192.747 129.438C196.705 130.261 200.734 131.099 204.836 131.952L204.911 131.968V132.043C205.028 138.685 205.149 145.494 205.273 152.472V152.551L205.197 152.57L193.204 155.512L193.277 155.439C192.209 159.776 190.566 163.951 188.392 167.853L188.389 167.748L195.156 178.072L195.2 178.14L195.143 178.199L180.954 192.898L180.897 192.957L180.827 192.914L170.272 186.515H170.379L170.368 186.522C166.545 188.828 162.432 190.614 158.137 191.834L158.21 191.754C157.346 195.905 156.488 200.026 155.693 203.845L155.676 203.924H155.594L135.166 204.281H135.086L135.067 204.202C134.053 200.062 133.049 195.964 132.128 192.207L132.201 192.28C127.864 191.209 123.689 189.565 119.785 187.393L119.887 187.389L109.562 194.155L109.497 194.197L109.442 194.144L94.7468 179.95L94.6937 179.899L94.7333 179.836L101.135 169.284V169.376C98.8273 165.551 97.0398 161.435 95.8194 157.137L95.8841 157.197L83.7935 154.683L83.7301 154.67V154.605C83.6071 147.435 83.4897 140.609 83.3794 134.176V134.117L83.4365 134.103L95.4323 131.168L95.3823 131.218C96.4544 126.884 98.0985 122.712 100.271 118.811L100.273 118.874L93.5136 108.545L93.491 108.51L93.5199 108.48L107.724 93.7952L107.742 93.7765L107.764 93.79L118.302 100.22Z" fill="#263238"/>
<path d="M192.711 60.2026H161.641V105.95H164.641L167.373 111.305L170.864 105.95H192.711V60.2026Z" fill="#FAFAFA"/>
<path d="M192.71 60.2027C192.71 60.2027 192.714 60.2717 192.716 60.4125C192.718 60.5533 192.719 60.7695 192.721 61.044C192.724 61.6081 192.727 62.4356 192.732 63.5121C192.738 65.6815 192.746 68.8485 192.757 72.8621C192.768 80.9145 192.785 92.3617 192.804 105.95V106.043H192.71L170.866 106.052L170.951 106.006L167.461 111.361L167.363 111.51L167.284 111.352L164.593 106.081L164.553 105.998L164.645 106.055H161.542V105.952C161.55 88.646 161.557 72.7796 161.563 60.2043V60.1226H161.645L184.328 60.1658L190.547 60.1864L192.167 60.1955C192.532 60.1983 192.715 60.2043 192.715 60.2043C192.715 60.2043 192.52 60.2102 192.15 60.213L190.515 60.2221L184.277 60.2427L161.645 60.286L161.726 60.2043C161.732 72.7788 161.74 88.6456 161.748 105.952L161.645 105.849H164.708L164.737 105.905L164.779 105.987C165.701 107.793 166.614 109.583 167.469 111.258L167.291 111.249C168.492 109.41 169.678 107.592 170.785 105.896L170.815 105.85H170.87L192.715 105.859L192.622 105.952C192.641 92.3886 192.656 80.9641 192.668 72.9247C192.679 68.9021 192.687 65.7279 192.693 63.5534C192.698 62.4693 192.701 61.6355 192.704 61.067C192.706 60.7874 192.708 60.574 192.709 60.4256C192.71 60.2773 192.71 60.2027 192.71 60.2027Z" fill="#263238"/>
<path d="M170.332 68.1421H170.234C169.767 68.1421 169.388 68.5211 169.388 68.9886V97.5886C169.388 98.0561 169.767 98.4351 170.234 98.4351H170.332C170.8 98.4351 171.179 98.0561 171.179 97.5886V68.9886C171.179 68.5211 170.8 68.1421 170.332 68.1421Z" fill="#E0E0E0"/>
<path d="M170.334 98.4344C170.544 98.4198 170.743 98.3334 170.898 98.1897C171.268 97.9096 171.118 97.2317 171.14 96.4527C171.132 94.8549 171.121 92.5617 171.107 89.7326C171.101 86.8921 171.093 83.5148 171.086 79.7659C171.084 77.89 171.082 75.9213 171.079 73.8804C171.079 72.8597 171.079 71.822 171.079 70.7674C171.079 70.2401 171.079 69.7093 171.079 69.1751C171.087 69.0502 171.079 68.9247 171.055 68.8019C171.026 68.6871 170.969 68.5812 170.89 68.4933C170.809 68.4038 170.707 68.3347 170.594 68.2915C170.481 68.2483 170.36 68.2322 170.239 68.2445C170.12 68.2447 170.003 68.2733 169.897 68.328C169.792 68.3826 169.701 68.4617 169.632 68.5587C169.563 68.655 169.519 68.7666 169.503 68.884C169.488 68.9935 169.497 69.1406 169.494 69.2707C169.494 69.8052 169.494 70.3361 169.494 70.8634C169.494 71.9177 169.494 72.9557 169.494 73.9772C169.492 76.0185 169.491 77.9876 169.489 79.8638C169.48 83.6136 169.473 86.9908 169.466 89.8314C169.452 92.6605 169.441 94.9536 169.433 96.551C169.43 96.9461 169.427 97.2974 169.425 97.605C169.426 97.7302 169.456 97.8535 169.513 97.9655C169.569 98.0774 169.65 98.175 169.75 98.2508C169.873 98.3462 170.021 98.405 170.177 98.4205C170.231 98.4223 170.284 98.4269 170.338 98.4344C170.284 98.4421 170.229 98.4445 170.175 98.4416C170.013 98.4342 169.856 98.379 169.725 98.2829C169.616 98.2052 169.527 98.1036 169.465 97.986C169.402 97.8683 169.368 97.7378 169.364 97.6046C169.36 97.2973 169.357 96.9456 169.353 96.5494C169.345 94.952 169.334 92.6589 169.32 89.8298C169.314 86.9893 169.306 83.612 169.298 79.8623C169.296 77.986 169.294 76.0169 169.292 73.9757C169.292 72.9551 169.292 71.9172 169.292 70.8618C169.292 70.3345 169.292 69.8036 169.292 69.2691C169.288 69.1306 169.291 68.992 169.302 68.8538C169.323 68.7038 169.379 68.5611 169.467 68.4377C169.555 68.3137 169.671 68.2125 169.806 68.1427C169.942 68.0728 170.091 68.0363 170.243 68.0363C170.393 68.0244 170.543 68.0469 170.682 68.1019C170.822 68.1569 170.947 68.243 171.048 68.3536C171.149 68.4667 171.222 68.6029 171.258 68.7503C171.287 68.8899 171.298 69.0328 171.289 69.1751C171.289 69.7096 171.289 70.2403 171.289 70.7674C171.289 71.8212 171.289 72.8589 171.289 73.8804C171.287 75.9213 171.285 77.89 171.283 79.7659C171.275 83.5148 171.267 86.8921 171.261 89.7326C171.247 92.5617 171.236 94.8549 171.228 96.4527L171.219 97.5074C171.228 97.6402 171.207 97.7732 171.158 97.8968C171.108 98.0203 171.032 98.1313 170.934 98.2214C170.855 98.2982 170.761 98.3571 170.657 98.3939C170.554 98.4306 170.443 98.4445 170.334 98.4344Z" fill="#263238"/>
<path d="M177.224 68.1421H177.125C176.658 68.1421 176.279 68.5211 176.279 68.9886V97.5886C176.279 98.0561 176.658 98.4351 177.125 98.4351H177.224C177.691 98.4351 178.07 98.0561 178.07 97.5886V68.9886C178.07 68.5211 177.691 68.1421 177.224 68.1421Z" fill="#E0E0E0"/>
<path d="M177.224 98.4344C177.434 98.4198 177.634 98.3334 177.788 98.1897C178.158 97.9096 178.009 97.2317 178.03 96.4527C178.022 94.8549 178.011 92.5617 177.997 89.7326C177.991 86.8921 177.984 83.5148 177.975 79.7659C177.975 77.89 177.972 75.9213 177.969 73.8804C177.969 72.8597 177.969 71.822 177.969 70.7674C177.969 70.2401 177.969 69.7093 177.969 69.1751C177.978 69.0502 177.969 68.9247 177.945 68.8019C177.916 68.687 177.859 68.581 177.78 68.4933C177.698 68.4038 177.597 68.3346 177.484 68.2914C177.371 68.2482 177.25 68.2322 177.13 68.2445C177.011 68.2447 176.893 68.2733 176.788 68.3279C176.682 68.3826 176.591 68.4617 176.522 68.5587C176.453 68.655 176.409 68.7666 176.393 68.884C176.378 68.9935 176.387 69.1406 176.385 69.2707C176.385 69.8052 176.385 70.3361 176.385 70.8634C176.385 71.9177 176.385 72.9557 176.385 73.9772C176.383 76.0185 176.381 77.9876 176.379 79.8638C176.37 83.6136 176.363 86.9908 176.356 89.8314C176.343 92.6605 176.331 94.9536 176.324 96.551L176.315 97.605C176.316 97.7302 176.346 97.8535 176.403 97.9655C176.459 98.0774 176.54 98.175 176.64 98.2508C176.763 98.3462 176.911 98.405 177.067 98.4205C177.121 98.4223 177.175 98.4269 177.228 98.4344C177.174 98.4421 177.12 98.4445 177.065 98.4416C176.903 98.4342 176.746 98.379 176.615 98.2829C176.506 98.2052 176.417 98.1036 176.355 97.986C176.292 97.8683 176.258 97.7378 176.254 97.6046C176.251 97.2973 176.247 96.9456 176.243 96.5494C176.235 94.952 176.224 92.6589 176.21 89.8298C176.204 86.9893 176.197 83.612 176.188 79.8623C176.186 77.986 176.184 76.0169 176.182 73.9757C176.182 72.9551 176.182 71.9172 176.182 70.8618C176.182 70.3345 176.182 69.8036 176.182 69.2691C176.178 69.1306 176.182 68.992 176.192 68.8538C176.213 68.7038 176.269 68.5611 176.357 68.4377C176.445 68.3137 176.562 68.2125 176.697 68.1427C176.832 68.0728 176.981 68.0363 177.134 68.0363C177.283 68.0244 177.433 68.0469 177.572 68.1019C177.712 68.1569 177.837 68.243 177.938 68.3536C178.04 68.4667 178.112 68.6029 178.149 68.7503C178.178 68.8899 178.188 69.0328 178.18 69.1751C178.18 69.7096 178.18 70.2403 178.18 70.7674C178.18 71.8212 178.18 72.8589 178.18 73.8804C178.178 75.9213 178.176 77.89 178.174 79.7659C178.165 83.5148 178.158 86.8921 178.152 89.7326C178.138 92.5617 178.126 94.8549 178.119 96.4527C178.115 96.8493 178.112 97.2 178.109 97.5074C178.118 97.6402 178.097 97.7732 178.048 97.8968C177.999 98.0203 177.922 98.1313 177.825 98.2214C177.746 98.2983 177.651 98.3572 177.548 98.3939C177.444 98.4307 177.334 98.4445 177.224 98.4344Z" fill="#263238"/>
<path d="M184.116 68.1421H184.018C183.55 68.1421 183.171 68.5211 183.171 68.9886V97.5886C183.171 98.0561 183.55 98.4351 184.018 98.4351H184.116C184.584 98.4351 184.963 98.0561 184.963 97.5886V68.9886C184.963 68.5211 184.584 68.1421 184.116 68.1421Z" fill="#E0E0E0"/>
<path d="M184.116 98.4344C184.327 98.4198 184.526 98.3334 184.68 98.1897C185.05 97.9096 184.9 97.2317 184.922 96.4527C184.915 94.8549 184.903 92.5617 184.89 89.7326C184.883 86.8921 184.876 83.5148 184.867 79.7659C184.867 77.89 184.863 75.9213 184.861 73.8804C184.861 72.8597 184.861 71.822 184.861 70.7674C184.861 70.2401 184.861 69.7093 184.861 69.1751C184.87 69.0502 184.861 68.9247 184.837 68.8019C184.808 68.687 184.751 68.581 184.672 68.4933C184.59 68.4038 184.489 68.3346 184.376 68.2914C184.263 68.2482 184.142 68.2322 184.022 68.2445C183.903 68.2447 183.785 68.2733 183.68 68.3279C183.574 68.3826 183.483 68.4617 183.414 68.5587C183.345 68.655 183.301 68.7666 183.285 68.884C183.27 68.9935 183.279 69.1406 183.277 69.2707C183.277 69.8052 183.277 70.3361 183.277 70.8634C183.277 71.9177 183.277 72.9557 183.277 73.9772C183.275 76.0185 183.273 77.9876 183.271 79.8638C183.262 83.6136 183.255 86.9908 183.249 89.8314C183.235 92.6605 183.224 94.9536 183.216 96.551C183.212 96.9461 183.21 97.2974 183.207 97.605C183.208 97.7302 183.238 97.8535 183.295 97.9654C183.351 98.0773 183.432 98.1749 183.532 98.2508C183.656 98.3462 183.804 98.405 183.959 98.4205C184.013 98.4223 184.067 98.4269 184.12 98.4344C184.066 98.4421 184.012 98.4445 183.957 98.4416C183.795 98.4342 183.638 98.379 183.507 98.2829C183.398 98.2052 183.31 98.1036 183.247 97.986C183.184 97.8683 183.15 97.7378 183.146 97.6046C183.143 97.2973 183.139 96.9456 183.135 96.5494C183.128 94.952 183.116 92.6589 183.103 89.8298C183.096 86.9893 183.089 83.612 183.08 79.8623C183.078 77.986 183.076 76.0169 183.074 73.9757C183.074 72.9551 183.074 71.9172 183.074 70.8618C183.074 70.3345 183.074 69.8036 183.074 69.2691C183.07 69.1306 183.074 68.992 183.084 68.8538C183.105 68.7038 183.161 68.561 183.249 68.4377C183.337 68.3137 183.454 68.2125 183.589 68.1427C183.724 68.0728 183.874 68.0363 184.026 68.0363C184.175 68.0244 184.325 68.0469 184.465 68.1019C184.604 68.1569 184.729 68.243 184.83 68.3536C184.932 68.4667 185.004 68.6029 185.041 68.7503C185.07 68.8899 185.08 69.0328 185.072 69.1751C185.072 69.7096 185.072 70.2403 185.072 70.7674C185.072 71.8212 185.072 72.8589 185.072 73.8804C185.07 75.9213 185.068 77.89 185.066 79.7659C185.057 83.5148 185.05 86.8921 185.043 89.7326C185.03 92.5617 185.018 94.8549 185.011 96.4527C185.007 96.8493 185.004 97.2 185.001 97.5074C185.01 97.6402 184.989 97.7732 184.94 97.8968C184.891 98.0203 184.814 98.1313 184.717 98.2214C184.638 98.2983 184.543 98.3572 184.44 98.3939C184.336 98.4307 184.226 98.4445 184.116 98.4344Z" fill="#263238"/>
<path d="M170.264 78.8555H169.745C168.835 78.8555 168.098 79.5927 168.098 80.5021V80.6932C168.098 81.6026 168.835 82.3398 169.745 82.3398H170.264C171.173 82.3398 171.911 81.6026 171.911 80.6932V80.5021C171.911 79.5927 171.173 78.8555 170.264 78.8555Z" fill="#F68B22"/>
<path d="M177.606 85.4238H177.087C176.178 85.4238 175.44 86.161 175.44 87.0704V87.2612C175.44 88.1706 176.178 88.9078 177.087 88.9078H177.606C178.516 88.9078 179.253 88.1706 179.253 87.2612V87.0704C179.253 86.161 178.516 85.4238 177.606 85.4238Z" fill="#F68B22"/>
<path d="M184.248 73.0444H183.729C182.82 73.0444 182.083 73.7816 182.083 74.691V74.8818C182.083 75.7912 182.82 76.5284 183.729 76.5284H184.248C185.158 76.5284 185.895 75.7912 185.895 74.8818V74.691C185.895 73.7816 185.158 73.0444 184.248 73.0444Z" fill="#F68B22"/>
<path d="M122.416 73.5267C122.297 70.2922 121.102 67.1901 119.019 64.7124C116.936 62.2348 114.086 60.5235 110.92 59.8501C107.754 59.1768 104.454 59.5798 101.544 60.9955C98.633 62.4111 96.2784 64.7581 94.8534 67.6642C93.4284 70.5703 93.0147 73.869 93.6779 77.037C94.341 80.205 96.0431 83.0608 98.514 85.1514C100.985 87.242 104.083 88.4475 107.317 88.5768C110.551 88.7062 113.736 87.7518 116.366 85.8652V85.8696L121.633 87.8132L119.819 82.3658C121.626 79.7813 122.537 76.6774 122.416 73.5267Z" fill="#FAFAFA"/>
<path d="M122.416 73.5268C122.416 73.5268 122.423 73.5807 122.427 73.6854C122.431 73.7985 122.436 73.9548 122.442 74.1579C122.443 74.7707 122.406 75.383 122.331 75.9913C122.037 78.2941 121.192 80.4921 119.868 82.3991L119.876 82.3456C120.416 83.9529 121.031 85.7843 121.705 87.7887L121.755 87.9359L121.609 87.8823L116.338 85.9478L116.296 85.9323L116.285 85.8883V85.8843L116.416 85.9327C114.709 87.1628 112.756 88.0085 110.691 88.4115C110.145 88.5158 109.594 88.5908 109.04 88.636C108.473 88.6717 107.905 88.679 107.338 88.6578C107.195 88.6542 107.051 88.6578 106.908 88.6487L106.477 88.5995L105.61 88.5003C105.321 88.463 105.037 88.3813 104.748 88.3258C104.457 88.2715 104.169 88.2023 103.885 88.1183C103.309 87.9524 102.743 87.7499 102.193 87.5122C101.915 87.3893 101.635 87.2742 101.36 87.1429L100.56 86.6975L100.158 86.4706L99.7766 86.2076L99.0114 85.6768L98.2942 85.0727L97.9352 84.7677L97.6044 84.4297C97.3847 84.2032 97.159 83.9803 96.9424 83.7486L96.3414 83.0048C96.2434 82.8787 96.1355 82.7597 96.0451 82.6272L95.7797 82.2254C95.6068 81.9545 95.4168 81.6927 95.2561 81.4126C94.9339 80.8478 94.6485 80.2628 94.4017 79.6613C94.2859 79.3559 94.1367 79.0615 94.0475 78.7454C93.9582 78.4292 93.8602 78.1151 93.7666 77.7985C92.9176 74.5738 93.1961 71.1558 94.556 68.111C95.1976 66.6738 96.0643 65.3481 97.1237 64.184C98.1535 63.0832 99.3381 62.138 100.64 61.3783C101.888 60.6719 103.231 60.1481 104.628 59.823L105.647 59.6298C105.982 59.5751 106.321 59.5381 106.66 59.5191C107.322 59.4599 107.987 59.4466 108.651 59.4794C110.867 59.5925 113.027 60.212 114.966 61.2903C116.906 62.3686 118.572 63.877 119.837 65.6996C120.075 66.0713 120.323 66.4168 120.523 66.7738L121.07 67.8191C121.229 68.1618 121.351 68.5017 121.483 68.8191C121.545 68.9777 121.617 69.1316 121.665 69.2879C121.713 69.4442 121.755 69.5977 121.799 69.7465C121.885 70.0437 121.967 70.3242 122.043 70.5878C122.094 70.8576 122.141 71.1097 122.185 71.3443C122.228 71.5788 122.268 71.795 122.304 71.9928C122.329 72.1912 122.337 72.3748 122.351 72.5367C122.375 72.8564 122.393 73.1019 122.406 73.2757C122.417 73.4419 122.417 73.5272 122.417 73.5272C122.417 73.5272 122.402 73.4423 122.385 73.2769C122.367 73.1039 122.342 72.8592 122.31 72.541C122.292 72.38 122.281 72.1983 122.252 72C122.213 71.8032 122.171 71.5885 122.125 71.3558L121.975 70.6049C121.895 70.3431 121.811 70.0654 121.722 69.7719C121.678 69.6243 121.632 69.4728 121.585 69.3173C121.536 69.1626 121.463 69.0119 121.4 68.8528C121.266 68.5386 121.141 68.2019 120.981 67.8611L120.433 66.827C120.232 66.4743 119.981 66.1332 119.745 65.7659C118.482 63.9683 116.826 62.4828 114.902 61.4229C112.978 60.3629 110.837 59.7566 108.643 59.65C107.988 59.6201 107.33 59.6356 106.677 59.6964C106.341 59.7158 106.007 59.7532 105.675 59.8083L104.67 60.0011C103.291 60.3253 101.966 60.845 100.734 61.5445C99.451 62.2967 98.2838 63.2311 97.2688 64.3184C96.2256 65.4678 95.372 66.7758 94.7401 68.1935C93.4021 71.1968 93.1289 74.5666 93.9657 77.7462C94.0586 78.058 94.1511 78.3689 94.2434 78.6791C94.3311 78.9909 94.4782 79.2813 94.5921 79.5824C94.8352 80.1754 95.1165 80.752 95.4342 81.3087C95.5929 81.5863 95.7797 81.8434 95.9499 82.1104L96.2113 82.507C96.3002 82.6379 96.4065 82.7549 96.5033 82.8795L97.0951 83.6133L97.7476 84.2853L98.0737 84.6189L98.4275 84.92L99.134 85.515L99.8877 86.0386L100.263 86.2988L100.66 86.5225L101.45 86.964C101.721 87.0941 101.998 87.2072 102.27 87.329C102.813 87.5643 103.371 87.7649 103.939 87.9295C104.219 88.0124 104.503 88.081 104.79 88.135C105.075 88.1917 105.355 88.2719 105.641 88.3087L106.496 88.4079L106.92 88.4571C107.062 88.4666 107.204 88.463 107.345 88.4666C107.911 88.4722 108.472 88.4988 109.025 88.4488C109.572 88.4047 110.117 88.3318 110.656 88.2302C112.697 87.8365 114.628 87.0061 116.317 85.7958L116.42 85.7224L116.449 85.8442V85.8486L116.396 85.7891L121.66 87.7423L121.563 87.8359L119.761 82.3837L119.751 82.3547L119.768 82.3297C121.093 80.442 121.949 78.2667 122.267 75.983C122.349 75.3778 122.396 74.7687 122.409 74.1583C122.409 73.9556 122.409 73.8013 122.409 73.6866C122.413 73.5811 122.416 73.5268 122.416 73.5268Z" fill="#263238"/>
<path d="M102.14 65.8164L103.791 67.1762L104.088 68.2409L109.066 73.6094L108.518 74.1382L103.67 68.7752L102.612 68.3091L101.344 66.5713L102.14 65.8164Z" fill="#E0E0E0"/>
<path d="M102.139 65.8164C102.077 65.8927 102.011 65.965 101.941 66.033L101.375 66.6034L101.381 66.5459L102.671 68.267L102.642 68.2436L103.703 68.701L103.719 68.7077L103.731 68.7208C105.035 70.1544 106.692 71.9755 108.491 73.9569L108.594 74.0704L108.446 74.0652L108.994 73.5364L108.99 73.6804L104.034 68.2897L104.022 68.2766L104.018 68.2599C103.913 67.868 103.819 67.5146 103.733 67.1921L103.752 67.2222L102.568 66.2051L102.25 65.9243C102.21 65.8918 102.173 65.8557 102.14 65.8164C102.292 65.9161 102.439 66.0249 102.578 66.1421L103.829 67.1298L103.843 67.1409L103.849 67.1599C103.942 67.4808 104.044 67.8319 104.157 68.2214L104.14 68.1921L109.142 73.5392L109.211 73.613L109.138 73.6836L108.589 74.2128L108.512 74.2869L108.441 74.2076L108.339 74.0942L103.61 68.8299L103.638 68.8498L102.583 68.3737L102.565 68.3654L102.554 68.3503C102.05 67.6407 101.629 67.0465 101.309 66.5963L101.286 66.5637L101.314 66.5387L101.93 65.9874C101.994 65.9243 102.064 65.867 102.139 65.8164Z" fill="#263238"/>
<path d="M109.294 72.1479L109.809 72.6909C109.774 72.7704 109.761 72.8584 109.774 72.9447C109.786 73.031 109.822 73.112 109.879 73.1784C109.949 73.2369 110.032 73.2794 110.121 73.303C110.209 73.3266 110.302 73.3306 110.392 73.3149L115.396 78.8254C115.515 78.9567 115.608 79.1104 115.667 79.2776C115.726 79.4448 115.752 79.6222 115.742 79.7994C115.733 79.9765 115.688 80.15 115.61 80.3097C115.533 80.4694 115.424 80.612 115.291 80.7294L114.993 80.9928C114.731 81.2251 114.387 81.345 114.037 81.3267C113.687 81.3085 113.358 81.1536 113.12 80.8953L108.097 75.4216C108.125 75.3288 108.123 75.2299 108.092 75.1381C108.062 75.0463 108.004 74.9661 107.926 74.9083C107.863 74.8562 107.788 74.8198 107.708 74.8023C107.628 74.7848 107.545 74.7866 107.466 74.8075L106.996 74.2708C106.91 74.1732 106.866 74.0461 106.873 73.9165C106.879 73.7869 106.936 73.665 107.031 73.5767L108.594 72.1256C108.69 72.0367 108.817 71.9893 108.948 71.9934C109.079 71.9976 109.203 72.053 109.294 72.1479Z" fill="#F68B22"/>
<g opacity="0.3">
<path opacity="0.3" d="M114.863 79.4784L110.188 74.3847C110.165 74.3603 110.148 74.3317 110.136 74.3006C110.125 74.2694 110.119 74.2363 110.121 74.2031C110.122 74.1699 110.13 74.1373 110.144 74.1072C110.158 74.0771 110.178 74.0501 110.203 74.0277C110.227 74.0052 110.256 73.9878 110.287 73.9763C110.318 73.9649 110.351 73.9598 110.384 73.9612C110.417 73.9626 110.45 73.9705 110.48 73.9845C110.51 73.9985 110.537 74.0183 110.56 74.0428L115.235 79.1365C115.258 79.1608 115.275 79.1894 115.287 79.2206C115.298 79.2518 115.303 79.2849 115.302 79.3181C115.301 79.3513 115.293 79.3839 115.279 79.4139C115.265 79.444 115.245 79.4711 115.22 79.4935C115.171 79.5388 115.105 79.5627 115.039 79.5599C114.972 79.557 114.908 79.5277 114.863 79.4784Z" fill="black"/>
</g>
<g opacity="0.3">
<path opacity="0.3" d="M114.191 80.0953L109.516 75.0016C109.493 74.9772 109.476 74.9486 109.464 74.9174C109.453 74.8863 109.448 74.8531 109.449 74.82C109.45 74.7868 109.458 74.7542 109.472 74.7241C109.486 74.694 109.506 74.667 109.531 74.6446C109.555 74.622 109.584 74.6045 109.615 74.5931C109.646 74.5816 109.679 74.5765 109.712 74.5779C109.746 74.5793 109.778 74.5872 109.808 74.6012C109.838 74.6153 109.865 74.6351 109.888 74.6597L114.563 79.7541C114.585 79.7785 114.603 79.8071 114.614 79.8383C114.626 79.8694 114.631 79.9026 114.63 79.9358C114.628 79.9689 114.62 80.0015 114.606 80.0316C114.592 80.0617 114.572 80.0887 114.548 80.1111C114.523 80.1335 114.495 80.1509 114.464 80.1622C114.432 80.1735 114.399 80.1786 114.366 80.1771C114.333 80.1756 114.301 80.1676 114.271 80.1536C114.241 80.1395 114.214 80.1197 114.191 80.0953Z" fill="black"/>
</g>
<g opacity="0.3">
<path opacity="0.3" d="M113.471 80.7562L108.795 75.6626C108.772 75.6381 108.755 75.6095 108.743 75.5783C108.732 75.5471 108.727 75.514 108.728 75.4808C108.73 75.4477 108.738 75.4151 108.752 75.385C108.766 75.355 108.786 75.328 108.81 75.3056C108.835 75.2831 108.863 75.2656 108.894 75.2542C108.925 75.2428 108.959 75.2376 108.992 75.239C109.025 75.2404 109.057 75.2483 109.088 75.2623C109.118 75.2763 109.145 75.2962 109.167 75.3206L113.843 80.4143C113.888 80.4637 113.912 80.529 113.909 80.596C113.906 80.6629 113.877 80.726 113.828 80.7713C113.803 80.7938 113.775 80.8113 113.743 80.8227C113.712 80.8341 113.679 80.8393 113.646 80.8379C113.613 80.8365 113.58 80.8285 113.55 80.8145C113.52 80.8005 113.493 80.7807 113.471 80.7562Z" fill="black"/>
</g>
<path d="M109.809 72.6905C109.816 72.6977 109.296 73.1764 108.648 73.7591C108.001 74.3419 107.47 74.8091 107.464 74.802C107.458 74.7949 107.977 74.3165 108.625 73.7334C109.273 73.1503 109.803 72.6834 109.809 72.6905Z" fill="#263238"/>
<path d="M110.398 73.3194C110.404 73.3266 109.894 73.8022 109.258 74.3817C108.621 74.9612 108.1 75.4253 108.094 75.4182C108.087 75.4111 108.598 74.9355 109.234 74.3559C109.871 73.7764 110.39 73.3123 110.398 73.3194Z" fill="#263238"/>
<path d="M108.354 75.1171C108.331 75.0819 108.311 75.0453 108.294 75.0075C108.245 74.9213 108.182 74.8439 108.107 74.7785C108.032 74.7135 107.947 74.6614 107.855 74.624C107.815 74.6119 107.776 74.5972 107.738 74.58C107.781 74.5778 107.824 74.585 107.863 74.601C107.962 74.6329 108.053 74.6845 108.13 74.7528C108.208 74.821 108.271 74.9045 108.315 74.998C108.336 75.0346 108.349 75.0752 108.354 75.1171Z" fill="#263238"/>
<path d="M108.555 74.8805C108.547 74.8864 108.449 74.7511 108.308 74.6026C108.166 74.4541 108.036 74.3501 108.042 74.3418C108.256 74.4748 108.433 74.66 108.555 74.8801V74.8805Z" fill="#263238"/>
<path d="M108.772 74.7141C108.585 74.5378 108.414 74.3449 108.262 74.1377C108.359 74.2221 108.449 74.3151 108.53 74.4156C108.62 74.5075 108.701 74.6074 108.772 74.7141Z" fill="#263238"/>
<path d="M109.035 74.4559C108.838 74.2984 108.664 74.1138 108.519 73.9077C108.613 73.9911 108.701 74.0808 108.783 74.1761C108.873 74.2634 108.957 74.357 109.035 74.4559Z" fill="#263238"/>
<path d="M109.243 74.2229C109.135 74.171 109.04 74.0978 108.962 74.0079C108.884 73.918 108.825 73.8131 108.788 73.6997C108.849 73.7982 108.915 73.8933 108.987 73.9847C109.068 74.0684 109.153 74.1479 109.243 74.2229Z" fill="#263238"/>
<path d="M109.591 73.9974C109.469 73.9446 109.359 73.8668 109.269 73.7691C109.178 73.6715 109.109 73.556 109.066 73.4302C109.193 73.6585 109.373 73.853 109.591 73.9974Z" fill="#263238"/>
<path d="M109.709 73.677C109.61 73.6378 109.523 73.5731 109.456 73.4895C109.39 73.4059 109.347 73.3063 109.331 73.2007C109.406 73.3943 109.538 73.5605 109.709 73.677Z" fill="#263238"/>
<path d="M110.171 73.5418C110.128 73.5502 110.084 73.5484 110.042 73.5367C109.938 73.5154 109.841 73.4689 109.759 73.4013C109.678 73.3333 109.615 73.2461 109.576 73.1476C109.557 73.1083 109.547 73.0649 109.548 73.021C109.553 73.021 109.565 73.0674 109.599 73.1377C109.642 73.2289 109.705 73.3096 109.782 73.3743C109.859 73.439 109.95 73.4861 110.047 73.5124C110.121 73.5331 110.172 73.5363 110.171 73.5418Z" fill="#263238"/>
<path d="M116.655 67.2639L116.508 67.1016L114.625 69.0556L112.905 67.3357L114.718 65.4562L114.572 65.294C114.012 65.2209 113.442 65.2895 112.916 65.4935C112.389 65.6974 111.922 66.0302 111.557 66.4614C110.466 67.6962 111.029 69.321 111.029 69.321L109.016 71.3543L110.761 72.9894L112.784 70.991C112.784 70.991 114.671 71.5713 115.883 70.2373C116.983 69.0271 116.655 67.2639 116.655 67.2639Z" fill="#263238"/>
<path d="M107.631 75.8973L105.89 74.2666L103.633 76.5014C103.633 76.5014 101.559 76.0893 100.533 77.2551C99.8659 78.028 99.5267 79.0311 99.5882 80.0505C99.604 80.1841 99.7595 80.2298 99.7595 80.2298L101.79 78.438L103.509 80.1572L101.528 81.8748L101.696 82.0366C102.265 82.184 102.863 82.1678 103.422 81.9899C103.982 81.8121 104.479 81.4798 104.858 81.0314C105.949 79.7962 105.386 78.1718 105.386 78.1718L107.631 75.8973Z" fill="#263238"/>
<path d="M116.506 67.1018L114.476 68.8935L112.757 67.1744L114.57 65.2949C114.002 65.1477 113.403 65.164 112.844 65.3419C112.285 65.5198 111.787 65.8521 111.408 66.3005C110.318 67.5341 110.882 69.1605 110.882 69.1605L108.868 71.1938L110.614 72.8285L112.637 70.8301C112.637 70.8301 114.524 71.4104 115.736 70.0764C116.836 68.865 116.506 67.1018 116.506 67.1018Z" fill="#455A64"/>
<path d="M107.462 75.7348L105.72 74.1045L103.465 76.3401C103.465 76.3401 101.391 75.928 100.366 77.0938C100.027 77.5031 99.7826 77.9816 99.6489 78.4955C99.5152 79.0095 99.4957 79.5465 99.5917 80.0689L101.622 78.2771L103.341 79.9963L101.528 81.8761C102.097 82.0233 102.695 82.0071 103.254 81.8292C103.814 81.6513 104.311 81.319 104.69 80.8705C105.781 79.6357 105.218 78.0109 105.218 78.0109L107.462 75.7348Z" fill="#455A64"/>
</svg>
