<svg width="312" height="278" viewBox="0 0 312 278" fill="none" xmlns="http://www.w3.org/2000/svg">
<path fill-rule="evenodd" clip-rule="evenodd" d="M79.7133 273.47C73.1668 272.054 -5.48502 259.298 0.304318 165.229C6.09365 71.1596 13.3616 42.8704 43.9398 32.5183C74.518 22.1663 148.85 -26.8066 207.179 19.7612C243.228 48.5397 300.661 107.961 305.022 122.685C309.383 137.408 318.493 165.659 303.47 182.449C264.144 226.402 274.404 281.605 209.237 277.815C144.07 274.025 110.84 280.204 79.7121 273.469" fill="#F9F9F9"/>
<path d="M77.6836 113.706H49.9635C49.5549 113.712 49.1494 113.636 48.7703 113.484C48.3912 113.331 48.0462 113.105 47.7554 112.818C47.4645 112.531 47.2335 112.189 47.0759 111.812C46.9182 111.435 46.837 111.031 46.837 110.622C46.837 110.213 46.9182 109.809 47.0759 109.432C47.2335 109.055 47.4645 108.713 47.7554 108.426C48.0462 108.139 48.3912 107.913 48.7703 107.76C49.1494 107.608 49.5549 107.532 49.9635 107.538H53.0108C53.4194 107.543 53.825 107.468 54.204 107.315C54.5831 107.163 54.9281 106.936 55.219 106.649C55.5098 106.362 55.7408 106.02 55.8984 105.643C56.0561 105.266 56.1372 104.862 56.1372 104.453C56.1372 104.045 56.0561 103.64 55.8984 103.263C55.7408 102.886 55.5098 102.544 55.219 102.257C54.9281 101.97 54.5831 101.744 54.204 101.592C53.825 101.439 53.4194 101.363 53.0108 101.369H34.3743C33.9657 101.363 33.5601 101.439 33.181 101.592C32.802 101.744 32.457 101.97 32.1661 102.257C31.8752 102.544 31.6443 102.886 31.4866 103.263C31.329 103.64 31.2478 104.045 31.2478 104.453C31.2478 104.862 31.329 105.266 31.4866 105.643C31.6443 106.02 31.8752 106.362 32.1661 106.649C32.457 106.936 32.802 107.163 33.181 107.315C33.5601 107.468 33.9657 107.543 34.3743 107.538H37.2709C37.6795 107.532 38.0851 107.608 38.4641 107.76C38.8432 107.913 39.1882 108.139 39.4791 108.426C39.77 108.713 40.0009 109.055 40.1586 109.432C40.3162 109.809 40.3974 110.213 40.3974 110.622C40.3974 111.031 40.3162 111.435 40.1586 111.812C40.0009 112.189 39.77 112.531 39.4791 112.818C39.1882 113.105 38.8432 113.331 38.4641 113.484C38.0851 113.636 37.6795 113.712 37.2709 113.706H28.7197C27.9015 113.706 27.1169 114.031 26.5383 114.61C25.9598 115.189 25.6348 115.973 25.6348 116.791C25.6348 117.61 25.9598 118.394 26.5383 118.973C27.1169 119.551 27.9015 119.876 28.7197 119.876H48.2068C49.0176 119.887 49.7915 120.217 50.3609 120.794C50.9304 121.372 51.2497 122.15 51.2497 122.961C51.2497 123.772 50.9304 124.55 50.3609 125.127C49.7915 125.704 49.0176 126.034 48.2068 126.045H44.6923C44.2838 126.04 43.8782 126.115 43.4991 126.268C43.1201 126.42 42.7751 126.647 42.4842 126.934C42.1933 127.221 41.9624 127.562 41.8047 127.939C41.6471 128.316 41.5659 128.721 41.5659 129.129C41.5659 129.538 41.6471 129.943 41.8047 130.32C41.9624 130.697 42.1933 131.038 42.4842 131.325C42.7751 131.612 43.1201 131.839 43.4991 131.991C43.8782 132.144 44.2838 132.219 44.6923 132.214H66.7103C67.1188 132.219 67.5244 132.144 67.9035 131.991C68.2826 131.839 68.6275 131.612 68.9184 131.325C69.2093 131.038 69.4403 130.697 69.5979 130.32C69.7556 129.943 69.8367 129.538 69.8367 129.129C69.8367 128.721 69.7556 128.316 69.5979 127.939C69.4403 127.562 69.2093 127.221 68.9184 126.934C68.6275 126.647 68.2826 126.42 67.9035 126.268C67.5244 126.115 67.1188 126.04 66.7103 126.045H64.8267C64.4182 126.051 64.0126 125.975 63.6335 125.822C63.2545 125.67 62.9095 125.444 62.6186 125.157C62.3277 124.87 62.0967 124.528 61.9391 124.151C61.7815 123.774 61.7003 123.369 61.7003 122.961C61.7003 122.552 61.7815 122.148 61.9391 121.771C62.0967 121.394 62.3277 121.052 62.6186 120.765C62.9095 120.478 63.2545 120.252 63.6335 120.099C64.0126 119.947 64.4182 119.871 64.8267 119.876H77.6819C78.5 119.876 79.2847 119.551 79.8633 118.973C80.4418 118.394 80.7668 117.61 80.7668 116.791C80.7668 115.973 80.4418 115.189 79.8633 114.61C79.2847 114.031 78.5 113.706 77.6819 113.706H77.6836Z" stroke="#E8E8E8" stroke-width="3" stroke-linecap="round" stroke-linejoin="round"/>
<path d="M230.89 193.615H238.422C239.24 193.615 240.025 193.94 240.603 194.519C241.182 195.098 241.507 195.882 241.507 196.7C241.507 197.519 241.182 198.303 240.603 198.882C240.025 199.46 239.24 199.785 238.422 199.785H234.905C234.087 199.785 233.302 200.11 232.724 200.689C232.145 201.267 231.82 202.051 231.82 202.869C231.82 203.687 232.145 204.472 232.724 205.05C233.302 205.629 234.087 205.954 234.905 205.954H256.929C257.747 205.954 258.531 205.629 259.109 205.05C259.688 204.472 260.013 203.687 260.013 202.869C260.013 202.051 259.688 201.267 259.109 200.689C258.531 200.11 257.747 199.785 256.929 199.785H255.043C254.225 199.785 253.441 199.46 252.862 198.882C252.284 198.303 251.959 197.519 251.959 196.7C251.959 195.882 252.284 195.098 252.862 194.519C253.441 193.94 254.225 193.615 255.043 193.615H272.002C272.82 193.615 273.604 193.291 274.183 192.712C274.761 192.134 275.086 191.349 275.086 190.531C275.086 189.713 274.761 188.929 274.183 188.351C273.604 187.772 272.82 187.447 272.002 187.447H230.888C230.07 187.447 229.286 187.772 228.708 188.351C228.129 188.929 227.804 189.713 227.804 190.531C227.804 191.349 228.129 192.134 228.708 192.712C229.286 193.291 230.07 193.615 230.888 193.615H230.89Z" stroke="#E8E8E8" stroke-width="3" stroke-linecap="round" stroke-linejoin="round"/>
<path d="M155.882 247.099C204.651 247.099 244.185 243.155 244.185 238.291C244.185 233.426 204.651 229.482 155.882 229.482C107.114 229.482 67.5796 233.426 67.5796 238.291C67.5796 243.155 107.114 247.099 155.882 247.099Z" fill="black" fill-opacity="0.12"/>
<g opacity="0.7">
<path opacity="0.7" d="M218.785 111.522L155.389 96.2549V215.746L218.785 199.151V111.522Z" fill="url(#paint0_linear_43_9173)"/>
<g opacity="0.1">
<path opacity="0.1" d="M218.785 111.522L155.389 96.2549V215.746L218.785 199.151V111.522Z" fill="url(#paint1_linear_43_9173)"/>
</g>
<path opacity="0.7" d="M91.9893 111.522L155.389 96.2549V215.746L91.9893 199.481V111.522Z" fill="url(#paint2_linear_43_9173)"/>
<g opacity="0.17">
<path opacity="0.17" d="M91.9893 111.522L155.389 96.2549V215.746L91.9893 199.481V111.522Z" fill="url(#paint3_linear_43_9173)"/>
</g>
<path opacity="0.7" d="M155.389 96.2552L188.248 69.0381L251.645 85.3029L218.785 111.522L155.389 96.2552Z" fill="url(#paint4_linear_43_9173)"/>
<path opacity="0.7" d="M59.4624 85.6328L91.9894 111.522L155.389 96.2552L123.192 69.0381L59.4624 85.6328Z" fill="url(#paint5_linear_43_9173)"/>
<g opacity="0.05">
<path opacity="0.05" d="M59.4624 85.6328L91.9894 111.522L155.389 96.2552L123.192 69.0381L59.4624 85.6328Z" fill="url(#paint6_linear_43_9173)"/>
</g>
<g opacity="0.5">
<path opacity="0.5" d="M154.244 82.4434H109.545C108.894 82.4434 108.367 82.9709 108.367 83.6216V124.682C108.367 125.332 108.894 125.86 109.545 125.86H154.244C154.895 125.86 155.423 125.332 155.423 124.682V83.6216C155.423 82.9709 154.895 82.4434 154.244 82.4434Z" fill="url(#paint7_linear_43_9173)"/>
</g>
<path opacity="0.7" d="M153.734 82.7788H110.119C109.468 82.7788 108.94 83.3063 108.94 83.957V123.965C108.94 124.615 109.468 125.143 110.119 125.143H153.734C154.385 125.143 154.912 124.615 154.912 123.965V83.957C154.912 83.3063 154.385 82.7788 153.734 82.7788Z" fill="url(#paint8_linear_43_9173)"/>
<path opacity="0.7" d="M119.057 89.7563H113.661C113.01 89.7563 112.483 90.2839 112.483 90.9346V95.5559C112.483 96.2066 113.01 96.7341 113.661 96.7341H119.057C119.708 96.7341 120.236 96.2066 120.236 95.5559V90.9346C120.236 90.2839 119.708 89.7563 119.057 89.7563Z" fill="url(#paint9_linear_43_9173)"/>
<path opacity="0.7" d="M153.171 89.7563H122.77C122.654 89.7563 122.561 89.8501 122.561 89.9658V90.3219C122.561 90.4376 122.654 90.5314 122.77 90.5314H153.171C153.287 90.5314 153.38 90.4376 153.38 90.3219V89.9658C153.38 89.8501 153.287 89.7563 153.171 89.7563Z" fill="url(#paint10_linear_43_9173)"/>
<path opacity="0.7" d="M153.171 92.0815H122.77C122.654 92.0815 122.561 92.1753 122.561 92.291V92.6471C122.561 92.7628 122.654 92.8566 122.77 92.8566H153.171C153.287 92.8566 153.38 92.7628 153.38 92.6471V92.291C153.38 92.1753 153.287 92.0815 153.171 92.0815Z" fill="url(#paint11_linear_43_9173)"/>
<path opacity="0.7" d="M153.171 100.525H111.917C111.801 100.525 111.708 100.619 111.708 100.735V101.091C111.708 101.207 111.801 101.3 111.917 101.3H153.171C153.286 101.3 153.38 101.207 153.38 101.091V100.735C153.38 100.619 153.286 100.525 153.171 100.525Z" fill="url(#paint12_linear_43_9173)"/>
<path opacity="0.7" d="M153.171 102.851H111.917C111.801 102.851 111.708 102.944 111.708 103.06V103.416C111.708 103.532 111.801 103.626 111.917 103.626H153.171C153.286 103.626 153.38 103.532 153.38 103.416V103.06C153.38 102.944 153.286 102.851 153.171 102.851Z" fill="url(#paint13_linear_43_9173)"/>
<path opacity="0.7" d="M153.171 105.951H111.917C111.801 105.951 111.708 106.044 111.708 106.16V106.516C111.708 106.632 111.801 106.726 111.917 106.726H153.171C153.286 106.726 153.38 106.632 153.38 106.516V106.16C153.38 106.044 153.286 105.951 153.171 105.951Z" fill="url(#paint14_linear_43_9173)"/>
<path opacity="0.7" d="M135.531 108.278H111.917C111.801 108.278 111.708 108.372 111.708 108.488V108.844C111.708 108.96 111.801 109.053 111.917 109.053H135.531C135.647 109.053 135.741 108.96 135.741 108.844V108.488C135.741 108.372 135.647 108.278 135.531 108.278Z" fill="url(#paint15_linear_43_9173)"/>
<path opacity="0.7" d="M153.171 111.371H111.917C111.801 111.371 111.708 111.464 111.708 111.58V111.936C111.708 112.052 111.801 112.146 111.917 112.146H153.171C153.286 112.146 153.38 112.052 153.38 111.936V111.58C153.38 111.464 153.286 111.371 153.171 111.371Z" fill="url(#paint16_linear_43_9173)"/>
<path opacity="0.7" d="M153.171 113.695H111.917C111.801 113.695 111.708 113.789 111.708 113.905V114.261C111.708 114.377 111.801 114.47 111.917 114.47H153.171C153.286 114.47 153.38 114.377 153.38 114.261V113.905C153.38 113.789 153.286 113.695 153.171 113.695Z" fill="url(#paint17_linear_43_9173)"/>
<path opacity="0.7" d="M153.171 116.798H111.917C111.801 116.798 111.708 116.892 111.708 117.008V117.364C111.708 117.48 111.801 117.573 111.917 117.573H153.171C153.286 117.573 153.38 117.48 153.38 117.364V117.008C153.38 116.892 153.286 116.798 153.171 116.798Z" fill="url(#paint18_linear_43_9173)"/>
<path opacity="0.7" d="M135.531 119.123H111.917C111.801 119.123 111.708 119.217 111.708 119.333V119.689C111.708 119.804 111.801 119.898 111.917 119.898H135.531C135.647 119.898 135.741 119.804 135.741 119.689V119.333C135.741 119.217 135.647 119.123 135.531 119.123Z" fill="url(#paint19_linear_43_9173)"/>
<g opacity="0.5">
<path opacity="0.5" d="M161.345 92.4741H116.646C115.995 92.4741 115.468 93.0016 115.468 93.6524V134.712C115.468 135.363 115.995 135.891 116.646 135.891H161.345C161.996 135.891 162.524 135.363 162.524 134.712V93.6524C162.524 93.0016 161.996 92.4741 161.345 92.4741Z" fill="url(#paint20_linear_43_9173)"/>
</g>
<path opacity="0.7" d="M160.835 92.812H117.219C116.569 92.812 116.041 93.3395 116.041 93.9902V133.998C116.041 134.648 116.569 135.176 117.219 135.176H160.835C161.485 135.176 162.013 134.648 162.013 133.998V93.9902C162.013 93.3395 161.485 92.812 160.835 92.812Z" fill="url(#paint21_linear_43_9173)"/>
<path opacity="0.7" d="M126.158 99.7896H120.762C120.111 99.7896 119.583 100.317 119.583 100.968V105.589C119.583 106.24 120.111 106.767 120.762 106.767H126.158C126.809 106.767 127.336 106.24 127.336 105.589V100.968C127.336 100.317 126.809 99.7896 126.158 99.7896Z" fill="url(#paint22_linear_43_9173)"/>
<path opacity="0.7" d="M160.274 99.7896H129.874C129.758 99.7896 129.664 99.8833 129.664 99.999V100.355C129.664 100.471 129.758 100.565 129.874 100.565H160.274C160.39 100.565 160.484 100.471 160.484 100.355V99.999C160.484 99.8833 160.39 99.7896 160.274 99.7896Z" fill="url(#paint23_linear_43_9173)"/>
<path opacity="0.7" d="M160.274 102.115H129.874C129.758 102.115 129.664 102.209 129.664 102.324V102.68C129.664 102.796 129.758 102.89 129.874 102.89H160.274C160.39 102.89 160.484 102.796 160.484 102.68V102.324C160.484 102.209 160.39 102.115 160.274 102.115Z" fill="url(#paint24_linear_43_9173)"/>
<path opacity="0.7" d="M160.272 110.556H119.018C118.902 110.556 118.809 110.65 118.809 110.766V111.122C118.809 111.237 118.902 111.331 119.018 111.331H160.272C160.388 111.331 160.481 111.237 160.481 111.122V110.766C160.481 110.65 160.388 110.556 160.272 110.556Z" fill="url(#paint25_linear_43_9173)"/>
<path opacity="0.7" d="M160.272 112.884H119.018C118.902 112.884 118.809 112.978 118.809 113.093V113.449C118.809 113.565 118.902 113.659 119.018 113.659H160.272C160.388 113.659 160.481 113.565 160.481 113.449V113.093C160.481 112.978 160.388 112.884 160.272 112.884Z" fill="url(#paint26_linear_43_9173)"/>
<path opacity="0.7" d="M160.272 115.984H119.018C118.902 115.984 118.809 116.078 118.809 116.193V116.549C118.809 116.665 118.902 116.759 119.018 116.759H160.272C160.388 116.759 160.481 116.665 160.481 116.549V116.193C160.481 116.078 160.388 115.984 160.272 115.984Z" fill="url(#paint27_linear_43_9173)"/>
<path opacity="0.7" d="M142.632 118.309H119.018C118.902 118.309 118.809 118.402 118.809 118.518V118.874C118.809 118.99 118.902 119.084 119.018 119.084H142.632C142.748 119.084 142.842 118.99 142.842 118.874V118.518C142.842 118.402 142.748 118.309 142.632 118.309Z" fill="url(#paint28_linear_43_9173)"/>
<path opacity="0.7" d="M160.272 121.404H119.018C118.902 121.404 118.809 121.498 118.809 121.613V121.969C118.809 122.085 118.902 122.179 119.018 122.179H160.272C160.388 122.179 160.481 122.085 160.481 121.969V121.613C160.481 121.498 160.388 121.404 160.272 121.404Z" fill="url(#paint29_linear_43_9173)"/>
<path opacity="0.7" d="M160.272 123.729H119.018C118.902 123.729 118.809 123.823 118.809 123.938V124.295C118.809 124.41 118.902 124.504 119.018 124.504H160.272C160.388 124.504 160.481 124.41 160.481 124.295V123.938C160.481 123.823 160.388 123.729 160.272 123.729Z" fill="url(#paint30_linear_43_9173)"/>
<path opacity="0.7" d="M160.272 126.832H119.018C118.902 126.832 118.809 126.925 118.809 127.041V127.397C118.809 127.513 118.902 127.607 119.018 127.607H160.272C160.388 127.607 160.481 127.513 160.481 127.397V127.041C160.481 126.925 160.388 126.832 160.272 126.832Z" fill="url(#paint31_linear_43_9173)"/>
<path opacity="0.7" d="M142.632 129.157H119.018C118.902 129.157 118.809 129.251 118.809 129.366V129.722C118.809 129.838 118.902 129.932 119.018 129.932H142.632C142.748 129.932 142.842 129.838 142.842 129.722V129.366C142.842 129.251 142.748 129.157 142.632 129.157Z" fill="url(#paint32_linear_43_9173)"/>
<g opacity="0.5">
<path opacity="0.5" d="M183.604 98.0933H142.832V145.997H183.604V98.0933Z" fill="url(#paint33_linear_43_9173)"/>
</g>
<path opacity="0.7" d="M182.737 98.8657H144.085V144.94H182.737V98.8657Z" fill="url(#paint34_linear_43_9173)"/>
<g opacity="0.5">
<path opacity="0.5" d="M165.516 106.191V105.034H161.314V106.191H158.358V111.876H168.465V106.191H165.516ZM161.838 105.45H164.98V106.186H161.838V105.45Z" fill="url(#paint35_linear_43_9173)"/>
</g>
<path opacity="0.7" d="M168.038 106.383H158.785V111.588H168.038V106.383Z" fill="url(#paint36_linear_43_9173)"/>
<path opacity="0.7" d="M161.484 105.322V106.673H161.966V105.71H164.856V106.673H165.338V105.322H161.484Z" fill="url(#paint37_linear_43_9173)"/>
<path opacity="0.7" d="M177.05 119.079H149.869V120.236H177.05V119.079Z" fill="url(#paint38_linear_43_9173)"/>
<path opacity="0.7" d="M177.05 126.693H149.869V127.85H177.05V126.693Z" fill="url(#paint39_linear_43_9173)"/>
<path opacity="0.7" d="M177.05 128.717H149.869V129.874H177.05V128.717Z" fill="url(#paint40_linear_43_9173)"/>
<path opacity="0.7" d="M161.34 124.669H149.869V125.826H161.34V124.669Z" fill="url(#paint41_linear_43_9173)"/>
<g opacity="0.6">
<path opacity="0.6" d="M177.05 124.669H168.472V125.826H177.05V124.669Z" fill="url(#paint42_linear_43_9173)"/>
</g>
<path opacity="0.7" d="M167.988 133.44H159.41V134.597H167.988V133.44Z" fill="url(#paint43_linear_43_9173)"/>
<path opacity="0.7" d="M91.9893 111.522V199.481L155.389 215.746V128.452L91.9893 111.522Z" fill="url(#paint44_linear_43_9173)"/>
<path opacity="0.7" d="M218.785 199.151L155.389 215.746V128.452L218.785 111.522V199.151Z" fill="url(#paint45_linear_43_9173)"/>
<g opacity="0.07">
<path opacity="0.07" d="M218.785 199.151L155.389 215.746V128.452L218.785 111.522V199.151Z" fill="url(#paint46_linear_43_9173)"/>
</g>
<g opacity="0.07">
<path opacity="0.07" d="M193.558 169.942V198.819L218.785 191.849V162.972L193.558 169.942Z" fill="url(#paint47_linear_43_9173)"/>
</g>
<path opacity="0.7" d="M204.304 104.186H185.606V122.15H204.304V104.186Z" fill="url(#paint48_linear_43_9173)"/>
<path opacity="0.7" d="M204.01 104.625H185.899V121.783H204.01V104.625Z" fill="url(#paint49_linear_43_9173)"/>
<g opacity="0.5">
<path opacity="0.5" d="M196.556 107.634V106.76H193.354V107.64H191.11V111.965H198.8V107.634H196.556ZM193.754 107.074H196.158V107.634H193.754V107.074Z" fill="url(#paint50_linear_43_9173)"/>
</g>
<g opacity="0.6">
<path opacity="0.6" d="M198.473 107.781H191.435V111.74H198.473V107.781Z" fill="url(#paint51_linear_43_9173)"/>
</g>
<g opacity="0.6">
<path opacity="0.6" d="M193.487 106.972V108.001H193.856V107.268H196.056V108.001H196.422V106.972H193.487Z" fill="url(#paint52_linear_43_9173)"/>
</g>
<g opacity="0.6">
<path opacity="0.6" d="M198.363 114.819H191.838V115.699H198.363V114.819Z" fill="url(#paint53_linear_43_9173)"/>
</g>
<path opacity="0.7" d="M200.528 116.432H189.382V117.311H200.528V116.432Z" fill="url(#paint54_linear_43_9173)"/>
<g opacity="0.5">
<path opacity="0.5" d="M165.506 49.2725H141.281V69.1715H165.506V49.2725Z" fill="url(#paint55_linear_43_9173)"/>
</g>
<path opacity="0.7" d="M165.178 49.6494H141.564V68.8415H165.178V49.6494Z" fill="url(#paint56_linear_43_9173)"/>
<path opacity="0.7" d="M165.178 49.6494H141.564V53.9303H165.178V49.6494Z" fill="url(#paint57_linear_43_9173)"/>
<g opacity="0.1">
<path opacity="0.1" d="M165.178 49.6494H141.564V53.9303H165.178V49.6494Z" fill="url(#paint58_linear_43_9173)"/>
</g>
<path opacity="0.7" d="M163.299 55.4829H143.447V57.9755H163.299V55.4829Z" fill="url(#paint59_linear_43_9173)"/>
<path opacity="0.7" d="M157.936 59.8579H143.447V60.7036H157.936V59.8579Z" fill="url(#paint60_linear_43_9173)"/>
<path opacity="0.7" d="M152.854 61.3169H143.447V62.1626H152.854V61.3169Z" fill="url(#paint61_linear_43_9173)"/>
<path opacity="0.7" d="M155.865 62.7749H143.447V63.6206H155.865V62.7749Z" fill="url(#paint62_linear_43_9173)"/>
<path opacity="0.7" d="M157.936 64.231H143.447V65.0767H157.936V64.231Z" fill="url(#paint63_linear_43_9173)"/>
<path opacity="0.7" d="M148.291 65.6895H143.447V66.5352H148.291V65.6895Z" fill="url(#paint64_linear_43_9173)"/>
<path opacity="0.7" d="M197.538 77.3325H179.579V78.3825H197.538V77.3325Z" fill="url(#paint65_linear_43_9173)"/>
<path opacity="0.7" d="M191.241 79.1392H179.579V80.1891H191.241V79.1392Z" fill="url(#paint66_linear_43_9173)"/>
<path opacity="0.7" d="M194.972 80.9482H179.579V81.9982H194.972V80.9482Z" fill="url(#paint67_linear_43_9173)"/>
<path opacity="0.7" d="M197.538 82.7554H179.579V83.8053H197.538V82.7554Z" fill="url(#paint68_linear_43_9173)"/>
<path opacity="0.7" d="M185.585 84.5615H179.579V85.6115H185.585V84.5615Z" fill="url(#paint69_linear_43_9173)"/>
<g opacity="0.1">
<path opacity="0.1" d="M91.1621 157.161L126.677 166.124L155.221 142.889V128.617L91.8245 112.685L91.1621 157.161Z" fill="url(#paint70_linear_43_9173)"/>
</g>
<g opacity="0.1">
<path opacity="0.1" d="M219.283 157.161L183.766 166.124L155.221 142.889V128.617L218.618 112.685L219.283 157.161Z" fill="url(#paint71_linear_43_9173)"/>
</g>
<path opacity="0.7" d="M91.9894 111.522L59.4624 138.41L122.859 154.342L155.389 128.452L91.9894 111.522Z" fill="url(#paint72_linear_43_9173)"/>
<path opacity="0.7" d="M218.785 111.522L251.645 138.41L188.581 154.342L155.389 128.452L218.785 111.522Z" fill="url(#paint73_linear_43_9173)"/>
<g opacity="0.07">
<path opacity="0.07" d="M218.785 111.522L251.645 138.41L188.581 154.342L155.389 128.452L218.785 111.522Z" fill="url(#paint74_linear_43_9173)"/>
</g>
</g>
<path d="M218.901 110.716L156.046 95.5771V214.047L218.901 197.594V110.716Z" fill="#828282"/>
<path d="M93.1938 110.716L156.046 95.5771V214.047L93.1938 197.921V110.716Z" fill="#828282"/>
<path d="M155.522 96.1005L188.626 68.5928L251.48 84.7188L218.377 111.239L155.522 96.1005Z" fill="#F5F5F5"/>
<path d="M61.4683 85.57L93.7177 111.24L156.57 96.1008L124.65 69.1167L61.4683 85.57Z" fill="#E8E8E8"/>
<g opacity="0.5">
<path opacity="0.5" d="M154.902 81.8833H110.605C109.955 81.8833 109.427 82.4108 109.427 83.0615V123.75C109.427 124.4 109.955 124.928 110.605 124.928H154.902C155.552 124.928 156.08 124.4 156.08 123.75V83.0615C156.08 82.4108 155.552 81.8833 154.902 81.8833Z" fill="url(#paint75_linear_43_9173)"/>
</g>
<path d="M154.396 82.2183H111.176C110.526 82.2183 109.998 82.7458 109.998 83.3965V123.04C109.998 123.691 110.526 124.218 111.176 124.218H154.396C155.047 124.218 155.575 123.691 155.575 123.04V83.3965C155.575 82.7458 155.047 82.2183 154.396 82.2183Z" fill="#F5F5F5"/>
<path d="M120.018 89.1357H114.688C114.037 89.1357 113.509 89.6633 113.509 90.314V94.875C113.509 95.5257 114.037 96.0533 114.688 96.0533H120.018C120.669 96.0533 121.197 95.5257 121.197 94.875V90.314C121.197 89.6633 120.669 89.1357 120.018 89.1357Z" fill="#F68B22"/>
<path d="M153.849 89.1357H123.713C123.597 89.1357 123.503 89.2295 123.503 89.3452V89.6961C123.503 89.8117 123.597 89.9055 123.713 89.9055H153.849C153.965 89.9055 154.059 89.8117 154.059 89.6961V89.3452C154.059 89.2295 153.965 89.1357 153.849 89.1357Z" fill="#E0E0E0"/>
<path d="M153.849 91.4399H123.713C123.597 91.4399 123.503 91.5337 123.503 91.6494V92.0003C123.503 92.1159 123.597 92.2097 123.713 92.2097H153.849C153.965 92.2097 154.059 92.1159 154.059 92.0003V91.6494C154.059 91.5337 153.965 91.4399 153.849 91.4399Z" fill="#E0E0E0"/>
<path d="M153.849 99.8105H112.952C112.836 99.8105 112.742 99.9043 112.742 100.02V100.371C112.742 100.487 112.836 100.58 112.952 100.58H153.849C153.965 100.58 154.059 100.487 154.059 100.371V100.02C154.059 99.9043 153.965 99.8105 153.849 99.8105Z" fill="#E0E0E0"/>
<path d="M153.849 102.117H112.952C112.836 102.117 112.742 102.211 112.742 102.327V102.678C112.742 102.793 112.836 102.887 112.952 102.887H153.849C153.965 102.887 154.059 102.793 154.059 102.678V102.327C154.059 102.211 153.965 102.117 153.849 102.117Z" fill="#E0E0E0"/>
<path d="M153.849 105.191H112.952C112.836 105.191 112.742 105.285 112.742 105.4V105.751C112.742 105.867 112.836 105.961 112.952 105.961H153.849C153.965 105.961 154.059 105.867 154.059 105.751V105.4C154.059 105.285 153.965 105.191 153.849 105.191Z" fill="#E0E0E0"/>
<path d="M136.362 107.498H112.952C112.836 107.498 112.742 107.591 112.742 107.707V108.058C112.742 108.174 112.836 108.267 112.952 108.267H136.362C136.477 108.267 136.571 108.174 136.571 108.058V107.707C136.571 107.591 136.477 107.498 136.362 107.498Z" fill="#E0E0E0"/>
<path d="M153.849 110.564H112.952C112.836 110.564 112.742 110.658 112.742 110.773V111.124C112.742 111.24 112.836 111.334 112.952 111.334H153.849C153.965 111.334 154.059 111.24 154.059 111.124V110.773C154.059 110.658 153.965 110.564 153.849 110.564Z" fill="#E0E0E0"/>
<path d="M153.849 112.871H112.952C112.836 112.871 112.742 112.964 112.742 113.08V113.431C112.742 113.547 112.836 113.64 112.952 113.64H153.849C153.965 113.64 154.059 113.547 154.059 113.431V113.08C154.059 112.964 153.965 112.871 153.849 112.871Z" fill="#E0E0E0"/>
<path d="M153.849 115.944H112.952C112.836 115.944 112.742 116.038 112.742 116.154V116.505C112.742 116.62 112.836 116.714 112.952 116.714H153.849C153.965 116.714 154.059 116.62 154.059 116.505V116.154C154.059 116.038 153.965 115.944 153.849 115.944Z" fill="#E0E0E0"/>
<path d="M136.362 118.251H112.952C112.836 118.251 112.742 118.345 112.742 118.46V118.811C112.742 118.927 112.836 119.021 112.952 119.021H136.362C136.477 119.021 136.571 118.927 136.571 118.811V118.46C136.571 118.345 136.477 118.251 136.362 118.251Z" fill="#E0E0E0"/>
<g opacity="0.5">
<path opacity="0.5" d="M161.942 91.8301H117.646C116.995 91.8301 116.468 92.3576 116.468 93.0083V133.697C116.468 134.347 116.995 134.875 117.646 134.875H161.942C162.593 134.875 163.12 134.347 163.12 133.697V93.0083C163.12 92.3576 162.593 91.8301 161.942 91.8301Z" fill="url(#paint76_linear_43_9173)"/>
</g>
<path d="M161.437 92.165H118.217C117.566 92.165 117.039 92.6926 117.039 93.3433V132.987C117.039 133.638 117.566 134.165 118.217 134.165H161.437C162.088 134.165 162.615 133.638 162.615 132.987V93.3433C162.615 92.6926 162.088 92.165 161.437 92.165Z" fill="white"/>
<path d="M127.059 99.0825H121.728C121.077 99.0825 120.55 99.61 120.55 100.261V104.822C120.55 105.473 121.077 106 121.728 106H127.059C127.71 106 128.237 105.473 128.237 104.822V100.261C128.237 99.61 127.71 99.0825 127.059 99.0825Z" fill="#F68B22"/>
<path d="M160.89 99.0825H130.753C130.638 99.0825 130.544 99.1763 130.544 99.292V99.6428C130.544 99.7585 130.638 99.8523 130.753 99.8523H160.89C161.006 99.8523 161.099 99.7585 161.099 99.6428V99.292C161.099 99.1763 161.006 99.0825 160.89 99.0825Z" fill="#E0E0E0"/>
<path d="M160.89 101.387H130.753C130.638 101.387 130.544 101.48 130.544 101.596V101.947C130.544 102.063 130.638 102.156 130.753 102.156H160.89C161.006 102.156 161.099 102.063 161.099 101.947V101.596C161.099 101.48 161.006 101.387 160.89 101.387Z" fill="#E0E0E0"/>
<path d="M160.89 109.757H119.992C119.876 109.757 119.783 109.851 119.783 109.967V110.318C119.783 110.433 119.876 110.527 119.992 110.527H160.89C161.006 110.527 161.099 110.433 161.099 110.318V109.967C161.099 109.851 161.006 109.757 160.89 109.757Z" fill="#E0E0E0"/>
<path d="M160.89 112.064H119.992C119.876 112.064 119.783 112.158 119.783 112.273V112.624C119.783 112.74 119.876 112.834 119.992 112.834H160.89C161.006 112.834 161.099 112.74 161.099 112.624V112.273C161.099 112.158 161.006 112.064 160.89 112.064Z" fill="#E0E0E0"/>
<path d="M160.89 115.138H119.992C119.876 115.138 119.783 115.232 119.783 115.348V115.699C119.783 115.814 119.876 115.908 119.992 115.908H160.89C161.006 115.908 161.099 115.814 161.099 115.699V115.348C161.099 115.232 161.006 115.138 160.89 115.138Z" fill="#E0E0E0"/>
<g clip-path="url(#clip0_43_9173)">
<path d="M204.436 91.4419H137.612V146.94H204.436V91.4419Z" fill="#F5F5F5"/>
<path d="M204.037 100.364H149.291V146.204H204.037V100.364Z" fill="white"/>
<path d="M164.248 142.078H202.385" stroke="#8C8C8C" stroke-width="0.5" stroke-miterlimit="10"/>
<path d="M164.248 142.078V141.729" stroke="#8C8C8C" stroke-width="0.5" stroke-miterlimit="10"/>
<path d="M202.385 142.078V141.729" stroke="#8C8C8C" stroke-width="0.5" stroke-miterlimit="10"/>
<path d="M166.127 142.078V128.117" stroke="#8C8C8C" stroke-width="0.5" stroke-miterlimit="10"/>
<path d="M166.127 142.078H167.081" stroke="#8C8C8C" stroke-width="0.5" stroke-miterlimit="10"/>
<path d="M166.127 140.333H167.081" stroke="#8C8C8C" stroke-width="0.5" stroke-miterlimit="10"/>
<path d="M166.127 138.588H167.081" stroke="#8C8C8C" stroke-width="0.5" stroke-miterlimit="10"/>
<path d="M166.127 136.843H167.081" stroke="#8C8C8C" stroke-width="0.5" stroke-miterlimit="10"/>
<path d="M166.127 135.098H167.081" stroke="#8C8C8C" stroke-width="0.5" stroke-miterlimit="10"/>
<path d="M166.127 133.353H167.081" stroke="#8C8C8C" stroke-width="0.5" stroke-miterlimit="10"/>
<path d="M166.127 131.607H167.081" stroke="#8C8C8C" stroke-width="0.5" stroke-miterlimit="10"/>
<path d="M166.127 129.862H167.081" stroke="#8C8C8C" stroke-width="0.5" stroke-miterlimit="10"/>
<path d="M166.127 128.117H167.081" stroke="#8C8C8C" stroke-width="0.5" stroke-miterlimit="10"/>
<path d="M198.455 131.607H196.342V142.078H198.455V131.607Z" fill="#A1A1A1"/>
<path d="M196.107 139.46H193.995V142.078H196.107V139.46Z" fill="black" fill-opacity="0.12"/>
<path d="M193.76 138.937H191.648V142.078H193.76V138.937Z" fill="#A1A1A1"/>
<path d="M191.414 133.353H189.301V142.078H191.414V133.353Z" fill="black" fill-opacity="0.12"/>
<path d="M189.066 136.843H186.954V142.078H189.066V136.843Z" fill="#A1A1A1"/>
<path d="M186.72 137.715H184.607V142.078H186.72V137.715Z" fill="black" fill-opacity="0.12"/>
<path d="M184.373 138.588H182.26V142.078H184.373V138.588Z" fill="#A1A1A1"/>
<path d="M182.026 129.862H179.914V142.078H182.026V129.862Z" fill="black" fill-opacity="0.12"/>
<path d="M179.679 140.333H177.566V142.078H179.679V140.333Z" fill="#A1A1A1"/>
<path d="M177.332 136.843H175.22V142.078H177.332V136.843Z" fill="black" fill-opacity="0.12"/>
<path d="M174.985 133.353H172.873V142.078H174.985V133.353Z" fill="#A1A1A1"/>
<path d="M172.638 135.098H170.526V142.078H172.638V135.098Z" fill="black" fill-opacity="0.12"/>
<path d="M170.291 138.588H168.179V142.078H170.291V138.588Z" fill="#A1A1A1"/>
<path d="M150.999 121.417H201.203" stroke="#8C8C8C" stroke-width="0.5" stroke-miterlimit="10"/>
<path d="M150.999 121.416V120.923" stroke="#8C8C8C" stroke-width="0.5" stroke-miterlimit="10"/>
<path d="M153.642 121.416V120.923" stroke="#8C8C8C" stroke-width="0.5" stroke-miterlimit="10"/>
<path d="M156.284 121.416V120.923" stroke="#8C8C8C" stroke-width="0.5" stroke-miterlimit="10"/>
<path d="M158.926 121.416V120.923" stroke="#8C8C8C" stroke-width="0.5" stroke-miterlimit="10"/>
<path d="M161.568 121.416V120.923" stroke="#8C8C8C" stroke-width="0.5" stroke-miterlimit="10"/>
<path d="M164.211 121.416V120.923" stroke="#8C8C8C" stroke-width="0.5" stroke-miterlimit="10"/>
<path d="M166.853 121.416V120.923" stroke="#8C8C8C" stroke-width="0.5" stroke-miterlimit="10"/>
<path d="M169.496 121.416V120.923" stroke="#8C8C8C" stroke-width="0.5" stroke-miterlimit="10"/>
<path d="M172.138 121.416V120.923" stroke="#8C8C8C" stroke-width="0.5" stroke-miterlimit="10"/>
<path d="M174.78 121.416V120.923" stroke="#8C8C8C" stroke-width="0.5" stroke-miterlimit="10"/>
<path d="M177.422 121.416V120.923" stroke="#8C8C8C" stroke-width="0.5" stroke-miterlimit="10"/>
<path d="M180.065 121.416V120.923" stroke="#8C8C8C" stroke-width="0.5" stroke-miterlimit="10"/>
<path d="M182.707 121.416V120.923" stroke="#8C8C8C" stroke-width="0.5" stroke-miterlimit="10"/>
<path d="M185.35 121.416V120.923" stroke="#8C8C8C" stroke-width="0.5" stroke-miterlimit="10"/>
<path d="M187.992 121.416V120.923" stroke="#8C8C8C" stroke-width="0.5" stroke-miterlimit="10"/>
<path d="M190.634 121.416V120.923" stroke="#8C8C8C" stroke-width="0.5" stroke-miterlimit="10"/>
<path d="M193.276 121.416V120.923" stroke="#8C8C8C" stroke-width="0.5" stroke-miterlimit="10"/>
<path d="M195.919 121.416V120.923" stroke="#8C8C8C" stroke-width="0.5" stroke-miterlimit="10"/>
<path d="M198.561 121.416V120.923" stroke="#8C8C8C" stroke-width="0.5" stroke-miterlimit="10"/>
<path d="M201.204 121.416V120.923" stroke="#8C8C8C" stroke-width="0.5" stroke-miterlimit="10"/>
<path d="M150.999 121.416V101.678" stroke="#8C8C8C" stroke-width="0.5" stroke-miterlimit="10"/>
<path d="M150.999 121.416H152.254" stroke="#8C8C8C" stroke-width="0.5" stroke-miterlimit="10"/>
<path d="M150.999 117.468H152.254" stroke="#8C8C8C" stroke-width="0.5" stroke-miterlimit="10"/>
<path d="M150.999 113.521H152.254" stroke="#8C8C8C" stroke-width="0.5" stroke-miterlimit="10"/>
<path d="M150.999 109.573H152.254" stroke="#8C8C8C" stroke-width="0.5" stroke-miterlimit="10"/>
<path d="M150.999 105.626H152.254" stroke="#8C8C8C" stroke-width="0.5" stroke-miterlimit="10"/>
<path d="M150.999 101.678H152.254" stroke="#8C8C8C" stroke-width="0.5" stroke-miterlimit="10"/>
<path d="M154.963 105.626L152.32 117.468" stroke="#F68B22" stroke-width="2" stroke-miterlimit="10" stroke-linecap="round"/>
<path d="M157.605 112.337L154.962 105.626" stroke="#F68B22" stroke-width="2" stroke-miterlimit="10" stroke-linecap="round"/>
<path d="M160.247 109.573L157.605 112.336" stroke="#F68B22" stroke-width="2" stroke-miterlimit="10" stroke-linecap="round"/>
<path d="M162.889 116.679L160.247 109.573" stroke="#F68B22" stroke-width="2" stroke-miterlimit="10" stroke-linecap="round"/>
<path d="M165.532 105.626L162.89 116.679" stroke="#F68B22" stroke-width="2" stroke-miterlimit="10" stroke-linecap="round"/>
<path d="M168.174 101.678L165.532 105.626" stroke="#F68B22" stroke-width="2" stroke-miterlimit="10" stroke-linecap="round"/>
<path d="M170.817 119.442L168.174 101.678" stroke="#F68B22" stroke-width="2" stroke-miterlimit="10" stroke-linecap="round"/>
<path d="M173.459 118.258L170.816 119.442" stroke="#F68B22" stroke-width="2" stroke-miterlimit="10" stroke-linecap="round"/>
<path d="M176.101 117.863L173.459 118.258" stroke="#F68B22" stroke-width="2" stroke-miterlimit="10" stroke-linecap="round"/>
<path d="M178.743 116.679L176.101 117.863" stroke="#F68B22" stroke-width="2" stroke-miterlimit="10" stroke-linecap="round"/>
<path d="M181.386 115.1L178.744 116.679" stroke="#F68B22" stroke-width="2" stroke-miterlimit="10" stroke-linecap="round"/>
<path d="M184.028 115.89L181.386 115.1" stroke="#F68B22" stroke-width="2" stroke-miterlimit="10" stroke-linecap="round"/>
<path d="M186.671 117.468L184.028 115.889" stroke="#F68B22" stroke-width="2" stroke-miterlimit="10" stroke-linecap="round"/>
<path d="M189.313 109.179L186.67 117.468" stroke="#F68B22" stroke-width="2" stroke-miterlimit="10" stroke-linecap="round"/>
<path d="M191.955 107.994L189.313 109.178" stroke="#F68B22" stroke-width="2" stroke-miterlimit="10" stroke-linecap="round"/>
<path d="M194.597 106.415L191.955 107.994" stroke="#F68B22" stroke-width="2" stroke-miterlimit="10" stroke-linecap="round"/>
<path d="M197.24 107.994L194.598 106.415" stroke="#F68B22" stroke-width="2" stroke-miterlimit="10" stroke-linecap="round"/>
<path d="M199.882 109.573L197.24 107.994" stroke="#F68B22" stroke-width="2" stroke-miterlimit="10" stroke-linecap="round"/>
<path d="M152.32 117C152.444 117 152.563 117.05 152.65 117.138C152.738 117.225 152.787 117.344 152.787 117.469C152.787 117.53 152.775 117.591 152.752 117.648C152.728 117.705 152.694 117.756 152.65 117.8C152.607 117.843 152.555 117.878 152.499 117.901C152.442 117.925 152.381 117.937 152.32 117.937C152.196 117.937 152.077 117.887 151.99 117.8C151.902 117.712 151.853 117.593 151.853 117.469C151.853 117.344 151.902 117.225 151.99 117.138C152.077 117.05 152.196 117.001 152.32 117Z" fill="white" stroke="#F68B22" stroke-linecap="round" stroke-linejoin="round"/>
<path d="M154.963 105.158C155.024 105.158 155.085 105.17 155.142 105.194C155.198 105.217 155.25 105.252 155.293 105.295C155.337 105.339 155.371 105.39 155.395 105.447C155.418 105.504 155.43 105.565 155.43 105.626C155.43 105.75 155.381 105.869 155.293 105.957C155.206 106.045 155.087 106.094 154.963 106.094C154.902 106.094 154.841 106.082 154.784 106.059C154.728 106.035 154.676 106.001 154.633 105.957C154.59 105.914 154.555 105.862 154.532 105.805C154.508 105.749 154.496 105.688 154.496 105.626C154.496 105.565 154.508 105.504 154.532 105.447C154.555 105.39 154.59 105.339 154.633 105.295C154.676 105.252 154.728 105.217 154.784 105.194C154.841 105.17 154.902 105.158 154.963 105.158Z" fill="white" stroke="#F68B22" stroke-linecap="round" stroke-linejoin="round"/>
<path d="M157.605 111.869C157.729 111.869 157.847 111.918 157.935 112.006C158.022 112.094 158.072 112.213 158.072 112.337C158.072 112.398 158.06 112.459 158.036 112.516C158.013 112.573 157.978 112.624 157.935 112.668C157.892 112.711 157.84 112.746 157.783 112.769C157.727 112.793 157.666 112.805 157.605 112.805C157.543 112.805 157.483 112.793 157.426 112.769C157.369 112.746 157.318 112.711 157.274 112.668C157.231 112.624 157.197 112.573 157.173 112.516C157.15 112.459 157.138 112.398 157.138 112.337C157.138 112.213 157.187 112.094 157.274 112.006C157.362 111.918 157.481 111.869 157.605 111.869Z" fill="white" stroke="#F68B22" stroke-linecap="round" stroke-linejoin="round"/>
<path d="M160.247 109.105C160.371 109.105 160.49 109.154 160.577 109.242C160.665 109.33 160.714 109.449 160.714 109.573C160.714 109.697 160.665 109.816 160.577 109.904C160.49 109.992 160.371 110.041 160.247 110.041C160.123 110.041 160.004 109.992 159.917 109.904C159.829 109.816 159.78 109.697 159.78 109.573C159.78 109.449 159.829 109.33 159.917 109.242C160.004 109.154 160.123 109.105 160.247 109.105Z" fill="white" stroke="#F68B22" stroke-linecap="round" stroke-linejoin="round"/>
<path d="M162.889 116.211C163.013 116.211 163.132 116.26 163.22 116.348C163.307 116.436 163.356 116.555 163.356 116.679C163.356 116.803 163.307 116.922 163.22 117.01C163.132 117.098 163.013 117.147 162.889 117.147C162.766 117.147 162.647 117.098 162.559 117.01C162.472 116.922 162.422 116.803 162.422 116.679C162.422 116.555 162.472 116.436 162.559 116.348C162.647 116.26 162.766 116.211 162.889 116.211Z" fill="white" stroke="#F68B22" stroke-linecap="round" stroke-linejoin="round"/>
<path d="M165.532 105.158C165.593 105.158 165.654 105.17 165.711 105.194C165.767 105.217 165.819 105.252 165.862 105.295C165.906 105.339 165.94 105.39 165.963 105.447C165.987 105.504 165.999 105.565 165.999 105.626C165.999 105.75 165.95 105.869 165.862 105.957C165.775 106.045 165.656 106.094 165.532 106.094C165.408 106.094 165.289 106.045 165.202 105.957C165.114 105.869 165.065 105.75 165.065 105.626C165.065 105.565 165.077 105.504 165.1 105.447C165.124 105.39 165.158 105.339 165.202 105.295C165.245 105.252 165.297 105.217 165.353 105.194C165.41 105.17 165.471 105.158 165.532 105.158Z" fill="white" stroke="#F68B22" stroke-linecap="round" stroke-linejoin="round"/>
<path d="M168.174 101.21C168.236 101.21 168.296 101.223 168.353 101.246C168.41 101.27 168.461 101.304 168.504 101.348C168.548 101.391 168.582 101.443 168.606 101.499C168.629 101.556 168.641 101.617 168.641 101.679C168.641 101.74 168.629 101.801 168.606 101.858C168.582 101.914 168.548 101.966 168.504 102.009C168.461 102.053 168.41 102.087 168.353 102.111C168.296 102.134 168.236 102.147 168.174 102.147C168.113 102.147 168.052 102.135 167.995 102.111C167.939 102.087 167.887 102.053 167.844 102.01C167.801 101.966 167.766 101.914 167.743 101.858C167.719 101.801 167.707 101.74 167.707 101.679C167.707 101.617 167.719 101.556 167.743 101.499C167.766 101.443 167.801 101.391 167.844 101.347C167.887 101.304 167.939 101.27 167.995 101.246C168.052 101.223 168.113 101.21 168.174 101.21Z" fill="white" stroke="#F68B22" stroke-linecap="round" stroke-linejoin="round"/>
<path d="M170.817 118.974C170.94 118.974 171.059 119.023 171.147 119.111C171.234 119.199 171.284 119.318 171.284 119.442C171.284 119.566 171.234 119.685 171.147 119.773C171.059 119.861 170.94 119.91 170.817 119.91C170.693 119.91 170.574 119.861 170.486 119.773C170.399 119.685 170.35 119.566 170.35 119.442C170.35 119.318 170.399 119.199 170.486 119.111C170.574 119.023 170.693 118.974 170.817 118.974Z" fill="white" stroke="#F68B22" stroke-linecap="round" stroke-linejoin="round"/>
<path d="M173.459 117.79C173.583 117.79 173.701 117.839 173.789 117.927C173.876 118.015 173.926 118.134 173.926 118.258C173.926 118.382 173.876 118.501 173.789 118.589C173.701 118.677 173.583 118.726 173.459 118.726C173.335 118.726 173.216 118.677 173.128 118.589C173.041 118.501 172.992 118.382 172.992 118.258C172.992 118.134 173.041 118.015 173.128 117.927C173.216 117.839 173.335 117.79 173.459 117.79Z" fill="white" stroke="#F68B22" stroke-linecap="round" stroke-linejoin="round"/>
<path d="M176.101 117.396C176.163 117.396 176.223 117.408 176.28 117.431C176.337 117.455 176.388 117.489 176.431 117.533C176.475 117.576 176.509 117.628 176.533 117.684C176.556 117.741 176.568 117.802 176.568 117.864C176.568 117.988 176.519 118.107 176.431 118.194C176.344 118.282 176.225 118.332 176.101 118.332C175.977 118.332 175.859 118.282 175.771 118.195C175.683 118.107 175.634 117.988 175.634 117.864C175.634 117.739 175.683 117.62 175.771 117.533C175.859 117.445 175.977 117.396 176.101 117.396Z" fill="white" stroke="#F68B22" stroke-linecap="round" stroke-linejoin="round"/>
<path d="M178.743 116.211C178.867 116.211 178.986 116.26 179.074 116.348C179.161 116.436 179.21 116.555 179.21 116.679C179.21 116.803 179.161 116.922 179.074 117.01C178.986 117.098 178.867 117.147 178.743 117.147C178.62 117.147 178.501 117.098 178.413 117.01C178.326 116.922 178.276 116.803 178.276 116.679C178.276 116.555 178.326 116.436 178.413 116.348C178.501 116.26 178.62 116.211 178.743 116.211Z" fill="white" stroke="#F68B22" stroke-linecap="round" stroke-linejoin="round"/>
<path d="M181.386 114.632C181.51 114.632 181.628 114.682 181.716 114.769C181.804 114.857 181.853 114.976 181.853 115.1C181.853 115.224 181.804 115.343 181.716 115.431C181.629 115.519 181.51 115.568 181.386 115.568C181.262 115.568 181.143 115.519 181.056 115.431C180.968 115.343 180.919 115.224 180.919 115.1C180.919 114.976 180.968 114.857 181.056 114.769C181.143 114.682 181.262 114.632 181.386 114.632Z" fill="white" stroke="#F68B22" stroke-linecap="round" stroke-linejoin="round"/>
<path d="M184.029 115.421C184.153 115.421 184.272 115.471 184.359 115.558C184.447 115.646 184.496 115.765 184.496 115.889C184.496 115.951 184.484 116.012 184.46 116.069C184.437 116.125 184.403 116.177 184.359 116.22C184.316 116.264 184.264 116.298 184.208 116.322C184.151 116.345 184.09 116.358 184.029 116.358C183.968 116.358 183.907 116.345 183.85 116.322C183.794 116.298 183.742 116.264 183.699 116.22C183.655 116.177 183.621 116.125 183.598 116.069C183.574 116.012 183.562 115.951 183.562 115.889C183.562 115.765 183.611 115.646 183.699 115.558C183.786 115.471 183.905 115.421 184.029 115.421Z" fill="white" stroke="#F68B22" stroke-linecap="round" stroke-linejoin="round"/>
<path d="M186.671 117C186.794 117 186.913 117.05 187.001 117.138C187.088 117.225 187.138 117.344 187.138 117.469C187.138 117.593 187.088 117.712 187.001 117.8C186.913 117.887 186.794 117.937 186.671 117.937C186.547 117.937 186.428 117.887 186.34 117.8C186.253 117.712 186.204 117.593 186.204 117.469C186.204 117.344 186.253 117.225 186.34 117.138C186.428 117.05 186.547 117.001 186.671 117Z" fill="white" stroke="#F68B22" stroke-linecap="round" stroke-linejoin="round"/>
<path d="M189.313 108.711C189.437 108.711 189.555 108.76 189.643 108.848C189.73 108.936 189.78 109.055 189.78 109.179C189.78 109.303 189.73 109.422 189.643 109.51C189.555 109.598 189.437 109.647 189.313 109.647C189.189 109.647 189.07 109.598 188.982 109.51C188.895 109.422 188.846 109.303 188.846 109.179C188.846 109.055 188.895 108.936 188.982 108.848C189.07 108.76 189.189 108.711 189.313 108.711Z" fill="white" stroke="#F68B22" stroke-linecap="round" stroke-linejoin="round"/>
<path d="M191.955 107.526C192.079 107.526 192.198 107.576 192.285 107.664C192.373 107.751 192.422 107.87 192.422 107.994C192.422 108.056 192.41 108.117 192.387 108.174C192.363 108.23 192.329 108.282 192.285 108.325C192.242 108.369 192.191 108.403 192.134 108.427C192.077 108.45 192.017 108.462 191.955 108.462C191.831 108.462 191.713 108.413 191.625 108.325C191.537 108.238 191.488 108.119 191.488 107.994C191.488 107.87 191.537 107.751 191.625 107.663C191.713 107.576 191.831 107.526 191.955 107.526Z" fill="white" stroke="#F68B22" stroke-linecap="round" stroke-linejoin="round"/>
<path d="M194.597 105.947C194.721 105.947 194.84 105.997 194.928 106.084C195.015 106.172 195.064 106.291 195.064 106.415C195.064 106.539 195.015 106.659 194.928 106.746C194.84 106.834 194.721 106.883 194.597 106.883C194.474 106.883 194.355 106.834 194.267 106.746C194.18 106.659 194.13 106.539 194.13 106.415C194.13 106.291 194.18 106.172 194.267 106.084C194.355 105.997 194.474 105.947 194.597 105.947Z" fill="white" stroke="#F68B22" stroke-linecap="round" stroke-linejoin="round"/>
<path d="M197.24 107.526C197.364 107.526 197.483 107.576 197.57 107.663C197.658 107.751 197.707 107.87 197.707 107.994C197.707 108.056 197.695 108.117 197.671 108.174C197.648 108.23 197.614 108.282 197.57 108.325C197.527 108.369 197.475 108.403 197.419 108.427C197.362 108.45 197.301 108.462 197.24 108.462C197.179 108.462 197.118 108.45 197.061 108.427C197.005 108.403 196.953 108.369 196.91 108.325C196.866 108.282 196.832 108.23 196.808 108.174C196.785 108.117 196.773 108.056 196.773 107.994C196.773 107.87 196.822 107.751 196.91 107.663C196.997 107.576 197.116 107.526 197.24 107.526Z" fill="white" stroke="#F68B22" stroke-linecap="round" stroke-linejoin="round"/>
<path d="M199.882 109.105C200.006 109.105 200.125 109.154 200.212 109.242C200.3 109.33 200.349 109.449 200.349 109.573C200.349 109.697 200.3 109.816 200.212 109.904C200.125 109.992 200.006 110.041 199.882 110.041C199.758 110.041 199.639 109.992 199.552 109.904C199.464 109.816 199.415 109.697 199.415 109.573C199.415 109.512 199.427 109.451 199.451 109.394C199.474 109.337 199.508 109.286 199.552 109.242C199.595 109.199 199.647 109.164 199.703 109.141C199.76 109.117 199.821 109.105 199.882 109.105Z" fill="white" stroke="#F68B22" stroke-linecap="round" stroke-linejoin="round"/>
<path d="M204.436 91.4419H202.709V146.94H204.436V91.4419Z" fill="#DBDBDB"/>
<path d="M204.436 123.42H202.709V137.557H204.436V123.42Z" fill="black" fill-opacity="0.12"/>
<path d="M204.436 91.4419H137.612V94.8393H204.436V91.4419Z" fill="black" fill-opacity="0.12"/>
<path d="M184.971 92.0215H142.008V93.9386H184.971V92.0215Z" fill="#EDEDED"/>
<path d="M140.971 101.812H147.109" stroke="black" stroke-linecap="round" stroke-linejoin="round"/>
<path d="M139.82 102.349C140.14 102.349 140.398 102.09 140.398 101.77C140.398 101.45 140.14 101.191 139.82 101.191C139.501 101.191 139.243 101.45 139.243 101.77C139.243 102.09 139.501 102.349 139.82 102.349Z" stroke="black" stroke-linecap="round" stroke-linejoin="round"/>
<path d="M140.971 105.52H147.109" stroke="black" stroke-linecap="round" stroke-linejoin="round"/>
<path d="M139.82 106.057C140.14 106.057 140.398 105.797 140.398 105.478C140.398 105.158 140.14 104.898 139.82 104.898C139.501 104.898 139.243 105.158 139.243 105.478C139.243 105.797 139.501 106.057 139.82 106.057Z" stroke="black" stroke-linecap="round" stroke-linejoin="round"/>
<path d="M140.971 109.227H147.109" stroke="black" stroke-linecap="round" stroke-linejoin="round"/>
<path d="M139.82 109.764C140.14 109.764 140.398 109.505 140.398 109.185C140.398 108.865 140.14 108.606 139.82 108.606C139.501 108.606 139.243 108.865 139.243 109.185C139.243 109.505 139.501 109.764 139.82 109.764Z" stroke="black" stroke-linecap="round" stroke-linejoin="round"/>
<path d="M140.971 112.935H147.109" stroke="black" stroke-linecap="round" stroke-linejoin="round"/>
<path d="M140.398 112.893C140.398 112.778 140.364 112.666 140.301 112.571C140.237 112.476 140.147 112.401 140.042 112.358C139.936 112.314 139.82 112.302 139.708 112.325C139.596 112.347 139.493 112.402 139.412 112.483C139.331 112.564 139.276 112.667 139.254 112.78C139.231 112.892 139.243 113.008 139.287 113.114C139.33 113.22 139.404 113.31 139.499 113.374C139.594 113.438 139.706 113.472 139.82 113.472C139.974 113.472 140.121 113.411 140.229 113.302C140.337 113.193 140.398 113.046 140.398 112.893V112.893Z" stroke="black" stroke-linecap="round" stroke-linejoin="round"/>
<path d="M140.971 116.642H147.109" stroke="black" stroke-linecap="round" stroke-linejoin="round"/>
<path d="M139.82 117.179C140.14 117.179 140.398 116.92 140.398 116.6C140.398 116.28 140.14 116.021 139.82 116.021C139.501 116.021 139.243 116.28 139.243 116.6C139.243 116.92 139.501 117.179 139.82 117.179Z" stroke="black" stroke-linecap="round" stroke-linejoin="round"/>
<path d="M157.074 136.871L153.043 140.638C152.549 140.108 152.165 139.485 151.911 138.806C151.658 138.126 151.541 137.403 151.566 136.679C151.591 135.954 151.759 135.241 152.059 134.581C152.359 133.921 152.786 133.327 153.315 132.832C154.324 131.86 155.674 131.327 157.073 131.348L157.074 136.871Z" fill="#A1A1A1"/>
<path d="M157.074 136.87L162.026 134.449C162.605 135.639 162.739 136.997 162.403 138.277C162.067 139.557 161.283 140.673 160.195 141.423C159.107 142.173 157.786 142.506 156.473 142.361C155.161 142.217 153.943 141.605 153.043 140.637L157.074 136.87Z" fill="#F68B22"/>
<path d="M157.074 136.87V131.347C158.111 131.325 159.132 131.607 160.012 132.158C160.891 132.709 161.592 133.505 162.027 134.449L157.074 136.87Z" fill="black" fill-opacity="0.12"/>
</g>
<path d="M143.402 128.198H119.992C119.876 128.198 119.783 128.292 119.783 128.408V128.759C119.783 128.874 119.876 128.968 119.992 128.968H143.402C143.518 128.968 143.612 128.874 143.612 128.759V128.408C143.612 128.292 143.518 128.198 143.402 128.198Z" fill="#E0E0E0"/>
<path d="M177.524 127.763H150.576V128.91H177.524V127.763Z" fill="#E0E0E0"/>
<path opacity="0.6" d="M177.524 123.75H169.02V124.896H177.524V123.75Z" fill="#3AD29F"/>
<path d="M168.54 132.445H160.036V133.592H168.54V132.445Z" fill="#F50057"/>
<path d="M93.1938 110.716V197.921L156.046 214.047L156.894 127.499L93.1938 110.716Z" fill="#F5F5F5"/>
<path d="M218.901 197.593L156.046 214.047V127.499L218.901 110.716V197.593Z" fill="#E8E8E8"/>
<path opacity="0.07" d="M193.891 168.635V197.263L218.901 190.354V161.723L193.891 168.635Z" fill="black"/>
<g opacity="0.5">
<path opacity="0.5" d="M179.095 18.9944V18.1226H175.919V18.9944H173.696V23.2832H181.318V18.9944H179.095ZM176.317 18.4394H178.699V18.9944H176.317V18.4394Z" fill="url(#paint77_linear_43_9173)"/>
</g>
<g opacity="0.5">
<path opacity="0.5" d="M166.079 48.9976H142.062V68.7264H166.079V48.9976Z" fill="url(#paint78_linear_43_9173)"/>
</g>
<path d="M165.755 49.3721H142.342V68.3992H165.755V49.3721Z" fill="#F2F2F2"/>
<path d="M165.755 49.3721H142.342V53.6163H165.755V49.3721Z" fill="#F68B22"/>
<path d="M163.89 55.1558H144.208V57.6274H163.89V55.1558Z" fill="#E0E0E0"/>
<path d="M158.572 59.4917H144.208V60.3322H158.572V59.4917Z" fill="#E0E0E0"/>
<path d="M153.535 60.937H144.208V61.7775H153.535V60.937Z" fill="#E0E0E0"/>
<path d="M156.52 62.3818H144.208V63.2223H156.52V62.3818Z" fill="#E0E0E0"/>
<path d="M158.572 63.8301H144.208V64.6706H158.572V63.8301Z" fill="#E0E0E0"/>
<path d="M149.013 65.2754H144.208V66.1159H149.013V65.2754Z" fill="#E0E0E0"/>
<path opacity="0.1" d="M92.3716 155.965L127.582 164.849L155.883 141.813V127.664L93.0288 111.868L92.3716 155.965Z" fill="black"/>
<path opacity="0.1" d="M219.395 155.965L184.184 164.849L155.883 141.813V127.664L218.738 111.868L219.395 155.965Z" fill="black"/>
<path d="M93.1938 110.716L60.9443 137.37L123.796 153.166L156.046 127.499L93.1938 110.716Z" fill="#F5F5F5"/>
<path d="M218.901 110.716L251.48 137.37L188.955 153.166L156.046 127.499L218.901 110.716Z" fill="#E8E8E8"/>
<g filter="url(#filter0_d_43_9173)">
<rect x="174.989" y="63.1265" width="33.9783" height="33.9783" fill="#EBEBEB"/>
<path d="M191.962 80.1L181.619 89.7436C180.353 88.3856 179.366 86.7914 178.716 85.0521C178.066 83.3128 177.764 81.4624 177.829 79.6067C177.894 77.7509 178.323 75.9261 179.093 74.2364C179.863 72.5466 180.959 71.0251 182.317 69.7587C184.906 67.2718 188.371 65.9069 191.96 65.9605L191.962 80.1Z" fill="#A1A1A1"/>
<path d="M191.962 80.1006L204.671 73.9023C206.156 76.9476 206.499 80.4252 205.637 83.702C204.774 86.9788 202.764 89.837 199.971 91.7561C197.179 93.6753 193.79 94.5278 190.421 94.1585C187.053 93.7893 183.93 92.2227 181.619 89.7442L191.962 80.1006Z" fill="#F68B22"/>
<path d="M191.961 80.1006V65.9611C194.623 65.9048 197.243 66.6261 199.5 68.0367C201.757 69.4472 203.554 71.4858 204.67 73.9024L191.961 80.1006Z" fill="black" fill-opacity="0.12"/>
</g>
<defs>
<filter id="filter0_d_43_9173" x="170.989" y="63.1265" width="41.9785" height="41.9785" filterUnits="userSpaceOnUse" color-interpolation-filters="sRGB">
<feFlood flood-opacity="0" result="BackgroundImageFix"/>
<feColorMatrix in="SourceAlpha" type="matrix" values="0 0 0 0 0 0 0 0 0 0 0 0 0 0 0 0 0 0 127 0" result="hardAlpha"/>
<feOffset dy="4"/>
<feGaussianBlur stdDeviation="2"/>
<feComposite in2="hardAlpha" operator="out"/>
<feColorMatrix type="matrix" values="0 0 0 0 0 0 0 0 0 0 0 0 0 0 0 0 0 0 0.25 0"/>
<feBlend mode="normal" in2="BackgroundImageFix" result="effect1_dropShadow_43_9173"/>
<feBlend mode="normal" in="SourceGraphic" in2="effect1_dropShadow_43_9173" result="shape"/>
</filter>
<linearGradient id="paint0_linear_43_9173" x1="155.389" y1="156.002" x2="218.785" y2="156.002" gradientUnits="userSpaceOnUse">
<stop stop-color="#808080" stop-opacity="0.25"/>
<stop offset="0.54" stop-color="#808080" stop-opacity="0.12"/>
<stop offset="1" stop-color="#808080" stop-opacity="0.1"/>
</linearGradient>
<linearGradient id="paint1_linear_43_9173" x1="155.389" y1="156.002" x2="218.785" y2="156.002" gradientUnits="userSpaceOnUse">
<stop stop-color="#808080" stop-opacity="0.25"/>
<stop offset="0.54" stop-color="#808080" stop-opacity="0.12"/>
<stop offset="1" stop-color="#808080" stop-opacity="0.1"/>
</linearGradient>
<linearGradient id="paint2_linear_43_9173" x1="7968.08" y1="64181.6" x2="23319.6" y2="64181.6" gradientUnits="userSpaceOnUse">
<stop stop-color="#808080" stop-opacity="0.25"/>
<stop offset="0.54" stop-color="#808080" stop-opacity="0.12"/>
<stop offset="1" stop-color="#808080" stop-opacity="0.1"/>
</linearGradient>
<linearGradient id="paint3_linear_43_9173" x1="7968.08" y1="64181.6" x2="23319.6" y2="64181.6" gradientUnits="userSpaceOnUse">
<stop stop-color="#808080" stop-opacity="0.25"/>
<stop offset="0.54" stop-color="#808080" stop-opacity="0.12"/>
<stop offset="1" stop-color="#808080" stop-opacity="0.1"/>
</linearGradient>
<linearGradient id="paint4_linear_43_9173" x1="35420.8" y1="12190.3" x2="70807.4" y2="12190.3" gradientUnits="userSpaceOnUse">
<stop stop-color="#808080" stop-opacity="0.25"/>
<stop offset="0.54" stop-color="#808080" stop-opacity="0.12"/>
<stop offset="1" stop-color="#808080" stop-opacity="0.1"/>
</linearGradient>
<linearGradient id="paint5_linear_43_9173" x1="59.4624" y1="12190.3" x2="35204" y2="12190.3" gradientUnits="userSpaceOnUse">
<stop stop-color="#808080" stop-opacity="0.25"/>
<stop offset="0.54" stop-color="#808080" stop-opacity="0.12"/>
<stop offset="1" stop-color="#808080" stop-opacity="0.1"/>
</linearGradient>
<linearGradient id="paint6_linear_43_9173" x1="59.4624" y1="12190.3" x2="35204" y2="12190.3" gradientUnits="userSpaceOnUse">
<stop stop-color="#808080" stop-opacity="0.25"/>
<stop offset="0.54" stop-color="#808080" stop-opacity="0.12"/>
<stop offset="1" stop-color="#808080" stop-opacity="0.1"/>
</linearGradient>
<linearGradient id="paint7_linear_43_9173" x1="13125.9" y1="18369" x2="13125.9" y2="11170.1" gradientUnits="userSpaceOnUse">
<stop stop-color="#808080" stop-opacity="0.25"/>
<stop offset="0.54" stop-color="#808080" stop-opacity="0.12"/>
<stop offset="1" stop-color="#808080" stop-opacity="0.1"/>
</linearGradient>
<linearGradient id="paint8_linear_43_9173" x1="8796.26" y1="14383.1" x2="16868" y2="14383.1" gradientUnits="userSpaceOnUse">
<stop stop-color="#808080" stop-opacity="0.25"/>
<stop offset="0.54" stop-color="#808080" stop-opacity="0.12"/>
<stop offset="1" stop-color="#808080" stop-opacity="0.1"/>
</linearGradient>
<linearGradient id="paint9_linear_43_9173" x1="1682.42" y1="2159.56" x2="1911.98" y2="2159.56" gradientUnits="userSpaceOnUse">
<stop stop-color="#808080" stop-opacity="0.25"/>
<stop offset="0.54" stop-color="#808080" stop-opacity="0.12"/>
<stop offset="1" stop-color="#808080" stop-opacity="0.1"/>
</linearGradient>
<linearGradient id="paint10_linear_43_9173" x1="7549.85" y1="310.472" x2="11177.7" y2="310.472" gradientUnits="userSpaceOnUse">
<stop stop-color="#808080" stop-opacity="0.25"/>
<stop offset="0.54" stop-color="#808080" stop-opacity="0.12"/>
<stop offset="1" stop-color="#808080" stop-opacity="0.1"/>
</linearGradient>
<linearGradient id="paint11_linear_43_9173" x1="7549.85" y1="319.679" x2="11177.7" y2="319.679" gradientUnits="userSpaceOnUse">
<stop stop-color="#808080" stop-opacity="0.25"/>
<stop offset="0.54" stop-color="#808080" stop-opacity="0.12"/>
<stop offset="1" stop-color="#808080" stop-opacity="0.1"/>
</linearGradient>
<linearGradient id="paint12_linear_43_9173" x1="8427.08" y1="353.117" x2="15059.7" y2="353.117" gradientUnits="userSpaceOnUse">
<stop stop-color="#808080" stop-opacity="0.25"/>
<stop offset="0.54" stop-color="#808080" stop-opacity="0.12"/>
<stop offset="1" stop-color="#808080" stop-opacity="0.1"/>
</linearGradient>
<linearGradient id="paint13_linear_43_9173" x1="8427.08" y1="362.324" x2="15059.7" y2="362.324" gradientUnits="userSpaceOnUse">
<stop stop-color="#808080" stop-opacity="0.25"/>
<stop offset="0.54" stop-color="#808080" stop-opacity="0.12"/>
<stop offset="1" stop-color="#808080" stop-opacity="0.1"/>
</linearGradient>
<linearGradient id="paint14_linear_43_9173" x1="8427.08" y1="374.601" x2="15059.7" y2="374.601" gradientUnits="userSpaceOnUse">
<stop stop-color="#808080" stop-opacity="0.25"/>
<stop offset="0.54" stop-color="#808080" stop-opacity="0.12"/>
<stop offset="1" stop-color="#808080" stop-opacity="0.1"/>
</linearGradient>
<linearGradient id="paint15_linear_43_9173" x1="4907.31" y1="383.821" x2="7113.32" y2="383.821" gradientUnits="userSpaceOnUse">
<stop stop-color="#808080" stop-opacity="0.25"/>
<stop offset="0.54" stop-color="#808080" stop-opacity="0.12"/>
<stop offset="1" stop-color="#808080" stop-opacity="0.1"/>
</linearGradient>
<linearGradient id="paint16_linear_43_9173" x1="8427.08" y1="396.066" x2="15059.7" y2="396.066" gradientUnits="userSpaceOnUse">
<stop stop-color="#808080" stop-opacity="0.25"/>
<stop offset="0.54" stop-color="#808080" stop-opacity="0.12"/>
<stop offset="1" stop-color="#808080" stop-opacity="0.1"/>
</linearGradient>
<linearGradient id="paint17_linear_43_9173" x1="8427.08" y1="405.273" x2="15059.7" y2="405.273" gradientUnits="userSpaceOnUse">
<stop stop-color="#808080" stop-opacity="0.25"/>
<stop offset="0.54" stop-color="#808080" stop-opacity="0.12"/>
<stop offset="1" stop-color="#808080" stop-opacity="0.1"/>
</linearGradient>
<linearGradient id="paint18_linear_43_9173" x1="8427.08" y1="417.557" x2="15059.7" y2="417.557" gradientUnits="userSpaceOnUse">
<stop stop-color="#808080" stop-opacity="0.25"/>
<stop offset="0.54" stop-color="#808080" stop-opacity="0.12"/>
<stop offset="1" stop-color="#808080" stop-opacity="0.1"/>
</linearGradient>
<linearGradient id="paint19_linear_43_9173" x1="4907.31" y1="426.764" x2="7113.32" y2="426.764" gradientUnits="userSpaceOnUse">
<stop stop-color="#808080" stop-opacity="0.25"/>
<stop offset="0.54" stop-color="#808080" stop-opacity="0.12"/>
<stop offset="1" stop-color="#808080" stop-opacity="0.1"/>
</linearGradient>
<linearGradient id="paint20_linear_43_9173" x1="14409.2" y1="20042.8" x2="14409.2" y2="12843.5" gradientUnits="userSpaceOnUse">
<stop stop-color="#808080" stop-opacity="0.25"/>
<stop offset="0.54" stop-color="#808080" stop-opacity="0.12"/>
<stop offset="1" stop-color="#808080" stop-opacity="0.1"/>
</linearGradient>
<linearGradient id="paint21_linear_43_9173" x1="10050.1" y1="16016.6" x2="18121.9" y2="16016.6" gradientUnits="userSpaceOnUse">
<stop stop-color="#808080" stop-opacity="0.25"/>
<stop offset="0.54" stop-color="#808080" stop-opacity="0.12"/>
<stop offset="1" stop-color="#808080" stop-opacity="0.1"/>
</linearGradient>
<linearGradient id="paint22_linear_43_9173" x1="1899.77" y1="2436.98" x2="2129.33" y2="2436.98" gradientUnits="userSpaceOnUse">
<stop stop-color="#808080" stop-opacity="0.25"/>
<stop offset="0.54" stop-color="#808080" stop-opacity="0.12"/>
<stop offset="1" stop-color="#808080" stop-opacity="0.1"/>
</linearGradient>
<linearGradient id="paint23_linear_43_9173" x1="8393.09" y1="350.204" x2="12020.9" y2="350.204" gradientUnits="userSpaceOnUse">
<stop stop-color="#808080" stop-opacity="0.25"/>
<stop offset="0.54" stop-color="#808080" stop-opacity="0.12"/>
<stop offset="1" stop-color="#808080" stop-opacity="0.1"/>
</linearGradient>
<linearGradient id="paint24_linear_43_9173" x1="8393.09" y1="359.411" x2="12020.9" y2="359.411" gradientUnits="userSpaceOnUse">
<stop stop-color="#808080" stop-opacity="0.25"/>
<stop offset="0.54" stop-color="#808080" stop-opacity="0.12"/>
<stop offset="1" stop-color="#808080" stop-opacity="0.1"/>
</linearGradient>
<linearGradient id="paint25_linear_43_9173" x1="9564.34" y1="392.839" x2="16197.4" y2="392.839" gradientUnits="userSpaceOnUse">
<stop stop-color="#808080" stop-opacity="0.25"/>
<stop offset="0.54" stop-color="#808080" stop-opacity="0.12"/>
<stop offset="1" stop-color="#808080" stop-opacity="0.1"/>
</linearGradient>
<linearGradient id="paint26_linear_43_9173" x1="9564.34" y1="402.056" x2="16197.4" y2="402.056" gradientUnits="userSpaceOnUse">
<stop stop-color="#808080" stop-opacity="0.25"/>
<stop offset="0.54" stop-color="#808080" stop-opacity="0.12"/>
<stop offset="1" stop-color="#808080" stop-opacity="0.1"/>
</linearGradient>
<linearGradient id="paint27_linear_43_9173" x1="9564.34" y1="414.332" x2="16197.4" y2="414.332" gradientUnits="userSpaceOnUse">
<stop stop-color="#808080" stop-opacity="0.25"/>
<stop offset="0.54" stop-color="#808080" stop-opacity="0.12"/>
<stop offset="1" stop-color="#808080" stop-opacity="0.1"/>
</linearGradient>
<linearGradient id="paint28_linear_43_9173" x1="5566.19" y1="423.542" x2="7772.21" y2="423.542" gradientUnits="userSpaceOnUse">
<stop stop-color="#808080" stop-opacity="0.25"/>
<stop offset="0.54" stop-color="#808080" stop-opacity="0.12"/>
<stop offset="1" stop-color="#808080" stop-opacity="0.1"/>
</linearGradient>
<linearGradient id="paint29_linear_43_9173" x1="9564.34" y1="435.798" x2="16197.4" y2="435.798" gradientUnits="userSpaceOnUse">
<stop stop-color="#808080" stop-opacity="0.25"/>
<stop offset="0.54" stop-color="#808080" stop-opacity="0.12"/>
<stop offset="1" stop-color="#808080" stop-opacity="0.1"/>
</linearGradient>
<linearGradient id="paint30_linear_43_9173" x1="9564.34" y1="445.002" x2="16197.4" y2="445.002" gradientUnits="userSpaceOnUse">
<stop stop-color="#808080" stop-opacity="0.25"/>
<stop offset="0.54" stop-color="#808080" stop-opacity="0.12"/>
<stop offset="1" stop-color="#808080" stop-opacity="0.1"/>
</linearGradient>
<linearGradient id="paint31_linear_43_9173" x1="9564.34" y1="457.289" x2="16197.4" y2="457.289" gradientUnits="userSpaceOnUse">
<stop stop-color="#808080" stop-opacity="0.25"/>
<stop offset="0.54" stop-color="#808080" stop-opacity="0.12"/>
<stop offset="1" stop-color="#808080" stop-opacity="0.1"/>
</linearGradient>
<linearGradient id="paint32_linear_43_9173" x1="5566.19" y1="466.496" x2="7772.21" y2="466.496" gradientUnits="userSpaceOnUse">
<stop stop-color="#808080" stop-opacity="0.25"/>
<stop offset="0.54" stop-color="#808080" stop-opacity="0.12"/>
<stop offset="1" stop-color="#808080" stop-opacity="0.1"/>
</linearGradient>
<linearGradient id="paint33_linear_43_9173" x1="16299.6" y1="23959.7" x2="16299.6" y2="15195.1" gradientUnits="userSpaceOnUse">
<stop stop-color="#808080" stop-opacity="0.25"/>
<stop offset="0.54" stop-color="#808080" stop-opacity="0.12"/>
<stop offset="1" stop-color="#808080" stop-opacity="0.1"/>
</linearGradient>
<linearGradient id="paint34_linear_43_9173" x1="12636.2" y1="18808.6" x2="18341.8" y2="18808.6" gradientUnits="userSpaceOnUse">
<stop stop-color="#808080" stop-opacity="0.25"/>
<stop offset="0.54" stop-color="#808080" stop-opacity="0.12"/>
<stop offset="1" stop-color="#808080" stop-opacity="0.1"/>
</linearGradient>
<linearGradient id="paint35_linear_43_9173" x1="6525.61" y1="3084.82" x2="6525.61" y2="2906.05" gradientUnits="userSpaceOnUse">
<stop stop-color="#808080" stop-opacity="0.25"/>
<stop offset="0.54" stop-color="#808080" stop-opacity="0.12"/>
<stop offset="1" stop-color="#808080" stop-opacity="0.1"/>
</linearGradient>
<linearGradient id="paint36_linear_43_9173" x1="3668.83" y1="1963.32" x2="3995.83" y2="1963.32" gradientUnits="userSpaceOnUse">
<stop stop-color="#808080" stop-opacity="0.25"/>
<stop offset="0.54" stop-color="#808080" stop-opacity="0.12"/>
<stop offset="1" stop-color="#808080" stop-opacity="0.1"/>
</linearGradient>
<linearGradient id="paint37_linear_43_9173" x1="1663.24" y1="571.89" x2="1719.98" y2="571.89" gradientUnits="userSpaceOnUse">
<stop stop-color="#808080" stop-opacity="0.25"/>
<stop offset="0.54" stop-color="#808080" stop-opacity="0.12"/>
<stop offset="1" stop-color="#808080" stop-opacity="0.1"/>
</linearGradient>
<linearGradient id="paint38_linear_43_9173" x1="9535.01" y1="579.112" x2="12356.6" y2="579.112" gradientUnits="userSpaceOnUse">
<stop stop-color="#808080" stop-opacity="0.25"/>
<stop offset="0.54" stop-color="#808080" stop-opacity="0.12"/>
<stop offset="1" stop-color="#808080" stop-opacity="0.1"/>
</linearGradient>
<linearGradient id="paint39_linear_43_9173" x1="9535.01" y1="620.377" x2="12356.6" y2="620.377" gradientUnits="userSpaceOnUse">
<stop stop-color="#808080" stop-opacity="0.25"/>
<stop offset="0.54" stop-color="#808080" stop-opacity="0.12"/>
<stop offset="1" stop-color="#808080" stop-opacity="0.1"/>
</linearGradient>
<linearGradient id="paint40_linear_43_9173" x1="9535.01" y1="631.35" x2="12356.6" y2="631.35" gradientUnits="userSpaceOnUse">
<stop stop-color="#808080" stop-opacity="0.25"/>
<stop offset="0.54" stop-color="#808080" stop-opacity="0.12"/>
<stop offset="1" stop-color="#808080" stop-opacity="0.1"/>
</linearGradient>
<linearGradient id="paint41_linear_43_9173" x1="4110.6" y1="609.411" x2="4613.13" y2="609.411" gradientUnits="userSpaceOnUse">
<stop stop-color="#808080" stop-opacity="0.25"/>
<stop offset="0.54" stop-color="#808080" stop-opacity="0.12"/>
<stop offset="1" stop-color="#808080" stop-opacity="0.1"/>
</linearGradient>
<linearGradient id="paint42_linear_43_9173" x1="3739.64" y1="609.411" x2="4020.64" y2="609.411" gradientUnits="userSpaceOnUse">
<stop stop-color="#808080" stop-opacity="0.25"/>
<stop offset="0.54" stop-color="#808080" stop-opacity="0.12"/>
<stop offset="1" stop-color="#808080" stop-opacity="0.1"/>
</linearGradient>
<linearGradient id="paint43_linear_43_9173" x1="3433.7" y1="656.951" x2="3714.79" y2="656.951" gradientUnits="userSpaceOnUse">
<stop stop-color="#808080" stop-opacity="0.25"/>
<stop offset="0.54" stop-color="#808080" stop-opacity="0.12"/>
<stop offset="1" stop-color="#808080" stop-opacity="0.1"/>
</linearGradient>
<linearGradient id="paint44_linear_43_9173" x1="7968.08" y1="59046.9" x2="23319.6" y2="59046.9" gradientUnits="userSpaceOnUse">
<stop stop-color="#808080" stop-opacity="0.25"/>
<stop offset="0.54" stop-color="#808080" stop-opacity="0.12"/>
<stop offset="1" stop-color="#808080" stop-opacity="0.1"/>
</linearGradient>
<linearGradient id="paint45_linear_43_9173" x1="23382" y1="59046.9" x2="38732.3" y2="59046.9" gradientUnits="userSpaceOnUse">
<stop stop-color="#808080" stop-opacity="0.25"/>
<stop offset="0.54" stop-color="#808080" stop-opacity="0.12"/>
<stop offset="1" stop-color="#808080" stop-opacity="0.1"/>
</linearGradient>
<linearGradient id="paint46_linear_43_9173" x1="23382" y1="59046.9" x2="38732.3" y2="59046.9" gradientUnits="userSpaceOnUse">
<stop stop-color="#808080" stop-opacity="0.25"/>
<stop offset="0.54" stop-color="#808080" stop-opacity="0.12"/>
<stop offset="1" stop-color="#808080" stop-opacity="0.1"/>
</linearGradient>
<linearGradient id="paint47_linear_43_9173" x1="13113.7" y1="22796.4" x2="15544.3" y2="22796.4" gradientUnits="userSpaceOnUse">
<stop stop-color="#808080" stop-opacity="0.25"/>
<stop offset="0.54" stop-color="#808080" stop-opacity="0.12"/>
<stop offset="1" stop-color="#808080" stop-opacity="0.1"/>
</linearGradient>
<linearGradient id="paint48_linear_43_9173" x1="9861.23" y1="7416.11" x2="9861.23" y2="6183.59" gradientUnits="userSpaceOnUse">
<stop stop-color="#808080" stop-opacity="0.25"/>
<stop offset="0.54" stop-color="#808080" stop-opacity="0.12"/>
<stop offset="1" stop-color="#808080" stop-opacity="0.1"/>
</linearGradient>
<linearGradient id="paint49_linear_43_9173" x1="8931.57" y1="6502.2" x2="10184.3" y2="6502.2" gradientUnits="userSpaceOnUse">
<stop stop-color="#808080" stop-opacity="0.25"/>
<stop offset="0.54" stop-color="#808080" stop-opacity="0.12"/>
<stop offset="1" stop-color="#808080" stop-opacity="0.1"/>
</linearGradient>
<linearGradient id="paint50_linear_43_9173" x1="5962.32" y1="2375.48" x2="5962.32" y2="2271.95" gradientUnits="userSpaceOnUse">
<stop stop-color="#808080" stop-opacity="0.25"/>
<stop offset="0.54" stop-color="#808080" stop-opacity="0.12"/>
<stop offset="1" stop-color="#808080" stop-opacity="0.1"/>
</linearGradient>
<linearGradient id="paint51_linear_43_9173" x1="3738.85" y1="1531.82" x2="3928.1" y2="1531.82" gradientUnits="userSpaceOnUse">
<stop stop-color="#808080" stop-opacity="0.25"/>
<stop offset="0.54" stop-color="#808080" stop-opacity="0.12"/>
<stop offset="1" stop-color="#808080" stop-opacity="0.1"/>
</linearGradient>
<linearGradient id="paint52_linear_43_9173" x1="1695.94" y1="468.177" x2="1728.81" y2="468.177" gradientUnits="userSpaceOnUse">
<stop stop-color="#808080" stop-opacity="0.25"/>
<stop offset="0.54" stop-color="#808080" stop-opacity="0.12"/>
<stop offset="1" stop-color="#808080" stop-opacity="0.1"/>
</linearGradient>
<linearGradient id="paint53_linear_43_9173" x1="3490.64" y1="449.748" x2="3653.3" y2="449.748" gradientUnits="userSpaceOnUse">
<stop stop-color="#808080" stop-opacity="0.25"/>
<stop offset="0.54" stop-color="#808080" stop-opacity="0.12"/>
<stop offset="1" stop-color="#808080" stop-opacity="0.1"/>
</linearGradient>
<linearGradient id="paint54_linear_43_9173" x1="5720.06" y1="456.777" x2="6194.55" y2="456.777" gradientUnits="userSpaceOnUse">
<stop stop-color="#808080" stop-opacity="0.25"/>
<stop offset="0.54" stop-color="#808080" stop-opacity="0.12"/>
<stop offset="1" stop-color="#808080" stop-opacity="0.1"/>
</linearGradient>
<linearGradient id="paint55_linear_43_9173" x1="8832.04" y1="4122.4" x2="8832.04" y2="2610.08" gradientUnits="userSpaceOnUse">
<stop stop-color="#808080" stop-opacity="0.25"/>
<stop offset="0.54" stop-color="#808080" stop-opacity="0.12"/>
<stop offset="1" stop-color="#808080" stop-opacity="0.1"/>
</linearGradient>
<linearGradient id="paint56_linear_43_9173" x1="7546.32" y1="3250.5" x2="9676.1" y2="3250.5" gradientUnits="userSpaceOnUse">
<stop stop-color="#808080" stop-opacity="0.25"/>
<stop offset="0.54" stop-color="#808080" stop-opacity="0.12"/>
<stop offset="1" stop-color="#808080" stop-opacity="0.1"/>
</linearGradient>
<linearGradient id="paint57_linear_43_9173" x1="7546.32" y1="641.698" x2="9676.1" y2="641.698" gradientUnits="userSpaceOnUse">
<stop stop-color="#808080" stop-opacity="0.25"/>
<stop offset="0.54" stop-color="#808080" stop-opacity="0.12"/>
<stop offset="1" stop-color="#808080" stop-opacity="0.1"/>
</linearGradient>
<linearGradient id="paint58_linear_43_9173" x1="7546.32" y1="641.698" x2="9676.1" y2="641.698" gradientUnits="userSpaceOnUse">
<stop stop-color="#808080" stop-opacity="0.25"/>
<stop offset="0.54" stop-color="#808080" stop-opacity="0.12"/>
<stop offset="1" stop-color="#808080" stop-opacity="0.1"/>
</linearGradient>
<linearGradient id="paint59_linear_43_9173" x1="6511.13" y1="447.246" x2="8016.1" y2="447.246" gradientUnits="userSpaceOnUse">
<stop stop-color="#808080" stop-opacity="0.25"/>
<stop offset="0.54" stop-color="#808080" stop-opacity="0.12"/>
<stop offset="1" stop-color="#808080" stop-opacity="0.1"/>
</linearGradient>
<linearGradient id="paint60_linear_43_9173" x1="4791.14" y1="204.246" x2="5592.85" y2="204.246" gradientUnits="userSpaceOnUse">
<stop stop-color="#808080" stop-opacity="0.25"/>
<stop offset="0.54" stop-color="#808080" stop-opacity="0.12"/>
<stop offset="1" stop-color="#808080" stop-opacity="0.1"/>
</linearGradient>
<linearGradient id="paint61_linear_43_9173" x1="3161" y1="210.415" x2="3499.01" y2="210.415" gradientUnits="userSpaceOnUse">
<stop stop-color="#808080" stop-opacity="0.25"/>
<stop offset="0.54" stop-color="#808080" stop-opacity="0.12"/>
<stop offset="1" stop-color="#808080" stop-opacity="0.1"/>
</linearGradient>
<linearGradient id="paint62_linear_43_9173" x1="4126.82" y1="216.584" x2="4715.83" y2="216.584" gradientUnits="userSpaceOnUse">
<stop stop-color="#808080" stop-opacity="0.25"/>
<stop offset="0.54" stop-color="#808080" stop-opacity="0.12"/>
<stop offset="1" stop-color="#808080" stop-opacity="0.1"/>
</linearGradient>
<linearGradient id="paint63_linear_43_9173" x1="4791.14" y1="222.75" x2="5592.85" y2="222.75" gradientUnits="userSpaceOnUse">
<stop stop-color="#808080" stop-opacity="0.25"/>
<stop offset="0.54" stop-color="#808080" stop-opacity="0.12"/>
<stop offset="1" stop-color="#808080" stop-opacity="0.1"/>
</linearGradient>
<linearGradient id="paint64_linear_43_9173" x1="1697.16" y1="228.919" x2="1786.77" y2="228.919" gradientUnits="userSpaceOnUse">
<stop stop-color="#808080" stop-opacity="0.25"/>
<stop offset="0.54" stop-color="#808080" stop-opacity="0.12"/>
<stop offset="1" stop-color="#808080" stop-opacity="0.1"/>
</linearGradient>
<linearGradient id="paint65_linear_43_9173" x1="8418.38" y1="327.07" x2="9650.18" y2="327.07" gradientUnits="userSpaceOnUse">
<stop stop-color="#808080" stop-opacity="0.25"/>
<stop offset="0.54" stop-color="#808080" stop-opacity="0.12"/>
<stop offset="1" stop-color="#808080" stop-opacity="0.1"/>
</linearGradient>
<linearGradient id="paint66_linear_43_9173" x1="5529.57" y1="336.132" x2="6048.99" y2="336.132" gradientUnits="userSpaceOnUse">
<stop stop-color="#808080" stop-opacity="0.25"/>
<stop offset="0.54" stop-color="#808080" stop-opacity="0.12"/>
<stop offset="1" stop-color="#808080" stop-opacity="0.1"/>
</linearGradient>
<linearGradient id="paint67_linear_43_9173" x1="7241.24" y1="345.185" x2="8146.19" y2="345.185" gradientUnits="userSpaceOnUse">
<stop stop-color="#808080" stop-opacity="0.25"/>
<stop offset="0.54" stop-color="#808080" stop-opacity="0.12"/>
<stop offset="1" stop-color="#808080" stop-opacity="0.1"/>
</linearGradient>
<linearGradient id="paint68_linear_43_9173" x1="8418.38" y1="354.235" x2="9650.18" y2="354.235" gradientUnits="userSpaceOnUse">
<stop stop-color="#808080" stop-opacity="0.25"/>
<stop offset="0.54" stop-color="#808080" stop-opacity="0.12"/>
<stop offset="1" stop-color="#808080" stop-opacity="0.1"/>
</linearGradient>
<linearGradient id="paint69_linear_43_9173" x1="2935.06" y1="363.299" x2="3072.84" y2="363.299" gradientUnits="userSpaceOnUse">
<stop stop-color="#808080" stop-opacity="0.25"/>
<stop offset="0.54" stop-color="#808080" stop-opacity="0.12"/>
<stop offset="1" stop-color="#808080" stop-opacity="0.1"/>
</linearGradient>
<linearGradient id="paint70_linear_43_9173" x1="7846.8" y1="25385.7" x2="23519.5" y2="25385.7" gradientUnits="userSpaceOnUse">
<stop stop-color="#808080" stop-opacity="0.25"/>
<stop offset="0.54" stop-color="#808080" stop-opacity="0.12"/>
<stop offset="1" stop-color="#808080" stop-opacity="0.1"/>
</linearGradient>
<linearGradient id="paint71_linear_43_9173" x1="23584.5" y1="25385.7" x2="39258.5" y2="25385.7" gradientUnits="userSpaceOnUse">
<stop stop-color="#808080" stop-opacity="0.25"/>
<stop offset="0.54" stop-color="#808080" stop-opacity="0.12"/>
<stop offset="1" stop-color="#808080" stop-opacity="0.1"/>
</linearGradient>
<linearGradient id="paint72_linear_43_9173" x1="59.4624" y1="19303.7" x2="35204" y2="19303.7" gradientUnits="userSpaceOnUse">
<stop stop-color="#808080" stop-opacity="0.25"/>
<stop offset="0.54" stop-color="#808080" stop-opacity="0.12"/>
<stop offset="1" stop-color="#808080" stop-opacity="0.1"/>
</linearGradient>
<linearGradient id="paint73_linear_43_9173" x1="35420.8" y1="19303.7" x2="70807.4" y2="19303.7" gradientUnits="userSpaceOnUse">
<stop stop-color="#808080" stop-opacity="0.25"/>
<stop offset="0.54" stop-color="#808080" stop-opacity="0.12"/>
<stop offset="1" stop-color="#808080" stop-opacity="0.1"/>
</linearGradient>
<linearGradient id="paint74_linear_43_9173" x1="35420.8" y1="19303.7" x2="70807.4" y2="19303.7" gradientUnits="userSpaceOnUse">
<stop stop-color="#808080" stop-opacity="0.25"/>
<stop offset="0.54" stop-color="#808080" stop-opacity="0.12"/>
<stop offset="1" stop-color="#808080" stop-opacity="0.1"/>
</linearGradient>
<linearGradient id="paint75_linear_43_9173" x1="13168.4" y1="18059.1" x2="13168.4" y2="10982.5" gradientUnits="userSpaceOnUse">
<stop stop-color="#808080" stop-opacity="0.25"/>
<stop offset="0.54" stop-color="#808080" stop-opacity="0.12"/>
<stop offset="1" stop-color="#808080" stop-opacity="0.1"/>
</linearGradient>
<linearGradient id="paint76_linear_43_9173" x1="14430.4" y1="19704.3" x2="14430.4" y2="12627.7" gradientUnits="userSpaceOnUse">
<stop stop-color="#808080" stop-opacity="0.25"/>
<stop offset="0.54" stop-color="#808080" stop-opacity="0.12"/>
<stop offset="1" stop-color="#808080" stop-opacity="0.1"/>
</linearGradient>
<linearGradient id="paint77_linear_43_9173" x1="5385.83" y1="519.634" x2="5385.83" y2="417.918" gradientUnits="userSpaceOnUse">
<stop stop-color="#808080" stop-opacity="0.25"/>
<stop offset="0.54" stop-color="#808080" stop-opacity="0.12"/>
<stop offset="1" stop-color="#808080" stop-opacity="0.1"/>
</linearGradient>
<linearGradient id="paint78_linear_43_9173" x1="8820.57" y1="4053.75" x2="8820.57" y2="2567.18" gradientUnits="userSpaceOnUse">
<stop stop-color="#808080" stop-opacity="0.25"/>
<stop offset="0.54" stop-color="#808080" stop-opacity="0.12"/>
<stop offset="1" stop-color="#808080" stop-opacity="0.1"/>
</linearGradient>
<clipPath id="clip0_43_9173">
<rect width="66.824" height="55.4979" fill="white" transform="translate(137.612 91.4419)"/>
</clipPath>
</defs>
</svg>
