<svg width="312" height="278" viewBox="0 0 312 278" fill="none" xmlns="http://www.w3.org/2000/svg">
<path fill-rule="evenodd" clip-rule="evenodd" d="M79.7133 273.47C73.1668 272.054 -5.48502 259.298 0.304318 165.229C6.09365 71.1596 13.3616 42.8704 43.9398 32.5183C74.518 22.1663 148.85 -26.8066 207.179 19.7612C243.228 48.5397 300.661 107.961 305.022 122.685C309.383 137.408 318.493 165.659 303.47 182.449C264.144 226.402 274.404 281.605 209.237 277.815C144.07 274.025 110.84 280.204 79.7121 273.469" fill="#F9F9F9"/>
<path d="M77.6838 113.707H49.9638C49.5552 113.712 49.1496 113.637 48.7705 113.484C48.3915 113.332 48.0465 113.105 47.7556 112.818C47.4647 112.532 47.2338 112.19 47.0761 111.813C46.9185 111.436 46.8373 111.031 46.8373 110.623C46.8373 110.214 46.9185 109.809 47.0761 109.432C47.2338 109.055 47.4647 108.714 47.7556 108.427C48.0465 108.14 48.3915 107.913 48.7705 107.761C49.1496 107.608 49.5552 107.533 49.9638 107.538H53.011C53.4196 107.544 53.8252 107.468 54.2043 107.316C54.5833 107.163 54.9283 106.937 55.2192 106.65C55.5101 106.363 55.741 106.021 55.8987 105.644C56.0563 105.267 56.1375 104.862 56.1375 104.454C56.1375 104.045 56.0563 103.641 55.8987 103.264C55.741 102.887 55.5101 102.545 55.2192 102.258C54.9283 101.971 54.5833 101.745 54.2043 101.592C53.8252 101.44 53.4196 101.364 53.011 101.369H34.3745C33.9659 101.364 33.5604 101.44 33.1813 101.592C32.8022 101.745 32.4572 101.971 32.1664 102.258C31.8755 102.545 31.6445 102.887 31.4869 103.264C31.3292 103.641 31.2481 104.045 31.2481 104.454C31.2481 104.862 31.3292 105.267 31.4869 105.644C31.6445 106.021 31.8755 106.363 32.1664 106.65C32.4572 106.937 32.8022 107.163 33.1813 107.316C33.5604 107.468 33.9659 107.544 34.3745 107.538H37.2712C37.6797 107.533 38.0853 107.608 38.4644 107.761C38.8435 107.913 39.1884 108.14 39.4793 108.427C39.7702 108.714 40.0012 109.055 40.1588 109.432C40.3164 109.809 40.3976 110.214 40.3976 110.623C40.3976 111.031 40.3164 111.436 40.1588 111.813C40.0012 112.19 39.7702 112.532 39.4793 112.818C39.1884 113.105 38.8435 113.332 38.4644 113.484C38.0853 113.637 37.6797 113.712 37.2712 113.707H28.72C27.9018 113.707 27.1171 114.032 26.5386 114.61C25.96 115.189 25.635 115.974 25.635 116.792C25.635 117.61 25.96 118.395 26.5386 118.973C27.1171 119.552 27.9018 119.877 28.72 119.877H48.2071C49.0179 119.888 49.7917 120.218 50.3612 120.795C50.9307 121.372 51.25 122.15 51.25 122.961C51.25 123.772 50.9307 124.55 50.3612 125.128C49.7917 125.705 49.0179 126.035 48.2071 126.046H44.6926C44.284 126.04 43.8784 126.116 43.4994 126.268C43.1203 126.421 42.7753 126.647 42.4844 126.934C42.1936 127.221 41.9626 127.563 41.805 127.94C41.6473 128.317 41.5661 128.721 41.5661 129.13C41.5661 129.539 41.6473 129.943 41.805 130.32C41.9626 130.697 42.1936 131.039 42.4844 131.326C42.7753 131.613 43.1203 131.839 43.4994 131.992C43.8784 132.144 44.284 132.22 44.6926 132.214H66.7105C67.1191 132.22 67.5247 132.144 67.9037 131.992C68.2828 131.839 68.6278 131.613 68.9187 131.326C69.2095 131.039 69.4405 130.697 69.5982 130.32C69.7558 129.943 69.837 129.539 69.837 129.13C69.837 128.721 69.7558 128.317 69.5982 127.94C69.4405 127.563 69.2095 127.221 68.9187 126.934C68.6278 126.647 68.2828 126.421 67.9037 126.268C67.5247 126.116 67.1191 126.04 66.7105 126.046H64.827C64.4184 126.051 64.0128 125.975 63.6338 125.823C63.2547 125.67 62.9097 125.444 62.6188 125.157C62.328 124.87 62.097 124.528 61.9394 124.151C61.7817 123.774 61.7005 123.37 61.7005 122.961C61.7005 122.553 61.7817 122.148 61.9394 121.771C62.097 121.394 62.328 121.052 62.6188 120.765C62.9097 120.478 63.2547 120.252 63.6338 120.1C64.0128 119.947 64.4184 119.871 64.827 119.877H77.6821C78.5003 119.877 79.285 119.552 79.8635 118.973C80.442 118.395 80.767 117.61 80.767 116.792C80.767 115.974 80.442 115.189 79.8635 114.61C79.285 114.032 78.5003 113.707 77.6821 113.707H77.6838Z" stroke="#E8E8E8" stroke-width="3" stroke-linecap="round" stroke-linejoin="round"/>
<path d="M230.89 193.616H238.422C239.241 193.616 240.025 193.941 240.604 194.519C241.182 195.098 241.507 195.883 241.507 196.701C241.507 197.519 241.182 198.304 240.604 198.882C240.025 199.461 239.241 199.786 238.422 199.786H234.905C234.087 199.786 233.303 200.111 232.724 200.689C232.146 201.268 231.821 202.052 231.821 202.87C231.821 203.688 232.146 204.472 232.724 205.051C233.303 205.629 234.087 205.954 234.905 205.954H256.929C257.747 205.954 258.532 205.629 259.11 205.051C259.688 204.472 260.013 203.688 260.013 202.87C260.013 202.052 259.688 201.268 259.11 200.689C258.532 200.111 257.747 199.786 256.929 199.786H255.044C254.226 199.786 253.441 199.461 252.863 198.882C252.284 198.304 251.959 197.519 251.959 196.701C251.959 195.883 252.284 195.098 252.863 194.519C253.441 193.941 254.226 193.616 255.044 193.616H272.003C272.82 193.616 273.605 193.291 274.183 192.713C274.762 192.134 275.087 191.35 275.087 190.532C275.087 189.714 274.762 188.929 274.183 188.351C273.605 187.773 272.82 187.448 272.003 187.448H230.889C230.071 187.448 229.286 187.773 228.708 188.351C228.13 188.929 227.805 189.714 227.805 190.532C227.805 191.35 228.13 192.134 228.708 192.713C229.286 193.291 230.071 193.616 230.889 193.616H230.89Z" stroke="#E8E8E8" stroke-width="3" stroke-linecap="round" stroke-linejoin="round"/>
<path d="M142.694 211.651C142.694 211.651 101.297 167.324 96.4227 161.517C94.305 158.994 91.1442 152.427 90.7413 150.236C90.4412 148.631 90.6542 146.972 91.3501 145.494C92.046 144.017 93.1895 142.796 94.6183 142.006C101.156 138.421 117.542 133.605 158.401 133.605C192.822 133.605 208.339 137.581 215.321 141.327C217.156 142.318 218.612 143.887 219.465 145.79C220.317 147.692 220.518 149.823 220.036 151.852C219.292 155.015 217.742 157.932 215.537 160.319L168.122 211.651L163.883 247.557H148.928L142.694 211.651Z" fill="#E8E8E8"/>
<path d="M211.585 144.842C211.982 145.005 212.326 145.274 212.58 145.62C212.835 145.965 212.989 146.374 213.026 146.802C213.064 147.229 212.983 147.659 212.792 148.043C212.601 148.428 212.308 148.752 211.946 148.981C202.158 155.261 189.85 156.945 178.105 157.713C151.752 159.435 110.582 158.389 98.3597 147.798C98.1723 147.638 98.0305 147.432 97.9486 147.199C97.8668 146.967 97.8477 146.717 97.8934 146.474C97.9392 146.232 98.048 146.006 98.209 145.82C98.37 145.633 98.5774 145.492 98.8103 145.411C103.07 143.932 115.696 138.996 154.774 139.29C188.926 139.551 205.115 142.22 211.585 144.842Z" fill="#787878"/>
<path d="M148.976 86.4526H108.991C108.389 86.4526 107.901 86.9407 107.901 87.5427V124.219C107.901 124.821 108.389 125.309 108.991 125.309H148.976C149.578 125.309 150.066 124.821 150.066 124.219V87.5427C150.066 86.9407 149.578 86.4526 148.976 86.4526Z" fill="#F5F5F5"/>
<path d="M108.991 86.7026H148.976C149.44 86.7026 149.816 87.0787 149.816 87.5427V124.219C149.816 124.683 149.44 125.059 148.976 125.059H108.991C108.527 125.059 108.151 124.683 108.151 124.219V87.5427C108.151 87.0787 108.527 86.7026 108.991 86.7026Z" stroke="black" stroke-opacity="0.4" stroke-width="0.5"/>
<path d="M117.171 92.8525H112.239C111.637 92.8525 111.149 93.3406 111.149 93.9426V98.1623C111.149 98.7643 111.637 99.2523 112.239 99.2523H117.171C117.773 99.2523 118.261 98.7643 118.261 98.1623V93.9426C118.261 93.3406 117.773 92.8525 117.171 92.8525Z" fill="#F68B22"/>
<path d="M148.47 92.8525H120.589C120.482 92.8525 120.396 92.9393 120.396 93.0463V93.3709C120.396 93.4779 120.482 93.5647 120.589 93.5647H148.47C148.577 93.5647 148.664 93.4779 148.664 93.3709V93.0463C148.664 92.9393 148.577 92.8525 148.47 92.8525Z" fill="#E0E0E0"/>
<path d="M148.47 102.729H110.633C110.526 102.729 110.439 102.815 110.439 102.922V103.247C110.439 103.354 110.526 103.441 110.633 103.441H148.47C148.577 103.441 148.664 103.354 148.664 103.247V102.922C148.664 102.815 148.577 102.729 148.47 102.729Z" fill="#E0E0E0"/>
<path d="M148.47 104.862H110.633C110.526 104.862 110.439 104.949 110.439 105.056V105.381C110.439 105.488 110.526 105.574 110.633 105.574H148.47C148.577 105.574 148.664 105.488 148.664 105.381V105.056C148.664 104.949 148.577 104.862 148.47 104.862Z" fill="#E0E0E0"/>
<path d="M148.47 107.706H110.633C110.526 107.706 110.439 107.793 110.439 107.9V108.224C110.439 108.331 110.526 108.418 110.633 108.418H148.47C148.577 108.418 148.664 108.331 148.664 108.224V107.9C148.664 107.793 148.577 107.706 148.47 107.706Z" fill="#E0E0E0"/>
<path d="M132.291 109.84H110.633C110.526 109.84 110.439 109.927 110.439 110.034V110.359C110.439 110.466 110.526 110.552 110.633 110.552H132.291C132.398 110.552 132.485 110.466 132.485 110.359V110.034C132.485 109.927 132.398 109.84 132.291 109.84Z" fill="#E0E0E0"/>
<path d="M148.47 112.677H110.633C110.526 112.677 110.439 112.764 110.439 112.871V113.195C110.439 113.302 110.526 113.389 110.633 113.389H148.47C148.577 113.389 148.664 113.302 148.664 113.195V112.871C148.664 112.764 148.577 112.677 148.47 112.677Z" fill="#E0E0E0"/>
<path d="M148.47 114.811H110.633C110.526 114.811 110.439 114.898 110.439 115.005V115.329C110.439 115.436 110.526 115.523 110.633 115.523H148.47C148.577 115.523 148.664 115.436 148.664 115.329V115.005C148.664 114.898 148.577 114.811 148.47 114.811Z" fill="#E0E0E0"/>
<g clip-path="url(#clip0_40_8174)">
<path d="M195.272 94.9858H133.449V146.33H195.272V94.9858Z" fill="#F5F5F5"/>
<path d="M194.902 103.241H144.253V145.65H194.902V103.241Z" fill="white"/>
<path d="M158.09 141.832H193.374" stroke="#8C8C8C" stroke-width="0.5" stroke-miterlimit="10"/>
<path d="M158.09 141.832V141.509" stroke="#8C8C8C" stroke-width="0.5" stroke-miterlimit="10"/>
<path d="M193.374 141.832V141.509" stroke="#8C8C8C" stroke-width="0.5" stroke-miterlimit="10"/>
<path d="M159.83 141.832V128.916" stroke="#8C8C8C" stroke-width="0.5" stroke-miterlimit="10"/>
<path d="M159.83 141.832H160.712" stroke="#8C8C8C" stroke-width="0.5" stroke-miterlimit="10"/>
<path d="M159.83 140.218H160.712" stroke="#8C8C8C" stroke-width="0.5" stroke-miterlimit="10"/>
<path d="M159.83 138.603H160.712" stroke="#8C8C8C" stroke-width="0.5" stroke-miterlimit="10"/>
<path d="M159.83 136.988H160.712" stroke="#8C8C8C" stroke-width="0.5" stroke-miterlimit="10"/>
<path d="M159.83 135.374H160.712" stroke="#8C8C8C" stroke-width="0.5" stroke-miterlimit="10"/>
<path d="M159.83 133.76H160.712" stroke="#8C8C8C" stroke-width="0.5" stroke-miterlimit="10"/>
<path d="M159.83 132.145H160.712" stroke="#8C8C8C" stroke-width="0.5" stroke-miterlimit="10"/>
<path d="M159.83 130.53H160.712" stroke="#8C8C8C" stroke-width="0.5" stroke-miterlimit="10"/>
<path d="M159.83 128.916H160.712" stroke="#8C8C8C" stroke-width="0.5" stroke-miterlimit="10"/>
<path d="M189.737 132.145H187.783V141.831H189.737V132.145Z" fill="#A1A1A1"/>
<path d="M187.566 139.41H185.611V141.832H187.566V139.41Z" fill="black" fill-opacity="0.12"/>
<path d="M185.394 138.926H183.44V141.832H185.394V138.926Z" fill="#A1A1A1"/>
<path d="M183.223 133.759H181.269V141.832H183.223V133.759Z" fill="black" fill-opacity="0.12"/>
<path d="M181.051 136.988H179.097V141.832H181.051V136.988Z" fill="#A1A1A1"/>
<path d="M178.88 137.795H176.926V141.832H178.88V137.795Z" fill="black" fill-opacity="0.12"/>
<path d="M176.709 138.603H174.755V141.832H176.709V138.603Z" fill="#A1A1A1"/>
<path d="M174.538 130.53H172.583V141.832H174.538V130.53Z" fill="black" fill-opacity="0.12"/>
<path d="M172.366 140.217H170.412V141.832H172.366V140.217Z" fill="#A1A1A1"/>
<path d="M170.195 136.988H168.241V141.832H170.195V136.988Z" fill="black" fill-opacity="0.12"/>
<path d="M168.024 133.759H166.07V141.832H168.024V133.759Z" fill="#A1A1A1"/>
<path d="M165.853 135.374H163.898V141.832H165.853V135.374Z" fill="black" fill-opacity="0.12"/>
<path d="M163.681 138.603H161.727V141.832H163.681V138.603Z" fill="#A1A1A1"/>
<path d="M145.833 122.717H192.281" stroke="#8C8C8C" stroke-width="0.5" stroke-miterlimit="10"/>
<path d="M145.833 122.717V122.26" stroke="#8C8C8C" stroke-width="0.5" stroke-miterlimit="10"/>
<path d="M148.278 122.717V122.26" stroke="#8C8C8C" stroke-width="0.5" stroke-miterlimit="10"/>
<path d="M150.723 122.717V122.26" stroke="#8C8C8C" stroke-width="0.5" stroke-miterlimit="10"/>
<path d="M153.167 122.717V122.26" stroke="#8C8C8C" stroke-width="0.5" stroke-miterlimit="10"/>
<path d="M155.612 122.717V122.26" stroke="#8C8C8C" stroke-width="0.5" stroke-miterlimit="10"/>
<path d="M158.057 122.717V122.26" stroke="#8C8C8C" stroke-width="0.5" stroke-miterlimit="10"/>
<path d="M160.501 122.717V122.26" stroke="#8C8C8C" stroke-width="0.5" stroke-miterlimit="10"/>
<path d="M162.946 122.717V122.26" stroke="#8C8C8C" stroke-width="0.5" stroke-miterlimit="10"/>
<path d="M165.39 122.717V122.26" stroke="#8C8C8C" stroke-width="0.5" stroke-miterlimit="10"/>
<path d="M167.834 122.717V122.26" stroke="#8C8C8C" stroke-width="0.5" stroke-miterlimit="10"/>
<path d="M170.279 122.717V122.26" stroke="#8C8C8C" stroke-width="0.5" stroke-miterlimit="10"/>
<path d="M172.724 122.717V122.26" stroke="#8C8C8C" stroke-width="0.5" stroke-miterlimit="10"/>
<path d="M175.168 122.717V122.26" stroke="#8C8C8C" stroke-width="0.5" stroke-miterlimit="10"/>
<path d="M177.613 122.717V122.26" stroke="#8C8C8C" stroke-width="0.5" stroke-miterlimit="10"/>
<path d="M180.058 122.717V122.26" stroke="#8C8C8C" stroke-width="0.5" stroke-miterlimit="10"/>
<path d="M182.502 122.717V122.26" stroke="#8C8C8C" stroke-width="0.5" stroke-miterlimit="10"/>
<path d="M184.947 122.717V122.26" stroke="#8C8C8C" stroke-width="0.5" stroke-miterlimit="10"/>
<path d="M187.392 122.717V122.26" stroke="#8C8C8C" stroke-width="0.5" stroke-miterlimit="10"/>
<path d="M189.836 122.717V122.26" stroke="#8C8C8C" stroke-width="0.5" stroke-miterlimit="10"/>
<path d="M192.281 122.717V122.26" stroke="#8C8C8C" stroke-width="0.5" stroke-miterlimit="10"/>
<path d="M145.833 122.717V104.457" stroke="#8C8C8C" stroke-width="0.5" stroke-miterlimit="10"/>
<path d="M145.833 122.717H146.995" stroke="#8C8C8C" stroke-width="0.5" stroke-miterlimit="10"/>
<path d="M145.833 119.065H146.995" stroke="#8C8C8C" stroke-width="0.5" stroke-miterlimit="10"/>
<path d="M145.833 115.413H146.995" stroke="#8C8C8C" stroke-width="0.5" stroke-miterlimit="10"/>
<path d="M145.833 111.761H146.995" stroke="#8C8C8C" stroke-width="0.5" stroke-miterlimit="10"/>
<path d="M145.833 108.108H146.995" stroke="#8C8C8C" stroke-width="0.5" stroke-miterlimit="10"/>
<path d="M145.833 104.457H146.995" stroke="#8C8C8C" stroke-width="0.5" stroke-miterlimit="10"/>
<path d="M149.501 108.108L147.056 119.065" stroke="#F68B22" stroke-width="2" stroke-miterlimit="10" stroke-linecap="round"/>
<path d="M151.945 114.317L149.5 108.108" stroke="#F68B22" stroke-width="2" stroke-miterlimit="10" stroke-linecap="round"/>
<path d="M154.39 111.761L151.945 114.317" stroke="#F68B22" stroke-width="2" stroke-miterlimit="10" stroke-linecap="round"/>
<path d="M156.834 118.334L154.39 111.761" stroke="#F68B22" stroke-width="2" stroke-miterlimit="10" stroke-linecap="round"/>
<path d="M159.279 108.108L156.834 118.334" stroke="#F68B22" stroke-width="2" stroke-miterlimit="10" stroke-linecap="round"/>
<path d="M161.723 104.457L159.279 108.109" stroke="#F68B22" stroke-width="2" stroke-miterlimit="10" stroke-linecap="round"/>
<path d="M164.168 120.891L161.724 104.457" stroke="#F68B22" stroke-width="2" stroke-miterlimit="10" stroke-linecap="round"/>
<path d="M166.613 119.795L164.168 120.891" stroke="#F68B22" stroke-width="2" stroke-miterlimit="10" stroke-linecap="round"/>
<path d="M169.057 119.43L166.613 119.795" stroke="#F68B22" stroke-width="2" stroke-miterlimit="10" stroke-linecap="round"/>
<path d="M171.502 118.334L169.057 119.43" stroke="#F68B22" stroke-width="2" stroke-miterlimit="10" stroke-linecap="round"/>
<path d="M173.947 116.874L171.502 118.334" stroke="#F68B22" stroke-width="2" stroke-miterlimit="10" stroke-linecap="round"/>
<path d="M176.391 117.604L173.946 116.874" stroke="#F68B22" stroke-width="2" stroke-miterlimit="10" stroke-linecap="round"/>
<path d="M178.836 119.065L176.391 117.604" stroke="#F68B22" stroke-width="2" stroke-miterlimit="10" stroke-linecap="round"/>
<path d="M181.28 111.396L178.835 119.065" stroke="#F68B22" stroke-width="2" stroke-miterlimit="10" stroke-linecap="round"/>
<path d="M183.725 110.3L181.28 111.395" stroke="#F68B22" stroke-width="2" stroke-miterlimit="10" stroke-linecap="round"/>
<path d="M186.169 108.839L183.725 110.3" stroke="#F68B22" stroke-width="2" stroke-miterlimit="10" stroke-linecap="round"/>
<path d="M188.614 110.3L186.169 108.839" stroke="#F68B22" stroke-width="2" stroke-miterlimit="10" stroke-linecap="round"/>
<path d="M191.058 111.761L188.614 110.3" stroke="#F68B22" stroke-width="2" stroke-miterlimit="10" stroke-linecap="round"/>
<path d="M147.056 118.632C147.17 118.632 147.28 118.677 147.361 118.759C147.442 118.84 147.488 118.95 147.488 119.065C147.488 119.122 147.477 119.178 147.455 119.231C147.433 119.283 147.401 119.331 147.361 119.371C147.321 119.411 147.273 119.443 147.221 119.465C147.169 119.487 147.112 119.498 147.056 119.498C146.941 119.498 146.831 119.452 146.75 119.371C146.669 119.29 146.624 119.18 146.624 119.065C146.624 118.95 146.669 118.84 146.75 118.759C146.831 118.678 146.941 118.632 147.056 118.632Z" fill="white" stroke="#F68B22" stroke-linecap="round" stroke-linejoin="round"/>
<path d="M149.501 107.675C149.558 107.675 149.614 107.686 149.666 107.708C149.719 107.73 149.766 107.762 149.806 107.802C149.847 107.842 149.878 107.89 149.9 107.943C149.922 107.995 149.933 108.051 149.933 108.108C149.933 108.223 149.887 108.333 149.806 108.415C149.725 108.496 149.615 108.541 149.501 108.541C149.444 108.541 149.388 108.53 149.336 108.508C149.283 108.487 149.236 108.455 149.195 108.415C149.155 108.374 149.123 108.327 149.102 108.274C149.08 108.222 149.069 108.165 149.069 108.108C149.069 108.051 149.08 107.995 149.102 107.943C149.123 107.89 149.155 107.842 149.195 107.802C149.236 107.762 149.283 107.73 149.336 107.708C149.388 107.686 149.444 107.675 149.501 107.675Z" fill="white" stroke="#F68B22" stroke-linecap="round" stroke-linejoin="round"/>
<path d="M151.945 113.884C152.059 113.884 152.169 113.93 152.25 114.011C152.331 114.092 152.377 114.202 152.377 114.317C152.377 114.374 152.366 114.43 152.344 114.483C152.322 114.536 152.29 114.583 152.25 114.624C152.21 114.664 152.162 114.696 152.11 114.717C152.058 114.739 152.001 114.75 151.945 114.75C151.888 114.75 151.832 114.739 151.779 114.717C151.727 114.696 151.679 114.664 151.639 114.624C151.599 114.583 151.567 114.536 151.546 114.483C151.524 114.43 151.513 114.374 151.513 114.317C151.513 114.202 151.558 114.092 151.639 114.011C151.72 113.93 151.83 113.884 151.945 113.884Z" fill="white" stroke="#F68B22" stroke-linecap="round" stroke-linejoin="round"/>
<path d="M154.389 111.327C154.504 111.327 154.614 111.373 154.695 111.454C154.776 111.535 154.821 111.646 154.821 111.76C154.821 111.875 154.776 111.985 154.695 112.067C154.614 112.148 154.504 112.193 154.389 112.193C154.275 112.193 154.165 112.148 154.084 112.067C154.003 111.985 153.957 111.875 153.957 111.76C153.957 111.645 154.003 111.535 154.084 111.454C154.165 111.373 154.275 111.327 154.389 111.327Z" fill="white" stroke="#F68B22" stroke-linecap="round" stroke-linejoin="round"/>
<path d="M156.834 117.901C156.948 117.901 157.058 117.947 157.139 118.028C157.22 118.109 157.266 118.22 157.266 118.334C157.266 118.449 157.22 118.559 157.139 118.641C157.058 118.722 156.948 118.767 156.834 118.767C156.719 118.767 156.609 118.722 156.528 118.641C156.447 118.559 156.402 118.449 156.402 118.334C156.402 118.22 156.447 118.109 156.528 118.028C156.609 117.947 156.719 117.901 156.834 117.901Z" fill="white" stroke="#F68B22" stroke-linecap="round" stroke-linejoin="round"/>
<path d="M159.279 107.675C159.335 107.675 159.392 107.686 159.444 107.708C159.496 107.73 159.544 107.762 159.584 107.802C159.624 107.842 159.656 107.89 159.678 107.943C159.7 107.995 159.711 108.051 159.711 108.108C159.711 108.223 159.665 108.333 159.584 108.415C159.503 108.496 159.393 108.541 159.279 108.541C159.164 108.541 159.054 108.496 158.973 108.415C158.892 108.333 158.847 108.223 158.847 108.108C158.847 108.051 158.858 107.995 158.88 107.943C158.901 107.89 158.933 107.842 158.973 107.802C159.013 107.762 159.061 107.73 159.113 107.708C159.166 107.686 159.222 107.675 159.279 107.675Z" fill="white" stroke="#F68B22" stroke-linecap="round" stroke-linejoin="round"/>
<path d="M161.723 104.023C161.78 104.023 161.836 104.035 161.889 104.056C161.941 104.078 161.989 104.11 162.029 104.15C162.069 104.19 162.101 104.238 162.122 104.291C162.144 104.343 162.155 104.4 162.155 104.456C162.155 104.513 162.144 104.57 162.122 104.622C162.101 104.675 162.069 104.722 162.029 104.763C161.989 104.803 161.941 104.835 161.889 104.857C161.836 104.878 161.78 104.89 161.723 104.89C161.667 104.89 161.61 104.878 161.558 104.857C161.505 104.835 161.458 104.803 161.418 104.763C161.377 104.723 161.346 104.675 161.324 104.622C161.302 104.57 161.291 104.513 161.291 104.456C161.291 104.4 161.302 104.343 161.324 104.291C161.346 104.238 161.377 104.19 161.418 104.15C161.458 104.11 161.505 104.078 161.558 104.056C161.61 104.035 161.667 104.023 161.723 104.023Z" fill="white" stroke="#F68B22" stroke-linecap="round" stroke-linejoin="round"/>
<path d="M164.168 120.458C164.282 120.458 164.392 120.503 164.473 120.584C164.554 120.666 164.6 120.776 164.6 120.891C164.6 121.005 164.554 121.116 164.473 121.197C164.392 121.278 164.282 121.324 164.168 121.324C164.053 121.324 163.943 121.278 163.862 121.197C163.781 121.116 163.736 121.005 163.736 120.891C163.736 120.776 163.781 120.666 163.862 120.584C163.943 120.503 164.053 120.458 164.168 120.458Z" fill="white" stroke="#F68B22" stroke-linecap="round" stroke-linejoin="round"/>
<path d="M166.612 119.362C166.727 119.362 166.837 119.408 166.918 119.489C166.999 119.57 167.044 119.68 167.044 119.795C167.044 119.91 166.999 120.02 166.918 120.102C166.837 120.183 166.727 120.228 166.612 120.228C166.498 120.228 166.388 120.183 166.307 120.102C166.226 120.02 166.18 119.91 166.18 119.795C166.18 119.68 166.226 119.57 166.307 119.489C166.388 119.408 166.498 119.362 166.612 119.362Z" fill="white" stroke="#F68B22" stroke-linecap="round" stroke-linejoin="round"/>
<path d="M169.057 118.997C169.114 118.997 169.17 119.008 169.222 119.03C169.275 119.052 169.322 119.084 169.363 119.124C169.403 119.164 169.434 119.212 169.456 119.264C169.478 119.317 169.489 119.373 169.489 119.43C169.489 119.545 169.443 119.655 169.362 119.736C169.281 119.817 169.172 119.863 169.057 119.863C168.942 119.863 168.833 119.818 168.752 119.736C168.671 119.655 168.625 119.545 168.625 119.43C168.625 119.315 168.671 119.205 168.752 119.124C168.833 119.043 168.942 118.997 169.057 118.997Z" fill="white" stroke="#F68B22" stroke-linecap="round" stroke-linejoin="round"/>
<path d="M171.501 117.901C171.616 117.901 171.726 117.947 171.807 118.028C171.888 118.109 171.933 118.22 171.933 118.334C171.933 118.449 171.888 118.559 171.807 118.641C171.726 118.722 171.616 118.767 171.501 118.767C171.387 118.767 171.277 118.722 171.196 118.641C171.115 118.559 171.069 118.449 171.069 118.334C171.069 118.22 171.115 118.109 171.196 118.028C171.277 117.947 171.387 117.901 171.501 117.901Z" fill="white" stroke="#F68B22" stroke-linecap="round" stroke-linejoin="round"/>
<path d="M173.946 116.44C174.061 116.44 174.171 116.486 174.252 116.567C174.333 116.648 174.378 116.758 174.378 116.873C174.378 116.988 174.333 117.098 174.252 117.179C174.171 117.26 174.061 117.306 173.946 117.306C173.832 117.306 173.722 117.26 173.641 117.179C173.56 117.098 173.514 116.988 173.514 116.873C173.514 116.758 173.56 116.648 173.641 116.567C173.722 116.486 173.832 116.44 173.946 116.44Z" fill="white" stroke="#F68B22" stroke-linecap="round" stroke-linejoin="round"/>
<path d="M176.392 117.171C176.506 117.171 176.616 117.217 176.697 117.298C176.778 117.379 176.824 117.489 176.824 117.604C176.824 117.661 176.812 117.717 176.791 117.77C176.769 117.822 176.737 117.87 176.697 117.91C176.657 117.95 176.609 117.982 176.557 118.004C176.504 118.026 176.448 118.037 176.392 118.037C176.335 118.037 176.279 118.026 176.226 118.004C176.174 117.982 176.126 117.95 176.086 117.91C176.046 117.87 176.014 117.822 175.992 117.77C175.971 117.717 175.959 117.661 175.959 117.604C175.959 117.489 176.005 117.379 176.086 117.298C176.167 117.217 176.277 117.171 176.392 117.171Z" fill="white" stroke="#F68B22" stroke-linecap="round" stroke-linejoin="round"/>
<path d="M178.835 118.632C178.95 118.632 179.06 118.677 179.141 118.759C179.222 118.84 179.267 118.95 179.267 119.065C179.267 119.18 179.222 119.29 179.141 119.371C179.06 119.452 178.95 119.498 178.835 119.498C178.721 119.498 178.611 119.452 178.53 119.371C178.449 119.29 178.403 119.18 178.403 119.065C178.403 118.95 178.449 118.84 178.53 118.759C178.611 118.678 178.721 118.632 178.835 118.632Z" fill="white" stroke="#F68B22" stroke-linecap="round" stroke-linejoin="round"/>
<path d="M181.28 110.962C181.394 110.962 181.504 111.008 181.585 111.089C181.666 111.17 181.712 111.281 181.712 111.395C181.712 111.51 181.666 111.62 181.585 111.702C181.504 111.783 181.394 111.828 181.28 111.828C181.165 111.828 181.055 111.783 180.974 111.702C180.893 111.62 180.848 111.51 180.848 111.395C180.848 111.281 180.893 111.17 180.974 111.089C181.055 111.008 181.165 110.962 181.28 110.962Z" fill="white" stroke="#F68B22" stroke-linecap="round" stroke-linejoin="round"/>
<path d="M183.725 109.867C183.839 109.867 183.949 109.912 184.03 109.994C184.111 110.075 184.157 110.185 184.157 110.3C184.157 110.357 184.145 110.413 184.124 110.465C184.102 110.518 184.07 110.566 184.03 110.606C183.99 110.646 183.942 110.678 183.89 110.7C183.837 110.722 183.781 110.733 183.725 110.733C183.61 110.733 183.5 110.687 183.419 110.606C183.338 110.525 183.292 110.415 183.292 110.3C183.292 110.185 183.338 110.075 183.419 109.994C183.5 109.912 183.61 109.867 183.725 109.867Z" fill="white" stroke="#F68B22" stroke-linecap="round" stroke-linejoin="round"/>
<path d="M186.169 108.406C186.283 108.406 186.393 108.451 186.474 108.533C186.555 108.614 186.601 108.724 186.601 108.839C186.601 108.954 186.555 109.064 186.474 109.145C186.393 109.226 186.283 109.272 186.169 109.272C186.054 109.272 185.944 109.226 185.863 109.145C185.782 109.064 185.737 108.954 185.737 108.839C185.737 108.724 185.782 108.614 185.863 108.533C185.944 108.451 186.054 108.406 186.169 108.406Z" fill="white" stroke="#F68B22" stroke-linecap="round" stroke-linejoin="round"/>
<path d="M188.614 109.867C188.728 109.867 188.838 109.912 188.919 109.994C189 110.075 189.046 110.185 189.046 110.3C189.046 110.357 189.035 110.413 189.013 110.465C188.991 110.518 188.959 110.566 188.919 110.606C188.879 110.646 188.831 110.678 188.779 110.7C188.727 110.722 188.67 110.733 188.614 110.733C188.557 110.733 188.501 110.722 188.448 110.7C188.396 110.678 188.348 110.646 188.308 110.606C188.268 110.566 188.236 110.518 188.215 110.465C188.193 110.413 188.182 110.357 188.182 110.3C188.182 110.185 188.227 110.075 188.308 109.994C188.389 109.912 188.499 109.867 188.614 109.867Z" fill="white" stroke="#F68B22" stroke-linecap="round" stroke-linejoin="round"/>
<path d="M191.058 111.327C191.173 111.327 191.283 111.373 191.364 111.454C191.445 111.535 191.49 111.646 191.49 111.76C191.49 111.875 191.444 111.985 191.363 112.067C191.282 112.148 191.173 112.193 191.058 112.193C190.943 112.193 190.834 112.148 190.753 112.067C190.671 111.985 190.626 111.875 190.626 111.76C190.626 111.704 190.637 111.647 190.659 111.595C190.681 111.542 190.712 111.494 190.752 111.454C190.793 111.414 190.84 111.382 190.893 111.36C190.945 111.338 191.001 111.327 191.058 111.327Z" fill="white" stroke="#F68B22" stroke-linecap="round" stroke-linejoin="round"/>
<path d="M195.271 94.9858H193.674V146.33H195.271V94.9858Z" fill="#DBDBDB"/>
<path d="M195.271 124.571H193.674V137.65H195.271V124.571Z" fill="black" fill-opacity="0.12"/>
<path d="M195.272 94.9858H133.449V98.129H195.272V94.9858Z" fill="black" fill-opacity="0.12"/>
<path d="M177.263 95.522H137.516V97.2956H177.263V95.522Z" fill="#EDEDED"/>
<path d="M136.556 104.58H142.235" stroke="black" stroke-linecap="round" stroke-linejoin="round"/>
<path d="M135.492 105.077C135.787 105.077 136.026 104.837 136.026 104.541C136.026 104.245 135.787 104.005 135.492 104.005C135.196 104.005 134.957 104.245 134.957 104.541C134.957 104.837 135.196 105.077 135.492 105.077Z" stroke="black" stroke-linecap="round" stroke-linejoin="round"/>
<path d="M136.556 108.01H142.235" stroke="black" stroke-linecap="round" stroke-linejoin="round"/>
<path d="M135.492 108.507C135.787 108.507 136.026 108.267 136.026 107.971C136.026 107.675 135.787 107.436 135.492 107.436C135.196 107.436 134.957 107.675 134.957 107.971C134.957 108.267 135.196 108.507 135.492 108.507Z" stroke="black" stroke-linecap="round" stroke-linejoin="round"/>
<path d="M136.556 111.44H142.235" stroke="black" stroke-linecap="round" stroke-linejoin="round"/>
<path d="M135.492 111.937C135.787 111.937 136.026 111.697 136.026 111.401C136.026 111.106 135.787 110.866 135.492 110.866C135.196 110.866 134.957 111.106 134.957 111.401C134.957 111.697 135.196 111.937 135.492 111.937Z" stroke="black" stroke-linecap="round" stroke-linejoin="round"/>
<path d="M136.556 114.87H142.235" stroke="black" stroke-linecap="round" stroke-linejoin="round"/>
<path d="M136.026 114.831C136.026 114.725 135.995 114.622 135.936 114.534C135.877 114.445 135.794 114.377 135.696 114.336C135.598 114.296 135.491 114.285 135.387 114.306C135.284 114.326 135.188 114.377 135.114 114.452C135.039 114.527 134.988 114.623 134.967 114.727C134.947 114.831 134.957 114.938 134.998 115.036C135.038 115.134 135.107 115.218 135.195 115.277C135.283 115.336 135.386 115.367 135.492 115.367C135.633 115.367 135.769 115.31 135.87 115.21C135.97 115.11 136.026 114.973 136.026 114.831V114.831Z" stroke="black" stroke-linecap="round" stroke-linejoin="round"/>
<path d="M136.556 118.3H142.235" stroke="black" stroke-linecap="round" stroke-linejoin="round"/>
<path d="M135.492 118.797C135.787 118.797 136.026 118.557 136.026 118.261C136.026 117.965 135.787 117.726 135.492 117.726C135.196 117.726 134.957 117.965 134.957 118.261C134.957 118.557 135.196 118.797 135.492 118.797Z" stroke="black" stroke-linecap="round" stroke-linejoin="round"/>
<path d="M151.454 137.015L147.725 140.5C147.268 140.01 146.912 139.434 146.678 138.805C146.443 138.176 146.335 137.508 146.358 136.837C146.381 136.167 146.536 135.507 146.814 134.896C147.092 134.286 147.487 133.736 147.976 133.278C148.91 132.38 150.159 131.886 151.453 131.906L151.454 137.015Z" fill="#A1A1A1"/>
<path d="M151.454 137.015L156.036 134.775C156.571 135.875 156.695 137.132 156.384 138.316C156.073 139.5 155.348 140.533 154.341 141.227C153.335 141.92 152.113 142.228 150.898 142.095C149.684 141.961 148.558 141.395 147.725 140.5L151.454 137.015Z" fill="#F68B22"/>
<path d="M151.454 137.015V131.905C152.413 131.885 153.358 132.145 154.172 132.655C154.986 133.165 155.633 133.901 156.036 134.775L151.454 137.015Z" fill="black" fill-opacity="0.12"/>
</g>
<path d="M159.485 56.0645H137.824V73.6676H159.485V56.0645Z" fill="#F2F2F2"/>
<path d="M159.485 56.0645H137.824V59.9911H159.485V56.0645Z" fill="#F68B22"/>
<path d="M157.76 61.4155H139.551V63.7022H157.76V61.4155Z" fill="#E0E0E0"/>
<path d="M152.84 65.4268H139.551V66.2043H152.84V65.4268Z" fill="#E0E0E0"/>
<path d="M148.18 66.7637H139.551V67.5412H148.18V66.7637Z" fill="#E0E0E0"/>
<path d="M150.941 68.1006H139.551V68.8782H150.941V68.1006Z" fill="#E0E0E0"/>
<path d="M152.84 69.4404H139.551V70.218H152.84V69.4404Z" fill="#E0E0E0"/>
<path d="M143.996 70.7778H139.551V71.5554H143.996V70.7778Z" fill="#E0E0E0"/>
<g filter="url(#filter0_d_40_8174)">
<rect x="168.027" y="68.79" width="31.4353" height="31.4353" fill="#EBEBEB"/>
<path d="M183.73 84.4943L174.161 93.4162C172.99 92.1598 172.077 90.6849 171.475 89.0758C170.874 87.4667 170.595 85.7548 170.655 84.0379C170.715 82.321 171.112 80.6328 171.825 79.0695C172.537 77.5063 173.551 76.0986 174.807 74.927C177.202 72.6262 180.408 71.3634 183.729 71.413L183.73 84.4943Z" fill="#A1A1A1"/>
<path d="M183.73 84.4936L195.488 78.7593C196.862 81.5767 197.18 84.794 196.382 87.8256C195.584 90.8571 193.724 93.5013 191.14 95.2769C188.557 97.0524 185.421 97.8411 182.305 97.4995C179.189 97.1578 176.299 95.7086 174.162 93.4155L183.73 84.4936Z" fill="#F68B22"/>
<path d="M183.73 84.4938V71.4125C186.192 71.3604 188.616 72.0278 190.704 73.3328C192.793 74.6378 194.455 76.5237 195.488 78.7595L183.73 84.4938Z" fill="black" fill-opacity="0.12"/>
</g>
<defs>
<filter id="filter0_d_40_8174" x="164.027" y="68.79" width="39.4355" height="39.4355" filterUnits="userSpaceOnUse" color-interpolation-filters="sRGB">
<feFlood flood-opacity="0" result="BackgroundImageFix"/>
<feColorMatrix in="SourceAlpha" type="matrix" values="0 0 0 0 0 0 0 0 0 0 0 0 0 0 0 0 0 0 127 0" result="hardAlpha"/>
<feOffset dy="4"/>
<feGaussianBlur stdDeviation="2"/>
<feComposite in2="hardAlpha" operator="out"/>
<feColorMatrix type="matrix" values="0 0 0 0 0 0 0 0 0 0 0 0 0 0 0 0 0 0 0.25 0"/>
<feBlend mode="normal" in2="BackgroundImageFix" result="effect1_dropShadow_40_8174"/>
<feBlend mode="normal" in="SourceGraphic" in2="effect1_dropShadow_40_8174" result="shape"/>
</filter>
<clipPath id="clip0_40_8174">
<rect width="61.8228" height="51.3444" fill="white" transform="translate(133.449 94.9858)"/>
</clipPath>
</defs>
</svg>
