<svg width="312" height="278" viewBox="0 0 312 278" fill="none" xmlns="http://www.w3.org/2000/svg">
<path fill-rule="evenodd" clip-rule="evenodd" d="M79.7133 273.47C73.1668 272.054 -5.48502 259.298 0.304318 165.229C6.09365 71.1596 13.3616 42.8704 43.9398 32.5183C74.518 22.1663 148.85 -26.8066 207.179 19.7612C243.228 48.5397 300.661 107.961 305.022 122.685C309.383 137.408 318.493 165.659 303.47 182.449C264.144 226.402 274.404 281.605 209.237 277.815C144.07 274.025 110.84 280.204 79.7121 273.469" fill="#F9F9F9"/>
<path d="M206.122 91.5906L143.268 76.4517V194.921L206.122 178.468V91.5906Z" fill="#D8D8D8"/>
<path d="M80.416 91.5906L143.268 76.4517V194.921L80.416 178.795V91.5906Z" fill="#D8D8D8"/>
<path d="M80.4155 91.5908V178.796L143.268 194.922L144.116 108.374L80.4155 91.5908Z" fill="#F5F5F5"/>
<path d="M206.122 178.468L143.268 194.922V108.374L206.122 91.5908V178.468Z" fill="#E8E8E8"/>
<path opacity="0.07" d="M181.112 149.51V178.138L206.122 171.229V142.598L181.112 149.51Z" fill="black"/>
<path d="M148.898 218.089C197.666 218.089 237.201 214.146 237.201 209.281C237.201 204.416 197.666 200.473 148.898 200.473C100.13 200.473 60.5952 204.416 60.5952 209.281C60.5952 214.146 100.13 218.089 148.898 218.089Z" fill="black" fill-opacity="0.12"/>
<path fill-rule="evenodd" clip-rule="evenodd" d="M43.166 226.589H54.8359V131.28H43.166V226.589Z" fill="#F9F9F9"/>
<path fill-rule="evenodd" clip-rule="evenodd" d="M43.166 226.262C43.166 227.604 45.7789 228.693 48.999 228.693C52.219 228.693 54.8319 227.604 54.8319 226.262H43.166Z" fill="#F9F9F9"/>
<path fill-rule="evenodd" clip-rule="evenodd" d="M42.5548 134.648V222.464C42.4707 223.656 42.4707 224.853 42.5548 226.046C42.5589 226.1 42.5589 226.155 42.5548 226.209C42.5548 226.832 43.7763 226.647 43.7763 226.113V138.299C43.8604 137.106 43.8604 135.909 43.7763 134.716C43.7725 134.662 43.7725 134.608 43.7763 134.554C43.7763 133.931 42.5548 134.115 42.5548 134.649V134.648ZM55.4467 134.837V131.232C55.4467 130.92 55.1528 130.844 54.8906 130.844H43.2207C42.5372 130.844 42.2909 131.714 43.1109 131.714H54.7824L54.2269 131.327V134.932C54.2269 135.555 55.4484 135.37 55.4484 134.836L55.4467 134.837ZM55.4484 226.113V141.969C55.53 140.834 55.53 139.694 55.4484 138.559C55.4442 138.507 55.4442 138.454 55.4484 138.402C55.4484 137.779 54.2263 137.964 54.2263 138.497V222.643C54.1443 223.778 54.1443 224.917 54.2263 226.051C54.2305 226.104 54.2305 226.157 54.2263 226.209C54.2263 226.832 55.4478 226.647 55.4478 226.113" fill="#CCCCCC"/>
<path fill-rule="evenodd" clip-rule="evenodd" d="M42.5634 226.554C42.7299 228.352 45.43 228.926 46.8305 229.135C49.1948 229.49 51.9273 229.335 54.0577 228.158C54.7735 227.761 54.1285 227.069 53.5129 227.409C51.7761 228.367 49.5907 228.501 47.6556 228.279C46.4902 228.144 43.9129 227.775 43.7696 226.23C43.7164 225.654 42.5073 225.947 42.5634 226.553" fill="#CCCCCC"/>
<path fill-rule="evenodd" clip-rule="evenodd" d="M43.166 131.342C43.166 132.685 45.7789 133.773 48.999 133.773C52.219 133.773 54.8319 132.685 54.8319 131.342C54.8319 130 52.2201 128.911 48.999 128.911C45.7778 128.911 43.166 130 43.166 131.342Z" fill="white"/>
<path fill-rule="evenodd" clip-rule="evenodd" d="M42.5627 131.504C42.8017 134.087 47.6215 134.288 49.4076 134.226C51.0318 134.17 55.5022 133.685 55.4422 131.241C55.3816 128.75 50.7 128.449 49.048 128.451C47.1996 128.451 42.7904 128.826 42.5537 131.383C42.497 132.024 43.7259 131.873 43.7786 131.301C43.9451 129.497 47.6917 129.369 48.9523 129.372C50.0912 129.375 54.3277 129.614 54.1991 131.476C54.0757 133.28 49.8556 133.338 48.676 133.299C47.3412 133.257 43.9394 133.016 43.7695 131.18C43.7163 130.604 42.5072 130.897 42.5633 131.503L42.5627 131.504ZM57.4713 137.504C57.751 142.497 66.864 142.37 66.9235 137.42C66.984 132.389 57.7459 132.594 57.4713 137.504C57.4356 138.145 58.6633 137.986 58.695 137.42C58.9063 133.644 65.6266 133.78 65.6991 137.504C65.7739 141.309 58.9034 141.114 58.695 137.42C58.6594 136.773 57.4395 136.946 57.4713 137.504Z" fill="#CCCCCC"/>
<path fill-rule="evenodd" clip-rule="evenodd" d="M57.4604 137.011H55.4376C55.172 137.011 54.8022 137.216 54.7739 137.505C54.7433 137.822 55.0921 137.911 55.3351 137.911H57.3585C57.6235 137.911 57.9927 137.706 58.021 137.417C58.0516 137.101 57.7028 137.01 57.461 137.01" fill="#CCCCCC"/>
<path fill-rule="evenodd" clip-rule="evenodd" d="M231.319 226.589H242.989V131.28H231.319V226.589Z" fill="#F9F9F9"/>
<path fill-rule="evenodd" clip-rule="evenodd" d="M242.988 226.262C242.988 227.604 240.375 228.693 237.155 228.693C233.935 228.693 231.322 227.604 231.322 226.262H242.988Z" fill="#F9F9F9"/>
<path fill-rule="evenodd" clip-rule="evenodd" d="M242.379 134.648V222.464C242.295 223.656 242.295 224.853 242.379 226.046C242.383 226.1 242.383 226.154 242.379 226.209C242.379 226.832 243.599 226.647 243.599 226.113V138.298C243.684 137.106 243.684 135.909 243.599 134.716C243.595 134.662 243.595 134.608 243.599 134.553C243.599 133.931 242.379 134.115 242.379 134.649V134.648ZM231.93 134.837V131.232L231.264 131.715H242.934C243.618 131.715 243.863 130.845 243.043 130.845H231.374C231.141 130.845 230.708 131.047 230.708 131.328V134.933C230.708 135.556 231.929 135.371 231.929 134.837L231.93 134.837ZM231.929 226.114V141.969C232.012 140.834 232.012 139.694 231.929 138.559C231.925 138.507 231.925 138.454 231.929 138.401C231.929 137.779 230.709 137.964 230.709 138.497V222.643C230.626 223.777 230.626 224.917 230.709 226.051C230.713 226.104 230.713 226.157 230.709 226.209C230.709 226.832 231.929 226.646 231.929 226.112" fill="#CCCCCC"/>
<path fill-rule="evenodd" clip-rule="evenodd" d="M242.376 226.433C242.237 227.931 239.398 228.228 238.322 228.315C236.51 228.463 234.457 228.322 232.831 227.424C232.348 227.159 231.306 227.81 231.907 228.141C234.116 229.361 236.911 229.506 239.358 229.095C240.828 228.85 243.429 228.201 243.6 226.351C243.66 225.71 242.428 225.86 242.375 226.433" fill="#CCCCCC"/>
<path fill-rule="evenodd" clip-rule="evenodd" d="M242.988 131.342C242.988 132.685 240.375 133.773 237.155 133.773C233.935 133.773 231.322 132.685 231.322 131.342C231.322 130 233.934 128.911 237.155 128.911C240.376 128.911 242.988 130 242.988 131.342Z" fill="white"/>
<path fill-rule="evenodd" clip-rule="evenodd" d="M242.376 131.383C242.21 133.187 238.463 133.315 237.202 133.312C236.062 133.308 231.827 133.069 231.954 131.208C232.078 129.404 236.299 129.345 237.479 129.384C238.813 129.427 242.215 129.667 242.385 131.503C242.438 132.079 243.648 131.787 243.591 131.181C243.354 128.597 238.533 128.397 236.747 128.458C235.123 128.514 230.652 128.999 230.712 131.443C230.773 133.935 235.454 134.235 237.106 134.234C238.954 134.234 243.364 133.859 243.6 131.301C243.661 130.66 242.429 130.811 242.377 131.383H242.376ZM226.74 137.503C226.528 141.278 219.809 141.142 219.736 137.42C219.662 133.615 226.532 133.808 226.74 137.503C226.776 138.15 227.996 137.976 227.964 137.42C227.684 132.424 218.571 132.552 218.512 137.503C218.451 142.533 227.69 142.328 227.964 137.42C228 136.777 226.772 136.937 226.74 137.503Z" fill="#CCCCCC"/>
<path fill-rule="evenodd" clip-rule="evenodd" d="M227.976 137.912H229.999C230.265 137.912 230.634 137.707 230.663 137.418C230.693 137.101 230.344 137.011 230.103 137.011H228.079C227.814 137.011 227.444 137.216 227.415 137.505C227.385 137.822 227.734 137.911 227.976 137.911" fill="#CCCCCC"/>
<path fill-rule="evenodd" clip-rule="evenodd" d="M142.481 154.768C141.174 154.789 139.871 154.8 138.573 154.801C132.525 154.801 126.574 154.561 120.72 154.082C100.538 152.425 81.6346 147.885 64.5322 140.588C63.9381 140.318 63.471 139.829 63.2275 139.223C62.984 138.617 62.9827 137.941 63.224 137.334C63.3302 137.036 63.496 136.763 63.7112 136.53C63.9264 136.298 64.1865 136.112 64.4759 135.983C64.7652 135.855 65.0777 135.786 65.3943 135.782C65.7109 135.778 66.0251 135.838 66.3177 135.959C92.4079 147.091 119.459 150.111 142.486 149.742L142.481 154.767" fill="#EF8F7F"/>
<path fill-rule="evenodd" clip-rule="evenodd" d="M142.481 153.517C141.174 153.538 139.871 153.549 138.573 153.55C132.525 153.55 126.574 153.31 120.72 152.831C100.538 151.176 81.6346 146.637 64.5322 139.34C63.3163 138.821 62.7302 138.613 63.224 137.335C63.3302 137.037 63.496 136.763 63.7112 136.531C63.9264 136.299 64.1865 136.112 64.4759 135.984C64.7652 135.855 65.0777 135.787 65.3943 135.782C65.7109 135.778 66.0251 135.838 66.3177 135.959C92.4079 147.091 119.459 150.112 142.486 149.742L142.481 153.519" fill="#F68B22"/>
<path fill-rule="evenodd" clip-rule="evenodd" d="M129.971 154.34C131.596 152.577 133.536 151.134 135.691 150.085C136.436 149.72 135.762 149.207 135.188 149.488C132.852 150.614 130.749 152.167 128.985 154.067C128.488 154.607 129.654 154.684 129.973 154.34" fill="#EF8F7F"/>
<path fill-rule="evenodd" clip-rule="evenodd" d="M125.376 149.779C131.052 150.116 136.734 150.237 142.422 150.143C143.079 150.133 143.376 149.33 142.551 149.342C136.969 149.427 131.391 149.305 125.816 148.976C125.275 148.944 124.563 149.73 125.379 149.779H125.376ZM117.535 153.372C102.341 151.923 87.388 148.582 73.0231 143.425C71.3767 142.824 69.7401 142.198 68.1133 141.546C66.5843 140.931 63.9226 140.418 63.6808 138.47C63.6133 138.039 63.6808 137.599 63.8739 137.208C64.0671 136.817 64.3765 136.496 64.7596 136.289C65.6827 135.906 66.9337 136.748 67.7542 137.086C69.6827 137.879 71.627 138.634 73.5872 139.351C80.9172 142.022 88.4239 144.181 96.0531 145.813C104.066 147.523 112.178 148.724 120.342 149.411C120.886 149.457 121.595 148.675 120.78 148.607C104.146 147.178 87.6633 143.742 72.0548 137.757C71.0807 137.382 70.1093 136.999 69.1406 136.606C68.2019 136.135 67.2242 135.746 66.2184 135.444C65.6874 135.336 65.1375 135.363 64.6196 135.522C64.1016 135.682 63.6322 135.97 63.2544 136.358C62.8338 136.803 62.5637 137.369 62.4824 137.975C62.4011 138.582 62.5127 139.199 62.8013 139.739C63.5234 141.056 65.3055 141.444 66.5956 141.97C74.0561 144.999 81.7224 147.494 89.5366 149.436C98.5992 151.679 107.812 153.263 117.104 154.174C117.647 154.227 118.354 153.452 117.541 153.37L117.535 153.372ZM142.553 154.366C135.342 154.479 128.14 154.25 120.946 153.678C120.403 153.634 119.694 154.414 120.508 154.482C127.8 155.072 135.111 155.282 142.424 155.167C143.081 155.157 143.379 154.353 142.553 154.366" fill="#CCCCCC"/>
<path fill-rule="evenodd" clip-rule="evenodd" d="M164.096 214.998H122.058C119.607 214.998 117.256 214.024 115.523 212.291C113.79 210.558 112.817 208.207 112.816 205.756V171.188H173.337V205.756C173.337 208.207 172.364 210.558 170.63 212.291C168.897 214.024 166.547 214.998 164.096 214.998Z" fill="#DBDBDB"/>
<path fill-rule="evenodd" clip-rule="evenodd" d="M164.096 212.315H124.593C122.142 212.314 119.791 211.341 118.058 209.607C116.325 207.874 115.352 205.523 115.352 203.072V171.189H173.338V203.072C173.338 205.523 172.364 207.874 170.631 209.607C168.898 211.34 166.547 212.314 164.096 212.314" fill="#EFEFEF"/>
<path fill-rule="evenodd" clip-rule="evenodd" d="M164.311 214.585H127.889C126.07 214.585 124.25 214.597 122.43 214.585C120.061 214.587 117.788 213.656 116.102 211.992C114.416 210.328 113.454 208.067 113.425 205.699C113.342 200.44 113.425 195.172 113.425 189.912V171.134L112.601 171.6H173.122L172.725 171.242V205.228C172.725 210.225 169.398 214.489 164.155 214.586C163.49 214.598 163.208 215.425 164.031 215.409C166.619 215.39 169.099 214.368 170.948 212.557C172.796 210.746 173.87 208.288 173.942 205.701C173.968 203.994 173.942 202.285 173.942 200.578V171.134C173.94 171.084 173.928 171.036 173.908 170.991C173.887 170.946 173.857 170.906 173.821 170.872C173.784 170.839 173.741 170.813 173.694 170.797C173.648 170.78 173.598 170.773 173.549 170.776H113.033C112.791 170.776 112.209 170.884 112.209 171.242C112.209 182.701 112.14 194.163 112.209 205.621C112.187 207.765 112.876 209.857 114.169 211.568C115.462 213.28 117.286 214.514 119.355 215.078C121.154 215.549 123.093 215.407 124.933 215.407H163.882C164.426 215.407 165.128 214.583 164.313 214.583" fill="#CCCCCC"/>
<path fill-rule="evenodd" clip-rule="evenodd" d="M143.077 139.407C135.906 139.407 129.029 142.256 123.959 147.327C118.888 152.397 116.04 159.274 116.04 166.445V170.975H123.84V166.643C123.867 161.558 125.906 156.692 129.511 153.106C133.116 149.521 137.994 147.508 143.078 147.508C148.162 147.508 153.04 149.521 156.645 153.106C160.25 156.692 162.289 161.558 162.316 166.643V170.975H170.116V166.445C170.116 159.274 167.267 152.397 162.197 147.327C157.126 142.256 150.249 139.407 143.078 139.407" fill="#DBDBDB"/>
<path fill-rule="evenodd" clip-rule="evenodd" d="M167.433 154.37C165.68 154.649 163.941 155.003 162.178 155.177C164.128 158.004 165.175 161.357 165.179 164.791V165.93C165.179 166.311 165.254 166.688 165.4 167.04C165.546 167.392 165.759 167.711 166.029 167.98C166.298 168.25 166.618 168.463 166.97 168.609C167.321 168.754 167.699 168.829 168.079 168.829H170.117V164.604C170.08 161.024 169.159 157.508 167.435 154.37H167.433ZM160.479 151.784C162.142 151.711 163.798 151.508 165.43 151.177C160.296 144.105 151.989 139.407 145.942 139.407C131.01 139.407 118.905 150.689 118.905 164.605V165.651C118.905 166.069 118.987 166.482 119.146 166.868C119.306 167.253 119.54 167.604 119.835 167.899C120.13 168.194 120.48 168.428 120.866 168.588C121.251 168.747 121.664 168.83 122.082 168.83H123.837V164.791C123.837 154.889 135.315 146.862 145.941 146.862C150.96 146.829 155.806 148.694 159.509 152.082C159.794 151.887 160.132 151.783 160.477 151.784" fill="#EFEFEF"/>
<path fill-rule="evenodd" clip-rule="evenodd" d="M163.018 147.345C159.598 143.864 155.323 141.343 150.621 140.037C145.919 138.731 140.956 138.685 136.23 139.903C131.505 141.122 127.183 143.563 123.7 146.98C120.216 150.398 117.693 154.672 116.383 159.373C115.335 163.215 115.433 167.101 115.433 171.039C115.435 171.086 115.447 171.132 115.468 171.174C115.489 171.217 115.518 171.254 115.554 171.285C115.59 171.315 115.632 171.338 115.677 171.352C115.722 171.366 115.77 171.37 115.817 171.365H123.616C123.839 171.365 124.445 171.255 124.445 170.915C124.445 168.903 124.343 166.857 124.522 164.851C124.836 161.341 126.122 157.987 128.235 155.167C130.638 152.007 133.991 149.701 137.8 148.585C141.61 147.469 145.677 147.603 149.405 148.966C149.847 149.124 150.818 148.485 150.124 148.237C147.109 147.155 143.881 146.8 140.703 147.2C137.524 147.6 134.485 148.744 131.832 150.539C129.417 152.191 127.399 154.359 125.922 156.885C124.445 159.412 123.548 162.234 123.293 165.149C123.137 167.101 123.229 169.087 123.229 171.042L124.06 170.594H116.262L116.646 170.919C116.646 168.144 116.524 165.333 116.912 162.576C117.542 158.137 119.278 153.927 121.961 150.335C124.733 146.65 128.423 143.756 132.662 141.941C136.901 140.126 141.542 139.455 146.122 139.993C152.118 140.755 157.681 143.523 161.905 147.847C162.24 148.187 163.387 147.722 163.017 147.348L163.018 147.345ZM158.186 155.729C160.446 158.948 161.675 162.778 161.708 166.711C161.723 168.155 161.708 169.599 161.708 171.043C161.711 171.09 161.723 171.137 161.744 171.179C161.765 171.221 161.794 171.259 161.83 171.289C161.866 171.32 161.908 171.343 161.953 171.356C161.998 171.37 162.046 171.375 162.093 171.369H169.892C170.116 171.369 170.721 171.26 170.721 170.92C170.721 169.261 170.745 167.598 170.718 165.939C170.647 161.872 169.679 157.871 167.883 154.221C167.656 153.756 166.471 154.124 166.677 154.544C168.51 158.268 169.478 162.359 169.508 166.51C169.519 168.021 169.508 169.532 169.508 171.04L170.338 170.592H162.538L162.922 170.918C162.922 169.19 162.974 167.454 162.904 165.728C162.734 161.955 161.483 158.31 159.3 155.228C159.031 154.843 157.867 155.271 158.186 155.727" fill="#CCCCCC"/>
<path fill-rule="evenodd" clip-rule="evenodd" d="M142.486 149.743C151.822 149.584 161.142 148.885 170.398 147.65C199.397 143.796 219.707 136.009 219.908 135.93C220.205 135.82 220.522 135.77 220.838 135.785C221.155 135.8 221.465 135.879 221.75 136.017C222.035 136.156 222.289 136.35 222.497 136.589C222.705 136.829 222.862 137.107 222.959 137.409C223.182 138.022 223.161 138.697 222.899 139.295C222.637 139.892 222.155 140.366 221.553 140.617C221.348 140.697 200.628 148.654 171.122 152.59C161.625 153.867 152.062 154.594 142.48 154.768L142.486 149.743Z" fill="#EF8F7F"/>
<path fill-rule="evenodd" clip-rule="evenodd" d="M142.486 149.743C151.822 149.584 161.142 148.885 170.398 147.65C199.397 143.796 219.707 136.009 219.908 135.93C220.205 135.82 220.522 135.77 220.838 135.785C221.155 135.8 221.465 135.879 221.75 136.017C222.035 136.156 222.289 136.35 222.497 136.589C222.705 136.829 222.862 137.107 222.959 137.409C223.412 138.703 222.784 138.891 221.553 139.368C221.348 139.448 200.628 147.404 171.122 151.341C161.625 152.617 152.062 153.345 142.48 153.519L142.486 149.742" fill="#F68B22"/>
<path fill-rule="evenodd" clip-rule="evenodd" d="M142.422 150.143C167.311 149.746 191.999 145.595 215.649 137.829C217.122 137.34 218.638 136.583 220.15 136.25C222.711 135.683 223.203 139.467 221.083 140.384C220.431 140.667 219.735 140.875 219.065 141.108C210.618 143.997 202.009 146.389 193.282 148.272C176.615 151.989 159.618 154.03 142.544 154.367C141.888 154.379 141.59 155.183 142.415 155.168C158.381 154.849 174.282 153.044 189.913 149.778C199.648 147.81 209.249 145.232 218.659 142.058C220.312 141.491 222.799 141.032 223.513 139.217C224.467 136.795 222.063 134.861 219.808 135.559C219.375 135.694 218.952 135.878 218.524 136.031C210.315 138.906 201.938 141.277 193.441 143.131C178.72 146.481 163.728 148.499 148.646 149.163C146.614 149.249 144.582 149.308 142.548 149.342C141.892 149.354 141.594 150.158 142.419 150.142" fill="#CCCCCC"/>
<path d="M161.717 186.979H124.444C122.605 186.979 121.114 188.47 121.114 190.308V193.194C121.114 195.032 122.605 196.523 124.444 196.523H161.717C163.556 196.523 165.046 195.032 165.046 193.194V190.308C165.046 188.47 163.556 186.979 161.717 186.979Z" fill="#4D4D4D"/>
<path d="M129.11 192.063L128.569 191.751L129.111 191.438C129.257 191.353 129.364 191.214 129.407 191.052C129.451 190.889 129.428 190.715 129.344 190.569C129.26 190.423 129.121 190.316 128.958 190.272C128.795 190.229 128.621 190.251 128.475 190.336L127.934 190.648V190.025C127.934 189.857 127.867 189.695 127.747 189.575C127.628 189.456 127.466 189.389 127.297 189.389C127.129 189.389 126.967 189.456 126.847 189.575C126.728 189.695 126.661 189.857 126.661 190.025V190.648L126.12 190.335C126.047 190.293 125.967 190.266 125.885 190.255C125.802 190.245 125.718 190.25 125.637 190.272C125.556 190.293 125.481 190.331 125.414 190.382C125.348 190.432 125.292 190.496 125.251 190.568C125.209 190.641 125.182 190.72 125.171 190.803C125.16 190.886 125.166 190.97 125.187 191.051C125.209 191.132 125.246 191.207 125.297 191.274C125.348 191.34 125.411 191.395 125.484 191.437L126.025 191.75L125.484 192.062C125.412 192.104 125.349 192.159 125.298 192.225C125.247 192.292 125.209 192.367 125.188 192.448C125.166 192.529 125.161 192.613 125.172 192.696C125.182 192.779 125.209 192.858 125.251 192.931C125.293 193.003 125.349 193.067 125.415 193.117C125.481 193.168 125.557 193.206 125.637 193.227C125.718 193.249 125.802 193.254 125.885 193.244C125.968 193.233 126.048 193.206 126.12 193.164L126.662 192.852V193.475C126.662 193.643 126.729 193.805 126.848 193.925C126.967 194.044 127.129 194.111 127.298 194.111C127.467 194.111 127.628 194.044 127.748 193.925C127.867 193.805 127.934 193.643 127.934 193.475V192.852L128.475 193.164C128.621 193.245 128.793 193.266 128.954 193.221C129.114 193.176 129.251 193.07 129.335 192.926C129.418 192.781 129.441 192.609 129.399 192.448C129.358 192.286 129.254 192.148 129.111 192.062L129.11 192.063Z" fill="white"/>
<path d="M137.002 192.064L136.461 191.752L137.003 191.439C137.149 191.354 137.255 191.215 137.299 191.052C137.343 190.89 137.32 190.716 137.236 190.57C137.151 190.424 137.012 190.317 136.849 190.273C136.686 190.23 136.513 190.252 136.367 190.337L135.825 190.649V190.026C135.825 189.858 135.758 189.696 135.639 189.576C135.52 189.457 135.358 189.39 135.189 189.39C135.02 189.39 134.858 189.457 134.739 189.576C134.62 189.696 134.553 189.858 134.553 190.026V190.649L134.011 190.336C133.938 190.294 133.859 190.267 133.776 190.256C133.693 190.246 133.609 190.251 133.528 190.273C133.447 190.294 133.372 190.332 133.305 190.383C133.239 190.433 133.184 190.497 133.142 190.569C133.1 190.642 133.073 190.721 133.062 190.804C133.051 190.887 133.057 190.971 133.078 191.052C133.1 191.133 133.137 191.208 133.188 191.275C133.239 191.341 133.302 191.396 133.375 191.438L133.916 191.751L133.375 192.063C133.303 192.105 133.24 192.16 133.189 192.226C133.138 192.293 133.101 192.368 133.079 192.449C133.057 192.53 133.052 192.614 133.063 192.697C133.074 192.78 133.101 192.859 133.142 192.932C133.184 193.004 133.24 193.068 133.306 193.118C133.372 193.169 133.448 193.207 133.529 193.228C133.609 193.25 133.693 193.255 133.776 193.245C133.859 193.234 133.939 193.207 134.011 193.165L134.553 192.853V193.476C134.553 193.644 134.62 193.806 134.739 193.926C134.858 194.045 135.02 194.112 135.189 194.112C135.358 194.112 135.52 194.045 135.639 193.926C135.758 193.806 135.825 193.644 135.825 193.476V192.853L136.366 193.165C136.512 193.246 136.684 193.266 136.845 193.222C137.006 193.177 137.142 193.071 137.226 192.927C137.309 192.782 137.332 192.61 137.291 192.449C137.249 192.287 137.145 192.149 137.002 192.063V192.064Z" fill="white"/>
<path d="M144.893 192.064L144.353 191.752L144.895 191.438C145.036 191.352 145.138 191.213 145.179 191.052C145.22 190.891 145.197 190.721 145.114 190.577C145.031 190.433 144.895 190.328 144.735 190.283C144.575 190.238 144.404 190.257 144.258 190.336L143.717 190.649V190.026C143.72 189.941 143.705 189.856 143.674 189.777C143.643 189.697 143.597 189.625 143.538 189.564C143.478 189.503 143.407 189.454 143.329 189.421C143.25 189.388 143.166 189.371 143.081 189.371C142.996 189.371 142.911 189.388 142.833 189.421C142.755 189.454 142.684 189.503 142.624 189.564C142.565 189.625 142.518 189.697 142.488 189.777C142.457 189.856 142.442 189.941 142.445 190.026V190.649L141.903 190.336C141.757 190.256 141.586 190.237 141.427 190.282C141.267 190.327 141.131 190.433 141.048 190.577C140.965 190.72 140.941 190.891 140.982 191.052C141.023 191.213 141.125 191.351 141.267 191.438L141.809 191.751L141.268 192.063C141.122 192.147 141.015 192.286 140.971 192.449C140.928 192.612 140.951 192.785 141.035 192.932C141.119 193.078 141.258 193.184 141.421 193.228C141.584 193.272 141.758 193.249 141.904 193.165L142.445 192.853V193.475C142.442 193.561 142.457 193.645 142.488 193.725C142.518 193.804 142.565 193.877 142.624 193.938C142.684 193.999 142.755 194.048 142.833 194.081C142.911 194.114 142.996 194.131 143.081 194.131C143.166 194.131 143.25 194.114 143.329 194.081C143.407 194.048 143.478 193.999 143.538 193.938C143.597 193.877 143.643 193.804 143.674 193.725C143.705 193.645 143.72 193.561 143.717 193.475V192.853L144.257 193.165C144.403 193.246 144.575 193.266 144.736 193.222C144.897 193.177 145.034 193.071 145.117 192.926C145.2 192.782 145.224 192.61 145.182 192.449C145.14 192.287 145.036 192.148 144.893 192.063V192.064Z" fill="white"/>
<path d="M152.786 192.064L152.244 191.752L152.786 191.439C152.932 191.354 153.039 191.215 153.083 191.052C153.126 190.889 153.104 190.716 153.019 190.57C152.935 190.423 152.796 190.317 152.633 190.273C152.47 190.229 152.296 190.252 152.15 190.337L151.609 190.649V190.026C151.609 189.857 151.542 189.695 151.422 189.576C151.303 189.457 151.141 189.39 150.972 189.39C150.804 189.39 150.642 189.457 150.522 189.576C150.403 189.695 150.336 189.857 150.336 190.026V190.649L149.794 190.336C149.648 190.252 149.475 190.229 149.312 190.272C149.149 190.316 149.01 190.423 148.925 190.569C148.841 190.715 148.818 190.889 148.862 191.052C148.906 191.215 149.012 191.354 149.159 191.438L149.699 191.751L149.159 192.063C149.012 192.147 148.906 192.286 148.862 192.449C148.818 192.612 148.841 192.785 148.925 192.932C149.01 193.078 149.149 193.184 149.312 193.228C149.475 193.272 149.648 193.249 149.794 193.165L150.335 192.853V193.476C150.335 193.644 150.402 193.806 150.522 193.926C150.641 194.045 150.803 194.112 150.972 194.112C151.141 194.112 151.303 194.045 151.422 193.926C151.541 193.806 151.608 193.644 151.608 193.476V192.853L152.149 193.165C152.295 193.246 152.467 193.266 152.628 193.222C152.789 193.177 152.925 193.071 153.009 192.926C153.092 192.782 153.116 192.61 153.074 192.449C153.032 192.287 152.928 192.149 152.785 192.063L152.786 192.064Z" fill="white"/>
<path d="M160.677 192.064L160.136 191.752L160.678 191.439C160.824 191.354 160.931 191.215 160.974 191.052C161.018 190.89 160.995 190.716 160.911 190.57C160.827 190.424 160.688 190.317 160.525 190.273C160.362 190.23 160.188 190.252 160.042 190.337L159.501 190.649V190.026C159.501 189.858 159.433 189.696 159.314 189.576C159.195 189.457 159.033 189.39 158.864 189.39C158.696 189.39 158.534 189.457 158.414 189.576C158.295 189.696 158.228 189.858 158.228 190.026V190.649L157.686 190.336C157.614 190.294 157.534 190.267 157.451 190.256C157.368 190.246 157.284 190.251 157.203 190.273C157.123 190.294 157.047 190.332 156.981 190.383C156.914 190.433 156.859 190.497 156.817 190.569C156.775 190.642 156.748 190.721 156.737 190.804C156.726 190.887 156.732 190.971 156.754 191.052C156.775 191.133 156.813 191.208 156.863 191.275C156.914 191.341 156.978 191.396 157.05 191.438L157.592 191.751L157.051 192.063C156.905 192.147 156.798 192.286 156.754 192.449C156.711 192.612 156.733 192.786 156.818 192.932C156.902 193.078 157.041 193.185 157.204 193.228C157.367 193.272 157.541 193.249 157.687 193.165L158.228 192.853V193.476C158.228 193.644 158.295 193.806 158.414 193.926C158.534 194.045 158.696 194.112 158.864 194.112C159.033 194.112 159.195 194.045 159.314 193.926C159.433 193.806 159.501 193.644 159.501 193.476V192.853L160.041 193.165C160.187 193.246 160.359 193.266 160.52 193.222C160.681 193.177 160.818 193.071 160.901 192.927C160.984 192.782 161.008 192.61 160.966 192.449C160.924 192.287 160.82 192.149 160.677 192.063V192.064Z" fill="white"/>
</svg>
