<svg width="313" height="279" viewBox="0 0 313 279" fill="none" xmlns="http://www.w3.org/2000/svg">
<path fill-rule="evenodd" clip-rule="evenodd" d="M80 274.453C73.43 273.033 -5.50475 260.231 0.305412 165.823C6.11557 71.4156 13.4097 43.0246 44.0979 32.6353C74.786 22.246 149.385 -26.903 207.924 19.8323C244.103 48.7143 301.743 108.35 306.119 123.126C310.496 137.902 319.638 166.255 304.562 183.106C265.094 227.216 275.391 282.618 209.99 278.814C144.589 275.01 111.238 281.212 79.9989 274.453" fill="#F9F9F9"/>
<path d="M77.9631 114.116H50.1433C49.7333 114.121 49.3262 114.045 48.9458 113.892C48.5654 113.739 48.2191 113.512 47.9272 113.224C47.6353 112.936 47.4035 112.593 47.2453 112.214C47.0871 111.836 47.0056 111.43 47.0056 111.02C47.0056 110.61 47.0871 110.204 47.2453 109.826C47.4035 109.447 47.6353 109.104 47.9272 108.816C48.2191 108.528 48.5654 108.301 48.9458 108.148C49.3262 107.995 49.7333 107.919 50.1433 107.925H53.2016C53.6116 107.93 54.0186 107.854 54.3991 107.701C54.7795 107.548 55.1257 107.321 55.4177 107.033C55.7096 106.745 55.9414 106.402 56.0996 106.024C56.2578 105.645 56.3393 105.239 56.3393 104.829C56.3393 104.419 56.2578 104.013 56.0996 103.635C55.9414 103.256 55.7096 102.913 55.4177 102.625C55.1257 102.337 54.7795 102.11 54.3991 101.957C54.0186 101.804 53.6116 101.728 53.2016 101.734H34.498C34.088 101.728 33.6809 101.804 33.3005 101.957C32.92 102.11 32.5738 102.337 32.2819 102.625C31.99 102.913 31.7582 103.256 31.6 103.635C31.4418 104.013 31.3603 104.419 31.3603 104.829C31.3603 105.239 31.4418 105.645 31.6 106.024C31.7582 106.402 31.99 106.745 32.2819 107.033C32.5738 107.321 32.92 107.548 33.3005 107.701C33.6809 107.854 34.088 107.93 34.498 107.925H37.4051C37.8151 107.919 38.2221 107.995 38.6026 108.148C38.983 108.301 39.3292 108.528 39.6212 108.816C39.9131 109.104 40.1449 109.447 40.3031 109.826C40.4613 110.204 40.5428 110.61 40.5428 111.02C40.5428 111.43 40.4613 111.836 40.3031 112.214C40.1449 112.593 39.9131 112.936 39.6212 113.224C39.3292 113.512 38.983 113.739 38.6026 113.892C38.2221 114.045 37.8151 114.121 37.4051 114.116H28.8231C28.002 114.116 27.2145 114.442 26.6339 115.022C26.0532 115.603 25.7271 116.39 25.7271 117.212C25.7271 118.033 26.0532 118.82 26.6339 119.401C27.2145 119.981 28.002 120.308 28.8231 120.308H48.3803C49.194 120.319 49.9707 120.65 50.5422 121.229C51.1137 121.808 51.4341 122.589 51.4341 123.403C51.4341 124.217 51.1137 124.998 50.5422 125.577C49.9707 126.157 49.194 126.488 48.3803 126.499H44.8532C44.4431 126.493 44.0361 126.569 43.6557 126.722C43.2752 126.875 42.929 127.102 42.6371 127.39C42.3452 127.678 42.1134 128.021 41.9552 128.4C41.797 128.778 41.7155 129.184 41.7155 129.594C41.7155 130.004 41.797 130.41 41.9552 130.788C42.1134 131.167 42.3452 131.51 42.6371 131.798C42.929 132.086 43.2752 132.313 43.6557 132.466C44.0361 132.619 44.4431 132.695 44.8532 132.69H66.9503C67.3603 132.695 67.7674 132.619 68.1478 132.466C68.5282 132.313 68.8745 132.086 69.1664 131.798C69.4583 131.51 69.6901 131.167 69.8483 130.788C70.0065 130.41 70.088 130.004 70.088 129.594C70.088 129.184 70.0065 128.778 69.8483 128.4C69.6901 128.021 69.4583 127.678 69.1664 127.39C68.8745 127.102 68.5282 126.875 68.1478 126.722C67.7674 126.569 67.3603 126.493 66.9503 126.499H65.06C64.65 126.504 64.2429 126.428 63.8625 126.275C63.4821 126.122 63.1358 125.895 62.8439 125.607C62.552 125.319 62.3202 124.976 62.162 124.598C62.0038 124.219 61.9223 123.813 61.9223 123.403C61.9223 122.993 62.0038 122.587 62.162 122.209C62.3202 121.83 62.552 121.487 62.8439 121.199C63.1358 120.911 63.4821 120.684 63.8625 120.531C64.2429 120.378 64.65 120.302 65.06 120.308H77.9614C78.7825 120.308 79.57 119.981 80.1506 119.401C80.7312 118.82 81.0574 118.033 81.0574 117.212C81.0574 116.39 80.7312 115.603 80.1506 115.022C79.57 114.442 78.7825 114.116 77.9614 114.116H77.9631Z" stroke="#E8E8E8" stroke-width="3" stroke-linecap="round" stroke-linejoin="round"/>
<path d="M231.721 194.312H239.28C240.101 194.312 240.888 194.639 241.469 195.219C242.049 195.8 242.376 196.587 242.376 197.408C242.376 198.23 242.049 199.017 241.469 199.598C240.888 200.178 240.101 200.505 239.28 200.505H235.75C234.929 200.505 234.141 200.831 233.561 201.411C232.98 201.992 232.654 202.779 232.654 203.6C232.654 204.421 232.98 205.208 233.561 205.788C234.141 206.369 234.929 206.695 235.75 206.695H257.853C258.674 206.695 259.461 206.369 260.042 205.788C260.622 205.208 260.948 204.421 260.948 203.6C260.948 202.779 260.622 201.992 260.042 201.411C259.461 200.831 258.674 200.505 257.853 200.505H255.961C255.14 200.505 254.352 200.178 253.772 199.598C253.191 199.017 252.865 198.23 252.865 197.408C252.865 196.587 253.191 195.8 253.772 195.219C254.352 194.639 255.14 194.312 255.961 194.312H272.981C273.801 194.312 274.589 193.986 275.169 193.406C275.75 192.825 276.076 192.038 276.076 191.217C276.076 190.396 275.75 189.609 275.169 189.029C274.589 188.448 273.801 188.122 272.981 188.122H231.719C230.898 188.122 230.111 188.448 229.53 189.029C228.95 189.609 228.624 190.396 228.624 191.217C228.624 192.038 228.95 192.825 229.53 193.406C230.111 193.986 230.898 194.312 231.719 194.312H231.721Z" stroke="#E8E8E8" stroke-width="3" stroke-linecap="round" stroke-linejoin="round"/>
<path d="M245.046 77.0674H74.6041V227.237H245.046V77.0674Z" fill="#DBDBDB"/>
<path d="M241.636 73.6572H71.1941V223.827H241.636V73.6572Z" fill="white"/>
<g clip-path="url(#clip0_47_12384)">
<path d="M94.4663 124.409V144.91H101.592" stroke="#A7A9AC" stroke-width="0.75" stroke-miterlimit="10" stroke-linecap="round" stroke-dasharray="2 1"/>
<path d="M94.4658 130.961C100.497 130.961 105.386 126.072 105.386 120.041C105.386 114.01 100.497 109.121 94.4658 109.121C88.435 109.121 83.5461 114.01 83.5461 120.041C83.5461 126.072 88.435 130.961 94.4658 130.961Z" fill="#61C454"/>
<path d="M211.776 195.508C217.807 195.508 222.696 190.619 222.696 184.589C222.696 178.558 217.807 173.669 211.776 173.669C205.745 173.669 200.856 178.558 200.856 184.589C200.856 190.619 205.745 195.508 211.776 195.508Z" fill="#ED6B5F"/>
<path d="M136.485 139.177H104.062C103.386 139.177 102.838 139.725 102.838 140.401V149.417C102.838 150.093 103.386 150.641 104.062 150.641H136.485C137.161 150.641 137.709 150.093 137.709 149.417V140.401C137.709 139.725 137.161 139.177 136.485 139.177Z" fill="#CCCCCC"/>
<path d="M227.987 129.462H195.564C194.889 129.462 194.341 130.01 194.341 130.685V139.702C194.341 140.378 194.889 140.925 195.564 140.925H227.987C228.663 140.925 229.211 140.378 229.211 139.702V130.685C229.211 130.01 228.663 129.462 227.987 129.462Z" fill="#CCCCCC"/>
<path d="M136.485 170.599H104.062C103.386 170.599 102.838 171.146 102.838 171.822V180.839C102.838 181.514 103.386 182.062 104.062 182.062H136.485C137.161 182.062 137.709 181.514 137.709 180.839V171.822C137.709 171.146 137.161 170.599 136.485 170.599Z" fill="#CCCCCC"/>
<path d="M178.251 139.177H145.828C145.152 139.177 144.604 139.725 144.604 140.401V149.417C144.604 150.093 145.152 150.641 145.828 150.641H178.251C178.927 150.641 179.475 150.093 179.475 149.417V140.401C179.475 139.725 178.927 139.177 178.251 139.177Z" fill="#CCCCCC"/>
<path d="M178.251 170.599H145.828C145.152 170.599 144.604 171.146 144.604 171.822V180.839C144.604 181.514 145.152 182.062 145.828 182.062H178.251C178.927 182.062 179.475 181.514 179.475 180.839V171.822C179.475 171.146 178.927 170.599 178.251 170.599Z" fill="#CCCCCC"/>
<path d="M211.776 168.942L197.651 163.589C197.048 163.361 196.529 162.954 196.163 162.424C195.797 161.893 195.601 161.264 195.601 160.619C195.601 159.975 195.797 159.346 196.163 158.815C196.529 158.285 197.048 157.878 197.651 157.65L211.776 152.297L225.901 157.65C226.504 157.878 227.023 158.285 227.389 158.815C227.755 159.346 227.951 159.975 227.951 160.619C227.951 161.264 227.755 161.893 227.389 162.424C227.023 162.954 226.504 163.361 225.901 163.589L211.776 168.942Z" fill="#F68B22"/>
<path d="M217.958 148.662V150H217.554V148.662L216.006 146.129H216.442L217.77 148.302L219.097 146.129H219.506L217.958 148.662ZM222.797 149.646V150H220.06V146.129H222.714V146.483H220.469V147.86H222.471V148.208H220.469V149.646H222.797ZM224.826 150.033C224.539 150.033 224.262 149.987 223.997 149.895C223.735 149.803 223.532 149.681 223.388 149.53L223.549 149.215C223.689 149.355 223.875 149.469 224.107 149.558C224.34 149.642 224.579 149.685 224.826 149.685C225.173 149.685 225.433 149.622 225.606 149.497C225.779 149.368 225.866 149.202 225.866 148.999C225.866 148.844 225.818 148.721 225.722 148.629C225.63 148.536 225.516 148.466 225.379 148.418C225.243 148.367 225.053 148.312 224.81 148.253C224.518 148.179 224.286 148.109 224.113 148.042C223.94 147.972 223.79 147.867 223.665 147.727C223.543 147.587 223.482 147.397 223.482 147.158C223.482 146.962 223.534 146.785 223.637 146.627C223.741 146.464 223.899 146.335 224.113 146.24C224.327 146.144 224.592 146.096 224.909 146.096C225.13 146.096 225.346 146.127 225.556 146.19C225.77 146.249 225.954 146.332 226.109 146.439L225.971 146.765C225.809 146.658 225.635 146.579 225.451 146.527C225.267 146.472 225.086 146.444 224.909 146.444C224.57 146.444 224.314 146.511 224.141 146.643C223.971 146.772 223.886 146.94 223.886 147.147C223.886 147.301 223.932 147.427 224.024 147.523C224.12 147.615 224.238 147.687 224.378 147.738C224.522 147.786 224.714 147.84 224.953 147.899C225.237 147.969 225.466 148.039 225.639 148.109C225.816 148.175 225.965 148.278 226.087 148.418C226.209 148.555 226.27 148.741 226.27 148.977C226.27 149.172 226.216 149.351 226.109 149.513C226.006 149.672 225.846 149.799 225.628 149.895C225.411 149.987 225.143 150.033 224.826 150.033Z" fill="#323C42"/>
<path d="M219.865 170.129V174H219.528L217.04 170.859V174H216.63V170.129H216.968L219.462 173.27V170.129H219.865ZM222.821 174.033C222.438 174.033 222.089 173.948 221.776 173.779C221.466 173.606 221.223 173.37 221.046 173.071C220.873 172.772 220.786 172.437 220.786 172.064C220.786 171.692 220.873 171.357 221.046 171.058C221.223 170.759 221.466 170.525 221.776 170.356C222.089 170.182 222.438 170.096 222.821 170.096C223.205 170.096 223.549 170.181 223.855 170.35C224.165 170.52 224.408 170.756 224.585 171.058C224.762 171.357 224.851 171.692 224.851 172.064C224.851 172.437 224.762 172.774 224.585 173.076C224.408 173.375 224.165 173.609 223.855 173.779C223.549 173.948 223.205 174.033 222.821 174.033ZM222.821 173.668C223.127 173.668 223.404 173.6 223.651 173.464C223.898 173.323 224.091 173.132 224.231 172.888C224.371 172.641 224.441 172.367 224.441 172.064C224.441 171.762 224.371 171.489 224.231 171.246C224.091 170.999 223.898 170.807 223.651 170.671C223.404 170.531 223.127 170.461 222.821 170.461C222.515 170.461 222.237 170.531 221.986 170.671C221.739 170.807 221.544 170.999 221.4 171.246C221.26 171.489 221.19 171.762 221.19 172.064C221.19 172.367 221.26 172.641 221.4 172.888C221.544 173.132 221.739 173.323 221.986 173.464C222.237 173.6 222.515 173.668 222.821 173.668Z" fill="#323C42"/>
<path d="M94.4663 144.91V176.331H101.592" stroke="#A7A9AC" stroke-width="0.75" stroke-miterlimit="10" stroke-linecap="round" stroke-dasharray="2 1"/>
<path d="M138.413 144.91H143.954" stroke="#A7A9AC" stroke-width="0.75" stroke-miterlimit="10" stroke-linecap="round" stroke-dasharray="2 1"/>
<path d="M138.413 176.33H143.954" stroke="#A7A9AC" stroke-width="0.75" stroke-miterlimit="10" stroke-linecap="round" stroke-dasharray="2 1"/>
<path d="M180.185 144.91H186.04V160.62H194.341" stroke="#A7A9AC" stroke-width="0.75" stroke-miterlimit="10" stroke-linecap="round" stroke-dasharray="2 1"/>
<path d="M186.04 160.62V176.33H180.185" stroke="#A7A9AC" stroke-width="0.75" stroke-miterlimit="10" stroke-linecap="round" stroke-dasharray="2 1"/>
<path d="M211.776 151.447V141.619" stroke="#A7A9AC" stroke-width="0.75" stroke-miterlimit="10" stroke-linecap="round" stroke-dasharray="2 1"/>
<path d="M211.776 169.642V173.092" stroke="#A7A9AC" stroke-width="0.75" stroke-miterlimit="10" stroke-linecap="round" stroke-dasharray="2 1"/>
</g>
<path d="M241.636 73.4648H71.1942V87.7905H241.636V73.4648Z" fill="black" fill-opacity="0.12"/>
<path d="M241.636 86.4355H71.1941V100.761H241.636V86.4355Z" fill="#F5F5F5"/>
<path d="M241.668 223.827C241.668 222.874 241.635 165.304 241.583 73.4647L241.668 73.5818L71.3153 73.6125H71.3016L71.4096 73.4647C71.4062 126.842 71.4034 177.674 71.4011 223.827L71.3016 223.691L241.668 223.827L71.3016 223.963H71.2027V223.827C71.2027 177.674 71.1971 126.842 71.1942 73.4647V73.3164H71.3153L241.668 73.3477H241.754V73.4647C241.701 165.304 241.669 222.874 241.668 223.827Z" fill="#263238"/>
<path d="M156.443 247.988C205.387 247.988 245.064 244.03 245.064 239.148C245.064 234.265 205.387 230.308 156.443 230.308C107.5 230.308 67.8228 234.265 67.8228 239.148C67.8228 244.03 107.5 247.988 156.443 247.988Z" fill="black" fill-opacity="0.12"/>
<defs>
<clipPath id="clip0_47_12384">
<rect width="145.665" height="86.388" fill="white" transform="translate(83.5461 109.121)"/>
</clipPath>
</defs>
</svg>
