<svg width="313" height="279" viewBox="0 0 313 279" fill="none" xmlns="http://www.w3.org/2000/svg">
<path fill-rule="evenodd" clip-rule="evenodd" d="M80 274.453C73.43 273.033 -5.50475 260.231 0.305412 165.823C6.11557 71.4156 13.4097 43.0246 44.0979 32.6353C74.786 22.246 149.385 -26.903 207.924 19.8323C244.103 48.7143 301.743 108.35 306.119 123.126C310.496 137.902 319.638 166.255 304.562 183.106C265.094 227.216 275.391 282.618 209.99 278.814C144.589 275.01 111.238 281.212 79.9989 274.453" fill="#F9F9F9"/>
<path opacity="0.49" d="M210.037 84.0164V211.371C210.038 211.947 209.925 212.517 209.705 213.048C209.485 213.58 209.162 214.063 208.756 214.47C208.349 214.878 207.866 215.201 207.334 215.421C206.803 215.641 206.233 215.755 205.658 215.755H99.5542C98.9787 215.755 98.409 215.641 97.8774 215.421C97.3459 215.2 96.863 214.877 96.4563 214.47C96.0496 214.063 95.7271 213.58 95.5071 213.048C95.2872 212.516 95.1741 211.947 95.1744 211.371V84.0164C95.1741 83.4409 95.2872 82.8711 95.5071 82.3393C95.7271 81.8076 96.0496 81.3244 96.4563 80.9173C96.863 80.5102 97.3459 80.1872 97.8774 79.9667C98.409 79.7462 98.9787 79.6326 99.5542 79.6323H205.658C206.233 79.6326 206.803 79.7462 207.334 79.9667C207.866 80.1872 208.349 80.5102 208.755 80.9173C209.162 81.3244 209.485 81.8076 209.705 82.3393C209.925 82.8711 210.038 83.4409 210.037 84.0164Z" fill="#CCCCCC"/>
<path d="M221.611 58.3262H184.268C182.36 58.3262 180.814 59.8726 180.814 61.7802V81.4564C180.814 83.364 182.36 84.9104 184.268 84.9104H221.611C223.518 84.9104 225.065 83.364 225.065 81.4564V61.7802C225.065 59.8726 223.518 58.3262 221.611 58.3262Z" fill="#F68B22"/>
<path d="M205.777 79.7556V207.11C205.778 207.686 205.665 208.256 205.445 208.788C205.225 209.319 204.902 209.803 204.496 210.21C204.089 210.617 203.606 210.94 203.074 211.16C202.543 211.381 201.973 211.494 201.398 211.495H95.2941C94.7187 211.494 94.1489 211.381 93.6174 211.16C93.0858 210.94 92.6029 210.617 92.1962 210.21C91.7895 209.802 91.467 209.319 91.247 208.787C91.0271 208.256 90.914 207.686 90.9143 207.11V79.7556C90.914 79.1802 91.0271 78.6103 91.247 78.0786C91.467 77.5468 91.7895 77.0636 92.1962 76.6565C92.6029 76.2494 93.0858 75.9264 93.6174 75.706C94.1489 75.4855 94.7187 75.3719 95.2941 75.3716H201.398C201.973 75.3719 202.543 75.4855 203.074 75.706C203.606 75.9264 204.089 76.2494 204.495 76.6565C204.902 77.0636 205.225 77.5468 205.445 78.0786C205.665 78.6103 205.778 79.1802 205.777 79.7556Z" fill="#E8E8E8"/>
<path d="M191.995 113.856V151.076C191.995 151.331 191.945 151.584 191.848 151.82C191.75 152.055 191.607 152.27 191.426 152.45C191.246 152.631 191.032 152.774 190.796 152.871C190.56 152.969 190.308 153.019 190.052 153.019H105.643C105.128 153.018 104.634 152.814 104.269 152.449C103.905 152.085 103.7 151.591 103.7 151.076V113.856C103.7 113.601 103.75 113.349 103.847 113.113C103.945 112.877 104.088 112.663 104.269 112.482C104.449 112.302 104.663 112.159 104.899 112.061C105.135 111.964 105.387 111.913 105.643 111.914H190.052C190.39 111.913 190.723 112.002 191.017 112.17C191.31 112.338 191.555 112.58 191.726 112.872C191.903 113.17 191.996 113.51 191.995 113.856Z" fill="#CCCCCC"/>
<path d="M191.995 113.856V151.076C191.995 151.331 191.945 151.584 191.848 151.82C191.75 152.055 191.607 152.27 191.426 152.45C191.246 152.631 191.032 152.774 190.796 152.871C190.56 152.969 190.308 153.019 190.052 153.019H105.643C105.296 153.019 104.957 152.926 104.658 152.751C104.479 152.452 104.385 152.11 104.386 151.762V114.542C104.385 114.028 104.589 113.534 104.953 113.17C105.316 112.805 105.81 112.6 106.324 112.6H190.738C190.911 112.555 191.094 112.557 191.267 112.604C191.44 112.652 191.597 112.743 191.724 112.87C191.851 112.997 191.942 113.154 191.99 113.327C192.037 113.5 192.039 113.683 191.994 113.856H191.995Z" fill="#E0E0E0"/>
<g style="mix-blend-mode:multiply" opacity="0.24">
<path d="M205.777 128.764V169.867H142.087C141.832 169.868 141.579 169.817 141.343 169.72C141.108 169.622 140.893 169.479 140.713 169.299C140.533 169.118 140.39 168.904 140.292 168.668C140.194 168.433 140.144 168.18 140.144 167.925V130.705C140.144 130.45 140.194 130.197 140.292 129.961C140.39 129.726 140.533 129.511 140.713 129.331C140.893 129.151 141.108 129.007 141.343 128.91C141.579 128.812 141.832 128.762 142.087 128.762L205.777 128.764Z" fill="#35363B"/>
</g>
<path d="M148.619 179.451V200.464C148.616 200.837 148.466 201.194 148.203 201.458C147.939 201.722 147.582 201.872 147.208 201.874H95.8395C95.6543 201.874 95.4708 201.838 95.2997 201.767C95.1286 201.696 94.973 201.592 94.8421 201.461C94.7111 201.33 94.6072 201.175 94.5364 201.004C94.4656 200.833 94.4292 200.649 94.4293 200.464V179.451C94.4281 179.219 94.4853 178.991 94.5954 178.787C94.7158 178.561 94.8951 178.373 95.1142 178.241C95.3333 178.11 95.584 178.041 95.8395 178.041H147.208C147.394 178.041 147.577 178.077 147.748 178.148C147.919 178.219 148.075 178.323 148.206 178.454C148.337 178.585 148.441 178.74 148.511 178.911C148.582 179.083 148.619 179.266 148.619 179.451Z" fill="#E0E0E0"/>
<path d="M148.26 179.745V201.295C148.261 201.33 148.26 201.366 148.256 201.401C148.125 201.551 147.964 201.67 147.783 201.752C147.603 201.833 147.406 201.875 147.208 201.874H95.8392C95.654 201.874 95.4705 201.838 95.2994 201.767C95.1282 201.696 94.9727 201.593 94.8418 201.462C94.7108 201.331 94.6069 201.175 94.5361 201.004C94.4653 200.833 94.4289 200.649 94.429 200.464V179.451C94.4278 179.219 94.485 178.991 94.5951 178.787C94.7792 178.668 94.9937 178.604 95.2129 178.604H147.119C147.421 178.604 147.712 178.724 147.926 178.938C148.14 179.152 148.26 179.443 148.26 179.745Z" fill="#E0E0E0"/>
<g style="mix-blend-mode:multiply" opacity="0.24">
<path d="M143.353 183.184V204.196C143.353 204.382 143.316 204.565 143.245 204.736C143.175 204.907 143.071 205.063 142.94 205.194C142.809 205.325 142.653 205.429 142.482 205.5C142.311 205.57 142.128 205.607 141.942 205.607H90.9143V181.773H141.942C142.128 181.773 142.311 181.81 142.482 181.881C142.653 181.951 142.809 182.055 142.94 182.186C143.071 182.317 143.175 182.473 143.245 182.644C143.316 182.815 143.353 182.998 143.353 183.184Z" fill="#35363B"/>
</g>
<path d="M202.415 179.451V200.464C202.412 200.837 202.263 201.194 201.999 201.458C201.735 201.722 201.378 201.872 201.005 201.874H152.192C152.007 201.874 151.824 201.838 151.652 201.767C151.481 201.696 151.326 201.592 151.195 201.461C151.064 201.33 150.96 201.175 150.889 201.004C150.818 200.833 150.782 200.649 150.782 200.464V179.451C150.781 179.219 150.838 178.991 150.948 178.787C151.068 178.561 151.248 178.373 151.467 178.241C151.686 178.11 151.937 178.041 152.192 178.041H201.005C201.19 178.041 201.373 178.077 201.545 178.148C201.716 178.219 201.871 178.323 202.002 178.454C202.133 178.585 202.237 178.74 202.308 178.911C202.379 179.083 202.415 179.266 202.415 179.451Z" fill="#E0E0E0"/>
<path d="M202.056 179.745V201.295C202.057 201.33 202.055 201.366 202.052 201.401C201.921 201.551 201.76 201.67 201.579 201.752C201.398 201.833 201.202 201.875 201.004 201.874H152.191C152.006 201.874 151.823 201.838 151.651 201.767C151.48 201.696 151.325 201.593 151.194 201.462C151.063 201.331 150.959 201.175 150.888 201.004C150.817 200.833 150.781 200.649 150.781 200.464V179.451C150.78 179.219 150.837 178.991 150.947 178.787C151.131 178.668 151.346 178.604 151.565 178.604H200.914C201.217 178.604 201.507 178.724 201.722 178.938C201.936 179.152 202.056 179.443 202.056 179.745Z" fill="#E0E0E0"/>
<g style="mix-blend-mode:multiply" opacity="0.24">
<path d="M205.777 186.042V207.11C205.779 208.119 205.431 209.098 204.793 209.879H172.895C172.71 209.88 172.526 209.843 172.355 209.772C172.184 209.702 172.028 209.598 171.897 209.467C171.766 209.336 171.662 209.18 171.592 209.009C171.521 208.838 171.484 208.654 171.485 208.469V187.456C171.484 187.082 171.632 186.723 171.897 186.457C172.161 186.192 172.52 186.043 172.895 186.042H205.777Z" fill="#35363B"/>
</g>
<path d="M221.134 121.299H136.724C135.652 121.299 134.783 122.168 134.783 123.24V160.46C134.783 161.532 135.652 162.401 136.724 162.401H221.134C222.206 162.401 223.075 161.532 223.075 160.46V123.24C223.075 122.168 222.206 121.299 221.134 121.299Z" fill="#FAFAFA"/>
<path d="M136.77 160.271L221.351 123.328" stroke="white" stroke-miterlimit="10"/>
<path d="M221.351 160.271L136.77 123.328" stroke="white" stroke-miterlimit="10"/>
<path d="M226.8 118.149H131.058V166.227H226.8V118.149Z" stroke="#42444F" stroke-width="1.508" stroke-miterlimit="10" stroke-linecap="round"/>
<path d="M132.422 116.786H129.695V119.513H132.422V116.786Z" fill="#42444F"/>
<path d="M180.645 116.786H177.918V119.513H180.645V116.786Z" fill="#42444F"/>
<path d="M228.164 116.786H225.436V119.513H228.164V116.786Z" fill="#42444F"/>
<path d="M132.422 140.825H129.695V143.552H132.422V140.825Z" fill="#42444F"/>
<path d="M228.163 140.825H225.436V143.552H228.163V140.825Z" fill="#42444F"/>
<path d="M132.422 164.863H129.695V167.59H132.422V164.863Z" fill="#42444F"/>
<path d="M180.645 164.863H177.918V167.59H180.645V164.863Z" fill="#42444F"/>
<path d="M228.163 164.863H225.436V167.59H228.163V164.863Z" fill="#42444F"/>
<path d="M128.986 85.7025V91.7226C128.986 91.9761 128.937 92.2271 128.84 92.4614C128.743 92.6957 128.601 92.9085 128.421 93.0878C128.242 93.267 128.029 93.4092 127.795 93.5061C127.561 93.603 127.31 93.6528 127.056 93.6526H65.2833C64.7715 93.6523 64.2807 93.4489 63.9188 93.087C63.5569 92.7251 63.3535 92.2344 63.3533 91.7226V85.7025C63.3535 85.1907 63.5569 84.6999 63.9188 84.338C64.2807 83.9761 64.7715 83.7727 65.2833 83.7725H127.056C127.31 83.7722 127.561 83.822 127.795 83.9189C128.029 84.0158 128.242 84.158 128.421 84.3372C128.601 84.5165 128.743 84.7294 128.84 84.9636C128.937 85.1979 128.986 85.449 128.986 85.7025Z" fill="#FAFAFA"/>
<path d="M128.985 86.4896V91.7215C128.985 92.2333 128.782 92.724 128.42 93.0859C128.058 93.4478 127.567 93.6512 127.055 93.6515H65.2825C64.7707 93.6512 64.2799 93.4478 63.918 93.0859C63.5561 92.724 63.3527 92.2333 63.3525 91.7215V86.4896C63.3527 85.9778 63.5561 85.487 63.918 85.1251C64.2799 84.7632 64.7707 84.5598 65.2825 84.5596H127.055C127.309 84.5593 127.56 84.6091 127.794 84.706C128.029 84.8029 128.241 84.9451 128.421 85.1244C128.6 85.3036 128.742 85.5165 128.839 85.7507C128.936 85.985 128.986 86.2361 128.985 86.4896Z" fill="#FAFAFA"/>
<path d="M81.5929 175.3H136.797C136.982 175.3 137.166 175.336 137.337 175.407C137.509 175.478 137.665 175.582 137.796 175.713C137.927 175.844 138.031 176 138.102 176.171C138.173 176.342 138.209 176.526 138.209 176.711V197.724C138.209 198.098 138.061 198.457 137.796 198.722C137.532 198.987 137.173 199.135 136.798 199.136H81.5925C81.4071 199.136 81.2236 199.099 81.0524 199.028C80.8812 198.957 80.7256 198.853 80.5945 198.722C80.4635 198.591 80.3596 198.435 80.2887 198.264C80.2178 198.093 80.1813 197.909 80.1814 197.724V176.711C80.1814 176.337 80.3301 175.978 80.5948 175.713C80.8595 175.449 81.2185 175.3 81.5929 175.3Z" fill="#FAFAFA"/>
<path d="M176.972 183.87H232.176C232.362 183.87 232.545 183.906 232.717 183.977C232.888 184.048 233.044 184.152 233.175 184.283C233.306 184.414 233.41 184.57 233.481 184.741C233.552 184.912 233.588 185.096 233.588 185.281V206.294C233.588 206.668 233.44 207.027 233.175 207.292C232.91 207.557 232.552 207.705 232.177 207.705H176.971C176.597 207.705 176.238 207.557 175.974 207.292C175.709 207.028 175.56 206.669 175.56 206.294V185.282C175.56 184.907 175.709 184.548 175.974 184.284C176.238 184.019 176.598 183.87 176.972 183.87Z" fill="#FAFAFA"/>
<path d="M227.15 192.212H218.661C218.194 192.212 217.816 192.59 217.816 193.056V203.682C217.816 204.148 218.194 204.526 218.661 204.526H227.15C227.617 204.526 227.995 204.148 227.995 203.682V193.056C227.995 192.59 227.617 192.212 227.15 192.212Z" fill="#C6CCD6"/>
<path d="M214.684 192.212H206.194C205.728 192.212 205.35 192.59 205.35 193.056V203.682C205.35 204.148 205.728 204.526 206.194 204.526H214.684C215.15 204.526 215.528 204.148 215.528 203.682V193.056C215.528 192.59 215.15 192.212 214.684 192.212Z" fill="#C6CCD6"/>
<path d="M202.217 192.212H193.727C193.261 192.212 192.883 192.59 192.883 193.056V203.682C192.883 204.148 193.261 204.526 193.727 204.526H202.217C202.684 204.526 203.062 204.148 203.062 203.682V193.056C203.062 192.59 202.684 192.212 202.217 192.212Z" fill="#C6CCD6"/>
<path d="M189.751 192.212H181.261C180.795 192.212 180.417 192.59 180.417 193.056V203.682C180.417 204.148 180.795 204.526 181.261 204.526H189.751C190.217 204.526 190.595 204.148 190.595 203.682V193.056C190.595 192.59 190.217 192.212 189.751 192.212Z" fill="#C6CCD6"/>
<path d="M227.016 192.027H218.526C218.06 192.027 217.682 192.405 217.682 192.872V203.497C217.682 203.964 218.06 204.342 218.526 204.342H227.016C227.482 204.342 227.86 203.964 227.86 203.497V192.872C227.86 192.405 227.482 192.027 227.016 192.027Z" fill="white"/>
<path d="M214.55 192.027H206.06C205.593 192.027 205.215 192.405 205.215 192.872V203.497C205.215 203.964 205.593 204.342 206.06 204.342H214.55C215.016 204.342 215.394 203.964 215.394 203.497V192.872C215.394 192.405 215.016 192.027 214.55 192.027Z" fill="white"/>
<path d="M202.083 192.027H193.593C193.127 192.027 192.749 192.405 192.749 192.872V203.497C192.749 203.964 193.127 204.342 193.593 204.342H202.083C202.55 204.342 202.928 203.964 202.928 203.497V192.872C202.928 192.405 202.55 192.027 202.083 192.027Z" fill="white"/>
<path d="M189.617 192.028H181.127C180.66 192.028 180.282 192.406 180.282 192.873V203.498C180.282 203.965 180.66 204.343 181.127 204.343H189.617C190.083 204.343 190.461 203.965 190.461 203.498V192.873C190.461 192.406 190.083 192.028 189.617 192.028Z" fill="white"/>
<path d="M226.626 193.152H218.916C218.748 193.152 218.611 193.289 218.611 193.457V202.912C218.611 203.081 218.748 203.217 218.916 203.217H226.626C226.794 203.217 226.931 203.081 226.931 202.912V193.457C226.931 193.289 226.794 193.152 226.626 193.152Z" fill="#CCCCCC"/>
<path d="M214.55 192.027H206.06C205.593 192.027 205.215 192.405 205.215 192.872V203.497C205.215 203.964 205.593 204.342 206.06 204.342H214.55C215.016 204.342 215.394 203.964 215.394 203.497V192.872C215.394 192.405 215.016 192.027 214.55 192.027Z" fill="white"/>
<path d="M214.16 193.151H206.45C206.282 193.151 206.145 193.288 206.145 193.456V202.911C206.145 203.08 206.282 203.216 206.45 203.216H214.16C214.328 203.216 214.465 203.08 214.465 202.911V193.456C214.465 193.288 214.328 193.151 214.16 193.151Z" fill="#CCCCCC"/>
<path d="M202.083 192.027H193.593C193.127 192.027 192.749 192.405 192.749 192.872V203.497C192.749 203.964 193.127 204.342 193.593 204.342H202.083C202.55 204.342 202.928 203.964 202.928 203.497V192.872C202.928 192.405 202.55 192.027 202.083 192.027Z" fill="white"/>
<path d="M201.693 193.151H193.984C193.815 193.151 193.679 193.288 193.679 193.456V202.911C193.679 203.08 193.815 203.216 193.984 203.216H201.693C201.861 203.216 201.998 203.08 201.998 202.911V193.456C201.998 193.288 201.861 193.151 201.693 193.151Z" fill="#CCCCCC"/>
<path d="M189.617 192.027H181.127C180.66 192.027 180.282 192.405 180.282 192.872V203.497C180.282 203.964 180.66 204.342 181.127 204.342H189.617C190.083 204.342 190.461 203.964 190.461 203.497V192.872C190.461 192.405 190.083 192.027 189.617 192.027Z" fill="white"/>
<path d="M189.226 193.151H181.517C181.349 193.151 181.212 193.288 181.212 193.456V202.911C181.212 203.08 181.349 203.216 181.517 203.216H189.226C189.395 203.216 189.531 203.08 189.531 202.911V193.456C189.531 193.288 189.395 193.151 189.226 193.151Z" fill="#CCCCCC"/>
<path d="M200.963 80.4183C200.963 80.7709 200.858 81.1155 200.662 81.4087C200.466 81.7018 200.188 81.9303 199.862 82.0652C199.536 82.2002 199.178 82.2355 198.832 82.1667C198.486 82.0979 198.169 81.9281 197.92 81.6788C197.67 81.4295 197.5 81.1119 197.432 80.7661C197.363 80.4203 197.398 80.0619 197.533 79.7362C197.668 79.4104 197.896 79.132 198.19 78.9362C198.483 78.7403 198.827 78.6357 199.18 78.6357C199.653 78.6357 200.106 78.8235 200.44 79.1579C200.775 79.4922 200.963 79.9456 200.963 80.4183Z" fill="#FAFAFA"/>
<path d="M193.787 80.4183C193.787 80.7709 193.683 81.1155 193.487 81.4087C193.291 81.7018 193.013 81.9303 192.687 82.0652C192.361 82.2002 192.003 82.2355 191.657 82.1667C191.311 82.0979 190.994 81.9281 190.744 81.6788C190.495 81.4295 190.325 81.1119 190.256 80.7661C190.188 80.4203 190.223 80.0619 190.358 79.7362C190.493 79.4104 190.721 79.132 191.014 78.9362C191.308 78.7403 191.652 78.6357 192.005 78.6357C192.478 78.6357 192.931 78.8235 193.265 79.1579C193.6 79.4922 193.787 79.9456 193.787 80.4183Z" fill="#FAFAFA"/>
<path d="M186.612 80.4183C186.612 80.7709 186.507 81.1155 186.311 81.4087C186.116 81.7018 185.837 81.9303 185.511 82.0652C185.186 82.2002 184.827 82.2355 184.482 82.1667C184.136 82.0979 183.818 81.9281 183.569 81.6788C183.32 81.4295 183.15 81.1119 183.081 80.7661C183.012 80.4203 183.047 80.0619 183.182 79.7362C183.317 79.4104 183.546 79.132 183.839 78.9362C184.132 78.7403 184.477 78.6357 184.829 78.6357C185.302 78.6357 185.755 78.8235 186.09 79.1579C186.424 79.4922 186.612 79.9456 186.612 80.4183Z" fill="#FAFAFA"/>
<path d="M111.042 158.884C111.113 158.511 111.113 158.129 111.042 157.757H110.552C110.531 157.757 110.51 157.75 110.493 157.737C110.476 157.724 110.464 157.706 110.458 157.685C110.453 157.664 110.454 157.642 110.462 157.622C110.471 157.603 110.485 157.586 110.504 157.575L110.93 157.33C110.805 156.972 110.613 156.641 110.365 156.355L109.919 156.613C109.9 156.624 109.879 156.628 109.857 156.625C109.836 156.622 109.817 156.613 109.802 156.598C109.787 156.583 109.777 156.563 109.774 156.542C109.771 156.521 109.775 156.499 109.786 156.481L110.041 156.032C109.753 155.786 109.42 155.597 109.061 155.475L108.836 155.871C108.825 155.89 108.809 155.904 108.789 155.912C108.769 155.92 108.747 155.922 108.727 155.916C108.706 155.911 108.688 155.899 108.675 155.882C108.661 155.865 108.654 155.844 108.654 155.823V155.367C108.282 155.296 107.899 155.296 107.527 155.367V155.857C107.527 155.878 107.52 155.899 107.507 155.916C107.494 155.933 107.476 155.945 107.455 155.951C107.434 155.956 107.412 155.955 107.393 155.947C107.373 155.938 107.356 155.924 107.346 155.905L107.101 155.479C106.743 155.604 106.412 155.796 106.125 156.044L106.381 156.491C106.392 156.509 106.396 156.531 106.393 156.552C106.39 156.573 106.381 156.592 106.366 156.608C106.351 156.623 106.331 156.632 106.31 156.635C106.289 156.638 106.267 156.634 106.249 156.624L105.801 156.368C105.554 156.656 105.365 156.989 105.243 157.348L105.639 157.574C105.658 157.584 105.672 157.601 105.681 157.621C105.689 157.64 105.69 157.662 105.685 157.683C105.68 157.704 105.667 157.722 105.65 157.735C105.633 157.748 105.613 157.755 105.591 157.755H105.135C105.064 158.127 105.064 158.51 105.135 158.882H105.625C105.646 158.882 105.667 158.889 105.684 158.902C105.701 158.915 105.714 158.933 105.719 158.954C105.725 158.975 105.724 158.997 105.715 159.017C105.707 159.036 105.692 159.053 105.674 159.064L105.248 159.309C105.373 159.666 105.564 159.997 105.812 160.284L106.259 160.026C106.277 160.015 106.299 160.011 106.32 160.014C106.341 160.016 106.361 160.026 106.376 160.041C106.391 160.056 106.401 160.076 106.404 160.097C106.407 160.118 106.403 160.14 106.392 160.158L106.136 160.607C106.425 160.853 106.757 161.042 107.116 161.164L107.342 160.768C107.353 160.749 107.369 160.735 107.389 160.726C107.409 160.718 107.431 160.717 107.451 160.722C107.472 160.728 107.49 160.74 107.504 160.757C107.517 160.774 107.524 160.794 107.524 160.816V161.272C107.896 161.343 108.278 161.343 108.651 161.272V160.784C108.651 160.762 108.658 160.742 108.671 160.725C108.684 160.708 108.702 160.695 108.723 160.69C108.743 160.684 108.765 160.686 108.785 160.694C108.805 160.702 108.821 160.717 108.832 160.735L109.077 161.159C109.435 161.034 109.766 160.843 110.053 160.595L109.795 160.148C109.784 160.13 109.779 160.108 109.782 160.087C109.785 160.066 109.794 160.046 109.809 160.031C109.824 160.016 109.844 160.006 109.865 160.003C109.886 160 109.908 160.004 109.927 160.015L110.375 160.271C110.621 159.982 110.811 159.65 110.933 159.291L110.536 159.065C110.518 159.055 110.503 159.038 110.495 159.018C110.487 158.999 110.486 158.977 110.491 158.956C110.496 158.935 110.509 158.917 110.525 158.904C110.542 158.891 110.563 158.884 110.584 158.883L111.042 158.884ZM108.176 159.664C107.903 159.682 107.631 159.616 107.397 159.475C107.162 159.334 106.976 159.125 106.863 158.876C106.75 158.627 106.716 158.349 106.765 158.079C106.814 157.81 106.944 157.562 107.137 157.369C107.33 157.175 107.578 157.045 107.847 156.996C108.117 156.947 108.394 156.981 108.644 157.094C108.893 157.206 109.102 157.392 109.243 157.627C109.384 157.862 109.45 158.133 109.433 158.407C109.412 158.733 109.273 159.041 109.042 159.272C108.81 159.503 108.503 159.643 108.176 159.664Z" fill="#FAFAFA"/>
<path d="M118.185 156.147L114.424 159.907L115.294 160.777L119.055 157.016L118.185 156.147Z" fill="#F68B22"/>
<path d="M119.531 156.539L119.055 157.016L118.186 156.146L118.662 155.67C118.778 155.555 118.934 155.49 119.097 155.49C119.26 155.49 119.417 155.555 119.532 155.67C119.647 155.785 119.712 155.942 119.712 156.105C119.712 156.268 119.647 156.424 119.531 156.539Z" fill="#E1E9F5"/>
<path d="M114.425 159.907L115.295 160.777L114.535 161.032L113.987 161.216L114.171 160.669L114.425 159.907Z" fill="#E1E9F5"/>
<path d="M114.17 160.667L114.534 161.032L113.987 161.215L114.17 160.667Z" fill="#6F7082"/>
<path d="M99.4148 137.772L95.5356 133.893L99.4148 130.014" stroke="#FAFAFA" stroke-width="3.414" stroke-linecap="round" stroke-linejoin="round"/>
<path d="M81.4981 105.54H65.9498C64.5307 105.54 63.3803 106.69 63.3803 108.109V129.174C63.3803 130.593 64.5307 131.744 65.9498 131.744H81.4981C82.9172 131.744 84.0676 130.593 84.0676 129.174V108.109C84.0676 106.69 82.9172 105.54 81.4981 105.54Z" fill="#CCD2DB"/>
<path d="M81.403 105.241H65.3759C64.089 105.241 63.0458 106.284 63.0458 107.571V129.115C63.0458 130.402 64.089 131.445 65.3759 131.445H81.403C82.6899 131.445 83.7331 130.402 83.7331 129.115V107.571C83.7331 106.284 82.6899 105.241 81.403 105.241Z" fill="#FAFAFA"/>
<path d="M84.4268 118.418H95.0321C95.539 118.418 96.0251 118.62 96.3835 118.978C96.742 119.337 96.9433 119.823 96.9433 120.33V128.313" stroke="#6F7082" stroke-width="1.508" stroke-miterlimit="10" stroke-linecap="round"/>
<path d="M69.9932 115.696L67.1335 112.837L69.9932 109.977" fill="#F68B22"/>
<path d="M69.9932 115.696L67.1335 112.837L69.9932 109.977" stroke="#F68B22" stroke-width="0.5" stroke-linecap="round" stroke-linejoin="round"/>
<path d="M76.3616 112.836L79.2212 115.695V109.976L76.3616 112.836Z" fill="#F68B22"/>
<path d="M80.0682 122.249L78.6984 123.618V122.508C78.6985 122.435 78.6771 122.364 78.6368 122.304C78.5964 122.243 78.5391 122.196 78.4719 122.169C78.4048 122.141 78.3309 122.133 78.2597 122.148C78.1884 122.162 78.123 122.197 78.0717 122.249L76.2512 124.067C76.1825 124.136 76.1439 124.23 76.1439 124.327C76.1439 124.424 76.1825 124.517 76.2512 124.586L78.0717 126.407C78.1231 126.459 78.1885 126.493 78.2597 126.508C78.3308 126.522 78.4046 126.514 78.4717 126.487C78.5387 126.459 78.596 126.412 78.6364 126.352C78.6768 126.291 78.6983 126.22 78.6984 126.148V125.037L80.0682 126.407C80.1195 126.459 80.1849 126.493 80.2561 126.508C80.3273 126.522 80.4011 126.514 80.4681 126.487C80.5352 126.459 80.5925 126.412 80.6329 126.352C80.6732 126.291 80.6948 126.22 80.6949 126.148V122.508C80.695 122.435 80.6735 122.364 80.6332 122.304C80.5929 122.243 80.5355 122.196 80.4684 122.169C80.4013 122.141 80.3274 122.133 80.2561 122.148C80.1849 122.162 80.1195 122.197 80.0682 122.249Z" fill="#F68B22"/>
<path d="M69.7851 123.45V122.433C69.7856 122.331 69.7558 122.232 69.6996 122.147C69.6434 122.063 69.5632 121.997 69.4694 121.958C69.3755 121.919 69.2723 121.909 69.1727 121.929C69.0731 121.949 68.9818 121.998 68.9104 122.071L66.6447 124.336L68.9104 126.603C68.9818 126.675 69.0732 126.724 69.1728 126.744C69.2724 126.764 69.3757 126.754 69.4696 126.715C69.5634 126.676 69.6436 126.61 69.6998 126.526C69.756 126.441 69.7857 126.342 69.7851 126.24V125.223H71.825V123.45H69.7851Z" fill="#F68B22"/>
<path d="M199.14 91.5161H148.445V92.9217H199.14V91.5161Z" fill="#FAFAFA"/>
<path d="M199.14 94.7964H148.444V96.2019H199.14V94.7964Z" fill="#FAFAFA"/>
<path d="M199.14 98.0762H148.444V99.4817H199.14V98.0762Z" fill="#FAFAFA"/>
<path d="M199.14 101.355H148.444V102.761H199.14V101.355Z" fill="#FAFAFA"/>
<path d="M219.676 150.994C219.701 150.973 213.885 147.475 213.885 147.475C213.885 147.475 215.959 153.937 215.984 153.917C216.01 153.897 217.17 152.199 217.17 152.199L218.869 154.343L219.429 153.899L217.731 151.754C217.731 151.754 219.65 151.013 219.676 150.994Z" fill="#35363B"/>
<path d="M79.1242 187.33H74.1151C73.1309 187.33 72.1869 187.721 71.491 188.417C70.795 189.113 70.4039 190.057 70.4038 191.041V217.474C70.4039 218.458 70.795 219.402 71.491 220.098C72.1869 220.794 73.1309 221.185 74.1151 221.185H83.9143" stroke="#6F7082" stroke-width="1.508" stroke-miterlimit="10" stroke-linecap="round"/>
<path d="M224.124 222.228C223.953 222.227 223.783 222.256 223.622 222.313C223.542 221.919 223.366 221.55 223.11 221.24C222.853 220.929 222.525 220.687 222.152 220.533C222.332 219.125 221.951 217.703 221.091 216.574C220.23 215.445 218.96 214.699 217.555 214.499C216.149 214.299 214.722 214.66 213.58 215.504C212.439 216.348 211.676 217.607 211.455 219.01C211.022 218.913 210.574 218.909 210.139 218.997C209.704 219.086 209.293 219.265 208.932 219.523C208.571 219.781 208.268 220.112 208.044 220.495C207.82 220.878 207.679 221.304 207.63 221.745C207.582 222.186 207.627 222.632 207.762 223.054C207.898 223.477 208.121 223.866 208.417 224.197C208.713 224.527 209.076 224.791 209.481 224.972C209.886 225.153 210.325 225.246 210.768 225.246H224.124C224.524 225.246 224.909 225.087 225.192 224.804C225.475 224.521 225.634 224.137 225.634 223.736C225.634 223.335 225.475 222.951 225.192 222.668C224.909 222.385 224.524 222.226 224.124 222.226V222.228Z" fill="#FAFAFA"/>
<path d="M164.898 221.015H213.741C214.726 221.015 215.67 220.624 216.366 219.928C217.062 219.232 217.453 218.288 217.453 217.304V207.85" stroke="#6F7082" stroke-width="1.508" stroke-miterlimit="10" stroke-linecap="round"/>
<path d="M101.263 221.015H148.562" stroke="#6F7082" stroke-width="1.508" stroke-miterlimit="10" stroke-linecap="round"/>
<path d="M97.0252 214.638L86.3975 216.535L87.1832 220.936L97.8108 219.039L97.0252 214.638Z" fill="#CCD7E6"/>
<path d="M97.5957 215.915H86.8V220.386H97.5957V215.915Z" fill="#E1E9F5"/>
<path d="M97.4628 217.407L87.4016 216.609L87.0992 220.426L97.1603 221.224L97.4628 217.407Z" fill="white"/>
<path d="M94.8843 216.857L93.8439 217.897C93.7693 217.972 93.6807 218.031 93.5831 218.072C93.4855 218.112 93.3808 218.133 93.2752 218.133H86.3889C86.1755 218.133 85.9708 218.218 85.8198 218.369C85.6689 218.52 85.5841 218.725 85.5841 218.938V224.914C85.5841 225.127 85.6689 225.332 85.8198 225.483C85.9708 225.634 86.1755 225.719 86.3889 225.719H98.3068C98.5203 225.719 98.725 225.634 98.8759 225.483C99.0268 225.332 99.1116 225.127 99.1116 224.914V217.426C99.1116 217.212 99.0268 217.008 98.8759 216.857C98.725 216.706 98.5203 216.621 98.3068 216.621H95.4523C95.2392 216.621 95.0349 216.706 94.8843 216.857Z" fill="#F68B22"/>
<path d="M65.6919 144.167H65.0022C64.8187 144.167 64.6427 144.094 64.5129 143.964C64.3832 143.834 64.3103 143.658 64.3103 143.475V142.785C64.3135 142.621 64.2602 142.46 64.1594 142.331C64.0586 142.201 63.9163 142.11 63.7564 142.072C63.6553 142.052 63.5509 142.054 63.4507 142.079C63.3505 142.104 63.2571 142.15 63.1771 142.216C63.0972 142.281 63.0327 142.363 62.9883 142.456C62.9439 142.549 62.9208 142.651 62.9205 142.754V143.474C62.9205 143.658 62.8476 143.834 62.7178 143.963C62.5881 144.093 62.4121 144.166 62.2286 144.166H61.5388C61.3746 144.163 61.2142 144.216 61.0845 144.317C60.9548 144.418 60.8637 144.56 60.8264 144.72C60.806 144.821 60.8082 144.925 60.8329 145.026C60.8576 145.126 60.9043 145.219 60.9695 145.299C61.0347 145.379 61.1168 145.444 61.21 145.488C61.3031 145.532 61.405 145.556 61.5081 145.556H62.2286C62.3194 145.556 62.4094 145.574 62.4934 145.609C62.5773 145.643 62.6536 145.694 62.7178 145.759C62.7821 145.823 62.833 145.899 62.8678 145.983C62.9026 146.067 62.9205 146.157 62.9205 146.248V146.938C62.9172 147.102 62.9704 147.262 63.0712 147.392C63.172 147.522 63.3144 147.613 63.4743 147.65C63.5755 147.67 63.6799 147.668 63.78 147.643C63.8802 147.619 63.9736 147.572 64.0536 147.507C64.1335 147.442 64.198 147.36 64.2424 147.266C64.2868 147.173 64.31 147.071 64.3103 146.968V146.248C64.3103 146.157 64.3282 146.067 64.3629 145.983C64.3977 145.899 64.4487 145.823 64.5129 145.759C64.5772 145.694 64.6534 145.643 64.7374 145.609C64.8213 145.574 64.9113 145.556 65.0022 145.556H65.7222C65.8253 145.556 65.9271 145.532 66.0202 145.488C66.1133 145.443 66.1954 145.379 66.2606 145.299C66.3258 145.219 66.3725 145.126 66.3972 145.026C66.422 144.925 66.4243 144.821 66.4039 144.72C66.3664 144.56 66.2754 144.418 66.1458 144.317C66.0162 144.217 65.856 144.163 65.6919 144.167Z" fill="#FAFAFA"/>
<path d="M229.321 98.7883H228.512C228.297 98.7883 228.091 98.703 227.94 98.5512C227.788 98.3994 227.703 98.1935 227.703 97.9788V97.1693C227.706 96.9766 227.643 96.7885 227.525 96.6365C227.406 96.4846 227.239 96.378 227.051 96.3346C226.933 96.3106 226.811 96.3132 226.693 96.3422C226.576 96.3712 226.466 96.4259 226.372 96.5024C226.279 96.5788 226.203 96.6751 226.151 96.7843C226.099 96.8936 226.072 97.0129 226.072 97.1339V97.9779C226.072 98.1926 225.986 98.3985 225.834 98.5503C225.683 98.7021 225.477 98.7874 225.262 98.7874H224.453C224.26 98.7837 224.072 98.8464 223.92 98.9649C223.768 99.0834 223.661 99.2506 223.618 99.4384C223.594 99.557 223.596 99.6794 223.625 99.7968C223.654 99.9142 223.709 100.024 223.785 100.118C223.862 100.211 223.958 100.287 224.067 100.339C224.176 100.391 224.296 100.418 224.417 100.418H225.261C225.476 100.418 225.682 100.504 225.834 100.655C225.985 100.807 226.071 101.013 226.071 101.228V102.037C226.067 102.23 226.13 102.418 226.248 102.57C226.367 102.722 226.534 102.829 226.722 102.872C226.84 102.896 226.963 102.894 227.08 102.865C227.198 102.836 227.307 102.781 227.401 102.705C227.495 102.628 227.57 102.532 227.622 102.423C227.674 102.313 227.701 102.194 227.702 102.073V101.229C227.702 101.014 227.787 100.808 227.939 100.656C228.091 100.504 228.296 100.419 228.511 100.419H229.355C229.476 100.419 229.596 100.392 229.705 100.34C229.814 100.288 229.91 100.212 229.987 100.118C230.063 100.025 230.118 99.9151 230.147 99.7977C230.176 99.6802 230.178 99.5578 230.154 99.4393C230.111 99.2518 230.005 99.0848 229.853 98.9663C229.702 98.8478 229.514 98.785 229.321 98.7883Z" fill="#FAFAFA"/>
<path d="M122.847 64.3619C122.556 64.3625 122.267 64.4128 121.993 64.5106C121.857 63.8394 121.557 63.212 121.121 62.6838C120.685 62.1557 120.126 61.743 119.493 61.4822C119.791 59.0901 119.137 56.6767 117.673 54.7617C116.209 52.8467 114.051 51.5832 111.665 51.2433C109.278 50.9034 106.854 51.5142 104.913 52.9442C102.973 54.3743 101.671 56.5092 101.289 58.8893C100.552 58.7247 99.789 58.7174 99.049 58.8678C98.309 59.0182 97.6091 59.3229 96.9948 59.7621C96.3806 60.2013 95.8658 60.7651 95.4842 61.4166C95.1025 62.0682 94.8625 62.7929 94.7799 63.5435C94.6972 64.2941 94.7738 65.0536 95.0045 65.7726C95.2353 66.4916 95.615 67.1539 96.119 67.7162C96.623 68.2785 97.2398 68.7283 97.9294 69.0361C98.6189 69.3439 99.3656 69.5029 100.121 69.5026H122.847C123.529 69.5026 124.183 69.2318 124.665 68.7498C125.147 68.2677 125.418 67.6139 125.418 66.9322C125.418 66.2505 125.147 65.5968 124.665 65.1147C124.183 64.6327 123.529 64.3619 122.847 64.3619Z" fill="#CCCCCC"/>
<path d="M163.102 220.898C162.974 220.858 162.861 220.781 162.776 220.677C162.691 220.573 162.639 220.447 162.624 220.314C162.61 220.181 162.636 220.046 162.697 219.927C162.758 219.808 162.853 219.709 162.969 219.643C163.108 219.565 163.215 219.442 163.272 219.294C163.33 219.146 163.334 218.983 163.285 218.832C163.236 218.681 163.137 218.552 163.003 218.466C162.87 218.38 162.711 218.343 162.553 218.361C162.42 218.376 162.285 218.352 162.166 218.292C162.046 218.232 161.947 218.138 161.88 218.022C161.813 217.906 161.781 217.772 161.788 217.639C161.796 217.505 161.843 217.376 161.922 217.268C162.017 217.141 162.065 216.985 162.057 216.826C162.05 216.668 161.988 216.517 161.882 216.398C161.776 216.28 161.633 216.202 161.476 216.178C161.319 216.154 161.158 216.184 161.022 216.265C160.906 216.333 160.773 216.367 160.639 216.361C160.505 216.354 160.375 216.309 160.266 216.23C160.158 216.151 160.074 216.043 160.027 215.917C159.979 215.791 159.97 215.654 159.999 215.523C160.034 215.368 160.014 215.206 159.942 215.064C159.871 214.923 159.753 214.81 159.608 214.745C159.463 214.681 159.3 214.668 159.147 214.71C158.994 214.752 158.86 214.845 158.768 214.975C158.69 215.084 158.582 215.168 158.457 215.217C158.332 215.266 158.195 215.277 158.064 215.249C157.933 215.222 157.812 215.156 157.718 215.06C157.623 214.965 157.559 214.844 157.532 214.713C157.501 214.557 157.416 214.417 157.294 214.317C157.171 214.216 157.017 214.161 156.858 214.161C156.699 214.161 156.546 214.216 156.423 214.317C156.3 214.417 156.216 214.557 156.184 214.713C156.158 214.844 156.093 214.965 155.999 215.06C155.904 215.156 155.784 215.222 155.652 215.249C155.521 215.277 155.385 215.266 155.259 215.217C155.134 215.168 155.026 215.084 154.949 214.975C154.856 214.845 154.722 214.752 154.569 214.711C154.416 214.669 154.254 214.681 154.109 214.746C153.964 214.81 153.846 214.923 153.774 215.065C153.703 215.206 153.683 215.368 153.717 215.523C153.746 215.654 153.737 215.791 153.689 215.917C153.642 216.043 153.558 216.151 153.45 216.23C153.341 216.309 153.211 216.354 153.077 216.361C152.943 216.367 152.81 216.333 152.694 216.265C152.558 216.184 152.397 216.154 152.241 216.178C152.084 216.202 151.941 216.28 151.835 216.398C151.729 216.515 151.666 216.666 151.659 216.825C151.651 216.983 151.698 217.139 151.792 217.267C151.872 217.374 151.919 217.503 151.926 217.637C151.934 217.771 151.902 217.904 151.835 218.02C151.768 218.136 151.669 218.23 151.549 218.29C151.429 218.351 151.295 218.375 151.161 218.36C151.004 218.341 150.845 218.378 150.711 218.464C150.578 218.55 150.478 218.679 150.429 218.83C150.38 218.981 150.384 219.144 150.442 219.292C150.5 219.44 150.607 219.564 150.745 219.642C150.862 219.707 150.956 219.806 151.018 219.925C151.079 220.044 151.104 220.179 151.09 220.312C151.076 220.446 151.024 220.572 150.939 220.676C150.854 220.779 150.741 220.856 150.613 220.896C150.461 220.944 150.331 221.042 150.244 221.175C150.157 221.308 150.119 221.467 150.135 221.624C150.152 221.782 150.222 221.93 150.335 222.041C150.448 222.153 150.596 222.222 150.754 222.237C150.887 222.25 151.014 222.302 151.118 222.386C151.223 222.469 151.301 222.582 151.342 222.709C151.384 222.837 151.387 222.974 151.352 223.103C151.316 223.232 151.244 223.348 151.144 223.437C151.025 223.542 150.946 223.685 150.92 223.842C150.895 223.999 150.924 224.159 151.004 224.297C151.083 224.434 151.207 224.54 151.356 224.596C151.504 224.652 151.668 224.655 151.818 224.605C151.945 224.562 152.082 224.558 152.211 224.592C152.341 224.626 152.458 224.697 152.547 224.797C152.637 224.896 152.696 225.02 152.716 225.152C152.736 225.285 152.718 225.42 152.662 225.542C152.596 225.687 152.583 225.849 152.623 226.002C152.664 226.156 152.756 226.29 152.884 226.384C153.012 226.477 153.169 226.523 153.327 226.514C153.485 226.505 153.636 226.442 153.753 226.335C153.851 226.244 153.974 226.185 154.106 226.163C154.239 226.141 154.374 226.159 154.496 226.213C154.619 226.267 154.723 226.356 154.795 226.469C154.868 226.581 154.906 226.712 154.906 226.846C154.903 227.006 154.956 227.161 155.055 227.286C155.154 227.411 155.294 227.498 155.45 227.531C155.607 227.564 155.769 227.542 155.911 227.468C156.053 227.394 156.164 227.273 156.226 227.126C156.28 227.003 156.368 226.899 156.48 226.825C156.592 226.752 156.723 226.713 156.857 226.713C156.991 226.713 157.122 226.752 157.234 226.825C157.346 226.899 157.435 227.003 157.488 227.126C157.551 227.273 157.662 227.393 157.804 227.467C157.945 227.54 158.108 227.562 158.264 227.529C158.419 227.496 158.559 227.41 158.658 227.285C158.758 227.161 158.811 227.005 158.809 226.846C158.808 226.713 158.847 226.582 158.919 226.47C158.992 226.358 159.095 226.27 159.217 226.216C159.339 226.161 159.474 226.144 159.606 226.165C159.738 226.186 159.86 226.245 159.959 226.335C160.076 226.442 160.226 226.506 160.385 226.515C160.543 226.524 160.7 226.478 160.829 226.385C160.957 226.292 161.049 226.157 161.09 226.003C161.13 225.849 161.116 225.687 161.05 225.542C160.994 225.42 160.975 225.285 160.996 225.152C161.016 225.02 161.075 224.896 161.164 224.797C161.254 224.697 161.371 224.626 161.501 224.592C161.63 224.558 161.767 224.562 161.894 224.605C162.045 224.655 162.208 224.652 162.356 224.596C162.504 224.539 162.629 224.434 162.708 224.296C162.787 224.159 162.817 223.998 162.791 223.842C162.766 223.685 162.687 223.542 162.568 223.437C162.468 223.348 162.395 223.232 162.36 223.103C162.325 222.974 162.328 222.837 162.37 222.709C162.411 222.582 162.489 222.469 162.593 222.386C162.698 222.302 162.825 222.25 162.958 222.237C163.115 222.222 163.262 222.153 163.375 222.041C163.487 221.93 163.557 221.783 163.574 221.626C163.591 221.469 163.553 221.311 163.467 221.178C163.381 221.045 163.252 220.946 163.102 220.898ZM156.859 224.777C156.084 224.777 155.325 224.547 154.68 224.116C154.035 223.685 153.532 223.072 153.235 222.355C152.938 221.638 152.86 220.85 153.012 220.089C153.163 219.328 153.537 218.629 154.085 218.08C154.634 217.531 155.333 217.158 156.094 217.006C156.855 216.855 157.644 216.933 158.361 217.23C159.078 217.527 159.69 218.029 160.121 218.674C160.552 219.32 160.783 220.078 160.783 220.854C160.783 221.369 160.681 221.879 160.484 222.355C160.287 222.831 159.998 223.264 159.634 223.628C159.269 223.992 158.837 224.281 158.361 224.479C157.885 224.676 157.375 224.777 156.859 224.777Z" fill="#F68B22"/>
<path d="M137.852 62.134C137.852 62.3735 137.899 62.6107 137.991 62.832C138.083 63.0532 138.217 63.2543 138.386 63.4237C138.556 63.5931 138.757 63.7274 138.978 63.8191C139.199 63.9107 139.436 63.9579 139.676 63.9579H146.256C146.439 63.9579 146.614 64.0305 146.743 64.1597C146.872 64.2889 146.945 64.4641 146.945 64.6468C146.945 64.8295 146.872 65.0048 146.743 65.134C146.614 65.2632 146.439 65.3357 146.256 65.3357H145.287C144.971 65.3357 144.669 65.4611 144.445 65.6841C144.222 65.9072 144.097 66.2098 144.097 66.5253V66.5883C144.097 66.9038 144.222 67.2064 144.445 67.4295C144.669 67.6525 144.971 67.7779 145.287 67.7779H158.099C158.414 67.7779 158.717 67.6525 158.94 67.4295C159.163 67.2064 159.288 66.9038 159.288 66.5883C159.288 66.2728 159.163 65.9702 158.94 65.7471C158.717 65.5239 158.414 65.3985 158.099 65.3984H149.362C149.271 65.3984 149.182 65.3807 149.098 65.3461C149.015 65.3115 148.939 65.2608 148.875 65.1969C148.811 65.1329 148.76 65.057 148.725 64.9735C148.691 64.8899 148.673 64.8003 148.673 64.7099V64.6468C148.673 64.4641 148.745 64.2889 148.875 64.1597C149.004 64.0305 149.179 63.9579 149.362 63.9579H153.072C153.311 63.9579 153.549 63.9107 153.77 63.8191C153.991 63.7274 154.192 63.5931 154.362 63.4237C154.531 63.2543 154.665 63.0532 154.757 62.832C154.849 62.6107 154.896 62.3735 154.896 62.134C154.896 61.6502 154.704 61.1863 154.362 60.8443C154.019 60.5022 153.556 60.3101 153.072 60.3101H139.676C139.437 60.31 139.2 60.3571 138.978 60.4488C138.757 60.5404 138.556 60.6748 138.386 60.8441C138.217 61.0135 138.083 61.2146 137.991 61.4359C137.899 61.6572 137.852 61.8944 137.852 62.134Z" fill="#FAFAFA"/>
<path d="M140.78 62.1334C140.78 62.3581 140.714 62.5777 140.589 62.7645C140.464 62.9512 140.287 63.0968 140.079 63.1828C139.872 63.2688 139.643 63.2913 139.423 63.2474C139.202 63.2036 139 63.0954 138.841 62.9366C138.682 62.7777 138.574 62.5753 138.53 62.355C138.487 62.1347 138.509 61.9063 138.595 61.6987C138.681 61.4912 138.827 61.3138 139.013 61.189C139.2 61.0642 139.42 60.9976 139.644 60.9976C139.946 60.9976 140.235 61.1172 140.448 61.3302C140.661 61.5433 140.78 61.8322 140.78 62.1334Z" fill="white"/>
<path d="M151.706 249.564C200.65 249.564 240.327 245.606 240.327 240.724C240.327 235.842 200.65 231.884 151.706 231.884C102.763 231.884 63.0859 235.842 63.0859 240.724C63.0859 245.606 102.763 249.564 151.706 249.564Z" fill="black" fill-opacity="0.12"/>
</svg>
