<svg width="313" height="279" viewBox="0 0 313 279" fill="none" xmlns="http://www.w3.org/2000/svg">
<path fill-rule="evenodd" clip-rule="evenodd" d="M80 274.453C73.43 273.033 -5.50475 260.231 0.305412 165.823C6.11557 71.4156 13.4097 43.0246 44.0979 32.6353C74.786 22.246 149.385 -26.903 207.924 19.8323C244.103 48.7143 301.743 108.35 306.119 123.126C310.496 137.902 319.638 166.255 304.562 183.106C265.094 227.216 275.391 282.618 209.99 278.814C144.589 275.01 111.238 281.212 79.9989 274.453" fill="#F9F9F9"/>
<path d="M77.9633 114.116H50.1434C49.7334 114.122 49.3263 114.046 48.9459 113.893C48.5654 113.74 48.2192 113.512 47.9273 113.224C47.6354 112.936 47.4036 112.593 47.2454 112.215C47.0871 111.837 47.0057 111.431 47.0057 111.021C47.0057 110.611 47.0871 110.205 47.2454 109.826C47.4036 109.448 47.6354 109.105 47.9273 108.817C48.2192 108.529 48.5654 108.302 48.9459 108.149C49.3263 107.996 49.7334 107.92 50.1434 107.925H53.2017C53.6117 107.931 54.0187 107.855 54.3992 107.702C54.7796 107.549 55.1258 107.321 55.4178 107.033C55.7097 106.745 55.9415 106.402 56.0997 106.024C56.2579 105.646 56.3394 105.24 56.3394 104.83C56.3394 104.42 56.2579 104.014 56.0997 103.635C55.9415 103.257 55.7097 102.914 55.4178 102.626C55.1258 102.338 54.7796 102.111 54.3992 101.958C54.0187 101.805 53.6117 101.729 53.2017 101.734H34.498C34.088 101.729 33.6809 101.805 33.3005 101.958C32.9201 102.111 32.5738 102.338 32.2819 102.626C31.99 102.914 31.7582 103.257 31.6 103.635C31.4418 104.014 31.3603 104.42 31.3603 104.83C31.3603 105.24 31.4418 105.646 31.6 106.024C31.7582 106.402 31.99 106.745 32.2819 107.033C32.5738 107.321 32.9201 107.549 33.3005 107.702C33.6809 107.855 34.088 107.931 34.498 107.925H37.4051C37.8151 107.92 38.2222 107.996 38.6026 108.149C38.9831 108.302 39.3293 108.529 39.6212 108.817C39.9131 109.105 40.1449 109.448 40.3031 109.826C40.4614 110.205 40.5428 110.611 40.5428 111.021C40.5428 111.431 40.4614 111.837 40.3031 112.215C40.1449 112.593 39.9131 112.936 39.6212 113.224C39.3293 113.512 38.9831 113.74 38.6026 113.893C38.2222 114.046 37.8151 114.122 37.4051 114.116H28.8231C28.002 114.116 27.2145 114.442 26.6339 115.023C26.0532 115.604 25.7271 116.391 25.7271 117.212C25.7271 118.033 26.0532 118.821 26.6339 119.401C27.2145 119.982 28.002 120.308 28.8231 120.308H48.3804C49.1941 120.319 49.9707 120.65 50.5423 121.23C51.1138 121.809 51.4342 122.59 51.4342 123.404C51.4342 124.217 51.1138 124.999 50.5423 125.578C49.9707 126.157 49.1941 126.488 48.3804 126.499H44.8532C44.4432 126.494 44.0362 126.57 43.6557 126.723C43.2753 126.876 42.9291 127.103 42.6371 127.391C42.3452 127.679 42.1134 128.022 41.9552 128.4C41.797 128.779 41.7155 129.185 41.7155 129.595C41.7155 130.005 41.797 130.411 41.9552 130.789C42.1134 131.167 42.3452 131.51 42.6371 131.798C42.9291 132.086 43.2753 132.314 43.6557 132.467C44.0362 132.62 44.4432 132.696 44.8532 132.69H66.9504C67.3605 132.696 67.7675 132.62 68.148 132.467C68.5284 132.314 68.8746 132.086 69.1666 131.798C69.4585 131.51 69.6903 131.167 69.8485 130.789C70.0067 130.411 70.0882 130.005 70.0882 129.595C70.0882 129.185 70.0067 128.779 69.8485 128.4C69.6903 128.022 69.4585 127.679 69.1666 127.391C68.8746 127.103 68.5284 126.876 68.148 126.723C67.7675 126.57 67.3605 126.494 66.9504 126.499H65.0601C64.6501 126.505 64.2431 126.429 63.8626 126.276C63.4822 126.123 63.136 125.896 62.844 125.608C62.5521 125.32 62.3203 124.976 62.1621 124.598C62.0039 124.22 61.9224 123.814 61.9224 123.404C61.9224 122.994 62.0039 122.588 62.1621 122.209C62.3203 121.831 62.5521 121.488 62.844 121.2C63.136 120.912 63.4822 120.685 63.8626 120.532C64.2431 120.379 64.6501 120.303 65.0601 120.308H77.9615C78.7827 120.308 79.5702 119.982 80.1508 119.401C80.7314 118.821 81.0576 118.033 81.0576 117.212C81.0576 116.391 80.7314 115.604 80.1508 115.023C79.5702 114.442 78.7827 114.116 77.9615 114.116H77.9633Z" stroke="#E8E8E8" stroke-width="3" stroke-linecap="round" stroke-linejoin="round"/>
<path d="M231.721 194.312H239.28C240.102 194.312 240.889 194.639 241.47 195.219C242.05 195.8 242.376 196.587 242.376 197.409C242.376 198.23 242.05 199.017 241.47 199.598C240.889 200.178 240.102 200.505 239.28 200.505H235.75C234.93 200.505 234.142 200.831 233.562 201.411C232.981 201.992 232.655 202.779 232.655 203.6C232.655 204.421 232.981 205.208 233.562 205.788C234.142 206.369 234.93 206.695 235.75 206.695H257.854C258.675 206.695 259.462 206.369 260.043 205.788C260.623 205.208 260.949 204.421 260.949 203.6C260.949 202.779 260.623 201.992 260.043 201.411C259.462 200.831 258.675 200.505 257.854 200.505H255.962C255.141 200.505 254.353 200.178 253.773 199.598C253.192 199.017 252.866 198.23 252.866 197.409C252.866 196.587 253.192 195.8 253.773 195.219C254.353 194.639 255.141 194.312 255.962 194.312H272.981C273.802 194.312 274.59 193.986 275.17 193.406C275.751 192.825 276.077 192.038 276.077 191.217C276.077 190.396 275.751 189.609 275.17 189.029C274.59 188.448 273.802 188.122 272.981 188.122H231.72C230.899 188.122 230.112 188.448 229.531 189.029C228.951 189.609 228.625 190.396 228.625 191.217C228.625 192.038 228.951 192.825 229.531 193.406C230.112 193.986 230.899 194.312 231.72 194.312H231.721Z" stroke="#E8E8E8" stroke-width="3" stroke-linecap="round" stroke-linejoin="round"/>
<path opacity="0.49" d="M210.037 84.0154V211.37C210.038 211.946 209.925 212.516 209.705 213.047C209.485 213.579 209.162 214.062 208.756 214.469C208.349 214.877 207.866 215.2 207.334 215.42C206.803 215.64 206.233 215.754 205.658 215.754H99.5541C98.9787 215.754 98.4089 215.64 97.8774 215.42C97.3459 215.199 96.8629 214.876 96.4562 214.469C96.0495 214.062 95.727 213.579 95.5071 213.047C95.2871 212.516 95.174 211.946 95.1743 211.37V84.0154C95.174 83.44 95.2871 82.8701 95.5071 82.3383C95.727 81.8066 96.0495 81.3234 96.4562 80.9163C96.8629 80.5092 97.3459 80.1862 97.8774 79.9657C98.4089 79.7452 98.9787 79.6316 99.5541 79.6313H205.658C206.233 79.6316 206.803 79.7452 207.334 79.9657C207.866 80.1862 208.349 80.5092 208.755 80.9163C209.162 81.3234 209.485 81.8066 209.705 82.3383C209.925 82.8701 210.038 83.44 210.037 84.0154Z" fill="#CCCCCC"/>
<path d="M205.777 79.7551V207.11C205.777 207.685 205.664 208.255 205.444 208.787C205.225 209.319 204.902 209.802 204.495 210.209C204.089 210.616 203.606 210.939 203.074 211.16C202.543 211.38 201.973 211.494 201.397 211.494H95.2939C94.7184 211.494 94.1487 211.38 93.6171 211.16C93.0856 210.939 92.6027 210.616 92.196 210.209C91.7893 209.802 91.4668 209.319 91.2468 208.787C91.0269 208.255 90.9138 207.685 90.9141 207.11V79.7551C90.9138 79.1797 91.0269 78.6098 91.2468 78.0781C91.4668 77.5463 91.7893 77.0631 92.196 76.656C92.6027 76.2489 93.0856 75.9259 93.6171 75.7055C94.1487 75.485 94.7184 75.3714 95.2939 75.3711H201.397C201.973 75.3714 202.543 75.485 203.074 75.7055C203.606 75.9259 204.088 76.2489 204.495 76.656C204.902 77.0631 205.224 77.5463 205.444 78.0781C205.664 78.6098 205.777 79.1797 205.777 79.7551Z" fill="#E8E8E8"/>
<path d="M199.488 91.5024H97.1865V104.574H199.488V91.5024Z" fill="#ED6C60" fill-opacity="0.3"/>
<path d="M104.575 93.7759H106.712C107.568 93.7759 108.22 94.0108 108.667 94.4806C109.121 94.9505 109.349 95.5756 109.349 96.3562V99.4707C109.349 100.986 108.546 101.744 106.939 101.744H104.575V93.7759ZM108.098 96.2425C108.098 95.8257 107.992 95.5226 107.78 95.3331C107.576 95.1361 107.257 95.0376 106.825 95.0376H105.825V100.596H106.757C107.166 100.596 107.492 100.535 107.735 100.414C107.977 100.285 108.098 100.009 108.098 99.5843V96.2425Z" fill="#ED6B5F"/>
<path d="M110.58 93.7872H114.377V95.0376H111.83V97.0495H113.388L113.035 98.243H111.83V100.607H114.354V101.744H110.58V93.7872Z" fill="#ED6B5F"/>
<path d="M115.864 93.7872H117.114V100.596H119.967V101.744H115.864V93.7872Z" fill="#ED6B5F"/>
<path d="M120.87 93.7872H124.667V95.0376H122.12V97.0495H123.678L123.325 98.243H122.12V100.607H124.644V101.744H120.87V93.7872Z" fill="#ED6B5F"/>
<path d="M126.904 95.049H125.267V93.7872H129.837V95.049H128.155V101.744H126.904V95.049Z" fill="#ED6B5F"/>
<path d="M130.727 93.7872H134.524V95.0376H131.978V97.0495H133.535L133.183 98.243H131.978V100.607H134.501V101.744H130.727V93.7872Z" fill="#ED6B5F"/>
<path d="M136.011 93.7759H138.148C139.004 93.7759 139.656 94.0108 140.103 94.4806C140.558 94.9505 140.785 95.5756 140.785 96.3562V99.4707C140.785 100.986 139.982 101.744 138.375 101.744H136.011V93.7759ZM139.535 96.2425C139.535 95.8257 139.429 95.5226 139.217 95.3331C139.012 95.1361 138.694 95.0376 138.262 95.0376H137.261V100.596H138.194C138.603 100.596 138.929 100.535 139.171 100.414C139.414 100.285 139.535 100.009 139.535 99.5843V96.2425Z" fill="#ED6B5F"/>
<path d="M192.184 130.893V168.113C192.184 168.368 192.134 168.621 192.037 168.856C191.939 169.092 191.796 169.306 191.615 169.487C191.435 169.667 191.221 169.81 190.985 169.908C190.749 170.005 190.497 170.056 190.241 170.056H105.832C105.485 170.056 105.146 169.963 104.847 169.787C104.668 169.489 104.574 169.147 104.575 168.799V131.579C104.574 131.064 104.778 130.571 105.142 130.206C105.505 129.842 105.999 129.637 106.513 129.636H190.926C191.1 129.592 191.283 129.593 191.456 129.641C191.628 129.688 191.786 129.78 191.913 129.907C192.04 130.033 192.131 130.191 192.179 130.364C192.226 130.537 192.228 130.719 192.183 130.893H192.184Z" fill="white"/>
<path d="M148.618 179.45V200.463C148.616 200.836 148.466 201.193 148.202 201.457C147.939 201.721 147.581 201.871 147.208 201.873H95.8394C95.6542 201.873 95.4708 201.837 95.2996 201.766C95.1285 201.695 94.973 201.591 94.842 201.46C94.711 201.329 94.6072 201.174 94.5363 201.003C94.4655 200.832 94.4291 200.648 94.4292 200.463V179.45C94.4281 179.218 94.4852 178.99 94.5954 178.786C94.7157 178.56 94.895 178.372 95.1141 178.241C95.3333 178.109 95.584 178.04 95.8394 178.04H147.208C147.393 178.04 147.577 178.076 147.748 178.147C147.919 178.218 148.075 178.322 148.206 178.453C148.337 178.584 148.441 178.739 148.511 178.91C148.582 179.082 148.619 179.265 148.618 179.45Z" fill="#E0E0E0"/>
<path d="M148.26 179.744V201.294C148.261 201.33 148.259 201.365 148.256 201.4C148.125 201.55 147.964 201.669 147.783 201.751C147.602 201.832 147.406 201.874 147.208 201.873H95.839C95.6537 201.873 95.4703 201.837 95.2992 201.766C95.128 201.695 94.9725 201.592 94.8415 201.461C94.7106 201.33 94.6067 201.174 94.5358 201.003C94.465 200.832 94.4286 200.648 94.4287 200.463V179.45C94.4276 179.218 94.4847 178.99 94.5949 178.786C94.779 178.667 94.9934 178.603 95.2127 178.603H147.118C147.421 178.603 147.712 178.723 147.926 178.937C148.14 179.151 148.26 179.442 148.26 179.744Z" fill="white"/>
<path d="M202.414 179.45V200.463C202.412 200.836 202.262 201.193 201.998 201.457C201.734 201.721 201.377 201.871 201.004 201.873H152.191C152.006 201.873 151.823 201.837 151.652 201.766C151.481 201.695 151.325 201.591 151.194 201.46C151.063 201.329 150.959 201.174 150.888 201.003C150.818 200.832 150.781 200.648 150.781 200.463V179.45C150.78 179.218 150.837 178.99 150.947 178.786C151.068 178.56 151.247 178.372 151.466 178.241C151.685 178.109 151.936 178.04 152.191 178.04H201.004C201.189 178.04 201.373 178.076 201.544 178.147C201.715 178.218 201.871 178.322 202.002 178.453C202.133 178.584 202.236 178.739 202.307 178.91C202.378 179.082 202.414 179.265 202.414 179.45Z" fill="white"/>
<path d="M202.056 179.744V201.294C202.057 201.33 202.055 201.365 202.052 201.4C201.921 201.55 201.76 201.669 201.579 201.751C201.398 201.832 201.202 201.874 201.004 201.873H152.191C152.006 201.873 151.822 201.837 151.651 201.766C151.48 201.695 151.325 201.592 151.194 201.461C151.063 201.33 150.959 201.174 150.888 201.003C150.817 200.832 150.781 200.648 150.781 200.463V179.45C150.78 179.218 150.837 178.99 150.947 178.786C151.131 178.667 151.345 178.603 151.565 178.603H200.914C201.217 178.603 201.507 178.723 201.721 178.937C201.936 179.151 202.056 179.442 202.056 179.744Z" fill="white"/>
<path d="M145.495 111.62V116.853C145.495 117.364 145.368 117.855 145.143 118.217C144.917 118.579 144.611 118.783 144.292 118.783H105.778C105.459 118.783 105.153 118.579 104.927 118.217C104.702 117.855 104.575 117.364 104.575 116.853V111.62C104.575 111.108 104.702 110.617 104.927 110.255C105.153 109.893 105.459 109.69 105.778 109.689H144.292C144.45 109.689 144.607 109.739 144.753 109.836C144.899 109.933 145.031 110.075 145.143 110.254C145.255 110.434 145.344 110.647 145.404 110.881C145.464 111.115 145.495 111.366 145.495 111.62Z" fill="#FAFAFA"/>
<path d="M200.963 80.4178C200.963 80.7704 200.858 81.1151 200.662 81.4082C200.466 81.7013 200.188 81.9298 199.862 82.0647C199.537 82.1997 199.178 82.235 198.832 82.1662C198.487 82.0974 198.169 81.9276 197.92 81.6783C197.67 81.429 197.5 81.1114 197.432 80.7656C197.363 80.4198 197.398 80.0614 197.533 79.7357C197.668 79.41 197.897 79.1315 198.19 78.9357C198.483 78.7398 198.827 78.6353 199.18 78.6353C199.653 78.6353 200.106 78.8231 200.441 79.1574C200.775 79.4917 200.963 79.9451 200.963 80.4178Z" fill="#FAFAFA"/>
<path d="M193.787 80.4178C193.787 80.7704 193.683 81.1151 193.487 81.4082C193.291 81.7013 193.013 81.9298 192.687 82.0647C192.361 82.1997 192.003 82.235 191.657 82.1662C191.311 82.0974 190.994 81.9276 190.744 81.6783C190.495 81.429 190.325 81.1114 190.256 80.7656C190.188 80.4198 190.223 80.0614 190.358 79.7357C190.493 79.41 190.721 79.1315 191.014 78.9357C191.308 78.7398 191.652 78.6353 192.005 78.6353C192.478 78.6353 192.931 78.8231 193.265 79.1574C193.6 79.4917 193.787 79.9451 193.787 80.4178Z" fill="#FAFAFA"/>
<path d="M186.612 80.4178C186.612 80.7704 186.507 81.1151 186.311 81.4082C186.115 81.7013 185.837 81.9298 185.511 82.0647C185.185 82.1997 184.827 82.235 184.481 82.1662C184.135 82.0974 183.818 81.9276 183.569 81.6783C183.319 81.429 183.149 81.1114 183.081 80.7656C183.012 80.4198 183.047 80.0614 183.182 79.7357C183.317 79.41 183.545 79.1315 183.839 78.9357C184.132 78.7398 184.476 78.6353 184.829 78.6353C185.302 78.6353 185.755 78.8231 186.089 79.1574C186.424 79.4917 186.612 79.9451 186.612 80.4178Z" fill="#FAFAFA"/>
<path d="M199.329 108.553H148.633V109.958H199.329V108.553Z" fill="#FAFAFA"/>
<path d="M199.329 111.833H148.633V113.238H199.329V111.833Z" fill="#FAFAFA"/>
<path d="M199.329 115.112H148.633V116.517H199.329V115.112Z" fill="#FAFAFA"/>
<path d="M199.329 118.392H148.633V119.798H199.329V118.392Z" fill="#FAFAFA"/>
<path d="M224.124 222.227C223.953 222.226 223.783 222.255 223.622 222.312C223.542 221.918 223.366 221.549 223.11 221.239C222.853 220.928 222.525 220.686 222.152 220.532C222.332 219.124 221.951 217.702 221.091 216.573C220.23 215.444 218.96 214.698 217.555 214.498C216.149 214.298 214.722 214.659 213.58 215.503C212.439 216.347 211.676 217.606 211.455 219.009C211.022 218.912 210.574 218.908 210.139 218.996C209.704 219.085 209.293 219.264 208.932 219.522C208.571 219.78 208.268 220.111 208.044 220.494C207.82 220.877 207.679 221.303 207.63 221.744C207.582 222.185 207.627 222.631 207.762 223.054C207.898 223.476 208.121 223.865 208.417 224.196C208.713 224.526 209.076 224.79 209.481 224.971C209.886 225.152 210.325 225.245 210.768 225.245H224.124C224.524 225.245 224.909 225.086 225.192 224.803C225.475 224.52 225.634 224.136 225.634 223.735C225.634 223.334 225.475 222.95 225.192 222.667C224.909 222.384 224.524 222.225 224.124 222.225V222.227Z" fill="#FAFAFA"/>
<path d="M65.6919 144.166H65.0021C64.8186 144.166 64.6426 144.093 64.5128 143.963C64.3831 143.833 64.3102 143.657 64.3102 143.474V142.784C64.3134 142.62 64.2602 142.459 64.1594 142.33C64.0585 142.2 63.9163 142.109 63.7563 142.072C63.6552 142.051 63.5508 142.053 63.4506 142.078C63.3505 142.103 63.257 142.149 63.1771 142.215C63.0971 142.28 63.0326 142.362 62.9882 142.455C62.9439 142.548 62.9207 142.65 62.9204 142.753V143.473C62.9204 143.657 62.8475 143.833 62.7178 143.962C62.588 144.092 62.412 144.165 62.2285 144.165H61.5387C61.3745 144.162 61.2141 144.215 61.0844 144.316C60.9548 144.417 60.8637 144.559 60.8264 144.719C60.8059 144.82 60.8081 144.925 60.8328 145.025C60.8576 145.125 60.9042 145.218 60.9694 145.298C61.0346 145.378 61.1168 145.443 61.2099 145.487C61.3031 145.531 61.4049 145.555 61.5081 145.555H62.2285C62.3194 145.555 62.4093 145.573 62.4933 145.608C62.5772 145.642 62.6535 145.693 62.7178 145.758C62.782 145.822 62.833 145.898 62.8678 145.982C62.9025 146.066 62.9204 146.156 62.9204 146.247V146.937C62.9171 147.101 62.9703 147.261 63.0712 147.391C63.172 147.521 63.3143 147.612 63.4743 147.649C63.5754 147.669 63.6798 147.667 63.78 147.642C63.8801 147.618 63.9736 147.571 64.0535 147.506C64.1335 147.441 64.198 147.359 64.2424 147.265C64.2867 147.172 64.3099 147.07 64.3102 146.967V146.247C64.3102 146.156 64.3281 146.066 64.3629 145.982C64.3976 145.898 64.4486 145.822 64.5128 145.758C64.5771 145.693 64.6534 145.642 64.7373 145.608C64.8213 145.573 64.9112 145.555 65.0021 145.555H65.7221C65.8253 145.555 65.9271 145.531 66.0202 145.487C66.1133 145.443 66.1954 145.378 66.2606 145.298C66.3257 145.218 66.3724 145.125 66.3972 145.025C66.4219 144.924 66.4242 144.82 66.4038 144.719C66.3664 144.559 66.2753 144.417 66.1457 144.316C66.0162 144.216 65.856 144.162 65.6919 144.166Z" fill="#FAFAFA"/>
<path d="M151.706 249.564C200.65 249.564 240.327 245.606 240.327 240.724C240.327 235.842 200.65 231.884 151.706 231.884C102.763 231.884 63.0859 235.842 63.0859 240.724C63.0859 245.606 102.763 249.564 151.706 249.564Z" fill="black" fill-opacity="0.12"/>
</svg>
