<svg width="316" height="281" viewBox="0 0 316 281" fill="none" xmlns="http://www.w3.org/2000/svg">
<path fill-rule="evenodd" clip-rule="evenodd" d="M80.5735 276.421C73.9564 274.99 -5.54421 262.097 0.307602 167.012C6.15941 71.9275 13.5058 43.333 44.414 32.8693C75.3221 22.4055 150.456 -27.0959 209.415 19.9744C245.853 49.0635 303.906 109.127 308.314 124.009C312.722 138.891 321.93 167.447 306.745 184.418C266.995 228.845 277.366 284.644 211.495 280.813C145.625 276.982 112.036 283.228 80.5723 276.42" fill="#F9F9F9"/>
<path d="M246.804 77.6201H75.1394V228.866H246.804V77.6201Z" fill="#DBDBDB"/>
<path d="M243.369 74.1855H71.7048V225.432H243.369V74.1855Z" fill="white"/>
<path d="M243.369 166.269H71.7048V191.823H243.369V166.269Z" fill="white"/>
<path d="M243.369 137.032H71.7048V166.27H243.369V137.032Z" fill="#F5F5F5"/>
<path d="M243.369 195.999H71.7048V225.237H243.369V195.999Z" fill="#F5F5F5"/>
<path d="M175.353 146.138C175.353 146.221 155.109 146.287 130.142 146.287C105.167 146.287 84.9265 146.221 84.9265 146.138C84.9265 146.056 105.167 145.989 130.142 145.989C155.109 145.989 175.353 146.056 175.353 146.138Z" fill="#4D4D4D"/>
<path d="M123.096 154.276C123.096 154.358 114.492 154.425 103.883 154.425C93.2729 154.425 84.6672 154.358 84.6672 154.276C84.6672 154.193 93.2684 154.127 103.883 154.127C114.497 154.127 123.096 154.195 123.096 154.276Z" fill="#4D4D4D"/>
<path d="M175.353 174.977C175.353 175.059 155.109 175.126 130.142 175.126C105.167 175.126 84.9265 175.059 84.9265 174.977C84.9265 174.895 105.167 174.828 130.142 174.828C155.109 174.828 175.353 174.895 175.353 174.977Z" fill="#4D4D4D"/>
<path d="M123.096 183.115C123.096 183.198 114.492 183.264 103.883 183.264C93.2729 183.264 84.6672 183.198 84.6672 183.115C84.6672 183.033 93.2684 182.966 103.883 182.966C114.497 182.966 123.096 183.033 123.096 183.115Z" fill="#4D4D4D"/>
<path d="M175.353 203.817C175.353 203.899 155.109 203.966 130.142 203.966C105.167 203.966 84.9265 203.899 84.9265 203.817C84.9265 203.734 105.167 203.668 130.142 203.668C155.109 203.668 175.353 203.734 175.353 203.817Z" fill="#4D4D4D"/>
<path d="M123.096 211.953C123.096 212.035 114.492 212.102 103.883 212.102C93.2729 212.102 84.6672 212.035 84.6672 211.953C84.6672 211.87 93.2684 211.804 103.883 211.804C114.497 211.804 123.096 211.873 123.096 211.953Z" fill="#4D4D4D"/>
<path d="M243.369 73.9917H71.7048V88.42H243.369V73.9917Z" fill="black" fill-opacity="0.12"/>
<path d="M243.401 225.432C243.401 224.472 243.368 166.489 243.315 73.9917L243.401 74.1096L71.8268 74.1405H71.813L71.9218 73.9917C71.9183 127.751 71.9155 178.948 71.9132 225.432L71.813 225.294L243.401 225.432L71.813 225.569H71.7134V225.432C71.7134 178.948 71.7077 127.751 71.7048 73.9917V73.8423H71.8268L243.401 73.8738H243.487V73.9917C243.434 166.489 243.402 224.472 243.401 225.432Z" fill="#263238"/>
<path d="M242.132 106.469H72.6973V132.024H242.132V106.469Z" fill="white"/>
<path d="M235.918 95.021H81.2832V108.02H235.918V95.021Z" fill="#ED6C60" fill-opacity="0.3"/>
<path d="M83.573 97.3105H85.7253C86.5877 97.3105 87.2441 97.5471 87.6944 98.0203C88.1523 98.4935 88.3813 99.1232 88.3813 99.9093V103.046C88.3813 104.573 87.5723 105.336 85.9542 105.336H83.573V97.3105ZM87.122 99.7948C87.122 99.3751 87.0151 99.0698 86.8014 98.879C86.5954 98.6805 86.2748 98.5813 85.8398 98.5813H84.8323V104.18H85.7711C86.1832 104.18 86.5114 104.118 86.7556 103.996C86.9999 103.867 87.122 103.588 87.122 103.161V99.7948Z" fill="#ED6B5F"/>
<path d="M89.6214 97.322H93.4451V98.5813H90.8807V100.608H92.4491L92.0942 101.81H90.8807V104.191H93.4222V105.336H89.6214V97.322Z" fill="#ED6B5F"/>
<path d="M94.9431 97.322H96.2024V104.18H99.0759V105.336H94.9431V97.322Z" fill="#ED6B5F"/>
<path d="M99.9852 97.322H103.809V98.5813H101.245V100.608H102.813L102.458 101.81H101.245V104.191H103.786V105.336H99.9852V97.322Z" fill="#ED6B5F"/>
<path d="M106.063 98.5928H104.414V97.322H109.016V98.5928H107.322V105.336H106.063V98.5928Z" fill="#ED6B5F"/>
<path d="M109.913 97.322H113.737V98.5813H111.172V100.608H112.741L112.386 101.81H111.172V104.191H113.714V105.336H109.913V97.322Z" fill="#ED6B5F"/>
<path d="M115.235 97.3105H117.387C118.249 97.3105 118.906 97.5471 119.356 98.0203C119.814 98.4935 120.043 99.1232 120.043 99.9093V103.046C120.043 104.573 119.234 105.336 117.616 105.336H115.235V97.3105ZM118.784 99.7948C118.784 99.3751 118.677 99.0698 118.463 98.879C118.257 98.6805 117.937 98.5813 117.502 98.5813H116.494V104.18H117.433C117.845 104.18 118.173 104.118 118.417 103.996C118.662 103.867 118.784 103.588 118.784 103.161V99.7948Z" fill="#ED6B5F"/>
<path d="M175 115.178C175 115.26 155.018 115.327 130.376 115.327C105.725 115.327 85.7473 115.26 85.7473 115.178C85.7473 115.095 105.725 115.029 130.376 115.029C155.018 115.029 175 115.096 175 115.178Z" fill="#4D4D4D"/>
<path d="M123.421 123.315C123.421 123.398 114.929 123.464 104.457 123.464C93.9852 123.464 85.4912 123.398 85.4912 123.315C85.4912 123.233 93.9807 123.166 104.457 123.166C114.934 123.166 123.421 123.233 123.421 123.315Z" fill="#4D4D4D"/>
<path d="M157.565 249.766C206.859 249.766 246.82 245.78 246.82 240.862C246.82 235.945 206.859 231.959 157.565 231.959C108.27 231.959 68.3091 235.945 68.3091 240.862C68.3091 245.78 108.27 249.766 157.565 249.766Z" fill="black" fill-opacity="0.12"/>
</svg>
