<svg width="312" height="279" viewBox="0 0 312 279" fill="none" xmlns="http://www.w3.org/2000/svg">
<path fill-rule="evenodd" clip-rule="evenodd" d="M79.7723 273.672C73.221 272.255 -5.48908 259.49 0.304543 165.351C6.09816 71.2123 13.3715 42.9021 43.9723 32.5424C74.5732 22.1827 148.96 -26.8265 207.332 19.7758C243.408 48.5756 300.884 108.041 305.248 122.776C309.612 137.51 318.729 165.782 303.695 182.584C264.34 226.569 274.607 281.814 209.392 278.021C144.177 274.228 110.922 280.412 79.7711 273.672" fill="#F9F9F9"/>
<path d="M77.7411 113.791H50.0006C49.5917 113.796 49.1858 113.721 48.8065 113.568C48.4271 113.415 48.0819 113.189 47.7908 112.902C47.4997 112.614 47.2685 112.272 47.1108 111.895C46.953 111.518 46.8718 111.113 46.8718 110.704C46.8718 110.295 46.953 109.89 47.1108 109.513C47.2685 109.136 47.4997 108.794 47.7908 108.507C48.0819 108.219 48.4271 107.993 48.8065 107.84C49.1858 107.688 49.5917 107.612 50.0006 107.617H53.0501C53.459 107.623 53.8649 107.547 54.2442 107.395C54.6236 107.242 54.9688 107.016 55.2599 106.728C55.551 106.441 55.7821 106.099 55.9399 105.722C56.0976 105.345 56.1789 104.94 56.1789 104.531C56.1789 104.122 56.0976 103.717 55.9399 103.34C55.7821 102.963 55.551 102.62 55.2599 102.333C54.9688 102.046 54.6236 101.82 54.2442 101.667C53.8649 101.514 53.459 101.439 53.0501 101.444H34.3998C33.9909 101.439 33.585 101.514 33.2057 101.667C32.8263 101.82 32.4811 102.046 32.19 102.333C31.8989 102.62 31.6678 102.963 31.51 103.34C31.3523 103.717 31.271 104.122 31.271 104.531C31.271 104.94 31.3523 105.345 31.51 105.722C31.6678 106.099 31.8989 106.441 32.19 106.728C32.4811 107.016 32.8263 107.242 33.2057 107.395C33.585 107.547 33.9909 107.623 34.3998 107.617H37.2986C37.7074 107.612 38.1133 107.688 38.4927 107.84C38.872 107.993 39.2173 108.219 39.5084 108.507C39.7995 108.794 40.0306 109.136 40.1884 109.513C40.3461 109.89 40.4273 110.295 40.4273 110.704C40.4273 111.113 40.3461 111.518 40.1884 111.895C40.0306 112.272 39.7995 112.614 39.5084 112.902C39.2173 113.189 38.872 113.415 38.4927 113.568C38.1133 113.721 37.7074 113.796 37.2986 113.791H28.741C27.9223 113.791 27.137 114.116 26.558 114.695C25.9791 115.274 25.6538 116.059 25.6538 116.878C25.6538 117.697 25.9791 118.482 26.558 119.061C27.137 119.64 27.9223 119.965 28.741 119.965H48.2426C49.054 119.976 49.8284 120.306 50.3983 120.884C50.9682 121.462 51.2877 122.24 51.2877 123.052C51.2877 123.863 50.9682 124.642 50.3983 125.22C49.8284 125.798 49.054 126.128 48.2426 126.139H44.7255C44.3166 126.133 43.9107 126.209 43.5314 126.361C43.152 126.514 42.8068 126.741 42.5157 127.028C42.2246 127.315 41.9935 127.657 41.8357 128.034C41.678 128.411 41.5967 128.816 41.5967 129.225C41.5967 129.634 41.678 130.039 41.8357 130.416C41.9935 130.793 42.2246 131.136 42.5157 131.423C42.8068 131.71 43.152 131.936 43.5314 132.089C43.9107 132.242 44.3166 132.317 44.7255 132.312H66.7597C67.1686 132.317 67.5745 132.242 67.9538 132.089C68.3332 131.936 68.6784 131.71 68.9695 131.423C69.2606 131.136 69.4917 130.793 69.6495 130.416C69.8073 130.039 69.8885 129.634 69.8885 129.225C69.8885 128.816 69.8073 128.411 69.6495 128.034C69.4917 127.657 69.2606 127.315 68.9695 127.028C68.6784 126.741 68.3332 126.514 67.9538 126.361C67.5745 126.209 67.1686 126.133 66.7597 126.139H64.8748C64.4659 126.144 64.06 126.068 63.6807 125.916C63.3014 125.763 62.9561 125.537 62.665 125.249C62.3739 124.962 62.1428 124.62 61.985 124.243C61.8273 123.866 61.746 123.461 61.746 123.052C61.746 122.643 61.8273 122.238 61.985 121.861C62.1428 121.484 62.3739 121.142 62.665 120.854C62.9561 120.567 63.3014 120.341 63.6807 120.188C64.06 120.035 64.4659 119.96 64.8748 119.965H77.7394C78.5582 119.965 79.3435 119.64 79.9224 119.061C80.5014 118.482 80.8267 117.697 80.8267 116.878C80.8267 116.059 80.5014 115.274 79.9224 114.695C79.3435 114.116 78.5582 113.791 77.7394 113.791H77.7411Z" stroke="#E8E8E8" stroke-width="3" stroke-linecap="round" stroke-linejoin="round"/>
<path d="M231.061 193.759H238.599C239.417 193.759 240.203 194.084 240.782 194.663C241.361 195.242 241.686 196.028 241.686 196.846C241.686 197.665 241.361 198.45 240.782 199.029C240.203 199.608 239.417 199.934 238.599 199.934H235.079C234.26 199.934 233.475 200.259 232.896 200.838C232.318 201.416 231.992 202.201 231.992 203.02C231.992 203.839 232.318 204.624 232.896 205.202C233.475 205.781 234.26 206.106 235.079 206.106H257.119C257.938 206.106 258.723 205.781 259.302 205.202C259.88 204.624 260.206 203.839 260.206 203.02C260.206 202.201 259.88 201.416 259.302 200.838C258.723 200.259 257.938 199.934 257.119 199.934H255.233C254.414 199.934 253.629 199.608 253.05 199.029C252.471 198.45 252.145 197.665 252.145 196.846C252.145 196.028 252.471 195.242 253.05 194.663C253.629 194.084 254.414 193.759 255.233 193.759H272.204C273.022 193.759 273.807 193.434 274.386 192.855C274.965 192.276 275.29 191.491 275.29 190.673C275.29 189.854 274.965 189.069 274.386 188.49C273.807 187.912 273.022 187.586 272.204 187.586H231.06C230.241 187.586 229.456 187.912 228.877 188.49C228.298 189.069 227.973 189.854 227.973 190.673C227.973 191.491 228.298 192.276 228.877 192.855C229.456 193.434 230.241 193.759 231.06 193.759H231.061Z" stroke="#E8E8E8" stroke-width="3" stroke-linecap="round" stroke-linejoin="round"/>
<path d="M237.359 74.582H67.4014V224.324H237.359V74.582Z" fill="#DBDBDB"/>
<path d="M233.958 71.1812H64.001V220.923H233.958V71.1812Z" fill="white"/>
<g opacity="0.2">
<path opacity="0.2" d="M127.776 104.257C128.86 104.257 129.739 103.374 129.739 102.284C129.739 101.195 128.86 100.312 127.776 100.312C126.692 100.312 125.812 101.195 125.812 102.284C125.812 103.374 126.692 104.257 127.776 104.257Z" fill="#EC3725"/>
<path opacity="0.2" d="M104.998 176.019L102.671 176.266L102.184 178.564L104.21 179.742L105.95 178.167L104.998 176.019Z" fill="#EC3725"/>
<path opacity="0.2" d="M104.129 129.074H100.301V132.92H104.129V129.074Z" fill="#EC3725"/>
<path opacity="0.2" d="M94.7134 150.979L94.2285 154.185L97.2331 153.004L94.7134 150.979Z" fill="#EC3725"/>
<path opacity="0.2" d="M165.423 105.756L162.458 107.476L165.423 109.197V105.756Z" fill="#EC3725"/>
<path opacity="0.2" d="M193.02 131.551L192.437 129.744H190.544L189.96 131.551L191.49 132.669L193.02 131.551Z" fill="#EC3725"/>
<path opacity="0.2" d="M191.883 188.684L187.312 190.206L188.826 194.798L193.398 193.277L191.883 188.684Z" fill="#EC3725"/>
<path opacity="0.2" d="M188.88 157.683L184.214 159.835L188.403 162.818L188.88 157.683Z" fill="#EC3725"/>
<path opacity="0.2" d="M108.679 194.741L105.714 196.461L108.679 198.181V194.741Z" fill="#EC3725"/>
</g>
<path d="M233.958 70.9893H64.001V85.2741H233.958V70.9893Z" fill="black" fill-opacity="0.12"/>
<path d="M233.958 83.9238H64.001V98.2087H233.958V83.9238Z" fill="#F5F5F5"/>
<path d="M225.637 104.278H72.54V117.148H225.637V104.278Z" fill="#ED6C60" fill-opacity="0.3"/>
<path d="M74.8071 106.545H76.938C77.7919 106.545 78.4417 106.779 78.8875 107.248C79.3409 107.716 79.5676 108.34 79.5676 109.118V112.223C79.5676 113.735 78.7666 114.49 77.1647 114.49H74.8071V106.545ZM78.3208 109.005C78.3208 108.589 78.215 108.287 78.0035 108.098C77.7994 107.901 77.4821 107.803 77.0514 107.803H76.0539V113.346H76.9833C77.3914 113.346 77.7163 113.285 77.9581 113.164C78.1999 113.036 78.3208 112.76 78.3208 112.337V109.005Z" fill="#ED6B5F"/>
<path d="M80.7954 106.556H84.5811V107.803H82.0422V109.809H83.595L83.2436 110.999H82.0422V113.357H84.5584V114.49H80.7954V106.556Z" fill="#ED6B5F"/>
<path d="M86.0641 106.556H87.3109V113.346H90.1559V114.49H86.0641V106.556Z" fill="#ED6B5F"/>
<path d="M91.0562 106.556H94.8419V107.803H92.303V109.809H93.8558L93.5044 110.999H92.303V113.357H94.8192V114.49H91.0562V106.556Z" fill="#ED6B5F"/>
<path d="M97.073 107.814H95.4408V106.556H99.9973V107.814H98.3198V114.49H97.073V107.814Z" fill="#ED6B5F"/>
<path d="M100.885 106.556H104.671V107.803H102.132V109.809H103.685L103.334 110.999H102.132V113.357H104.648V114.49H100.885V106.556Z" fill="#ED6B5F"/>
<path d="M106.154 106.545H108.285C109.139 106.545 109.789 106.779 110.234 107.248C110.688 107.716 110.915 108.34 110.915 109.118V112.223C110.915 113.735 110.114 114.49 108.512 114.49H106.154V106.545ZM109.668 109.005C109.668 108.589 109.562 108.287 109.35 108.098C109.146 107.901 108.829 107.803 108.398 107.803H107.401V113.346H108.33C108.738 113.346 109.063 113.285 109.305 113.164C109.547 113.036 109.668 112.76 109.668 112.337V109.005Z" fill="#ED6B5F"/>
<path d="M74.2356 77.685C74.2356 78.0399 74.1304 78.3869 73.9331 78.6821C73.7359 78.9773 73.4556 79.2073 73.1277 79.3431C72.7997 79.479 72.4388 79.5145 72.0907 79.4453C71.7425 79.376 71.4227 79.2051 71.1717 78.9541C70.9207 78.7031 70.7497 78.3833 70.6805 78.0351C70.6112 77.6869 70.6468 77.3261 70.7826 76.9981C70.9185 76.6701 71.1485 76.3898 71.4437 76.1926C71.7388 75.9954 72.0858 75.8901 72.4408 75.8901C72.9168 75.8901 73.3733 76.0792 73.7099 76.4158C74.0465 76.7524 74.2356 77.2089 74.2356 77.685Z" fill="#4D4D4D"/>
<path d="M80.8157 77.685C80.8157 78.04 80.7104 78.387 80.5132 78.6822C80.3159 78.9773 80.0356 79.2074 79.7076 79.3432C79.3796 79.479 79.0187 79.5145 78.6705 79.4452C78.3224 79.3759 78.0026 79.2049 77.7516 78.9539C77.5006 78.7028 77.3297 78.383 77.2605 78.0348C77.1913 77.6866 77.2269 77.3257 77.3629 76.9977C77.4988 76.6698 77.7289 76.3895 78.0242 76.1923C78.3194 75.9952 78.6665 75.89 79.0215 75.8901C79.2571 75.8901 79.4905 75.9366 79.7082 76.0268C79.9259 76.117 80.1238 76.2492 80.2904 76.4159C80.457 76.5825 80.5892 76.7804 80.6793 76.9981C80.7694 77.2159 80.8158 77.4493 80.8157 77.685Z" fill="#4D4D4D"/>
<path d="M87.3963 77.685C87.3963 78.0399 87.291 78.3869 87.0938 78.6821C86.8966 78.9773 86.6163 79.2073 86.2883 79.3431C85.9603 79.479 85.5995 79.5145 85.2513 79.4453C84.9031 79.376 84.5833 79.2051 84.3323 78.9541C84.0813 78.7031 83.9104 78.3833 83.8411 78.0351C83.7719 77.6869 83.8074 77.3261 83.9433 76.9981C84.0791 76.6701 84.3092 76.3898 84.6043 76.1926C84.8995 75.9954 85.2465 75.8901 85.6015 75.8901C86.0775 75.8901 86.534 76.0792 86.8706 76.4158C87.2072 76.7524 87.3963 77.2089 87.3963 77.685Z" fill="#4D4D4D"/>
<path d="M233.99 220.923C233.99 219.973 233.957 162.567 233.905 70.9892L233.99 71.106L64.1222 71.1366H64.1086L64.2163 70.9892C64.2129 124.214 64.21 174.902 64.2078 220.923L64.1086 220.787L233.99 220.923L64.1086 221.059H64.01V220.923C64.01 174.902 64.0043 124.214 64.0015 70.9892V70.8413H64.1222L233.99 70.8725H234.075V70.9892C234.023 162.567 233.991 219.974 233.99 220.923Z" fill="#263238"/>
<g filter="url(#filter0_d_56_3036)">
<path d="M111.194 129.214H88.5987C88.1809 129.214 87.8423 129.553 87.8423 129.971V152.577C87.8423 152.995 88.1809 153.333 88.5987 153.333H111.194C111.612 153.333 111.951 152.995 111.951 152.577V129.971C111.951 129.553 111.612 129.214 111.194 129.214Z" fill="#E8E8E8"/>
</g>
<g filter="url(#filter1_d_56_3036)">
<path d="M192.864 179.395V143.095H175.505V179.395H192.864Z" fill="#F68B22"/>
</g>
<g filter="url(#filter2_d_56_3036)">
<path d="M156.628 123.547H135.119C134.402 123.547 133.82 124.129 133.82 124.847V136.167C133.82 136.885 134.402 137.467 135.119 137.467H156.628C157.346 137.467 157.928 136.885 157.928 136.167V124.847C157.928 124.129 157.346 123.547 156.628 123.547Z" fill="#E8E8E8"/>
</g>
<g filter="url(#filter3_d_56_3036)">
<path d="M190.684 139.262H186.672C186.254 139.262 185.916 139.601 185.916 140.018V144.17C185.916 144.588 186.254 144.927 186.672 144.927H190.684C191.102 144.927 191.44 144.588 191.44 144.17V140.018C191.44 139.601 191.102 139.262 190.684 139.262Z" fill="white"/>
</g>
<g filter="url(#filter4_d_56_3036)">
<path d="M190.684 177.352H186.672C186.254 177.352 185.916 177.691 185.916 178.109V182.26C185.916 182.678 186.254 183.017 186.672 183.017H190.684C191.102 183.017 191.44 182.678 191.44 182.26V178.109C191.44 177.691 191.102 177.352 190.684 177.352Z" fill="white"/>
</g>
<g filter="url(#filter5_d_56_3036)">
<path d="M156.628 145.067H135.119C134.402 145.067 133.82 145.649 133.82 146.367V157.687C133.82 158.405 134.402 158.987 135.119 158.987H156.628C157.346 158.987 157.928 158.405 157.928 157.687V146.367C157.928 145.649 157.346 145.067 156.628 145.067Z" fill="#E8E8E8"/>
</g>
<g filter="url(#filter6_d_56_3036)">
<path d="M111.194 171.718H88.5987C88.1809 171.718 87.8423 172.057 87.8423 172.475V195.081C87.8423 195.499 88.1809 195.837 88.5987 195.837H111.194C111.612 195.837 111.951 195.499 111.951 195.081V172.475C111.951 172.057 111.612 171.718 111.194 171.718Z" fill="#E6E6E6"/>
</g>
<path d="M116.297 141.584L128.887 128.071H131.475" stroke="#414242" stroke-width="0.969" stroke-miterlimit="10"/>
<path d="M208.095 156.982H206.069L196.214 148.65V148.596L206.069 140.264H208.095" stroke="#414242" stroke-width="0.708" stroke-miterlimit="10"/>
<path d="M116.297 141.301L128.887 154.813H131.475" stroke="#414242" stroke-width="0.969" stroke-miterlimit="10"/>
<g filter="url(#filter7_d_56_3036)">
<path d="M127.075 132.44H119.665C119.424 132.44 119.228 132.636 119.228 132.878V136.851C119.228 137.092 119.424 137.288 119.665 137.288H127.075C127.317 137.288 127.513 137.092 127.513 136.851V132.878C127.513 132.636 127.317 132.44 127.075 132.44Z" fill="#F68B22"/>
</g>
<g filter="url(#filter8_d_56_3036)">
<path d="M216.994 137.84H209.584C209.342 137.84 209.146 138.036 209.146 138.278V142.251C209.146 142.493 209.342 142.689 209.584 142.689H216.994C217.236 142.689 217.432 142.493 217.432 142.251V138.278C217.432 138.036 217.236 137.84 216.994 137.84Z" fill="#E8E8E8"/>
</g>
<g filter="url(#filter9_d_56_3036)">
<path d="M127.075 145.638H119.665C119.424 145.638 119.228 145.834 119.228 146.076V150.048C119.228 150.29 119.424 150.486 119.665 150.486H127.075C127.317 150.486 127.513 150.29 127.513 150.048V146.076C127.513 145.834 127.317 145.638 127.075 145.638Z" fill="#F68B22"/>
</g>
<g filter="url(#filter10_d_56_3036)">
<path d="M216.994 153.98H209.584C209.342 153.98 209.146 154.177 209.146 154.418V158.391C209.146 158.633 209.342 158.829 209.584 158.829H216.994C217.236 158.829 217.432 158.633 217.432 158.391V154.418C217.432 154.177 217.236 153.98 216.994 153.98Z" fill="#E8E8E8"/>
</g>
<path d="M208.095 181.886H206.069L196.214 173.554V173.5L206.069 165.168H208.095" stroke="#414242" stroke-width="0.708" stroke-miterlimit="10"/>
<g filter="url(#filter11_d_56_3036)">
<path d="M216.994 162.744H209.584C209.342 162.744 209.146 162.94 209.146 163.182V167.154C209.146 167.396 209.342 167.592 209.584 167.592H216.994C217.236 167.592 217.432 167.396 217.432 167.154V163.182C217.432 162.94 217.236 162.744 216.994 162.744Z" fill="#E8E8E8"/>
</g>
<g filter="url(#filter12_d_56_3036)">
<path d="M216.994 178.884H209.584C209.342 178.884 209.146 179.08 209.146 179.322V183.294C209.146 183.536 209.342 183.732 209.584 183.732H216.994C217.236 183.732 217.432 183.536 217.432 183.294V179.322C217.432 179.08 217.236 178.884 216.994 178.884Z" fill="#E8E8E8"/>
</g>
<g filter="url(#filter13_d_56_3036)">
<path d="M156.628 165.776H135.119C134.402 165.776 133.82 166.358 133.82 167.077V178.396C133.82 179.114 134.402 179.696 135.119 179.696H156.628C157.346 179.696 157.928 179.114 157.928 178.396V167.077C157.928 166.358 157.346 165.776 156.628 165.776Z" fill="#E8E8E8"/>
</g>
<g filter="url(#filter14_d_56_3036)">
<path d="M156.628 187.296H135.119C134.402 187.296 133.82 187.879 133.82 188.597V199.916C133.82 200.634 134.402 201.216 135.119 201.216H156.628C157.346 201.216 157.928 200.634 157.928 199.916V188.597C157.928 187.879 157.346 187.296 156.628 187.296Z" fill="#E8E8E8"/>
</g>
<path d="M116.297 183.815L128.887 170.302H131.475" stroke="#414242" stroke-width="0.969" stroke-miterlimit="10"/>
<path d="M116.297 183.535L128.887 197.048H131.475" stroke="#414242" stroke-width="0.969" stroke-miterlimit="10"/>
<g filter="url(#filter15_d_56_3036)">
<path d="M127.075 174.675H119.665C119.424 174.675 119.228 174.871 119.228 175.113V179.085C119.228 179.327 119.424 179.523 119.665 179.523H127.075C127.317 179.523 127.513 179.327 127.513 179.085V175.113C127.513 174.871 127.317 174.675 127.075 174.675Z" fill="#F68B22"/>
</g>
<g filter="url(#filter16_d_56_3036)">
<path d="M127.075 187.867H119.665C119.424 187.867 119.228 188.063 119.228 188.305V192.278C119.228 192.52 119.424 192.716 119.665 192.716H127.075C127.317 192.716 127.513 192.52 127.513 192.278V188.305C127.513 188.063 127.317 187.867 127.075 187.867Z" fill="#F68B22"/>
</g>
<path d="M160.193 130.783H163.195L174.142 140.007" stroke="#414242" stroke-width="0.969" stroke-miterlimit="10"/>
<path d="M160.193 192.481H163.195L174.142 183.256" stroke="#414242" stroke-width="0.969" stroke-miterlimit="10"/>
<path d="M149.007 246.149C197.812 246.149 237.375 242.202 237.375 237.334C237.375 232.466 197.812 228.519 149.007 228.519C100.203 228.519 60.6392 232.466 60.6392 237.334C60.6392 242.202 100.203 246.149 149.007 246.149Z" fill="black" fill-opacity="0.12"/>
<defs>
<filter id="filter0_d_56_3036" x="87.8423" y="129.214" width="26.2084" height="26.7451" filterUnits="userSpaceOnUse" color-interpolation-filters="sRGB">
<feFlood flood-opacity="0" result="BackgroundImageFix"/>
<feColorMatrix in="SourceAlpha" type="matrix" values="0 0 0 0 0 0 0 0 0 0 0 0 0 0 0 0 0 0 127 0" result="hardAlpha"/>
<feOffset dx="1.05" dy="1.576"/>
<feGaussianBlur stdDeviation="0.525"/>
<feColorMatrix type="matrix" values="0 0 0 0 0 0 0 0 0 0 0 0 0 0 0 0 0 0 0.302 0"/>
<feBlend mode="normal" in2="BackgroundImageFix" result="effect1_dropShadow_56_3036"/>
<feBlend mode="normal" in="SourceGraphic" in2="effect1_dropShadow_56_3036" result="shape"/>
</filter>
<filter id="filter1_d_56_3036" x="175.505" y="143.095" width="19.7309" height="39.2643" filterUnits="userSpaceOnUse" color-interpolation-filters="sRGB">
<feFlood flood-opacity="0" result="BackgroundImageFix"/>
<feColorMatrix in="SourceAlpha" type="matrix" values="0 0 0 0 0 0 0 0 0 0 0 0 0 0 0 0 0 0 127 0" result="hardAlpha"/>
<feOffset dx="1.186" dy="1.779"/>
<feGaussianBlur stdDeviation="0.593"/>
<feColorMatrix type="matrix" values="0 0 0 0 0 0 0 0 0 0 0 0 0 0 0 0 0 0 0.302 0"/>
<feBlend mode="normal" in2="BackgroundImageFix" result="effect1_dropShadow_56_3036"/>
<feBlend mode="normal" in="SourceGraphic" in2="effect1_dropShadow_56_3036" result="shape"/>
</filter>
<filter id="filter2_d_56_3036" x="133.82" y="123.547" width="25.7044" height="15.9149" filterUnits="userSpaceOnUse" color-interpolation-filters="sRGB">
<feFlood flood-opacity="0" result="BackgroundImageFix"/>
<feColorMatrix in="SourceAlpha" type="matrix" values="0 0 0 0 0 0 0 0 0 0 0 0 0 0 0 0 0 0 127 0" result="hardAlpha"/>
<feOffset dx="0.798" dy="1.197"/>
<feGaussianBlur stdDeviation="0.399"/>
<feColorMatrix type="matrix" values="0 0 0 0 0 0 0 0 0 0 0 0 0 0 0 0 0 0 0.302 0"/>
<feBlend mode="normal" in2="BackgroundImageFix" result="effect1_dropShadow_56_3036"/>
<feBlend mode="normal" in="SourceGraphic" in2="effect1_dropShadow_56_3036" result="shape"/>
</filter>
<filter id="filter3_d_56_3036" x="185.916" y="139.262" width="6.3899" height="6.74555" filterUnits="userSpaceOnUse" color-interpolation-filters="sRGB">
<feFlood flood-opacity="0" result="BackgroundImageFix"/>
<feColorMatrix in="SourceAlpha" type="matrix" values="0 0 0 0 0 0 0 0 0 0 0 0 0 0 0 0 0 0 127 0" result="hardAlpha"/>
<feOffset dx="0.433" dy="0.649"/>
<feGaussianBlur stdDeviation="0.216"/>
<feColorMatrix type="matrix" values="0 0 0 0 0 0 0 0 0 0 0 0 0 0 0 0 0 0 0.302 0"/>
<feBlend mode="normal" in2="BackgroundImageFix" result="effect1_dropShadow_56_3036"/>
<feBlend mode="normal" in="SourceGraphic" in2="effect1_dropShadow_56_3036" result="shape"/>
</filter>
<filter id="filter4_d_56_3036" x="185.916" y="177.352" width="6.3899" height="6.74555" filterUnits="userSpaceOnUse" color-interpolation-filters="sRGB">
<feFlood flood-opacity="0" result="BackgroundImageFix"/>
<feColorMatrix in="SourceAlpha" type="matrix" values="0 0 0 0 0 0 0 0 0 0 0 0 0 0 0 0 0 0 127 0" result="hardAlpha"/>
<feOffset dx="0.433" dy="0.649"/>
<feGaussianBlur stdDeviation="0.216"/>
<feColorMatrix type="matrix" values="0 0 0 0 0 0 0 0 0 0 0 0 0 0 0 0 0 0 0.302 0"/>
<feBlend mode="normal" in2="BackgroundImageFix" result="effect1_dropShadow_56_3036"/>
<feBlend mode="normal" in="SourceGraphic" in2="effect1_dropShadow_56_3036" result="shape"/>
</filter>
<filter id="filter5_d_56_3036" x="133.82" y="145.067" width="25.7044" height="15.9149" filterUnits="userSpaceOnUse" color-interpolation-filters="sRGB">
<feFlood flood-opacity="0" result="BackgroundImageFix"/>
<feColorMatrix in="SourceAlpha" type="matrix" values="0 0 0 0 0 0 0 0 0 0 0 0 0 0 0 0 0 0 127 0" result="hardAlpha"/>
<feOffset dx="0.798" dy="1.197"/>
<feGaussianBlur stdDeviation="0.399"/>
<feColorMatrix type="matrix" values="0 0 0 0 0 0 0 0 0 0 0 0 0 0 0 0 0 0 0.302 0"/>
<feBlend mode="normal" in2="BackgroundImageFix" result="effect1_dropShadow_56_3036"/>
<feBlend mode="normal" in="SourceGraphic" in2="effect1_dropShadow_56_3036" result="shape"/>
</filter>
<filter id="filter6_d_56_3036" x="87.8423" y="171.718" width="26.2084" height="26.7451" filterUnits="userSpaceOnUse" color-interpolation-filters="sRGB">
<feFlood flood-opacity="0" result="BackgroundImageFix"/>
<feColorMatrix in="SourceAlpha" type="matrix" values="0 0 0 0 0 0 0 0 0 0 0 0 0 0 0 0 0 0 127 0" result="hardAlpha"/>
<feOffset dx="1.05" dy="1.576"/>
<feGaussianBlur stdDeviation="0.525"/>
<feColorMatrix type="matrix" values="0 0 0 0 0 0 0 0 0 0 0 0 0 0 0 0 0 0 0.302 0"/>
<feBlend mode="normal" in2="BackgroundImageFix" result="effect1_dropShadow_56_3036"/>
<feBlend mode="normal" in="SourceGraphic" in2="effect1_dropShadow_56_3036" result="shape"/>
</filter>
<filter id="filter7_d_56_3036" x="118.628" y="131.84" width="9.48564" height="6.04863" filterUnits="userSpaceOnUse" color-interpolation-filters="sRGB">
<feFlood flood-opacity="0" result="BackgroundImageFix"/>
<feColorMatrix in="SourceAlpha" type="matrix" values="0 0 0 0 0 0 0 0 0 0 0 0 0 0 0 0 0 0 127 0" result="hardAlpha"/>
<feOffset/>
<feGaussianBlur stdDeviation="0.3"/>
<feColorMatrix type="matrix" values="0 0 0 0 0 0 0 0 0 0 0 0 0 0 0 0 0 0 0.702 0"/>
<feBlend mode="normal" in2="BackgroundImageFix" result="effect1_dropShadow_56_3036"/>
<feBlend mode="normal" in="SourceGraphic" in2="effect1_dropShadow_56_3036" result="shape"/>
</filter>
<filter id="filter8_d_56_3036" x="208.546" y="137.24" width="9.48564" height="6.04863" filterUnits="userSpaceOnUse" color-interpolation-filters="sRGB">
<feFlood flood-opacity="0" result="BackgroundImageFix"/>
<feColorMatrix in="SourceAlpha" type="matrix" values="0 0 0 0 0 0 0 0 0 0 0 0 0 0 0 0 0 0 127 0" result="hardAlpha"/>
<feOffset/>
<feGaussianBlur stdDeviation="0.3"/>
<feColorMatrix type="matrix" values="0 0 0 0 0 0 0 0 0 0 0 0 0 0 0 0 0 0 0.702 0"/>
<feBlend mode="normal" in2="BackgroundImageFix" result="effect1_dropShadow_56_3036"/>
<feBlend mode="normal" in="SourceGraphic" in2="effect1_dropShadow_56_3036" result="shape"/>
</filter>
<filter id="filter9_d_56_3036" x="118.628" y="145.038" width="9.48564" height="6.04863" filterUnits="userSpaceOnUse" color-interpolation-filters="sRGB">
<feFlood flood-opacity="0" result="BackgroundImageFix"/>
<feColorMatrix in="SourceAlpha" type="matrix" values="0 0 0 0 0 0 0 0 0 0 0 0 0 0 0 0 0 0 127 0" result="hardAlpha"/>
<feOffset/>
<feGaussianBlur stdDeviation="0.3"/>
<feColorMatrix type="matrix" values="0 0 0 0 0 0 0 0 0 0 0 0 0 0 0 0 0 0 0.702 0"/>
<feBlend mode="normal" in2="BackgroundImageFix" result="effect1_dropShadow_56_3036"/>
<feBlend mode="normal" in="SourceGraphic" in2="effect1_dropShadow_56_3036" result="shape"/>
</filter>
<filter id="filter10_d_56_3036" x="208.546" y="153.38" width="9.48564" height="6.04863" filterUnits="userSpaceOnUse" color-interpolation-filters="sRGB">
<feFlood flood-opacity="0" result="BackgroundImageFix"/>
<feColorMatrix in="SourceAlpha" type="matrix" values="0 0 0 0 0 0 0 0 0 0 0 0 0 0 0 0 0 0 127 0" result="hardAlpha"/>
<feOffset/>
<feGaussianBlur stdDeviation="0.3"/>
<feColorMatrix type="matrix" values="0 0 0 0 0 0 0 0 0 0 0 0 0 0 0 0 0 0 0.702 0"/>
<feBlend mode="normal" in2="BackgroundImageFix" result="effect1_dropShadow_56_3036"/>
<feBlend mode="normal" in="SourceGraphic" in2="effect1_dropShadow_56_3036" result="shape"/>
</filter>
<filter id="filter11_d_56_3036" x="208.546" y="162.144" width="9.48564" height="6.04863" filterUnits="userSpaceOnUse" color-interpolation-filters="sRGB">
<feFlood flood-opacity="0" result="BackgroundImageFix"/>
<feColorMatrix in="SourceAlpha" type="matrix" values="0 0 0 0 0 0 0 0 0 0 0 0 0 0 0 0 0 0 127 0" result="hardAlpha"/>
<feOffset/>
<feGaussianBlur stdDeviation="0.3"/>
<feColorMatrix type="matrix" values="0 0 0 0 0 0 0 0 0 0 0 0 0 0 0 0 0 0 0.702 0"/>
<feBlend mode="normal" in2="BackgroundImageFix" result="effect1_dropShadow_56_3036"/>
<feBlend mode="normal" in="SourceGraphic" in2="effect1_dropShadow_56_3036" result="shape"/>
</filter>
<filter id="filter12_d_56_3036" x="208.546" y="178.284" width="9.48564" height="6.04863" filterUnits="userSpaceOnUse" color-interpolation-filters="sRGB">
<feFlood flood-opacity="0" result="BackgroundImageFix"/>
<feColorMatrix in="SourceAlpha" type="matrix" values="0 0 0 0 0 0 0 0 0 0 0 0 0 0 0 0 0 0 127 0" result="hardAlpha"/>
<feOffset/>
<feGaussianBlur stdDeviation="0.3"/>
<feColorMatrix type="matrix" values="0 0 0 0 0 0 0 0 0 0 0 0 0 0 0 0 0 0 0.702 0"/>
<feBlend mode="normal" in2="BackgroundImageFix" result="effect1_dropShadow_56_3036"/>
<feBlend mode="normal" in="SourceGraphic" in2="effect1_dropShadow_56_3036" result="shape"/>
</filter>
<filter id="filter13_d_56_3036" x="133.82" y="165.776" width="25.7044" height="15.9149" filterUnits="userSpaceOnUse" color-interpolation-filters="sRGB">
<feFlood flood-opacity="0" result="BackgroundImageFix"/>
<feColorMatrix in="SourceAlpha" type="matrix" values="0 0 0 0 0 0 0 0 0 0 0 0 0 0 0 0 0 0 127 0" result="hardAlpha"/>
<feOffset dx="0.798" dy="1.197"/>
<feGaussianBlur stdDeviation="0.399"/>
<feColorMatrix type="matrix" values="0 0 0 0 0 0 0 0 0 0 0 0 0 0 0 0 0 0 0.302 0"/>
<feBlend mode="normal" in2="BackgroundImageFix" result="effect1_dropShadow_56_3036"/>
<feBlend mode="normal" in="SourceGraphic" in2="effect1_dropShadow_56_3036" result="shape"/>
</filter>
<filter id="filter14_d_56_3036" x="133.82" y="187.296" width="25.7044" height="15.9149" filterUnits="userSpaceOnUse" color-interpolation-filters="sRGB">
<feFlood flood-opacity="0" result="BackgroundImageFix"/>
<feColorMatrix in="SourceAlpha" type="matrix" values="0 0 0 0 0 0 0 0 0 0 0 0 0 0 0 0 0 0 127 0" result="hardAlpha"/>
<feOffset dx="0.798" dy="1.197"/>
<feGaussianBlur stdDeviation="0.399"/>
<feColorMatrix type="matrix" values="0 0 0 0 0 0 0 0 0 0 0 0 0 0 0 0 0 0 0.302 0"/>
<feBlend mode="normal" in2="BackgroundImageFix" result="effect1_dropShadow_56_3036"/>
<feBlend mode="normal" in="SourceGraphic" in2="effect1_dropShadow_56_3036" result="shape"/>
</filter>
<filter id="filter15_d_56_3036" x="118.628" y="174.075" width="9.48564" height="6.04863" filterUnits="userSpaceOnUse" color-interpolation-filters="sRGB">
<feFlood flood-opacity="0" result="BackgroundImageFix"/>
<feColorMatrix in="SourceAlpha" type="matrix" values="0 0 0 0 0 0 0 0 0 0 0 0 0 0 0 0 0 0 127 0" result="hardAlpha"/>
<feOffset/>
<feGaussianBlur stdDeviation="0.3"/>
<feColorMatrix type="matrix" values="0 0 0 0 0 0 0 0 0 0 0 0 0 0 0 0 0 0 0.702 0"/>
<feBlend mode="normal" in2="BackgroundImageFix" result="effect1_dropShadow_56_3036"/>
<feBlend mode="normal" in="SourceGraphic" in2="effect1_dropShadow_56_3036" result="shape"/>
</filter>
<filter id="filter16_d_56_3036" x="118.628" y="187.267" width="9.48564" height="6.04863" filterUnits="userSpaceOnUse" color-interpolation-filters="sRGB">
<feFlood flood-opacity="0" result="BackgroundImageFix"/>
<feColorMatrix in="SourceAlpha" type="matrix" values="0 0 0 0 0 0 0 0 0 0 0 0 0 0 0 0 0 0 127 0" result="hardAlpha"/>
<feOffset/>
<feGaussianBlur stdDeviation="0.3"/>
<feColorMatrix type="matrix" values="0 0 0 0 0 0 0 0 0 0 0 0 0 0 0 0 0 0 0.702 0"/>
<feBlend mode="normal" in2="BackgroundImageFix" result="effect1_dropShadow_56_3036"/>
<feBlend mode="normal" in="SourceGraphic" in2="effect1_dropShadow_56_3036" result="shape"/>
</filter>
</defs>
</svg>
