<svg width="312" height="278" viewBox="0 0 312 278" fill="none" xmlns="http://www.w3.org/2000/svg">
<path fill-rule="evenodd" clip-rule="evenodd" d="M79.7133 273.47C73.1668 272.054 -5.48502 259.298 0.304318 165.229C6.09365 71.1596 13.3616 42.8704 43.9398 32.5183C74.518 22.1663 148.85 -26.8066 207.179 19.7612C243.228 48.5397 300.661 107.961 305.022 122.685C309.383 137.408 318.493 165.659 303.47 182.449C264.144 226.402 274.404 281.605 209.237 277.815C144.07 274.025 110.84 280.204 79.7121 273.469" fill="#F9F9F9"/>
<path d="M77.6836 113.706H49.9636C49.555 113.712 49.1494 113.636 48.7704 113.484C48.3913 113.331 48.0463 113.105 47.7554 112.818C47.4645 112.531 47.2336 112.189 47.0759 111.812C46.9183 111.435 46.8371 111.031 46.8371 110.622C46.8371 110.213 46.9183 109.809 47.0759 109.432C47.2336 109.055 47.4645 108.713 47.7554 108.426C48.0463 108.139 48.3913 107.913 48.7704 107.76C49.1494 107.608 49.555 107.532 49.9636 107.538H53.0109C53.4194 107.543 53.825 107.468 54.2041 107.315C54.5831 107.163 54.9281 106.936 55.219 106.649C55.5099 106.362 55.7408 106.02 55.8985 105.643C56.0561 105.266 56.1373 104.862 56.1373 104.453C56.1373 104.045 56.0561 103.64 55.8985 103.263C55.7408 102.886 55.5099 102.544 55.219 102.257C54.9281 101.97 54.5831 101.744 54.2041 101.592C53.825 101.439 53.4194 101.363 53.0109 101.369H34.3743C33.9658 101.363 33.5602 101.439 33.1811 101.592C32.802 101.744 32.457 101.97 32.1662 102.257C31.8753 102.544 31.6443 102.886 31.4867 103.263C31.3291 103.64 31.2479 104.045 31.2479 104.453C31.2479 104.862 31.3291 105.266 31.4867 105.643C31.6443 106.02 31.8753 106.362 32.1662 106.649C32.457 106.936 32.802 107.163 33.1811 107.315C33.5602 107.468 33.9658 107.543 34.3743 107.538H37.271C37.6795 107.532 38.0851 107.608 38.4642 107.76C38.8433 107.913 39.1883 108.139 39.4791 108.426C39.77 108.713 40.001 109.055 40.1586 109.432C40.3163 109.809 40.3974 110.213 40.3974 110.622C40.3974 111.031 40.3163 111.435 40.1586 111.812C40.001 112.189 39.77 112.531 39.4791 112.818C39.1883 113.105 38.8433 113.331 38.4642 113.484C38.0851 113.636 37.6795 113.712 37.271 113.706H28.7198C27.9016 113.706 27.1169 114.031 26.5384 114.61C25.9599 115.189 25.6348 115.973 25.6348 116.791C25.6348 117.61 25.9599 118.394 26.5384 118.973C27.1169 119.551 27.9016 119.876 28.7198 119.876H48.2069C49.0177 119.887 49.7915 120.217 50.361 120.794C50.9305 121.372 51.2498 122.15 51.2498 122.961C51.2498 123.772 50.9305 124.55 50.361 125.127C49.7915 125.704 49.0177 126.034 48.2069 126.045H44.6924C44.2838 126.04 43.8782 126.115 43.4992 126.268C43.1201 126.42 42.7751 126.647 42.4842 126.934C42.1934 127.221 41.9624 127.562 41.8048 127.939C41.6471 128.316 41.566 128.721 41.566 129.129C41.566 129.538 41.6471 129.943 41.8048 130.32C41.9624 130.697 42.1934 131.038 42.4842 131.325C42.7751 131.612 43.1201 131.839 43.4992 131.991C43.8782 132.144 44.2838 132.219 44.6924 132.214H66.7103C67.1189 132.219 67.5245 132.144 67.9035 131.991C68.2826 131.839 68.6276 131.612 68.9185 131.325C69.2094 131.038 69.4403 130.697 69.598 130.32C69.7556 129.943 69.8368 129.538 69.8368 129.129C69.8368 128.721 69.7556 128.316 69.598 127.939C69.4403 127.562 69.2094 127.221 68.9185 126.934C68.6276 126.647 68.2826 126.42 67.9035 126.268C67.5245 126.115 67.1189 126.04 66.7103 126.045H64.8268C64.4182 126.051 64.0127 125.975 63.6336 125.822C63.2545 125.67 62.9095 125.444 62.6187 125.157C62.3278 124.87 62.0968 124.528 61.9392 124.151C61.7815 123.774 61.7003 123.369 61.7003 122.961C61.7003 122.552 61.7815 122.148 61.9392 121.771C62.0968 121.394 62.3278 121.052 62.6187 120.765C62.9095 120.478 63.2545 120.252 63.6336 120.099C64.0127 119.947 64.4182 119.871 64.8268 119.876H77.6819C78.5001 119.876 79.2848 119.551 79.8633 118.973C80.4419 118.394 80.7669 117.61 80.7669 116.791C80.7669 115.973 80.4419 115.189 79.8633 114.61C79.2848 114.031 78.5001 113.706 77.6819 113.706H77.6836Z" stroke="#E8E8E8" stroke-width="3" stroke-linecap="round" stroke-linejoin="round"/>
<path d="M230.89 193.615H238.422C239.24 193.615 240.025 193.94 240.603 194.519C241.182 195.098 241.507 195.882 241.507 196.7C241.507 197.519 241.182 198.303 240.603 198.882C240.025 199.46 239.24 199.785 238.422 199.785H234.905C234.087 199.785 233.302 200.11 232.724 200.689C232.145 201.267 231.82 202.051 231.82 202.869C231.82 203.687 232.145 204.472 232.724 205.05C233.302 205.629 234.087 205.954 234.905 205.954H256.929C257.747 205.954 258.531 205.629 259.11 205.05C259.688 204.472 260.013 203.687 260.013 202.869C260.013 202.051 259.688 201.267 259.11 200.689C258.531 200.11 257.747 199.785 256.929 199.785H255.044C254.225 199.785 253.441 199.46 252.862 198.882C252.284 198.303 251.959 197.519 251.959 196.7C251.959 195.882 252.284 195.098 252.862 194.519C253.441 193.94 254.225 193.615 255.044 193.615H272.002C272.82 193.615 273.604 193.291 274.183 192.712C274.761 192.134 275.086 191.349 275.086 190.531C275.086 189.713 274.761 188.929 274.183 188.351C273.604 187.772 272.82 187.447 272.002 187.447H230.888C230.07 187.447 229.286 187.772 228.708 188.351C228.129 188.929 227.804 189.713 227.804 190.531C227.804 191.349 228.129 192.134 228.708 192.712C229.286 193.291 230.07 193.615 230.888 193.615H230.89Z" stroke="#E8E8E8" stroke-width="3" stroke-linecap="round" stroke-linejoin="round"/>
<path d="M155.882 247.1C204.651 247.1 244.185 243.156 244.185 238.291C244.185 233.427 204.651 229.483 155.882 229.483C107.114 229.483 67.5796 233.427 67.5796 238.291C67.5796 243.156 107.114 247.1 155.882 247.1Z" fill="black" fill-opacity="0.12"/>
<g clip-path="url(#clip0_30_1569)">
<path d="M241.691 77.0181H70.222V219.1H241.691V77.0181Z" fill="#F5F5F5"/>
<path d="M240.667 99.8613H100.19V217.217H240.667V99.8613Z" fill="white"/>
<path d="M138.568 206.653H236.428" stroke="#8C8C8C" stroke-width="0.5" stroke-miterlimit="10"/>
<path d="M138.568 206.653V205.76" stroke="#8C8C8C" stroke-width="0.5" stroke-miterlimit="10"/>
<path d="M236.428 206.653V205.76" stroke="#8C8C8C" stroke-width="0.5" stroke-miterlimit="10"/>
<path d="M143.391 206.653V170.912" stroke="#8C8C8C" stroke-width="0.5" stroke-miterlimit="10"/>
<path d="M143.391 206.653H145.837" stroke="#8C8C8C" stroke-width="0.5" stroke-miterlimit="10"/>
<path d="M143.391 202.186H145.837" stroke="#8C8C8C" stroke-width="0.5" stroke-miterlimit="10"/>
<path d="M143.391 197.718H145.837" stroke="#8C8C8C" stroke-width="0.5" stroke-miterlimit="10"/>
<path d="M143.391 193.25H145.837" stroke="#8C8C8C" stroke-width="0.5" stroke-miterlimit="10"/>
<path d="M143.391 188.782H145.837" stroke="#8C8C8C" stroke-width="0.5" stroke-miterlimit="10"/>
<path d="M143.391 184.315H145.837" stroke="#8C8C8C" stroke-width="0.5" stroke-miterlimit="10"/>
<path d="M143.391 179.847H145.837" stroke="#8C8C8C" stroke-width="0.5" stroke-miterlimit="10"/>
<path d="M143.391 175.379H145.837" stroke="#8C8C8C" stroke-width="0.5" stroke-miterlimit="10"/>
<path d="M143.391 170.912H145.837" stroke="#8C8C8C" stroke-width="0.5" stroke-miterlimit="10"/>
<path d="M226.341 179.847H220.921V206.653H226.341V179.847Z" fill="#A1A1A1"/>
<path d="M220.319 199.951H214.899V206.653H220.319V199.951Z" fill="black" fill-opacity="0.12"/>
<path d="M214.297 198.611H208.877V206.653H214.297V198.611Z" fill="#A1A1A1"/>
<path d="M208.275 184.314H202.855V206.653H208.275V184.314Z" fill="black" fill-opacity="0.12"/>
<path d="M202.253 193.25H196.833V206.653H202.253V193.25Z" fill="#A1A1A1"/>
<path d="M196.231 195.484H190.81V206.653H196.231V195.484Z" fill="black" fill-opacity="0.12"/>
<path d="M190.208 197.717H184.788V206.652H190.208V197.717Z" fill="#A1A1A1"/>
<path d="M184.186 175.379H178.766V206.653H184.186V175.379Z" fill="black" fill-opacity="0.12"/>
<path d="M178.164 202.186H172.744V206.653H178.164V202.186Z" fill="#A1A1A1"/>
<path d="M172.142 193.25H166.721V206.653H172.142V193.25Z" fill="black" fill-opacity="0.12"/>
<path d="M166.12 184.314H160.699V206.653H166.12V184.314Z" fill="#A1A1A1"/>
<path d="M160.097 188.782H154.677V206.653H160.097V188.782Z" fill="black" fill-opacity="0.12"/>
<path d="M154.075 197.717H148.655V206.652H154.075V197.717Z" fill="#A1A1A1"/>
<path d="M104.572 153.757H233.395" stroke="#8C8C8C" stroke-width="0.5" stroke-miterlimit="10"/>
<path d="M104.572 153.757V152.493" stroke="#8C8C8C" stroke-width="0.5" stroke-miterlimit="10"/>
<path d="M111.352 153.757V152.493" stroke="#8C8C8C" stroke-width="0.5" stroke-miterlimit="10"/>
<path d="M118.133 153.757V152.493" stroke="#8C8C8C" stroke-width="0.5" stroke-miterlimit="10"/>
<path d="M124.912 153.757V152.493" stroke="#8C8C8C" stroke-width="0.5" stroke-miterlimit="10"/>
<path d="M131.693 153.757V152.493" stroke="#8C8C8C" stroke-width="0.5" stroke-miterlimit="10"/>
<path d="M138.473 153.757V152.493" stroke="#8C8C8C" stroke-width="0.5" stroke-miterlimit="10"/>
<path d="M145.253 153.757V152.493" stroke="#8C8C8C" stroke-width="0.5" stroke-miterlimit="10"/>
<path d="M152.033 153.757V152.493" stroke="#8C8C8C" stroke-width="0.5" stroke-miterlimit="10"/>
<path d="M158.814 153.757V152.493" stroke="#8C8C8C" stroke-width="0.5" stroke-miterlimit="10"/>
<path d="M165.593 153.757V152.493" stroke="#8C8C8C" stroke-width="0.5" stroke-miterlimit="10"/>
<path d="M172.374 153.757V152.493" stroke="#8C8C8C" stroke-width="0.5" stroke-miterlimit="10"/>
<path d="M179.154 153.757V152.493" stroke="#8C8C8C" stroke-width="0.5" stroke-miterlimit="10"/>
<path d="M185.934 153.757V152.493" stroke="#8C8C8C" stroke-width="0.5" stroke-miterlimit="10"/>
<path d="M192.714 153.757V152.493" stroke="#8C8C8C" stroke-width="0.5" stroke-miterlimit="10"/>
<path d="M199.495 153.757V152.493" stroke="#8C8C8C" stroke-width="0.5" stroke-miterlimit="10"/>
<path d="M206.274 153.757V152.493" stroke="#8C8C8C" stroke-width="0.5" stroke-miterlimit="10"/>
<path d="M213.055 153.757V152.493" stroke="#8C8C8C" stroke-width="0.5" stroke-miterlimit="10"/>
<path d="M219.835 153.757V152.493" stroke="#8C8C8C" stroke-width="0.5" stroke-miterlimit="10"/>
<path d="M226.615 153.757V152.493" stroke="#8C8C8C" stroke-width="0.5" stroke-miterlimit="10"/>
<path d="M233.395 153.757V152.493" stroke="#8C8C8C" stroke-width="0.5" stroke-miterlimit="10"/>
<path d="M104.572 153.756V103.226" stroke="#8C8C8C" stroke-width="0.5" stroke-miterlimit="10"/>
<path d="M104.572 153.756H107.792" stroke="#8C8C8C" stroke-width="0.5" stroke-miterlimit="10"/>
<path d="M104.572 143.65H107.792" stroke="#8C8C8C" stroke-width="0.5" stroke-miterlimit="10"/>
<path d="M104.572 133.544H107.792" stroke="#8C8C8C" stroke-width="0.5" stroke-miterlimit="10"/>
<path d="M104.572 123.438H107.792" stroke="#8C8C8C" stroke-width="0.5" stroke-miterlimit="10"/>
<path d="M104.572 113.332H107.792" stroke="#8C8C8C" stroke-width="0.5" stroke-miterlimit="10"/>
<path d="M104.572 103.226H107.792" stroke="#8C8C8C" stroke-width="0.5" stroke-miterlimit="10"/>
<path d="M114.743 113.332L107.962 143.65" stroke="#F68B22" stroke-width="2" stroke-miterlimit="10" stroke-linecap="round"/>
<path d="M121.522 130.513L114.742 113.332" stroke="#F68B22" stroke-width="2" stroke-miterlimit="10" stroke-linecap="round"/>
<path d="M128.303 123.438L121.522 130.512" stroke="#F68B22" stroke-width="2" stroke-miterlimit="10" stroke-linecap="round"/>
<path d="M135.083 141.629L128.303 123.438" stroke="#F68B22" stroke-width="2" stroke-miterlimit="10" stroke-linecap="round"/>
<path d="M141.863 113.332L135.083 141.629" stroke="#F68B22" stroke-width="2" stroke-miterlimit="10" stroke-linecap="round"/>
<path d="M148.643 103.226L141.863 113.332" stroke="#F68B22" stroke-width="2" stroke-miterlimit="10" stroke-linecap="round"/>
<path d="M155.424 148.703L148.643 103.226" stroke="#F68B22" stroke-width="2" stroke-miterlimit="10" stroke-linecap="round"/>
<path d="M162.203 145.671L155.423 148.703" stroke="#F68B22" stroke-width="2" stroke-miterlimit="10" stroke-linecap="round"/>
<path d="M168.984 144.661L162.203 145.672" stroke="#F68B22" stroke-width="2" stroke-miterlimit="10" stroke-linecap="round"/>
<path d="M175.764 141.629L168.984 144.661" stroke="#F68B22" stroke-width="2" stroke-miterlimit="10" stroke-linecap="round"/>
<path d="M182.544 137.587L175.764 141.629" stroke="#F68B22" stroke-width="2" stroke-miterlimit="10" stroke-linecap="round"/>
<path d="M189.324 139.608L182.544 137.587" stroke="#F68B22" stroke-width="2" stroke-miterlimit="10" stroke-linecap="round"/>
<path d="M196.105 143.65L189.324 139.608" stroke="#F68B22" stroke-width="2" stroke-miterlimit="10" stroke-linecap="round"/>
<path d="M202.885 122.427L196.104 143.65" stroke="#F68B22" stroke-width="2" stroke-miterlimit="10" stroke-linecap="round"/>
<path d="M209.665 119.395L202.885 122.427" stroke="#F68B22" stroke-width="2" stroke-miterlimit="10" stroke-linecap="round"/>
<path d="M216.445 115.353L209.665 119.395" stroke="#F68B22" stroke-width="2" stroke-miterlimit="10" stroke-linecap="round"/>
<path d="M223.225 119.395L216.445 115.353" stroke="#F68B22" stroke-width="2" stroke-miterlimit="10" stroke-linecap="round"/>
<path d="M230.005 123.437L223.225 119.395" stroke="#F68B22" stroke-width="2" stroke-miterlimit="10" stroke-linecap="round"/>
<path d="M107.962 142.452C108.28 142.452 108.584 142.578 108.809 142.803C109.034 143.028 109.16 143.333 109.161 143.65C109.161 143.808 109.13 143.964 109.069 144.109C109.009 144.255 108.921 144.387 108.809 144.498C108.698 144.609 108.566 144.698 108.42 144.758C108.275 144.818 108.119 144.849 107.962 144.849C107.644 144.849 107.339 144.722 107.114 144.498C106.89 144.273 106.763 143.968 106.763 143.65C106.764 143.333 106.89 143.028 107.115 142.803C107.339 142.579 107.644 142.452 107.962 142.452Z" fill="white" stroke="#F68B22" stroke-linecap="round" stroke-linejoin="round"/>
<path d="M114.744 112.134C114.901 112.134 115.057 112.165 115.202 112.225C115.348 112.285 115.48 112.373 115.591 112.485C115.702 112.596 115.791 112.728 115.851 112.874C115.911 113.019 115.942 113.175 115.942 113.332C115.942 113.65 115.816 113.955 115.591 114.179C115.366 114.404 115.062 114.53 114.744 114.53C114.586 114.53 114.431 114.499 114.285 114.439C114.14 114.379 114.008 114.291 113.896 114.179C113.785 114.068 113.697 113.936 113.637 113.791C113.576 113.645 113.545 113.489 113.545 113.332C113.545 113.175 113.576 113.019 113.637 112.874C113.697 112.728 113.785 112.596 113.896 112.485C114.008 112.373 114.14 112.285 114.285 112.225C114.431 112.165 114.586 112.134 114.744 112.134Z" fill="white" stroke="#F68B22" stroke-linecap="round" stroke-linejoin="round"/>
<path d="M121.522 129.314C121.84 129.314 122.145 129.44 122.37 129.665C122.594 129.89 122.721 130.194 122.721 130.512C122.721 130.67 122.69 130.825 122.629 130.971C122.569 131.116 122.481 131.248 122.37 131.36C122.258 131.471 122.126 131.559 121.981 131.619C121.836 131.68 121.68 131.711 121.522 131.711C121.365 131.711 121.209 131.68 121.064 131.619C120.918 131.559 120.786 131.471 120.675 131.36C120.564 131.248 120.476 131.116 120.415 130.971C120.355 130.825 120.324 130.67 120.324 130.512C120.324 130.194 120.45 129.89 120.675 129.665C120.9 129.44 121.205 129.314 121.522 129.314Z" fill="white" stroke="#F68B22" stroke-linecap="round" stroke-linejoin="round"/>
<path d="M128.303 122.239C128.621 122.239 128.925 122.365 129.15 122.59C129.375 122.815 129.501 123.12 129.501 123.438C129.501 123.755 129.375 124.06 129.15 124.285C128.925 124.509 128.621 124.636 128.303 124.636C127.985 124.636 127.68 124.51 127.455 124.285C127.23 124.06 127.104 123.755 127.104 123.438C127.104 123.12 127.23 122.815 127.455 122.59C127.68 122.365 127.985 122.239 128.303 122.239Z" fill="white" stroke="#F68B22" stroke-linecap="round" stroke-linejoin="round"/>
<path d="M135.083 140.431C135.4 140.431 135.705 140.557 135.93 140.782C136.155 141.006 136.281 141.311 136.281 141.629C136.281 141.947 136.155 142.252 135.93 142.476C135.705 142.701 135.4 142.827 135.083 142.827C134.765 142.827 134.46 142.701 134.235 142.476C134.011 142.252 133.884 141.947 133.884 141.629C133.884 141.311 134.011 141.006 134.235 140.782C134.46 140.557 134.765 140.431 135.083 140.431Z" fill="white" stroke="#F68B22" stroke-linecap="round" stroke-linejoin="round"/>
<path d="M141.863 112.134C142.02 112.134 142.176 112.165 142.321 112.225C142.467 112.285 142.599 112.373 142.71 112.485C142.822 112.596 142.91 112.728 142.97 112.874C143.03 113.019 143.061 113.175 143.061 113.332C143.061 113.65 142.935 113.955 142.71 114.179C142.486 114.404 142.181 114.53 141.863 114.53C141.545 114.53 141.24 114.404 141.016 114.179C140.791 113.955 140.665 113.65 140.665 113.332C140.665 113.175 140.696 113.019 140.756 112.874C140.816 112.728 140.904 112.596 141.016 112.485C141.127 112.373 141.259 112.285 141.404 112.225C141.55 112.165 141.706 112.134 141.863 112.134Z" fill="white" stroke="#F68B22" stroke-linecap="round" stroke-linejoin="round"/>
<path d="M148.643 102.027C148.801 102.027 148.957 102.058 149.102 102.119C149.247 102.179 149.379 102.267 149.491 102.378C149.602 102.49 149.69 102.622 149.75 102.767C149.811 102.912 149.842 103.068 149.842 103.226C149.842 103.383 149.811 103.539 149.75 103.684C149.69 103.83 149.602 103.962 149.491 104.073C149.379 104.184 149.247 104.273 149.102 104.333C148.957 104.393 148.801 104.424 148.643 104.424C148.486 104.424 148.33 104.393 148.185 104.333C148.039 104.273 147.907 104.184 147.796 104.073C147.684 103.962 147.596 103.83 147.536 103.684C147.475 103.539 147.444 103.383 147.444 103.226C147.444 103.068 147.475 102.912 147.536 102.767C147.596 102.622 147.684 102.489 147.796 102.378C147.907 102.267 148.039 102.179 148.185 102.118C148.33 102.058 148.486 102.027 148.643 102.027Z" fill="white" stroke="#F68B22" stroke-linecap="round" stroke-linejoin="round"/>
<path d="M155.423 147.505C155.741 147.505 156.046 147.631 156.27 147.856C156.495 148.081 156.621 148.385 156.621 148.703C156.621 149.021 156.495 149.326 156.27 149.551C156.046 149.775 155.741 149.901 155.423 149.901C155.105 149.901 154.801 149.775 154.576 149.551C154.351 149.326 154.225 149.021 154.225 148.703C154.225 148.385 154.351 148.081 154.576 147.856C154.801 147.631 155.105 147.505 155.423 147.505Z" fill="white" stroke="#F68B22" stroke-linecap="round" stroke-linejoin="round"/>
<path d="M162.203 144.473C162.521 144.473 162.826 144.599 163.051 144.824C163.276 145.049 163.402 145.354 163.402 145.671C163.402 145.989 163.276 146.294 163.051 146.519C162.826 146.743 162.521 146.87 162.203 146.87C161.886 146.87 161.581 146.743 161.356 146.519C161.131 146.294 161.005 145.989 161.005 145.671C161.005 145.354 161.131 145.049 161.356 144.824C161.581 144.599 161.886 144.473 162.203 144.473Z" fill="white" stroke="#F68B22" stroke-linecap="round" stroke-linejoin="round"/>
<path d="M168.984 143.463C169.141 143.463 169.297 143.494 169.442 143.554C169.588 143.614 169.72 143.703 169.831 143.814C169.942 143.925 170.031 144.057 170.091 144.203C170.151 144.348 170.182 144.504 170.182 144.661C170.182 144.979 170.056 145.284 169.831 145.508C169.606 145.733 169.302 145.859 168.984 145.859C168.666 145.859 168.361 145.733 168.136 145.509C167.912 145.284 167.786 144.979 167.786 144.661C167.786 144.343 167.912 144.039 168.136 143.814C168.361 143.589 168.666 143.463 168.984 143.463Z" fill="white" stroke="#F68B22" stroke-linecap="round" stroke-linejoin="round"/>
<path d="M175.764 140.431C176.081 140.431 176.386 140.557 176.611 140.782C176.836 141.006 176.962 141.311 176.962 141.629C176.962 141.947 176.836 142.252 176.611 142.476C176.386 142.701 176.081 142.827 175.764 142.827C175.446 142.827 175.141 142.701 174.916 142.476C174.692 142.252 174.565 141.947 174.565 141.629C174.565 141.311 174.692 141.006 174.916 140.782C175.141 140.557 175.446 140.431 175.764 140.431Z" fill="white" stroke="#F68B22" stroke-linecap="round" stroke-linejoin="round"/>
<path d="M182.544 136.389C182.862 136.389 183.166 136.515 183.391 136.739C183.616 136.964 183.742 137.268 183.742 137.586C183.742 137.904 183.616 138.208 183.391 138.433C183.167 138.658 182.862 138.784 182.544 138.784C182.226 138.784 181.921 138.658 181.697 138.433C181.472 138.208 181.346 137.904 181.346 137.586C181.346 137.268 181.472 136.964 181.697 136.739C181.922 136.515 182.226 136.389 182.544 136.389Z" fill="white" stroke="#F68B22" stroke-linecap="round" stroke-linejoin="round"/>
<path d="M189.326 138.41C189.644 138.41 189.949 138.536 190.173 138.761C190.398 138.985 190.524 139.29 190.524 139.608C190.524 139.765 190.493 139.921 190.433 140.067C190.373 140.212 190.285 140.344 190.173 140.455C190.062 140.567 189.93 140.655 189.785 140.715C189.639 140.775 189.483 140.806 189.326 140.806C189.169 140.806 189.013 140.775 188.867 140.715C188.722 140.655 188.59 140.567 188.479 140.455C188.367 140.344 188.279 140.212 188.219 140.067C188.159 139.921 188.128 139.765 188.128 139.608C188.128 139.29 188.254 138.985 188.479 138.761C188.703 138.536 189.008 138.41 189.326 138.41Z" fill="white" stroke="#F68B22" stroke-linecap="round" stroke-linejoin="round"/>
<path d="M196.104 142.452C196.422 142.452 196.727 142.578 196.952 142.803C197.176 143.028 197.302 143.333 197.302 143.65C197.302 143.968 197.176 144.273 196.952 144.498C196.727 144.722 196.422 144.849 196.104 144.849C195.786 144.849 195.482 144.722 195.257 144.498C195.032 144.273 194.906 143.968 194.906 143.65C194.906 143.333 195.032 143.028 195.257 142.803C195.482 142.579 195.786 142.452 196.104 142.452Z" fill="white" stroke="#F68B22" stroke-linecap="round" stroke-linejoin="round"/>
<path d="M202.885 121.229C203.202 121.229 203.507 121.355 203.732 121.58C203.957 121.805 204.083 122.109 204.083 122.427C204.083 122.745 203.957 123.05 203.732 123.275C203.507 123.499 203.202 123.626 202.885 123.626C202.567 123.626 202.262 123.499 202.037 123.275C201.812 123.05 201.686 122.745 201.686 122.427C201.686 122.109 201.812 121.805 202.037 121.58C202.262 121.355 202.567 121.229 202.885 121.229Z" fill="white" stroke="#F68B22" stroke-linecap="round" stroke-linejoin="round"/>
<path d="M209.665 118.197C209.983 118.197 210.287 118.323 210.512 118.548C210.737 118.773 210.863 119.077 210.863 119.395C210.863 119.552 210.832 119.708 210.772 119.854C210.712 119.999 210.624 120.131 210.512 120.242C210.401 120.354 210.269 120.442 210.123 120.502C209.978 120.562 209.822 120.593 209.665 120.593C209.347 120.593 209.042 120.467 208.818 120.242C208.593 120.018 208.467 119.713 208.467 119.395C208.467 119.077 208.593 118.772 208.818 118.548C209.042 118.323 209.347 118.197 209.665 118.197Z" fill="white" stroke="#F68B22" stroke-linecap="round" stroke-linejoin="round"/>
<path d="M216.445 114.155C216.763 114.155 217.067 114.281 217.292 114.506C217.517 114.73 217.643 115.035 217.643 115.353C217.643 115.671 217.517 115.976 217.292 116.2C217.067 116.425 216.763 116.551 216.445 116.551C216.127 116.551 215.822 116.425 215.597 116.2C215.373 115.976 215.246 115.671 215.246 115.353C215.246 115.035 215.373 114.73 215.597 114.506C215.822 114.281 216.127 114.155 216.445 114.155Z" fill="white" stroke="#F68B22" stroke-linecap="round" stroke-linejoin="round"/>
<path d="M223.225 118.197C223.543 118.197 223.848 118.323 224.072 118.548C224.297 118.772 224.423 119.077 224.423 119.395C224.423 119.552 224.392 119.708 224.332 119.854C224.272 119.999 224.184 120.131 224.072 120.242C223.961 120.354 223.829 120.442 223.684 120.502C223.538 120.562 223.382 120.593 223.225 120.593C223.068 120.593 222.912 120.562 222.767 120.502C222.621 120.442 222.489 120.354 222.378 120.242C222.266 120.131 222.178 119.999 222.118 119.854C222.058 119.708 222.027 119.552 222.027 119.395C222.027 119.077 222.153 118.772 222.378 118.548C222.602 118.323 222.907 118.197 223.225 118.197Z" fill="white" stroke="#F68B22" stroke-linecap="round" stroke-linejoin="round"/>
<path d="M230.005 122.239C230.323 122.239 230.628 122.365 230.853 122.59C231.078 122.815 231.204 123.12 231.204 123.438C231.204 123.755 231.077 124.06 230.853 124.285C230.628 124.509 230.323 124.636 230.005 124.636C229.688 124.636 229.383 124.51 229.158 124.285C228.933 124.06 228.807 123.755 228.807 123.438C228.807 123.28 228.838 123.124 228.898 122.979C228.958 122.833 229.047 122.701 229.158 122.59C229.269 122.479 229.401 122.39 229.547 122.33C229.692 122.27 229.848 122.239 230.005 122.239Z" fill="white" stroke="#F68B22" stroke-linecap="round" stroke-linejoin="round"/>
<path d="M241.691 77.0181H237.26V219.1H241.691V77.0181Z" fill="#DBDBDB"/>
<path d="M241.691 158.888H237.26V195.079H241.691V158.888Z" fill="black" fill-opacity="0.12"/>
<path d="M241.691 77.0181H70.222V85.7159H241.691V77.0181Z" fill="black" fill-opacity="0.12"/>
<path d="M191.743 78.501H81.5016V83.4091H191.743V78.501Z" fill="#EDEDED"/>
<path d="M78.8394 103.567H94.59" stroke="black" stroke-linecap="round" stroke-linejoin="round"/>
<path d="M75.8879 104.942C76.7067 104.942 77.3704 104.278 77.3704 103.459C77.3704 102.64 76.7067 101.977 75.8879 101.977C75.069 101.977 74.4053 102.64 74.4053 103.459C74.4053 104.278 75.069 104.942 75.8879 104.942Z" stroke="black" stroke-linecap="round" stroke-linejoin="round"/>
<path d="M78.8394 113.059H94.59" stroke="black" stroke-linecap="round" stroke-linejoin="round"/>
<path d="M75.8879 114.433C76.7067 114.433 77.3704 113.77 77.3704 112.951C77.3704 112.132 76.7067 111.468 75.8879 111.468C75.069 111.468 74.4053 112.132 74.4053 112.951C74.4053 113.77 75.069 114.433 75.8879 114.433Z" stroke="black" stroke-linecap="round" stroke-linejoin="round"/>
<path d="M78.8394 122.551H94.59" stroke="black" stroke-linecap="round" stroke-linejoin="round"/>
<path d="M75.8879 123.926C76.7067 123.926 77.3704 123.262 77.3704 122.443C77.3704 121.624 76.7067 120.96 75.8879 120.96C75.069 120.96 74.4053 121.624 74.4053 122.443C74.4053 123.262 75.069 123.926 75.8879 123.926Z" stroke="black" stroke-linecap="round" stroke-linejoin="round"/>
<path d="M78.8395 132.042H94.5901" stroke="black" stroke-linecap="round" stroke-linejoin="round"/>
<path d="M77.3704 131.934C77.3704 131.641 77.2835 131.354 77.1206 131.11C76.9577 130.866 76.7261 130.676 76.4552 130.564C76.1843 130.452 75.8862 130.422 75.5986 130.48C75.311 130.537 75.0469 130.678 74.8395 130.885C74.6322 131.093 74.491 131.357 74.4338 131.645C74.3766 131.932 74.4059 132.23 74.5181 132.501C74.6303 132.772 74.8204 133.004 75.0642 133.166C75.308 133.329 75.5946 133.416 75.8879 133.416C76.2811 133.416 76.6582 133.26 76.9362 132.982C77.2142 132.704 77.3704 132.327 77.3704 131.934V131.934Z" stroke="black" stroke-linecap="round" stroke-linejoin="round"/>
<path d="M78.8394 141.534H94.59" stroke="black" stroke-linecap="round" stroke-linejoin="round"/>
<path d="M75.8879 142.909C76.7067 142.909 77.3704 142.245 77.3704 141.426C77.3704 140.607 76.7067 139.943 75.8879 139.943C75.069 139.943 74.4053 140.607 74.4053 141.426C74.4053 142.245 75.069 142.909 75.8879 142.909Z" stroke="black" stroke-linecap="round" stroke-linejoin="round"/>
<rect x="105.267" y="173.224" width="32.9783" height="32.9783" fill="#F1FFEB" stroke="#60C232" stroke-dasharray="3 3"/>
<g filter="url(#filter0_d_30_1569)">
<rect x="86.0786" y="156.867" width="33.9783" height="33.9783" fill="#EBEBEB"/>
<path d="M103.051 173.841L92.7089 183.485C91.4425 182.127 90.456 180.533 89.8057 178.793C89.1553 177.054 88.854 175.204 88.9188 173.348C88.9836 171.492 89.4132 169.667 90.1832 167.978C90.9533 166.288 92.0486 164.766 93.4066 163.5C95.9954 161.013 99.4609 159.648 103.05 159.702L103.051 173.841Z" fill="#A1A1A1"/>
<path d="M103.051 173.841L115.76 167.643C117.246 170.688 117.589 174.166 116.726 177.443C115.864 180.72 113.853 183.578 111.061 185.497C108.268 187.416 104.879 188.269 101.511 187.899C98.143 187.53 95.0193 185.963 92.7089 183.485L103.051 173.841Z" fill="#F68B22"/>
<path d="M103.051 173.841V159.702C105.713 159.645 108.333 160.367 110.59 161.777C112.847 163.188 114.644 165.226 115.76 167.643L103.051 173.841Z" fill="black" fill-opacity="0.12"/>
</g>
</g>
<defs>
<filter id="filter0_d_30_1569" x="82.0786" y="156.867" width="41.9783" height="41.9785" filterUnits="userSpaceOnUse" color-interpolation-filters="sRGB">
<feFlood flood-opacity="0" result="BackgroundImageFix"/>
<feColorMatrix in="SourceAlpha" type="matrix" values="0 0 0 0 0 0 0 0 0 0 0 0 0 0 0 0 0 0 127 0" result="hardAlpha"/>
<feOffset dy="4"/>
<feGaussianBlur stdDeviation="2"/>
<feComposite in2="hardAlpha" operator="out"/>
<feColorMatrix type="matrix" values="0 0 0 0 0 0 0 0 0 0 0 0 0 0 0 0 0 0 0.25 0"/>
<feBlend mode="normal" in2="BackgroundImageFix" result="effect1_dropShadow_30_1569"/>
<feBlend mode="normal" in="SourceGraphic" in2="effect1_dropShadow_30_1569" result="shape"/>
</filter>
<clipPath id="clip0_30_1569">
<rect width="171.469" height="142.082" fill="white" transform="translate(70.222 77.0181)"/>
</clipPath>
</defs>
</svg>
