<svg width="315" height="281" viewBox="0 0 315 281" fill="none" xmlns="http://www.w3.org/2000/svg">
<path fill-rule="evenodd" clip-rule="evenodd" d="M80.5393 276.304C73.925 274.873 -5.54186 261.986 0.307471 166.941C6.1568 71.897 13.5001 43.3146 44.3951 32.8553C75.2902 22.396 150.393 -27.0844 209.326 19.966C245.749 49.0427 303.777 109.08 308.183 123.956C312.589 138.832 321.793 167.376 306.615 184.34C266.881 228.748 277.248 284.523 211.406 280.694C145.563 276.864 111.988 283.108 80.5382 276.303" fill="#F9F9F9"/>
<path d="M78.4886 114.885H50.4812C50.0684 114.891 49.6587 114.814 49.2757 114.66C48.8927 114.506 48.5441 114.277 48.2502 113.987C47.9563 113.697 47.723 113.352 47.5637 112.971C47.4044 112.59 47.3224 112.182 47.3224 111.769C47.3224 111.356 47.4044 110.947 47.5637 110.566C47.723 110.185 47.9563 109.84 48.2502 109.55C48.5441 109.26 48.8927 109.031 49.2757 108.877C49.6587 108.723 50.0684 108.647 50.4812 108.652H53.5601C53.9729 108.658 54.3827 108.582 54.7657 108.427C55.1487 108.273 55.4973 108.045 55.7912 107.755C56.085 107.465 56.3184 107.119 56.4777 106.738C56.6369 106.358 56.719 105.949 56.719 105.536C56.719 105.123 56.6369 104.715 56.4777 104.334C56.3184 103.953 56.085 103.607 55.7912 103.317C55.4973 103.027 55.1487 102.799 54.7657 102.645C54.3827 102.491 53.9729 102.414 53.5601 102.42H34.7305C34.3177 102.414 33.9079 102.491 33.5249 102.645C33.1419 102.799 32.7933 103.027 32.4994 103.317C32.2055 103.607 31.9722 103.953 31.8129 104.334C31.6536 104.715 31.5716 105.123 31.5716 105.536C31.5716 105.949 31.6536 106.358 31.8129 106.738C31.9722 107.119 32.2055 107.465 32.4994 107.755C32.7933 108.045 33.1419 108.273 33.5249 108.427C33.9079 108.582 34.3177 108.658 34.7305 108.652H37.6571C38.0699 108.647 38.4797 108.723 38.8627 108.877C39.2457 109.031 39.5943 109.26 39.8882 109.55C40.1821 109.84 40.4154 110.185 40.5747 110.566C40.734 110.947 40.816 111.356 40.816 111.769C40.816 112.182 40.734 112.59 40.5747 112.971C40.4154 113.352 40.1821 113.697 39.8882 113.987C39.5943 114.277 39.2457 114.506 38.8627 114.66C38.4797 114.814 38.0699 114.891 37.6571 114.885H29.0173C28.1907 114.885 27.3979 115.213 26.8133 115.798C26.2288 116.383 25.9004 117.175 25.9004 118.002C25.9004 118.829 26.2288 119.621 26.8133 120.206C27.3979 120.791 28.1907 121.119 29.0173 121.119H48.7064C49.5256 121.13 50.3074 121.463 50.8828 122.046C51.4582 122.63 51.7808 123.416 51.7808 124.235C51.7808 125.055 51.4582 125.841 50.8828 126.424C50.3074 127.007 49.5256 127.341 48.7064 127.352H45.1554C44.7427 127.346 44.3329 127.422 43.9499 127.577C43.5669 127.731 43.2183 127.959 42.9244 128.249C42.6305 128.539 42.3972 128.885 42.2379 129.266C42.0786 129.646 41.9966 130.055 41.9966 130.468C41.9966 130.881 42.0786 131.289 42.2379 131.67C42.3972 132.051 42.6305 132.397 42.9244 132.687C43.2183 132.977 43.5669 133.205 43.9499 133.359C44.3329 133.513 44.7427 133.59 45.1554 133.584H67.4015C67.8143 133.59 68.2241 133.513 68.6071 133.359C68.9901 133.205 69.3387 132.977 69.6326 132.687C69.9265 132.397 70.1598 132.051 70.3191 131.67C70.4784 131.289 70.5604 130.881 70.5604 130.468C70.5604 130.055 70.4784 129.646 70.3191 129.266C70.1598 128.885 69.9265 128.539 69.6326 128.249C69.3387 127.959 68.9901 127.731 68.6071 127.577C68.2241 127.422 67.8143 127.346 67.4015 127.352H65.4985C65.0857 127.357 64.6759 127.281 64.2929 127.127C63.9099 126.973 63.5614 126.744 63.2675 126.454C62.9736 126.164 62.7402 125.819 62.5809 125.438C62.4217 125.057 62.3396 124.648 62.3396 124.235C62.3396 123.822 62.4217 123.414 62.5809 123.033C62.7402 122.652 62.9736 122.307 63.2675 122.017C63.5614 121.727 63.9099 121.498 64.2929 121.344C64.6759 121.19 65.0857 121.113 65.4985 121.119H78.4868C79.3135 121.119 80.1063 120.791 80.6908 120.206C81.2754 119.621 81.6037 118.829 81.6037 118.002C81.6037 117.175 81.2754 116.383 80.6908 115.798C80.1063 115.213 79.3135 114.885 78.4868 114.885H78.4886Z" stroke="#E8E8E8" stroke-width="3" stroke-linecap="round" stroke-linejoin="round"/>
<path d="M233.283 195.622H240.893C241.719 195.622 242.512 195.951 243.097 196.535C243.681 197.12 244.01 197.913 244.01 198.739C244.01 199.566 243.681 200.359 243.097 200.943C242.512 201.528 241.719 201.856 240.893 201.856H237.339C236.513 201.856 235.72 202.184 235.136 202.769C234.551 203.353 234.223 204.146 234.223 204.972C234.223 205.799 234.551 206.591 235.136 207.176C235.72 207.76 236.513 208.088 237.339 208.088H259.591C260.418 208.088 261.21 207.76 261.795 207.176C262.379 206.591 262.707 205.799 262.707 204.972C262.707 204.146 262.379 203.353 261.795 202.769C261.21 202.184 260.418 201.856 259.591 201.856H257.687C256.86 201.856 256.067 201.528 255.483 200.943C254.898 200.359 254.57 199.566 254.57 198.739C254.57 197.913 254.898 197.12 255.483 196.535C256.067 195.951 256.86 195.622 257.687 195.622H274.821C275.647 195.622 276.44 195.294 277.024 194.71C277.609 194.125 277.937 193.333 277.937 192.506C277.937 191.68 277.609 190.887 277.024 190.303C276.44 189.718 275.647 189.39 274.821 189.39H233.281C232.455 189.39 231.662 189.718 231.078 190.303C230.493 190.887 230.165 191.68 230.165 192.506C230.165 193.333 230.493 194.125 231.078 194.71C231.662 195.294 232.455 195.622 233.281 195.622H233.283Z" stroke="#E8E8E8" stroke-width="3" stroke-linecap="round" stroke-linejoin="round"/>
<path d="M239.641 75.2983H68.0498V226.48H239.641V75.2983Z" fill="#DBDBDB"/>
<path d="M236.208 71.8652H64.6167V223.047H236.208V71.8652Z" fill="white"/>
<g opacity="0.2">
<path opacity="0.2" d="M129.005 105.258C130.1 105.258 130.988 104.366 130.988 103.266C130.988 102.166 130.1 101.274 129.005 101.274C127.91 101.274 127.023 102.166 127.023 103.266C127.023 104.366 127.91 105.258 129.005 105.258Z" fill="#EC3725"/>
<path opacity="0.2" d="M106.008 177.71L103.658 177.959L103.167 180.28L105.213 181.468L106.969 179.878L106.008 177.71Z" fill="#EC3725"/>
<path opacity="0.2" d="M105.131 130.313H101.266V134.196H105.131V130.313Z" fill="#EC3725"/>
<path opacity="0.2" d="M95.6248 152.43L95.1353 155.666L98.1687 154.473L95.6248 152.43Z" fill="#EC3725"/>
<path opacity="0.2" d="M167.014 106.771L164.021 108.508L167.014 110.245V106.771Z" fill="#EC3725"/>
<path opacity="0.2" d="M194.877 132.815L194.288 130.99H192.377L191.788 132.815L193.332 133.943L194.877 132.815Z" fill="#EC3725"/>
<path opacity="0.2" d="M193.729 190.497L189.114 192.033L190.643 196.67L195.258 195.133L193.729 190.497Z" fill="#EC3725"/>
<path opacity="0.2" d="M190.696 159.197L185.986 161.37L190.215 164.381L190.696 159.197Z" fill="#EC3725"/>
<path opacity="0.2" d="M109.725 196.612L106.731 198.349L109.725 200.086V196.612Z" fill="#EC3725"/>
</g>
<path d="M236.208 71.6719H64.6167V86.0941H236.208V71.6719Z" fill="black" fill-opacity="0.12"/>
<path d="M236.208 84.73H64.6167V99.1522H236.208V84.73Z" fill="#F5F5F5"/>
<path d="M227.808 106.997H73.2383V119.99H227.808V106.997Z" fill="#ED6C60" fill-opacity="0.3"/>
<path d="M75.5269 109.285H77.6782C78.5403 109.285 79.1964 109.522 79.6465 109.995C80.1042 110.468 80.3331 111.097 80.3331 111.883V115.018C80.3331 116.544 79.5244 117.307 77.9071 117.307H75.5269V109.285ZM79.0743 111.768C79.0743 111.349 78.9675 111.044 78.7539 110.853C78.5479 110.655 78.2275 110.555 77.7927 110.555H76.7856V116.151H77.724C78.136 116.151 78.464 116.09 78.7081 115.968C78.9523 115.838 79.0743 115.56 79.0743 115.133V111.768Z" fill="#ED6B5F"/>
<path d="M81.5727 109.297H85.3948V110.555H82.8315V112.581H84.3992L84.0445 113.782H82.8315V116.163H85.3719V117.307H81.5727V109.297Z" fill="#ED6B5F"/>
<path d="M86.8921 109.297H88.1509V116.151H91.0232V117.307H86.8921V109.297Z" fill="#ED6B5F"/>
<path d="M91.9321 109.297H95.7543V110.555H93.1909V112.581H94.7587L94.4039 113.782H93.1909V116.163H95.7314V117.307H91.9321V109.297Z" fill="#ED6B5F"/>
<path d="M98.0068 110.567H96.359V109.297H100.959V110.567H99.2656V117.307H98.0068V110.567Z" fill="#ED6B5F"/>
<path d="M101.856 109.297H105.678V110.555H103.115V112.581H104.682L104.328 113.782H103.115V116.163H105.655V117.307H101.856V109.297Z" fill="#ED6B5F"/>
<path d="M107.175 109.285H109.327C110.189 109.285 110.845 109.522 111.295 109.995C111.753 110.468 111.981 111.097 111.981 111.883V115.018C111.981 116.544 111.173 117.307 109.555 117.307H107.175V109.285ZM110.723 111.768C110.723 111.349 110.616 111.044 110.402 110.853C110.196 110.655 109.876 110.555 109.441 110.555H108.434V116.151H109.372C109.784 116.151 110.112 116.09 110.356 115.968C110.601 115.838 110.723 115.56 110.723 115.133V111.768Z" fill="#ED6B5F"/>
<path d="M74.9498 78.4307C74.9498 78.7891 74.8436 79.1395 74.6444 79.4375C74.4453 79.7355 74.1623 79.9677 73.8312 80.1049C73.5001 80.242 73.1357 80.2779 72.7842 80.208C72.4327 80.1381 72.1098 79.9655 71.8564 79.7121C71.603 79.4586 71.4304 79.1358 71.3605 78.7842C71.2906 78.4327 71.3265 78.0684 71.4636 77.7373C71.6008 77.4062 71.833 77.1232 72.131 76.924C72.429 76.7249 72.7794 76.6187 73.1378 76.6187C73.6183 76.6187 74.0793 76.8096 74.4191 77.1494C74.7589 77.4892 74.9498 77.9501 74.9498 78.4307Z" fill="#4D4D4D"/>
<path d="M81.5929 78.4307C81.5929 78.7891 81.4866 79.1395 81.2875 79.4375C81.0883 79.7355 80.8053 79.9678 80.4741 80.1049C80.143 80.2421 79.7786 80.2779 79.4271 80.2079C79.0756 80.138 78.7527 79.9653 78.4993 79.7119C78.2459 79.4584 78.0734 79.1354 78.0035 78.7839C77.9336 78.4323 77.9696 78.068 78.1069 77.7369C78.2441 77.4058 78.4764 77.1228 78.7745 76.9238C79.0726 76.7247 79.423 76.6185 79.7814 76.6187C80.0193 76.6187 80.2549 76.6655 80.4748 76.7566C80.6946 76.8477 80.8943 76.9812 81.0625 77.1494C81.2307 77.3177 81.3642 77.5175 81.4552 77.7373C81.5462 77.9572 81.593 78.1928 81.5929 78.4307Z" fill="#4D4D4D"/>
<path d="M88.2374 78.4307C88.2374 78.7891 88.1312 79.1395 87.932 79.4375C87.7329 79.7355 87.4499 79.9677 87.1188 80.1049C86.7877 80.242 86.4233 80.2779 86.0718 80.208C85.7203 80.1381 85.3975 79.9655 85.144 79.7121C84.8906 79.4586 84.718 79.1358 84.6481 78.7842C84.5782 78.4327 84.6141 78.0684 84.7512 77.7373C84.8884 77.4062 85.1206 77.1232 85.4186 76.924C85.7166 76.7249 86.067 76.6187 86.4254 76.6187C86.9059 76.6187 87.3669 76.8096 87.7067 77.1494C88.0465 77.4892 88.2374 77.9501 88.2374 78.4307Z" fill="#4D4D4D"/>
<path d="M236.24 223.047C236.24 222.088 236.207 164.129 236.154 71.6713L236.24 71.7892L64.7386 71.8201H64.7248L64.8336 71.6713C64.8301 125.408 64.8273 176.583 64.825 223.047L64.7248 222.91L236.24 223.047L64.7248 223.185H64.6253V223.047C64.6253 176.583 64.6196 125.408 64.6167 71.6713V71.522H64.7386L236.24 71.5534H236.326V71.6713C236.273 164.129 236.241 222.088 236.24 223.047Z" fill="#263238"/>
<path d="M179.396 160.269H160.817C160.377 160.269 160.017 159.909 160.017 159.469V131.828C160.017 131.388 160.377 131.028 160.817 131.028H179.396C179.837 131.028 180.197 131.388 180.197 131.828V159.469C180.197 159.909 179.837 160.269 179.396 160.269Z" fill="white"/>
<path d="M160.057 135.388H180.197" stroke="#E6E6E6" stroke-width="2.0307" stroke-miterlimit="10" stroke-linecap="round" stroke-linejoin="round"/>
<path d="M180.237 156.509H160.057V158.669H180.237V156.509Z" fill="#A5A9AD"/>
<path d="M170.267 133.708H162.179C161.898 133.708 161.658 133.468 161.658 133.188V133.148C161.658 132.868 161.898 132.628 162.179 132.628H170.267C170.547 132.628 170.787 132.868 170.787 133.148V133.228C170.787 133.508 170.547 133.708 170.267 133.708Z" fill="#E6E6E6"/>
<path d="M170.267 142.828H162.179C161.898 142.828 161.658 142.588 161.658 142.308V142.228C161.658 141.948 161.898 141.708 162.179 141.708H170.267C170.547 141.708 170.787 141.948 170.787 142.228V142.308C170.787 142.588 170.547 142.828 170.267 142.828Z" fill="#DCDCDC"/>
<path d="M175.833 145.748H162.219C161.938 145.748 161.698 145.508 161.698 145.228V145.148C161.698 144.868 161.938 144.628 162.219 144.628H175.833C176.113 144.628 176.353 144.868 176.353 145.148V145.228C176.313 145.508 176.073 145.748 175.833 145.748Z" fill="#DCDCDC"/>
<path d="M173.23 148.669H162.219C161.938 148.669 161.698 148.429 161.698 148.149V148.069C161.698 147.789 161.938 147.549 162.219 147.549H173.23C173.51 147.549 173.75 147.789 173.75 148.069V148.149C173.71 148.429 173.47 148.669 173.23 148.669Z" fill="#DCDCDC"/>
<path d="M179.396 160.269H160.817C160.377 160.269 160.017 159.909 160.017 159.469V131.828C160.017 131.388 160.377 131.028 160.817 131.028H179.396C179.837 131.028 180.197 131.388 180.197 131.828V159.469C180.197 159.909 179.837 160.269 179.396 160.269Z" stroke="#E6E6E6" stroke-width="2.0307" stroke-miterlimit="10" stroke-linecap="round" stroke-linejoin="round"/>
<path d="M149.087 184.591H130.508C130.067 184.591 129.707 184.231 129.707 183.791V156.149C129.707 155.709 130.067 155.349 130.508 155.349H149.087C149.527 155.349 149.887 155.709 149.887 156.149V183.791C149.887 184.231 149.527 184.591 149.087 184.591Z" fill="white"/>
<path d="M129.706 159.669H149.886" stroke="#F68B22" stroke-width="2.0307" stroke-miterlimit="10" stroke-linecap="round" stroke-linejoin="round"/>
<path d="M149.886 180.831H129.706V182.991H149.886V180.831Z" fill="#F68B22"/>
<path d="M139.956 158.029H131.868C131.588 158.029 131.348 157.789 131.348 157.509V157.429C131.348 157.149 131.588 156.909 131.868 156.909H139.956C140.237 156.909 140.477 157.149 140.477 157.429V157.509C140.437 157.789 140.237 158.029 139.956 158.029Z" fill="#F68B22"/>
<path d="M139.956 167.11H131.868C131.588 167.11 131.348 166.87 131.348 166.59V166.51C131.348 166.23 131.588 165.99 131.868 165.99H139.956C140.237 165.99 140.477 166.23 140.477 166.51V166.59C140.437 166.91 140.237 167.11 139.956 167.11Z" fill="#DCDCDC"/>
<path d="M145.482 170.07H131.868C131.588 170.07 131.348 169.83 131.348 169.55V169.47C131.348 169.19 131.588 168.95 131.868 168.95H145.482C145.762 168.95 146.002 169.19 146.002 169.47V169.55C146.002 169.83 145.762 170.07 145.482 170.07Z" fill="#DCDCDC"/>
<path d="M142.879 172.99H131.868C131.588 172.99 131.348 172.75 131.348 172.47V172.39C131.348 172.11 131.588 171.87 131.868 171.87H142.879C143.16 171.87 143.4 172.11 143.4 172.39V172.47C143.4 172.75 143.16 172.99 142.879 172.99Z" fill="#DCDCDC"/>
<path d="M149.087 184.591H130.508C130.067 184.591 129.707 184.231 129.707 183.791V156.149C129.707 155.709 130.067 155.349 130.508 155.349H149.087C149.527 155.349 149.887 155.709 149.887 156.149V183.791C149.887 184.231 149.527 184.591 149.087 184.591Z" stroke="#F68B22" stroke-width="2.0307" stroke-miterlimit="10" stroke-linecap="round" stroke-linejoin="round"/>
<path d="M179.396 209.032H160.817C160.377 209.032 160.017 208.672 160.017 208.232V180.591C160.017 180.151 160.377 179.791 160.817 179.791H179.396C179.837 179.791 180.197 180.151 180.197 180.591V208.232C180.197 208.672 179.837 209.032 179.396 209.032Z" fill="white"/>
<path d="M160.057 184.111H180.197" stroke="#E6E6E6" stroke-width="2.0307" stroke-miterlimit="10" stroke-linecap="round" stroke-linejoin="round"/>
<path d="M180.237 205.232H160.057V207.392H180.237V205.232Z" fill="#A5A9AD"/>
<path d="M170.267 182.471H162.179C161.898 182.471 161.658 182.231 161.658 181.951V181.871C161.658 181.591 161.898 181.351 162.179 181.351H170.267C170.547 181.351 170.787 181.591 170.787 181.871V181.951C170.787 182.231 170.547 182.471 170.267 182.471Z" fill="#E6E6E6"/>
<path d="M170.267 191.551H162.179C161.898 191.551 161.658 191.311 161.658 191.031V190.951C161.658 190.671 161.898 190.431 162.179 190.431H170.267C170.547 190.431 170.787 190.671 170.787 190.951V191.031C170.787 191.351 170.547 191.551 170.267 191.551Z" fill="#DCDCDC"/>
<path d="M175.833 194.471H162.219C161.938 194.471 161.698 194.231 161.698 193.951V193.871C161.698 193.591 161.938 193.351 162.219 193.351H175.833C176.113 193.351 176.353 193.591 176.353 193.871V193.951C176.313 194.271 176.073 194.471 175.833 194.471Z" fill="#DCDCDC"/>
<path d="M173.23 197.392H162.219C161.938 197.392 161.698 197.152 161.698 196.872V196.832C161.698 196.552 161.938 196.312 162.219 196.312H173.23C173.51 196.312 173.75 196.552 173.75 196.832V196.912C173.71 197.192 173.47 197.392 173.23 197.392Z" fill="#DCDCDC"/>
<path d="M179.396 209.032H160.817C160.377 209.032 160.017 208.672 160.017 208.232V180.591C160.017 180.151 160.377 179.791 160.817 179.791H179.396C179.837 179.791 180.197 180.151 180.197 180.591V208.232C180.197 208.672 179.837 209.032 179.396 209.032Z" stroke="#E6E6E6" stroke-width="2.0307" stroke-miterlimit="10" stroke-linecap="round" stroke-linejoin="round"/>
<path d="M110.927 166.79H92.3482C91.9077 166.79 91.5474 166.43 91.5474 165.99V138.348C91.5474 137.908 91.9077 137.548 92.3482 137.548H110.927C111.367 137.548 111.728 137.908 111.728 138.348V165.99C111.728 166.43 111.367 166.79 110.927 166.79Z" fill="white"/>
<path d="M91.5474 141.868H111.728" stroke="#E6E6E6" stroke-width="2.0307" stroke-miterlimit="10" stroke-linecap="round" stroke-linejoin="round"/>
<path d="M111.728 162.99H91.5474V165.15H111.728V162.99Z" fill="#A5A9AD"/>
<path d="M101.798 140.228H93.7095C93.4292 140.228 93.189 139.988 93.189 139.708V139.628C93.189 139.348 93.4292 139.108 93.7095 139.108H101.798C102.078 139.108 102.318 139.348 102.318 139.628V139.708C102.278 139.988 102.078 140.228 101.798 140.228Z" fill="#E6E6E6"/>
<path d="M101.798 149.309H93.7095C93.4292 149.309 93.189 149.069 93.189 148.789V148.709C93.189 148.429 93.4292 148.189 93.7095 148.189H101.798C102.078 148.189 102.318 148.429 102.318 148.709V148.829C102.278 149.109 102.078 149.309 101.798 149.309Z" fill="#DCDCDC"/>
<path d="M107.323 152.229H93.7095C93.4292 152.229 93.189 151.989 93.189 151.709V151.629C93.189 151.349 93.4292 151.109 93.7095 151.109H107.323C107.604 151.109 107.844 151.349 107.844 151.629V151.709C107.844 152.029 107.604 152.229 107.323 152.229Z" fill="#DCDCDC"/>
<path d="M104.721 155.189H93.7095C93.4292 155.189 93.189 154.949 93.189 154.669V154.589C93.189 154.309 93.4292 154.069 93.7095 154.069H104.721C105.001 154.069 105.241 154.309 105.241 154.589V154.669C105.241 154.949 105.001 155.189 104.721 155.189Z" fill="#DCDCDC"/>
<path d="M110.927 166.79H92.3482C91.9077 166.79 91.5474 166.43 91.5474 165.99V138.348C91.5474 137.908 91.9077 137.548 92.3482 137.548H110.927C111.367 137.548 111.728 137.908 111.728 138.348V165.99C111.728 166.43 111.367 166.79 110.927 166.79Z" stroke="#E6E6E6" stroke-width="2.0307" stroke-miterlimit="10" stroke-linecap="round" stroke-linejoin="round"/>
<path d="M110.927 202.512H92.3487C91.9082 202.512 91.5479 202.152 91.5479 201.712V174.071C91.5479 173.631 91.9082 173.271 92.3487 173.271H110.927C111.368 173.271 111.728 173.631 111.728 174.071V201.712C111.728 202.152 111.368 202.512 110.927 202.512Z" fill="white"/>
<path d="M91.5474 177.631H111.728" stroke="#E6E6E6" stroke-width="2.0307" stroke-miterlimit="10" stroke-linecap="round" stroke-linejoin="round"/>
<path d="M111.728 198.752H91.5474V200.913H111.728V198.752Z" fill="#A5A9AD"/>
<path d="M101.798 175.951H93.7095C93.4292 175.951 93.189 175.711 93.189 175.431V175.351C93.189 175.071 93.4292 174.831 93.7095 174.831H101.798C102.078 174.831 102.318 175.071 102.318 175.351V175.431C102.278 175.751 102.078 175.951 101.798 175.951Z" fill="#E6E6E6"/>
<path d="M101.798 185.072H93.7095C93.4292 185.072 93.189 184.832 93.189 184.552V184.472C93.189 184.192 93.4292 183.952 93.7095 183.952H101.798C102.078 183.952 102.318 184.192 102.318 184.472V184.552C102.278 184.832 102.078 185.072 101.798 185.072Z" fill="#DCDCDC"/>
<path d="M107.323 187.992H93.7095C93.4292 187.992 93.189 187.752 93.189 187.472V187.392C93.189 187.112 93.4292 186.872 93.7095 186.872H107.323C107.604 186.872 107.844 187.112 107.844 187.392V187.472C107.844 187.752 107.604 187.992 107.323 187.992Z" fill="#DCDCDC"/>
<path d="M104.721 190.912H93.7095C93.4292 190.912 93.189 190.672 93.189 190.392V190.312C93.189 190.032 93.4292 189.792 93.7095 189.792H104.721C105.001 189.792 105.241 190.032 105.241 190.312V190.392C105.241 190.672 105.001 190.912 104.721 190.912Z" fill="#DCDCDC"/>
<path d="M110.927 202.512H92.3487C91.9082 202.512 91.5479 202.152 91.5479 201.712V174.071C91.5479 173.631 91.9082 173.271 92.3487 173.271H110.927C111.368 173.271 111.728 173.631 111.728 174.071V201.712C111.728 202.152 111.368 202.512 110.927 202.512Z" stroke="#E6E6E6" stroke-width="2.0307" stroke-miterlimit="10" stroke-linecap="round" stroke-linejoin="round"/>
<path d="M209.187 184.591H190.608C190.167 184.591 189.807 184.231 189.807 183.791V156.149C189.807 155.709 190.167 155.349 190.608 155.349H209.187C209.627 155.349 209.988 155.709 209.988 156.149V183.791C209.988 184.231 209.627 184.591 209.187 184.591Z" fill="white"/>
<path d="M189.807 159.669H209.987" stroke="#E6E6E6" stroke-width="2.0307" stroke-miterlimit="10" stroke-linecap="round" stroke-linejoin="round"/>
<path d="M209.987 180.831H189.807V182.991H209.987V180.831Z" fill="#A5A9AD"/>
<path d="M200.057 158.029H191.969C191.689 158.029 191.449 157.789 191.449 157.509V157.429C191.449 157.149 191.689 156.909 191.969 156.909H200.057C200.338 156.909 200.578 157.149 200.578 157.429V157.509C200.538 157.789 200.338 158.029 200.057 158.029Z" fill="#E6E6E6"/>
<path d="M200.057 167.11H191.969C191.689 167.11 191.449 166.87 191.449 166.59V166.51C191.449 166.23 191.689 165.99 191.969 165.99H200.057C200.338 165.99 200.578 166.23 200.578 166.51V166.59C200.538 166.91 200.338 167.11 200.057 167.11Z" fill="#DCDCDC"/>
<path d="M205.583 170.07H191.969C191.689 170.07 191.449 169.83 191.449 169.55V169.47C191.449 169.19 191.689 168.95 191.969 168.95H205.583C205.863 168.95 206.104 169.19 206.104 169.47V169.55C206.104 169.83 205.863 170.07 205.583 170.07Z" fill="#DCDCDC"/>
<path d="M202.98 172.99H191.969C191.689 172.99 191.449 172.75 191.449 172.47V172.39C191.449 172.11 191.689 171.87 191.969 171.87H202.98C203.261 171.87 203.501 172.11 203.501 172.39V172.47C203.501 172.75 203.261 172.99 202.98 172.99Z" fill="#DCDCDC"/>
<path d="M209.187 184.591H190.608C190.167 184.591 189.807 184.231 189.807 183.791V156.149C189.807 155.709 190.167 155.349 190.608 155.349H209.187C209.627 155.349 209.988 155.709 209.988 156.149V183.791C209.988 184.231 209.627 184.591 209.187 184.591Z" stroke="#E6E6E6" stroke-width="2.0307" stroke-miterlimit="10" stroke-linecap="round" stroke-linejoin="round"/>
<path d="M139.796 151.949V145.709C139.796 143.749 141.398 142.148 143.36 142.148H157.414" stroke="#E6E6E6" stroke-width="2.0307" stroke-miterlimit="10" stroke-linecap="round" stroke-linejoin="round"/>
<path d="M139.636 152.749C139.717 152.869 139.877 152.869 139.957 152.749L140.958 151.189C141.038 151.069 140.998 150.949 140.838 150.949H138.756C138.595 150.949 138.515 151.069 138.635 151.189L139.636 152.749Z" fill="#E6E6E6"/>
<path d="M158.055 142.308C158.175 142.228 158.175 142.068 158.055 141.988L156.494 140.988C156.374 140.908 156.253 140.948 156.253 141.108V143.188C156.253 143.348 156.374 143.428 156.494 143.308L158.055 142.308Z" fill="#E6E6E6"/>
<path d="M139.796 187.991V194.232C139.796 196.192 141.398 197.792 143.359 197.792H157.414" stroke="#E6E6E6" stroke-width="2.0307" stroke-miterlimit="10" stroke-linecap="round" stroke-linejoin="round"/>
<path d="M139.636 187.191C139.716 187.071 139.876 187.071 139.956 187.191L140.957 188.751C141.037 188.871 140.997 188.991 140.837 188.991H138.755C138.595 188.991 138.515 188.871 138.635 188.751L139.636 187.191Z" fill="#E6E6E6"/>
<path d="M158.054 197.632C158.174 197.712 158.174 197.872 158.054 197.952L156.493 198.952C156.373 199.032 156.252 198.992 156.252 198.832V196.752C156.252 196.592 156.373 196.512 156.493 196.632L158.054 197.632Z" fill="#E6E6E6"/>
<path d="M200.457 151.949V145.709C200.457 143.749 198.856 142.148 196.894 142.148H182.839" stroke="#E6E6E6" stroke-width="2.0307" stroke-miterlimit="10" stroke-linecap="round" stroke-linejoin="round"/>
<path d="M200.617 152.749C200.537 152.869 200.377 152.869 200.297 152.749L199.296 151.189C199.216 151.069 199.256 150.949 199.416 150.949H201.498C201.658 150.949 201.738 151.069 201.618 151.189L200.617 152.749Z" fill="#E6E6E6"/>
<path d="M182.199 142.308C182.079 142.228 182.079 142.068 182.199 141.988L183.761 140.988C183.881 140.908 184.001 140.948 184.001 141.108V143.188C184.001 143.348 183.881 143.428 183.761 143.308L182.199 142.308Z" fill="#E6E6E6"/>
<path d="M200.457 187.991V194.232C200.457 196.192 198.856 197.792 196.894 197.792H182.839" stroke="#E6E6E6" stroke-width="2.0307" stroke-miterlimit="10" stroke-linecap="round" stroke-linejoin="round"/>
<path d="M200.618 187.191C200.538 187.071 200.377 187.071 200.297 187.191L199.296 188.751C199.216 188.871 199.256 188.991 199.417 188.991H201.499C201.659 188.991 201.739 188.871 201.619 188.751L200.618 187.191Z" fill="#E6E6E6"/>
<path d="M182.199 197.632C182.079 197.712 182.079 197.872 182.199 197.952L183.761 198.952C183.881 199.032 184.001 198.992 184.001 198.832V196.752C184.001 196.592 183.881 196.512 183.761 196.632L182.199 197.632Z" fill="#E6E6E6"/>
<path d="M113.65 188.39H116.973C118.935 188.39 120.537 186.79 120.537 184.83V180.11C120.537 178.15 122.098 176.55 124.06 176.55H127.384" stroke="#E6E6E6" stroke-width="2.0307" stroke-miterlimit="10" stroke-linecap="round" stroke-linejoin="round"/>
<path d="M128.185 176.39C128.305 176.47 128.305 176.63 128.185 176.71L126.623 177.71C126.503 177.79 126.383 177.75 126.383 177.59V175.51C126.383 175.35 126.503 175.27 126.623 175.39L128.185 176.39Z" fill="#E6E6E6"/>
<path d="M112.889 188.231C112.769 188.311 112.769 188.471 112.889 188.551L114.45 189.551C114.571 189.631 114.691 189.591 114.691 189.431V187.351C114.691 187.191 114.571 187.111 114.45 187.231L112.889 188.231Z" fill="#E6E6E6"/>
<path d="M113.65 151.549H116.973C118.935 151.549 120.537 153.149 120.537 155.109V159.829C120.537 161.789 122.098 163.389 124.06 163.389H127.384" stroke="#E6E6E6" stroke-width="2.0307" stroke-miterlimit="10" stroke-linecap="round" stroke-linejoin="round"/>
<path d="M128.184 163.55C128.304 163.47 128.304 163.31 128.184 163.23L126.623 162.229C126.502 162.149 126.382 162.189 126.382 162.349V164.43C126.382 164.59 126.502 164.67 126.623 164.55L128.184 163.55Z" fill="#E6E6E6"/>
<path d="M112.889 151.709C112.769 151.629 112.769 151.469 112.889 151.389L114.45 150.389C114.571 150.309 114.691 150.349 114.691 150.509V152.589C114.691 152.749 114.571 152.829 114.45 152.709L112.889 151.709Z" fill="#E6E6E6"/>
<path d="M150.44 248.515C199.714 248.515 239.658 244.531 239.658 239.615C239.658 234.7 199.714 230.716 150.44 230.716C101.167 230.716 61.2227 234.7 61.2227 239.615C61.2227 244.531 101.167 248.515 150.44 248.515Z" fill="black" fill-opacity="0.12"/>
</svg>
