<svg width="312" height="278" viewBox="0 0 312 278" fill="none" xmlns="http://www.w3.org/2000/svg">
<path fill-rule="evenodd" clip-rule="evenodd" d="M79.7133 273.47C73.1668 272.054 -5.48502 259.298 0.304318 165.229C6.09365 71.1596 13.3616 42.8704 43.9398 32.5183C74.518 22.1663 148.85 -26.8066 207.179 19.7612C243.228 48.5397 300.661 107.961 305.022 122.685C309.383 137.408 318.493 165.659 303.47 182.449C264.144 226.402 274.404 281.605 209.237 277.815C144.07 274.025 110.84 280.204 79.7121 273.469" fill="#F9F9F9"/>
<path d="M244.168 76.792H74.3369V226.423H244.168V76.792Z" fill="#DBDBDB"/>
<path d="M240.771 73.394H70.9392V223.025H240.771V73.394Z" fill="white"/>
<path d="M240.771 164.495H70.9392V189.776H240.771V164.495Z" fill="white"/>
<path d="M240.771 135.569H70.9392V164.495H240.771V135.569Z" fill="#F5F5F5"/>
<path d="M240.771 193.907H70.9392V222.832H240.771V193.907Z" fill="#F5F5F5"/>
<path d="M173.481 144.579C173.481 144.661 153.452 144.726 128.753 144.726C104.044 144.726 84.0195 144.661 84.0195 144.579C84.0195 144.497 104.044 144.431 128.753 144.431C153.452 144.431 173.481 144.497 173.481 144.579Z" fill="#4D4D4D"/>
<path d="M121.781 152.63C121.781 152.711 113.27 152.777 102.773 152.777C92.277 152.777 83.7632 152.711 83.7632 152.63C83.7632 152.548 92.2725 152.482 102.773 152.482C113.274 152.482 121.781 152.55 121.781 152.63Z" fill="#4D4D4D"/>
<path d="M173.481 173.11C173.481 173.192 153.452 173.258 128.753 173.258C104.044 173.258 84.0195 173.192 84.0195 173.11C84.0195 173.029 104.044 172.963 128.753 172.963C153.452 172.963 173.481 173.029 173.481 173.11Z" fill="#4D4D4D"/>
<path d="M121.781 181.161C121.781 181.243 113.27 181.308 102.773 181.308C92.277 181.308 83.7632 181.243 83.7632 181.161C83.7632 181.079 92.2725 181.013 102.773 181.013C113.274 181.013 121.781 181.079 121.781 181.161Z" fill="#4D4D4D"/>
<path d="M173.481 201.641C173.481 201.723 153.452 201.789 128.753 201.789C104.044 201.789 84.0195 201.723 84.0195 201.641C84.0195 201.56 104.044 201.494 128.753 201.494C153.452 201.494 173.481 201.56 173.481 201.641Z" fill="#4D4D4D"/>
<path d="M121.781 209.69C121.781 209.771 113.27 209.838 102.773 209.838C92.277 209.838 83.7632 209.771 83.7632 209.69C83.7632 209.608 92.2725 209.542 102.773 209.542C113.274 209.542 121.781 209.611 121.781 209.69Z" fill="#4D4D4D"/>
<path d="M240.771 73.2021H70.9392V87.4764H240.771V73.2021Z" fill="black" fill-opacity="0.12"/>
<path d="M240.771 86.127H70.9392V100.401H240.771V86.127Z" fill="#F5F5F5"/>
<path d="M240.802 223.025C240.802 222.076 240.77 164.712 240.717 73.202L240.802 73.3187L71.0598 73.3492H71.0462L71.1538 73.202C71.1504 126.388 71.1476 177.038 71.1453 223.025L71.0462 222.889L240.802 223.025L71.0462 223.161H70.9477V223.025C70.9477 177.038 70.942 126.388 70.9392 73.202V73.0542H71.0598L240.802 73.0853H240.887V73.202C240.835 164.712 240.803 222.076 240.802 223.025Z" fill="#263238"/>
<path d="M239.547 105.333H71.9209V130.615H239.547V105.333Z" fill="white"/>
<path d="M173.131 113.949C173.131 114.03 153.363 114.096 128.984 114.096C104.596 114.096 84.8315 114.03 84.8315 113.949C84.8315 113.867 104.596 113.801 128.984 113.801C153.363 113.801 173.131 113.868 173.131 113.949Z" fill="#F48634"/>
<path d="M122.103 121.999C122.103 122.081 113.702 122.147 103.342 122.147C92.9816 122.147 84.5784 122.081 84.5784 121.999C84.5784 121.918 92.9772 121.852 103.342 121.852C113.706 121.852 122.103 121.918 122.103 121.999Z" fill="#F48634"/>
<path d="M155.883 247.1C204.651 247.1 244.185 243.156 244.185 238.291C244.185 233.427 204.651 229.483 155.883 229.483C107.114 229.483 67.5798 233.427 67.5798 238.291C67.5798 243.156 107.114 247.1 155.883 247.1Z" fill="black" fill-opacity="0.12"/>
</svg>
