<svg width="313" height="279" viewBox="0 0 313 279" fill="none" xmlns="http://www.w3.org/2000/svg">
<path fill-rule="evenodd" clip-rule="evenodd" d="M80 274.453C73.43 273.033 -5.50475 260.231 0.305412 165.823C6.11557 71.4156 13.4097 43.0246 44.0979 32.6353C74.786 22.246 149.385 -26.903 207.924 19.8323C244.103 48.7143 301.743 108.35 306.119 123.126C310.496 137.902 319.638 166.255 304.562 183.106C265.094 227.216 275.391 282.618 209.99 278.814C144.589 275.01 111.238 281.212 79.9989 274.453" fill="#F9F9F9"/>
<path d="M77.9631 114.116H50.1433C49.7333 114.121 49.3262 114.045 48.9458 113.892C48.5654 113.739 48.2191 113.512 47.9272 113.224C47.6353 112.936 47.4035 112.593 47.2453 112.214C47.0871 111.836 47.0056 111.43 47.0056 111.02C47.0056 110.61 47.0871 110.204 47.2453 109.826C47.4035 109.447 47.6353 109.104 47.9272 108.816C48.2191 108.528 48.5654 108.301 48.9458 108.148C49.3262 107.995 49.7333 107.919 50.1433 107.925H53.2016C53.6116 107.93 54.0186 107.854 54.3991 107.701C54.7795 107.548 55.1257 107.321 55.4177 107.033C55.7096 106.745 55.9414 106.402 56.0996 106.024C56.2578 105.645 56.3393 105.239 56.3393 104.829C56.3393 104.419 56.2578 104.013 56.0996 103.635C55.9414 103.256 55.7096 102.913 55.4177 102.625C55.1257 102.337 54.7795 102.11 54.3991 101.957C54.0186 101.804 53.6116 101.728 53.2016 101.734H34.498C34.088 101.728 33.6809 101.804 33.3005 101.957C32.92 102.11 32.5738 102.337 32.2819 102.625C31.99 102.913 31.7582 103.256 31.6 103.635C31.4418 104.013 31.3603 104.419 31.3603 104.829C31.3603 105.239 31.4418 105.645 31.6 106.024C31.7582 106.402 31.99 106.745 32.2819 107.033C32.5738 107.321 32.92 107.548 33.3005 107.701C33.6809 107.854 34.088 107.93 34.498 107.925H37.4051C37.8151 107.919 38.2221 107.995 38.6026 108.148C38.983 108.301 39.3292 108.528 39.6212 108.816C39.9131 109.104 40.1449 109.447 40.3031 109.826C40.4613 110.204 40.5428 110.61 40.5428 111.02C40.5428 111.43 40.4613 111.836 40.3031 112.214C40.1449 112.593 39.9131 112.936 39.6212 113.224C39.3292 113.512 38.983 113.739 38.6026 113.892C38.2221 114.045 37.8151 114.121 37.4051 114.116H28.8231C28.002 114.116 27.2145 114.442 26.6339 115.022C26.0532 115.603 25.7271 116.39 25.7271 117.212C25.7271 118.033 26.0532 118.82 26.6339 119.401C27.2145 119.981 28.002 120.308 28.8231 120.308H48.3803C49.194 120.319 49.9707 120.65 50.5422 121.229C51.1137 121.808 51.4341 122.589 51.4341 123.403C51.4341 124.217 51.1137 124.998 50.5422 125.577C49.9707 126.157 49.194 126.488 48.3803 126.499H44.8532C44.4431 126.493 44.0361 126.569 43.6557 126.722C43.2752 126.875 42.929 127.102 42.6371 127.39C42.3452 127.678 42.1134 128.021 41.9552 128.4C41.797 128.778 41.7155 129.184 41.7155 129.594C41.7155 130.004 41.797 130.41 41.9552 130.788C42.1134 131.167 42.3452 131.51 42.6371 131.798C42.929 132.086 43.2752 132.313 43.6557 132.466C44.0361 132.619 44.4431 132.695 44.8532 132.69H66.9503C67.3603 132.695 67.7674 132.619 68.1478 132.466C68.5282 132.313 68.8745 132.086 69.1664 131.798C69.4583 131.51 69.6901 131.167 69.8483 130.788C70.0065 130.41 70.088 130.004 70.088 129.594C70.088 129.184 70.0065 128.778 69.8483 128.4C69.6901 128.021 69.4583 127.678 69.1664 127.39C68.8745 127.102 68.5282 126.875 68.1478 126.722C67.7674 126.569 67.3603 126.493 66.9503 126.499H65.06C64.65 126.504 64.2429 126.428 63.8625 126.275C63.4821 126.122 63.1358 125.895 62.8439 125.607C62.552 125.319 62.3202 124.976 62.162 124.598C62.0038 124.219 61.9223 123.813 61.9223 123.403C61.9223 122.993 62.0038 122.587 62.162 122.209C62.3202 121.83 62.552 121.487 62.8439 121.199C63.1358 120.911 63.4821 120.684 63.8625 120.531C64.2429 120.378 64.65 120.302 65.06 120.308H77.9614C78.7825 120.308 79.57 119.981 80.1506 119.401C80.7312 118.82 81.0574 118.033 81.0574 117.212C81.0574 116.39 80.7312 115.603 80.1506 115.022C79.57 114.442 78.7825 114.116 77.9614 114.116H77.9631Z" stroke="#E8E8E8" stroke-width="3" stroke-linecap="round" stroke-linejoin="round"/>
<path d="M231.721 194.312H239.28C240.101 194.312 240.888 194.638 241.469 195.219C242.049 195.799 242.376 196.587 242.376 197.408C242.376 198.229 242.049 199.017 241.469 199.597C240.888 200.178 240.101 200.504 239.28 200.504H235.75C234.929 200.504 234.141 200.83 233.561 201.411C232.98 201.991 232.654 202.778 232.654 203.599C232.654 204.42 232.98 205.207 233.561 205.788C234.141 206.368 234.929 206.694 235.75 206.694H257.853C258.674 206.694 259.461 206.368 260.042 205.788C260.622 205.207 260.948 204.42 260.948 203.599C260.948 202.778 260.622 201.991 260.042 201.411C259.461 200.83 258.674 200.504 257.853 200.504H255.961C255.14 200.504 254.352 200.178 253.772 199.597C253.191 199.017 252.865 198.229 252.865 197.408C252.865 196.587 253.191 195.799 253.772 195.219C254.352 194.638 255.14 194.312 255.961 194.312H272.981C273.801 194.312 274.589 193.986 275.169 193.405C275.75 192.825 276.076 192.038 276.076 191.217C276.076 190.396 275.75 189.609 275.169 189.028C274.589 188.448 273.801 188.122 272.981 188.122H231.719C230.898 188.122 230.111 188.448 229.53 189.028C228.95 189.609 228.624 190.396 228.624 191.217C228.624 192.038 228.95 192.825 229.53 193.405C230.111 193.986 230.898 194.312 231.719 194.312H231.721Z" stroke="#E8E8E8" stroke-width="3" stroke-linecap="round" stroke-linejoin="round"/>
<path d="M238.036 74.7939H67.594V224.964H238.036V74.7939Z" fill="#DBDBDB"/>
<path d="M234.626 71.3838H64.184V221.553H234.626V71.3838Z" fill="white"/>
<g opacity="0.2">
<path opacity="0.2" d="M128.141 104.553C129.229 104.553 130.11 103.668 130.11 102.575C130.11 101.482 129.229 100.597 128.141 100.597C127.054 100.597 126.172 101.482 126.172 102.575C126.172 103.668 127.054 104.553 128.141 104.553Z" fill="#EC3725"/>
<path opacity="0.2" d="M105.298 176.521L102.964 176.768L102.475 179.073L104.508 180.254L106.253 178.674L105.298 176.521Z" fill="#EC3725"/>
<path opacity="0.2" d="M104.427 129.441H100.588V133.298H104.427V129.441Z" fill="#EC3725"/>
<path opacity="0.2" d="M94.9841 151.41L94.4978 154.624L97.511 153.44L94.9841 151.41Z" fill="#EC3725"/>
<path opacity="0.2" d="M165.895 106.057L162.922 107.782L165.895 109.507V106.057Z" fill="#EC3725"/>
<path opacity="0.2" d="M193.572 131.926L192.986 130.113H191.088L190.503 131.926L192.037 133.046L193.572 131.926Z" fill="#EC3725"/>
<path opacity="0.2" d="M192.431 189.222L187.847 190.748L189.366 195.353L193.95 193.827L192.431 189.222Z" fill="#EC3725"/>
<path opacity="0.2" d="M189.419 158.132L184.74 160.29L188.941 163.281L189.419 158.132Z" fill="#EC3725"/>
<path opacity="0.2" d="M108.99 195.296L106.017 197.021L108.99 198.746V195.296Z" fill="#EC3725"/>
</g>
<path d="M234.626 71.1919H64.184V85.5175H234.626V71.1919Z" fill="black" fill-opacity="0.12"/>
<path d="M234.626 84.1626H64.184V98.4882H234.626V84.1626Z" fill="#F5F5F5"/>
<path d="M74.4476 77.9059C74.4476 78.2619 74.342 78.6099 74.1443 78.9059C73.9465 79.2019 73.6654 79.4326 73.3365 79.5688C73.0076 79.7051 72.6457 79.7407 72.2965 79.6712C71.9474 79.6018 71.6266 79.4304 71.3749 79.1786C71.1232 78.9269 70.9518 78.6062 70.8823 78.257C70.8129 77.9079 70.8485 77.546 70.9847 77.2171C71.121 76.8882 71.3517 76.6071 71.6477 76.4093C71.9437 76.2115 72.2917 76.106 72.6477 76.106C73.125 76.106 73.5829 76.2956 73.9204 76.6331C74.258 76.9707 74.4476 77.4285 74.4476 77.9059Z" fill="#4D4D4D"/>
<path d="M81.0465 77.9059C81.0465 78.2619 80.941 78.6099 80.7431 78.9059C80.5453 79.202 80.2642 79.4327 79.9353 79.5689C79.6063 79.7051 79.2444 79.7407 78.8952 79.6712C78.5461 79.6017 78.2253 79.4302 77.9736 79.1784C77.7219 78.9267 77.5506 78.6059 77.4812 78.2567C77.4118 77.9075 77.4475 77.5456 77.5838 77.2167C77.7202 76.8878 77.9509 76.6067 78.247 76.409C78.5431 76.2113 78.8911 76.1058 79.2472 76.106C79.4835 76.106 79.7175 76.1525 79.9359 76.243C80.1542 76.3334 80.3526 76.466 80.5197 76.6332C80.6868 76.8003 80.8193 76.9988 80.9097 77.2171C81.0001 77.4355 81.0466 77.6696 81.0465 77.9059Z" fill="#4D4D4D"/>
<path d="M87.6461 77.9059C87.6461 78.2619 87.5406 78.6099 87.3428 78.9059C87.145 79.2019 86.8639 79.4326 86.535 79.5688C86.2061 79.7051 85.8442 79.7407 85.4951 79.6712C85.1459 79.6018 84.8252 79.4304 84.5735 79.1786C84.3217 78.9269 84.1503 78.6062 84.0809 78.257C84.0114 77.9079 84.047 77.546 84.1833 77.2171C84.3195 76.8882 84.5502 76.6071 84.8462 76.4093C85.1422 76.2115 85.4902 76.106 85.8462 76.106C86.3236 76.106 86.7814 76.2956 87.119 76.6331C87.4565 76.9707 87.6461 77.4285 87.6461 77.9059Z" fill="#4D4D4D"/>
<path d="M234.658 221.554C234.658 220.6 234.625 163.03 234.573 71.1913L234.658 71.3084L64.305 71.3391H64.2914L64.3994 71.1913C64.396 124.568 64.3931 175.401 64.3908 221.554L64.2914 221.417L234.658 221.554L64.2914 221.69H64.1925V221.554C64.1925 175.401 64.1868 124.568 64.184 71.1913V71.043H64.305L234.658 71.0742H234.743V71.1913C234.691 163.03 234.659 220.601 234.658 221.554Z" fill="#263238"/>
<g filter="url(#filter0_d_35_4622)">
<path d="M111.512 123.33H88.852C88.4331 123.33 88.0934 123.67 88.0934 124.089V146.759C88.0934 147.178 88.4331 147.518 88.852 147.518H111.512C111.931 147.518 112.271 147.178 112.271 146.759V124.089C112.271 123.67 111.931 123.33 111.512 123.33Z" fill="#E8E8E8"/>
</g>
<g filter="url(#filter1_d_35_4622)">
<path d="M193.415 173.654V137.25H176.006V173.654H193.415Z" fill="url(#paint0_linear_35_4622)"/>
</g>
<g filter="url(#filter2_d_35_4622)">
<path d="M157.076 117.646H135.506C134.786 117.646 134.202 118.23 134.202 118.95V130.302C134.202 131.022 134.786 131.606 135.506 131.606H157.076C157.796 131.606 158.379 131.022 158.379 130.302V118.95C158.379 118.23 157.796 117.646 157.076 117.646Z" fill="#E8E8E8"/>
</g>
<g filter="url(#filter3_d_35_4622)">
<path d="M191.228 133.406H187.205C186.786 133.406 186.446 133.746 186.446 134.165V138.328C186.446 138.747 186.786 139.087 187.205 139.087H191.228C191.647 139.087 191.987 138.747 191.987 138.328V134.165C191.987 133.746 191.647 133.406 191.228 133.406Z" fill="white"/>
</g>
<g filter="url(#filter4_d_35_4622)">
<path d="M191.228 171.605H187.205C186.786 171.605 186.446 171.945 186.446 172.364V176.528C186.446 176.947 186.786 177.286 187.205 177.286H191.228C191.647 177.286 191.987 176.947 191.987 176.528V172.364C191.987 171.945 191.647 171.605 191.228 171.605Z" fill="white"/>
</g>
<g filter="url(#filter5_d_35_4622)">
<path d="M157.076 139.228H135.506C134.786 139.228 134.202 139.812 134.202 140.532V151.884C134.202 152.604 134.786 153.188 135.506 153.188H157.076C157.796 153.188 158.379 152.604 158.379 151.884V140.532C158.379 139.812 157.796 139.228 157.076 139.228Z" fill="#E8E8E8"/>
</g>
<g filter="url(#filter6_d_35_4622)">
<path d="M111.512 165.956H88.852C88.4331 165.956 88.0934 166.295 88.0934 166.714V189.385C88.0934 189.804 88.4331 190.143 88.852 190.143H111.512C111.931 190.143 112.271 189.804 112.271 189.385V166.714C112.271 166.295 111.931 165.956 111.512 165.956Z" fill="#E6E6E6"/>
</g>
<path d="M116.629 135.735L129.255 122.184H131.85" stroke="#414242" stroke-width="0.969" stroke-miterlimit="10"/>
<path d="M208.689 151.177H206.657L196.774 142.821V142.767L206.657 134.411H208.689" stroke="#414242" stroke-width="0.708" stroke-miterlimit="10"/>
<path d="M116.629 135.451L129.255 149.002H131.85" stroke="#414242" stroke-width="0.969" stroke-miterlimit="10"/>
<g filter="url(#filter7_d_35_4622)">
<path d="M127.439 126.566H120.008C119.765 126.566 119.569 126.763 119.569 127.005V130.989C119.569 131.232 119.765 131.428 120.008 131.428H127.439C127.681 131.428 127.878 131.232 127.878 130.989V127.005C127.878 126.763 127.681 126.566 127.439 126.566Z" fill="#F68B22"/>
</g>
<g filter="url(#filter8_d_35_4622)">
<path d="M217.614 131.981H210.183C209.941 131.981 209.744 132.178 209.744 132.42V136.404C209.744 136.647 209.941 136.843 210.183 136.843H217.614C217.857 136.843 218.053 136.647 218.053 136.404V132.42C218.053 132.178 217.857 131.981 217.614 131.981Z" fill="#E8E8E8"/>
</g>
<g filter="url(#filter9_d_35_4622)">
<path d="M127.439 139.8H120.007C119.765 139.8 119.568 139.997 119.568 140.239V144.224C119.568 144.466 119.765 144.663 120.007 144.663H127.439C127.681 144.663 127.878 144.466 127.878 144.224V140.239C127.878 139.997 127.681 139.8 127.439 139.8Z" fill="#F68B22"/>
</g>
<g filter="url(#filter10_d_35_4622)">
<path d="M217.614 148.167H210.183C209.941 148.167 209.744 148.364 209.744 148.606V152.59C209.744 152.833 209.941 153.029 210.183 153.029H217.614C217.857 153.029 218.053 152.833 218.053 152.59V148.606C218.053 148.364 217.857 148.167 217.614 148.167Z" fill="#E8E8E8"/>
</g>
<path d="M208.689 176.153H206.657L196.774 167.796V167.743L206.657 159.387H208.689" stroke="#414242" stroke-width="0.708" stroke-miterlimit="10"/>
<g filter="url(#filter11_d_35_4622)">
<path d="M217.614 156.955H210.183C209.941 156.955 209.744 157.152 209.744 157.394V161.378C209.744 161.621 209.941 161.817 210.183 161.817H217.614C217.857 161.817 218.053 161.621 218.053 161.378V157.394C218.053 157.152 217.857 156.955 217.614 156.955Z" fill="#E8E8E8"/>
</g>
<g filter="url(#filter12_d_35_4622)">
<path d="M217.614 173.141H210.183C209.941 173.141 209.744 173.338 209.744 173.58V177.564C209.744 177.807 209.941 178.003 210.183 178.003H217.614C217.857 178.003 218.053 177.807 218.053 177.564V173.58C218.053 173.338 217.857 173.141 217.614 173.141Z" fill="#E8E8E8"/>
</g>
<g filter="url(#filter13_d_35_4622)">
<path d="M157.076 159.997H135.506C134.786 159.997 134.202 160.58 134.202 161.301V172.652C134.202 173.373 134.786 173.956 135.506 173.956H157.076C157.796 173.956 158.379 173.373 158.379 172.652V161.301C158.379 160.58 157.796 159.997 157.076 159.997Z" fill="#E8E8E8"/>
</g>
<g filter="url(#filter14_d_35_4622)">
<path d="M157.076 181.578H135.506C134.786 181.578 134.202 182.162 134.202 182.882V194.234C134.202 194.954 134.786 195.538 135.506 195.538H157.076C157.796 195.538 158.379 194.954 158.379 194.234V182.882C158.379 182.162 157.796 181.578 157.076 181.578Z" fill="#E8E8E8"/>
</g>
<path d="M116.629 178.087L129.255 164.536H131.85" stroke="#414242" stroke-width="0.969" stroke-miterlimit="10"/>
<path d="M116.629 177.806L129.255 191.357H131.85" stroke="#414242" stroke-width="0.969" stroke-miterlimit="10"/>
<g filter="url(#filter15_d_35_4622)">
<path d="M127.439 168.92H120.007C119.765 168.92 119.568 169.117 119.568 169.36V173.344C119.568 173.586 119.765 173.783 120.007 173.783H127.439C127.681 173.783 127.878 173.586 127.878 173.344V169.36C127.878 169.117 127.681 168.92 127.439 168.92Z" fill="#F68B22"/>
</g>
<g filter="url(#filter16_d_35_4622)">
<path d="M127.439 182.15H120.007C119.765 182.15 119.568 182.347 119.568 182.59V186.574C119.568 186.816 119.765 187.013 120.007 187.013H127.439C127.681 187.013 127.878 186.816 127.878 186.574V182.59C127.878 182.347 127.681 182.15 127.439 182.15Z" fill="#F68B22"/>
</g>
<path d="M160.651 124.903H163.661L174.64 134.154" stroke="#414242" stroke-width="0.969" stroke-miterlimit="10"/>
<path d="M160.651 186.778H163.661L174.64 177.527" stroke="#414242" stroke-width="0.969" stroke-miterlimit="10"/>
<path d="M149.433 246.851C198.377 246.851 238.053 242.893 238.053 238.011C238.053 233.129 198.377 229.171 149.433 229.171C100.489 229.171 60.8125 233.129 60.8125 238.011C60.8125 242.893 100.489 246.851 149.433 246.851Z" fill="black" fill-opacity="0.12"/>
<defs>
<filter id="filter0_d_35_4622" x="88.0934" y="123.33" width="26.2771" height="26.814" filterUnits="userSpaceOnUse" color-interpolation-filters="sRGB">
<feFlood flood-opacity="0" result="BackgroundImageFix"/>
<feColorMatrix in="SourceAlpha" type="matrix" values="0 0 0 0 0 0 0 0 0 0 0 0 0 0 0 0 0 0 127 0" result="hardAlpha"/>
<feOffset dx="1.05" dy="1.576"/>
<feGaussianBlur stdDeviation="0.525"/>
<feColorMatrix type="matrix" values="0 0 0 0 0 0 0 0 0 0 0 0 0 0 0 0 0 0 0.302 0"/>
<feBlend mode="normal" in2="BackgroundImageFix" result="effect1_dropShadow_35_4622"/>
<feBlend mode="normal" in="SourceGraphic" in2="effect1_dropShadow_35_4622" result="shape"/>
</filter>
<filter id="filter1_d_35_4622" x="176.006" y="137.25" width="19.7806" height="39.3678" filterUnits="userSpaceOnUse" color-interpolation-filters="sRGB">
<feFlood flood-opacity="0" result="BackgroundImageFix"/>
<feColorMatrix in="SourceAlpha" type="matrix" values="0 0 0 0 0 0 0 0 0 0 0 0 0 0 0 0 0 0 127 0" result="hardAlpha"/>
<feOffset dx="1.186" dy="1.779"/>
<feGaussianBlur stdDeviation="0.593"/>
<feColorMatrix type="matrix" values="0 0 0 0 0 0 0 0 0 0 0 0 0 0 0 0 0 0 0.302 0"/>
<feBlend mode="normal" in2="BackgroundImageFix" result="effect1_dropShadow_35_4622"/>
<feBlend mode="normal" in="SourceGraphic" in2="effect1_dropShadow_35_4622" result="shape"/>
</filter>
<filter id="filter2_d_35_4622" x="134.202" y="117.646" width="25.7731" height="15.955" filterUnits="userSpaceOnUse" color-interpolation-filters="sRGB">
<feFlood flood-opacity="0" result="BackgroundImageFix"/>
<feColorMatrix in="SourceAlpha" type="matrix" values="0 0 0 0 0 0 0 0 0 0 0 0 0 0 0 0 0 0 127 0" result="hardAlpha"/>
<feOffset dx="0.798" dy="1.197"/>
<feGaussianBlur stdDeviation="0.399"/>
<feColorMatrix type="matrix" values="0 0 0 0 0 0 0 0 0 0 0 0 0 0 0 0 0 0 0.302 0"/>
<feBlend mode="normal" in2="BackgroundImageFix" result="effect1_dropShadow_35_4622"/>
<feBlend mode="normal" in="SourceGraphic" in2="effect1_dropShadow_35_4622" result="shape"/>
</filter>
<filter id="filter3_d_35_4622" x="186.446" y="133.406" width="6.40547" height="6.76215" filterUnits="userSpaceOnUse" color-interpolation-filters="sRGB">
<feFlood flood-opacity="0" result="BackgroundImageFix"/>
<feColorMatrix in="SourceAlpha" type="matrix" values="0 0 0 0 0 0 0 0 0 0 0 0 0 0 0 0 0 0 127 0" result="hardAlpha"/>
<feOffset dx="0.433" dy="0.649"/>
<feGaussianBlur stdDeviation="0.216"/>
<feColorMatrix type="matrix" values="0 0 0 0 0 0 0 0 0 0 0 0 0 0 0 0 0 0 0.302 0"/>
<feBlend mode="normal" in2="BackgroundImageFix" result="effect1_dropShadow_35_4622"/>
<feBlend mode="normal" in="SourceGraphic" in2="effect1_dropShadow_35_4622" result="shape"/>
</filter>
<filter id="filter4_d_35_4622" x="186.446" y="171.605" width="6.40547" height="6.76215" filterUnits="userSpaceOnUse" color-interpolation-filters="sRGB">
<feFlood flood-opacity="0" result="BackgroundImageFix"/>
<feColorMatrix in="SourceAlpha" type="matrix" values="0 0 0 0 0 0 0 0 0 0 0 0 0 0 0 0 0 0 127 0" result="hardAlpha"/>
<feOffset dx="0.433" dy="0.649"/>
<feGaussianBlur stdDeviation="0.216"/>
<feColorMatrix type="matrix" values="0 0 0 0 0 0 0 0 0 0 0 0 0 0 0 0 0 0 0.302 0"/>
<feBlend mode="normal" in2="BackgroundImageFix" result="effect1_dropShadow_35_4622"/>
<feBlend mode="normal" in="SourceGraphic" in2="effect1_dropShadow_35_4622" result="shape"/>
</filter>
<filter id="filter5_d_35_4622" x="134.202" y="139.228" width="25.7731" height="15.955" filterUnits="userSpaceOnUse" color-interpolation-filters="sRGB">
<feFlood flood-opacity="0" result="BackgroundImageFix"/>
<feColorMatrix in="SourceAlpha" type="matrix" values="0 0 0 0 0 0 0 0 0 0 0 0 0 0 0 0 0 0 127 0" result="hardAlpha"/>
<feOffset dx="0.798" dy="1.197"/>
<feGaussianBlur stdDeviation="0.399"/>
<feColorMatrix type="matrix" values="0 0 0 0 0 0 0 0 0 0 0 0 0 0 0 0 0 0 0.302 0"/>
<feBlend mode="normal" in2="BackgroundImageFix" result="effect1_dropShadow_35_4622"/>
<feBlend mode="normal" in="SourceGraphic" in2="effect1_dropShadow_35_4622" result="shape"/>
</filter>
<filter id="filter6_d_35_4622" x="88.0934" y="165.956" width="26.2771" height="26.814" filterUnits="userSpaceOnUse" color-interpolation-filters="sRGB">
<feFlood flood-opacity="0" result="BackgroundImageFix"/>
<feColorMatrix in="SourceAlpha" type="matrix" values="0 0 0 0 0 0 0 0 0 0 0 0 0 0 0 0 0 0 127 0" result="hardAlpha"/>
<feOffset dx="1.05" dy="1.576"/>
<feGaussianBlur stdDeviation="0.525"/>
<feColorMatrix type="matrix" values="0 0 0 0 0 0 0 0 0 0 0 0 0 0 0 0 0 0 0.302 0"/>
<feBlend mode="normal" in2="BackgroundImageFix" result="effect1_dropShadow_35_4622"/>
<feBlend mode="normal" in="SourceGraphic" in2="effect1_dropShadow_35_4622" result="shape"/>
</filter>
<filter id="filter7_d_35_4622" x="118.969" y="125.966" width="9.5092" height="6.0623" filterUnits="userSpaceOnUse" color-interpolation-filters="sRGB">
<feFlood flood-opacity="0" result="BackgroundImageFix"/>
<feColorMatrix in="SourceAlpha" type="matrix" values="0 0 0 0 0 0 0 0 0 0 0 0 0 0 0 0 0 0 127 0" result="hardAlpha"/>
<feOffset/>
<feGaussianBlur stdDeviation="0.3"/>
<feColorMatrix type="matrix" values="0 0 0 0 0 0 0 0 0 0 0 0 0 0 0 0 0 0 0.702 0"/>
<feBlend mode="normal" in2="BackgroundImageFix" result="effect1_dropShadow_35_4622"/>
<feBlend mode="normal" in="SourceGraphic" in2="effect1_dropShadow_35_4622" result="shape"/>
</filter>
<filter id="filter8_d_35_4622" x="209.144" y="131.381" width="9.5092" height="6.0623" filterUnits="userSpaceOnUse" color-interpolation-filters="sRGB">
<feFlood flood-opacity="0" result="BackgroundImageFix"/>
<feColorMatrix in="SourceAlpha" type="matrix" values="0 0 0 0 0 0 0 0 0 0 0 0 0 0 0 0 0 0 127 0" result="hardAlpha"/>
<feOffset/>
<feGaussianBlur stdDeviation="0.3"/>
<feColorMatrix type="matrix" values="0 0 0 0 0 0 0 0 0 0 0 0 0 0 0 0 0 0 0.702 0"/>
<feBlend mode="normal" in2="BackgroundImageFix" result="effect1_dropShadow_35_4622"/>
<feBlend mode="normal" in="SourceGraphic" in2="effect1_dropShadow_35_4622" result="shape"/>
</filter>
<filter id="filter9_d_35_4622" x="118.968" y="139.2" width="9.5092" height="6.0623" filterUnits="userSpaceOnUse" color-interpolation-filters="sRGB">
<feFlood flood-opacity="0" result="BackgroundImageFix"/>
<feColorMatrix in="SourceAlpha" type="matrix" values="0 0 0 0 0 0 0 0 0 0 0 0 0 0 0 0 0 0 127 0" result="hardAlpha"/>
<feOffset/>
<feGaussianBlur stdDeviation="0.3"/>
<feColorMatrix type="matrix" values="0 0 0 0 0 0 0 0 0 0 0 0 0 0 0 0 0 0 0.702 0"/>
<feBlend mode="normal" in2="BackgroundImageFix" result="effect1_dropShadow_35_4622"/>
<feBlend mode="normal" in="SourceGraphic" in2="effect1_dropShadow_35_4622" result="shape"/>
</filter>
<filter id="filter10_d_35_4622" x="209.144" y="147.567" width="9.5092" height="6.0623" filterUnits="userSpaceOnUse" color-interpolation-filters="sRGB">
<feFlood flood-opacity="0" result="BackgroundImageFix"/>
<feColorMatrix in="SourceAlpha" type="matrix" values="0 0 0 0 0 0 0 0 0 0 0 0 0 0 0 0 0 0 127 0" result="hardAlpha"/>
<feOffset/>
<feGaussianBlur stdDeviation="0.3"/>
<feColorMatrix type="matrix" values="0 0 0 0 0 0 0 0 0 0 0 0 0 0 0 0 0 0 0.702 0"/>
<feBlend mode="normal" in2="BackgroundImageFix" result="effect1_dropShadow_35_4622"/>
<feBlend mode="normal" in="SourceGraphic" in2="effect1_dropShadow_35_4622" result="shape"/>
</filter>
<filter id="filter11_d_35_4622" x="209.144" y="156.355" width="9.5092" height="6.0623" filterUnits="userSpaceOnUse" color-interpolation-filters="sRGB">
<feFlood flood-opacity="0" result="BackgroundImageFix"/>
<feColorMatrix in="SourceAlpha" type="matrix" values="0 0 0 0 0 0 0 0 0 0 0 0 0 0 0 0 0 0 127 0" result="hardAlpha"/>
<feOffset/>
<feGaussianBlur stdDeviation="0.3"/>
<feColorMatrix type="matrix" values="0 0 0 0 0 0 0 0 0 0 0 0 0 0 0 0 0 0 0.702 0"/>
<feBlend mode="normal" in2="BackgroundImageFix" result="effect1_dropShadow_35_4622"/>
<feBlend mode="normal" in="SourceGraphic" in2="effect1_dropShadow_35_4622" result="shape"/>
</filter>
<filter id="filter12_d_35_4622" x="209.144" y="172.541" width="9.5092" height="6.0623" filterUnits="userSpaceOnUse" color-interpolation-filters="sRGB">
<feFlood flood-opacity="0" result="BackgroundImageFix"/>
<feColorMatrix in="SourceAlpha" type="matrix" values="0 0 0 0 0 0 0 0 0 0 0 0 0 0 0 0 0 0 127 0" result="hardAlpha"/>
<feOffset/>
<feGaussianBlur stdDeviation="0.3"/>
<feColorMatrix type="matrix" values="0 0 0 0 0 0 0 0 0 0 0 0 0 0 0 0 0 0 0.702 0"/>
<feBlend mode="normal" in2="BackgroundImageFix" result="effect1_dropShadow_35_4622"/>
<feBlend mode="normal" in="SourceGraphic" in2="effect1_dropShadow_35_4622" result="shape"/>
</filter>
<filter id="filter13_d_35_4622" x="134.202" y="159.997" width="25.7731" height="15.955" filterUnits="userSpaceOnUse" color-interpolation-filters="sRGB">
<feFlood flood-opacity="0" result="BackgroundImageFix"/>
<feColorMatrix in="SourceAlpha" type="matrix" values="0 0 0 0 0 0 0 0 0 0 0 0 0 0 0 0 0 0 127 0" result="hardAlpha"/>
<feOffset dx="0.798" dy="1.197"/>
<feGaussianBlur stdDeviation="0.399"/>
<feColorMatrix type="matrix" values="0 0 0 0 0 0 0 0 0 0 0 0 0 0 0 0 0 0 0.302 0"/>
<feBlend mode="normal" in2="BackgroundImageFix" result="effect1_dropShadow_35_4622"/>
<feBlend mode="normal" in="SourceGraphic" in2="effect1_dropShadow_35_4622" result="shape"/>
</filter>
<filter id="filter14_d_35_4622" x="134.202" y="181.578" width="25.7731" height="15.955" filterUnits="userSpaceOnUse" color-interpolation-filters="sRGB">
<feFlood flood-opacity="0" result="BackgroundImageFix"/>
<feColorMatrix in="SourceAlpha" type="matrix" values="0 0 0 0 0 0 0 0 0 0 0 0 0 0 0 0 0 0 127 0" result="hardAlpha"/>
<feOffset dx="0.798" dy="1.197"/>
<feGaussianBlur stdDeviation="0.399"/>
<feColorMatrix type="matrix" values="0 0 0 0 0 0 0 0 0 0 0 0 0 0 0 0 0 0 0.302 0"/>
<feBlend mode="normal" in2="BackgroundImageFix" result="effect1_dropShadow_35_4622"/>
<feBlend mode="normal" in="SourceGraphic" in2="effect1_dropShadow_35_4622" result="shape"/>
</filter>
<filter id="filter15_d_35_4622" x="118.968" y="168.32" width="9.5092" height="6.0623" filterUnits="userSpaceOnUse" color-interpolation-filters="sRGB">
<feFlood flood-opacity="0" result="BackgroundImageFix"/>
<feColorMatrix in="SourceAlpha" type="matrix" values="0 0 0 0 0 0 0 0 0 0 0 0 0 0 0 0 0 0 127 0" result="hardAlpha"/>
<feOffset/>
<feGaussianBlur stdDeviation="0.3"/>
<feColorMatrix type="matrix" values="0 0 0 0 0 0 0 0 0 0 0 0 0 0 0 0 0 0 0.702 0"/>
<feBlend mode="normal" in2="BackgroundImageFix" result="effect1_dropShadow_35_4622"/>
<feBlend mode="normal" in="SourceGraphic" in2="effect1_dropShadow_35_4622" result="shape"/>
</filter>
<filter id="filter16_d_35_4622" x="118.968" y="181.55" width="9.5092" height="6.0623" filterUnits="userSpaceOnUse" color-interpolation-filters="sRGB">
<feFlood flood-opacity="0" result="BackgroundImageFix"/>
<feColorMatrix in="SourceAlpha" type="matrix" values="0 0 0 0 0 0 0 0 0 0 0 0 0 0 0 0 0 0 127 0" result="hardAlpha"/>
<feOffset/>
<feGaussianBlur stdDeviation="0.3"/>
<feColorMatrix type="matrix" values="0 0 0 0 0 0 0 0 0 0 0 0 0 0 0 0 0 0 0.702 0"/>
<feBlend mode="normal" in2="BackgroundImageFix" result="effect1_dropShadow_35_4622"/>
<feBlend mode="normal" in="SourceGraphic" in2="effect1_dropShadow_35_4622" result="shape"/>
</filter>
<linearGradient id="paint0_linear_35_4622" x1="55.9916" y1="62.8063" x2="55.9916" y2="100.847" gradientUnits="userSpaceOnUse">
<stop stop-color="#FF2458"/>
<stop offset="1" stop-color="#FF740C"/>
</linearGradient>
</defs>
</svg>
