<svg width="317" height="283" viewBox="0 0 317 283" fill="none" xmlns="http://www.w3.org/2000/svg">
<path fill-rule="evenodd" clip-rule="evenodd" d="M81.0507 278.058C74.3944 276.618 -5.57704 263.649 0.309423 168.001C6.19589 72.3535 13.5858 43.5897 44.677 33.0639C75.7682 22.5382 151.347 -27.2564 210.655 20.0927C247.309 49.3541 305.705 109.773 310.14 124.743C314.574 139.714 323.836 168.439 308.562 185.51C268.576 230.2 279.008 286.33 212.748 282.476C146.488 278.622 112.699 284.905 81.0495 278.057" fill="#F9F9F9"/>
<path d="M78.987 115.614H50.8019C50.3864 115.62 49.9741 115.543 49.5886 115.388C49.2032 115.233 48.8524 115.003 48.5567 114.711C48.2609 114.419 48.0261 114.071 47.8658 113.688C47.7055 113.305 47.6229 112.893 47.6229 112.478C47.6229 112.063 47.7055 111.651 47.8658 111.268C48.0261 110.885 48.2609 110.537 48.5567 110.245C48.8524 109.953 49.2032 109.723 49.5886 109.568C49.9741 109.413 50.3864 109.336 50.8019 109.342H53.9003C54.3157 109.348 54.7281 109.271 55.1135 109.115C55.4989 108.96 55.8497 108.73 56.1455 108.439C56.4412 108.147 56.6761 107.799 56.8364 107.416C56.9966 107.033 57.0792 106.621 57.0792 106.206C57.0792 105.79 56.9966 105.379 56.8364 104.996C56.6761 104.612 56.4412 104.265 56.1455 103.973C55.8497 103.681 55.4989 103.451 55.1135 103.296C54.7281 103.141 54.3157 103.064 53.9003 103.07H34.9511C34.5356 103.064 34.1233 103.141 33.7378 103.296C33.3524 103.451 33.0016 103.681 32.7059 103.973C32.4101 104.265 32.1753 104.612 32.015 104.996C31.8547 105.379 31.7722 105.79 31.7722 106.206C31.7722 106.621 31.8547 107.033 32.015 107.416C32.1753 107.799 32.4101 108.147 32.7059 108.439C33.0016 108.73 33.3524 108.96 33.7378 109.115C34.1233 109.271 34.5356 109.348 34.9511 109.342H37.8963C38.3117 109.336 38.7241 109.413 39.1096 109.568C39.495 109.723 39.8458 109.953 40.1415 110.245C40.4373 110.537 40.6721 110.885 40.8324 111.268C40.9927 111.651 41.0752 112.063 41.0752 112.478C41.0752 112.893 40.9927 113.305 40.8324 113.688C40.6721 114.071 40.4373 114.419 40.1415 114.711C39.8458 115.003 39.495 115.233 39.1096 115.388C38.7241 115.543 38.3117 115.62 37.8963 115.614H29.2017C28.3697 115.614 27.5719 115.945 26.9837 116.533C26.3954 117.121 26.0649 117.919 26.0649 118.751C26.0649 119.583 26.3954 120.381 26.9837 120.969C27.5719 121.557 28.3697 121.888 29.2017 121.888H49.0157C49.8401 121.899 50.6269 122.234 51.206 122.821C51.785 123.408 52.1096 124.199 52.1096 125.024C52.1096 125.848 51.785 126.639 51.206 127.226C50.6269 127.813 49.8401 128.149 49.0157 128.16H45.4423C45.0268 128.154 44.6144 128.231 44.229 128.386C43.8436 128.541 43.4928 128.771 43.1971 129.063C42.9013 129.355 42.6665 129.703 42.5062 130.086C42.3459 130.469 42.2634 130.88 42.2634 131.296C42.2634 131.711 42.3459 132.123 42.5062 132.506C42.6665 132.889 42.9013 133.237 43.1971 133.529C43.4928 133.82 43.8436 134.051 44.229 134.206C44.6144 134.361 45.0268 134.438 45.4423 134.432H67.8296C68.245 134.438 68.6574 134.361 69.0428 134.206C69.4283 134.051 69.779 133.82 70.0748 133.529C70.3706 133.237 70.6054 132.889 70.7657 132.506C70.926 132.123 71.0085 131.711 71.0085 131.296C71.0085 130.88 70.926 130.469 70.7657 130.086C70.6054 129.703 70.3706 129.355 70.0748 129.063C69.779 128.771 69.4283 128.541 69.0428 128.386C68.6574 128.231 68.245 128.154 67.8296 128.16H65.9145C65.4991 128.165 65.0867 128.088 64.7012 127.933C64.3158 127.778 63.965 127.548 63.6693 127.256C63.3735 126.965 63.1387 126.617 62.9784 126.234C62.8181 125.85 62.7356 125.439 62.7356 125.024C62.7356 124.608 62.8181 124.197 62.9784 123.814C63.1387 123.43 63.3735 123.083 63.6693 122.791C63.965 122.499 64.3158 122.269 64.7012 122.114C65.0867 121.959 65.4991 121.882 65.9145 121.888H78.9853C79.8172 121.888 80.615 121.557 81.2033 120.969C81.7915 120.381 82.122 119.583 82.122 118.751C82.122 117.919 81.7915 117.121 81.2033 116.533C80.615 115.945 79.8172 115.614 78.9853 115.614H78.987Z" stroke="#E8E8E8" stroke-width="3" stroke-linecap="round" stroke-linejoin="round"/>
<path d="M234.764 196.864H242.422C243.254 196.864 244.052 197.194 244.64 197.783C245.228 198.371 245.559 199.169 245.559 200.001C245.559 200.833 245.228 201.63 244.64 202.219C244.052 202.807 243.254 203.137 242.422 203.137H238.846C238.014 203.137 237.217 203.468 236.629 204.056C236.04 204.644 235.71 205.442 235.71 206.273C235.71 207.105 236.04 207.902 236.629 208.491C237.217 209.079 238.014 209.409 238.846 209.409H261.24C262.071 209.409 262.869 209.079 263.457 208.491C264.045 207.902 264.375 207.105 264.375 206.273C264.375 205.442 264.045 204.644 263.457 204.056C262.869 203.468 262.071 203.137 261.24 203.137H259.323C258.491 203.137 257.693 202.807 257.105 202.219C256.517 201.63 256.186 200.833 256.186 200.001C256.186 199.169 256.517 198.371 257.105 197.783C257.693 197.194 258.491 196.864 259.323 196.864H276.566C277.398 196.864 278.195 196.534 278.783 195.945C279.371 195.357 279.702 194.56 279.702 193.728C279.702 192.896 279.371 192.099 278.783 191.511C278.195 190.923 277.398 190.592 276.566 190.592H234.762C233.931 190.592 233.133 190.923 232.545 191.511C231.957 192.099 231.626 192.896 231.626 193.728C231.626 194.56 231.957 195.357 232.545 195.945C233.133 196.534 233.931 196.864 234.762 196.864H234.764Z" stroke="#E8E8E8" stroke-width="3" stroke-linecap="round" stroke-linejoin="round"/>
<path d="M241.163 75.7773H68.4819V227.919H241.163V75.7773Z" fill="#DBDBDB"/>
<path d="M237.708 72.3223H65.0271V224.464H237.708V72.3223Z" fill="white"/>
<g opacity="0.2">
<path opacity="0.2" d="M129.824 105.928C130.926 105.928 131.819 105.031 131.819 103.924C131.819 102.817 130.926 101.919 129.824 101.919C128.722 101.919 127.829 102.817 127.829 103.924C127.829 105.031 128.722 105.928 129.824 105.928Z" fill="#EC3725"/>
<path opacity="0.2" d="M106.681 178.84L104.316 179.091L103.822 181.426L105.881 182.623L107.649 181.022L106.681 178.84Z" fill="#EC3725"/>
<path opacity="0.2" d="M105.798 131.143H101.909V135.051H105.798V131.143Z" fill="#EC3725"/>
<path opacity="0.2" d="M96.2317 153.399L95.739 156.656L98.7918 155.456L96.2317 153.399Z" fill="#EC3725"/>
<path opacity="0.2" d="M168.074 107.451L165.062 109.199L168.074 110.946V107.451Z" fill="#EC3725"/>
<path opacity="0.2" d="M196.114 133.66L195.521 131.824H193.598L193.005 133.66L194.56 134.796L196.114 133.66Z" fill="#EC3725"/>
<path opacity="0.2" d="M194.959 191.708L190.314 193.254L191.853 197.92L196.498 196.374L194.959 191.708Z" fill="#EC3725"/>
<path opacity="0.2" d="M191.907 160.21L187.167 162.397L191.422 165.427L191.907 160.21Z" fill="#EC3725"/>
<path opacity="0.2" d="M110.422 197.863L107.409 199.61L110.422 201.358V197.863Z" fill="#EC3725"/>
</g>
<path d="M237.708 72.1279H65.0271V86.6417H237.708V72.1279Z" fill="black" fill-opacity="0.12"/>
<path d="M237.708 85.269H65.0271V99.7828H237.708V85.269Z" fill="#F5F5F5"/>
<path d="M75.4255 78.93C75.4255 79.2907 75.3185 79.6433 75.1181 79.9431C74.9178 80.243 74.633 80.4768 74.2998 80.6148C73.9665 80.7528 73.5999 80.7889 73.2461 80.7186C72.8924 80.6482 72.5675 80.4745 72.3124 80.2195C72.0574 79.9645 71.8837 79.6395 71.8134 79.2858C71.743 78.932 71.7791 78.5654 71.9171 78.2322C72.0552 77.899 72.2889 77.6142 72.5888 77.4138C72.8887 77.2134 73.2412 77.1064 73.6019 77.1064C74.0855 77.1064 74.5494 77.2986 74.8914 77.6406C75.2334 77.9825 75.4255 78.4464 75.4255 78.93Z" fill="#4D4D4D"/>
<path d="M82.1113 78.9295C82.1113 79.2902 82.0043 79.6428 81.8039 79.9427C81.6035 80.2426 81.3187 80.4764 80.9854 80.6144C80.6522 80.7524 80.2855 80.7884 79.9317 80.718C79.578 80.6476 79.253 80.4739 78.998 80.2188C78.743 79.9637 78.5694 79.6387 78.4991 79.2849C78.4288 78.9312 78.465 78.5645 78.6031 78.2313C78.7412 77.8981 78.975 77.6133 79.275 77.413C79.5749 77.2127 79.9276 77.1058 80.2883 77.106C80.5277 77.106 80.7648 77.1531 80.986 77.2448C81.2072 77.3364 81.4082 77.4708 81.5775 77.6401C81.7468 77.8095 81.8811 78.0105 81.9727 78.2317C82.0642 78.453 82.1113 78.6901 82.1113 78.9295Z" fill="#4D4D4D"/>
<path d="M88.7975 78.9295C88.7975 79.2902 88.6906 79.6428 88.4902 79.9427C88.2898 80.2425 88.005 80.4763 87.6718 80.6143C87.3386 80.7523 86.9719 80.7884 86.6182 80.7181C86.2645 80.6477 85.9395 80.474 85.6845 80.219C85.4295 79.964 85.2558 79.639 85.1854 79.2853C85.1151 78.9316 85.1512 78.5649 85.2892 78.2317C85.4272 77.8985 85.661 77.6137 85.9608 77.4133C86.2607 77.2129 86.6133 77.106 86.974 77.106C87.4576 77.106 87.9214 77.2981 88.2634 77.6401C88.6054 77.9821 88.7975 78.4459 88.7975 78.9295Z" fill="#4D4D4D"/>
<path d="M237.741 224.464C237.741 223.498 237.707 165.172 237.654 72.1268L237.741 72.2455L65.1502 72.2766H65.1364L65.2458 72.1268C65.2424 126.205 65.2395 177.705 65.2372 224.464L65.1364 224.326L237.741 224.464L65.1364 224.602H65.0362V224.464C65.0362 177.705 65.0305 126.205 65.0276 72.1268V71.9766H65.1502L237.741 72.0082H237.827V72.1268C237.774 165.172 237.741 223.499 237.741 224.464Z" fill="#263238"/>
<path d="M185.267 145.392H163.5C162.984 145.392 162.562 144.97 162.562 144.455V112.069C162.562 111.553 162.984 111.131 163.5 111.131H185.267C185.784 111.131 186.206 111.553 186.206 112.069V144.455C186.206 144.97 185.784 145.392 185.267 145.392Z" fill="white"/>
<path d="M162.609 116.24H186.206" stroke="#E6E6E6" stroke-width="2.0307" stroke-miterlimit="10" stroke-linecap="round" stroke-linejoin="round"/>
<path d="M186.253 140.986H162.609V143.517H186.253V140.986Z" fill="#A5A9AD"/>
<path d="M174.571 114.271H165.095C164.767 114.271 164.485 113.99 164.485 113.662V113.615C164.485 113.287 164.767 113.006 165.095 113.006H174.571C174.9 113.006 175.181 113.287 175.181 113.615V113.709C175.181 114.037 174.9 114.271 174.571 114.271Z" fill="#E6E6E6"/>
<path d="M174.571 124.957H165.095C164.767 124.957 164.485 124.676 164.485 124.348V124.254C164.485 123.926 164.767 123.645 165.095 123.645H174.571C174.9 123.645 175.181 123.926 175.181 124.254V124.348C175.181 124.676 174.9 124.957 174.571 124.957Z" fill="#DCDCDC"/>
<path d="M181.092 128.379H165.142C164.813 128.379 164.532 128.098 164.532 127.769V127.676C164.532 127.348 164.813 127.066 165.142 127.066H181.092C181.421 127.066 181.702 127.348 181.702 127.676V127.769C181.655 128.098 181.374 128.379 181.092 128.379Z" fill="#DCDCDC"/>
<path d="M178.043 131.801H165.142C164.813 131.801 164.532 131.519 164.532 131.191V131.098C164.532 130.769 164.813 130.488 165.142 130.488H178.043C178.371 130.488 178.653 130.769 178.653 131.098V131.191C178.606 131.519 178.324 131.801 178.043 131.801Z" fill="#DCDCDC"/>
<path d="M185.267 145.392H163.5C162.984 145.392 162.562 144.97 162.562 144.455V112.069C162.562 111.553 162.984 111.131 163.5 111.131H185.267C185.784 111.131 186.206 111.553 186.206 112.069V144.455C186.206 144.97 185.784 145.392 185.267 145.392Z" stroke="#E6E6E6" stroke-width="2.0307" stroke-miterlimit="10" stroke-linecap="round" stroke-linejoin="round"/>
<path d="M149.754 173.888H127.987C127.471 173.888 127.048 173.466 127.048 172.951V140.565C127.048 140.049 127.471 139.627 127.987 139.627H149.754C150.27 139.627 150.693 140.049 150.693 140.565V172.951C150.693 173.466 150.27 173.888 149.754 173.888Z" fill="white"/>
<path d="M127.049 144.689H150.693" stroke="#F68B22" stroke-width="2.0307" stroke-miterlimit="10" stroke-linecap="round" stroke-linejoin="round"/>
<path d="M150.693 169.483H127.049V172.014H150.693V169.483Z" fill="#F68B22"/>
<path d="M139.058 142.768H129.582C129.254 142.768 128.972 142.487 128.972 142.159V142.065C128.972 141.737 129.254 141.456 129.582 141.456H139.058C139.387 141.456 139.668 141.737 139.668 142.065V142.159C139.621 142.487 139.387 142.768 139.058 142.768Z" fill="#F68B22"/>
<path d="M139.058 153.407H129.582C129.254 153.407 128.972 153.126 128.972 152.798V152.704C128.972 152.376 129.254 152.095 129.582 152.095H139.058C139.387 152.095 139.668 152.376 139.668 152.704V152.798C139.621 153.173 139.387 153.407 139.058 153.407Z" fill="#DCDCDC"/>
<path d="M145.532 156.875H129.582C129.254 156.875 128.972 156.594 128.972 156.266V156.172C128.972 155.844 129.254 155.563 129.582 155.563H145.532C145.861 155.563 146.142 155.844 146.142 156.172V156.266C146.142 156.594 145.861 156.875 145.532 156.875Z" fill="#DCDCDC"/>
<path d="M142.483 160.297H129.582C129.254 160.297 128.972 160.015 128.972 159.687V159.594C128.972 159.266 129.254 158.984 129.582 158.984H142.483C142.812 158.984 143.093 159.266 143.093 159.594V159.687C143.093 160.015 142.812 160.297 142.483 160.297Z" fill="#DCDCDC"/>
<path d="M149.754 173.888H127.987C127.471 173.888 127.048 173.466 127.048 172.951V140.565C127.048 140.049 127.471 139.627 127.987 139.627H149.754C150.27 139.627 150.693 140.049 150.693 140.565V172.951C150.693 173.466 150.27 173.888 149.754 173.888Z" stroke="#F68B22" stroke-width="2.0307" stroke-miterlimit="10" stroke-linecap="round" stroke-linejoin="round"/>
<path d="M185.267 202.524H163.5C162.984 202.524 162.562 202.103 162.562 201.587V169.201C162.562 168.685 162.984 168.264 163.5 168.264H185.267C185.784 168.264 186.206 168.685 186.206 169.201V201.587C186.206 202.103 185.784 202.524 185.267 202.524Z" fill="white"/>
<path d="M162.609 173.325H186.206" stroke="#E6E6E6" stroke-width="2.0307" stroke-miterlimit="10" stroke-linecap="round" stroke-linejoin="round"/>
<path d="M186.253 198.072H162.609V200.603H186.253V198.072Z" fill="#A5A9AD"/>
<path d="M174.571 171.404H165.095C164.767 171.404 164.485 171.122 164.485 170.794V170.701C164.485 170.373 164.767 170.091 165.095 170.091H174.571C174.9 170.091 175.181 170.373 175.181 170.701V170.794C175.181 171.122 174.9 171.404 174.571 171.404Z" fill="#E6E6E6"/>
<path d="M174.571 182.043H165.095C164.767 182.043 164.485 181.762 164.485 181.433V181.34C164.485 181.012 164.767 180.73 165.095 180.73H174.571C174.9 180.73 175.181 181.012 175.181 181.34V181.433C175.181 181.808 174.9 182.043 174.571 182.043Z" fill="#DCDCDC"/>
<path d="M181.092 185.465H165.142C164.813 185.465 164.532 185.183 164.532 184.855V184.762C164.532 184.434 164.813 184.152 165.142 184.152H181.092C181.421 184.152 181.702 184.434 181.702 184.762V184.855C181.655 185.23 181.374 185.465 181.092 185.465Z" fill="#DCDCDC"/>
<path d="M178.043 188.886H165.142C164.813 188.886 164.532 188.605 164.532 188.277V188.23C164.532 187.902 164.813 187.621 165.142 187.621H178.043C178.371 187.621 178.653 187.902 178.653 188.23V188.324C178.606 188.652 178.324 188.886 178.043 188.886Z" fill="#DCDCDC"/>
<path d="M185.267 202.524H163.5C162.984 202.524 162.562 202.103 162.562 201.587V169.201C162.562 168.685 162.984 168.264 163.5 168.264H185.267C185.784 168.264 186.206 168.685 186.206 169.201V201.587C186.206 202.103 185.784 202.524 185.267 202.524Z" stroke="#E6E6E6" stroke-width="2.0307" stroke-miterlimit="10" stroke-linecap="round" stroke-linejoin="round"/>
<path d="M105.046 153.032H83.2784C82.7623 153.032 82.3401 152.61 82.3401 152.094V119.708C82.3401 119.193 82.7623 118.771 83.2784 118.771H105.046C105.562 118.771 105.984 119.193 105.984 119.708V152.094C105.984 152.61 105.562 153.032 105.046 153.032Z" fill="white"/>
<path d="M82.3401 123.833H105.984" stroke="#E6E6E6" stroke-width="2.0307" stroke-miterlimit="10" stroke-linecap="round" stroke-linejoin="round"/>
<path d="M105.984 148.579H82.3401V151.11H105.984V148.579Z" fill="#A5A9AD"/>
<path d="M94.3497 121.911H84.8733C84.5449 121.911 84.2634 121.63 84.2634 121.302V121.208C84.2634 120.88 84.5449 120.599 84.8733 120.599H94.3497C94.6781 120.599 94.9596 120.88 94.9596 121.208V121.302C94.9127 121.63 94.6781 121.911 94.3497 121.911Z" fill="#E6E6E6"/>
<path d="M94.3497 132.55H84.8733C84.5449 132.55 84.2634 132.269 84.2634 131.941V131.847C84.2634 131.519 84.5449 131.238 84.8733 131.238H94.3497C94.6781 131.238 94.9596 131.519 94.9596 131.847V131.988C94.9127 132.316 94.6781 132.55 94.3497 132.55Z" fill="#DCDCDC"/>
<path d="M100.824 135.971H84.8733C84.5449 135.971 84.2634 135.69 84.2634 135.362V135.268C84.2634 134.94 84.5449 134.659 84.8733 134.659H100.824C101.152 134.659 101.434 134.94 101.434 135.268V135.362C101.434 135.737 101.152 135.971 100.824 135.971Z" fill="#DCDCDC"/>
<path d="M97.7744 139.44H84.8733C84.5449 139.44 84.2634 139.159 84.2634 138.83V138.737C84.2634 138.409 84.5449 138.127 84.8733 138.127H97.7744C98.1028 138.127 98.3843 138.409 98.3843 138.737V138.83C98.3843 139.159 98.1028 139.44 97.7744 139.44Z" fill="#DCDCDC"/>
<path d="M105.046 153.032H83.2784C82.7623 153.032 82.3401 152.61 82.3401 152.094V119.708C82.3401 119.193 82.7623 118.771 83.2784 118.771H105.046C105.562 118.771 105.984 119.193 105.984 119.708V152.094C105.984 152.61 105.562 153.032 105.046 153.032Z" stroke="#E6E6E6" stroke-width="2.0307" stroke-miterlimit="10" stroke-linecap="round" stroke-linejoin="round"/>
<path d="M105.046 194.885H83.2784C82.7623 194.885 82.3401 194.463 82.3401 193.947V161.561C82.3401 161.046 82.7623 160.624 83.2784 160.624H105.046C105.562 160.624 105.984 161.046 105.984 161.561V193.947C105.984 194.463 105.562 194.885 105.046 194.885Z" fill="white"/>
<path d="M82.3401 165.732H105.984" stroke="#E6E6E6" stroke-width="2.0307" stroke-miterlimit="10" stroke-linecap="round" stroke-linejoin="round"/>
<path d="M105.984 190.479H82.3401V193.01H105.984V190.479Z" fill="#A5A9AD"/>
<path d="M94.3497 163.764H84.8733C84.5449 163.764 84.2634 163.483 84.2634 163.155V163.061C84.2634 162.733 84.5449 162.452 84.8733 162.452H94.3497C94.6781 162.452 94.9596 162.733 94.9596 163.061V163.155C94.9127 163.53 94.6781 163.764 94.3497 163.764Z" fill="#E6E6E6"/>
<path d="M94.3497 174.45H84.8733C84.5449 174.45 84.2634 174.169 84.2634 173.841V173.747C84.2634 173.419 84.5449 173.138 84.8733 173.138H94.3497C94.6781 173.138 94.9596 173.419 94.9596 173.747V173.841C94.9127 174.169 94.6781 174.45 94.3497 174.45Z" fill="#DCDCDC"/>
<path d="M100.824 177.872H84.8733C84.5449 177.872 84.2634 177.591 84.2634 177.263V177.169C84.2634 176.841 84.5449 176.56 84.8733 176.56H100.824C101.152 176.56 101.434 176.841 101.434 177.169V177.263C101.434 177.591 101.152 177.872 100.824 177.872Z" fill="#DCDCDC"/>
<path d="M97.7744 181.293H84.8733C84.5449 181.293 84.2634 181.012 84.2634 180.684V180.59C84.2634 180.262 84.5449 179.981 84.8733 179.981H97.7744C98.1028 179.981 98.3843 180.262 98.3843 180.59V180.684C98.3843 181.012 98.1028 181.293 97.7744 181.293Z" fill="#DCDCDC"/>
<path d="M105.046 194.885H83.2784C82.7623 194.885 82.3401 194.463 82.3401 193.947V161.561C82.3401 161.046 82.7623 160.624 83.2784 160.624H105.046C105.562 160.624 105.984 161.046 105.984 161.561V193.947C105.984 194.463 105.562 194.885 105.046 194.885Z" stroke="#E6E6E6" stroke-width="2.0307" stroke-miterlimit="10" stroke-linecap="round" stroke-linejoin="round"/>
<path d="M220.172 173.888H198.404C197.888 173.888 197.466 173.466 197.466 172.951V140.565C197.466 140.049 197.888 139.627 198.404 139.627H220.172C220.688 139.627 221.11 140.049 221.11 140.565V172.951C221.11 173.466 220.688 173.888 220.172 173.888Z" fill="white"/>
<path d="M197.465 144.689H221.109" stroke="#E6E6E6" stroke-width="2.0307" stroke-miterlimit="10" stroke-linecap="round" stroke-linejoin="round"/>
<path d="M221.109 169.483H197.465V172.014H221.109V169.483Z" fill="#A5A9AD"/>
<path d="M209.475 142.768H199.999C199.67 142.768 199.389 142.487 199.389 142.159V142.065C199.389 141.737 199.67 141.456 199.999 141.456H209.475C209.803 141.456 210.085 141.737 210.085 142.065V142.159C210.038 142.487 209.803 142.768 209.475 142.768Z" fill="#E6E6E6"/>
<path d="M209.475 153.407H199.999C199.67 153.407 199.389 153.126 199.389 152.798V152.704C199.389 152.376 199.67 152.095 199.999 152.095H209.475C209.803 152.095 210.085 152.376 210.085 152.704V152.798C210.038 153.173 209.803 153.407 209.475 153.407Z" fill="#DCDCDC"/>
<path d="M215.949 156.875H199.999C199.67 156.875 199.389 156.594 199.389 156.266V156.172C199.389 155.844 199.67 155.563 199.999 155.563H215.949C216.277 155.563 216.559 155.844 216.559 156.172V156.266C216.559 156.594 216.277 156.875 215.949 156.875Z" fill="#DCDCDC"/>
<path d="M212.9 160.297H199.999C199.67 160.297 199.389 160.015 199.389 159.687V159.594C199.389 159.266 199.67 158.984 199.999 158.984H212.9C213.228 158.984 213.51 159.266 213.51 159.594V159.687C213.51 160.015 213.228 160.297 212.9 160.297Z" fill="#DCDCDC"/>
<path d="M220.172 173.888H198.404C197.888 173.888 197.466 173.466 197.466 172.951V140.565C197.466 140.049 197.888 139.627 198.404 139.627H220.172C220.688 139.627 221.11 140.049 221.11 140.565V172.951C221.11 173.466 220.688 173.888 220.172 173.888Z" stroke="#E6E6E6" stroke-width="2.0307" stroke-miterlimit="10" stroke-linecap="round" stroke-linejoin="round"/>
<path d="M138.871 135.643V128.332C138.871 126.035 140.747 124.161 143.046 124.161H159.512" stroke="#E6E6E6" stroke-width="2.0307" stroke-miterlimit="10" stroke-linecap="round" stroke-linejoin="round"/>
<path d="M138.683 136.581C138.777 136.722 138.964 136.722 139.058 136.581L140.231 134.753C140.325 134.613 140.278 134.472 140.09 134.472H137.651C137.463 134.472 137.369 134.613 137.51 134.753L138.683 136.581Z" fill="#E6E6E6"/>
<path d="M160.263 124.348C160.403 124.255 160.403 124.067 160.263 123.973L158.433 122.802C158.292 122.708 158.152 122.755 158.152 122.942V125.38C158.152 125.567 158.292 125.661 158.433 125.52L160.263 124.348Z" fill="#E6E6E6"/>
<path d="M138.871 177.872V185.184C138.871 187.48 140.747 189.355 143.046 189.355H159.512" stroke="#E6E6E6" stroke-width="2.0307" stroke-miterlimit="10" stroke-linecap="round" stroke-linejoin="round"/>
<path d="M138.683 176.935C138.777 176.794 138.964 176.794 139.058 176.935L140.231 178.762C140.325 178.903 140.278 179.044 140.09 179.044H137.651C137.463 179.044 137.369 178.903 137.51 178.762L138.683 176.935Z" fill="#E6E6E6"/>
<path d="M160.263 189.168C160.404 189.261 160.404 189.449 160.263 189.543L158.433 190.714C158.293 190.808 158.152 190.761 158.152 190.574V188.137C158.152 187.949 158.293 187.855 158.433 187.996L160.263 189.168Z" fill="#E6E6E6"/>
<path d="M209.944 135.643V128.331C209.944 126.035 208.067 124.16 205.769 124.16H189.302" stroke="#E6E6E6" stroke-width="2.0307" stroke-miterlimit="10" stroke-linecap="round" stroke-linejoin="round"/>
<path d="M210.132 136.581C210.038 136.721 209.85 136.721 209.756 136.581L208.584 134.753C208.49 134.612 208.537 134.472 208.724 134.472H211.164C211.351 134.472 211.445 134.612 211.304 134.753L210.132 136.581Z" fill="#E6E6E6"/>
<path d="M188.552 124.348C188.411 124.254 188.411 124.067 188.552 123.973L190.381 122.801C190.522 122.708 190.663 122.754 190.663 122.942V125.379C190.663 125.566 190.522 125.66 190.381 125.52L188.552 124.348Z" fill="#E6E6E6"/>
<path d="M209.944 177.873V185.184C209.944 187.481 208.067 189.355 205.769 189.355H189.302" stroke="#E6E6E6" stroke-width="2.0307" stroke-miterlimit="10" stroke-linecap="round" stroke-linejoin="round"/>
<path d="M210.132 176.935C210.038 176.794 209.85 176.794 209.756 176.935L208.584 178.763C208.49 178.904 208.537 179.044 208.724 179.044H211.164C211.351 179.044 211.445 178.904 211.304 178.763L210.132 176.935Z" fill="#E6E6E6"/>
<path d="M188.552 189.168C188.411 189.262 188.411 189.449 188.552 189.543L190.381 190.715C190.522 190.809 190.663 190.762 190.663 190.574V188.137C190.663 187.95 190.522 187.856 190.381 187.996L188.552 189.168Z" fill="#E6E6E6"/>
<path d="M108.236 178.341H112.13C114.429 178.341 116.305 176.466 116.305 174.17V168.639C116.305 166.343 118.135 164.468 120.434 164.468H124.328" stroke="#E6E6E6" stroke-width="2.0307" stroke-miterlimit="10" stroke-linecap="round" stroke-linejoin="round"/>
<path d="M125.265 164.28C125.406 164.374 125.406 164.562 125.265 164.655L123.436 165.827C123.295 165.921 123.154 165.874 123.154 165.686V163.249C123.154 163.062 123.295 162.968 123.436 163.109L125.265 164.28Z" fill="#E6E6E6"/>
<path d="M107.345 178.153C107.204 178.247 107.204 178.435 107.345 178.528L109.174 179.7C109.315 179.794 109.456 179.747 109.456 179.56V177.122C109.456 176.935 109.315 176.841 109.174 176.982L107.345 178.153Z" fill="#E6E6E6"/>
<path d="M108.236 135.175H112.13C114.429 135.175 116.305 137.05 116.305 139.347V144.877C116.305 147.174 118.135 149.048 120.434 149.048H124.328" stroke="#E6E6E6" stroke-width="2.0307" stroke-miterlimit="10" stroke-linecap="round" stroke-linejoin="round"/>
<path d="M125.266 149.236C125.407 149.142 125.407 148.954 125.266 148.861L123.436 147.689C123.296 147.595 123.155 147.642 123.155 147.83V150.267C123.155 150.454 123.296 150.548 123.436 150.407L125.266 149.236Z" fill="#E6E6E6"/>
<path d="M107.345 135.363C107.204 135.269 107.204 135.081 107.345 134.988L109.174 133.816C109.315 133.722 109.456 133.769 109.456 133.957V136.394C109.456 136.581 109.315 136.675 109.174 136.534L107.345 135.363Z" fill="#E6E6E6"/>
<path d="M151.396 250.093C200.982 250.093 241.18 246.084 241.18 241.137C241.18 236.191 200.982 232.181 151.396 232.181C101.809 232.181 61.6113 236.191 61.6113 241.137C61.6113 246.084 101.809 250.093 151.396 250.093Z" fill="black" fill-opacity="0.12"/>
</svg>
