<svg width="551" height="491" viewBox="0 0 551 491" fill="none" xmlns="http://www.w3.org/2000/svg">
<path fill-rule="evenodd" clip-rule="evenodd" d="M140.76 482.902C129.2 480.402 -9.68563 457.878 0.537374 291.767C10.7604 125.656 23.5944 75.702 77.5904 57.422C131.586 39.142 262.844 -47.336 365.843 34.895C429.5 85.713 530.917 190.642 538.618 216.641C546.319 242.64 562.405 292.527 535.878 322.175C466.434 399.788 484.552 497.268 369.478 490.575C254.404 483.882 195.724 494.794 140.758 482.901" fill="#F9F9F9"/>
<path d="M274.928 439.108C361.045 439.108 430.856 432.144 430.856 423.554C430.856 414.964 361.045 408 274.928 408C188.811 408 119 414.964 119 423.554C119 432.144 188.811 439.108 274.928 439.108Z" fill="black" fill-opacity="0.12"/>
<path d="M110.037 186.612C111.593 184.792 113.386 183.189 115.368 181.845L114.611 175.257L124.968 171.629L128.489 177.247C130.877 177.06 133.278 177.193 135.631 177.642L139.753 172.451L149.64 177.207L148.153 183.666C149.972 185.224 151.575 187.017 152.919 189L159.504 188.243L163.132 198.596L157.514 202.118C157.7 204.505 157.567 206.907 157.119 209.259L162.309 213.382L157.554 223.268L151.094 221.786C149.537 223.605 147.743 225.208 145.761 226.552L146.518 233.141L136.164 236.769L132.642 231.15C130.255 231.337 127.853 231.204 125.501 230.754L121.38 235.946L111.498 231.187L112.981 224.727C111.161 223.17 109.558 221.376 108.213 219.394L101.626 220.151L98 209.801L103.619 206.279C103.432 203.892 103.565 201.491 104.014 199.139L98.823 195.016L103.578 185.129L110.039 186.612H110.037ZM117.23 197.784C115.962 200.422 115.504 203.376 115.915 206.274C116.325 209.172 117.586 211.883 119.538 214.065C121.489 216.246 124.044 217.8 126.878 218.53C129.713 219.259 132.7 219.132 135.462 218.164C138.224 217.196 140.638 215.431 142.396 213.091C144.155 210.752 145.181 207.943 145.344 205.021C145.507 202.098 144.799 199.193 143.311 196.673C141.823 194.153 139.621 192.13 136.983 190.861C135.232 190.019 133.331 189.53 131.391 189.422C129.45 189.313 127.507 189.589 125.673 190.232C123.839 190.874 122.149 191.872 120.701 193.168C119.252 194.464 118.073 196.032 117.23 197.784V197.784Z" fill="#EBEBEB"/>
<path d="M360.664 288.921C362.198 287.128 363.965 285.548 365.917 284.223L365.172 277.73L375.376 274.157L378.848 279.691C381.201 279.507 383.568 279.638 385.886 280.08L389.949 274.963L399.693 279.652L398.232 286.018C400.026 287.552 401.606 289.319 402.931 291.271L409.424 290.526L413 300.73L407.462 304.202C407.646 306.555 407.515 308.921 407.073 311.239L412.186 315.302L407.5 325.047L401.133 323.586C399.598 325.378 397.832 326.958 395.88 328.284L396.625 334.778L386.422 338.357L382.951 332.818C380.598 333.002 378.231 332.871 375.912 332.429L371.85 337.542L362.105 332.855L363.566 326.488C361.773 324.954 360.193 323.187 358.867 321.235L352.374 321.981L348.798 311.777L354.336 308.304C354.152 305.952 354.283 303.585 354.726 301.266L349.612 297.204L354.297 287.46L360.665 288.921H360.664ZM367.755 299.933C366.505 302.532 366.053 305.445 366.458 308.301C366.863 311.157 368.106 313.829 370.029 315.979C371.952 318.13 374.47 319.661 377.264 320.38C380.058 321.099 383.002 320.974 385.725 320.02C388.447 319.065 390.825 317.325 392.559 315.019C394.293 312.714 395.303 309.945 395.464 307.065C395.624 304.185 394.927 301.321 393.46 298.837C391.993 296.353 389.822 294.36 387.223 293.109C385.496 292.279 383.623 291.797 381.711 291.691C379.798 291.584 377.883 291.855 376.076 292.489C374.268 293.123 372.602 294.106 371.175 295.383C369.747 296.66 368.585 298.206 367.755 299.933Z" fill="#F68B22"/>
<path d="M355.011 191.012C356.197 189.626 357.564 188.404 359.074 187.379L358.496 182.356L366.389 179.591L369.074 183.873C370.894 183.731 372.724 183.832 374.517 184.175L377.659 180.218L385.196 183.843L384.067 188.767C385.453 189.953 386.675 191.32 387.7 192.829L392.722 192.253L395.488 200.145L391.205 202.831C391.347 204.65 391.246 206.481 390.904 208.274L394.861 211.416L391.236 218.952L386.311 217.822C385.125 219.209 383.759 220.431 382.249 221.456L382.826 226.479L374.933 229.247L372.248 224.964C370.428 225.106 368.597 225.005 366.804 224.662L363.662 228.62L356.125 224.994L357.255 220.07C355.868 218.884 354.646 217.517 353.621 216.008L348.6 216.584L345.833 208.692L350.117 206.006C349.975 204.187 350.076 202.356 350.418 200.563L346.461 197.421L350.086 189.885L355.011 191.015V191.012ZM360.495 199.529C359.528 201.539 359.179 203.792 359.492 206.001C359.805 208.21 360.766 210.277 362.254 211.94C363.741 213.603 365.688 214.788 367.849 215.344C370.01 215.9 372.287 215.804 374.393 215.066C376.499 214.328 378.339 212.982 379.679 211.198C381.02 209.415 381.802 207.274 381.926 205.046C382.05 202.818 381.511 200.603 380.376 198.682C379.241 196.761 377.563 195.219 375.552 194.252C372.856 192.955 369.755 192.782 366.931 193.771C364.108 194.76 361.793 196.831 360.495 199.527V199.529Z" fill="#EBEBEB"/>
<path d="M335.099 154.527C335.897 153.595 336.816 152.774 337.831 152.085L337.443 148.71L342.747 146.852L344.551 149.73C345.774 149.634 347.005 149.702 348.21 149.932L350.322 147.27L355.387 149.707L354.627 153.016C355.559 153.814 356.381 154.733 357.069 155.748L360.444 155.36L362.303 160.664L359.424 162.472C359.52 163.696 359.452 164.926 359.222 166.131L361.883 168.243L359.447 173.307L356.137 172.548C355.34 173.48 354.421 174.301 353.406 174.99L353.793 178.365L348.484 180.222L346.68 177.344C345.457 177.439 344.226 177.371 343.021 177.141L340.91 179.803L335.845 177.367L336.605 174.057C335.672 173.26 334.851 172.341 334.162 171.326L330.787 171.713L328.928 166.409L331.807 164.605C331.711 163.382 331.779 162.152 332.01 160.947L329.348 158.835L331.784 153.77L335.094 154.529L335.099 154.527ZM338.785 160.251C338.135 161.602 337.9 163.116 338.111 164.6C338.321 166.085 338.967 167.474 339.967 168.592C340.966 169.709 342.275 170.506 343.727 170.879C345.18 171.253 346.71 171.188 348.125 170.692C349.54 170.196 350.777 169.291 351.678 168.093C352.579 166.894 353.104 165.455 353.188 163.958C353.271 162.461 352.908 160.972 352.146 159.681C351.383 158.39 350.255 157.354 348.903 156.704C348.006 156.273 347.032 156.022 346.038 155.967C345.044 155.911 344.049 156.052 343.11 156.382C342.17 156.711 341.304 157.222 340.562 157.886C339.82 158.55 339.217 159.353 338.785 160.251V160.251Z" fill="#F5F5F5"/>
<path d="M150.65 338.335C151.448 337.404 152.367 336.582 153.382 335.893L152.995 332.519L158.298 330.66L160.103 333.538C161.326 333.442 162.556 333.51 163.761 333.74L165.872 331.079L170.937 333.515L170.178 336.824C171.11 337.622 171.931 338.541 172.62 339.556L175.995 339.168L177.854 344.472L174.976 346.276C175.071 347.499 175.003 348.73 174.773 349.935L177.435 352.047L174.999 357.111L171.69 356.352C170.892 357.284 169.973 358.105 168.958 358.794L169.345 362.169L164.041 364.028L162.237 361.149C161.014 361.245 159.784 361.177 158.579 360.947L156.467 363.608L151.402 361.172L152.162 357.863C151.229 357.065 150.408 356.146 149.72 355.131L146.344 355.518L144.486 350.214L147.364 348.41C147.269 347.187 147.337 345.957 147.567 344.752L144.905 342.64L147.34 337.575L150.651 338.335L150.65 338.335ZM154.335 344.059C153.685 345.41 153.451 346.924 153.661 348.408C153.871 349.893 154.517 351.282 155.517 352.4C156.517 353.517 157.826 354.313 159.278 354.687C160.73 355.061 162.26 354.996 163.675 354.5C165.091 354.004 166.327 353.099 167.228 351.901C168.129 350.702 168.654 349.263 168.738 347.766C168.821 346.269 168.459 344.781 167.696 343.489C166.934 342.198 165.805 341.162 164.454 340.512C163.557 340.081 162.583 339.83 161.589 339.775C160.595 339.719 159.6 339.86 158.66 340.19C157.72 340.519 156.855 341.03 156.113 341.694C155.371 342.358 154.767 343.161 154.335 344.059V344.059Z" fill="#F5F5F5"/>
<path d="M190.798 356.759C191.998 355.355 193.382 354.119 194.91 353.082L194.327 348L202.312 345.202L205.028 349.536C206.87 349.391 208.722 349.493 210.537 349.84L213.716 345.836L221.342 349.504L220.199 354.486C221.603 355.687 222.839 357.071 223.876 358.6L228.958 358.017L231.756 366.002L227.423 368.719C227.567 370.56 227.464 372.413 227.118 374.227L231.122 377.406L227.454 385.032L222.471 383.887C221.27 385.29 219.887 386.527 218.358 387.563L218.941 392.645L210.956 395.444L208.239 391.11C206.398 391.254 204.546 391.151 202.731 390.805L199.552 394.809L191.926 391.141L193.069 386.158C191.666 384.957 190.429 383.574 189.392 382.045L184.311 382.629L181.509 374.643L185.843 371.926C185.699 370.085 185.801 368.233 186.147 366.419L182.144 363.239L185.811 355.613L190.795 356.757L190.798 356.759ZM196.347 365.374C195.368 367.409 195.014 369.689 195.33 371.925C195.647 374.161 196.619 376.253 198.125 377.936C199.63 379.62 201.601 380.819 203.788 381.382C205.975 381.945 208.28 381.847 210.411 381.1C212.543 380.353 214.405 378.991 215.762 377.185C217.119 375.38 217.91 373.213 218.035 370.958C218.16 368.703 217.614 366.462 216.465 364.518C215.317 362.573 213.617 361.013 211.582 360.035C210.23 359.385 208.764 359.008 207.267 358.924C205.77 358.841 204.272 359.054 202.857 359.55C201.442 360.046 200.138 360.816 199.021 361.815C197.903 362.815 196.994 364.025 196.344 365.376L196.347 365.374Z" fill="#EBEBEB"/>
<path d="M208.901 176.972C215.641 172.9 222.895 169.748 230.47 167.598L234.913 146.248L270.986 145.618L276.177 166.796C283.824 168.678 291.185 171.574 298.064 175.406L316.295 163.456L342.249 188.515L330.949 207.147C335.022 213.888 338.174 221.144 340.323 228.721L361.671 233.163L362.301 269.237L341.122 274.429C339.24 282.075 336.345 289.436 332.513 296.315L344.461 314.546L319.404 340.501L300.766 329.201C294.025 333.272 286.769 336.425 279.192 338.573L274.748 359.923L238.674 360.554L233.482 339.374C225.836 337.491 218.476 334.595 211.597 330.763L193.367 342.714L167.415 317.656L178.716 299.02C174.643 292.279 171.49 285.023 169.341 277.446L147.995 273.004L147.365 236.931L168.544 231.738C170.427 224.093 173.322 216.734 177.152 209.856L165.203 191.625L190.26 165.671L208.901 176.972ZM219.821 219.279C213.135 226.204 208.653 234.956 206.941 244.428C205.23 253.9 206.365 263.667 210.204 272.493C214.044 281.32 220.414 288.81 228.51 294.016C236.606 299.222 246.064 301.911 255.688 301.742C265.312 301.573 274.67 298.553 282.578 293.066C290.486 287.578 296.589 279.869 300.116 270.913C303.642 261.957 304.434 252.156 302.39 242.75C300.347 233.344 295.56 224.755 288.635 218.07C284.037 213.631 278.61 210.141 272.663 207.799C266.717 205.458 260.367 204.31 253.977 204.422C247.587 204.535 241.282 205.905 235.421 208.454C229.561 211.003 224.26 214.681 219.821 219.279V219.279Z" fill="#EBEBEB"/>
<path d="M219.821 219.28C219.821 219.28 220.544 218.489 222.031 217.095C225.797 213.606 230.105 210.752 234.785 208.642C237.113 207.578 239.523 206.706 241.993 206.035C248.029 204.392 254.324 203.915 260.539 204.627C268.086 205.503 275.323 208.134 281.671 212.309C287.042 215.86 291.671 220.423 295.298 225.743C296.561 227.624 297.7 229.586 298.707 231.615C302.951 240.304 304.525 250.055 303.231 259.638C302.897 262.135 302.366 264.603 301.646 267.018C300.93 269.477 300.008 271.871 298.89 274.176C294.336 283.694 286.82 291.48 277.469 296.368C275.205 297.567 272.844 298.573 270.41 299.375C268.022 300.181 265.574 300.798 263.089 301.22C253.556 302.851 243.754 301.62 234.92 297.684C232.856 296.748 230.855 295.679 228.93 294.483C223.486 291.046 218.763 286.582 215.025 281.34C210.63 275.143 207.746 268.002 206.606 260.49C205.677 254.304 205.934 247.997 207.364 241.906C207.948 239.415 208.734 236.975 209.717 234.613C211.66 229.861 214.362 225.457 217.716 221.571C219.056 220.037 219.821 219.286 219.821 219.286C219.821 219.286 219.649 219.492 219.301 219.88C218.953 220.268 218.408 220.821 217.771 221.616C215.857 223.884 214.153 226.32 212.679 228.896C211.618 230.758 210.682 232.689 209.877 234.676C208.909 237.034 208.134 239.467 207.561 241.95C206.159 248.016 205.921 254.294 206.861 260.448C208.011 267.914 210.891 275.007 215.271 281.161C218.992 286.367 223.69 290.798 229.104 294.207C231.018 295.393 233.007 296.454 235.058 297.381C243.834 301.28 253.567 302.495 263.031 300.871C265.498 300.451 267.927 299.838 270.298 299.037C272.712 298.24 275.055 297.241 277.302 296.05C286.582 291.197 294.042 283.469 298.564 274.022C299.675 271.736 300.59 269.359 301.301 266.918C302.018 264.522 302.545 262.073 302.879 259.594C304.167 250.08 302.611 240.398 298.407 231.767C297.409 229.75 296.28 227.8 295.027 225.931C291.431 220.641 286.839 216.101 281.508 212.565C275.202 208.403 268.01 205.774 260.506 204.887C254.322 204.164 248.057 204.621 242.043 206.235C239.581 206.895 237.177 207.754 234.854 208.804C232.897 209.678 231 210.681 229.176 211.807C226.653 213.371 224.277 215.16 222.077 217.153C221.306 217.818 220.779 218.391 220.396 218.742C220.02 219.104 219.821 219.28 219.821 219.28Z" fill="#263238"/>
<path d="M208.901 176.972L190.23 165.72L190.3 165.711L165.268 191.69L165.278 191.575L177.239 209.797L177.275 209.852L177.243 209.909C173.424 216.783 170.537 224.134 168.656 231.769L168.639 231.839L168.569 231.856L147.392 237.06L147.491 236.931C147.694 248.287 147.911 260.342 148.137 273.004L148.023 272.864L169.377 277.3L169.465 277.319L169.491 277.407C171.643 284.968 174.792 292.209 178.855 298.939L178.904 299.02L178.854 299.102C175.352 304.879 171.493 311.251 167.56 317.74L167.534 317.539L193.493 342.593L193.282 342.574L211.511 330.62L211.599 330.563L211.69 330.614C218.559 334.433 225.904 337.322 233.533 339.205L233.637 339.23L233.662 339.334C235.289 345.967 237.064 353.203 238.857 360.514L238.68 360.374L274.754 359.738L274.579 359.883C275.98 353.14 277.497 345.862 279.022 338.533L279.045 338.425L279.151 338.395C286.703 336.249 293.936 333.107 300.66 329.053L300.679 329.041L300.774 328.984L300.868 329.041L319.505 340.342L319.28 340.371L344.337 314.418L344.316 314.642C340.295 308.504 336.313 302.426 332.37 296.409L332.311 296.318L332.364 296.224C336.188 289.359 339.078 282.014 340.958 274.384L340.983 274.281L341.088 274.255L362.267 269.066L362.134 269.237C361.92 256.923 361.71 244.898 361.504 233.164L361.638 233.325L340.288 228.884L340.191 228.864L340.164 228.769C338.019 221.206 334.874 213.963 330.813 207.232L330.763 207.15L330.813 207.068L342.117 188.436L342.142 188.624L316.196 163.555L316.369 163.571L298.134 175.514L298.064 175.558L297.994 175.518C291.125 171.69 283.775 168.795 276.14 166.911L276.07 166.893L276.053 166.823C274.17 159.122 272.474 152.188 270.873 145.642L270.98 145.725L234.906 146.33L234.985 146.265L230.526 167.61L230.519 167.645L230.485 167.654C224.788 169.265 219.266 171.442 214.002 174.15C212.263 175.041 211 175.771 210.155 176.246C209.314 176.737 208.9 176.972 208.9 176.972L210.14 176.22C210.981 175.736 212.238 174.997 213.975 174.097C219.232 171.362 224.753 169.166 230.453 167.542L230.411 167.586L234.832 146.232L234.845 146.167H234.911L270.984 145.509H271.07L271.09 145.593C272.702 152.138 274.402 159.07 276.293 166.768L276.206 166.681C283.865 168.563 291.238 171.459 298.13 175.293L297.995 175.298L316.221 163.34L316.314 163.279L316.395 163.356L342.356 188.408L342.444 188.492L342.381 188.596C338.715 194.647 334.95 200.859 331.087 207.234V207.071C335.166 213.825 338.326 221.093 340.482 228.682L340.359 228.567C347.348 230.02 354.464 231.499 361.706 233.005L361.838 233.033V233.167C362.046 244.894 362.259 256.919 362.478 269.24V269.38L362.344 269.413L341.166 274.608L341.295 274.479C339.409 282.137 336.508 289.509 332.67 296.4L332.663 296.215L344.612 314.446L344.692 314.566L344.591 314.67L319.535 340.626L319.435 340.73L319.31 340.655L300.673 329.355H300.861L300.842 329.367C294.091 333.438 286.828 336.592 279.244 338.746L279.373 338.606C277.847 345.936 276.332 353.213 274.928 359.956L274.898 360.096H274.754L238.68 360.727H238.54L238.506 360.587C236.715 353.277 234.942 346.04 233.316 339.406L233.445 339.535C225.787 337.643 218.414 334.741 211.521 330.906L211.7 330.899L193.468 342.846L193.355 342.92L193.256 342.826L167.307 317.762L167.213 317.671L167.284 317.56L178.587 298.928V299.09C174.513 292.335 171.356 285.067 169.201 277.478L169.316 277.584L147.966 273.145L147.854 273.121V273.007C147.636 260.347 147.429 248.292 147.234 236.933V236.829L147.335 236.804L168.518 231.621L168.429 231.708C170.323 224.055 173.226 216.688 177.063 209.801L177.066 209.912L165.13 191.672L165.09 191.611L165.141 191.557L190.222 165.627L190.255 165.594L190.294 165.617L208.901 176.972Z" fill="#263238"/>
<path d="M340.295 106.308H285.43V187.091H290.728L295.553 196.547L301.717 187.091H340.295V106.308Z" fill="#FAFAFA"/>
<path d="M340.295 106.308C340.295 106.308 340.301 106.43 340.305 106.679C340.308 106.928 340.31 107.309 340.314 107.794C340.319 108.79 340.325 110.251 340.333 112.152C340.344 115.983 340.359 121.576 340.378 128.663C340.397 142.882 340.426 163.096 340.46 187.091V187.255H340.295L301.721 187.271L301.872 187.189L295.708 196.646L295.536 196.909L295.396 196.629L290.644 187.321L290.574 187.176L290.736 187.276H285.256V187.094C285.271 156.535 285.284 128.517 285.294 106.311V106.167H285.438L325.492 106.243L336.475 106.28L339.336 106.296C339.98 106.301 340.303 106.311 340.303 106.311C340.303 106.311 339.959 106.322 339.306 106.327L336.418 106.343L325.403 106.379L285.438 106.456L285.582 106.311C285.593 128.516 285.606 156.534 285.62 187.094L285.438 186.911H290.848L290.899 187.012L290.972 187.156C292.6 190.344 294.213 193.505 295.723 196.464L295.409 196.447C297.529 193.201 299.624 189.991 301.578 186.995L301.632 186.914H301.729L340.303 186.93L340.138 187.094C340.172 163.144 340.2 142.97 340.22 128.774C340.239 121.67 340.254 116.065 340.264 112.225C340.273 110.311 340.279 108.839 340.284 107.835C340.288 107.341 340.291 106.964 340.293 106.702C340.295 106.44 340.295 106.308 340.295 106.308Z" fill="#263238"/>
<path d="M300.779 120.328H300.606C299.78 120.328 299.111 120.997 299.111 121.823V172.326C299.111 173.151 299.78 173.82 300.606 173.82H300.779C301.604 173.82 302.273 173.151 302.273 172.326V121.823C302.273 120.997 301.604 120.328 300.779 120.328Z" fill="#E0E0E0"/>
<path d="M300.782 173.82C301.153 173.794 301.505 173.641 301.778 173.388C302.431 172.893 302.167 171.696 302.206 170.32C302.192 167.499 302.172 163.449 302.148 158.454C302.136 153.438 302.123 147.474 302.109 140.854C302.106 137.542 302.102 134.065 302.098 130.461C302.098 128.659 302.098 126.827 302.098 124.964C302.098 124.033 302.098 123.096 302.098 122.153C302.112 121.932 302.098 121.71 302.055 121.494C302.004 121.291 301.904 121.104 301.764 120.949C301.62 120.791 301.441 120.669 301.242 120.592C301.042 120.516 300.828 120.488 300.615 120.509C300.405 120.51 300.198 120.56 300.011 120.657C299.825 120.753 299.664 120.893 299.542 121.064C299.42 121.234 299.342 121.431 299.314 121.639C299.288 121.832 299.304 122.092 299.3 122.321C299.3 123.265 299.3 124.203 299.3 125.134C299.3 126.996 299.3 128.828 299.3 130.632C299.296 134.237 299.293 137.714 299.289 141.027C299.274 147.649 299.261 153.612 299.25 158.628C299.225 163.624 299.206 167.673 299.192 170.494C299.186 171.192 299.181 171.812 299.177 172.355C299.179 172.576 299.232 172.794 299.331 172.992C299.431 173.189 299.574 173.362 299.75 173.495C299.968 173.664 300.23 173.768 300.504 173.795C300.6 173.798 300.694 173.807 300.789 173.82C300.694 173.833 300.597 173.837 300.502 173.832C300.215 173.819 299.938 173.722 299.706 173.552C299.515 173.415 299.358 173.236 299.247 173.028C299.137 172.82 299.075 172.59 299.068 172.354C299.063 171.812 299.057 171.191 299.05 170.491C299.036 167.67 299.017 163.621 298.992 158.625C298.981 153.609 298.968 147.646 298.953 141.024C298.949 137.711 298.946 134.234 298.942 130.63C298.942 128.828 298.942 126.995 298.942 125.131C298.942 124.2 298.942 123.262 298.942 122.319C298.935 122.074 298.941 121.829 298.96 121.585C298.996 121.32 299.096 121.068 299.251 120.851C299.407 120.631 299.612 120.453 299.851 120.33C300.089 120.206 300.354 120.142 300.622 120.142C300.886 120.121 301.151 120.16 301.397 120.257C301.643 120.355 301.864 120.507 302.043 120.702C302.222 120.902 302.35 121.142 302.415 121.402C302.466 121.649 302.484 121.901 302.469 122.153C302.469 123.096 302.469 124.034 302.469 124.964C302.469 126.825 302.469 128.658 302.469 130.461C302.465 134.065 302.461 137.542 302.458 140.854C302.443 147.474 302.43 153.438 302.419 158.454C302.395 163.449 302.375 167.499 302.361 170.32L302.344 172.183C302.36 172.417 302.323 172.652 302.236 172.87C302.149 173.089 302.014 173.284 301.842 173.444C301.703 173.579 301.536 173.683 301.353 173.748C301.17 173.813 300.975 173.837 300.782 173.82V173.82Z" fill="#263238"/>
<path d="M312.949 120.328H312.776C311.95 120.328 311.281 120.997 311.281 121.823V172.326C311.281 173.151 311.95 173.82 312.776 173.82H312.949C313.775 173.82 314.444 173.151 314.444 172.326V121.823C314.444 120.997 313.775 120.328 312.949 120.328Z" fill="#E0E0E0"/>
<path d="M312.949 173.82C313.32 173.794 313.672 173.641 313.945 173.388C314.598 172.893 314.334 171.696 314.373 170.32C314.359 167.499 314.339 163.449 314.315 158.454C314.303 153.438 314.29 147.474 314.275 140.854C314.275 137.542 314.269 134.065 314.265 130.461C314.265 128.659 314.265 126.827 314.265 124.964C314.265 124.033 314.265 123.096 314.265 122.153C314.279 121.932 314.265 121.71 314.221 121.494C314.171 121.291 314.071 121.103 313.93 120.949C313.786 120.791 313.608 120.669 313.408 120.592C313.209 120.516 312.994 120.488 312.782 120.509C312.572 120.51 312.365 120.56 312.178 120.657C311.992 120.753 311.831 120.893 311.709 121.064C311.587 121.234 311.509 121.431 311.481 121.639C311.455 121.832 311.471 122.092 311.467 122.321C311.467 123.265 311.467 124.203 311.467 125.134C311.467 126.996 311.467 128.828 311.467 130.632C311.463 134.237 311.46 137.714 311.456 141.027C311.441 147.649 311.428 153.612 311.417 158.628C311.392 163.624 311.373 167.673 311.359 170.494L311.344 172.355C311.346 172.576 311.399 172.794 311.498 172.992C311.598 173.189 311.741 173.362 311.917 173.495C312.135 173.664 312.397 173.768 312.671 173.795C312.767 173.798 312.861 173.807 312.956 173.82C312.861 173.833 312.764 173.837 312.669 173.832C312.382 173.819 312.105 173.722 311.873 173.552C311.682 173.415 311.525 173.236 311.414 173.028C311.304 172.82 311.242 172.59 311.235 172.354C311.23 171.812 311.224 171.191 311.217 170.491C311.203 167.67 311.184 163.621 311.159 158.625C311.148 153.609 311.135 147.646 311.12 141.024C311.116 137.711 311.113 134.234 311.109 130.63C311.109 128.828 311.109 126.995 311.109 125.131C311.109 124.2 311.109 123.262 311.109 122.319C311.102 122.074 311.108 121.829 311.127 121.585C311.163 121.32 311.263 121.068 311.418 120.851C311.574 120.631 311.779 120.453 312.017 120.33C312.256 120.206 312.521 120.142 312.789 120.142C313.053 120.121 313.318 120.16 313.564 120.257C313.81 120.355 314.031 120.507 314.21 120.702C314.389 120.902 314.517 121.142 314.582 121.402C314.633 121.649 314.651 121.901 314.636 122.153C314.636 123.096 314.636 124.034 314.636 124.964C314.636 126.825 314.636 128.658 314.636 130.461C314.633 134.065 314.629 137.542 314.626 140.854C314.611 147.474 314.598 153.438 314.587 158.454C314.563 163.449 314.542 167.499 314.529 170.32C314.523 171.021 314.517 171.64 314.512 172.183C314.528 172.417 314.491 172.652 314.404 172.87C314.317 173.089 314.182 173.284 314.009 173.444C313.87 173.579 313.703 173.683 313.52 173.748C313.337 173.813 313.142 173.838 312.949 173.82V173.82Z" fill="#263238"/>
<path d="M325.12 120.328H324.946C324.121 120.328 323.452 120.997 323.452 121.823V172.326C323.452 173.151 324.121 173.82 324.946 173.82H325.12C325.946 173.82 326.615 173.151 326.615 172.326V121.823C326.615 120.997 325.946 120.328 325.12 120.328Z" fill="#E0E0E0"/>
<path d="M325.119 173.82C325.491 173.794 325.842 173.641 326.115 173.388C326.768 172.893 326.504 171.696 326.543 170.32C326.529 167.499 326.51 163.449 326.485 158.454C326.474 153.438 326.461 147.474 326.446 140.854C326.446 137.542 326.439 134.065 326.435 130.461C326.435 128.659 326.435 126.827 326.435 124.964C326.435 124.033 326.435 123.096 326.435 122.153C326.45 121.932 326.435 121.71 326.392 121.494C326.341 121.291 326.241 121.103 326.101 120.949C325.957 120.791 325.778 120.669 325.579 120.592C325.379 120.516 325.165 120.488 324.952 120.509C324.742 120.51 324.535 120.56 324.349 120.657C324.162 120.753 324.001 120.893 323.879 121.064C323.758 121.234 323.68 121.431 323.652 121.639C323.626 121.832 323.641 122.092 323.637 122.321C323.637 123.265 323.637 124.203 323.637 125.134C323.637 126.996 323.637 128.828 323.637 130.632C323.633 134.237 323.63 137.714 323.626 141.027C323.612 147.649 323.598 153.612 323.587 158.628C323.563 163.624 323.543 167.673 323.529 170.494C323.524 171.192 323.518 171.812 323.514 172.355C323.516 172.576 323.569 172.794 323.669 172.992C323.768 173.189 323.911 173.362 324.087 173.495C324.306 173.664 324.567 173.768 324.842 173.795C324.937 173.798 325.032 173.807 325.126 173.82C325.031 173.833 324.935 173.837 324.839 173.832C324.552 173.819 324.275 173.722 324.043 173.552C323.852 173.415 323.695 173.236 323.584 173.028C323.474 172.82 323.413 172.59 323.406 172.354C323.4 171.812 323.394 171.191 323.387 170.491C323.374 167.67 323.354 163.621 323.329 158.625C323.318 153.609 323.305 147.646 323.29 141.024C323.287 137.711 323.283 134.234 323.28 130.63C323.28 128.828 323.28 126.995 323.28 125.131C323.28 124.2 323.28 123.262 323.28 122.319C323.273 122.074 323.279 121.829 323.297 121.585C323.333 121.32 323.433 121.068 323.589 120.851C323.744 120.631 323.949 120.453 324.188 120.33C324.426 120.206 324.691 120.142 324.959 120.142C325.223 120.121 325.488 120.16 325.735 120.257C325.981 120.355 326.201 120.507 326.38 120.702C326.559 120.902 326.687 121.142 326.752 121.402C326.803 121.649 326.822 121.901 326.807 122.153C326.807 123.096 326.807 124.034 326.807 124.964C326.807 126.825 326.807 128.658 326.807 130.461C326.803 134.065 326.8 137.542 326.796 140.854C326.781 147.474 326.768 153.438 326.757 158.454C326.733 163.449 326.713 167.499 326.699 170.32C326.693 171.021 326.687 171.64 326.683 172.183C326.698 172.417 326.661 172.652 326.574 172.87C326.487 173.089 326.352 173.284 326.18 173.444C326.041 173.579 325.874 173.683 325.691 173.748C325.508 173.813 325.313 173.838 325.119 173.82V173.82Z" fill="#263238"/>
<path d="M300.658 139.247H299.742C298.136 139.247 296.834 140.549 296.834 142.154V142.492C296.834 144.098 298.136 145.4 299.742 145.4H300.658C302.264 145.4 303.566 144.098 303.566 142.492V142.154C303.566 140.549 302.264 139.247 300.658 139.247Z" fill="#F68B22"/>
<path d="M313.624 150.845H312.707C311.101 150.845 309.799 152.147 309.799 153.753V154.089C309.799 155.695 311.101 156.997 312.707 156.997H313.624C315.23 156.997 316.531 155.695 316.531 154.089V153.753C316.531 152.147 315.23 150.845 313.624 150.845Z" fill="#F68B22"/>
<path d="M325.353 128.985H324.436C322.83 128.985 321.528 130.287 321.528 131.892V132.229C321.528 133.835 322.83 135.137 324.436 135.137H325.353C326.959 135.137 328.26 133.835 328.26 132.229V131.892C328.26 130.287 326.959 128.985 325.353 128.985Z" fill="#F68B22"/>
<path d="M216.167 129.836C215.957 124.125 213.846 118.647 210.168 114.272C206.491 109.896 201.458 106.875 195.867 105.686C190.277 104.497 184.45 105.208 179.31 107.708C174.17 110.208 170.012 114.352 167.496 119.484C164.98 124.616 164.249 130.441 165.42 136.035C166.591 141.629 169.597 146.672 173.96 150.363C178.323 154.055 183.794 156.184 189.505 156.412C195.216 156.641 200.84 154.955 205.484 151.624V151.632L214.785 155.064L211.582 145.444C214.771 140.881 216.381 135.4 216.167 129.836V129.836Z" fill="#FAFAFA"/>
<path d="M216.167 129.836C216.167 129.836 216.178 129.931 216.187 130.116C216.193 130.316 216.201 130.592 216.213 130.951C216.214 132.033 216.149 133.114 216.017 134.188C215.498 138.254 214.006 142.136 211.668 145.503L211.681 145.409C212.635 148.247 213.722 151.481 214.911 155.02L214.999 155.28L214.741 155.186L205.434 151.77L205.359 151.742L205.34 151.665V151.658L205.572 151.743C202.558 153.915 199.109 155.409 195.462 156.12C194.498 156.304 193.525 156.437 192.546 156.517C191.546 156.58 190.543 156.592 189.542 156.555C189.289 156.549 189.034 156.555 188.781 156.539L188.021 156.452L186.491 156.277C185.98 156.211 185.478 156.067 184.967 155.969C184.454 155.873 183.945 155.751 183.444 155.602C182.426 155.309 181.428 154.952 180.456 154.532C179.965 154.315 179.471 154.112 178.985 153.88L177.572 153.093L176.862 152.693L176.189 152.228L174.838 151.291L173.572 150.224L172.938 149.686L172.354 149.089C171.965 148.689 171.567 148.295 171.184 147.886L170.123 146.573C169.95 146.35 169.76 146.14 169.6 145.906L169.131 145.197C168.826 144.718 168.491 144.256 168.207 143.761C167.638 142.764 167.134 141.731 166.698 140.669C166.494 140.129 166.23 139.61 166.073 139.051C165.915 138.493 165.742 137.938 165.577 137.379C164.077 131.685 164.569 125.649 166.971 120.273C168.103 117.735 169.634 115.394 171.505 113.338C173.323 111.395 175.415 109.726 177.714 108.384C179.918 107.137 182.289 106.212 184.756 105.638L186.555 105.296C187.148 105.2 187.745 105.135 188.345 105.101C189.514 104.996 190.688 104.973 191.86 105.031C195.773 105.231 199.588 106.325 203.012 108.229C206.436 110.133 209.378 112.796 211.613 116.015C212.033 116.671 212.471 117.281 212.824 117.912L213.79 119.757C214.071 120.363 214.286 120.963 214.52 121.523C214.628 121.803 214.755 122.075 214.84 122.351C214.924 122.627 214.999 122.898 215.076 123.161C215.229 123.686 215.373 124.181 215.509 124.647C215.597 125.123 215.681 125.568 215.758 125.982C215.836 126.396 215.906 126.778 215.968 127.128C216.014 127.478 216.026 127.802 216.052 128.088C216.094 128.652 216.126 129.086 216.148 129.393C216.168 129.686 216.168 129.837 216.168 129.837C216.168 129.837 216.143 129.687 216.111 129.395C216.08 129.09 216.036 128.657 215.979 128.096C215.947 127.811 215.929 127.49 215.878 127.14C215.809 126.793 215.734 126.414 215.652 126.003L215.387 124.677C215.247 124.214 215.099 123.724 214.941 123.206C214.863 122.945 214.782 122.678 214.699 122.403C214.612 122.13 214.483 121.864 214.373 121.583C214.136 121.028 213.914 120.433 213.634 119.832L212.665 118.005C212.31 117.383 211.867 116.78 211.45 116.132C209.22 112.957 206.296 110.334 202.898 108.463C199.501 106.591 195.721 105.52 191.847 105.332C190.688 105.279 189.528 105.307 188.374 105.414C187.781 105.448 187.191 105.514 186.605 105.612L184.829 105.952C182.395 106.525 180.055 107.442 177.88 108.678C175.614 110.006 173.553 111.656 171.761 113.576C169.919 115.605 168.411 117.915 167.296 120.419C164.933 125.722 164.451 131.672 165.928 137.287C166.092 137.838 166.256 138.387 166.419 138.934C166.573 139.485 166.833 139.998 167.034 140.529C167.464 141.577 167.96 142.595 168.521 143.578C168.802 144.068 169.131 144.522 169.432 144.993L169.894 145.694C170.05 145.925 170.238 146.132 170.409 146.352L171.454 147.647L172.606 148.834L173.182 149.423L173.807 149.955L175.055 151.005L176.385 151.93L177.049 152.389L177.749 152.785L179.144 153.564C179.622 153.794 180.113 153.994 180.593 154.209C181.552 154.624 182.536 154.978 183.539 155.269C184.033 155.415 184.535 155.537 185.042 155.632C185.545 155.732 186.04 155.874 186.544 155.939L188.054 156.114L188.804 156.201C189.054 156.217 189.305 156.211 189.555 156.217C190.554 156.227 191.544 156.274 192.52 156.186C193.487 156.108 194.448 155.979 195.401 155.8C199.004 155.105 202.414 153.638 205.398 151.501L205.578 151.372L205.629 151.587V151.594L205.536 151.489L214.831 154.938L214.661 155.104L211.478 145.476L211.461 145.425L211.492 145.381C213.83 142.047 215.342 138.206 215.904 134.173C216.048 133.105 216.131 132.029 216.155 130.951C216.155 130.593 216.155 130.321 216.155 130.118C216.161 129.932 216.167 129.836 216.167 129.836Z" fill="#263238"/>
<path d="M180.36 116.221L183.277 118.623L183.8 120.503L192.591 129.983L191.623 130.916L183.063 121.446L181.194 120.623L178.956 117.554L180.36 116.221Z" fill="#E0E0E0"/>
<path d="M180.36 116.221C180.251 116.356 180.134 116.484 180.01 116.604L179.012 117.611L179.021 117.51L181.299 120.549L181.247 120.508L183.123 121.315L183.151 121.327L183.172 121.35C185.473 123.882 188.399 127.097 191.577 130.596L191.758 130.797L191.497 130.787L192.465 129.854L192.458 130.108L183.707 120.589L183.685 120.566L183.677 120.536C183.493 119.844 183.327 119.22 183.174 118.651L183.209 118.704L181.117 116.908L180.557 116.412C180.486 116.355 180.421 116.291 180.361 116.221C180.631 116.398 180.889 116.59 181.135 116.797L183.345 118.541L183.37 118.56L183.38 118.594C183.544 119.161 183.724 119.78 183.923 120.468L183.894 120.416L192.726 129.859L192.848 129.989L192.719 130.114L191.75 131.048L191.614 131.179L191.488 131.039L191.307 130.839L182.958 121.543L183.006 121.578L181.144 120.737L181.112 120.723L181.092 120.696C180.203 119.443 179.459 118.394 178.895 117.599L178.854 117.541L178.904 117.497L179.991 116.523C180.105 116.412 180.228 116.311 180.36 116.221V116.221Z" fill="#263238"/>
<path d="M192.993 127.402L193.904 128.36C193.841 128.501 193.819 128.656 193.841 128.809C193.862 128.961 193.927 129.104 194.027 129.221C194.151 129.325 194.297 129.4 194.454 129.441C194.61 129.483 194.774 129.49 194.934 129.462L203.769 139.193C203.98 139.425 204.143 139.696 204.248 139.992C204.353 140.287 204.398 140.6 204.381 140.913C204.363 141.226 204.284 141.532 204.147 141.814C204.011 142.096 203.819 142.348 203.584 142.555L203.058 143.02C202.594 143.43 201.988 143.642 201.369 143.61C200.751 143.578 200.17 143.304 199.751 142.848L190.881 133.182C190.929 133.019 190.926 132.844 190.872 132.682C190.818 132.52 190.716 132.378 190.579 132.276C190.467 132.184 190.336 132.12 190.194 132.089C190.053 132.058 189.906 132.061 189.766 132.098L188.936 131.15C188.785 130.978 188.707 130.754 188.718 130.525C188.73 130.296 188.831 130.081 188.999 129.925L191.757 127.362C191.927 127.205 192.152 127.122 192.383 127.129C192.615 127.136 192.834 127.234 192.993 127.402V127.402Z" fill="#F68B22"/>
<g opacity="0.3">
<path opacity="0.3" d="M202.829 140.346L194.572 131.352C194.533 131.309 194.502 131.258 194.481 131.203C194.461 131.148 194.452 131.089 194.454 131.031C194.457 130.972 194.471 130.915 194.496 130.862C194.521 130.808 194.556 130.761 194.599 130.721C194.642 130.681 194.693 130.651 194.748 130.63C194.803 130.61 194.861 130.601 194.92 130.604C194.978 130.606 195.036 130.62 195.089 130.645C195.142 130.67 195.19 130.705 195.229 130.748L203.486 139.742C203.525 139.785 203.556 139.836 203.577 139.891C203.597 139.946 203.606 140.005 203.603 140.063C203.601 140.122 203.587 140.179 203.562 140.232C203.537 140.286 203.502 140.333 203.459 140.373V140.373C203.372 140.453 203.257 140.495 203.138 140.49C203.02 140.485 202.909 140.433 202.829 140.346V140.346Z" fill="black"/>
</g>
<g opacity="0.3">
<path opacity="0.3" d="M201.642 141.435L193.386 132.441C193.346 132.397 193.315 132.347 193.295 132.292C193.274 132.237 193.265 132.178 193.268 132.12C193.27 132.061 193.284 132.004 193.309 131.951C193.334 131.897 193.369 131.85 193.412 131.81C193.455 131.77 193.506 131.739 193.561 131.719C193.616 131.699 193.674 131.69 193.733 131.692C193.792 131.695 193.849 131.709 193.902 131.734C193.955 131.758 194.003 131.793 194.043 131.837L202.298 140.833C202.338 140.876 202.369 140.926 202.389 140.981C202.409 141.036 202.418 141.095 202.416 141.153C202.414 141.212 202.399 141.27 202.375 141.323C202.35 141.376 202.315 141.424 202.272 141.463V141.463C202.228 141.503 202.178 141.533 202.123 141.553C202.068 141.573 202.009 141.582 201.951 141.58C201.892 141.577 201.835 141.563 201.782 141.538C201.729 141.513 201.681 141.478 201.642 141.435V141.435Z" fill="black"/>
</g>
<g opacity="0.3">
<path opacity="0.3" d="M200.37 142.603L192.113 133.608C192.073 133.565 192.043 133.515 192.022 133.459C192.002 133.404 191.993 133.346 191.996 133.287C191.998 133.229 192.012 133.171 192.037 133.118C192.062 133.065 192.097 133.017 192.14 132.978V132.978C192.183 132.938 192.234 132.907 192.289 132.887C192.344 132.867 192.402 132.858 192.461 132.86C192.52 132.863 192.577 132.877 192.63 132.901C192.683 132.926 192.731 132.961 192.771 133.004L201.028 141.999C201.108 142.086 201.15 142.202 201.145 142.32C201.139 142.438 201.088 142.549 201 142.629C200.957 142.669 200.907 142.7 200.852 142.72C200.797 142.74 200.738 142.749 200.68 142.747C200.621 142.744 200.564 142.73 200.51 142.706C200.457 142.681 200.41 142.646 200.37 142.603V142.603Z" fill="black"/>
</g>
<path d="M193.904 128.36C193.916 128.373 192.997 129.219 191.854 130.248C190.71 131.276 189.773 132.102 189.762 132.089C189.751 132.076 190.668 131.232 191.812 130.202C192.956 129.172 193.893 128.348 193.904 128.36Z" fill="#263238"/>
<path d="M194.944 129.471C194.955 129.483 194.053 130.323 192.93 131.346C191.806 132.37 190.886 133.189 190.875 133.177C190.863 133.164 191.764 132.324 192.888 131.301C194.013 130.278 194.929 129.458 194.944 129.471Z" fill="#263238"/>
<path d="M191.333 132.644C191.293 132.582 191.258 132.517 191.227 132.45C191.14 132.298 191.029 132.162 190.898 132.046C190.765 131.932 190.615 131.84 190.453 131.774C190.382 131.752 190.314 131.726 190.247 131.696C190.322 131.692 190.398 131.705 190.467 131.733C190.641 131.789 190.802 131.88 190.939 132.001C191.076 132.121 191.187 132.269 191.265 132.434C191.302 132.498 191.325 132.57 191.333 132.644V132.644Z" fill="#263238"/>
<path d="M191.689 132.226C191.674 132.237 191.502 131.998 191.252 131.736C191.002 131.474 190.772 131.29 190.783 131.276C191.161 131.51 191.473 131.837 191.689 132.225V132.226Z" fill="#263238"/>
<path d="M192.072 131.933C191.741 131.622 191.44 131.281 191.171 130.916C191.343 131.065 191.502 131.229 191.644 131.406C191.803 131.568 191.946 131.745 192.072 131.933V131.933Z" fill="#263238"/>
<path d="M192.536 131.477C192.188 131.199 191.882 130.873 191.625 130.509C191.791 130.656 191.946 130.815 192.09 130.983C192.25 131.137 192.399 131.302 192.536 131.477V131.477Z" fill="#263238"/>
<path d="M192.903 131.065C192.714 130.973 192.545 130.844 192.407 130.685C192.27 130.527 192.165 130.342 192.101 130.142C192.209 130.315 192.326 130.483 192.451 130.645C192.595 130.792 192.745 130.933 192.903 131.065V131.065Z" fill="#263238"/>
<path d="M193.519 130.667C193.303 130.574 193.109 130.437 192.95 130.264C192.79 130.092 192.668 129.888 192.592 129.666C192.816 130.069 193.134 130.412 193.519 130.667V130.667Z" fill="#263238"/>
<path d="M193.727 130.101C193.552 130.032 193.398 129.918 193.281 129.77C193.163 129.623 193.087 129.447 193.059 129.26C193.191 129.602 193.424 129.895 193.727 130.101V130.101Z" fill="#263238"/>
<path d="M194.542 129.862C194.466 129.877 194.388 129.874 194.314 129.853C194.131 129.816 193.96 129.734 193.816 129.614C193.673 129.494 193.562 129.341 193.493 129.167C193.459 129.097 193.441 129.021 193.442 128.943C193.452 128.943 193.473 129.025 193.533 129.149C193.609 129.31 193.719 129.453 193.856 129.567C193.992 129.681 194.152 129.764 194.324 129.811C194.453 129.847 194.543 129.853 194.542 129.862Z" fill="#263238"/>
<path d="M205.992 118.778L205.733 118.491L202.407 121.942L199.371 118.905L202.572 115.586L202.314 115.299C201.325 115.17 200.319 115.291 199.389 115.652C198.459 116.012 197.634 116.599 196.99 117.361C195.063 119.541 196.058 122.41 196.058 122.41L192.502 126.001L195.584 128.888L199.157 125.359C199.157 125.359 202.488 126.384 204.629 124.028C206.571 121.891 205.992 118.778 205.992 118.778Z" fill="#263238"/>
<path d="M190.058 134.022L186.983 131.143L182.997 135.089C182.997 135.089 179.335 134.361 177.525 136.42C176.346 137.785 175.747 139.556 175.855 141.356C175.883 141.592 176.158 141.673 176.158 141.673L179.744 138.509L182.779 141.545L179.281 144.578L179.578 144.863C180.581 145.124 181.638 145.095 182.626 144.781C183.613 144.467 184.492 143.88 185.161 143.088C187.088 140.907 186.093 138.039 186.093 138.039L190.058 134.022Z" fill="#263238"/>
<path d="M205.73 118.491L202.145 121.655L199.11 118.619L202.311 115.3C201.307 115.04 200.251 115.069 199.263 115.383C198.275 115.697 197.396 116.284 196.727 117.076C194.803 119.254 195.798 122.126 195.798 122.126L192.242 125.717L195.324 128.603L198.897 125.075C198.897 125.075 202.229 126.099 204.369 123.744C206.313 121.605 205.73 118.491 205.73 118.491Z" fill="#455A64"/>
<path d="M189.76 133.736L186.684 130.857L182.701 134.805C182.701 134.805 179.039 134.077 177.228 136.136C176.631 136.858 176.199 137.703 175.963 138.611C175.727 139.518 175.692 140.467 175.862 141.389L179.447 138.225L182.482 141.261L179.281 144.58C180.285 144.84 181.341 144.812 182.329 144.497C183.317 144.183 184.196 143.596 184.865 142.805C186.792 140.624 185.797 137.755 185.797 137.755L189.76 133.736Z" fill="#455A64"/>
</svg>
