<svg width="212" height="189" viewBox="0 0 212 189" fill="none" xmlns="http://www.w3.org/2000/svg">
<path fill-rule="evenodd" clip-rule="evenodd" d="M54.1936 185.92C49.7429 184.958 -3.72902 176.286 0.206892 112.332C4.14281 48.3783 9.08397 29.1457 29.8727 22.1078C50.6615 15.0699 101.197 -18.2246 140.852 13.4348C165.36 33 204.406 73.3983 207.371 83.408C210.336 93.4178 216.529 112.625 206.316 124.039C179.58 153.921 186.555 191.451 142.251 188.874C97.9471 186.297 75.355 190.499 54.1928 185.92" fill="#F9F9F9"/>
<path d="M52.8139 77.3044H33.9683C33.6905 77.3082 33.4148 77.2567 33.1571 77.153C32.8993 77.0494 32.6648 76.8955 32.467 76.7004C32.2693 76.5053 32.1123 76.2729 32.0051 76.0166C31.8979 75.7603 31.8427 75.4853 31.8427 75.2075C31.8427 74.9297 31.8979 74.6547 32.0051 74.3984C32.1123 74.1421 32.2693 73.9097 32.467 73.7146C32.6648 73.5195 32.8993 73.3656 33.1571 73.262C33.4148 73.1583 33.6905 73.1068 33.9683 73.1106H36.04C36.3178 73.1143 36.5935 73.0629 36.8512 72.9592C37.1089 72.8555 37.3435 72.7016 37.5412 72.5065C37.739 72.3114 37.896 72.079 38.0032 71.8227C38.1103 71.5664 38.1655 71.2914 38.1655 71.0136C38.1655 70.7358 38.1103 70.4608 38.0032 70.2045C37.896 69.9483 37.739 69.7158 37.5412 69.5207C37.3435 69.3256 37.1089 69.1718 36.8512 69.0681C36.5935 68.9644 36.3178 68.9129 36.04 68.9167H23.3698C23.0921 68.9129 22.8163 68.9644 22.5586 69.0681C22.3009 69.1718 22.0663 69.3256 21.8686 69.5207C21.6708 69.7158 21.5138 69.9483 21.4067 70.2045C21.2995 70.4608 21.2443 70.7358 21.2443 71.0136C21.2443 71.2914 21.2995 71.5664 21.4067 71.8227C21.5138 72.079 21.6708 72.3114 21.8686 72.5065C22.0663 72.7016 22.3009 72.8555 22.5586 72.9592C22.8163 73.0629 23.0921 73.1143 23.3698 73.1106H25.3391C25.6169 73.1068 25.8926 73.1583 26.1504 73.262C26.4081 73.3656 26.6426 73.5195 26.8404 73.7146C27.0381 73.9097 27.1951 74.1421 27.3023 74.3984C27.4095 74.6547 27.4647 74.9297 27.4647 75.2075C27.4647 75.4853 27.4095 75.7603 27.3023 76.0166C27.1951 76.2729 27.0381 76.5053 26.8404 76.7004C26.6426 76.8955 26.4081 77.0494 26.1504 77.153C25.8926 77.2567 25.6169 77.3082 25.3391 77.3044H19.5255C18.9693 77.3044 18.4358 77.5254 18.0425 77.9187C17.6492 78.312 17.4282 78.8455 17.4282 79.4017C17.4282 79.958 17.6492 80.4915 18.0425 80.8848C18.4358 81.2781 18.9693 81.4991 19.5255 81.4991H32.774C33.3252 81.5065 33.8513 81.7308 34.2385 82.1232C34.6256 82.5156 34.8427 83.0447 34.8427 83.596C34.8427 84.1473 34.6256 84.6764 34.2385 85.0688C33.8513 85.4613 33.3252 85.6855 32.774 85.6929H30.3846C30.1069 85.6892 29.8311 85.7406 29.5734 85.8443C29.3157 85.948 29.0812 86.1019 28.8834 86.297C28.6856 86.4921 28.5286 86.7245 28.4215 86.9808C28.3143 87.2371 28.2591 87.5121 28.2591 87.7899C28.2591 88.0677 28.3143 88.3427 28.4215 88.599C28.5286 88.8552 28.6856 89.0877 28.8834 89.2828C29.0812 89.4779 29.3157 89.6317 29.5734 89.7354C29.8311 89.8391 30.1069 89.8906 30.3846 89.8868H45.3537C45.6314 89.8906 45.9072 89.8391 46.1649 89.7354C46.4226 89.6317 46.6571 89.4779 46.8549 89.2828C47.0526 89.0877 47.2097 88.8552 47.3168 88.599C47.424 88.3427 47.4792 88.0677 47.4792 87.7899C47.4792 87.5121 47.424 87.2371 47.3168 86.9808C47.2097 86.7245 47.0526 86.4921 46.8549 86.297C46.6571 86.1019 46.4226 85.948 46.1649 85.8443C45.9072 85.7406 45.6314 85.6892 45.3537 85.6929H44.0731C43.7954 85.6967 43.5196 85.6452 43.2619 85.5415C43.0042 85.4379 42.7697 85.284 42.5719 85.0889C42.3741 84.8938 42.2171 84.6614 42.11 84.4051C42.0028 84.1488 41.9476 83.8738 41.9476 83.596C41.9476 83.3182 42.0028 83.0432 42.11 82.7869C42.2171 82.5306 42.3741 82.2982 42.5719 82.1031C42.7697 81.908 43.0042 81.7542 43.2619 81.6505C43.5196 81.5468 43.7954 81.4953 44.0731 81.4991H52.8128C53.369 81.4991 53.9025 81.2781 54.2958 80.8848C54.6891 80.4915 54.9101 79.958 54.9101 79.4017C54.9101 78.8455 54.6891 78.312 54.2958 77.9187C53.9025 77.5254 53.369 77.3044 52.8128 77.3044H52.8139Z" stroke="#E8E8E8" stroke-width="3" stroke-linecap="round" stroke-linejoin="round"/>
<path d="M156.972 131.631H162.092C162.649 131.631 163.182 131.852 163.576 132.245C163.969 132.639 164.19 133.172 164.19 133.728C164.19 134.285 163.969 134.818 163.576 135.211C163.182 135.605 162.649 135.826 162.092 135.826H159.701C159.145 135.826 158.612 136.047 158.219 136.44C157.825 136.833 157.604 137.366 157.604 137.922C157.604 138.478 157.825 139.012 158.219 139.405C158.612 139.798 159.145 140.019 159.701 140.019H174.674C175.231 140.019 175.764 139.798 176.157 139.405C176.55 139.012 176.771 138.478 176.771 137.922C176.771 137.366 176.55 136.833 176.157 136.44C175.764 136.047 175.231 135.826 174.674 135.826H173.393C172.837 135.826 172.303 135.605 171.91 135.211C171.516 134.818 171.295 134.285 171.295 133.728C171.295 133.172 171.516 132.639 171.91 132.245C172.303 131.852 172.837 131.631 173.393 131.631H184.922C185.478 131.631 186.012 131.41 186.405 131.017C186.798 130.624 187.019 130.09 187.019 129.534C187.019 128.978 186.798 128.445 186.405 128.052C186.012 127.658 185.478 127.438 184.922 127.438H156.971C156.415 127.438 155.881 127.658 155.488 128.052C155.095 128.445 154.874 128.978 154.874 129.534C154.874 130.09 155.095 130.624 155.488 131.017C155.881 131.41 156.415 131.631 156.971 131.631H156.972Z" stroke="#E8E8E8" stroke-width="3" stroke-linecap="round" stroke-linejoin="round"/>
<path d="M165.998 52.207H50.5371V153.935H165.998V52.207Z" fill="#DBDBDB"/>
<path d="M163.688 49.8965H48.2271V151.624H163.688V49.8965Z" fill="white"/>
<path d="M163.688 111.832H48.2271V129.02H163.688V111.832Z" fill="white"/>
<path d="M163.688 92.167H48.2271V111.832H163.688V92.167Z" fill="#F5F5F5"/>
<path d="M163.688 131.828H48.2271V151.493H163.688V131.828Z" fill="#F5F5F5"/>
<path d="M117.94 98.2924C117.94 98.3478 104.324 98.3925 87.5311 98.3925C70.7326 98.3925 57.1191 98.3478 57.1191 98.2924C57.1191 98.2369 70.7326 98.1919 87.5311 98.1919C104.324 98.1919 117.94 98.2369 117.94 98.2924Z" fill="#4D4D4D"/>
<path d="M82.7913 103.765C82.7913 103.821 77.0047 103.866 69.8686 103.866C62.7325 103.866 56.9443 103.821 56.9443 103.765C56.9443 103.71 62.7294 103.665 69.8686 103.665C77.0078 103.665 82.7913 103.711 82.7913 103.765Z" fill="#4D4D4D"/>
<path d="M117.94 117.689C117.94 117.744 104.324 117.789 87.5311 117.789C70.7326 117.789 57.1191 117.744 57.1191 117.689C57.1191 117.634 70.7326 117.589 87.5311 117.589C104.324 117.589 117.94 117.634 117.94 117.689Z" fill="#4D4D4D"/>
<path d="M82.7913 123.163C82.7913 123.218 77.0047 123.263 69.8686 123.263C62.7325 123.263 56.9443 123.218 56.9443 123.163C56.9443 123.108 62.7294 123.062 69.8686 123.062C77.0078 123.062 82.7913 123.108 82.7913 123.163Z" fill="#4D4D4D"/>
<path d="M117.94 137.085C117.94 137.141 104.324 137.186 87.5311 137.186C70.7326 137.186 57.1191 137.141 57.1191 137.085C57.1191 137.03 70.7326 136.985 87.5311 136.985C104.324 136.985 117.94 137.03 117.94 137.085Z" fill="#4D4D4D"/>
<path d="M82.7913 142.558C82.7913 142.614 77.0047 142.659 69.8686 142.659C62.7325 142.659 56.9443 142.614 56.9443 142.558C56.9443 142.503 62.7294 142.458 69.8686 142.458C77.0078 142.458 82.7913 142.505 82.7913 142.558Z" fill="#4D4D4D"/>
<path d="M163.688 49.7666H48.2271V59.4711H163.688V49.7666Z" fill="black" fill-opacity="0.12"/>
<path d="M163.688 58.5532H48.2271V68.2577H163.688V58.5532Z" fill="#F5F5F5"/>
<path d="M163.71 151.624C163.71 150.979 163.687 111.979 163.652 49.766L163.71 49.8453L48.3091 49.8661H48.2998L48.373 49.766C48.3707 85.9246 48.3687 120.36 48.3672 151.624L48.2998 151.532L163.71 151.624L48.2998 151.717H48.2328V151.624C48.2328 120.36 48.229 85.9246 48.2271 49.766V49.6655H48.3091L163.71 49.6867H163.767V49.766C163.732 111.979 163.71 150.979 163.71 151.624Z" fill="#263238"/>
<path d="M136.681 99.7026H153.546C154.45 99.7026 155.317 100.062 155.957 100.701C156.596 101.34 156.955 102.207 156.955 103.111C156.955 103.559 156.867 104.002 156.695 104.416C156.524 104.829 156.273 105.205 155.957 105.522C155.317 106.161 154.45 106.52 153.546 106.52H136.681C136.233 106.52 135.79 106.432 135.376 106.26C134.963 106.089 134.587 105.838 134.271 105.521C133.954 105.205 133.703 104.829 133.532 104.416C133.361 104.002 133.272 103.559 133.272 103.111C133.272 102.207 133.632 101.34 134.271 100.701C134.91 100.062 135.777 99.7026 136.681 99.7026V99.7026Z" fill="#F68B22"/>
<path d="M153.546 126.208H136.68C135.776 126.208 134.909 125.849 134.27 125.21C133.631 124.571 133.271 123.704 133.271 122.8C133.272 121.896 133.631 121.029 134.27 120.389C134.909 119.75 135.776 119.391 136.68 119.391H153.544C154.448 119.391 155.315 119.75 155.954 120.389C156.593 121.029 156.952 121.896 156.952 122.8C156.952 123.703 156.594 124.57 155.955 125.209C155.316 125.848 154.45 126.208 153.546 126.208Z" fill="#EBEBEB"/>
<path d="M162.857 71.6104H48.8955V88.7982H162.857V71.6104Z" fill="white"/>
<path d="M117.703 77.4683C117.703 77.5237 104.263 77.5688 87.6885 77.5688C71.108 77.5688 57.6714 77.5237 57.6714 77.4683C57.6714 77.4128 71.108 77.3682 87.6885 77.3682C104.263 77.3682 117.703 77.4132 117.703 77.4683Z" fill="#4D4D4D"/>
<path d="M83.0119 82.9413C83.0119 82.9968 77.3004 83.0414 70.2569 83.0414C63.2135 83.0414 57.5005 82.9968 57.5005 82.9413C57.5005 82.8859 63.2105 82.8408 70.2569 82.8408C77.3034 82.8408 83.0119 82.8859 83.0119 82.9413Z" fill="#4D4D4D"/>
<path d="M152.847 85.9872H136.2C135.308 85.9872 134.452 85.6281 133.821 84.9888C133.19 84.3495 132.835 83.4825 132.835 82.5784C132.836 81.6744 133.19 80.8074 133.821 80.1682C134.452 79.529 135.308 79.1699 136.2 79.1699H152.844C153.737 79.1699 154.592 79.529 155.223 80.1682C155.854 80.8074 156.209 81.6744 156.209 82.5784C156.209 83.482 155.855 84.3486 155.224 84.9878C154.594 85.627 153.739 85.9865 152.847 85.9872Z" fill="#EBEBEB"/>
<path d="M153.546 138.679H136.681C134.798 138.679 133.272 140.205 133.272 142.087V142.088C133.272 143.97 134.798 145.496 136.681 145.496H153.546C155.429 145.496 156.955 143.97 156.955 142.088V142.087C156.955 140.205 155.429 138.679 153.546 138.679Z" fill="#F68B22"/>
<path d="M105.978 167.992C139.133 167.992 166.011 165.311 166.011 162.004C166.011 158.696 139.133 156.015 105.978 156.015C72.8221 156.015 45.9443 158.696 45.9443 162.004C45.9443 165.311 72.8221 167.992 105.978 167.992Z" fill="black" fill-opacity="0.12"/>
</svg>
