<svg width="313" height="279" viewBox="0 0 313 279" fill="none" xmlns="http://www.w3.org/2000/svg">
<path fill-rule="evenodd" clip-rule="evenodd" d="M80 274.453C73.43 273.033 -5.50475 260.231 0.305412 165.823C6.11557 71.4156 13.4097 43.0246 44.0979 32.6353C74.786 22.246 149.385 -26.903 207.924 19.8323C244.103 48.7143 301.743 108.35 306.119 123.126C310.496 137.902 319.638 166.255 304.562 183.106C265.094 227.216 275.391 282.618 209.99 278.814C144.589 275.01 111.238 281.212 79.9989 274.453" fill="#F9F9F9"/>
<path d="M224.577 65.0233L224.484 64.9131H102.648L102.925 65.2109H101.807C98.4043 65.2109 95.1413 66.5625 92.7355 68.9683C90.3297 71.3741 88.9781 74.6371 88.9781 78.0395V207.731H78.2234L78.1307 207.841C75.5677 210.917 74.1641 214.794 74.1641 218.798C74.1641 222.801 75.5677 226.678 78.1307 229.754L78.2234 229.864H200.221C203.925 229.864 207.478 228.393 210.097 225.774C212.716 223.154 214.187 219.602 214.187 215.898V87.3444C214.187 87.3444 214.187 87.2381 214.187 87.0466H224.486L224.578 86.9329C227.14 83.8573 228.543 79.9809 228.543 75.9779C228.543 71.975 227.139 68.0987 224.577 65.0233Z" fill="#DBDBDB"/>
<path opacity="0.12" d="M142.519 239.463C182.203 239.463 214.374 235.505 214.374 230.623C214.374 225.741 182.203 221.783 142.519 221.783C102.835 221.783 70.665 225.741 70.665 230.623C70.665 235.505 102.835 239.463 142.519 239.463Z" fill="black"/>
<path d="M98.658 83.8718H220.495L220.587 83.761C223.15 80.6855 224.554 76.8086 224.554 72.805C224.554 68.8015 223.15 64.9246 220.587 61.8491L220.495 61.7383H98.658L99.261 62.3868C101.98 65.3127 103.449 69.1842 103.357 73.1773C103.264 77.1703 101.617 80.9696 98.766 83.7666L98.658 83.8718Z" fill="#F2F2F2" stroke="#CCCCCC" stroke-width="3"/>
<path d="M196.232 226.69H84.9889V74.8651C84.9887 73.1803 85.3204 71.512 85.9651 69.9555C86.6097 68.3989 87.5546 66.9846 88.7459 65.7932C89.9372 64.6018 91.3514 63.6568 92.9079 63.012C94.4644 62.3672 96.1327 62.0354 97.8175 62.0354H206.65C206.65 62.0354 217.944 61.3647 217.717 62.0354C209.792 62.1905 210.199 84.1689 210.199 84.1689V212.724C210.199 214.559 209.837 216.375 209.135 218.069C208.433 219.764 207.405 221.303 206.108 222.6C204.811 223.897 203.271 224.926 201.576 225.627C199.882 226.329 198.066 226.69 196.232 226.69Z" fill="white" stroke="#CCCCCC" stroke-width="3"/>
<path d="M196.07 226.69H74.2336L74.1409 226.576C71.5779 223.501 70.1743 219.624 70.1743 215.62C70.1743 211.617 71.5779 207.74 74.1409 204.664L74.2336 204.554H196.07L195.468 205.202C189.814 211.283 188.854 221.667 196.07 226.686V226.69Z" fill="#EFEFEF" stroke="#CCCCCC" stroke-width="3"/>
<path d="M198.276 194.816H164.434V196.891H198.276V194.816Z" fill="#E6E6E6"/>
<path d="M198.275 104.925H101.521V107.512H198.275V104.925Z" fill="#E6E6E6"/>
<path d="M102.591 89.6777H104.659C105.488 89.6777 106.119 89.905 106.551 90.3597C106.991 90.8143 107.211 91.4193 107.211 92.1747V95.1887C107.211 96.6553 106.434 97.3887 104.879 97.3887H102.591V89.6777ZM106.001 92.0647C106.001 91.6613 105.899 91.368 105.693 91.1847C105.495 90.994 105.187 90.8987 104.769 90.8987H103.801V96.2777H104.703C105.099 96.2777 105.415 96.219 105.649 96.1017C105.884 95.977 106.001 95.7093 106.001 95.2987V92.0647ZM111.745 95.2437H110.139V97.3887H108.929V89.6887H111.536C112.02 89.6887 112.424 89.8097 112.746 90.0517C113.069 90.2863 113.307 90.6017 113.461 90.9977C113.623 91.3937 113.703 91.83 113.703 92.3067C113.703 92.666 113.689 92.9777 113.659 93.2417C113.63 93.5057 113.553 93.7807 113.428 94.0667C113.311 94.3527 113.12 94.6093 112.856 94.8367L113.714 97.3887H112.482L111.745 95.2437ZM111.25 94.0887C111.61 94.0887 111.874 93.997 112.042 93.8137C112.218 93.623 112.325 93.4067 112.361 93.1647C112.405 92.9227 112.427 92.6367 112.427 92.3067C112.427 91.918 112.372 91.6247 112.262 91.4267C112.152 91.2213 111.998 91.0857 111.8 91.0197C111.602 90.9463 111.346 90.9097 111.03 90.9097H110.139V94.0887H111.25ZM118.075 95.3757H116.304L115.875 97.3887H114.511L116.315 89.6887H118.02L119.967 97.3887H118.526L118.075 95.3757ZM116.59 94.0887H117.789L117.162 91.7127L116.59 94.0887ZM120.939 89.6887H124.613V90.8987H122.149V92.8457H123.689L123.293 94.0007H122.149V97.3887H120.939V89.6887ZM126.628 90.9097H125.044V89.6887H129.466V90.9097H127.838V97.3887H126.628V90.9097Z" fill="black"/>
<path d="M198.275 117.627H101.521V120.214H198.275V117.627Z" fill="#E6E6E6"/>
<path d="M198.275 130.328H101.521V132.915H198.275V130.328Z" fill="#E6E6E6"/>
<path d="M198.275 143.029H101.521V145.616H198.275V143.029Z" fill="#E6E6E6"/>
<path d="M198.275 155.73H101.521V158.318H198.275V155.73Z" fill="#E6E6E6"/>
<path d="M198.275 181.134H101.521V183.721H198.275V181.134Z" fill="#E6E6E6"/>
<path d="M198.275 168.433H101.521V171.02H198.275V168.433Z" fill="#E6E6E6"/>
</svg>
