<svg width="313" height="279" viewBox="0 0 313 279" fill="none" xmlns="http://www.w3.org/2000/svg">
<path fill-rule="evenodd" clip-rule="evenodd" d="M80 274.453C73.43 273.033 -5.50475 260.231 0.305412 165.823C6.11557 71.4156 13.4097 43.0246 44.0979 32.6353C74.786 22.246 149.385 -26.903 207.924 19.8323C244.103 48.7143 301.743 108.35 306.119 123.126C310.496 137.902 319.638 166.255 304.562 183.106C265.094 227.216 275.391 282.618 209.99 278.814C144.589 275.01 111.238 281.212 79.9989 274.453" fill="#F9F9F9"/>
<path d="M224.577 65.0233L224.484 64.9131H102.648L102.925 65.2109H101.807C98.4043 65.2109 95.1413 66.5625 92.7354 68.9683C90.3296 71.3741 88.978 74.6371 88.978 78.0395V207.731H78.2233L78.1306 207.841C75.5676 210.917 74.1641 214.794 74.1641 218.798C74.1641 222.801 75.5676 226.678 78.1306 229.754L78.2233 229.864H200.221C203.925 229.864 207.478 228.393 210.097 225.774C212.716 223.154 214.187 219.602 214.187 215.898V87.3444C214.187 87.3444 214.187 87.2381 214.187 87.0466H224.486L224.578 86.9329C227.14 83.8573 228.543 79.9809 228.543 75.9779C228.543 71.975 227.139 68.0987 224.577 65.0233Z" fill="#DBDBDB"/>
<path opacity="0.12" d="M142.519 239.464C182.203 239.464 214.373 235.506 214.373 230.624C214.373 225.742 182.203 221.784 142.519 221.784C102.835 221.784 70.6648 225.742 70.6648 230.624C70.6648 235.506 102.835 239.464 142.519 239.464Z" fill="black"/>
<path d="M98.6577 83.8718H220.495L220.587 83.761C223.15 80.6855 224.554 76.8086 224.554 72.805C224.554 68.8015 223.15 64.9246 220.587 61.8491L220.495 61.7383H98.6577L99.2607 62.3868C101.979 65.3127 103.449 69.1842 103.357 73.1773C103.264 77.1703 101.617 80.9696 98.7657 83.7666L98.6577 83.8718Z" fill="#F2F2F2" stroke="#CCCCCC" stroke-width="3"/>
<path d="M196.231 226.69H84.9885V74.8651C84.9884 73.1803 85.3201 71.512 85.9647 69.9555C86.6093 68.3989 87.5543 66.9846 88.7455 65.7932C89.9368 64.6018 91.3511 63.6568 92.9076 63.012C94.4641 62.3672 96.1324 62.0354 97.8171 62.0354H206.649C206.649 62.0354 217.944 61.3647 217.716 62.0354C209.792 62.1905 210.198 84.1689 210.198 84.1689V212.724C210.198 214.559 209.837 216.375 209.135 218.069C208.433 219.764 207.404 221.303 206.107 222.6C204.81 223.897 203.271 224.926 201.576 225.627C199.882 226.329 198.065 226.69 196.231 226.69Z" fill="white" stroke="#CCCCCC" stroke-width="3"/>
<path d="M196.07 226.69H74.2336L74.1409 226.576C71.5779 223.501 70.1743 219.624 70.1743 215.62C70.1743 211.617 71.5779 207.74 74.1409 204.664L74.2336 204.554H196.07L195.468 205.202C189.814 211.283 188.854 221.667 196.07 226.686V226.69Z" fill="#EFEFEF" stroke="#CCCCCC" stroke-width="3"/>
<path d="M198.276 194.816H164.434V196.891H198.276V194.816Z" fill="#E6E6E6"/>
<path d="M198.275 104.925H101.521V107.512H198.275V104.925Z" fill="#E6E6E6"/>
<path d="M198.275 117.627H101.521V120.214H198.275V117.627Z" fill="#E6E6E6"/>
<path d="M198.275 130.328H101.521V132.915H198.275V130.328Z" fill="#E6E6E6"/>
<path d="M198.275 143.029H101.521V145.616H198.275V143.029Z" fill="#E6E6E6"/>
<path d="M198.275 155.73H101.521V158.318H198.275V155.73Z" fill="#E6E6E6"/>
<path d="M198.275 181.133H101.521V183.72H198.275V181.133Z" fill="#E6E6E6"/>
<path d="M198.275 168.433H101.521V171.02H198.275V168.433Z" fill="#E6E6E6"/>
<path d="M105.314 92.7314H101.733L103.927 88.2756H105.2L103.757 91.5379H105.314V88.2756H106.553V91.5379H107.337L107.121 92.7314H106.553V96.2324H105.314V92.7314Z" fill="black"/>
<path d="M112.959 94.1295C112.959 94.8949 112.724 95.4595 112.254 95.8232C111.792 96.1794 111.235 96.3574 110.583 96.3574C110.174 96.3574 109.788 96.2855 109.424 96.1415C109.06 95.9899 108.761 95.7474 108.526 95.414C108.299 95.0806 108.185 94.6524 108.185 94.1295V90.4694C108.185 89.6889 108.397 89.0978 108.822 88.6962C109.253 88.2946 109.845 88.0938 110.595 88.0938C111.345 88.0938 111.925 88.3059 112.334 88.7303C112.751 89.1547 112.959 89.7382 112.959 90.4808V94.1295ZM111.709 90.89C111.709 90.5717 111.682 90.3103 111.629 90.1057C111.576 89.9011 111.466 89.7419 111.299 89.6283C111.133 89.507 110.89 89.4464 110.572 89.4464C110.254 89.4464 110.011 89.5032 109.845 89.6169C109.678 89.7306 109.568 89.8897 109.515 90.0943C109.462 90.2913 109.435 90.5528 109.435 90.8786V93.9136C109.435 94.2773 109.526 94.5653 109.708 94.7775C109.898 94.9821 110.186 95.0844 110.572 95.0844C110.928 95.0844 111.205 94.9745 111.402 94.7547C111.606 94.535 111.709 94.247 111.709 93.8908V90.89Z" fill="black"/>
<path d="M117.436 92.7314H113.855L116.049 88.2756H117.322L115.878 91.5379H117.436V88.2756H118.675V91.5379H119.459L119.243 92.7314H118.675V96.2324H117.436V92.7314Z" fill="black"/>
</svg>
