<svg width="313" height="279" viewBox="0 0 313 279" fill="none" xmlns="http://www.w3.org/2000/svg">
<path fill-rule="evenodd" clip-rule="evenodd" d="M80 274.453C73.43 273.033 -5.50475 260.231 0.305412 165.823C6.11557 71.4156 13.4097 43.0246 44.0979 32.6353C74.786 22.246 149.385 -26.903 207.924 19.8323C244.103 48.7143 301.743 108.35 306.119 123.126C310.496 137.902 319.638 166.255 304.562 183.106C265.094 227.216 275.391 282.618 209.99 278.814C144.589 275.01 111.238 281.212 79.9989 274.453" fill="#F9F9F9"/>
<path d="M148.297 235.356C197.24 235.356 236.917 231.398 236.917 226.516C236.917 221.634 197.24 217.676 148.297 217.676C99.353 217.676 59.6763 221.634 59.6763 226.516C59.6763 231.398 99.353 235.356 148.297 235.356Z" fill="black" fill-opacity="0.12"/>
<path d="M234.787 86.4072H248.478V80.6172H234.787V86.4072Z" fill="#EBEBEB"/>
<path d="M242.424 79.1064H256.115V73.3164H242.424V79.1064Z" fill="#EBEBEB"/>
<path d="M76.1435 140.231H89.8347V134.441H76.1435V140.231Z" fill="#EBEBEB"/>
<path d="M83.7809 132.931H97.4722V127.141H83.7809V132.931Z" fill="#EBEBEB"/>
<path d="M91.5368 140.231H105.228V134.441H91.5368V140.231Z" fill="#EBEBEB"/>
<path d="M40.3525 79.1064H54.0437V73.3164H40.3525V79.1064Z" fill="#EBEBEB"/>
<path d="M47.9894 196.053H61.6807V190.263H47.9894V196.053Z" fill="#EBEBEB"/>
<path d="M40.3525 188.752H54.0437V182.962H40.3525V188.752Z" fill="#EBEBEB"/>
<path d="M234.787 196.053H248.478V190.263H234.787V196.053Z" fill="#EBEBEB"/>
<path d="M213.733 120.019L180.246 119.799L180.527 76.7793L205.391 76.9423L214.014 76.9987L213.962 85.1958L213.733 120.019Z" fill="#EBEBEB"/>
<path d="M183.741 85.1231L211.019 85.3018L211.026 84.1971L183.748 84.0184L183.741 85.1231Z" fill="#DBDBDB"/>
<path d="M183.721 87.8997L211 88.0908L211.008 86.9861L183.729 86.795L183.721 87.8997Z" fill="#DBDBDB"/>
<path d="M183.704 90.6992L210.983 90.8779L210.99 89.7732L183.711 89.5946L183.704 90.6992Z" fill="#DBDBDB"/>
<path d="M183.685 93.4883L210.964 93.667L210.971 92.5623L183.693 92.3836L183.685 93.4883Z" fill="#DBDBDB"/>
<path d="M183.667 96.2774L210.946 96.4561L210.953 95.3514L183.675 95.1727L183.667 96.2774Z" fill="#DBDBDB"/>
<path d="M183.649 99.0645L210.928 99.2432L210.935 98.1385L183.657 97.9598L183.649 99.0645Z" fill="#DBDBDB"/>
<path d="M183.631 101.853L210.909 102.031L210.916 100.927L183.638 100.748L183.631 101.853Z" fill="#DBDBDB"/>
<path d="M183.613 104.642L210.891 104.82L210.899 103.716L183.62 103.537L183.613 104.642Z" fill="#DBDBDB"/>
<path d="M183.595 107.43L210.873 107.608L210.88 106.504L183.602 106.325L183.595 107.43Z" fill="#DBDBDB"/>
<path d="M183.577 110.218L210.855 110.396L210.862 109.292L183.584 109.113L183.577 110.218Z" fill="#DBDBDB"/>
<path d="M183.557 112.994L210.836 113.186L210.844 112.081L183.565 111.89L183.557 112.994Z" fill="#DBDBDB"/>
<path d="M183.54 115.794L210.818 115.973L210.825 114.868L183.547 114.689L183.54 115.794Z" fill="#DBDBDB"/>
<path d="M218.931 133.85L186.155 126.981L194.965 84.873L219.302 89.9733L226.063 99.7652L218.931 133.85Z" fill="#EBEBEB"/>
<path d="M219.302 89.9727L226.063 99.7645L217.623 97.9959L219.302 89.9727Z" fill="#DBDBDB"/>
<path d="M196.454 93.688L214.682 97.5078L214.908 96.4263L196.68 92.6065L196.454 93.688Z" fill="#DBDBDB"/>
<path d="M195.887 96.4193L214.11 100.238L214.336 99.157L196.113 95.338L195.887 96.4193Z" fill="#DBDBDB"/>
<path d="M195.316 99.1488L213.539 102.968L213.765 101.887L195.542 98.0675L195.316 99.1488Z" fill="#DBDBDB"/>
<path d="M194.739 101.875L221.445 107.472L221.671 106.39L194.965 100.794L194.739 101.875Z" fill="#DBDBDB"/>
<path d="M194.174 104.607L220.874 110.202L221.101 109.121L194.401 103.525L194.174 104.607Z" fill="#DBDBDB"/>
<path d="M193.597 107.333L220.303 112.93L220.529 111.848L193.823 106.252L193.597 107.333Z" fill="#DBDBDB"/>
<path d="M193.026 110.062L219.732 115.658L219.958 114.577L193.252 108.98L193.026 110.062Z" fill="#DBDBDB"/>
<path d="M192.461 112.793L219.161 118.389L219.387 117.307L192.687 111.712L192.461 112.793Z" fill="#DBDBDB"/>
<path d="M191.884 115.522L218.59 121.118L218.816 120.037L192.11 114.44L191.884 115.522Z" fill="#DBDBDB"/>
<path d="M191.313 118.25L218.019 123.847L218.245 122.765L191.539 117.169L191.313 118.25Z" fill="#DBDBDB"/>
<path d="M190.742 120.98L217.448 126.576L217.674 125.495L190.968 119.898L190.742 120.98Z" fill="#DBDBDB"/>
<path d="M190.17 123.708L216.877 129.305L217.103 128.223L190.397 122.627L190.17 123.708Z" fill="#DBDBDB"/>
<path d="M89.1558 121.478L128.976 122.129L129.382 95.4751L89.5611 94.8242L89.1558 121.478Z" fill="#EBEBEB"/>
<path d="M90.8354 119.845L127.35 120.442L127.701 97.1063L91.187 96.5107L90.8354 119.845Z" fill="white"/>
<path d="M94.3873 103.84C94.3744 104.627 94.5948 105.4 95.0207 106.061C95.4466 106.722 96.0588 107.242 96.78 107.555C97.5011 107.867 98.2987 107.959 99.072 107.818C99.8453 107.678 100.559 107.31 101.124 106.763C101.689 106.216 102.079 105.514 102.245 104.745C102.411 103.976 102.345 103.175 102.056 102.444C101.767 101.712 101.268 101.083 100.622 100.635C99.9755 100.188 99.2111 99.942 98.4252 99.9292C97.3715 99.9121 96.3541 100.315 95.5969 101.048C94.8396 101.781 94.4045 102.786 94.3873 103.84Z" fill="#DBDBDB"/>
<path d="M102.173 120.067L127.325 120.478L115.027 103.213L102.173 120.067Z" fill="#DBDBDB"/>
<path d="M92.3127 119.914L113.079 120.254L102.877 108.974L92.3127 119.914Z" fill="#EBEBEB"/>
<path d="M74.5016 140.734L113.313 131.797L107.312 105.826L68.5005 114.763L74.5016 140.734Z" fill="#EBEBEB"/>
<path d="M75.7402 138.746L111.329 130.551L106.072 107.815L70.4832 116.01L75.7402 138.746Z" fill="white"/>
<path d="M75.3484 122.356C75.5246 123.122 75.924 123.819 76.496 124.358C77.068 124.897 77.787 125.255 78.5619 125.385C79.3369 125.516 80.1331 125.413 80.8498 125.09C81.5665 124.768 82.1716 124.24 82.5885 123.573C83.0054 122.907 83.2154 122.131 83.192 121.345C83.1685 120.559 82.9127 119.798 82.4568 119.157C82.001 118.516 81.3655 118.025 80.6309 117.746C79.8962 117.467 79.0953 117.412 78.3295 117.589C77.3026 117.825 76.4118 118.46 75.8527 119.354C75.2937 120.248 75.1123 121.328 75.3484 122.356Z" fill="#DBDBDB"/>
<path d="M86.7988 136.236L111.314 130.591L95.2345 116.786L86.7988 136.236Z" fill="#DBDBDB"/>
<path d="M77.1909 138.457L97.4308 133.797L84.8216 125.301L77.1909 138.457Z" fill="#EBEBEB"/>
<path d="M225.563 142.634H70.905V205.171H225.563V142.634Z" fill="#E8E8E8"/>
<path d="M70.905 146.087H67.6504V205.172H70.905V146.087Z" fill="#CCCCCC"/>
<path d="M228.817 146.087H225.563V205.172H228.817V146.087Z" fill="#CCCCCC"/>
<path opacity="0.1" d="M200.86 142.634H95.6072V205.171H200.86V142.634Z" fill="black"/>
<path d="M89.1144 197.224H77.3977V200.871H89.1144V197.224Z" fill="#F68B22"/>
<path d="M189.177 180.091H107.292V205.171H189.177V180.091Z" fill="#5F5E5E"/>
<path d="M186.166 183.284H110.302V205.171H186.166V183.284Z" fill="#808080"/>
<path d="M186.166 183.284H110.302V192.632H186.166V183.284Z" fill="#263238"/>
<path opacity="0.4" d="M225.563 146.087H70.905V152.145H225.563V146.087Z" fill="#FDFEFF"/>
<path opacity="0.4" d="M225.563 154.881H70.905V156.77H225.563V154.881Z" fill="#FDFEFF"/>
<path d="M213.212 168.43C215.512 168.43 217.377 166.563 217.377 164.261C217.377 161.958 215.512 160.092 213.212 160.092C210.911 160.092 209.046 161.958 209.046 164.261C209.046 166.563 210.911 168.43 213.212 168.43Z" fill="#F68B22"/>
<path d="M188.681 107.196H107.788V142.634H188.681V107.196Z" fill="#CCCCCC"/>
<path d="M183.253 91.8213H113.214V142.633H183.253V91.8213Z" fill="white" stroke="#CCCCCC"/>
<path d="M183.253 91.8222L148.182 91.9469L113.214 92.0074L113.399 91.8222L113.472 142.634L113.214 142.375L183.253 142.475L183.094 142.633L183.154 117.268L183.253 91.8222ZM183.253 91.8222L183.351 117.187L183.411 142.634V142.789H183.253L113.214 142.889H112.955V142.63L113.028 91.8186V91.6328H113.213L148.284 91.6934L183.253 91.8222Z" fill="#263238"/>
<path d="M217.833 171.076H208.59V172.404H217.833V171.076Z" fill="#F68B22"/>
<path d="M217.833 173.616H208.59V174.944H217.833V173.616Z" fill="#F68B22"/>
</svg>
