<svg width="313" height="279" viewBox="0 0 313 279" fill="none" xmlns="http://www.w3.org/2000/svg">
<path fill-rule="evenodd" clip-rule="evenodd" d="M80 274.453C73.43 273.033 -5.50475 260.231 0.305412 165.823C6.11557 71.4156 13.4097 43.0246 44.0979 32.6353C74.786 22.246 149.385 -26.903 207.924 19.8323C244.103 48.7143 301.743 108.35 306.119 123.126C310.496 137.902 319.638 166.255 304.562 183.106C265.094 227.216 275.391 282.618 209.99 278.814C144.589 275.01 111.238 281.212 79.9989 274.453" fill="#F9F9F9"/>
<path d="M224.577 65.0233L224.484 64.9131H102.648L102.925 65.2109H101.807C98.4043 65.2109 95.1413 66.5625 92.7354 68.9683C90.3296 71.3741 88.978 74.6371 88.978 78.0395V207.731H78.2233L78.1306 207.841C75.5676 210.917 74.1641 214.794 74.1641 218.798C74.1641 222.801 75.5676 226.678 78.1306 229.754L78.2233 229.864H200.221C203.925 229.864 207.478 228.393 210.097 225.774C212.716 223.154 214.187 219.602 214.187 215.898V87.3444C214.187 87.3444 214.187 87.2381 214.187 87.0466H224.486L224.578 86.9329C227.14 83.8573 228.543 79.9809 228.543 75.9779C228.543 71.975 227.139 68.0987 224.577 65.0233Z" fill="#DBDBDB"/>
<path opacity="0.12" d="M142.519 239.463C182.203 239.463 214.374 235.505 214.374 230.623C214.374 225.741 182.203 221.783 142.519 221.783C102.835 221.783 70.665 225.741 70.665 230.623C70.665 235.505 102.835 239.463 142.519 239.463Z" fill="black"/>
<path d="M98.6582 83.8723H220.495L220.587 83.7615C223.151 80.6859 224.554 76.8091 224.554 72.8055C224.554 68.802 223.151 64.9251 220.587 61.8496L220.495 61.7388H98.6582L99.2612 62.3873C101.98 65.3132 103.449 69.1847 103.357 73.1778C103.265 77.1708 101.617 80.9701 98.7662 83.7671L98.6582 83.8723Z" fill="#F2F2F2" stroke="#CCCCCC" stroke-width="3"/>
<path d="M196.231 226.69H84.9888V74.8651C84.9886 73.1803 85.3203 71.512 85.9649 69.9555C86.6096 68.3989 87.5545 66.9846 88.7458 65.7932C89.937 64.6018 91.3513 63.6568 92.9078 63.012C94.4643 62.3672 96.1326 62.0354 97.8174 62.0354H206.65C206.65 62.0354 217.944 61.3647 217.716 62.0354C209.792 62.1905 210.198 84.1689 210.198 84.1689V212.724C210.198 214.559 209.837 216.375 209.135 218.069C208.433 219.764 207.405 221.303 206.108 222.6C204.811 223.897 203.271 224.926 201.576 225.627C199.882 226.329 198.066 226.69 196.231 226.69Z" fill="white" stroke="#CCCCCC" stroke-width="3"/>
<path d="M196.07 226.691H74.2336L74.1409 226.577C71.5779 223.501 70.1743 219.624 70.1743 215.621C70.1743 211.617 71.5779 207.74 74.1409 204.664L74.2336 204.554H196.07L195.468 205.203C189.814 211.284 188.854 221.667 196.07 226.686V226.691Z" fill="#EFEFEF" stroke="#CCCCCC" stroke-width="3"/>
<path d="M187.743 86.5898H112.054V92.9593H187.743V86.5898Z" fill="#E6E6E6"/>
<path d="M198.276 194.816H164.434V196.891H198.276V194.816Z" fill="#E6E6E6"/>
<path d="M198.275 104.924H101.521V107.511H198.275V104.924Z" fill="#E6E6E6"/>
<path d="M198.275 117.626H101.521V120.214H198.275V117.626Z" fill="#E6E6E6"/>
<path d="M198.275 130.328H101.521V132.915H198.275V130.328Z" fill="#E6E6E6"/>
<path d="M198.275 143.029H101.521V145.616H198.275V143.029Z" fill="#E6E6E6"/>
<path d="M198.275 155.73H101.521V158.318H198.275V155.73Z" fill="#E6E6E6"/>
<path d="M198.275 181.134H101.521V183.721H198.275V181.134Z" fill="#E6E6E6"/>
<path d="M198.275 168.432H101.521V171.019H198.275V168.432Z" fill="#E6E6E6"/>
</svg>
