<svg width="313" height="280" viewBox="0 0 313 280" fill="none" xmlns="http://www.w3.org/2000/svg">
<path fill-rule="evenodd" clip-rule="evenodd" d="M80.028 274.549C73.4556 273.128 -5.50667 260.322 0.305519 165.881C6.11771 71.4405 13.4144 43.0396 44.1133 32.6467C74.8122 22.2538 149.438 -26.9124 207.997 19.8392C244.188 48.7313 301.848 108.388 306.226 123.169C310.605 137.951 319.75 166.313 304.669 183.169C265.187 227.296 275.488 282.717 210.063 278.912C144.639 275.106 111.277 281.31 80.0268 274.549" fill="#F9F9F9"/>
<path d="M224.656 65.0458L224.563 64.9355H102.684L102.961 65.2335H101.842C98.4388 65.2335 95.1747 66.5855 92.768 68.9922C90.3613 71.3989 89.0093 74.663 89.0093 78.0666V207.803H78.2508L78.1581 207.914C75.5942 210.991 74.1901 214.869 74.1901 218.874C74.1901 222.879 75.5942 226.757 78.1581 229.834L78.2508 229.944H200.291C203.997 229.944 207.55 228.472 210.17 225.852C212.79 223.232 214.262 219.679 214.262 215.973V87.3747C214.262 87.3747 214.262 87.2684 214.262 87.0768H224.564L224.657 86.9631C227.22 83.8864 228.623 80.0086 228.623 76.0042C228.623 71.9999 227.219 68.1223 224.656 65.0458Z" fill="#DBDBDB"/>
<path opacity="0.12" d="M142.569 239.547C182.267 239.547 214.449 235.588 214.449 230.704C214.449 225.821 182.267 221.861 142.569 221.861C102.871 221.861 70.6898 225.821 70.6898 230.704C70.6898 235.588 102.871 239.547 142.569 239.547Z" fill="black"/>
<path d="M98.6926 83.901H220.572L220.664 83.7901C223.229 80.7136 224.633 76.8354 224.633 72.8304C224.633 68.8254 223.229 64.9472 220.664 61.8706L220.572 61.7598H98.6926L99.2958 62.4085C102.016 65.3355 103.486 69.2083 103.393 73.2028C103.301 77.1972 101.653 80.9978 98.8006 83.7958L98.6926 83.901Z" fill="#F2F2F2" stroke="#CCCCCC" stroke-width="3"/>
<path d="M196.3 226.769H85.0187V74.8912C85.0185 73.2058 85.3503 71.5369 85.9952 69.9798C86.6401 68.4227 87.5853 67.0079 88.777 65.8161C89.9687 64.6243 91.3834 63.6789 92.9405 63.0339C94.4975 62.3889 96.1664 62.057 97.8518 62.057H206.722C206.722 62.057 218.021 61.3861 217.793 62.057C209.866 62.2122 210.272 84.1982 210.272 84.1982V212.799C210.272 214.633 209.911 216.45 209.209 218.145C208.506 219.84 207.477 221.381 206.18 222.678C204.882 223.975 203.342 225.004 201.647 225.706C199.952 226.408 198.135 226.77 196.3 226.769Z" fill="white" stroke="#CCCCCC" stroke-width="3"/>
<path d="M196.139 226.769H74.2596L74.1669 226.655C71.603 223.579 70.199 219.7 70.199 215.695C70.199 211.69 71.603 207.812 74.1669 204.735L74.2596 204.625H196.139L195.536 205.274C189.881 211.357 188.92 221.744 196.139 226.765V226.769Z" fill="#EFEFEF" stroke="#CCCCCC" stroke-width="3"/>
<path d="M198.345 194.885H164.492V196.961H198.345V194.885Z" fill="#E6E6E6"/>
<path d="M198.345 104.961H101.557V107.549H198.345V104.961Z" fill="#E6E6E6"/>
<path d="M102.656 89.251H104.794C105.65 89.251 106.302 89.486 106.749 89.956C107.204 90.426 107.432 91.0514 107.432 91.8322V94.9478C107.432 96.4639 106.628 97.2219 105.021 97.2219H102.656V89.251ZM106.181 91.7184C106.181 91.3015 106.075 90.9983 105.862 90.8088C105.658 90.6117 105.339 90.5131 104.907 90.5131H103.907V96.0735H104.839C105.248 96.0735 105.574 96.0128 105.817 95.8915C106.06 95.7627 106.181 95.486 106.181 95.0615V91.7184Z" fill="#ED6B5F"/>
<path d="M108.663 89.2623H112.461V90.5131H109.914V92.5258H111.472L111.119 93.7197H109.914V96.0848H112.438V97.2219H108.663V89.2623Z" fill="#ED6B5F"/>
<path d="M113.949 89.2623H115.2V96.0735H118.054V97.2219H113.949V89.2623Z" fill="#ED6B5F"/>
<path d="M118.957 89.2623H122.755V90.5131H120.208V92.5258H121.766L121.413 93.7197H120.208V96.0848H122.732V97.2219H118.957V89.2623Z" fill="#ED6B5F"/>
<path d="M124.993 90.5245H123.356V89.2623H127.927V90.5245H126.244V97.2219H124.993V90.5245Z" fill="#ED6B5F"/>
<path d="M128.818 89.2623H132.615V90.5131H130.068V92.5258H131.626L131.274 93.7197H130.068V96.0848H132.593V97.2219H128.818V89.2623Z" fill="#ED6B5F"/>
<path d="M134.103 89.251H136.241C137.098 89.251 137.75 89.486 138.197 89.956C138.652 90.426 138.879 91.0514 138.879 91.8322V94.9478C138.879 96.4639 138.075 97.2219 136.468 97.2219H134.103V89.251ZM137.628 91.7184C137.628 91.3015 137.522 90.9983 137.31 90.8088C137.105 90.6117 136.787 90.5131 136.355 90.5131H135.354V96.0735H136.286C136.696 96.0735 137.022 96.0128 137.264 95.8915C137.507 95.7627 137.628 95.486 137.628 95.0615V91.7184Z" fill="#ED6B5F"/>
<path d="M198.345 117.668H101.557V120.256H198.345V117.668Z" fill="#E6E6E6"/>
<path d="M198.345 130.373H101.557V132.961H198.345V130.373Z" fill="#E6E6E6"/>
<path d="M198.345 143.078H101.557V145.666H198.345V143.078Z" fill="#E6E6E6"/>
<path d="M198.345 155.785H101.557V158.373H198.345V155.785Z" fill="#E6E6E6"/>
<path d="M198.345 181.196H101.557V183.784H198.345V181.196Z" fill="#E6E6E6"/>
<path d="M198.345 168.491H101.557V171.079H198.345V168.491Z" fill="#E6E6E6"/>
</svg>
