<svg width="181" height="161" viewBox="0 0 181 161" fill="none" xmlns="http://www.w3.org/2000/svg">
<path fill-rule="evenodd" clip-rule="evenodd" d="M46.1649 158.376C42.3736 157.556 -3.17657 150.169 0.176242 95.6902C3.52906 41.2111 7.7382 24.8278 25.4471 18.8326C43.1561 12.8373 86.2045 -15.5247 119.985 11.4444C140.862 28.1111 174.124 62.5244 176.65 71.0513C179.175 79.5781 184.451 95.9395 175.751 105.663C152.975 131.118 158.918 163.088 121.177 160.893C83.4365 158.698 64.1913 162.277 46.1642 158.376" fill="#F9F9F9"/>
<path d="M90.1676 144.013C118.411 144.013 141.307 141.73 141.307 138.912C141.307 136.095 118.411 133.811 90.1676 133.811C61.9241 133.811 39.0282 136.095 39.0282 138.912C39.0282 141.73 61.9241 144.013 90.1676 144.013Z" fill="black" fill-opacity="0.12"/>
<path d="M36.0885 61.2024C36.5991 60.6058 37.1871 60.08 37.837 59.6391L37.5888 57.4783L40.9854 56.2886L42.1404 58.1312C42.9234 58.0698 43.7111 58.1134 44.4825 58.2608L45.8344 56.558L49.077 58.1179L48.5893 60.2364C49.1861 60.7472 49.7118 61.3355 50.1526 61.9856L52.3121 61.7375L53.502 65.1331L51.6594 66.2881C51.7207 67.071 51.6771 67.8586 51.5298 68.63L53.2321 69.9821L51.6727 73.2245L49.554 72.7384C49.0433 73.3351 48.4551 73.8609 47.805 74.3017L48.0531 76.4625L44.6576 77.6523L43.5025 75.8096C42.7195 75.8709 41.9318 75.8273 41.1604 75.6798L39.8087 77.3826L36.5679 75.8218L37.054 73.703C36.4573 73.1924 35.9314 72.6042 35.4905 71.9541L33.3299 72.2022L32.1409 68.8078L33.9837 67.6527C33.9225 66.8698 33.966 66.0822 34.1133 65.3109L32.4108 63.9589L33.9702 60.7163L36.0894 61.2024H36.0885ZM38.4478 64.8666C38.0318 65.7317 37.8816 66.7007 38.0163 67.6512C38.151 68.6016 38.5645 69.4908 39.2046 70.2062C39.8446 70.9216 40.6824 71.4312 41.612 71.6705C42.5417 71.9098 43.5214 71.8681 44.4273 71.5506C45.3332 71.2331 46.1246 70.6541 46.7015 69.8869C47.2784 69.1196 47.6148 68.1985 47.6681 67.24C47.7215 66.2816 47.4895 65.3288 47.0014 64.5022C46.5134 63.6756 45.7911 63.0123 44.9261 62.5962C44.3517 62.3199 43.7284 62.1594 43.092 62.124C42.4555 62.0885 41.8183 62.1788 41.2167 62.3896C40.6152 62.6005 40.061 62.9277 39.5859 63.3527C39.1108 63.7777 38.7241 64.2921 38.4478 64.8666Z" fill="#EBEBEB"/>
<path d="M118.286 94.7565C118.789 94.1685 119.369 93.6503 120.009 93.2157L119.765 91.0862L123.111 89.9146L124.25 91.7294C125.022 91.669 125.798 91.712 126.558 91.8571L127.891 90.179L131.087 91.7165L130.607 93.8045C131.196 94.3076 131.714 94.887 132.148 95.5275L134.278 95.283L135.451 98.6297L133.635 99.7682C133.695 100.54 133.652 101.316 133.507 102.076L135.184 103.409L133.647 106.605L131.559 106.125C131.055 106.713 130.476 107.232 129.836 107.666L130.08 109.796L126.734 110.97L125.595 109.154C124.824 109.214 124.047 109.171 123.287 109.026L121.955 110.703L118.759 109.165L119.238 107.077C118.65 106.574 118.132 105.995 117.697 105.355L115.567 105.599L114.395 102.253L116.211 101.114C116.151 100.342 116.194 99.5658 116.339 98.8055L114.662 97.473L116.198 94.2775L118.286 94.7565H118.286ZM120.612 98.368C120.202 99.2207 120.054 100.176 120.186 101.113C120.319 102.049 120.727 102.926 121.358 103.631C121.988 104.336 122.814 104.838 123.73 105.074C124.647 105.31 125.612 105.269 126.505 104.956C127.398 104.643 128.178 104.072 128.747 103.316C129.315 102.56 129.647 101.652 129.699 100.707C129.752 99.7626 129.523 98.8235 129.042 98.0088C128.561 97.1941 127.849 96.5404 126.997 96.1303C126.43 95.858 125.816 95.6998 125.189 95.6649C124.562 95.63 123.934 95.719 123.341 95.9268C122.748 96.1346 122.202 96.4571 121.733 96.876C121.265 97.2949 120.884 97.8019 120.612 98.368Z" fill="#F68B22"/>
<path d="M116.432 62.6458C116.821 62.191 117.269 61.7902 117.765 61.454L117.575 59.8069L120.164 58.8999L121.044 60.3045C121.641 60.2578 122.242 60.291 122.83 60.4032L123.86 59.1055L126.332 60.2943L125.961 61.9093C126.416 62.2984 126.817 62.7465 127.153 63.2417L128.8 63.0527L129.707 65.641L128.303 66.5218C128.349 67.1186 128.316 67.719 128.204 68.307L129.502 69.3376L128.313 71.8092L126.698 71.4386C126.309 71.8934 125.861 72.2943 125.365 72.6305L125.555 74.2776L122.966 75.1855L122.085 73.7807C121.488 73.8275 120.888 73.7943 120.3 73.6819L119.269 74.9799L116.798 73.7908L117.168 72.1758C116.713 71.7867 116.313 71.3386 115.976 70.8434L114.329 71.0325L113.422 68.4441L114.827 67.5634C114.78 66.9666 114.814 66.3662 114.926 65.7782L113.628 64.7476L114.817 62.276L116.432 62.6465V62.6458ZM118.231 65.4389C117.914 66.0983 117.799 66.8371 117.902 67.5616C118.004 68.2862 118.32 68.964 118.807 69.5095C119.295 70.0549 119.934 70.4434 120.643 70.6258C121.351 70.8083 122.098 70.7765 122.789 70.5345C123.48 70.2924 124.083 69.8511 124.523 69.2661C124.962 68.6812 125.219 67.979 125.259 67.2483C125.3 66.5177 125.123 65.7914 124.751 65.1612C124.379 64.5311 123.828 64.0255 123.169 63.7083C122.285 63.283 121.268 63.2263 120.342 63.5507C119.416 63.8751 118.656 64.554 118.231 65.4382V65.4389Z" fill="#EBEBEB"/>
<path d="M109.902 50.6799C110.163 50.3742 110.465 50.1049 110.798 49.8791L110.67 48.7721L112.41 48.1626L113.002 49.1065C113.403 49.0751 113.806 49.0974 114.202 49.1729L114.894 48.3L116.555 49.0992L116.306 50.1844C116.612 50.446 116.881 50.7473 117.107 51.0804L118.214 50.9531L118.824 52.6926L117.879 53.2857C117.911 53.6869 117.889 54.0904 117.813 54.4856L118.686 55.1782L117.887 56.8392L116.802 56.5901C116.54 56.8959 116.239 57.1652 115.906 57.391L116.033 58.498L114.291 59.107L113.7 58.1631C113.299 58.1944 112.895 58.1721 112.5 58.0967L111.807 58.9697L110.146 58.1707L110.395 57.0852C110.09 56.8236 109.82 56.5223 109.594 56.1893L108.488 56.3163L107.878 54.5768L108.822 53.985C108.791 53.584 108.813 53.1805 108.888 52.7854L108.015 52.0928L108.814 50.4316L109.9 50.6806L109.902 50.6799ZM111.111 52.557C110.897 53.0003 110.82 53.4967 110.889 53.9837C110.958 54.4706 111.17 54.9262 111.498 55.2927C111.826 55.6593 112.255 55.9204 112.731 56.0429C113.208 56.1655 113.71 56.1442 114.174 55.9815C114.638 55.8188 115.043 55.5222 115.339 55.129C115.634 54.7359 115.807 54.264 115.834 53.7729C115.861 53.2819 115.742 52.7938 115.492 52.3703C115.242 51.9469 114.872 51.6071 114.429 51.3939C114.135 51.2524 113.815 51.1702 113.489 51.1521C113.163 51.1339 112.837 51.1802 112.529 51.2882C112.221 51.3962 111.937 51.5638 111.693 51.7816C111.45 51.9993 111.252 52.2628 111.111 52.557Z" fill="#F5F5F5"/>
<path d="M49.4083 110.963C49.6701 110.658 49.9714 110.388 50.3043 110.162L50.1772 109.056L51.9167 108.446L52.5085 109.39C52.9096 109.358 53.3131 109.381 53.7084 109.456L54.4007 108.583L56.0619 109.382L55.8129 110.468C56.1185 110.729 56.3879 111.031 56.6137 111.364L57.7205 111.236L58.3302 112.976L57.3863 113.568C57.4177 113.969 57.3954 114.372 57.3199 114.767L58.1929 115.46L57.3941 117.121L56.3086 116.872C56.047 117.178 55.7457 117.447 55.4127 117.673L55.5397 118.78L53.8002 119.39L53.2085 118.445C52.8074 118.477 52.404 118.455 52.0088 118.379L51.3162 119.252L49.655 118.453L49.9041 117.367C49.5983 117.106 49.329 116.805 49.1032 116.472L47.9962 116.599L47.3867 114.859L48.3307 114.267C48.2993 113.866 48.3216 113.463 48.3971 113.068L47.5241 112.375L48.3229 110.714L49.4085 110.963L49.4083 110.963ZM50.6169 112.84C50.4038 113.283 50.3268 113.78 50.3958 114.267C50.4648 114.754 50.6766 115.209 51.0045 115.576C51.3324 115.942 51.7616 116.203 52.2379 116.326C52.7142 116.449 53.2161 116.427 53.6802 116.265C54.1443 116.102 54.5498 115.805 54.8453 115.412C55.1408 115.019 55.3132 114.547 55.3405 114.056C55.3678 113.565 55.2489 113.077 54.9989 112.654C54.7488 112.23 54.3787 111.89 53.9356 111.677C53.6413 111.536 53.322 111.453 52.996 111.435C52.6699 111.417 52.3435 111.463 52.0353 111.571C51.7272 111.679 51.4433 111.847 51.1999 112.065C50.9566 112.282 50.7584 112.546 50.6169 112.84Z" fill="#F5F5F5"/>
<path d="M62.5756 117.006C62.9694 116.545 63.423 116.14 63.9243 115.8L63.733 114.133L66.3518 113.215L67.2427 114.637C67.8467 114.589 68.4543 114.623 69.0493 114.737L70.092 113.423L72.5931 114.626L72.2182 116.26C72.6786 116.654 73.0842 117.108 73.4242 117.61L75.0909 117.418L76.0087 120.037L74.5873 120.928C74.6346 121.532 74.601 122.14 74.4874 122.735L75.8005 123.777L74.5977 126.278L72.9634 125.903C72.5695 126.363 72.1158 126.768 71.6144 127.109L71.8058 128.775L69.1869 129.693L68.2958 128.272C67.6919 128.319 67.0844 128.285 66.4894 128.172L65.4467 129.485L62.9457 128.282L63.3206 126.648C62.8603 126.254 62.4547 125.8 62.1145 125.299L60.4481 125.49L59.5292 122.871L60.9505 121.98C60.9033 121.376 60.9369 120.769 61.0504 120.174L59.7373 119.131L60.9402 116.63L62.5747 117.005L62.5756 117.006ZM64.3955 119.831C64.0743 120.499 63.9583 121.246 64.0621 121.98C64.1659 122.713 64.4849 123.399 64.9786 123.951C65.4724 124.503 66.1188 124.897 66.8361 125.081C67.5533 125.266 68.3093 125.234 69.0082 124.989C69.7072 124.744 70.3179 124.297 70.7629 123.705C71.2079 123.113 71.4674 122.402 71.5085 121.663C71.5496 120.923 71.3704 120.188 70.9937 119.55C70.617 118.913 70.0596 118.401 69.3921 118.08C68.9489 117.867 68.4681 117.743 67.9771 117.716C67.4861 117.689 66.9945 117.758 66.5305 117.921C66.0664 118.084 65.6389 118.336 65.2725 118.664C64.906 118.992 64.6077 119.389 64.3946 119.832L64.3955 119.831Z" fill="#EBEBEB"/>
<path d="M68.5129 58.0413C70.7233 56.706 73.1023 55.6721 75.5867 54.9671L77.0438 47.9651L88.8748 47.7583L90.5773 54.7041C93.0852 55.3212 95.4994 56.2709 97.7556 57.5279L103.735 53.6088L112.247 61.827L108.541 67.9378C109.876 70.1487 110.91 72.5283 111.615 75.0134L118.616 76.4703L118.823 88.3012L111.877 90.0042C111.26 92.5119 110.31 94.9259 109.054 97.182L112.972 103.161L104.754 111.674L98.6416 107.967C96.4307 109.303 94.0511 110.337 91.5661 111.041L90.1084 118.044L78.2775 118.25L76.5747 111.304C74.0671 110.687 71.6531 109.737 69.3969 108.48L63.418 112.399L54.9069 104.181L58.6131 98.0692C57.2773 95.8584 56.2432 93.4787 55.5384 90.9936L48.5377 89.5369L48.3309 77.706L55.2772 76.0028C55.8947 73.4957 56.844 71.0822 58.1001 68.8263L54.1814 62.8472L62.3992 54.3349L68.5129 58.0413ZM72.0941 71.9169C69.9015 74.188 68.4315 77.0583 67.8701 80.1648C67.3088 83.2713 67.6812 86.4745 68.9403 89.3694C70.1994 92.2643 72.2887 94.7207 74.944 96.4282C77.5992 98.1357 80.7011 99.0174 83.8575 98.9619C87.0138 98.9064 90.0829 97.9162 92.6764 96.1165C95.27 94.3168 97.2717 91.7884 98.4283 88.851C99.5849 85.9137 99.8445 82.6994 99.1743 79.6145C98.5041 76.5296 96.9341 73.7128 94.663 71.5201C93.1551 70.0643 91.3751 68.9197 89.4249 68.1517C87.4746 67.3838 85.3921 67.0075 83.2964 67.0443C81.2007 67.0811 79.1328 67.5304 77.2107 68.3664C75.2886 69.2025 73.55 70.4089 72.0941 71.9169Z" fill="#EBEBEB"/>
<path d="M72.0942 71.9165C72.0942 71.9165 72.3315 71.6573 72.819 71.2C74.0543 70.0558 75.467 69.1196 77.0021 68.4278C77.7654 68.0789 78.556 67.7929 79.366 67.5728C81.3457 67.034 83.41 66.8773 85.4485 67.111C87.9237 67.3982 90.2973 68.2611 92.3791 69.6305C94.1408 70.795 95.6588 72.2914 96.8484 74.0362C97.2627 74.6531 97.6362 75.2965 97.9665 75.9622C99.3582 78.8118 99.8744 82.0099 99.4501 85.1527C99.3404 85.9718 99.1666 86.7811 98.9302 87.5731C98.6954 88.3796 98.3931 89.1649 98.0265 89.9207C96.5327 93.0423 94.0678 95.5959 91.001 97.1991C90.2584 97.5924 89.484 97.9223 88.686 98.1853C87.9027 98.4497 87.0999 98.652 86.2849 98.7904C83.1584 99.3252 79.9435 98.9217 77.0462 97.6308C76.3693 97.3237 75.7131 96.9729 75.0818 96.5807C73.2964 95.4534 71.7475 93.9894 70.5215 92.2703C69.0798 90.2378 68.1342 87.8959 67.7604 85.4322C67.4554 83.4033 67.5397 81.3348 68.0087 79.3374C68.2002 78.5202 68.4583 77.7202 68.7804 76.9452C69.4179 75.387 70.3039 73.9425 71.4039 72.6679C71.8436 72.1648 72.0942 71.9185 72.0942 71.9185C72.0942 71.9185 72.0379 71.9861 71.9237 72.1134C71.8096 72.2406 71.6311 72.4219 71.422 72.6826C70.7943 73.4265 70.2353 74.2257 69.7519 75.0704C69.4039 75.6812 69.0969 76.3144 68.833 76.9659C68.5155 77.7393 68.2615 78.5372 68.0735 79.3518C67.6135 81.3413 67.5355 83.3999 67.8438 85.4185C68.2211 87.867 69.1657 90.1933 70.6021 92.2117C71.8224 93.9189 73.3633 95.3721 75.139 96.4904C75.7666 96.8794 76.4189 97.2271 77.0917 97.5313C79.9697 98.8102 83.1618 99.2085 86.2658 98.676C87.0748 98.5382 87.8716 98.337 88.649 98.0744C89.441 97.813 90.2094 97.4853 90.9463 97.0948C93.9899 95.503 96.4363 92.9684 97.9194 89.8703C98.2838 89.1204 98.5841 88.341 98.8172 87.5405C99.0523 86.7546 99.2253 85.9514 99.3345 85.1384C99.7572 82.0182 99.2469 78.8426 97.868 76.0118C97.5406 75.3504 97.1703 74.7111 96.7595 74.098C95.58 72.363 94.0741 70.8741 92.3258 69.7143C90.2575 68.3493 87.8986 67.487 85.4377 67.1963C83.4095 66.959 81.3547 67.109 79.3825 67.6383C78.575 67.8548 77.7864 68.1366 77.0246 68.4809C76.3827 68.7675 75.7606 69.0965 75.1624 69.4658C74.3349 69.9786 73.5556 70.5654 72.8341 71.219C72.5814 71.4373 72.4085 71.625 72.2828 71.7403C72.1594 71.859 72.0942 71.9165 72.0942 71.9165Z" fill="#263238"/>
<path d="M68.5129 58.0411L62.3893 54.3509L62.4123 54.348L54.2025 62.8681L54.206 62.8304L58.1288 68.8068L58.1405 68.8247L58.1302 68.8433C56.8777 71.0977 55.9306 73.5087 55.314 76.0128L55.3082 76.0358L55.2852 76.0413L48.3399 77.748L48.3723 77.7057C48.4389 81.43 48.5101 85.3836 48.5843 89.5366L48.5469 89.4907L55.5501 90.9456L55.5793 90.9515L55.5876 90.9805C56.2933 93.4603 57.3261 95.8351 58.6588 98.0423L58.6749 98.069L58.6586 98.0958C57.5099 99.9904 56.2441 102.08 54.9542 104.209L54.9457 104.143L63.4594 112.36L63.3905 112.353L69.3689 108.433L69.3976 108.414L69.4277 108.431C71.6803 109.683 74.0893 110.631 76.5915 111.248L76.6255 111.256L76.6338 111.291C77.1674 113.466 77.7496 115.839 78.3374 118.237L78.2796 118.191L90.1105 117.983L90.0533 118.03C90.5127 115.819 91.0101 113.432 91.5105 111.028L91.5178 110.992L91.5527 110.983C94.0296 110.279 96.4018 109.248 98.6067 107.919L98.6132 107.915L98.6444 107.896L98.6752 107.915L104.788 111.621L104.714 111.631L112.932 103.119L112.925 103.193C111.606 101.179 110.3 99.1861 109.007 97.2128L108.987 97.1829L109.005 97.1519C110.259 94.9005 111.207 92.4916 111.823 89.9892L111.832 89.9552L111.866 89.9469L118.812 88.2449L118.769 88.3012C118.698 84.2624 118.629 80.3188 118.562 76.4702L118.606 76.5231L111.604 75.0666L111.572 75.0602L111.563 75.0289C110.859 72.5484 109.828 70.1729 108.496 67.9653L108.48 67.9384L108.496 67.9117L112.204 61.801L112.212 61.8626L103.702 53.6406L103.759 53.6461L97.7786 57.5628L97.7556 57.5772L97.7326 57.5644C95.4796 56.3088 93.0692 55.3594 90.5651 54.7413L90.5422 54.7355L90.5364 54.7125C89.9189 52.1869 89.3627 49.9128 88.8378 47.7658L88.8727 47.7929L77.0418 47.9916L77.0677 47.9703L75.6053 54.9708L75.603 54.982L75.5917 54.9852C73.7233 55.5136 71.9123 56.2273 70.1858 57.1157C69.6154 57.4079 69.2012 57.6471 68.9241 57.8031C68.6485 57.9639 68.5127 58.0411 68.5127 58.0411L68.9193 57.7943C69.195 57.6356 69.6074 57.3935 70.1768 57.0983C71.9012 56.2012 73.7118 55.4808 75.5812 54.9482L75.5676 54.9627L77.0174 47.9592L77.0218 47.9381H77.0432L88.8741 47.7222H88.9024L88.909 47.7497C89.4374 49.8963 89.9949 52.1697 90.6154 54.6946L90.5867 54.6659C93.0986 55.2832 95.5167 56.2331 97.7772 57.4904L97.7328 57.492L103.71 53.5703L103.741 53.5503L103.767 53.5756L112.282 61.7918L112.311 61.8194L112.29 61.8534C111.088 63.8378 109.853 65.8754 108.586 67.9662V67.9127C109.924 70.1276 110.96 72.5112 111.667 75.0004L111.627 74.9625C113.919 75.4391 116.253 75.9243 118.628 76.4181L118.671 76.4273V76.4711C118.739 80.3174 118.809 84.261 118.881 88.3021V88.348L118.837 88.3588L111.891 90.0627L111.934 90.0202C111.315 92.5319 110.364 94.9497 109.105 97.2095L109.103 97.1489L113.022 103.128L113.048 103.168L113.015 103.202L104.797 111.714L104.764 111.749L104.723 111.724L98.6111 108.018H98.6729L98.6665 108.022C96.4524 109.357 94.0704 110.391 91.5833 111.098L91.6253 111.052C91.125 113.456 90.6281 115.842 90.1677 118.054L90.1578 118.1H90.1105L78.2796 118.307H78.2336L78.2224 118.261C77.6349 115.863 77.0535 113.49 76.5203 111.314L76.5626 111.357C74.0509 110.736 71.6329 109.784 69.3721 108.526L69.4309 108.524L63.4514 112.442L63.4141 112.467L63.382 112.436L54.8715 104.216L54.8407 104.186L54.8637 104.149L58.571 98.0386V98.0919C57.2347 95.8764 56.1995 93.4927 55.4927 91.0037L55.5301 91.0386L48.528 89.5826L48.4913 89.575V89.5373C48.4201 85.3853 48.3521 81.4316 48.2882 77.7064V77.6722L48.3213 77.6641L55.2685 75.9641L55.2395 75.9929C55.8604 73.4829 56.8126 71.0667 58.0709 68.8079L58.0721 68.8442L54.1573 62.8623L54.1442 62.8421L54.161 62.8247L62.3868 54.3202L62.3976 54.3094L62.4105 54.3172L68.5129 58.0411Z" fill="#263238"/>
<path d="M111.606 34.8657H93.6119V61.3597H95.3494L96.932 64.461L98.9536 61.3597H111.606V34.8657Z" fill="#FAFAFA"/>
<path d="M111.606 34.8657C111.606 34.8657 111.608 34.9057 111.609 34.9873C111.61 35.0688 111.611 35.194 111.612 35.353C111.614 35.6797 111.616 36.1589 111.618 36.7824C111.622 38.0387 111.627 39.8729 111.633 42.1973C111.639 46.8607 111.649 53.4902 111.66 61.3597V61.4137H111.606L98.9549 61.4188L99.0043 61.3921L96.9827 64.4934L96.9264 64.5798L96.8805 64.4879L95.3218 61.4353L95.2988 61.3877L95.3521 61.4204H93.5547V61.3606C93.5595 51.3383 93.5639 42.1495 93.5673 34.8667V34.8193H93.6144L106.751 34.8444L110.353 34.8563L111.291 34.8616C111.502 34.8632 111.608 34.8667 111.608 34.8667C111.608 34.8667 111.496 34.8701 111.281 34.8717L110.334 34.877L106.722 34.8889L93.6144 34.914L93.6617 34.8667C93.6652 42.149 93.6696 51.3381 93.6742 61.3606L93.6144 61.3009H95.3886L95.4054 61.3338L95.4295 61.3811C95.9634 62.4268 96.4924 63.4636 96.9877 64.4339L96.8846 64.4284C97.5797 63.3636 98.2669 62.3108 98.9078 61.3285L98.9255 61.3018H98.9574L111.608 61.3069L111.554 61.3609C111.565 53.5058 111.574 46.8894 111.581 42.2336C111.587 39.9039 111.592 38.0656 111.596 36.8062C111.598 36.1784 111.6 35.6955 111.602 35.3663C111.603 35.2044 111.604 35.0808 111.605 34.9948C111.606 34.9089 111.606 34.8657 111.606 34.8657Z" fill="#263238"/>
<path d="M98.6457 39.4639H98.589C98.3182 39.4639 98.0988 39.6834 98.0988 39.9541V56.5174C98.0988 56.7882 98.3182 57.0077 98.589 57.0077H98.6457C98.9165 57.0077 99.136 56.7882 99.136 56.5174V39.9541C99.136 39.6834 98.9165 39.4639 98.6457 39.4639Z" fill="#E0E0E0"/>
<path d="M98.6467 57.0073C98.7686 56.9989 98.8839 56.9489 98.9734 56.8656C99.1877 56.7034 99.1011 56.3108 99.1137 55.8596C99.1091 54.9343 99.1027 53.6062 99.0947 51.9678C99.091 50.3227 99.0866 48.3668 99.082 46.1957C99.0809 45.1093 99.0797 43.9692 99.0784 42.7872C99.0784 42.1961 99.0784 41.5951 99.0784 40.9843C99.0784 40.679 99.0784 40.3716 99.0784 40.0622C99.0831 39.9898 99.0784 39.9172 99.0643 39.846C99.0475 39.7796 99.0147 39.7182 98.9688 39.6673C98.9216 39.6155 98.863 39.5755 98.7975 39.5505C98.7321 39.5254 98.6617 39.5161 98.592 39.5233C98.5231 39.5234 98.4552 39.5399 98.394 39.5716C98.3328 39.6032 98.28 39.649 98.2401 39.7052C98.2002 39.761 98.1745 39.8256 98.1654 39.8936C98.1569 39.957 98.162 40.0422 98.1606 40.1176C98.1606 40.4271 98.1606 40.7345 98.1606 41.0399C98.1606 41.6505 98.1606 42.2517 98.1606 42.8433C98.1594 44.0255 98.1583 45.1658 98.1571 46.2524C98.1523 48.4241 98.148 50.3799 98.1443 52.025C98.1362 53.6634 98.1298 54.9915 98.1252 55.9166C98.1234 56.1454 98.1218 56.3489 98.1204 56.527C98.1211 56.5995 98.1385 56.6709 98.171 56.7357C98.2036 56.8006 98.2506 56.8571 98.3083 56.901C98.38 56.9562 98.4657 56.9903 98.5557 56.9993C98.5869 57.0003 98.6181 57.003 98.649 57.0073C98.6178 57.0118 98.5863 57.0132 98.5548 57.0115C98.4607 57.0072 98.3699 56.9753 98.2938 56.9196C98.2311 56.8746 98.1796 56.8158 98.1434 56.7476C98.1071 56.6795 98.0871 56.6039 98.0848 56.5268C98.0829 56.3488 98.081 56.1451 98.0788 55.9157C98.0742 54.9906 98.0678 53.6625 98.0597 52.0241C98.0561 50.379 98.0517 48.4231 98.0469 46.2515C98.0457 45.1649 98.0446 44.0245 98.0434 42.8424C98.0434 42.2514 98.0434 41.6502 98.0434 41.039C98.0434 40.7336 98.0434 40.4262 98.0434 40.1167C98.0411 40.0364 98.043 39.9561 98.0492 39.8761C98.0611 39.7893 98.0939 39.7066 98.1447 39.6351C98.1957 39.5633 98.2631 39.5047 98.3413 39.4643C98.4195 39.4238 98.5063 39.4027 98.5943 39.4027C98.6808 39.3958 98.7678 39.4088 98.8485 39.4406C98.9293 39.4725 99.0017 39.5224 99.0602 39.5864C99.119 39.6519 99.1609 39.7308 99.1822 39.8162C99.199 39.897 99.205 39.9798 99.2001 40.0622C99.2001 40.3717 99.2001 40.6791 99.2001 40.9843C99.2001 41.5946 99.2001 42.1956 99.2001 42.7872C99.1987 43.9692 99.1976 45.1093 99.1964 46.1957C99.1916 48.3668 99.1872 50.3227 99.1838 51.9678C99.1758 53.6062 99.1691 54.9343 99.1647 55.8596L99.1592 56.4705C99.1644 56.5473 99.1523 56.6244 99.1237 56.696C99.0952 56.7675 99.0509 56.8318 98.9943 56.884C98.9487 56.9285 98.894 56.9626 98.834 56.9839C98.774 57.0051 98.7101 57.0132 98.6467 57.0073Z" fill="#263238"/>
<path d="M102.637 39.4639H102.58C102.31 39.4639 102.09 39.6834 102.09 39.9541V56.5174C102.09 56.7882 102.31 57.0077 102.58 57.0077H102.637C102.908 57.0077 103.128 56.7882 103.128 56.5174V39.9541C103.128 39.6834 102.908 39.4639 102.637 39.4639Z" fill="#E0E0E0"/>
<path d="M102.637 57.0073C102.759 56.9989 102.874 56.9489 102.964 56.8656C103.178 56.7034 103.091 56.3108 103.104 55.8596C103.099 54.9343 103.093 53.6062 103.085 51.9678C103.081 50.3227 103.077 48.3668 103.072 46.1957C103.072 45.1093 103.07 43.9692 103.069 42.7872C103.069 42.1961 103.069 41.5951 103.069 40.9843C103.069 40.679 103.069 40.3716 103.069 40.0622C103.073 39.9898 103.069 39.9172 103.054 39.846C103.038 39.7795 103.005 39.7181 102.959 39.6673C102.912 39.6155 102.853 39.5755 102.788 39.5504C102.722 39.5254 102.652 39.5161 102.582 39.5233C102.513 39.5234 102.446 39.5399 102.384 39.5716C102.323 39.6032 102.27 39.649 102.23 39.7052C102.191 39.761 102.165 39.8256 102.156 39.8936C102.147 39.957 102.152 40.0422 102.151 40.1176C102.151 40.4271 102.151 40.7345 102.151 41.0399C102.151 41.6505 102.151 42.2517 102.151 42.8433C102.15 44.0255 102.149 45.1658 102.148 46.2524C102.143 48.4241 102.138 50.3799 102.135 52.025C102.127 53.6634 102.12 54.9915 102.116 55.9166L102.111 56.527C102.111 56.5995 102.129 56.6709 102.161 56.7357C102.194 56.8006 102.241 56.8571 102.299 56.901C102.37 56.9562 102.456 56.9903 102.546 56.9993C102.577 57.0003 102.608 57.003 102.639 57.0073C102.608 57.0118 102.577 57.0132 102.545 57.0115C102.451 57.0072 102.36 56.9753 102.284 56.9196C102.221 56.8746 102.17 56.8158 102.134 56.7476C102.097 56.6795 102.077 56.6039 102.075 56.5268C102.073 56.3488 102.071 56.1451 102.069 55.9157C102.065 54.9906 102.058 53.6625 102.05 52.0241C102.046 50.379 102.042 48.4231 102.037 46.2515C102.036 45.1649 102.035 44.0245 102.034 42.8424C102.034 42.2514 102.034 41.6502 102.034 41.039C102.034 40.7336 102.034 40.4262 102.034 40.1167C102.031 40.0364 102.033 39.9561 102.04 39.8761C102.051 39.7893 102.084 39.7066 102.135 39.6351C102.186 39.5633 102.253 39.5047 102.332 39.4643C102.41 39.4238 102.497 39.4027 102.585 39.4027C102.671 39.3958 102.758 39.4088 102.839 39.4406C102.92 39.4725 102.992 39.5224 103.051 39.5864C103.109 39.6519 103.151 39.7308 103.173 39.8162C103.189 39.897 103.195 39.9798 103.19 40.0622C103.19 40.3717 103.19 40.6791 103.19 40.9843C103.19 41.5946 103.19 42.1956 103.19 42.7872C103.189 43.9692 103.188 45.1093 103.187 46.1957C103.182 48.3668 103.178 50.3227 103.174 51.9678C103.166 53.6062 103.16 54.9343 103.155 55.8596C103.153 56.0894 103.151 56.2924 103.15 56.4705C103.155 56.5473 103.143 56.6244 103.114 56.696C103.086 56.7675 103.042 56.8318 102.985 56.884C102.939 56.9285 102.885 56.9626 102.825 56.9839C102.764 57.0052 102.701 57.0132 102.637 57.0073Z" fill="#263238"/>
<path d="M106.629 39.4639H106.572C106.301 39.4639 106.082 39.6834 106.082 39.9541V56.5174C106.082 56.7882 106.301 57.0077 106.572 57.0077H106.629C106.9 57.0077 107.119 56.7882 107.119 56.5174V39.9541C107.119 39.6834 106.9 39.4639 106.629 39.4639Z" fill="#E0E0E0"/>
<path d="M106.629 57.0073C106.751 56.9989 106.866 56.9489 106.955 56.8656C107.169 56.7034 107.083 56.3108 107.096 55.8596C107.091 54.9343 107.085 53.6062 107.077 51.9678C107.073 50.3227 107.069 48.3668 107.064 46.1957C107.064 45.1093 107.061 43.9692 107.06 42.7872C107.06 42.1961 107.06 41.5951 107.06 40.9843C107.06 40.679 107.06 40.3716 107.06 40.0622C107.065 39.9898 107.06 39.9172 107.046 39.846C107.029 39.7795 106.997 39.7181 106.95 39.6673C106.903 39.6155 106.845 39.5755 106.779 39.5504C106.714 39.5254 106.644 39.5161 106.574 39.5233C106.505 39.5234 106.437 39.5399 106.376 39.5716C106.315 39.6032 106.262 39.649 106.222 39.7052C106.182 39.761 106.156 39.8256 106.147 39.8936C106.139 39.957 106.144 40.0422 106.143 40.1176C106.143 40.4271 106.143 40.7345 106.143 41.0399C106.143 41.6505 106.143 42.2517 106.143 42.8433C106.141 44.0255 106.14 45.1658 106.139 46.2524C106.134 48.4241 106.13 50.3799 106.126 52.025C106.118 53.6634 106.112 54.9915 106.107 55.9166C106.105 56.1454 106.104 56.3489 106.102 56.527C106.103 56.5995 106.12 56.6709 106.153 56.7357C106.186 56.8005 106.233 56.8571 106.29 56.901C106.362 56.9562 106.448 56.9903 106.538 56.9993C106.569 57.0003 106.6 57.003 106.631 57.0073C106.6 57.0118 106.568 57.0132 106.537 57.0115C106.443 57.0072 106.352 56.9753 106.276 56.9196C106.213 56.8746 106.162 56.8158 106.125 56.7476C106.089 56.6795 106.069 56.6039 106.067 56.5268C106.065 56.3488 106.063 56.1451 106.061 55.9157C106.056 54.9906 106.05 53.6625 106.042 52.0241C106.038 50.379 106.034 48.4231 106.029 46.2515C106.028 45.1649 106.027 44.0245 106.025 42.8424C106.025 42.2514 106.025 41.6502 106.025 41.039C106.025 40.7336 106.025 40.4262 106.025 40.1167C106.023 40.0364 106.025 39.9561 106.031 39.8761C106.043 39.7892 106.076 39.7065 106.127 39.6351C106.178 39.5633 106.245 39.5047 106.323 39.4643C106.401 39.4238 106.488 39.4027 106.576 39.4027C106.663 39.3958 106.75 39.4088 106.83 39.4406C106.911 39.4725 106.984 39.5224 107.042 39.5864C107.101 39.6519 107.143 39.7308 107.164 39.8162C107.181 39.897 107.187 39.9798 107.182 40.0622C107.182 40.3717 107.182 40.6791 107.182 40.9843C107.182 41.5946 107.182 42.1956 107.182 42.7872C107.181 43.9692 107.18 45.1093 107.179 46.1957C107.174 48.3668 107.169 50.3227 107.166 51.9678C107.158 53.6062 107.151 54.9343 107.147 55.8596C107.145 56.0894 107.143 56.2924 107.141 56.4705C107.147 56.5473 107.134 56.6244 107.106 56.696C107.077 56.7675 107.033 56.8318 106.976 56.884C106.931 56.9285 106.876 56.9626 106.816 56.9839C106.756 57.0052 106.692 57.0132 106.629 57.0073Z" fill="#263238"/>
<path d="M98.6064 45.6685H98.3056C97.779 45.6685 97.3521 46.0954 97.3521 46.6221V46.7328C97.3521 47.2594 97.779 47.6864 98.3056 47.6864H98.6064C99.133 47.6864 99.56 47.2594 99.56 46.7328V46.6221C99.56 46.0954 99.133 45.6685 98.6064 45.6685Z" fill="#F68B22"/>
<path d="M102.858 49.4722H102.558C102.031 49.4722 101.604 49.8991 101.604 50.4258V50.5363C101.604 51.0629 102.031 51.4899 102.558 51.4899H102.858C103.385 51.4899 103.812 51.0629 103.812 50.5363V50.4258C103.812 49.8991 103.385 49.4722 102.858 49.4722Z" fill="#F68B22"/>
<path d="M106.705 42.3027H106.405C105.878 42.3027 105.451 42.7297 105.451 43.2563V43.3668C105.451 43.8935 105.878 44.3204 106.405 44.3204H106.705C107.232 44.3204 107.659 43.8935 107.659 43.3668V43.2563C107.659 42.7297 107.232 42.3027 106.705 42.3027Z" fill="#F68B22"/>
<path d="M70.8958 42.5823C70.827 40.7091 70.1346 38.9125 68.9285 37.4776C67.7224 36.0427 66.0716 35.0516 64.2382 34.6616C62.4047 34.2717 60.4935 34.5051 58.8079 35.3249C57.1222 36.1448 55.7585 37.504 54.9333 39.1871C54.108 40.8701 53.8684 42.7805 54.2525 44.6152C54.6365 46.4499 55.6223 48.1038 57.0533 49.3145C58.4843 50.5253 60.2786 51.2235 62.1516 51.2983C64.0246 51.3732 65.8689 50.8205 67.392 49.7279V49.7305L70.4426 50.8561L69.392 47.7013C70.438 46.2045 70.9661 44.4069 70.8958 42.5823Z" fill="#FAFAFA"/>
<path d="M70.8959 42.582C70.8959 42.582 70.8996 42.6132 70.9024 42.6739C70.9044 42.7394 70.9072 42.8299 70.9111 42.9475C70.9115 43.3024 70.89 43.657 70.8468 44.0093C70.6764 45.3429 70.1871 46.6159 69.4204 47.7203L69.4248 47.6893C69.7377 48.6201 70.094 49.6808 70.484 50.8416L70.5128 50.9268L70.4282 50.8958L67.3758 49.7754L67.3512 49.7665L67.345 49.741V49.7387L67.4211 49.7667C66.4326 50.4791 65.3014 50.9689 64.1054 51.2023C63.7892 51.2627 63.47 51.3061 63.1491 51.3323C62.8211 51.353 62.4922 51.3572 62.1638 51.3449C62.0808 51.3429 61.9972 51.3449 61.9143 51.3397L61.665 51.3112L61.1631 51.2537C60.9954 51.2321 60.8309 51.1848 60.6634 51.1527C60.4949 51.1212 60.3282 51.0811 60.1638 51.0325C59.83 50.9364 59.5027 50.8192 59.1838 50.6815C59.023 50.6103 58.8608 50.5437 58.7013 50.4676L58.238 50.2096L58.0053 50.0782L57.7845 49.9259L57.3413 49.6185L56.926 49.2687L56.7181 49.092L56.5265 48.8963C56.3992 48.7651 56.2685 48.636 56.1431 48.5018L55.7951 48.0711C55.7383 47.998 55.6758 47.9291 55.6234 47.8524L55.4698 47.6197C55.3696 47.4628 55.2596 47.3112 55.1665 47.149C54.9799 46.8219 54.8146 46.4831 54.6717 46.1347C54.6046 45.9578 54.5182 45.7874 54.4665 45.6043C54.4149 45.4212 54.3581 45.2393 54.3039 45.0559C53.8122 43.1884 53.9735 41.2089 54.7611 39.4455C55.1326 38.6132 55.6346 37.8454 56.2481 37.1712C56.8445 36.5337 57.5306 35.9864 58.2846 35.5464C59.0074 35.1373 59.7851 34.8339 60.5941 34.6456L61.184 34.5337C61.3785 34.5021 61.5745 34.4807 61.7712 34.4696C62.1544 34.4354 62.5396 34.4277 62.924 34.4467C64.2073 34.5122 65.4585 34.8709 66.5815 35.4954C67.7045 36.1199 68.6695 36.9935 69.4023 38.049C69.5401 38.2643 69.6837 38.4644 69.7994 38.6711L70.1165 39.2765C70.2084 39.4749 70.2791 39.6718 70.3556 39.8556C70.3912 39.9475 70.4328 40.0366 70.4606 40.1271C70.4884 40.2176 70.513 40.3066 70.5383 40.3927C70.5883 40.5648 70.6356 40.7273 70.68 40.88C70.7091 41.0362 70.7364 41.1822 70.7618 41.318C70.7872 41.4539 70.8102 41.5791 70.8307 41.6936C70.8456 41.8085 70.8498 41.9149 70.8583 42.0086C70.8718 42.1938 70.8824 42.336 70.8897 42.4366C70.8962 42.5328 70.8964 42.5822 70.8964 42.5822C70.8964 42.5822 70.8879 42.5331 70.8776 42.4373C70.8675 42.3371 70.853 42.1954 70.8344 42.0111C70.8238 41.9179 70.8178 41.8126 70.8011 41.6978C70.7784 41.5838 70.7537 41.4595 70.7271 41.3247L70.6403 40.8898C70.5943 40.7382 70.5455 40.5774 70.4939 40.4074C70.4682 40.3219 70.4417 40.2342 70.4144 40.1441C70.3859 40.0545 70.3437 39.9672 70.3074 39.8751C70.2297 39.6932 70.1571 39.4981 70.065 39.3008L69.7473 38.7019C69.6308 38.4977 69.4856 38.3001 69.3487 38.0874C68.6176 37.0463 67.6584 36.186 66.5442 35.5722C65.4299 34.9583 64.1902 34.6072 62.9196 34.5455C62.5398 34.5281 62.1592 34.5371 61.7806 34.5723C61.5862 34.5836 61.3926 34.6052 61.2005 34.6371L60.6182 34.7488C59.8197 34.9365 59.0523 35.2375 58.3391 35.6426C57.5959 36.0783 56.9199 36.6194 56.3322 37.2491C55.728 37.9147 55.2336 38.6723 54.8676 39.4933C54.0928 41.2326 53.9346 43.1842 54.4192 45.0256C54.473 45.2062 54.5266 45.3863 54.58 45.5659C54.6308 45.7465 54.716 45.9147 54.782 46.089C54.9228 46.4325 55.0857 46.7664 55.2697 47.0888C55.3616 47.2496 55.4698 47.3985 55.5683 47.5531L55.7197 47.7828C55.7712 47.8586 55.8327 47.9264 55.8888 47.9985L56.2315 48.4235L56.6094 48.8127L56.7983 49.0059L57.0032 49.1802L57.4123 49.5248L57.8488 49.8281L58.0664 49.9788L58.2961 50.1083L58.7535 50.364C58.9104 50.4394 59.0712 50.5048 59.2288 50.5754C59.5432 50.7116 59.8659 50.8278 60.195 50.9232C60.3571 50.9712 60.5216 51.0109 60.6878 51.0422C60.853 51.075 61.0151 51.1214 61.1805 51.1428L61.6758 51.2002L61.9216 51.2287C62.0037 51.2342 62.0859 51.2321 62.1679 51.2342C62.4955 51.2374 62.8203 51.2528 63.1406 51.2239C63.4575 51.1984 63.7728 51.1561 64.0852 51.0973C65.267 50.8693 66.3855 50.3883 67.3639 49.6875L67.4232 49.645L67.4399 49.7155V49.718L67.4094 49.6836L70.4579 50.8147L70.402 50.8689L69.3579 47.7113L69.3524 47.6946L69.3625 47.6801C70.1293 46.5869 70.6254 45.327 70.8098 44.0045C70.8567 43.654 70.8842 43.3012 70.892 42.9477C70.892 42.8303 70.892 42.741 70.892 42.6746C70.8939 42.6135 70.8959 42.582 70.8959 42.582Z" fill="#263238"/>
<path d="M59.1523 38.1172L60.1088 38.9047L60.2804 39.5213L63.1637 42.6304L62.846 42.9366L60.0388 39.8307L59.4256 39.5608L58.6917 38.5544L59.1523 38.1172Z" fill="#E0E0E0"/>
<path d="M59.1522 38.1172C59.1166 38.1614 59.0783 38.2033 59.0374 38.2426L58.71 38.573L58.713 38.5397L59.4601 39.5364L59.4433 39.5229L60.0583 39.7878L60.0675 39.7917L60.0744 39.7992C60.8292 40.6295 61.7888 41.6842 62.8311 42.8316L62.8904 42.8973L62.8047 42.8944L63.1224 42.5881L63.1201 42.6715L60.2499 39.5495L60.2428 39.542L60.2402 39.5323C60.1798 39.3053 60.1254 39.1006 60.0753 38.9139L60.0865 38.9313L59.4006 38.3423L59.2168 38.1797C59.1936 38.1609 59.1721 38.1399 59.1527 38.1172C59.241 38.1749 59.3258 38.2379 59.4065 38.3058L60.1311 38.8778L60.1394 38.8842L60.1426 38.8953C60.1963 39.0811 60.2554 39.2844 60.3209 39.51L60.3112 39.493L63.2078 42.5897L63.2478 42.6325L63.2055 42.6734L62.8878 42.9798L62.8433 43.0228L62.8019 42.9768L62.7426 42.9111L60.0043 39.8624L60.0201 39.8739L59.4093 39.5982L59.3987 39.5934L59.3923 39.5847C59.1008 39.1737 58.8568 38.8296 58.6716 38.5688L58.6583 38.55L58.6746 38.5355L59.0312 38.2162C59.0685 38.1796 59.109 38.1465 59.1522 38.1172Z" fill="#263238"/>
<path d="M63.2956 41.7834L63.5943 42.0979C63.5736 42.144 63.5664 42.1949 63.5735 42.2449C63.5806 42.2949 63.6018 42.3418 63.6345 42.3803C63.6754 42.4142 63.7232 42.4388 63.7746 42.4524C63.8259 42.4661 63.8796 42.4684 63.932 42.4593L66.8298 45.6507C66.8989 45.7267 66.9522 45.8157 66.9866 45.9125C67.0211 46.0094 67.0359 46.1121 67.0302 46.2147C67.0246 46.3173 66.9986 46.4178 66.9538 46.5103C66.9089 46.6027 66.8462 46.6854 66.7691 46.7534L66.5966 46.9059C66.4444 47.0404 66.2455 47.1098 66.0427 47.0993C65.8398 47.0887 65.6492 46.999 65.5118 46.8494L62.6028 43.6794C62.6186 43.6256 62.6176 43.5683 62.5999 43.5152C62.5822 43.462 62.5487 43.4156 62.5038 43.3821C62.4672 43.3519 62.4239 43.3309 62.3776 43.3207C62.3312 43.3106 62.2831 43.3116 62.2373 43.3238L61.9648 43.0129C61.9153 42.9564 61.8897 42.8828 61.8936 42.8077C61.8974 42.7327 61.9304 42.662 61.9855 42.6109L62.8902 41.7706C62.9459 41.7191 63.0197 41.6916 63.0955 41.694C63.1714 41.6964 63.2433 41.7285 63.2956 41.7834Z" fill="#F68B22"/>
<g opacity="0.3">
<path opacity="0.3" d="M66.5212 46.0293L63.8134 43.0794C63.8004 43.0653 63.7902 43.0487 63.7836 43.0307C63.777 43.0126 63.774 42.9934 63.7748 42.9742C63.7756 42.955 63.7802 42.9361 63.7883 42.9187C63.7965 42.9013 63.808 42.8856 63.8222 42.8727C63.8363 42.8596 63.8529 42.8495 63.8709 42.8429C63.889 42.8363 63.9081 42.8333 63.9273 42.8341C63.9466 42.8349 63.9654 42.8395 63.9828 42.8476C64.0003 42.8557 64.0159 42.8672 64.0289 42.8814L66.7367 45.8313C66.7498 45.8454 66.7599 45.862 66.7665 45.8801C66.7732 45.8981 66.7762 45.9173 66.7754 45.9365C66.7745 45.9557 66.7699 45.9746 66.7618 45.992C66.7537 46.0095 66.7422 46.0251 66.728 46.0381C66.6994 46.0643 66.6616 46.0782 66.6228 46.0765C66.584 46.0749 66.5475 46.0579 66.5212 46.0293Z" fill="black"/>
</g>
<g opacity="0.3">
<path opacity="0.3" d="M66.1321 46.3864L63.4243 43.4364C63.4112 43.4223 63.4011 43.4058 63.3944 43.3877C63.3878 43.3697 63.3848 43.3505 63.3856 43.3313C63.3864 43.312 63.391 43.2932 63.3992 43.2757C63.4073 43.2583 63.4188 43.2427 63.433 43.2297C63.4471 43.2166 63.4637 43.2065 63.4817 43.1999C63.4998 43.1932 63.519 43.1902 63.5382 43.191C63.5574 43.1919 63.5763 43.1965 63.5937 43.2046C63.6111 43.2127 63.6268 43.2242 63.6398 43.2384L66.3473 46.1888C66.3604 46.2029 66.3705 46.2195 66.3771 46.2375C66.3838 46.2556 66.3868 46.2748 66.386 46.294C66.3852 46.3132 66.3805 46.3321 66.3724 46.3495C66.3643 46.3669 66.3528 46.3826 66.3386 46.3956C66.3244 46.4085 66.3079 46.4186 66.2898 46.4251C66.2718 46.4317 66.2526 46.4346 66.2334 46.4338C66.2142 46.4329 66.1954 46.4283 66.178 46.4202C66.1606 46.412 66.145 46.4005 66.1321 46.3864Z" fill="black"/>
</g>
<g opacity="0.3">
<path opacity="0.3" d="M65.7149 46.7691L63.0068 43.8192C62.9938 43.805 62.9837 43.7884 62.9771 43.7704C62.9705 43.7523 62.9676 43.7331 62.9684 43.7139C62.9692 43.6947 62.9738 43.6759 62.982 43.6584C62.9901 43.641 63.0016 43.6254 63.0158 43.6124C63.0299 43.5994 63.0465 43.5893 63.0645 43.5827C63.0826 43.576 63.1018 43.573 63.121 43.5739C63.1402 43.5747 63.159 43.5793 63.1765 43.5874C63.1939 43.5955 63.2096 43.607 63.2225 43.6211L65.9306 46.5711C65.9568 46.5997 65.9706 46.6375 65.9689 46.6763C65.9672 46.7151 65.9502 46.7516 65.9216 46.7778C65.9075 46.7908 65.8909 46.801 65.8729 46.8076C65.8548 46.8142 65.8356 46.8172 65.8164 46.8164C65.7972 46.8156 65.7784 46.811 65.7609 46.8028C65.7435 46.7947 65.7278 46.7833 65.7149 46.7691Z" fill="black"/>
</g>
<path d="M63.5943 42.0982C63.5982 42.1023 63.297 42.3796 62.9218 42.7171C62.5467 43.0545 62.2395 43.3252 62.2359 43.321C62.2322 43.3169 62.5331 43.0398 62.9083 42.7021C63.2834 42.3644 63.5906 42.0941 63.5943 42.0982Z" fill="#263238"/>
<path d="M63.9352 42.4624C63.9389 42.4666 63.6432 42.742 63.2748 43.0777C62.9063 43.4133 62.6044 43.6821 62.6007 43.6779C62.5971 43.6738 62.8925 43.3984 63.2612 43.0627C63.6299 42.7271 63.9304 42.4583 63.9352 42.4624Z" fill="#263238"/>
<path d="M62.751 43.5029C62.738 43.4826 62.7264 43.4614 62.7163 43.4395C62.6879 43.3897 62.6514 43.3449 62.6083 43.307C62.5649 43.2694 62.5156 43.2392 62.4624 43.2176C62.4394 43.2106 62.4168 43.2021 62.3949 43.1921C62.4196 43.1909 62.4443 43.195 62.4673 43.2043C62.5242 43.2227 62.5768 43.2526 62.6218 43.2921C62.6668 43.3316 62.7033 43.3799 62.7289 43.434C62.741 43.4552 62.7485 43.4787 62.751 43.5029Z" fill="#263238"/>
<path d="M62.8678 43.3659C62.8628 43.3694 62.8065 43.291 62.7245 43.2051C62.6425 43.1192 62.5671 43.059 62.5708 43.0542C62.6946 43.1312 62.7969 43.2384 62.8678 43.3657V43.3659Z" fill="#263238"/>
<path d="M62.9933 43.2696C62.885 43.1676 62.7861 43.0559 62.6979 42.936C62.7544 42.9849 62.8064 43.0387 62.8532 43.0968C62.905 43.1501 62.9519 43.2079 62.9933 43.2696Z" fill="#263238"/>
<path d="M63.1456 43.1205C63.0316 43.0293 62.931 42.9225 62.8469 42.8032C62.9012 42.8515 62.9522 42.9034 62.9995 42.9585C63.0518 43.0091 63.1006 43.0632 63.1456 43.1205Z" fill="#263238"/>
<path d="M63.266 42.9854C63.2039 42.9553 63.1486 42.913 63.1034 42.861C63.0582 42.8089 63.024 42.7483 63.0029 42.6826C63.0382 42.7396 63.0766 42.7947 63.1178 42.8476C63.1648 42.896 63.2143 42.942 63.266 42.9854Z" fill="#263238"/>
<path d="M63.468 42.8546C63.3973 42.824 63.3338 42.7791 63.2814 42.7225C63.2291 42.666 63.1891 42.5992 63.1641 42.5264C63.2377 42.6585 63.3419 42.7711 63.468 42.8546Z" fill="#263238"/>
<path d="M63.5362 42.6692C63.4787 42.6465 63.4283 42.6091 63.3898 42.5607C63.3514 42.5123 63.3264 42.4547 63.3173 42.3936C63.3604 42.5056 63.4368 42.6018 63.5362 42.6692Z" fill="#263238"/>
<path d="M63.8036 42.5905C63.7787 42.5953 63.7531 42.5943 63.7287 42.5875C63.6686 42.5752 63.6125 42.5483 63.5653 42.5091C63.5183 42.4698 63.4819 42.4193 63.4594 42.3623C63.4482 42.3396 63.4425 42.3145 63.4429 42.2891C63.4461 42.2891 63.453 42.3159 63.4725 42.3566C63.4975 42.4094 63.5336 42.4561 63.5784 42.4935C63.6232 42.5309 63.6755 42.5582 63.7319 42.5735C63.7744 42.5854 63.8038 42.5872 63.8036 42.5905Z" fill="#263238"/>
<path d="M67.5586 38.9551L67.4738 38.8611L66.3829 39.9928L65.3872 38.9967L66.4371 37.9082L66.3523 37.8143C66.028 37.772 65.6982 37.8117 65.3932 37.9298C65.0882 38.0479 64.8176 38.2407 64.6064 38.4904C63.9744 39.2055 64.3006 40.1465 64.3006 40.1465L63.1345 41.324L64.1453 42.271L65.3169 41.1136C65.3169 41.1136 66.4095 41.4497 67.1116 40.6771C67.7486 39.9762 67.5586 38.9551 67.5586 38.9551Z" fill="#263238"/>
<path d="M62.3331 43.9552L61.3243 43.0107L60.0172 44.305C60.0172 44.305 58.8162 44.0663 58.2223 44.7415C57.8357 45.1891 57.6393 45.77 57.6749 46.3604C57.6841 46.4378 57.7741 46.4642 57.7741 46.4642L58.9501 45.4266L59.9455 46.4222L58.7985 47.4169L58.8959 47.5106C59.2249 47.596 59.5714 47.5866 59.8953 47.4836C60.2192 47.3806 60.5075 47.1882 60.7268 46.9285C61.3588 46.2131 61.0326 45.2724 61.0326 45.2724L62.3331 43.9552Z" fill="#263238"/>
<path d="M67.4729 38.8614L66.2972 39.8991L65.3016 38.9035L66.3514 37.815C66.0223 37.7297 65.6758 37.7392 65.3519 37.8422C65.0279 37.9452 64.7396 38.1377 64.5203 38.3974C63.8892 39.1118 64.2154 40.0537 64.2154 40.0537L63.0493 41.2313L64.0601 42.178L65.2317 41.0206C65.2317 41.0206 66.3245 41.3567 67.0266 40.5841C67.6638 39.8826 67.4729 38.8614 67.4729 38.8614Z" fill="#455A64"/>
<path d="M62.2352 43.8612L61.2262 42.917L59.92 44.2117C59.92 44.2117 58.719 43.973 58.1251 44.6482C57.9292 44.8853 57.7875 45.1623 57.71 45.46C57.6326 45.7577 57.6213 46.0687 57.6769 46.3712L58.8527 45.3335L59.8483 46.3291L58.7985 47.4178C59.1276 47.5031 59.474 47.4937 59.798 47.3906C60.122 47.2876 60.4103 47.0951 60.6296 46.8354C61.2616 46.1203 60.9354 45.1793 60.9354 45.1793L62.2352 43.8612Z" fill="#455A64"/>
</svg>
