<svg width="312" height="278" viewBox="0 0 312 278" fill="none" xmlns="http://www.w3.org/2000/svg">
<path fill-rule="evenodd" clip-rule="evenodd" d="M79.7721 273.469C73.2208 272.053 -5.48908 259.298 0.304544 165.229C6.09818 71.1591 13.3715 42.8699 43.9724 32.5179C74.573 22.1658 148.96 -26.8071 207.332 19.7607C243.408 48.5392 300.884 107.961 305.248 122.684C309.612 137.408 318.729 165.659 303.695 182.449C264.34 226.401 274.607 281.605 209.392 277.814C144.177 274.024 110.922 280.204 79.771 273.469" fill="#F9F9F9"/>
<path d="M77.741 113.706H50.0004C49.5916 113.712 49.1857 113.636 48.8064 113.483C48.427 113.331 48.0817 113.105 47.7907 112.817C47.4995 112.53 47.2684 112.189 47.1107 111.812C46.9529 111.435 46.8717 111.03 46.8717 110.621C46.8717 110.213 46.9529 109.809 47.1107 109.432C47.2684 109.054 47.4995 108.713 47.7907 108.426C48.0817 108.139 48.427 107.913 48.8064 107.76C49.1857 107.607 49.5916 107.532 50.0004 107.537H53.05C53.4589 107.543 53.8648 107.467 54.2441 107.315C54.6234 107.162 54.9687 106.936 55.2598 106.649C55.5509 106.362 55.782 106.02 55.9398 105.643C56.0975 105.266 56.1788 104.861 56.1788 104.453C56.1788 104.044 56.0975 103.64 55.9398 103.263C55.782 102.886 55.5509 102.544 55.2598 102.257C54.9687 101.97 54.6234 101.744 54.2441 101.591C53.8648 101.439 53.4589 101.363 53.05 101.368H34.3997C33.9908 101.363 33.5849 101.439 33.2056 101.591C32.8262 101.744 32.481 101.97 32.1899 102.257C31.8988 102.544 31.6676 102.886 31.5099 103.263C31.3522 103.64 31.2709 104.044 31.2709 104.453C31.2709 104.861 31.3522 105.266 31.5099 105.643C31.6676 106.02 31.8988 106.362 32.1899 106.649C32.481 106.936 32.8262 107.162 33.2056 107.315C33.5849 107.467 33.9908 107.543 34.3997 107.537H37.2985C37.7073 107.532 38.1132 107.607 38.4925 107.76C38.8719 107.913 39.2172 108.139 39.5082 108.426C39.7994 108.713 40.0305 109.054 40.1882 109.432C40.346 109.809 40.4272 110.213 40.4272 110.621C40.4272 111.03 40.346 111.435 40.1882 111.812C40.0305 112.189 39.7994 112.53 39.5082 112.817C39.2172 113.105 38.8719 113.331 38.4925 113.483C38.1132 113.636 37.7073 113.712 37.2985 113.706H28.7409C27.9221 113.706 27.1369 114.031 26.558 114.61C25.9789 115.188 25.6537 115.973 25.6537 116.791C25.6537 117.609 25.9789 118.394 26.558 118.972C27.1369 119.551 27.9221 119.876 28.7409 119.876H48.2425C49.0538 119.887 49.8283 120.217 50.3982 120.794C50.9681 121.371 51.2876 122.15 51.2876 122.96C51.2876 123.771 50.9681 124.55 50.3982 125.127C49.8283 125.704 49.0538 126.034 48.2425 126.045H44.7254C44.3165 126.039 43.9106 126.115 43.5313 126.267C43.1519 126.42 42.8067 126.646 42.5156 126.933C42.2245 127.22 41.9934 127.562 41.8356 127.939C41.6779 128.316 41.5966 128.72 41.5966 129.129C41.5966 129.538 41.6779 129.942 41.8356 130.319C41.9934 130.696 42.2245 131.038 42.5156 131.325C42.8067 131.612 43.1519 131.838 43.5313 131.991C43.9106 132.143 44.3165 132.219 44.7254 132.213H66.7596C67.1687 132.219 67.5745 132.143 67.9536 131.991C68.3328 131.838 68.6785 131.612 68.9692 131.325C69.2605 131.038 69.4917 130.696 69.6493 130.319C69.8074 129.942 69.8884 129.538 69.8884 129.129C69.8884 128.72 69.8074 128.316 69.6493 127.939C69.4917 127.562 69.2605 127.22 68.9692 126.933C68.6785 126.646 68.3328 126.42 67.9536 126.267C67.5745 126.115 67.1687 126.039 66.7596 126.045H64.8746C64.466 126.05 64.0597 125.974 63.6805 125.822C63.3014 125.669 62.9563 125.443 62.665 125.156C62.3737 124.869 62.1425 124.527 61.9849 124.15C61.8274 123.773 61.7458 123.369 61.7458 122.96C61.7458 122.552 61.8274 122.147 61.9849 121.77C62.1425 121.393 62.3737 121.052 62.665 120.764C62.9563 120.477 63.3014 120.251 63.6805 120.098C64.0597 119.946 64.466 119.87 64.8746 119.876H77.7393C78.5582 119.876 79.3431 119.551 79.9223 118.972C80.5015 118.394 80.8268 117.609 80.8268 116.791C80.8268 115.973 80.5015 115.188 79.9223 114.61C79.3431 114.031 78.5582 113.706 77.7393 113.706H77.741Z" stroke="#E8E8E8" stroke-width="3" stroke-linecap="round" stroke-linejoin="round"/>
<path d="M231.061 193.615H238.599C239.417 193.615 240.203 193.941 240.782 194.519C241.361 195.097 241.686 195.882 241.686 196.701C241.686 197.518 241.361 198.303 240.782 198.882C240.203 199.46 239.417 199.785 238.599 199.785H235.079C234.26 199.785 233.475 200.11 232.897 200.689C232.317 201.267 231.993 202.052 231.993 202.869C231.993 203.687 232.317 204.472 232.897 205.05C233.475 205.628 234.26 205.954 235.079 205.954H257.119C257.938 205.954 258.723 205.628 259.302 205.05C259.881 204.472 260.206 203.687 260.206 202.869C260.206 202.052 259.881 201.267 259.302 200.689C258.723 200.11 257.938 199.785 257.119 199.785H255.233C254.414 199.785 253.628 199.46 253.05 198.882C252.471 198.303 252.145 197.518 252.145 196.701C252.145 195.882 252.471 195.097 253.05 194.519C253.628 193.941 254.414 193.615 255.233 193.615H272.204C273.022 193.615 273.807 193.29 274.386 192.712C274.965 192.134 275.29 191.349 275.29 190.531C275.29 189.714 274.965 188.929 274.386 188.351C273.807 187.772 273.022 187.447 272.204 187.447H231.06C230.241 187.447 229.456 187.772 228.877 188.351C228.298 188.929 227.973 189.714 227.973 190.531C227.973 191.349 228.298 192.134 228.877 192.712C229.456 193.29 230.241 193.615 231.06 193.615H231.061Z" stroke="#E8E8E8" stroke-width="3" stroke-linecap="round" stroke-linejoin="round"/>
<path d="M237.359 74.5254H67.4016V224.157H237.359V74.5254Z" fill="#DBDBDB"/>
<path d="M233.959 71.1279H64.0013V220.759H233.959V71.1279Z" fill="white"/>
<g opacity="0.2">
<path opacity="0.2" d="M127.777 104.178C128.861 104.178 129.74 103.296 129.74 102.208C129.74 101.119 128.861 100.236 127.777 100.236C126.692 100.236 125.813 101.119 125.813 102.208C125.813 103.296 126.692 104.178 127.777 104.178Z" fill="#EC3725"/>
<path opacity="0.2" d="M104.999 175.889L102.671 176.135L102.184 178.432L104.211 179.608L105.951 178.034L104.999 175.889Z" fill="#EC3725"/>
<path opacity="0.2" d="M104.129 128.978H100.302V132.82H104.129V128.978Z" fill="#EC3725"/>
<path opacity="0.2" d="M94.7138 150.867L94.2292 154.07L97.2335 152.89L94.7138 150.867Z" fill="#EC3725"/>
<path opacity="0.2" d="M165.423 105.677L162.458 107.396L165.423 109.114V105.677Z" fill="#EC3725"/>
<path opacity="0.2" d="M193.021 131.453L192.437 129.647H190.545L189.961 131.453L191.491 132.57L193.021 131.453Z" fill="#EC3725"/>
<path opacity="0.2" d="M191.884 188.543L187.313 190.063L188.827 194.653L193.399 193.132L191.884 188.543Z" fill="#EC3725"/>
<path opacity="0.2" d="M188.88 157.565L184.215 159.715L188.403 162.696L188.88 157.565Z" fill="#EC3725"/>
<path opacity="0.2" d="M108.68 194.596L105.715 196.315L108.68 198.034V194.596Z" fill="#EC3725"/>
</g>
<path d="M233.959 70.936H64.0013V85.2103H233.959V70.936Z" fill="black" fill-opacity="0.12"/>
<path d="M233.959 83.8608H64.0013V98.1351H233.959V83.8608Z" fill="#F5F5F5"/>
<path d="M233.99 220.759C233.99 219.81 233.957 162.446 233.905 70.9359L233.99 71.0526L64.122 71.0831H64.1084L64.2161 70.9359C64.2127 124.122 64.2098 174.772 64.2076 220.759L64.1084 220.623L233.99 220.759L64.1084 220.895H64.0098V220.759C64.0098 174.772 64.0041 124.122 64.0013 70.9359V70.7881H64.122L233.99 70.8192H234.075V70.9359C234.023 162.446 233.991 219.81 233.99 220.759Z" fill="#263238"/>
<path d="M170.51 202.171H152.109C151.672 202.171 151.315 200.985 151.315 199.537V108.533C151.315 107.084 151.672 105.899 152.109 105.899H170.51C170.947 105.899 171.304 107.084 171.304 108.533V199.537C171.304 200.985 170.947 202.171 170.51 202.171Z" fill="white"/>
<path d="M151.315 120.123H171.304" stroke="#F68B22" stroke-width="2.0307" stroke-miterlimit="10" stroke-linecap="round" stroke-linejoin="round"/>
<path d="M171.304 189.792H151.315V196.903H171.304V189.792Z" fill="#F68B22"/>
<path d="M161.468 114.723H153.457C153.179 114.723 152.941 113.933 152.941 113.011V112.748C152.941 111.826 153.179 111.036 153.457 111.036H161.468C161.746 111.036 161.983 111.826 161.983 112.748V113.011C161.944 113.933 161.746 114.723 161.468 114.723Z" fill="#F68B22"/>
<path d="M161.468 144.618H153.457C153.179 144.618 152.941 143.828 152.941 142.906V142.643C152.941 141.721 153.179 140.931 153.457 140.931H161.468C161.746 140.931 161.983 141.721 161.983 142.643V142.906C161.944 143.96 161.746 144.618 161.468 144.618Z" fill="#DCDCDC"/>
<path d="M166.941 154.364H153.457C153.179 154.364 152.941 153.574 152.941 152.652V152.389C152.941 151.467 153.179 150.676 153.457 150.676H166.941C167.219 150.676 167.457 151.467 167.457 152.389V152.652C167.457 153.574 167.219 154.364 166.941 154.364Z" fill="#DCDCDC"/>
<path d="M164.363 163.978H153.457C153.179 163.978 152.941 163.188 152.941 162.266V162.003C152.941 161.081 153.179 160.291 153.457 160.291H164.363C164.641 160.291 164.879 161.081 164.879 162.003V162.266C164.879 163.188 164.641 163.978 164.363 163.978Z" fill="#DCDCDC"/>
<path d="M170.51 202.171H152.109C151.672 202.171 151.315 200.985 151.315 199.537V108.533C151.315 107.084 151.672 105.899 152.109 105.899H170.51C170.947 105.899 171.304 107.084 171.304 108.533V199.537C171.304 200.985 170.947 202.171 170.51 202.171Z" stroke="#F68B22" stroke-width="2.0307" stroke-miterlimit="10" stroke-linecap="round" stroke-linejoin="round"/>
<path d="M93.4359 202.171H75.0343C74.5979 202.171 74.2409 200.985 74.2409 199.537V108.533C74.2409 107.084 74.5979 105.899 75.0343 105.899H93.4359C93.8722 105.899 94.2293 107.084 94.2293 108.533V199.537C94.2293 200.985 93.8722 202.171 93.4359 202.171Z" fill="white"/>
<path d="M74.2409 120.123H94.2293" stroke="#E6E6E6" stroke-width="2.0307" stroke-miterlimit="10" stroke-linecap="round" stroke-linejoin="round"/>
<path d="M94.2293 189.66H74.2409V196.772H94.2293V189.66Z" fill="#A5A9AD"/>
<path d="M84.3938 114.723H76.3825C76.1048 114.723 75.8668 113.933 75.8668 113.011V112.748C75.8668 111.826 76.1048 111.036 76.3825 111.036H84.3938C84.6714 111.036 84.9089 111.826 84.9089 112.748V113.011C84.8698 113.933 84.6714 114.723 84.3938 114.723Z" fill="#E6E6E6"/>
<path d="M84.3938 144.618H76.3825C76.1048 144.618 75.8668 143.828 75.8668 142.906V142.643C75.8668 141.721 76.1048 140.931 76.3825 140.931H84.3938C84.6714 140.931 84.9089 141.721 84.9089 142.643V143.038C84.8698 143.96 84.6714 144.618 84.3938 144.618Z" fill="#DCDCDC"/>
<path d="M89.8666 154.233H76.3825C76.1048 154.233 75.8668 153.443 75.8668 152.521V152.257C75.8668 151.335 76.1048 150.545 76.3825 150.545H89.8666C90.1443 150.545 90.3823 151.335 90.3823 152.257V152.521C90.3823 153.574 90.1443 154.233 89.8666 154.233Z" fill="#DCDCDC"/>
<path d="M87.2886 163.979H76.3825C76.1048 163.979 75.8668 163.188 75.8668 162.266V162.003C75.8668 161.081 76.1048 160.291 76.3825 160.291H87.2886C87.5663 160.291 87.8043 161.081 87.8043 162.003V162.266C87.8043 163.188 87.5663 163.979 87.2886 163.979Z" fill="#DCDCDC"/>
<path d="M93.4359 202.171H75.0343C74.5979 202.171 74.2409 200.985 74.2409 199.537V108.533C74.2409 107.084 74.5979 105.899 75.0343 105.899H93.4359C93.8722 105.899 94.2293 107.084 94.2293 108.533V199.537C94.2293 200.985 93.8722 202.171 93.4359 202.171Z" stroke="#E6E6E6" stroke-width="2.0307" stroke-miterlimit="10" stroke-linecap="round" stroke-linejoin="round"/>
<path d="M119.505 202.171H101.104C100.667 202.171 100.31 200.985 100.31 199.537V108.533C100.31 107.084 100.667 105.899 101.104 105.899H119.505C119.942 105.899 120.299 107.084 120.299 108.533V199.537C120.299 200.985 119.942 202.171 119.505 202.171Z" fill="white"/>
<path d="M100.31 120.123H120.299" stroke="#E6E6E6" stroke-width="2.0307" stroke-miterlimit="10" stroke-linecap="round" stroke-linejoin="round"/>
<path d="M120.299 189.66H100.31V196.772H120.299V189.66Z" fill="#A5A9AD"/>
<path d="M110.463 114.723H102.452C102.174 114.723 101.936 113.933 101.936 113.011V112.748C101.936 111.826 102.174 111.036 102.452 111.036H110.463C110.741 111.036 110.978 111.826 110.978 112.748V113.011C110.939 113.933 110.741 114.723 110.463 114.723Z" fill="#E6E6E6"/>
<path d="M110.463 144.618H102.452C102.174 144.618 101.936 143.828 101.936 142.906V142.643C101.936 141.721 102.174 140.931 102.452 140.931H110.463C110.741 140.931 110.978 141.721 110.978 142.643V143.038C110.939 143.96 110.741 144.618 110.463 144.618Z" fill="#DCDCDC"/>
<path d="M115.936 154.233H102.452C102.174 154.233 101.936 153.443 101.936 152.521V152.257C101.936 151.335 102.174 150.545 102.452 150.545H115.936C116.214 150.545 116.452 151.335 116.452 152.257V152.521C116.452 153.574 116.214 154.233 115.936 154.233Z" fill="#DCDCDC"/>
<path d="M113.358 163.979H102.452C102.174 163.979 101.936 163.188 101.936 162.266V162.003C101.936 161.081 102.174 160.291 102.452 160.291H113.358C113.636 160.291 113.874 161.081 113.874 162.003V162.266C113.874 163.188 113.636 163.979 113.358 163.979Z" fill="#DCDCDC"/>
<path d="M119.505 202.171H101.104C100.667 202.171 100.31 200.985 100.31 199.537V108.533C100.31 107.084 100.667 105.899 101.104 105.899H119.505C119.942 105.899 120.299 107.084 120.299 108.533V199.537C120.299 200.985 119.942 202.171 119.505 202.171Z" stroke="#E6E6E6" stroke-width="2.0307" stroke-miterlimit="10" stroke-linecap="round" stroke-linejoin="round"/>
<path d="M145.008 202.171H126.606C126.17 202.171 125.813 200.985 125.813 199.537V108.533C125.813 107.084 126.17 105.899 126.606 105.899H145.008C145.444 105.899 145.801 107.084 145.801 108.533V199.537C145.801 200.985 145.444 202.171 145.008 202.171Z" fill="white"/>
<path d="M125.813 120.123H145.801" stroke="#E6E6E6" stroke-width="2.0307" stroke-miterlimit="10" stroke-linecap="round" stroke-linejoin="round"/>
<path d="M145.801 189.66H125.813V196.772H145.801V189.66Z" fill="#A5A9AD"/>
<path d="M135.966 114.723H127.954C127.677 114.723 127.439 113.933 127.439 113.011V112.748C127.439 111.826 127.677 111.036 127.954 111.036H135.966C136.243 111.036 136.481 111.826 136.481 112.748V113.011C136.442 113.933 136.243 114.723 135.966 114.723Z" fill="#E6E6E6"/>
<path d="M135.966 144.618H127.954C127.677 144.618 127.439 143.828 127.439 142.906V142.643C127.439 141.721 127.677 140.931 127.954 140.931H135.966C136.243 140.931 136.481 141.721 136.481 142.643V143.038C136.442 143.96 136.243 144.618 135.966 144.618Z" fill="#DCDCDC"/>
<path d="M141.439 154.233H127.954C127.677 154.233 127.439 153.443 127.439 152.521V152.257C127.439 151.335 127.677 150.545 127.954 150.545H141.439C141.716 150.545 141.954 151.335 141.954 152.257V152.521C141.954 153.574 141.716 154.233 141.439 154.233Z" fill="#DCDCDC"/>
<path d="M138.86 163.979H127.954C127.677 163.979 127.439 163.188 127.439 162.266V162.003C127.439 161.081 127.677 160.291 127.954 160.291H138.86C139.138 160.291 139.376 161.081 139.376 162.003V162.266C139.376 163.188 139.138 163.979 138.86 163.979Z" fill="#DCDCDC"/>
<path d="M145.008 202.171H126.606C126.17 202.171 125.813 200.985 125.813 199.537V108.533C125.813 107.084 126.17 105.899 126.606 105.899H145.008C145.444 105.899 145.801 107.084 145.801 108.533V199.537C145.801 200.985 145.444 202.171 145.008 202.171Z" stroke="#E6E6E6" stroke-width="2.0307" stroke-miterlimit="10" stroke-linecap="round" stroke-linejoin="round"/>
<path d="M196.58 202.171H178.178C177.742 202.171 177.385 200.985 177.385 199.537V108.533C177.385 107.084 177.742 105.899 178.178 105.899H196.58C197.016 105.899 197.373 107.084 197.373 108.533V199.537C197.373 200.985 197.016 202.171 196.58 202.171Z" fill="white"/>
<path d="M177.385 120.123H197.373" stroke="#E6E6E6" stroke-width="2.0307" stroke-miterlimit="10" stroke-linecap="round" stroke-linejoin="round"/>
<path d="M197.373 189.66H177.385V196.772H197.373V189.66Z" fill="#A5A9AD"/>
<path d="M187.538 114.723H179.526C179.249 114.723 179.011 113.933 179.011 113.011V112.748C179.011 111.826 179.249 111.036 179.526 111.036H187.538C187.815 111.036 188.053 111.826 188.053 112.748V113.011C188.014 113.933 187.815 114.723 187.538 114.723Z" fill="#E6E6E6"/>
<path d="M187.538 144.618H179.526C179.249 144.618 179.011 143.828 179.011 142.906V142.643C179.011 141.721 179.249 140.931 179.526 140.931H187.538C187.815 140.931 188.053 141.721 188.053 142.643V143.038C188.014 143.96 187.815 144.618 187.538 144.618Z" fill="#DCDCDC"/>
<path d="M193.01 154.233H179.526C179.249 154.233 179.011 153.443 179.011 152.521V152.257C179.011 151.335 179.249 150.545 179.526 150.545H193.01C193.288 150.545 193.526 151.335 193.526 152.257V152.521C193.526 153.574 193.288 154.233 193.01 154.233Z" fill="#DCDCDC"/>
<path d="M190.432 163.979H179.526C179.249 163.979 179.011 163.188 179.011 162.266V162.003C179.011 161.081 179.249 160.291 179.526 160.291H190.432C190.71 160.291 190.948 161.081 190.948 162.003V162.266C190.948 163.188 190.71 163.979 190.432 163.979Z" fill="#DCDCDC"/>
<path d="M196.58 202.171H178.178C177.742 202.171 177.385 200.985 177.385 199.537V108.533C177.385 107.084 177.742 105.899 178.178 105.899H196.58C197.016 105.899 197.373 107.084 197.373 108.533V199.537C197.373 200.985 197.016 202.171 196.58 202.171Z" stroke="#E6E6E6" stroke-width="2.0307" stroke-miterlimit="10" stroke-linecap="round" stroke-linejoin="round"/>
<path d="M222.649 202.171H204.247C203.811 202.171 203.454 200.985 203.454 199.537V108.533C203.454 107.084 203.811 105.899 204.247 105.899H222.649C223.085 105.899 223.442 107.084 223.442 108.533V199.537C223.442 200.985 223.085 202.171 222.649 202.171Z" fill="white"/>
<path d="M203.454 120.123H223.442" stroke="#E6E6E6" stroke-width="2.0307" stroke-miterlimit="10" stroke-linecap="round" stroke-linejoin="round"/>
<path d="M223.442 189.66H203.454V196.772H223.442V189.66Z" fill="#A5A9AD"/>
<path d="M213.607 114.723H205.596C205.318 114.723 205.08 113.933 205.08 113.011V112.748C205.08 111.826 205.318 111.036 205.596 111.036H213.607C213.885 111.036 214.122 111.826 214.122 112.748V113.011C214.083 113.933 213.885 114.723 213.607 114.723Z" fill="#E6E6E6"/>
<path d="M213.607 144.618H205.596C205.318 144.618 205.08 143.828 205.08 142.906V142.643C205.08 141.721 205.318 140.931 205.596 140.931H213.607C213.885 140.931 214.122 141.721 214.122 142.643V143.038C214.083 143.96 213.885 144.618 213.607 144.618Z" fill="#DCDCDC"/>
<path d="M219.08 154.233H205.596C205.318 154.233 205.08 153.443 205.08 152.521V152.257C205.08 151.335 205.318 150.545 205.596 150.545H219.08C219.357 150.545 219.596 151.335 219.596 152.257V152.521C219.596 153.574 219.357 154.233 219.08 154.233Z" fill="#DCDCDC"/>
<path d="M216.502 163.979H205.596C205.318 163.979 205.08 163.188 205.08 162.266V162.003C205.08 161.081 205.318 160.291 205.596 160.291H216.502C216.779 160.291 217.017 161.081 217.017 162.003V162.266C217.017 163.188 216.779 163.979 216.502 163.979Z" fill="#DCDCDC"/>
<path d="M222.649 202.171H204.247C203.811 202.171 203.454 200.985 203.454 199.537V108.533C203.454 107.084 203.811 105.899 204.247 105.899H222.649C223.085 105.899 223.442 107.084 223.442 108.533V199.537C223.442 200.985 223.085 202.171 222.649 202.171Z" stroke="#E6E6E6" stroke-width="2.0307" stroke-miterlimit="10" stroke-linecap="round" stroke-linejoin="round"/>
<path d="M149.008 245.966C197.812 245.966 237.376 242.022 237.376 237.157C237.376 232.293 197.812 228.349 149.008 228.349C100.203 228.349 60.6395 232.293 60.6395 237.157C60.6395 242.022 100.203 245.966 149.008 245.966Z" fill="black" fill-opacity="0.12"/>
</svg>
