<svg width="313" height="279" viewBox="0 0 313 279" fill="none" xmlns="http://www.w3.org/2000/svg">
<path fill-rule="evenodd" clip-rule="evenodd" d="M80.0003 274.454C73.4302 273.034 -5.50477 260.232 0.305413 165.824C6.11559 71.4158 13.4097 43.0247 44.098 32.6354C74.7863 22.2461 149.386 -26.9031 207.925 19.8323C244.104 48.7144 301.744 108.35 306.12 123.127C310.497 137.903 319.64 166.256 304.563 183.106C265.095 227.217 275.392 282.619 209.991 278.815C144.589 275.011 111.239 281.213 79.9992 274.454" fill="#F9F9F9"/>
<path d="M77.9633 114.116H50.1434C49.7334 114.122 49.3263 114.046 48.9459 113.893C48.5654 113.74 48.2192 113.512 47.9273 113.224C47.6354 112.936 47.4036 112.593 47.2454 112.215C47.0871 111.837 47.0057 111.431 47.0057 111.021C47.0057 110.611 47.0871 110.205 47.2454 109.826C47.4036 109.448 47.6354 109.105 47.9273 108.817C48.2192 108.529 48.5654 108.302 48.9459 108.149C49.3263 107.996 49.7334 107.92 50.1434 107.925H53.2017C53.6117 107.931 54.0187 107.855 54.3992 107.702C54.7796 107.549 55.1258 107.321 55.4178 107.033C55.7097 106.745 55.9415 106.402 56.0997 106.024C56.2579 105.646 56.3394 105.24 56.3394 104.83C56.3394 104.42 56.2579 104.014 56.0997 103.635C55.9415 103.257 55.7097 102.914 55.4178 102.626C55.1258 102.338 54.7796 102.111 54.3992 101.958C54.0187 101.805 53.6117 101.729 53.2017 101.734H34.498C34.088 101.729 33.6809 101.805 33.3005 101.958C32.9201 102.111 32.5738 102.338 32.2819 102.626C31.99 102.914 31.7582 103.257 31.6 103.635C31.4418 104.014 31.3603 104.42 31.3603 104.83C31.3603 105.24 31.4418 105.646 31.6 106.024C31.7582 106.402 31.99 106.745 32.2819 107.033C32.5738 107.321 32.9201 107.549 33.3005 107.702C33.6809 107.855 34.088 107.931 34.498 107.925H37.4051C37.8151 107.92 38.2222 107.996 38.6026 108.149C38.9831 108.302 39.3293 108.529 39.6212 108.817C39.9131 109.105 40.1449 109.448 40.3031 109.826C40.4614 110.205 40.5428 110.611 40.5428 111.021C40.5428 111.431 40.4614 111.837 40.3031 112.215C40.1449 112.593 39.9131 112.936 39.6212 113.224C39.3293 113.512 38.9831 113.74 38.6026 113.893C38.2222 114.046 37.8151 114.122 37.4051 114.116H28.8231C28.002 114.116 27.2145 114.442 26.6339 115.023C26.0532 115.604 25.7271 116.391 25.7271 117.212C25.7271 118.033 26.0532 118.821 26.6339 119.401C27.2145 119.982 28.002 120.308 28.8231 120.308H48.3804C49.1941 120.319 49.9707 120.65 50.5423 121.23C51.1138 121.809 51.4342 122.59 51.4342 123.404C51.4342 124.217 51.1138 124.999 50.5423 125.578C49.9707 126.157 49.1941 126.488 48.3804 126.499H44.8532C44.4432 126.494 44.0362 126.57 43.6557 126.723C43.2753 126.876 42.9291 127.103 42.6371 127.391C42.3452 127.679 42.1134 128.022 41.9552 128.4C41.797 128.779 41.7155 129.185 41.7155 129.595C41.7155 130.005 41.797 130.411 41.9552 130.789C42.1134 131.167 42.3452 131.51 42.6371 131.798C42.9291 132.086 43.2753 132.314 43.6557 132.467C44.0362 132.62 44.4432 132.696 44.8532 132.69H66.9505C67.3605 132.696 67.7675 132.62 68.148 132.467C68.5284 132.314 68.8746 132.086 69.1666 131.798C69.4585 131.51 69.6903 131.167 69.8485 130.789C70.0067 130.411 70.0882 130.005 70.0882 129.595C70.0882 129.185 70.0067 128.779 69.8485 128.4C69.6903 128.022 69.4585 127.679 69.1666 127.391C68.8746 127.103 68.5284 126.876 68.148 126.723C67.7675 126.57 67.3605 126.494 66.9505 126.499H65.0601C64.6501 126.505 64.2431 126.429 63.8626 126.276C63.4822 126.123 63.136 125.896 62.844 125.608C62.5521 125.32 62.3203 124.976 62.1621 124.598C62.0039 124.22 61.9224 123.814 61.9224 123.404C61.9224 122.994 62.0039 122.588 62.1621 122.209C62.3203 121.831 62.5521 121.488 62.844 121.2C63.136 120.912 63.4822 120.685 63.8626 120.532C64.2431 120.379 64.6501 120.303 65.0601 120.308H77.9615C78.7827 120.308 79.5702 119.982 80.1508 119.401C80.7314 118.821 81.0576 118.033 81.0576 117.212C81.0576 116.391 80.7314 115.604 80.1508 115.023C79.5702 114.442 78.7827 114.116 77.9615 114.116H77.9633Z" stroke="#E8E8E8" stroke-width="3" stroke-linecap="round" stroke-linejoin="round"/>
<path d="M231.721 194.313H239.28C240.102 194.313 240.889 194.639 241.47 195.22C242.05 195.8 242.376 196.588 242.376 197.409C242.376 198.23 242.05 199.018 241.47 199.598C240.889 200.179 240.102 200.505 239.28 200.505H235.75C234.93 200.505 234.142 200.831 233.562 201.412C232.981 201.992 232.655 202.779 232.655 203.6C232.655 204.421 232.981 205.208 233.562 205.789C234.142 206.369 234.93 206.695 235.75 206.695H257.854C258.675 206.695 259.462 206.369 260.043 205.789C260.623 205.208 260.949 204.421 260.949 203.6C260.949 202.779 260.623 201.992 260.043 201.412C259.462 200.831 258.675 200.505 257.854 200.505H255.962C255.141 200.505 254.353 200.179 253.773 199.598C253.192 199.018 252.866 198.23 252.866 197.409C252.866 196.588 253.192 195.8 253.773 195.22C254.353 194.639 255.141 194.313 255.962 194.313H272.981C273.802 194.313 274.59 193.987 275.17 193.406C275.751 192.826 276.077 192.039 276.077 191.218C276.077 190.397 275.751 189.61 275.17 189.029C274.59 188.449 273.802 188.123 272.981 188.123H231.72C230.899 188.123 230.112 188.449 229.531 189.029C228.951 189.61 228.625 190.397 228.625 191.218C228.625 192.039 228.951 192.826 229.531 193.406C230.112 193.987 230.899 194.313 231.72 194.313H231.721Z" stroke="#E8E8E8" stroke-width="3" stroke-linecap="round" stroke-linejoin="round"/>
<path d="M156.444 247.989C205.388 247.989 245.065 244.031 245.065 239.149C245.065 234.267 205.388 230.309 156.444 230.309C107.5 230.309 67.8232 234.267 67.8232 239.149C67.8232 244.031 107.5 247.989 156.444 247.989Z" fill="black" fill-opacity="0.12"/>
<path d="M71.7032 69.5358L71.6245 219.75L244.708 219.84L244.787 69.6264L71.7032 69.5358Z" fill="white"/>
<path d="M150.253 197.063H87.1835C85.9099 197.063 84.8774 198.209 84.8774 199.623V206.951C84.8774 208.365 85.9099 209.511 87.1835 209.511H150.253C151.526 209.511 152.559 208.365 152.559 206.951V199.623C152.559 198.209 151.526 197.063 150.253 197.063Z" fill="#F5F5F5"/>
<path d="M98.8586 190.975H84.7148V194.747H98.8586V190.975Z" fill="#E6E6E6"/>
<path d="M149.676 170.403H86.6064C85.3328 170.403 84.3003 171.549 84.3003 172.963V180.291C84.3003 181.705 85.3328 182.851 86.6064 182.851H149.676C150.949 182.851 151.982 181.705 151.982 180.291V172.963C151.982 171.549 150.949 170.403 149.676 170.403Z" fill="#F5F5F5"/>
<path d="M222.41 170.403H159.341C158.068 170.403 157.035 171.549 157.035 172.963V180.291C157.035 181.705 158.068 182.851 159.341 182.851H222.41C223.684 182.851 224.716 181.705 224.716 180.291V172.963C224.716 171.549 223.684 170.403 222.41 170.403Z" fill="#F5F5F5"/>
<path d="M221.702 94.6484H161.151C159.877 94.6484 158.844 95.7946 158.844 97.2085V104.536C158.844 105.95 159.877 107.096 161.151 107.096H221.702C222.976 107.096 224.008 105.95 224.008 104.536V97.2085C224.008 95.7946 222.976 94.6484 221.702 94.6484Z" fill="#F5F5F5"/>
<path d="M150.149 94.6484H87.08C85.8064 94.6484 84.7739 95.7946 84.7739 97.2085V104.536C84.7739 105.95 85.8064 107.096 87.08 107.096H150.149C151.423 107.096 152.455 105.95 152.455 104.536V97.2085C152.455 95.7946 151.423 94.6484 150.149 94.6484Z" fill="#F5F5F5"/>
<path d="M103.194 88.1084H84.8066V91.8801H103.194V88.1084Z" fill="#E6E6E6"/>
<path d="M177.121 88.1079H158.734V91.8796H177.121V88.1079Z" fill="#E6E6E6"/>
<path d="M95.087 112.712H84.7148V116.484H95.087V112.712Z" fill="#E6E6E6"/>
<path d="M112.531 137.7H84.7148V141.472H112.531V137.7Z" fill="#E6E6E6"/>
<path d="M98.8586 162.688H84.7148V166.459H98.8586V162.688Z" fill="#E6E6E6"/>
<path d="M166.278 162.688H156.848V166.459H166.278V162.688Z" fill="#E6E6E6"/>
<path d="M106.24 88.7298L105.88 89.2561V89.2646L106.452 89.1802V89.4664L105.88 89.391V89.3995L106.243 89.9041L106.004 90.056L105.777 89.4664H105.769L105.523 90.0602L105.306 89.9088L105.667 89.3948V89.3867L105.105 89.4664V89.1802L105.663 89.2603V89.2519L105.305 88.7368L105.537 88.5897L105.772 89.175H105.779L106.011 88.5854L106.24 88.7298Z" fill="#F68B22"/>
<path d="M102.532 163.935L102.172 164.461V164.47L102.744 164.385V164.672L102.172 164.597V164.605L102.536 165.11L102.297 165.262L102.069 164.672H102.062L101.815 165.266L101.599 165.114L101.959 164.6V164.595L101.398 164.675V164.389L101.955 164.469V164.461L101.599 163.947L101.83 163.8L102.065 164.385H102.073L102.305 163.796L102.532 163.935Z" fill="#F68B22"/>
<path d="M169.214 164.048L168.854 164.575V164.583L169.426 164.499V164.785L168.854 164.709V164.717L169.218 165.223L168.979 165.374L168.751 164.785H168.744L168.497 165.379L168.281 165.227L168.641 164.714V164.705L168.08 164.785V164.499L168.637 164.579V164.57L168.281 164.057L168.512 163.91L168.747 164.494H168.755L168.986 163.905L169.214 164.048Z" fill="#F68B22"/>
<path d="M98.6302 113.482L98.27 114.009V114.017L98.8427 113.933V114.219L98.27 114.143V114.152L98.6341 114.657L98.3953 114.808L98.1676 114.219H98.1599L97.9135 114.813L97.6973 114.661L98.0575 114.147V114.139L97.4963 114.219V113.933L98.0537 114.013V114.004L97.6973 113.491L97.9288 113.344L98.1638 113.929H98.1714L98.4029 113.339L98.6302 113.482Z" fill="#F68B22"/>
<path d="M115.876 138.927L115.515 139.453V139.461L116.088 139.377V139.663L115.515 139.587V139.596L115.879 140.101L115.64 140.252L115.413 139.663H115.405L115.159 140.257L114.943 140.105L115.303 139.592V139.583L114.742 139.663V139.377L115.299 139.457V139.449L114.943 138.935L115.174 138.787L115.409 139.373H115.417L115.648 138.783L115.876 138.927Z" fill="#F68B22"/>
<path d="M223.241 145.777H86.9772C85.7036 145.777 84.6711 146.923 84.6711 148.337V155.665C84.6711 157.079 85.7036 158.225 86.9772 158.225H223.241C224.514 158.225 225.547 157.079 225.547 155.665V148.337C225.547 146.923 224.514 145.777 223.241 145.777Z" fill="#F5F5F5"/>
<path d="M179.758 87.7941L179.397 88.3205V88.329L179.97 88.2445V88.5308L179.397 88.4549V88.4634L179.761 88.9685L179.523 89.1199L179.295 88.5308H179.286L179.04 89.1246L178.824 88.9727L179.184 88.4591V88.4511L178.623 88.5308V88.2445L179.18 88.3242V88.3129L178.824 87.7993L179.055 87.6522L179.29 88.237H179.298L179.529 87.6475L179.758 87.7941Z" fill="#F68B22"/>
<path d="M90.3162 203.217L91.236 203.791L90.9965 204.263L90.0622 203.654L90.0703 204.821H89.6061L89.6137 203.654L88.6794 204.263L88.4395 203.791L89.3674 203.217L88.4395 202.651L88.6794 202.17L89.6137 202.779L89.6061 201.621H90.0703L90.0622 202.779L90.9965 202.17L91.236 202.651L90.3162 203.217Z" fill="#E0E0E0"/>
<path d="M93.5623 203.215L94.4821 203.789L94.2426 204.261L93.3083 203.652L93.3164 204.819H92.8522L92.8598 203.652L91.9255 204.261L91.6855 203.789L92.6135 203.215L91.6855 202.649L91.9255 202.168L92.8598 202.777L92.8522 201.619H93.3164L93.3083 202.777L94.2426 202.168L94.4821 202.649L93.5623 203.215Z" fill="#E0E0E0"/>
<path d="M96.8081 203.215L97.728 203.789L97.488 204.261L96.5537 203.652L96.5614 204.819H96.0976L96.1052 203.652L95.1709 204.261L94.9314 203.789L95.8589 203.215L94.9314 202.649L95.1709 202.168L96.1052 202.777L96.0976 201.619H96.5614L96.5537 202.777L97.488 202.168L97.728 202.649L96.8081 203.215Z" fill="#E0E0E0"/>
<path d="M100.054 203.215L100.974 203.789L100.734 204.261L99.7997 203.652L99.8073 204.819H99.3427L99.3504 203.652L98.416 204.261L98.1765 203.789L99.104 203.215L98.1765 202.649L98.416 202.168L99.3504 202.777L99.3427 201.619H99.8065L99.7988 202.777L100.733 202.168L100.973 202.649L100.054 203.215Z" fill="#E0E0E0"/>
<path d="M103.3 203.215L104.219 203.79L103.98 204.261L103.046 203.652L103.054 204.819H102.587L102.595 203.652L101.661 204.261L101.421 203.79L102.349 203.215L101.421 202.649L101.661 202.168L102.595 202.778L102.587 201.619H103.055L103.046 202.777L103.981 202.168L104.22 202.649L103.3 203.215Z" fill="#E0E0E0"/>
<path d="M106.545 203.215L107.465 203.789L107.226 204.261L106.291 203.652L106.299 204.819H105.836L105.843 203.652L104.909 204.261L104.669 203.789L105.597 203.215L104.669 202.649L104.909 202.168L105.843 202.777L105.836 201.619H106.299L106.291 202.777L107.226 202.168L107.465 202.649L106.545 203.215Z" fill="#E0E0E0"/>
<path d="M109.791 203.215L110.711 203.789L110.472 204.261L109.537 203.652L109.545 204.819H109.082L109.089 203.652L108.155 204.261L107.916 203.789L108.843 203.215L107.916 202.649L108.155 202.168L109.089 202.777L109.082 201.619H109.545L109.537 202.777L110.472 202.168L110.711 202.649L109.791 203.215Z" fill="#E0E0E0"/>
<path d="M215.418 209.511C215.643 209.488 215.865 209.443 216.082 209.377C216.388 209.267 216.67 209.088 216.909 208.851C217.149 208.613 217.341 208.323 217.474 207.998C217.65 207.52 217.718 207.002 217.672 206.489C217.669 205.917 217.666 205.295 217.663 204.629C217.658 203.291 217.652 201.772 217.646 200.093C217.673 199.672 217.633 199.25 217.528 198.846C217.403 198.433 217.181 198.065 216.886 197.778C216.581 197.478 216.206 197.279 215.804 197.203C215.374 197.161 214.941 197.149 214.51 197.166L208.827 197.178L195.804 197.187C195.255 197.188 194.726 197.417 194.321 197.829C193.917 198.24 193.665 198.805 193.616 199.412C193.596 200.638 193.609 201.886 193.604 203.089C193.599 204.293 193.604 205.486 193.602 206.649C193.558 207.206 193.674 207.763 193.934 208.241C194.19 208.703 194.579 209.056 195.038 209.244C195.501 209.395 195.986 209.448 196.467 209.401L197.911 209.404L200.672 209.41L205.624 209.425L212.794 209.464L214.744 209.487L215.251 209.499C215.309 209.498 215.366 209.502 215.423 209.512C215.366 209.522 215.309 209.526 215.251 209.525L214.744 209.537L212.794 209.56L205.624 209.599L200.672 209.614L197.911 209.62L196.467 209.623C196.222 209.623 195.981 209.627 195.728 209.62C195.468 209.613 195.211 209.558 194.967 209.456C194.466 209.252 194.041 208.867 193.759 208.363C193.479 207.848 193.351 207.249 193.392 206.649C193.392 205.486 193.392 204.3 193.39 203.089C193.394 201.876 193.378 200.66 193.399 199.391C193.452 198.723 193.729 198.101 194.174 197.648C194.62 197.194 195.202 196.943 195.806 196.941L208.829 196.951L214.512 196.962C214.954 196.947 215.397 196.963 215.837 197.009C216.261 197.094 216.656 197.304 216.981 197.617C217.307 197.93 217.55 198.335 217.685 198.789C217.794 199.213 217.834 199.654 217.804 200.093C217.799 201.772 217.793 203.292 217.788 204.629C217.785 205.296 217.782 205.917 217.779 206.489C217.82 207.019 217.742 207.551 217.554 208.04C217.414 208.372 217.211 208.668 216.96 208.907C216.709 209.146 216.415 209.323 216.097 209.426C215.877 209.5 215.647 209.529 215.418 209.511Z" fill="#F68B22"/>
<path d="M186.89 197.062H167.274C166.001 197.062 164.968 198.209 164.968 199.623V206.95C164.968 208.364 166.001 209.51 167.274 209.51H186.89C188.164 209.51 189.196 208.364 189.196 206.95V199.623C189.196 198.209 188.164 197.062 186.89 197.062Z" fill="#F68B22"/>
<path d="M244.832 69.3384H71.5732V81.1112H244.832V69.3384Z" fill="#F68B22"/>
<path d="M244.78 69.6364L71.6959 69.643L71.7953 69.5332C71.7775 114.362 71.7571 165.579 71.7354 219.73V219.746L71.6246 219.624L244.708 219.746L244.617 219.848C244.715 129.178 244.779 70.4794 244.78 69.6341C244.78 70.4789 244.788 129.179 244.8 219.848V219.95H244.708L71.6246 219.869H71.5142V219.73C71.5439 165.579 71.5719 114.363 71.5966 69.5336V69.4229H71.6955L244.78 69.6364Z" fill="#263238"/>
<path d="M86.2601 119.581C85.7031 119.852 85.2611 120.36 85.0375 120.989L85.5087 121.157C85.4245 121.394 85.3777 121.654 85.3777 121.928V123.76H84.8777V127.424H85.3777V129.256C85.3777 129.53 85.4245 129.79 85.5087 130.027L85.0375 130.194C85.2611 130.824 85.7031 131.331 86.2601 131.602L86.4786 131.152C86.6959 131.258 86.9338 131.316 87.1838 131.316H88.6626V131.816H91.6204V131.316H94.5782V131.816H97.5359V131.316H100.494V131.816H103.451V131.316H106.409V131.816H109.367V131.316H112.325V131.816H115.282V131.316H118.24V131.816H121.198V131.316H124.156V131.816H127.114V131.316H130.071V131.816H133.029V131.316H135.987V131.816H138.945V131.316H141.902V131.816H144.86V131.316H147.818V131.816H150.776V131.316H153.733V131.816H156.691V131.316H159.649V131.816H162.607V131.316H165.564V131.816H168.522V131.316H171.48V131.816H174.438V131.316H177.396V131.816H180.353V131.316H183.311V131.816H186.269V131.316H189.227V131.816H192.184V131.316H195.142V131.816H198.1V131.316H201.058V131.816H204.015V131.316H206.973V131.816H209.931V131.316H212.889V131.816H215.846V131.316H218.804V131.816H221.762V131.316H223.241C223.491 131.316 223.729 131.258 223.946 131.152L224.164 131.602C224.721 131.331 225.163 130.824 225.387 130.194L224.916 130.027C225 129.79 225.047 129.53 225.047 129.256V127.424H225.547V123.76H225.047V121.928C225.047 121.654 225 121.394 224.916 121.157L225.387 120.99C225.163 120.36 224.721 119.852 224.164 119.581L223.946 120.031C223.729 119.925 223.491 119.868 223.241 119.868H221.762V119.368H218.804V119.868H215.846V119.368H212.889V119.868H209.931V119.368H206.973V119.868H204.015V119.368H201.058V119.868H198.1V119.368H195.142V119.868H192.184V119.368H189.227V119.868H186.269V119.368H183.311V119.868H180.353V119.368H177.395V119.868H174.438V119.368H171.48V119.868H168.522V119.368H165.564V119.868H162.607V119.368H159.649V119.868H156.691V119.368H153.733V119.868H150.776V119.368H147.818V119.868H144.86V119.368H141.902V119.868H138.945V119.368H135.987V119.868H133.029V119.368H130.071V119.868H127.113V119.368H124.156V119.868H121.198V119.368H118.24V119.868H115.282V119.368H112.325V119.868H109.367V119.368H106.409V119.868H103.451V119.368H100.494V119.868H97.5359V119.368H94.5781V119.868H91.6203V119.368H88.6626V119.868H87.1838C86.9338 119.868 86.6959 119.925 86.4786 120.031L86.2601 119.581Z" fill="white" stroke="#3DDC3A" stroke-dasharray="3 3"/>
<g filter="url(#filter0_d_27_1026)">
<path d="M167.917 99.0405H31.8603C30.5867 99.0405 29.5542 100.187 29.5542 101.601V108.928C29.5542 110.342 30.5867 111.488 31.8603 111.488H167.917C169.191 111.488 170.223 110.342 170.223 108.928V101.601C170.223 100.187 169.191 99.0405 167.917 99.0405Z" fill="#E6E6E6"/>
</g>
<defs>
<filter id="filter0_d_27_1026" x="25.5542" y="99.0405" width="148.669" height="20.4478" filterUnits="userSpaceOnUse" color-interpolation-filters="sRGB">
<feFlood flood-opacity="0" result="BackgroundImageFix"/>
<feColorMatrix in="SourceAlpha" type="matrix" values="0 0 0 0 0 0 0 0 0 0 0 0 0 0 0 0 0 0 127 0" result="hardAlpha"/>
<feOffset dy="4"/>
<feGaussianBlur stdDeviation="2"/>
<feComposite in2="hardAlpha" operator="out"/>
<feColorMatrix type="matrix" values="0 0 0 0 0 0 0 0 0 0 0 0 0 0 0 0 0 0 0.25 0"/>
<feBlend mode="normal" in2="BackgroundImageFix" result="effect1_dropShadow_27_1026"/>
<feBlend mode="normal" in="SourceGraphic" in2="effect1_dropShadow_27_1026" result="shape"/>
</filter>
</defs>
</svg>
