<svg width="313" height="279" viewBox="0 0 313 279" fill="none" xmlns="http://www.w3.org/2000/svg">
<path fill-rule="evenodd" clip-rule="evenodd" d="M80 274.453C73.43 273.033 -5.50475 260.231 0.305412 165.823C6.11557 71.4156 13.4097 43.0246 44.0979 32.6353C74.786 22.246 149.385 -26.903 207.924 19.8323C244.103 48.7143 301.743 108.35 306.119 123.126C310.496 137.902 319.638 166.255 304.562 183.106C265.094 227.216 275.391 282.618 209.99 278.814C144.589 275.01 111.238 281.212 79.9989 274.453" fill="#F9F9F9"/>
<path d="M77.9631 114.116H50.1433C49.7333 114.121 49.3262 114.045 48.9458 113.892C48.5654 113.739 48.2191 113.512 47.9272 113.224C47.6353 112.936 47.4035 112.593 47.2453 112.214C47.0871 111.836 47.0056 111.43 47.0056 111.02C47.0056 110.61 47.0871 110.204 47.2453 109.826C47.4035 109.447 47.6353 109.104 47.9272 108.816C48.2191 108.528 48.5654 108.301 48.9458 108.148C49.3262 107.995 49.7333 107.919 50.1433 107.925H53.2016C53.6116 107.93 54.0186 107.854 54.3991 107.701C54.7795 107.548 55.1257 107.321 55.4177 107.033C55.7096 106.745 55.9414 106.402 56.0996 106.024C56.2578 105.645 56.3393 105.239 56.3393 104.829C56.3393 104.419 56.2578 104.013 56.0996 103.635C55.9414 103.256 55.7096 102.913 55.4177 102.625C55.1257 102.337 54.7795 102.11 54.3991 101.957C54.0186 101.804 53.6116 101.728 53.2016 101.734H34.498C34.088 101.728 33.6809 101.804 33.3005 101.957C32.92 102.11 32.5738 102.337 32.2819 102.625C31.99 102.913 31.7582 103.256 31.6 103.635C31.4418 104.013 31.3603 104.419 31.3603 104.829C31.3603 105.239 31.4418 105.645 31.6 106.024C31.7582 106.402 31.99 106.745 32.2819 107.033C32.5738 107.321 32.92 107.548 33.3005 107.701C33.6809 107.854 34.088 107.93 34.498 107.925H37.4051C37.8151 107.919 38.2221 107.995 38.6026 108.148C38.983 108.301 39.3292 108.528 39.6212 108.816C39.9131 109.104 40.1449 109.447 40.3031 109.826C40.4613 110.204 40.5428 110.61 40.5428 111.02C40.5428 111.43 40.4613 111.836 40.3031 112.214C40.1449 112.593 39.9131 112.936 39.6212 113.224C39.3292 113.512 38.983 113.739 38.6026 113.892C38.2221 114.045 37.8151 114.121 37.4051 114.116H28.8231C28.002 114.116 27.2145 114.442 26.6339 115.022C26.0532 115.603 25.7271 116.39 25.7271 117.212C25.7271 118.033 26.0532 118.82 26.6339 119.401C27.2145 119.981 28.002 120.308 28.8231 120.308H48.3803C49.194 120.319 49.9707 120.65 50.5422 121.229C51.1137 121.808 51.4341 122.589 51.4341 123.403C51.4341 124.217 51.1137 124.998 50.5422 125.577C49.9707 126.157 49.194 126.488 48.3803 126.499H44.8532C44.4431 126.493 44.0361 126.569 43.6557 126.722C43.2752 126.875 42.929 127.102 42.6371 127.39C42.3452 127.678 42.1134 128.021 41.9552 128.4C41.797 128.778 41.7155 129.184 41.7155 129.594C41.7155 130.004 41.797 130.41 41.9552 130.788C42.1134 131.167 42.3452 131.51 42.6371 131.798C42.929 132.086 43.2752 132.313 43.6557 132.466C44.0361 132.619 44.4431 132.695 44.8532 132.69H66.9503C67.3603 132.695 67.7674 132.619 68.1478 132.466C68.5282 132.313 68.8745 132.086 69.1664 131.798C69.4583 131.51 69.6901 131.167 69.8483 130.788C70.0065 130.41 70.088 130.004 70.088 129.594C70.088 129.184 70.0065 128.778 69.8483 128.4C69.6901 128.021 69.4583 127.678 69.1664 127.39C68.8745 127.102 68.5282 126.875 68.1478 126.722C67.7674 126.569 67.3603 126.493 66.9503 126.499H65.06C64.65 126.504 64.2429 126.428 63.8625 126.275C63.4821 126.122 63.1358 125.895 62.8439 125.607C62.552 125.319 62.3202 124.976 62.162 124.598C62.0038 124.219 61.9223 123.813 61.9223 123.403C61.9223 122.993 62.0038 122.587 62.162 122.209C62.3202 121.83 62.552 121.487 62.8439 121.199C63.1358 120.911 63.4821 120.684 63.8625 120.531C64.2429 120.378 64.65 120.302 65.06 120.308H77.9614C78.7825 120.308 79.57 119.981 80.1506 119.401C80.7312 118.82 81.0574 118.033 81.0574 117.212C81.0574 116.39 80.7312 115.603 80.1506 115.022C79.57 114.442 78.7825 114.116 77.9614 114.116H77.9631Z" stroke="#E8E8E8" stroke-width="3" stroke-linecap="round" stroke-linejoin="round"/>
<path d="M231.721 194.312H239.28C240.101 194.312 240.888 194.638 241.469 195.219C242.049 195.799 242.376 196.587 242.376 197.408C242.376 198.229 242.049 199.017 241.469 199.597C240.888 200.178 240.101 200.504 239.28 200.504H235.75C234.929 200.504 234.141 200.83 233.561 201.411C232.98 201.991 232.654 202.778 232.654 203.599C232.654 204.42 232.98 205.207 233.561 205.788C234.141 206.368 234.929 206.694 235.75 206.694H257.853C258.674 206.694 259.461 206.368 260.042 205.788C260.622 205.207 260.948 204.42 260.948 203.599C260.948 202.778 260.622 201.991 260.042 201.411C259.461 200.83 258.674 200.504 257.853 200.504H255.961C255.14 200.504 254.352 200.178 253.772 199.597C253.191 199.017 252.865 198.229 252.865 197.408C252.865 196.587 253.191 195.799 253.772 195.219C254.352 194.638 255.14 194.312 255.961 194.312H272.981C273.801 194.312 274.589 193.986 275.169 193.405C275.75 192.825 276.076 192.038 276.076 191.217C276.076 190.396 275.75 189.609 275.169 189.028C274.589 188.448 273.801 188.122 272.981 188.122H231.719C230.898 188.122 230.111 188.448 229.53 189.028C228.95 189.609 228.624 190.396 228.624 191.217C228.624 192.038 228.95 192.825 229.53 193.405C230.111 193.986 230.898 194.312 231.719 194.312H231.721Z" stroke="#E8E8E8" stroke-width="3" stroke-linecap="round" stroke-linejoin="round"/>
<path d="M245.046 75.9307H74.604V226.1H245.046V75.9307Z" fill="#DBDBDB"/>
<path d="M241.636 72.5205H71.194V222.69H241.636V72.5205Z" fill="white"/>
<path d="M241.636 163.949H71.194V189.321H241.636V163.949Z" fill="white"/>
<path d="M241.636 134.919H71.194V163.949H241.636V134.919Z" fill="#F5F5F5"/>
<path d="M241.636 193.467H71.194V222.497H241.636V193.467Z" fill="#F5F5F5"/>
<path d="M174.105 143.961C174.105 144.043 154.004 144.109 129.215 144.109C104.418 144.109 84.3216 144.043 84.3216 143.961C84.3216 143.879 104.418 143.813 129.215 143.813C154.004 143.813 174.105 143.879 174.105 143.961Z" fill="#4D4D4D"/>
<path d="M122.219 152.041C122.219 152.123 113.677 152.189 103.143 152.189C92.6085 152.189 84.0641 152.123 84.0641 152.041C84.0641 151.959 92.604 151.893 103.143 151.893C113.682 151.893 122.219 151.961 122.219 152.041Z" fill="#4D4D4D"/>
<path d="M174.105 172.595C174.105 172.677 154.004 172.743 129.215 172.743C104.418 172.743 84.3216 172.677 84.3216 172.595C84.3216 172.513 104.418 172.447 129.215 172.447C154.004 172.447 174.105 172.514 174.105 172.595Z" fill="#4D4D4D"/>
<path d="M122.219 180.675C122.219 180.757 113.677 180.822 103.143 180.822C92.6085 180.822 84.0641 180.757 84.0641 180.675C84.0641 180.593 92.604 180.526 103.143 180.526C113.682 180.526 122.219 180.593 122.219 180.675Z" fill="#4D4D4D"/>
<path d="M174.105 201.229C174.105 201.311 154.004 201.377 129.215 201.377C104.418 201.377 84.3216 201.311 84.3216 201.229C84.3216 201.147 104.418 201.081 129.215 201.081C154.004 201.081 174.105 201.147 174.105 201.229Z" fill="#4D4D4D"/>
<path d="M122.219 209.306C122.219 209.388 113.677 209.455 103.143 209.455C92.6085 209.455 84.0641 209.388 84.0641 209.306C84.0641 209.225 92.604 209.159 103.143 209.159C113.682 209.159 122.219 209.227 122.219 209.306Z" fill="#4D4D4D"/>
<path d="M241.636 72.3281H71.194V86.6537H241.636V72.3281Z" fill="black" fill-opacity="0.12"/>
<path d="M241.636 85.2993H71.194V99.6249H241.636V85.2993Z" fill="#F5F5F5"/>
<path d="M81.4577 79.0421C81.4577 79.3981 81.3521 79.7461 81.1543 80.0421C80.9565 80.3381 80.6754 80.5688 80.3465 80.7051C80.0176 80.8413 79.6557 80.8769 79.3066 80.8075C78.9574 80.738 78.6367 80.5666 78.385 80.3149C78.1333 80.0632 77.9618 79.7424 77.8924 79.3933C77.8229 79.0441 77.8586 78.6822 77.9948 78.3533C78.131 78.0244 78.3617 77.7433 78.6577 77.5455C78.9537 77.3478 79.3017 77.2422 79.6577 77.2422C80.1351 77.2422 80.5929 77.4318 80.9305 77.7694C81.268 78.1069 81.4577 78.5648 81.4577 79.0421Z" fill="#4D4D4D"/>
<path d="M88.0566 79.0421C88.0566 79.3981 87.951 79.7462 87.7532 80.0422C87.5554 80.3382 87.2743 80.5689 86.9453 80.7051C86.6164 80.8413 86.2545 80.8769 85.9053 80.8074C85.5561 80.7379 85.2354 80.5665 84.9837 80.3147C84.732 80.0629 84.5606 79.7421 84.4912 79.3929C84.4219 79.0437 84.4576 78.6818 84.5939 78.3529C84.7302 78.024 84.961 77.743 85.2571 77.5453C85.5532 77.3475 85.9012 77.2421 86.2572 77.2422C86.4936 77.2422 86.7276 77.2888 86.946 77.3792C87.1643 77.4697 87.3627 77.6023 87.5298 77.7694C87.6969 77.9366 87.8294 78.135 87.9198 78.3534C88.0102 78.5717 88.0567 78.8058 88.0566 79.0421Z" fill="#4D4D4D"/>
<path d="M94.6562 79.0421C94.6562 79.3981 94.5506 79.7461 94.3529 80.0421C94.1551 80.3381 93.874 80.5688 93.5451 80.7051C93.2162 80.8413 92.8543 80.8769 92.5051 80.8075C92.156 80.738 91.8353 80.5666 91.5835 80.3149C91.3318 80.0632 91.1604 79.7424 91.0909 79.3933C91.0215 79.0441 91.0571 78.6822 91.1933 78.3533C91.3296 78.0244 91.5603 77.7433 91.8563 77.5455C92.1523 77.3478 92.5003 77.2422 92.8563 77.2422C93.3336 77.2422 93.7915 77.4318 94.129 77.7694C94.4666 78.1069 94.6562 78.5648 94.6562 79.0421Z" fill="#4D4D4D"/>
<path d="M241.668 222.69C241.668 221.737 241.635 164.167 241.583 72.328L241.668 72.4451L71.3151 72.4758H71.3015L71.4095 72.328C71.4061 125.705 71.4032 176.537 71.401 222.69L71.3015 222.554L241.668 222.69L71.3015 222.827H71.2026V222.69C71.2026 176.537 71.1969 125.705 71.1941 72.328V72.1797H71.3151L241.668 72.2109H241.753V72.328C241.701 164.167 241.669 221.738 241.668 222.69Z" fill="#263238"/>
<path d="M228.672 108.076H188.331C186.52 108.076 185.053 109.544 185.053 111.354V120.66C185.053 122.471 186.52 123.939 188.331 123.939H228.672C230.482 123.939 231.95 122.471 231.95 120.66V111.354C231.95 109.544 230.482 108.076 228.672 108.076Z" fill="#F68B22"/>
<path d="M90.0084 114.662H88.3102V113.663H92.9337V114.662H91.2361V118.968H90.0084V114.662Z" fill="#4D4D4D"/>
<path d="M96.8217 117.831H94.3585L93.8885 118.968H92.6302L94.9951 113.663H96.2079L98.5802 118.968H97.2917L96.8217 117.831ZM96.4352 116.899L95.5941 114.867L94.7524 116.899H96.4352Z" fill="#4D4D4D"/>
<path d="M98.7166 118.445L99.1332 117.52C99.6484 117.876 100.258 118.069 100.884 118.073C101.612 118.073 101.907 117.831 101.907 117.505C101.907 116.512 98.8223 117.195 98.8223 115.224C98.8223 114.322 99.5504 113.572 101.058 113.572C101.703 113.559 102.34 113.721 102.9 114.042L102.521 114.974C102.075 114.71 101.568 114.567 101.05 114.557C100.323 114.557 100.043 114.83 100.043 115.163C100.043 116.141 103.128 115.466 103.128 117.414C103.128 118.301 102.393 119.059 100.876 119.059C100.111 119.078 99.3579 118.863 98.7166 118.445Z" fill="#4D4D4D"/>
<path d="M105.902 116.884L105.189 117.626V118.968H103.969V113.663H105.189V116.141L107.539 113.663H108.903L106.705 116.027L109.031 118.968H107.599L105.902 116.884Z" fill="#4D4D4D"/>
<path d="M109.047 118.445L109.463 117.52C109.979 117.876 110.589 118.069 111.214 118.073C111.942 118.073 112.237 117.831 112.237 117.505C112.237 116.512 109.152 117.195 109.152 115.224C109.152 114.322 109.88 113.572 111.388 113.572C112.034 113.559 112.67 113.721 113.23 114.042L112.851 114.974C112.405 114.71 111.898 114.567 111.38 114.557C110.653 114.557 110.373 114.83 110.373 115.163C110.373 116.141 113.457 115.466 113.457 117.414C113.457 118.301 112.722 119.059 111.206 119.059C110.441 119.078 109.688 118.863 109.047 118.445Z" fill="#4D4D4D"/>
<path d="M201.768 146.043H226.665C227.999 146.043 229.279 146.574 230.222 147.517C231.166 148.461 231.696 149.741 231.696 151.075C231.696 151.736 231.566 152.39 231.313 153.001C231.06 153.611 230.689 154.166 230.222 154.633C229.278 155.577 227.999 156.107 226.664 156.107H201.768C201.107 156.107 200.453 155.977 199.842 155.724C199.232 155.471 198.677 155.1 198.21 154.633C197.742 154.166 197.372 153.611 197.119 153.001C196.866 152.39 196.736 151.736 196.736 151.075C196.736 149.741 197.266 148.461 198.21 147.517C199.154 146.574 200.433 146.043 201.768 146.043V146.043Z" fill="#E0E0E0"/>
<path d="M226.665 185.171H201.767C200.433 185.171 199.153 184.64 198.209 183.697C197.265 182.753 196.735 181.473 196.735 180.138C196.735 178.804 197.265 177.524 198.209 176.581C199.153 175.637 200.433 175.107 201.767 175.107H226.661C227.995 175.107 229.275 175.637 230.219 176.581C231.162 177.524 231.693 178.804 231.693 180.138C231.693 181.472 231.163 182.752 230.22 183.695C229.277 184.639 227.998 185.17 226.665 185.171Z" fill="#EBEBEB"/>
<path d="M226.665 203.58H201.768C198.989 203.58 196.736 205.832 196.736 208.611V208.612C196.736 211.391 198.989 213.643 201.768 213.643H226.665C229.443 213.643 231.696 211.391 231.696 208.612V208.611C231.696 205.832 229.443 203.58 226.665 203.58Z" fill="#E0E0E0"/>
<path d="M156.443 247.988C205.387 247.988 245.063 244.03 245.063 239.148C245.063 234.265 205.387 230.308 156.443 230.308C107.499 230.308 67.8226 234.265 67.8226 239.148C67.8226 244.03 107.499 247.988 156.443 247.988Z" fill="black" fill-opacity="0.12"/>
</svg>
