<svg width="313" height="279" viewBox="0 0 313 279" fill="none" xmlns="http://www.w3.org/2000/svg">
<path fill-rule="evenodd" clip-rule="evenodd" d="M80.0003 274.454C73.4302 273.034 -5.50477 260.232 0.305413 165.824C6.11559 71.4158 13.4097 43.0247 44.098 32.6354C74.7863 22.2461 149.386 -26.9031 207.925 19.8323C244.104 48.7144 301.744 108.35 306.12 123.127C310.497 137.903 319.64 166.256 304.563 183.106C265.095 227.217 275.392 282.619 209.991 278.815C144.589 275.011 111.239 281.213 79.9992 274.454" fill="#F9F9F9"/>
<path d="M77.9633 114.116H50.1434C49.7334 114.122 49.3263 114.046 48.9459 113.893C48.5654 113.74 48.2192 113.512 47.9273 113.224C47.6354 112.936 47.4036 112.593 47.2454 112.215C47.0871 111.837 47.0057 111.431 47.0057 111.021C47.0057 110.611 47.0871 110.205 47.2454 109.826C47.4036 109.448 47.6354 109.105 47.9273 108.817C48.2192 108.529 48.5654 108.302 48.9459 108.149C49.3263 107.996 49.7334 107.92 50.1434 107.925H53.2017C53.6117 107.931 54.0187 107.855 54.3992 107.702C54.7796 107.549 55.1258 107.321 55.4178 107.033C55.7097 106.745 55.9415 106.402 56.0997 106.024C56.2579 105.646 56.3394 105.24 56.3394 104.83C56.3394 104.42 56.2579 104.014 56.0997 103.635C55.9415 103.257 55.7097 102.914 55.4178 102.626C55.1258 102.338 54.7796 102.111 54.3992 101.958C54.0187 101.805 53.6117 101.729 53.2017 101.734H34.498C34.088 101.729 33.6809 101.805 33.3005 101.958C32.9201 102.111 32.5738 102.338 32.2819 102.626C31.99 102.914 31.7582 103.257 31.6 103.635C31.4418 104.014 31.3603 104.42 31.3603 104.83C31.3603 105.24 31.4418 105.646 31.6 106.024C31.7582 106.402 31.99 106.745 32.2819 107.033C32.5738 107.321 32.9201 107.549 33.3005 107.702C33.6809 107.855 34.088 107.931 34.498 107.925H37.4051C37.8151 107.92 38.2222 107.996 38.6026 108.149C38.9831 108.302 39.3293 108.529 39.6212 108.817C39.9131 109.105 40.1449 109.448 40.3031 109.826C40.4614 110.205 40.5428 110.611 40.5428 111.021C40.5428 111.431 40.4614 111.837 40.3031 112.215C40.1449 112.593 39.9131 112.936 39.6212 113.224C39.3293 113.512 38.9831 113.74 38.6026 113.893C38.2222 114.046 37.8151 114.122 37.4051 114.116H28.8231C28.002 114.116 27.2145 114.442 26.6339 115.023C26.0532 115.604 25.7271 116.391 25.7271 117.212C25.7271 118.033 26.0532 118.821 26.6339 119.401C27.2145 119.982 28.002 120.308 28.8231 120.308H48.3804C49.1941 120.319 49.9707 120.65 50.5423 121.23C51.1138 121.809 51.4342 122.59 51.4342 123.404C51.4342 124.217 51.1138 124.999 50.5423 125.578C49.9707 126.157 49.1941 126.488 48.3804 126.499H44.8532C44.4432 126.494 44.0362 126.57 43.6557 126.723C43.2753 126.876 42.9291 127.103 42.6371 127.391C42.3452 127.679 42.1134 128.022 41.9552 128.4C41.797 128.779 41.7155 129.185 41.7155 129.595C41.7155 130.005 41.797 130.411 41.9552 130.789C42.1134 131.167 42.3452 131.51 42.6371 131.798C42.9291 132.086 43.2753 132.314 43.6557 132.467C44.0362 132.62 44.4432 132.696 44.8532 132.69H66.9504C67.3605 132.696 67.7675 132.62 68.148 132.467C68.5284 132.314 68.8746 132.086 69.1666 131.798C69.4585 131.51 69.6903 131.167 69.8485 130.789C70.0067 130.411 70.0882 130.005 70.0882 129.595C70.0882 129.185 70.0067 128.779 69.8485 128.4C69.6903 128.022 69.4585 127.679 69.1666 127.391C68.8746 127.103 68.5284 126.876 68.148 126.723C67.7675 126.57 67.3605 126.494 66.9504 126.499H65.0601C64.6501 126.505 64.2431 126.429 63.8626 126.276C63.4822 126.123 63.136 125.896 62.844 125.608C62.5521 125.32 62.3203 124.976 62.1621 124.598C62.0039 124.22 61.9224 123.814 61.9224 123.404C61.9224 122.994 62.0039 122.588 62.1621 122.209C62.3203 121.831 62.5521 121.488 62.844 121.2C63.136 120.912 63.4822 120.685 63.8626 120.532C64.2431 120.379 64.6501 120.303 65.0601 120.308H77.9615C78.7827 120.308 79.5702 119.982 80.1508 119.401C80.7314 118.821 81.0576 118.033 81.0576 117.212C81.0576 116.391 80.7314 115.604 80.1508 115.023C79.5702 114.442 78.7827 114.116 77.9615 114.116H77.9633Z" stroke="#E8E8E8" stroke-width="3" stroke-linecap="round" stroke-linejoin="round"/>
<path d="M231.721 194.313H239.28C240.102 194.313 240.889 194.639 241.47 195.22C242.05 195.8 242.376 196.588 242.376 197.409C242.376 198.23 242.05 199.018 241.47 199.598C240.889 200.179 240.102 200.505 239.28 200.505H235.75C234.93 200.505 234.142 200.831 233.562 201.412C232.981 201.992 232.655 202.779 232.655 203.6C232.655 204.421 232.981 205.208 233.562 205.789C234.142 206.369 234.93 206.695 235.75 206.695H257.854C258.675 206.695 259.462 206.369 260.043 205.789C260.623 205.208 260.949 204.421 260.949 203.6C260.949 202.779 260.623 201.992 260.043 201.412C259.462 200.831 258.675 200.505 257.854 200.505H255.962C255.141 200.505 254.353 200.179 253.773 199.598C253.192 199.018 252.866 198.23 252.866 197.409C252.866 196.588 253.192 195.8 253.773 195.22C254.353 194.639 255.141 194.313 255.962 194.313H272.981C273.802 194.313 274.59 193.987 275.17 193.406C275.751 192.826 276.077 192.039 276.077 191.218C276.077 190.397 275.751 189.61 275.17 189.029C274.59 188.449 273.802 188.123 272.981 188.123H231.72C230.899 188.123 230.112 188.449 229.531 189.029C228.951 189.61 228.625 190.397 228.625 191.218C228.625 192.039 228.951 192.826 229.531 193.406C230.112 193.987 230.899 194.313 231.72 194.313H231.721Z" stroke="#E8E8E8" stroke-width="3" stroke-linecap="round" stroke-linejoin="round"/>
<path d="M245.047 75.9312H74.6045V226.101H245.047V75.9312Z" fill="#DBDBDB"/>
<path d="M241.637 72.5215H71.1946V222.692H241.637V72.5215Z" fill="white"/>
<path d="M163.999 174.751C159.986 154.322 153.314 148.028 147.723 146.233C136.21 142.544 124.24 156.36 103.855 152.017C103.271 151.893 96.2482 150.359 96.3117 148.626C96.4824 143.864 149.813 146.02 151.891 134.667C152.5 131.324 148.517 127.645 147.921 127.089C142.393 121.976 133.431 126.431 132.24 123.898C131.275 121.856 135.334 115.901 140.974 114.326C150.813 111.574 156.546 124.654 176.902 136.86C197.075 148.959 208.115 146.108 213.028 157.002C216.274 164.201 215.609 174.643 209.257 180.733C202.345 187.366 189.764 187.823 179.482 180.534" stroke="#F68B22" stroke-miterlimit="10"/>
<path d="M176.916 119.395H171.032V118.974L174.802 113.085V112.455H171.032H168.992H165.695V112.77H145.601V134.535H169.778V128.227H171.032V125.936L176.916 120.025V119.395Z" fill="white"/>
<path d="M171.497 125.489L176.916 120.043V119.363H151.286L148.461 128.211" stroke="#CCCCCC" stroke-width="0.5" stroke-miterlimit="10"/>
<path d="M159.98 112.557V111.195L157.269 108.473H143.042V135.698C143.042 135.877 143.077 136.054 143.145 136.219C143.214 136.384 143.313 136.534 143.439 136.661C143.565 136.787 143.715 136.888 143.879 136.956C144.044 137.025 144.22 137.06 144.398 137.06H166.56C167.178 137.06 167.765 136.661 168.184 136.202L178.948 126.169V124.127H166.755L164.045 126.169H155.355L146.701 134.346H145.752V112.557H159.98Z" fill="#E6E6E6" stroke="#CCCCCC" stroke-width="0.5" stroke-miterlimit="10"/>
<path d="M170.82 119.363L174.883 113.237V112.557H156.592" stroke="#CCCCCC" stroke-width="0.5" stroke-miterlimit="10"/>
<path d="M174.206 109.153V105.75" stroke="#CCCCCC" stroke-width="0.5" stroke-miterlimit="10"/>
<path d="M176.622 109.589L178.236 106.781" stroke="#CCCCCC" stroke-width="0.5" stroke-miterlimit="10"/>
<path d="M178.442 111.418L181.237 109.797" stroke="#CCCCCC" stroke-width="0.5" stroke-miterlimit="10"/>
<path d="M178.948 113.917H182.337" stroke="#CCCCCC" stroke-width="0.5" stroke-miterlimit="10"/>
<path d="M171.646 109.589L170.032 106.781" stroke="#CCCCCC" stroke-width="0.5" stroke-miterlimit="10"/>
<g opacity="0.2">
<path opacity="0.2" d="M135.152 105.691C136.239 105.691 137.121 104.805 137.121 103.713C137.121 102.62 136.239 101.734 135.152 101.734C134.064 101.734 133.183 102.62 133.183 103.713C133.183 104.805 134.064 105.691 135.152 105.691Z" fill="#EC3725"/>
<path opacity="0.2" d="M112.309 177.659L109.974 177.906L109.486 180.211L111.519 181.392L113.263 179.812L112.309 177.659Z" fill="#EC3725"/>
<path opacity="0.2" d="M111.437 130.579H107.598V134.436H111.437V130.579Z" fill="#EC3725"/>
<path opacity="0.2" d="M101.995 152.547L101.509 155.762L104.522 154.577L101.995 152.547Z" fill="#EC3725"/>
<path opacity="0.2" d="M172.906 107.195L169.933 108.92L172.906 110.645V107.195Z" fill="#EC3725"/>
<path opacity="0.2" d="M200.583 133.064L199.997 131.251H198.099L197.514 133.064L199.048 134.184L200.583 133.064Z" fill="#EC3725"/>
<path opacity="0.2" d="M199.443 190.359L194.858 191.885L196.377 196.491L200.961 194.965L199.443 190.359Z" fill="#EC3725"/>
<path opacity="0.2" d="M196.43 159.27L191.751 161.427L195.952 164.419L196.43 159.27Z" fill="#EC3725"/>
<path opacity="0.2" d="M116.001 196.434L113.027 198.159L116.001 199.884V196.434Z" fill="#EC3725"/>
</g>
<path d="M104.601 146.197L106.026 149.264" stroke="#F40000" stroke-width="0.5" stroke-miterlimit="10"/>
<path d="M103.787 148.447L106.84 147.015" stroke="#F40000" stroke-width="0.5" stroke-miterlimit="10"/>
<path d="M102.086 136.793L103.513 139.86" stroke="#F40000" stroke-width="0.5" stroke-miterlimit="10"/>
<path d="M101.274 139.042L104.327 137.61" stroke="#F40000" stroke-width="0.5" stroke-miterlimit="10"/>
<path d="M99.1721 142.518L100.597 145.585" stroke="#F40000" stroke-width="0.5" stroke-miterlimit="10"/>
<path d="M98.3584 144.769L101.411 143.335" stroke="#F40000" stroke-width="0.5" stroke-miterlimit="10"/>
<path d="M136.593 152.364L132.145 142.791C132.002 142.502 131.799 142.246 131.549 142.043C131.299 141.84 131.007 141.694 130.695 141.615L125.469 140.145L117.728 143.779L109.986 147.412L107.753 152.376C107.613 152.666 107.538 152.984 107.532 153.307C107.527 153.63 107.591 153.951 107.721 154.246L112.17 163.818L136.593 152.364Z" fill="white" stroke="#CCCCCC" stroke-width="0.5" stroke-miterlimit="10"/>
<path d="M133.677 158.083L122.033 133.038L109.313 139.002C108.979 139.159 108.679 139.38 108.43 139.653C108.181 139.927 107.988 140.247 107.862 140.595C107.736 140.943 107.68 141.313 107.696 141.683C107.713 142.053 107.801 142.416 107.958 142.751L118.412 165.246L133.677 158.083Z" fill="white" stroke="#CCCCCC" stroke-width="0.5" stroke-miterlimit="10"/>
<path d="M132.043 143.906C131.353 145.322 127.611 153.249 127.14 153.925C126.626 154.665 125.354 155.765 123.669 156.553C121.984 157.341 120.328 157.618 119.435 157.54C118.615 157.469 110.163 155.265 108.641 154.888L108.13 155.125L113.833 167.394C114.022 167.8 114.364 168.115 114.784 168.268C115.204 168.422 115.667 168.401 116.072 168.211L126.757 163.198L137.443 158.184C137.643 158.09 137.823 157.958 137.972 157.794C138.121 157.63 138.237 157.438 138.312 157.229C138.388 157.02 138.422 156.798 138.412 156.576C138.402 156.354 138.348 156.136 138.254 155.935L132.552 143.667L132.043 143.906Z" fill="#E6E6E6" stroke="#CCCCCC" stroke-width="0.5" stroke-miterlimit="10"/>
<path d="M127.853 152.866L136.706 156.3" stroke="#CCCCCC" stroke-width="0.5" stroke-miterlimit="10"/>
<path d="M115.302 166.345L118.365 157.319" stroke="#CCCCCC" stroke-width="0.5" stroke-miterlimit="10"/>
<path d="M113.386 146.435L122.545 142.137" stroke="#CCCCCC" stroke-width="0.5" stroke-miterlimit="10"/>
<path d="M114.337 148.479L123.494 144.182" stroke="#CCCCCC" stroke-width="0.5" stroke-miterlimit="10"/>
<path d="M115.288 150.523L120.884 147.897" stroke="#CCCCCC" stroke-width="0.5" stroke-miterlimit="10"/>
<path d="M126.783 133.923C126.636 133.58 126.421 133.27 126.15 133.014C125.88 132.757 125.56 132.559 125.211 132.431C124.861 132.303 124.489 132.249 124.118 132.271C123.747 132.293 123.384 132.391 123.051 132.559L109.313 139.002C109.646 138.834 110.008 138.735 110.38 138.713C110.751 138.691 111.123 138.745 111.472 138.873C111.822 139.001 112.142 139.199 112.412 139.455C112.683 139.712 112.898 140.021 113.045 140.364L126.783 133.923Z" fill="#E6E6E6" stroke="#CCCCCC" stroke-width="0.5" stroke-miterlimit="10"/>
<path d="M191.539 150.022H126.345C124.777 150.022 123.506 151.299 123.506 152.874V194.095C123.506 195.67 124.777 196.947 126.345 196.947H191.539C193.107 196.947 194.378 195.67 194.378 194.095V152.874C194.378 151.299 193.107 150.022 191.539 150.022Z" fill="white" stroke="#CCCCCC" stroke-width="0.5" stroke-miterlimit="10"/>
<path d="M123.506 154.829V152.872C123.506 152.116 123.805 151.392 124.337 150.857C124.869 150.323 125.59 150.022 126.343 150.022H191.537C191.91 150.022 192.279 150.096 192.623 150.239C192.968 150.382 193.281 150.592 193.544 150.856C193.808 151.121 194.017 151.435 194.16 151.781C194.302 152.127 194.376 152.498 194.376 152.872V154.829H123.506Z" fill="#E6E6E6" stroke="#CCCCCC" stroke-width="0.5" stroke-miterlimit="10"/>
<path d="M142.996 161.338C143.742 162.46 144.208 163.745 144.356 165.086C144.504 166.427 144.33 167.784 143.847 169.042C143.365 170.301 142.589 171.425 141.584 172.32C140.579 173.215 139.375 173.855 138.073 174.185" fill="white"/>
<path d="M142.996 161.338C143.742 162.46 144.208 163.745 144.356 165.086C144.504 166.427 144.33 167.784 143.847 169.042C143.365 170.301 142.589 171.425 141.584 172.32C140.579 173.215 139.375 173.855 138.073 174.185" stroke="#CCCCCC" stroke-width="0.5" stroke-miterlimit="10"/>
<path d="M130.596 159.601C132.062 158.351 133.91 157.645 135.831 157.601C137.753 157.557 139.631 158.177 141.152 159.358" fill="white"/>
<path d="M130.596 159.601C132.062 158.351 133.91 157.645 135.831 157.601C137.753 157.557 139.631 158.177 141.152 159.358" stroke="#CCCCCC" stroke-width="0.5" stroke-miterlimit="10"/>
<path d="M134.467 174.3C133.078 174.038 131.778 173.426 130.687 172.524C129.596 171.621 128.75 170.456 128.228 169.137C127.705 167.818 127.522 166.388 127.697 164.979C127.871 163.57 128.398 162.229 129.226 161.079" fill="white"/>
<path d="M134.467 174.3C133.078 174.038 131.778 173.426 130.687 172.524C129.596 171.621 128.75 170.456 128.228 169.137C127.705 167.818 127.522 166.388 127.697 164.979C127.871 163.57 128.398 162.229 129.226 161.079" stroke="#CCCCCC" stroke-width="0.5" stroke-miterlimit="10"/>
<path d="M156.508 159.228H176.942" stroke="#CCCCCC" stroke-width="0.5" stroke-miterlimit="10"/>
<path d="M156.508 162.161H172.888" stroke="#CCCCCC" stroke-width="0.5" stroke-miterlimit="10"/>
<path d="M156.508 164.929H166.239" stroke="#CCCCCC" stroke-width="0.5" stroke-miterlimit="10"/>
<path d="M178.529 177.068H130.592C130.081 177.068 129.667 177.484 129.667 177.997V183.226C129.667 183.739 130.081 184.155 130.592 184.155H178.529C179.04 184.155 179.454 183.739 179.454 183.226V177.997C179.454 177.484 179.04 177.068 178.529 177.068Z" fill="white" stroke="#CCCCCC" stroke-width="0.5" stroke-miterlimit="10"/>
<path d="M173.942 183.545C175.555 183.545 176.862 182.232 176.862 180.612C176.862 178.992 175.555 177.678 173.942 177.678C172.33 177.678 171.022 178.992 171.022 180.612C171.022 182.232 172.33 183.545 173.942 183.545Z" fill="#E6E6E6" stroke="#F68B22" stroke-width="0.5" stroke-miterlimit="10"/>
<path d="M133.868 179.716H159.671" stroke="#CCCCCC" stroke-width="0.5" stroke-miterlimit="10"/>
<path d="M133.826 181.509H152.748" stroke="#CCCCCC" stroke-width="0.5" stroke-miterlimit="10"/>
<path d="M178.206 185.378H130.269C129.758 185.378 129.344 185.794 129.344 186.307V191.536C129.344 192.049 129.758 192.465 130.269 192.465H178.206C178.717 192.465 179.131 192.049 179.131 191.536V186.307C179.131 185.794 178.717 185.378 178.206 185.378Z" fill="white" stroke="#CCCCCC" stroke-width="0.5" stroke-miterlimit="10"/>
<path d="M173.617 191.855C175.229 191.855 176.537 190.541 176.537 188.921C176.537 187.301 175.229 185.988 173.617 185.988C172.004 185.988 170.697 187.301 170.697 188.921C170.697 190.541 172.004 191.855 173.617 191.855Z" fill="#F68B22" stroke="#F68B22" stroke-width="0.5" stroke-miterlimit="10"/>
<path d="M133.542 188.026H159.347" stroke="#CCCCCC" stroke-width="0.5" stroke-miterlimit="10"/>
<path d="M133.502 189.817H152.423" stroke="#CCCCCC" stroke-width="0.5" stroke-miterlimit="10"/>
<path d="M178.206 193.688H130.269C129.758 193.688 129.344 194.104 129.344 194.617V199.846C129.344 200.359 129.758 200.775 130.269 200.775H178.206C178.717 200.775 179.131 200.359 179.131 199.846V194.617C179.131 194.104 178.717 193.688 178.206 193.688Z" fill="white" stroke="#CCCCCC" stroke-width="0.5" stroke-miterlimit="10"/>
<path d="M173.617 200.165C175.229 200.165 176.537 198.852 176.537 197.232C176.537 195.612 175.229 194.298 173.617 194.298C172.004 194.298 170.697 195.612 170.697 197.232C170.697 198.852 172.004 200.165 173.617 200.165Z" fill="#F68B22" stroke="#F68B22" stroke-width="0.5" stroke-miterlimit="10"/>
<path d="M133.542 196.334H159.347" stroke="#CCCCCC" stroke-width="0.5" stroke-miterlimit="10"/>
<path d="M133.502 198.127H152.423" stroke="#CCCCCC" stroke-width="0.5" stroke-miterlimit="10"/>
<path d="M210.674 135.549L196.2 128.286L188.974 130.713L178.732 151.313L198.032 160.997C198.351 161.158 198.72 161.185 199.059 161.073C199.398 160.961 199.679 160.718 199.84 160.399L211.286 137.373C211.366 137.213 211.414 137.039 211.427 136.86C211.439 136.682 211.417 136.502 211.36 136.333C211.303 136.163 211.213 136.006 211.095 135.871C210.978 135.737 210.834 135.627 210.674 135.549Z" fill="white"/>
<path d="M188.665 131.317L194.092 134.041L196.803 128.589" fill="#E6E6E6"/>
<path d="M179.931 151.917L198.024 160.997C198.343 161.158 198.712 161.185 199.051 161.073C199.39 160.961 199.67 160.718 199.832 160.399L211.277 137.373C211.357 137.215 211.405 137.042 211.418 136.865C211.431 136.688 211.41 136.51 211.354 136.341C211.299 136.172 211.211 136.016 211.096 135.882C210.98 135.747 210.84 135.637 210.682 135.557L196.2 128.286L188.974 130.713L180.24 148.284" stroke="#CCCCCC" stroke-width="0.5" stroke-miterlimit="10"/>
<path d="M190.473 132.226L194.092 134.041L195.9 130.406" stroke="#CCCCCC" stroke-width="0.5" stroke-miterlimit="10"/>
<path d="M190.175 138.889L202.238 144.942" stroke="#CCCCCC" stroke-width="0.5" stroke-miterlimit="10"/>
<path d="M188.97 141.312L196.208 144.943" stroke="#CCCCCC" stroke-width="0.5" stroke-miterlimit="10"/>
<path d="M191.38 136.466L203.443 142.518" stroke="#CCCCCC" stroke-width="0.5" stroke-miterlimit="10"/>
<path d="M241.638 72.3286H71.1951V86.6543H241.638V72.3286Z" fill="black" fill-opacity="0.12"/>
<path d="M241.637 85.2998H71.1946V99.6255H241.637V85.2998Z" fill="#F5F5F5"/>
<path d="M81.4583 79.0431C81.4583 79.3991 81.3527 79.7471 81.1549 80.0431C80.9572 80.3391 80.6761 80.5698 80.3472 80.706C80.0183 80.8423 79.6563 80.8779 79.3072 80.8085C78.958 80.739 78.6373 80.5676 78.3856 80.3159C78.1339 80.0641 77.9624 79.7434 77.893 79.3943C77.8235 79.0451 77.8592 78.6832 77.9954 78.3543C78.1316 78.0254 78.3623 77.7443 78.6583 77.5465C78.9543 77.3487 79.3023 77.2432 79.6583 77.2432C80.1357 77.2432 80.5935 77.4328 80.9311 77.7704C81.2687 78.1079 81.4583 78.5657 81.4583 79.0431Z" fill="#4D4D4D"/>
<path d="M88.0574 79.0431C88.0574 79.3991 87.9518 79.7472 87.754 80.0432C87.5562 80.3392 87.2751 80.5699 86.9461 80.7061C86.6172 80.8423 86.2553 80.8779 85.9061 80.8084C85.5569 80.7389 85.2362 80.5674 84.9845 80.3157C84.7328 80.0639 84.5614 79.7431 84.492 79.3939C84.4226 79.0447 84.4584 78.6828 84.5947 78.3539C84.731 78.025 84.9618 77.7439 85.2579 77.5462C85.554 77.3485 85.902 77.2431 86.258 77.2432C86.4944 77.2432 86.7284 77.2897 86.9468 77.3802C87.1651 77.4707 87.3635 77.6032 87.5306 77.7704C87.6977 77.9375 87.8302 78.136 87.9206 78.3543C88.011 78.5727 88.0575 78.8068 88.0574 79.0431Z" fill="#4D4D4D"/>
<path d="M94.6568 79.0431C94.6568 79.3991 94.5512 79.7471 94.3534 80.0431C94.1556 80.3391 93.8745 80.5698 93.5456 80.706C93.2167 80.8423 92.8548 80.8779 92.5057 80.8085C92.1565 80.739 91.8358 80.5676 91.5841 80.3159C91.3324 80.0641 91.1609 79.7434 91.0915 79.3943C91.022 79.0451 91.0577 78.6832 91.1939 78.3543C91.3301 78.0254 91.5608 77.7443 91.8568 77.5465C92.1528 77.3487 92.5008 77.2432 92.8568 77.2432C93.3342 77.2432 93.792 77.4328 94.1296 77.7704C94.4671 78.1079 94.6568 78.5657 94.6568 79.0431Z" fill="#4D4D4D"/>
<path d="M241.67 222.691C241.67 221.738 241.637 164.168 241.585 72.3285L241.67 72.4456L71.3164 72.4763H71.3027L71.4107 72.3285C71.4073 125.706 71.4045 176.538 71.4022 222.691L71.3027 222.555L241.67 222.691L71.3027 222.828H71.2038V222.691C71.2038 176.538 71.1982 125.706 71.1953 72.3285V72.1802H71.3164L241.67 72.2114H241.755V72.3285C241.703 164.168 241.671 221.739 241.67 222.691Z" fill="#263238"/>
<path d="M156.444 247.989C205.388 247.989 245.064 244.031 245.064 239.149C245.064 234.267 205.388 230.309 156.444 230.309C107.5 230.309 67.823 234.267 67.823 239.149C67.823 244.031 107.5 247.989 156.444 247.989Z" fill="black" fill-opacity="0.12"/>
</svg>
