<svg width="312" height="278" viewBox="0 0 312 278" fill="none" xmlns="http://www.w3.org/2000/svg">
<path fill-rule="evenodd" clip-rule="evenodd" d="M79.7133 273.47C73.1668 272.054 -5.48502 259.298 0.304318 165.229C6.09365 71.1596 13.3616 42.8704 43.9398 32.5183C74.518 22.1663 148.85 -26.8066 207.179 19.7612C243.228 48.5397 300.661 107.961 305.022 122.685C309.383 137.408 318.493 165.659 303.47 182.449C264.144 226.402 274.404 281.605 209.237 277.815C144.07 274.025 110.84 280.204 79.7121 273.469" fill="#F9F9F9"/>
<path d="M77.6836 113.706H49.9635C49.5549 113.712 49.1494 113.636 48.7703 113.484C48.3912 113.331 48.0462 113.105 47.7554 112.818C47.4645 112.531 47.2335 112.189 47.0759 111.812C46.9182 111.435 46.837 111.031 46.837 110.622C46.837 110.213 46.9182 109.809 47.0759 109.432C47.2335 109.055 47.4645 108.713 47.7554 108.426C48.0462 108.139 48.3912 107.913 48.7703 107.76C49.1494 107.608 49.5549 107.532 49.9635 107.538H53.0108C53.4194 107.543 53.825 107.468 54.204 107.315C54.5831 107.163 54.9281 106.936 55.219 106.649C55.5098 106.362 55.7408 106.02 55.8984 105.643C56.0561 105.266 56.1372 104.862 56.1372 104.453C56.1372 104.045 56.0561 103.64 55.8984 103.263C55.7408 102.886 55.5098 102.544 55.219 102.257C54.9281 101.97 54.5831 101.744 54.204 101.592C53.825 101.439 53.4194 101.363 53.0108 101.369H34.3743C33.9657 101.363 33.5601 101.439 33.181 101.592C32.802 101.744 32.457 101.97 32.1661 102.257C31.8752 102.544 31.6443 102.886 31.4866 103.263C31.329 103.64 31.2478 104.045 31.2478 104.453C31.2478 104.862 31.329 105.266 31.4866 105.643C31.6443 106.02 31.8752 106.362 32.1661 106.649C32.457 106.936 32.802 107.163 33.181 107.315C33.5601 107.468 33.9657 107.543 34.3743 107.538H37.2709C37.6795 107.532 38.0851 107.608 38.4641 107.76C38.8432 107.913 39.1882 108.139 39.4791 108.426C39.77 108.713 40.0009 109.055 40.1586 109.432C40.3162 109.809 40.3974 110.213 40.3974 110.622C40.3974 111.031 40.3162 111.435 40.1586 111.812C40.0009 112.189 39.77 112.531 39.4791 112.818C39.1882 113.105 38.8432 113.331 38.4641 113.484C38.0851 113.636 37.6795 113.712 37.2709 113.706H28.7197C27.9015 113.706 27.1169 114.031 26.5383 114.61C25.9598 115.189 25.6348 115.973 25.6348 116.791C25.6348 117.61 25.9598 118.394 26.5383 118.973C27.1169 119.551 27.9015 119.876 28.7197 119.876H48.2068C49.0176 119.887 49.7915 120.217 50.3609 120.794C50.9304 121.372 51.2497 122.15 51.2497 122.961C51.2497 123.772 50.9304 124.55 50.3609 125.127C49.7915 125.704 49.0176 126.034 48.2068 126.045H44.6923C44.2838 126.04 43.8782 126.115 43.4991 126.268C43.1201 126.42 42.7751 126.647 42.4842 126.934C42.1933 127.221 41.9624 127.562 41.8047 127.939C41.6471 128.316 41.5659 128.721 41.5659 129.129C41.5659 129.538 41.6471 129.943 41.8047 130.32C41.9624 130.697 42.1933 131.038 42.4842 131.325C42.7751 131.612 43.1201 131.839 43.4991 131.991C43.8782 132.144 44.2838 132.219 44.6923 132.214H66.7103C67.1188 132.219 67.5244 132.144 67.9035 131.991C68.2826 131.839 68.6275 131.612 68.9184 131.325C69.2093 131.038 69.4403 130.697 69.5979 130.32C69.7556 129.943 69.8367 129.538 69.8367 129.129C69.8367 128.721 69.7556 128.316 69.5979 127.939C69.4403 127.562 69.2093 127.221 68.9184 126.934C68.6275 126.647 68.2826 126.42 67.9035 126.268C67.5244 126.115 67.1188 126.04 66.7103 126.045H64.8267C64.4182 126.051 64.0126 125.975 63.6335 125.822C63.2545 125.67 62.9095 125.444 62.6186 125.157C62.3277 124.87 62.0967 124.528 61.9391 124.151C61.7815 123.774 61.7003 123.369 61.7003 122.961C61.7003 122.552 61.7815 122.148 61.9391 121.771C62.0967 121.394 62.3277 121.052 62.6186 120.765C62.9095 120.478 63.2545 120.252 63.6335 120.099C64.0126 119.947 64.4182 119.871 64.8267 119.876H77.6819C78.5 119.876 79.2847 119.551 79.8633 118.973C80.4418 118.394 80.7668 117.61 80.7668 116.791C80.7668 115.973 80.4418 115.189 79.8633 114.61C79.2847 114.031 78.5 113.706 77.6819 113.706H77.6836Z" stroke="#E8E8E8" stroke-width="3" stroke-linecap="round" stroke-linejoin="round"/>
<path d="M230.89 193.615H238.422C239.24 193.615 240.025 193.94 240.603 194.519C241.182 195.098 241.507 195.882 241.507 196.7C241.507 197.519 241.182 198.303 240.603 198.882C240.025 199.46 239.24 199.785 238.422 199.785H234.905C234.087 199.785 233.302 200.11 232.724 200.689C232.145 201.267 231.82 202.051 231.82 202.869C231.82 203.687 232.145 204.472 232.724 205.05C233.302 205.629 234.087 205.954 234.905 205.954H256.929C257.747 205.954 258.531 205.629 259.109 205.05C259.688 204.472 260.013 203.687 260.013 202.869C260.013 202.051 259.688 201.267 259.109 200.689C258.531 200.11 257.747 199.785 256.929 199.785H255.043C254.225 199.785 253.441 199.46 252.862 198.882C252.284 198.303 251.959 197.519 251.959 196.7C251.959 195.882 252.284 195.098 252.862 194.519C253.441 193.94 254.225 193.615 255.043 193.615H272.002C272.82 193.615 273.604 193.291 274.183 192.712C274.761 192.134 275.086 191.349 275.086 190.531C275.086 189.713 274.761 188.929 274.183 188.351C273.604 187.772 272.82 187.447 272.002 187.447H230.888C230.07 187.447 229.286 187.772 228.708 188.351C228.129 188.929 227.804 189.713 227.804 190.531C227.804 191.349 228.129 192.134 228.708 192.712C229.286 193.291 230.07 193.615 230.888 193.615H230.89Z" stroke="#E8E8E8" stroke-width="3" stroke-linecap="round" stroke-linejoin="round"/>
<path d="M237.183 74.5264H67.3521V224.158H237.183V74.5264Z" fill="#DBDBDB"/>
<path d="M233.786 71.1284H63.9541V220.76H233.786V71.1284Z" fill="white"/>
<path d="M229 84.9463H69.0894V206.136H229V84.9463Z" fill="white"/>
<path d="M75.8848 106.466H78.0141C78.8673 106.466 79.5167 106.7 79.9622 107.168C80.4152 107.636 80.6417 108.259 80.6417 109.037V112.14C80.6417 113.65 79.8413 114.405 78.2406 114.405H75.8848V106.466ZM79.3959 108.924C79.3959 108.508 79.2901 108.206 79.0787 108.017C78.8749 107.821 78.5577 107.723 78.1273 107.723H77.1306V113.261H78.0594C78.4671 113.261 78.7918 113.201 79.0334 113.08C79.275 112.952 79.3959 112.676 79.3959 112.253V108.924Z" fill="#ED6B5F"/>
<path d="M81.8686 106.477H85.6515V107.723H83.1144V109.728H84.6661L84.315 110.917H83.1144V113.273H85.6288V114.405H81.8686V106.477Z" fill="#ED6B5F"/>
<path d="M87.1334 106.477H88.3793V113.261H91.2222V114.405H87.1334V106.477Z" fill="#ED6B5F"/>
<path d="M92.1218 106.477H95.9047V107.723H93.3677V109.728H94.9193L94.5682 110.917H93.3677V113.273H95.882V114.405H92.1218V106.477Z" fill="#ED6B5F"/>
<path d="M98.1342 107.734H96.5032V106.477H101.056V107.734H99.38V114.405H98.1342V107.734Z" fill="#ED6B5F"/>
<path d="M101.944 106.477H105.727V107.723H103.19V109.728H104.741L104.39 110.917H103.19V113.273H105.704V114.405H101.944V106.477Z" fill="#ED6B5F"/>
<path d="M107.208 106.466H109.338C110.191 106.466 110.84 106.7 111.286 107.168C111.739 107.636 111.965 108.259 111.965 109.037V112.14C111.965 113.65 111.165 114.405 109.564 114.405H107.208V106.466ZM110.72 108.924C110.72 108.508 110.614 108.206 110.402 108.017C110.199 107.821 109.881 107.723 109.451 107.723H108.454V113.261H109.383C109.791 113.261 110.116 113.201 110.357 113.08C110.599 112.952 110.72 112.676 110.72 112.253V108.924Z" fill="#ED6B5F"/>
<g opacity="0.3">
<path d="M225.216 104.148H72.2319V117.009H225.216V104.148Z" fill="#ED6C60"/>
</g>
<g opacity="0.3">
<path opacity="0.3" d="M224.596 91.1191H174.106V98.3843H224.596V91.1191Z" fill="#B4C6D0"/>
</g>
<path d="M205.973 93.8332L192.754 93.8794L192.76 95.6904L205.98 95.6442L205.973 93.8332Z" fill="#9C9B9B"/>
<path d="M222.519 93.7756L209.299 93.8218L209.306 95.6328L222.525 95.5866L222.519 93.7756Z" fill="#9C9B9B"/>
<path d="M189.435 93.8909L176.216 93.937L176.222 95.748L189.442 95.7019L189.435 93.8909Z" fill="#9C9B9B"/>
<g opacity="0.3">
<path opacity="0.3" d="M220.615 149.008H179.384V165.8H220.615V149.008Z" fill="#CFCFCF"/>
</g>
<path d="M193.562 151.7H182.337V162.925H193.562V151.7Z" fill="#00AFA7"/>
<path d="M217.754 151.622H196.621V153.905H217.754V151.622Z" fill="white"/>
<g opacity="0.5">
<path opacity="0.5" d="M220.615 165.8H179.384V168.083H220.615V165.8Z" fill="#F68B22"/>
</g>
<path d="M211.87 159.282H196.621V160.473H211.87V159.282Z" fill="#9C9B9B"/>
<path d="M211.87 156.809H196.621V157.999H211.87V156.809Z" fill="#9C9B9B"/>
<path d="M211.87 161.755H196.621V162.946H211.87V161.755Z" fill="#9C9B9B"/>
<path d="M220.755 168.408H179.074V148.677H220.755V168.408ZM179.356 168.097H220.474V148.966H179.356V168.097Z" fill="#9C9B9B"/>
<g opacity="0.3">
<path opacity="0.3" d="M169.632 125.373H128.401V142.165H169.632V125.373Z" fill="#CFCFCF"/>
</g>
<path d="M142.586 128.058H131.361V139.284H142.586V128.058Z" fill="#F68B22"/>
<path d="M166.77 127.988H145.637V130.271H166.77V127.988Z" fill="white"/>
<g opacity="0.5">
<path opacity="0.5" d="M169.632 142.166H128.401V144.449H169.632V142.166Z" fill="#F68B22"/>
</g>
<path d="M160.886 135.64H145.637V136.831H160.886V135.64Z" fill="#9C9B9B"/>
<path d="M160.886 133.174H145.637V134.365H160.886V133.174Z" fill="#9C9B9B"/>
<path d="M160.886 138.114H145.637V139.305H160.886V138.114Z" fill="#9C9B9B"/>
<path d="M169.78 144.766H128.091V125.035H169.78V144.766ZM128.38 144.484H169.498V125.324H128.38V144.484Z" fill="#9C9B9B"/>
<g opacity="0.3">
<path opacity="0.3" d="M220.615 178.498H179.384V195.29H220.615V178.498Z" fill="#CFCFCF"/>
</g>
<path d="M193.562 181.19H182.337V192.415H193.562V181.19Z" fill="#00AFA7"/>
<path d="M217.754 181.113H196.621V183.396H217.754V181.113Z" fill="white"/>
<g opacity="0.5">
<path opacity="0.5" d="M220.615 195.291H179.384V197.574H220.615V195.291Z" fill="#F68B22"/>
</g>
<path d="M211.87 188.772H196.621V189.963H211.87V188.772Z" fill="#9C9B9B"/>
<path d="M211.87 186.299H196.621V187.49H211.87V186.299Z" fill="#9C9B9B"/>
<path d="M211.87 191.246H196.621V192.437H211.87V191.246Z" fill="#9C9B9B"/>
<path d="M220.755 197.898H179.074V178.167H220.755V197.898ZM179.356 197.616H220.474V178.456H179.356V197.616Z" fill="#9C9B9B"/>
<g opacity="0.3">
<path opacity="0.3" d="M169.582 178.498H128.352V195.29H169.582V178.498Z" fill="#CFCFCF"/>
</g>
<path d="M142.53 181.19H131.305V192.415H142.53V181.19Z" fill="#00AFA7"/>
<path d="M166.721 181.113H145.588V183.396H166.721V181.113Z" fill="white"/>
<g opacity="0.5">
<path opacity="0.5" d="M169.582 195.291H128.352V197.574H169.582V195.291Z" fill="#F68B22"/>
</g>
<path d="M160.837 188.772H145.588V189.963H160.837V188.772Z" fill="#9C9B9B"/>
<path d="M160.837 186.299H145.588V187.49H160.837V186.299Z" fill="#9C9B9B"/>
<path d="M160.837 191.246H145.588V192.437H160.837V191.246Z" fill="#9C9B9B"/>
<path d="M169.723 197.898H128.042V178.167H169.723V197.898ZM128.324 197.616H169.441V178.456H128.324V197.616Z" fill="#9C9B9B"/>
<g opacity="0.3">
<path opacity="0.3" d="M118.783 178.498H77.5522V195.29H118.783V178.498Z" fill="#CFCFCF"/>
</g>
<path d="M91.7303 181.19H80.5049V192.415H91.7303V181.19Z" fill="#00AFA7"/>
<path d="M84.8594 186.785C84.7626 186.263 84.8088 185.725 84.9933 185.228C85.3808 184.481 86.9029 183.776 87.3468 184.044C87.7908 184.312 87.0438 184.749 87.2482 184.819C87.4526 184.889 87.6428 184.424 87.7767 184.53C88.3052 184.967 87.7203 186.877 87.7203 186.877L85.7754 186.052L84.8594 186.785Z" fill="#CFCFCF"/>
<path d="M87.1077 189.568L86.3256 190.787L85.6279 189.568L85.7548 188.082H86.8963L87.1077 189.568Z" fill="#3C3C3B"/>
<path d="M87.6082 186.419C87.6057 186.256 87.5701 186.095 87.5034 185.947C87.4367 185.798 87.3403 185.665 87.2203 185.555C87.1003 185.444 86.959 185.36 86.8052 185.306C86.6514 185.253 86.4882 185.231 86.3257 185.242C86.1626 185.23 85.9987 185.251 85.844 185.304C85.6894 185.357 85.5473 185.442 85.4264 185.552C85.3056 185.662 85.2087 185.796 85.1415 185.945C85.0744 186.094 85.0385 186.256 85.0361 186.419C85.0361 186.419 84.9868 187.328 84.9868 187.37C85.0301 187.731 85.1809 188.071 85.4197 188.345C85.6585 188.619 85.9742 188.814 86.3257 188.907C86.9176 188.907 87.6646 187.885 87.6646 187.37C87.6646 187.349 87.6082 186.419 87.6082 186.419Z" fill="#3C3C3B"/>
<path d="M85.0993 186.616C85.0525 186.587 84.996 186.577 84.9419 186.589C84.8879 186.601 84.8407 186.633 84.8104 186.68C84.6836 186.849 84.7681 187.483 85.0852 187.483C85.4024 187.483 85.0993 186.616 85.0993 186.616Z" fill="#3C3C3B"/>
<path d="M87.5518 186.616C87.5997 186.587 87.6573 186.577 87.7125 186.588C87.7677 186.6 87.8161 186.633 87.8477 186.68C87.9746 186.849 87.89 187.483 87.5729 187.483C87.2558 187.483 87.5518 186.616 87.5518 186.616Z" fill="#3C3C3B"/>
<path d="M115.922 181.113H94.7886V183.396H115.922V181.113Z" fill="white"/>
<g opacity="0.5">
<path opacity="0.5" d="M118.783 195.291H77.5522V197.574H118.783V195.291Z" fill="#F68B22"/>
</g>
<path d="M110.038 188.772H94.7886V189.963H110.038V188.772Z" fill="#9C9B9B"/>
<path d="M110.038 186.299H94.7886V187.49H110.038V186.299Z" fill="#9C9B9B"/>
<path d="M110.038 191.246H94.7886V192.437H110.038V191.246Z" fill="#9C9B9B"/>
<path d="M118.923 197.898H77.2422V178.167H118.923V197.898ZM77.5452 197.616H118.642V178.456H77.5452V197.616Z" fill="#9C9B9B"/>
<path d="M193.562 151.7H182.337V162.925H193.562V151.7Z" fill="#CFCFCF"/>
<path d="M193.541 181.19H182.315V192.415H193.541V181.19Z" fill="#CFCFCF"/>
<path d="M142.53 181.19H131.305V192.415H142.53V181.19Z" fill="#CFCFCF"/>
<path d="M91.7586 181.19H80.5332V192.415H91.7586V181.19Z" fill="#CFCFCF"/>
<path d="M149.147 144.787H148.625V178.308H149.147V144.787Z" fill="#9C9B9B"/>
<path d="M98.2695 172.678H97.748V178.111H98.2695V172.678Z" fill="#9C9B9B"/>
<path d="M200.052 172.959H199.531V178.392H200.052V172.959Z" fill="#9C9B9B"/>
<path d="M179.215 158.225H148.963V158.747H179.215V158.225Z" fill="#9C9B9B"/>
<path d="M200.003 172.614H98.0864V173.136H200.003V172.614Z" fill="#9C9B9B"/>
<g opacity="0.2">
<path opacity="0.2" d="M127.682 104.179C128.765 104.179 129.644 103.297 129.644 102.208C129.644 101.119 128.765 100.237 127.682 100.237C126.598 100.237 125.72 101.119 125.72 102.208C125.72 103.297 126.598 104.179 127.682 104.179Z" fill="#EC3725"/>
<path opacity="0.2" d="M104.921 175.889L102.595 176.135L102.108 178.432L104.134 179.608L105.872 178.035L104.921 175.889Z" fill="#EC3725"/>
<path opacity="0.2" d="M104.053 128.978H100.228V132.821H104.053V128.978Z" fill="#EC3725"/>
<path opacity="0.2" d="M94.6438 150.868L94.1592 154.071L97.1616 152.891L94.6438 150.868Z" fill="#EC3725"/>
<path opacity="0.2" d="M165.301 105.678L162.338 107.397L165.301 109.115V105.678Z" fill="#EC3725"/>
<path opacity="0.2" d="M192.878 131.454L192.295 129.647H190.404L189.82 131.454L191.349 132.57L192.878 131.454Z" fill="#EC3725"/>
<path opacity="0.2" d="M191.742 188.544L187.174 190.064L188.687 194.654L193.255 193.133L191.742 188.544Z" fill="#EC3725"/>
<path opacity="0.2" d="M188.74 157.566L184.078 159.716L188.263 162.697L188.74 157.566Z" fill="#EC3725"/>
<path opacity="0.2" d="M108.6 194.597L105.637 196.315L108.6 198.034V194.597Z" fill="#EC3725"/>
</g>
<path d="M233.786 70.9365H63.9546V85.2108H233.786V70.9365Z" fill="black" fill-opacity="0.12"/>
<path d="M233.786 83.8613H63.9541V98.1356H233.786V83.8613Z" fill="#F5F5F5"/>
<path d="M74.1807 77.627C74.1807 77.9817 74.0755 78.3285 73.8785 78.6234C73.6814 78.9183 73.4013 79.1482 73.0736 79.2839C72.7459 79.4197 72.3852 79.4552 72.0373 79.386C71.6894 79.3168 71.3699 79.146 71.119 78.8952C70.8682 78.6443 70.6974 78.3248 70.6282 77.9769C70.559 77.629 70.5945 77.2684 70.7303 76.9406C70.866 76.6129 71.0959 76.3328 71.3908 76.1358C71.6858 75.9387 72.0325 75.8335 72.3872 75.8335C72.8629 75.8335 73.3191 76.0225 73.6554 76.3588C73.9918 76.6951 74.1807 77.1513 74.1807 77.627Z" fill="#4D4D4D"/>
<path d="M80.7564 77.627C80.7564 77.9817 80.6512 78.3285 80.4541 78.6235C80.257 78.9184 79.9769 79.1483 79.6491 79.284C79.3214 79.4197 78.9607 79.4552 78.6128 79.386C78.2649 79.3167 77.9453 79.1459 77.6945 78.895C77.4437 78.6441 77.273 78.3245 77.2038 77.9765C77.1347 77.6286 77.1703 77.268 77.3061 76.9403C77.442 76.6125 77.6719 76.3325 77.9669 76.1355C78.2619 75.9385 78.6087 75.8334 78.9635 75.8335C79.199 75.8335 79.4322 75.8799 79.6497 75.97C79.8673 76.0602 80.065 76.1923 80.2315 76.3588C80.398 76.5254 80.53 76.7231 80.6201 76.9407C80.7102 77.1583 80.7565 77.3915 80.7564 77.627Z" fill="#4D4D4D"/>
<path d="M87.3321 77.627C87.3321 77.9817 87.2269 78.3285 87.0298 78.6234C86.8328 78.9183 86.5527 79.1482 86.2249 79.2839C85.8972 79.4197 85.5366 79.4552 85.1887 79.386C84.8408 79.3168 84.5212 79.146 84.2704 78.8952C84.0196 78.6443 83.8488 78.3248 83.7796 77.9769C83.7104 77.629 83.7459 77.2684 83.8816 76.9406C84.0174 76.6129 84.2473 76.3328 84.5422 76.1358C84.8371 75.9387 85.1839 75.8335 85.5386 75.8335C86.0143 75.8335 86.4705 76.0225 86.8068 76.3588C87.1431 76.6951 87.3321 77.1513 87.3321 77.627Z" fill="#4D4D4D"/>
<path d="M233.818 220.76C233.818 219.81 233.785 162.446 233.733 70.9364L233.818 71.053L64.0752 71.0836H64.0616L64.1692 70.9364C64.1658 124.122 64.163 174.772 64.1607 220.76L64.0616 220.624L233.818 220.76L64.0616 220.896H63.9631V220.76C63.9631 174.772 63.9574 124.122 63.9546 70.9364V70.7886H64.0752L233.818 70.8197H233.903V70.9364C233.851 162.446 233.818 219.811 233.818 220.76Z" fill="#263238"/>
<path d="M148.897 245.967C197.666 245.967 237.2 242.023 237.2 237.158C237.2 232.294 197.666 228.35 148.897 228.35C100.129 228.35 60.5947 232.294 60.5947 237.158C60.5947 242.023 100.129 245.967 148.897 245.967Z" fill="black" fill-opacity="0.12"/>
</svg>
