<svg width="317" height="283" viewBox="0 0 317 283" fill="none" xmlns="http://www.w3.org/2000/svg">
<path fill-rule="evenodd" clip-rule="evenodd" d="M80.879 278.404C74.2368 276.967 -5.56523 264.025 0.308768 168.58C6.18277 73.1348 13.557 44.4319 44.5824 33.9285C75.6078 23.425 151.027 -26.2641 210.209 20.9848C246.785 50.1841 305.058 110.475 309.483 125.414C313.908 140.352 323.151 169.017 307.909 186.052C268.007 230.647 278.417 286.658 212.297 282.812C146.177 278.967 112.461 285.237 80.8779 278.403" fill="#F9F9F9"/>
<path d="M78.8197 116.304H50.6942C50.2797 116.31 49.8682 116.233 49.4836 116.078C49.099 115.923 48.7489 115.694 48.4538 115.402C48.1587 115.111 47.9243 114.764 47.7644 114.382C47.6044 113.999 47.5221 113.589 47.5221 113.174C47.5221 112.76 47.6044 112.349 47.7644 111.967C47.9243 111.584 48.1587 111.238 48.4538 110.946C48.7489 110.655 49.099 110.426 49.4836 110.271C49.8682 110.116 50.2797 110.039 50.6942 110.045H53.7861C54.2006 110.051 54.6122 109.974 54.9968 109.819C55.3814 109.664 55.7314 109.435 56.0265 109.143C56.3217 108.852 56.556 108.505 56.716 108.123C56.8759 107.74 56.9583 107.33 56.9583 106.915C56.9583 106.501 56.8759 106.09 56.716 105.708C56.556 105.325 56.3217 104.979 56.0265 104.687C55.7314 104.396 55.3814 104.167 54.9968 104.012C54.6122 103.857 54.2006 103.78 53.7861 103.786H34.877C34.4625 103.78 34.051 103.857 33.6663 104.012C33.2817 104.167 32.9317 104.396 32.6366 104.687C32.3414 104.979 32.1071 105.325 31.9472 105.708C31.7872 106.09 31.7048 106.501 31.7048 106.915C31.7048 107.33 31.7872 107.74 31.9472 108.123C32.1071 108.505 32.3414 108.852 32.6366 109.143C32.9317 109.435 33.2817 109.664 33.6663 109.819C34.051 109.974 34.4625 110.051 34.877 110.045H37.816C38.2306 110.039 38.6421 110.116 39.0267 110.271C39.4113 110.426 39.7614 110.655 40.0565 110.946C40.3516 111.238 40.586 111.584 40.7459 111.967C40.9059 112.349 40.9882 112.76 40.9882 113.174C40.9882 113.589 40.9059 113.999 40.7459 114.382C40.586 114.764 40.3516 115.111 40.0565 115.402C39.7614 115.694 39.4113 115.923 39.0267 116.078C38.6421 116.233 38.2306 116.31 37.816 116.304H29.1398C28.3096 116.304 27.5135 116.634 26.9265 117.221C26.3395 117.808 26.0097 118.604 26.0097 119.434C26.0097 120.264 26.3395 121.06 26.9265 121.647C27.5135 122.234 28.3096 122.564 29.1398 122.564H48.9119C49.7345 122.575 50.5197 122.91 51.0975 123.495C51.6753 124.081 51.9993 124.871 51.9993 125.693C51.9993 126.516 51.6753 127.306 51.0975 127.892C50.5197 128.477 49.7345 128.812 48.9119 128.823H45.346C44.9314 128.817 44.5199 128.894 44.1353 129.049C43.7507 129.204 43.4007 129.433 43.1055 129.724C42.8104 130.016 42.5761 130.362 42.4161 130.745C42.2562 131.127 42.1738 131.538 42.1738 131.952C42.1738 132.367 42.2562 132.777 42.4161 133.16C42.5761 133.542 42.8104 133.889 43.1055 134.18C43.4007 134.472 43.7507 134.701 44.1353 134.856C44.5199 135.011 44.9314 135.088 45.346 135.082H67.6859C68.1005 135.088 68.512 135.011 68.8966 134.856C69.2812 134.701 69.6312 134.472 69.9264 134.18C70.2215 133.889 70.4558 133.542 70.6158 133.16C70.7757 132.777 70.8581 132.367 70.8581 131.952C70.8581 131.538 70.7757 131.127 70.6158 130.745C70.4558 130.362 70.2215 130.016 69.9264 129.724C69.6312 129.433 69.2812 129.204 68.8966 129.049C68.512 128.894 68.1005 128.817 67.6859 128.823H65.7748C65.3603 128.829 64.9488 128.752 64.5642 128.597C64.1796 128.442 63.8295 128.213 63.5344 127.922C63.2393 127.63 63.0049 127.283 62.845 126.901C62.685 126.519 62.6027 126.108 62.6027 125.693C62.6027 125.279 62.685 124.868 62.845 124.486C63.0049 124.104 63.2393 123.757 63.5344 123.465C63.8295 123.174 64.1796 122.945 64.5642 122.79C64.9488 122.635 65.3603 122.558 65.7748 122.564H78.818C79.6481 122.564 80.4443 122.234 81.0313 121.647C81.6183 121.06 81.948 120.264 81.948 119.434C81.948 118.604 81.6183 117.808 81.0313 117.221C80.4443 116.634 79.6481 116.304 78.818 116.304H78.8197Z" stroke="#E8E8E8" stroke-width="3" stroke-linecap="round" stroke-linejoin="round"/>
<path d="M234.267 197.381H241.909C242.739 197.381 243.535 197.711 244.122 198.298C244.709 198.885 245.039 199.681 245.039 200.512C245.039 201.342 244.709 202.138 244.122 202.725C243.535 203.312 242.739 203.642 241.909 203.642H238.34C237.51 203.642 236.714 203.971 236.127 204.558C235.54 205.145 235.211 205.941 235.211 206.771C235.211 207.601 235.54 208.397 236.127 208.983C236.714 209.57 237.51 209.9 238.34 209.9H260.686C261.516 209.9 262.312 209.57 262.899 208.983C263.486 208.397 263.815 207.601 263.815 206.771C263.815 205.941 263.486 205.145 262.899 204.558C262.312 203.971 261.516 203.642 260.686 203.642H258.773C257.943 203.642 257.147 203.312 256.56 202.725C255.973 202.138 255.643 201.342 255.643 200.512C255.643 199.681 255.973 198.885 256.56 198.298C257.147 197.711 257.943 197.381 258.773 197.381H275.98C276.81 197.381 277.606 197.052 278.193 196.465C278.779 195.878 279.109 195.082 279.109 194.252C279.109 193.422 278.779 192.626 278.193 192.04C277.606 191.453 276.81 191.123 275.98 191.123H234.265C233.435 191.123 232.639 191.453 232.052 192.04C231.465 192.626 231.136 193.422 231.136 194.252C231.136 195.082 231.465 195.878 232.052 196.465C232.639 197.052 233.435 197.381 234.265 197.381H234.267Z" stroke="#E8E8E8" stroke-width="3" stroke-linecap="round" stroke-linejoin="round"/>
<path d="M247.739 78.8491H75.424V230.669H247.739V78.8491Z" fill="#DBDBDB"/>
<path d="M244.292 75.4004H71.9764V227.22H244.292V75.4004Z" fill="white"/>
<path d="M244.292 167.834H71.9764V193.485H244.292V167.834Z" fill="white"/>
<path d="M97.7159 195.217C104.717 195.217 110.393 189.541 110.393 182.54C110.393 175.539 104.717 169.863 97.7159 169.863C90.7146 169.863 85.0388 175.539 85.0388 182.54C85.0388 189.541 90.7146 195.217 97.7159 195.217Z" fill="#FAFAFA"/>
<path d="M105.109 189.287C105.109 187.596 104.437 185.973 103.241 184.777C102.045 183.581 100.423 182.909 98.7312 182.909H96.9086C95.2171 182.909 93.5948 183.581 92.3987 184.777C91.2027 185.973 90.5307 187.596 90.5307 189.287V191.109H105.109V189.287Z" fill="#F68B22"/>
<path d="M97.8199 181.749C99.8328 181.749 101.465 180.117 101.465 178.105C101.465 176.092 99.8328 174.46 97.8199 174.46C95.807 174.46 94.1753 176.092 94.1753 178.105C94.1753 180.117 95.807 181.749 97.8199 181.749Z" fill="#F68B22"/>
<path d="M210.138 178.604C210.138 178.687 190.081 178.754 165.345 178.754C140.6 178.754 120.547 178.687 120.547 178.604C120.547 178.521 140.6 178.455 165.345 178.455C190.081 178.455 210.138 178.522 210.138 178.604Z" fill="#4D4D4D"/>
<path d="M158.364 186.773C158.364 186.855 149.84 186.922 139.328 186.922C128.817 186.922 120.29 186.855 120.29 186.773C120.29 186.69 128.812 186.623 139.328 186.623C149.844 186.623 158.364 186.69 158.364 186.773Z" fill="#4D4D4D"/>
<path d="M244.292 138.485H71.9764V167.834H244.292V138.485Z" fill="#F5F5F5"/>
<path d="M97.7159 165.913C104.717 165.913 110.393 160.237 110.393 153.236C110.393 146.234 104.717 140.559 97.7159 140.559C90.7146 140.559 85.0388 146.234 85.0388 153.236C85.0388 160.237 90.7146 165.913 97.7159 165.913Z" fill="#FAFAFA"/>
<path d="M105.109 159.983C105.109 158.292 104.437 156.67 103.241 155.474C102.045 154.277 100.423 153.605 98.7312 153.605H96.9086C95.2171 153.605 93.5948 154.277 92.3987 155.474C91.2027 156.67 90.5307 158.292 90.5307 159.983V161.805H105.109V159.983Z" fill="#F68B22"/>
<path d="M97.8199 152.445C99.8328 152.445 101.465 150.813 101.465 148.8C101.465 146.788 99.8328 145.156 97.8199 145.156C95.807 145.156 94.1753 146.788 94.1753 148.8C94.1753 150.813 95.807 152.445 97.8199 152.445Z" fill="#F68B22"/>
<path d="M210.138 149.3C210.138 149.383 190.081 149.45 165.345 149.45C140.6 149.45 120.547 149.383 120.547 149.3C120.547 149.218 140.6 149.151 165.345 149.151C190.081 149.151 210.138 149.218 210.138 149.3Z" fill="#4D4D4D"/>
<path d="M158.364 157.469C158.364 157.552 149.84 157.619 139.328 157.619C128.817 157.619 120.29 157.552 120.29 157.469C120.29 157.387 128.812 157.319 139.328 157.319C149.844 157.319 158.364 157.387 158.364 157.469Z" fill="#4D4D4D"/>
<path d="M244.292 197.677H71.9764V227.025H244.292V197.677Z" fill="#F5F5F5"/>
<path d="M97.7159 225.095C104.717 225.095 110.393 219.42 110.393 212.418C110.393 205.417 104.717 199.741 97.7159 199.741C90.7146 199.741 85.0388 205.417 85.0388 212.418C85.0388 219.42 90.7146 225.095 97.7159 225.095Z" fill="#FAFAFA"/>
<path d="M105.109 219.166C105.109 217.474 104.437 215.852 103.241 214.656C102.045 213.46 100.423 212.788 98.7312 212.788H96.9086C95.2171 212.788 93.5948 213.46 92.3987 214.656C91.2027 215.852 90.5307 217.474 90.5307 219.166V220.988H105.109V219.166Z" fill="#F68B22"/>
<path d="M97.8199 211.627C99.8328 211.627 101.465 209.995 101.465 207.982C101.465 205.97 99.8328 204.338 97.8199 204.338C95.807 204.338 94.1753 205.97 94.1753 207.982C94.1753 209.995 95.807 211.627 97.8199 211.627Z" fill="#F68B22"/>
<path d="M210.138 208.482C210.138 208.565 190.081 208.632 165.345 208.632C140.6 208.632 120.547 208.565 120.547 208.482C120.547 208.4 140.6 208.333 165.345 208.333C190.081 208.333 210.138 208.4 210.138 208.482Z" fill="#4D4D4D"/>
<path d="M158.364 216.651C158.364 216.734 149.84 216.801 139.328 216.801C128.817 216.801 120.29 216.734 120.29 216.651C120.29 216.569 128.812 216.501 139.328 216.501C149.844 216.501 158.364 216.569 158.364 216.651Z" fill="#4D4D4D"/>
<path d="M244.292 75.2061H71.9764V89.6891H244.292V75.2061Z" fill="black" fill-opacity="0.12"/>
<path d="M244.292 88.3203H71.9764V102.803H244.292V88.3203Z" fill="#F5F5F5"/>
<path d="M244.324 227.221C244.324 226.257 244.29 168.055 244.238 75.2066L244.324 75.325L72.0988 75.356H72.085L72.1942 75.2066C72.1908 129.17 72.1879 180.561 72.1856 227.221L72.085 227.083L244.324 227.221L72.085 227.359H71.9851V227.221C71.9851 180.561 71.9793 129.17 71.9764 75.2066V75.0566H72.0988L244.324 75.0882H244.41V75.2066C244.357 168.055 244.324 226.258 244.324 227.221Z" fill="#263238"/>
<path d="M243.05 107.808H72.9726V133.459H243.05V107.808Z" fill="white"/>
<path d="M97.7159 135.46C104.717 135.46 110.393 129.784 110.393 122.783C110.393 115.781 104.717 110.105 97.7159 110.105C90.7146 110.105 85.0388 115.781 85.0388 122.783C85.0388 129.784 90.7146 135.46 97.7159 135.46Z" fill="#FAFAFA"/>
<path d="M105.109 129.53C105.109 127.838 104.437 126.216 103.241 125.02C102.045 123.824 100.423 123.152 98.7313 123.152H96.9087C95.2171 123.152 93.5949 123.824 92.3988 125.02C91.2027 126.216 90.5308 127.838 90.5308 129.53V131.352H105.109V129.53Z" fill="#F68B22"/>
<path d="M97.82 121.992C99.8328 121.992 101.465 120.36 101.465 118.347C101.465 116.334 99.8328 114.703 97.82 114.703C95.8071 114.703 94.1754 116.334 94.1754 118.347C94.1754 120.36 95.8071 121.992 97.82 121.992Z" fill="#F68B22"/>
<path d="M210.138 118.847C210.138 118.93 190.081 118.997 165.345 118.997C140.6 118.997 120.547 118.93 120.547 118.847C120.547 118.764 140.6 118.698 165.345 118.698C190.081 118.698 210.138 118.765 210.138 118.847Z" fill="#4D4D4D"/>
<path d="M158.364 127.016C158.364 127.099 149.84 127.166 139.328 127.166C128.817 127.166 120.29 127.099 120.29 127.016C120.29 126.933 128.812 126.866 139.328 126.866C149.844 126.866 158.364 126.933 158.364 127.016Z" fill="#4D4D4D"/>
<path d="M158.162 251.647C207.644 251.647 247.756 247.646 247.756 242.71C247.756 237.774 207.644 233.773 158.162 233.773C108.681 233.773 68.568 237.774 68.568 242.71C68.568 247.646 108.681 251.647 158.162 251.647Z" fill="black" fill-opacity="0.12"/>
</svg>
