<svg width="179" height="166" viewBox="0 0 179 166" fill="none" xmlns="http://www.w3.org/2000/svg">
<path fill-rule="evenodd" clip-rule="evenodd" d="M45.7668 163.295C42.0082 162.449 -3.14918 154.833 0.174722 98.6619C3.49863 42.491 7.67147 25.5989 25.2277 19.4174C42.784 13.236 85.4611 -16.0068 118.95 11.7998C139.648 28.9841 172.622 64.4662 175.126 73.2578C177.63 82.0495 182.86 98.9189 174.235 108.945C151.656 135.19 157.547 168.153 120.132 165.89C82.717 163.626 63.6378 167.316 45.7661 163.295" fill="#F9F9F9"/>
<path d="M44.5148 58.0902H28.5995C28.3649 58.0935 28.1321 58.0483 27.9144 57.9572C27.6968 57.8662 27.4987 57.731 27.3317 57.5597C27.1647 57.3883 27.0321 57.1842 26.9416 56.9591C26.8511 56.734 26.8045 56.4924 26.8045 56.2484C26.8045 56.0045 26.8511 55.7629 26.9416 55.5378C27.0321 55.3127 27.1647 55.1086 27.3317 54.9372C27.4987 54.7659 27.6968 54.6307 27.9144 54.5397C28.1321 54.4486 28.3649 54.4034 28.5995 54.4067H30.3491C30.5837 54.41 30.8165 54.3648 31.0342 54.2737C31.2518 54.1827 31.4499 54.0475 31.6169 53.8762C31.7839 53.7048 31.9165 53.5007 32.007 53.2756C32.0975 53.0505 32.1441 52.8089 32.1441 52.5649C32.1441 52.321 32.0975 52.0794 32.007 51.8543C31.9165 51.6292 31.7839 51.4251 31.6169 51.2537C31.4499 51.0824 31.2518 50.9472 31.0342 50.8562C30.8165 50.7651 30.5837 50.7199 30.3491 50.7232H19.6491C19.4145 50.7199 19.1816 50.7651 18.964 50.8562C18.7463 50.9472 18.5483 51.0824 18.3813 51.2537C18.2143 51.4251 18.0817 51.6292 17.9912 51.8543C17.9006 52.0794 17.854 52.321 17.854 52.5649C17.854 52.8089 17.9006 53.0505 17.9912 53.2756C18.0817 53.5007 18.2143 53.7048 18.3813 53.8762C18.5483 54.0475 18.7463 54.1827 18.964 54.2737C19.1816 54.3648 19.4145 54.41 19.6491 54.4067H21.3122C21.5467 54.4034 21.7796 54.4486 21.9972 54.5397C22.2149 54.6307 22.413 54.7659 22.58 54.9372C22.747 55.1086 22.8796 55.3127 22.9701 55.5378C23.0606 55.7629 23.1072 56.0045 23.1072 56.2484C23.1072 56.4924 23.0606 56.734 22.9701 56.9591C22.8796 57.1842 22.747 57.3883 22.58 57.5597C22.413 57.731 22.2149 57.8662 21.9972 57.9572C21.7796 58.0483 21.5467 58.0935 21.3122 58.0902H16.4025C15.9328 58.0902 15.4823 58.2843 15.1501 58.6297C14.818 58.9752 14.6313 59.4437 14.6313 59.9323C14.6313 60.4208 14.818 60.8894 15.1501 61.2348C15.4823 61.5803 15.9328 61.7744 16.4025 61.7744H27.5909C28.0564 61.7809 28.5007 61.9779 28.8277 62.3225C29.1547 62.6672 29.338 63.1319 29.338 63.6161C29.338 64.1003 29.1547 64.565 28.8277 64.9097C28.5007 65.2544 28.0564 65.4513 27.5909 65.4579H25.5731C25.3385 65.4546 25.1057 65.4998 24.888 65.5908C24.6704 65.6819 24.4723 65.8171 24.3053 65.9884C24.1383 66.1598 24.0057 66.3639 23.9152 66.589C23.8247 66.8141 23.7781 67.0556 23.7781 67.2996C23.7781 67.5436 23.8247 67.7852 23.9152 68.0103C24.0057 68.2354 24.1383 68.4395 24.3053 68.6109C24.4723 68.7822 24.6704 68.9173 24.888 69.0084C25.1057 69.0995 25.3385 69.1447 25.5731 69.1414H38.2145C38.4491 69.1447 38.682 69.0995 38.8996 69.0084C39.1173 68.9173 39.3153 68.7822 39.4823 68.6109C39.6493 68.4395 39.782 68.2354 39.8725 68.0103C39.963 67.7852 40.0096 67.5436 40.0096 67.2996C40.0096 67.0556 39.963 66.8141 39.8725 66.589C39.782 66.3639 39.6493 66.1598 39.4823 65.9884C39.3153 65.8171 39.1173 65.6819 38.8996 65.5908C38.682 65.4998 38.4491 65.4546 38.2145 65.4579H37.1331C36.8986 65.4612 36.6657 65.416 36.4481 65.3249C36.2304 65.2338 36.0323 65.0987 35.8653 64.9274C35.6983 64.756 35.5657 64.5519 35.4752 64.3268C35.3847 64.1017 35.3381 63.8601 35.3381 63.6161C35.3381 63.3721 35.3847 63.1306 35.4752 62.9055C35.5657 62.6804 35.6983 62.4762 35.8653 62.3049C36.0323 62.1335 36.2304 61.9984 36.4481 61.9073C36.6657 61.8163 36.8986 61.7711 37.1331 61.7744H44.5138C44.9836 61.7744 45.4341 61.5803 45.7662 61.2348C46.0984 60.8894 46.285 60.4208 46.285 59.9323C46.285 59.4437 46.0984 58.9752 45.7662 58.6297C45.4341 58.2843 44.9836 58.0902 44.5138 58.0902H44.5148Z" stroke="#E8E8E8" stroke-width="3" stroke-linecap="round" stroke-linejoin="round"/>
<path d="M132.477 105.806H136.802C137.271 105.806 137.722 106 138.054 106.345C138.386 106.691 138.573 107.159 138.573 107.648C138.573 108.136 138.386 108.605 138.054 108.95C137.722 109.296 137.271 109.49 136.802 109.49H134.782C134.313 109.49 133.862 109.684 133.53 110.029C133.198 110.375 133.011 110.843 133.011 111.331C133.011 111.82 133.198 112.288 133.53 112.634C133.862 112.979 134.313 113.173 134.782 113.173H147.427C147.897 113.173 148.347 112.979 148.679 112.634C149.011 112.288 149.198 111.82 149.198 111.331C149.198 110.843 149.011 110.375 148.679 110.029C148.347 109.684 147.897 109.49 147.427 109.49H146.345C145.875 109.49 145.425 109.296 145.092 108.95C144.76 108.605 144.574 108.136 144.574 107.648C144.574 107.159 144.76 106.691 145.092 106.345C145.425 106 145.875 105.806 146.345 105.806H156.081C156.551 105.806 157.001 105.612 157.334 105.266C157.666 104.921 157.852 104.452 157.852 103.964C157.852 103.476 157.666 103.007 157.334 102.662C157.001 102.316 156.551 102.122 156.081 102.122H132.476C132.007 102.122 131.556 102.316 131.224 102.662C130.892 103.007 130.706 103.476 130.706 103.964C130.706 104.452 130.892 104.921 131.224 105.266C131.556 105.612 132.007 105.806 132.476 105.806H132.477Z" stroke="#E8E8E8" stroke-width="3" stroke-linecap="round" stroke-linejoin="round"/>
<path d="M86.789 148.486C114.789 148.486 137.487 146.131 137.487 143.226C137.487 140.321 114.789 137.967 86.789 137.967C58.789 137.967 36.0906 140.321 36.0906 143.226C36.0906 146.131 58.789 148.486 86.789 148.486Z" fill="black" fill-opacity="0.12"/>
<path d="M78.0384 58.2572C80.377 50.7713 90.9717 50.7713 93.3104 58.2572L95.7096 65.9367C96.7531 69.2768 99.8463 71.5511 103.346 71.5511H111.757C119.431 71.5511 122.702 81.3077 116.58 85.9338L109.242 91.4788C106.547 93.5148 105.422 97.0236 106.429 100.247L109.103 108.808C111.423 116.234 102.851 122.266 96.6442 117.576L90.4973 112.931C87.6436 110.775 83.7052 110.775 80.8514 112.931L74.7046 117.576C68.4973 122.266 59.9256 116.234 62.2456 108.808L64.92 100.247C65.9271 97.0236 64.8014 93.5148 62.1069 91.4788L54.7686 85.9338C48.6463 81.3077 51.918 71.5511 59.5916 71.5511H68.0031C71.5024 71.5511 74.5957 69.2768 75.6391 65.9367L78.0384 58.2572Z" fill="#C4C4C4" fill-opacity="0.4"/>
<path d="M117.742 48.0415C118.327 46.17 120.976 46.17 121.56 48.0415L121.695 48.4718C121.956 49.3068 122.729 49.8754 123.604 49.8754L124.201 49.8754C126.119 49.8754 126.937 52.3146 125.407 53.4711L124.79 53.9367C124.117 54.4457 123.835 55.3229 124.087 56.1288L124.29 56.7793C124.87 58.6359 122.727 60.144 121.176 58.9714L120.857 58.7309C120.144 58.1918 119.159 58.1918 118.446 58.7309L118.127 58.9714C116.576 60.144 114.433 58.6359 115.013 56.7793L115.216 56.1288C115.468 55.3229 115.186 54.4457 114.513 53.9367L113.896 53.4711C112.366 52.3146 113.184 49.8754 115.102 49.8754L115.699 49.8754C116.574 49.8754 117.347 49.3068 117.608 48.4718L117.742 48.0415Z" fill="#F68B22"/>
<path d="M39.709 110.938C40.2937 109.067 42.9423 109.067 43.527 110.938L43.6614 111.368C43.9223 112.203 44.6956 112.772 45.5704 112.772L46.1674 112.772C48.0858 112.772 48.9037 115.211 47.3731 116.368L46.7569 116.833C46.0832 117.342 45.8018 118.219 46.0536 119.025L46.2568 119.676C46.8368 121.532 44.6939 123.04 43.1421 121.868L42.8237 121.627C42.1103 121.088 41.1257 121.088 40.4122 121.627L40.0939 121.868C38.5421 123.04 36.3991 121.532 36.9791 119.676L37.1824 119.025C37.4341 118.219 37.1527 117.342 36.4791 116.833L35.8629 116.368C34.3323 115.211 35.1502 112.772 37.0686 112.772L37.6655 112.772C38.5404 112.772 39.3137 112.203 39.5745 111.368L39.709 110.938Z" fill="#F68B22"/>
</svg>
