<svg width="179" height="166" viewBox="0 0 179 166" fill="none" xmlns="http://www.w3.org/2000/svg">
<path fill-rule="evenodd" clip-rule="evenodd" d="M45.7668 163.295C42.0082 162.449 -3.14918 154.833 0.174722 98.6619C3.49863 42.491 7.67147 25.5989 25.2277 19.4174C42.784 13.236 85.4611 -16.0068 118.95 11.7998C139.648 28.9841 172.622 64.4662 175.126 73.2578C177.63 82.0495 182.86 98.9189 174.235 108.945C151.656 135.19 157.547 168.153 120.132 165.89C82.717 163.626 63.6378 167.316 45.7661 163.295" fill="#F9F9F9"/>
<path opacity="0.49" d="M120.159 49.9879V125.762C120.159 126.104 120.095 126.443 119.969 126.76C119.843 127.076 119.659 127.363 119.426 127.606C119.193 127.848 118.917 128.04 118.613 128.171C118.309 128.302 117.983 128.37 117.654 128.37H56.9534C56.6242 128.37 56.2982 128.302 55.9941 128.171C55.6901 128.04 55.4138 127.848 55.1811 127.606C54.9485 127.363 54.7639 127.076 54.6381 126.76C54.5123 126.443 54.4476 126.104 54.4478 125.762V49.9879C54.4476 49.6455 54.5123 49.3065 54.6381 48.9901C54.7639 48.6737 54.9485 48.3862 55.1811 48.144C55.4138 47.9018 55.6901 47.7096 55.9941 47.5784C56.2982 47.4472 56.6242 47.3796 56.9534 47.3795H117.654C117.983 47.3796 118.309 47.4472 118.613 47.5784C118.917 47.7096 119.193 47.9018 119.426 48.144C119.658 48.3862 119.843 48.6737 119.969 48.9901C120.095 49.3065 120.159 49.6455 120.159 49.9879V49.9879Z" fill="#CCCCCC"/>
<path d="M126.781 34.7028H105.417C104.326 34.7028 103.441 35.6229 103.441 36.7579V48.4649C103.441 49.5999 104.326 50.52 105.417 50.52H126.781C127.872 50.52 128.757 49.5999 128.757 48.4649V36.7579C128.757 35.6229 127.872 34.7028 126.781 34.7028Z" fill="#F68B22"/>
<path d="M117.722 47.453V123.227C117.722 123.569 117.658 123.908 117.532 124.225C117.406 124.541 117.222 124.829 116.989 125.071C116.756 125.313 116.48 125.505 116.176 125.636C115.872 125.768 115.546 125.835 115.217 125.835H54.5164C54.1872 125.835 53.8612 125.767 53.5571 125.636C53.253 125.505 52.9768 125.313 52.7441 125.071C52.5114 124.829 52.3269 124.541 52.2011 124.225C52.0753 123.908 52.0106 123.569 52.0107 123.227V47.453C52.0106 47.1106 52.0753 46.7715 52.2011 46.4552C52.3269 46.1388 52.5114 45.8513 52.7441 45.6091C52.9768 45.3668 53.253 45.1747 53.5571 45.0435C53.8612 44.9123 54.1872 44.8447 54.5164 44.8445H115.217C115.546 44.8447 115.872 44.9123 116.176 45.0435C116.48 45.1747 116.756 45.3668 116.989 45.6091C117.221 45.8513 117.406 46.1388 117.532 46.4552C117.658 46.7715 117.722 47.1106 117.722 47.453V47.453Z" fill="#E8E8E8"/>
<path d="M109.838 67.7425V89.8876C109.838 90.0394 109.809 90.1898 109.753 90.33C109.697 90.4703 109.615 90.5978 109.512 90.7051C109.409 90.8125 109.287 90.8976 109.152 90.9557C109.017 91.0137 108.872 91.0436 108.726 91.0435H60.4366C60.1419 91.0433 59.8594 90.9214 59.651 90.7047C59.4426 90.4879 59.3255 90.1941 59.3252 89.8876V67.7425C59.3251 67.5907 59.3538 67.4404 59.4097 67.3001C59.4655 67.1598 59.5474 67.0324 59.6506 66.925C59.7538 66.8177 59.8764 66.7325 60.0112 66.6745C60.1461 66.6164 60.2907 66.5865 60.4366 66.5866H108.726C108.919 66.5864 109.11 66.639 109.278 66.739C109.446 66.8391 109.586 66.9832 109.684 67.157C109.785 67.3341 109.838 67.5364 109.838 67.7425V67.7425Z" fill="#CCCCCC"/>
<path d="M109.838 67.7425V89.8876C109.838 90.0394 109.809 90.1898 109.753 90.33C109.698 90.4703 109.616 90.5978 109.512 90.7051C109.409 90.8125 109.287 90.8976 109.152 90.9557C109.017 91.0137 108.872 91.0436 108.726 91.0435H60.4368C60.2388 91.0436 60.0443 90.9885 59.8738 90.8838C59.7713 90.7062 59.7174 90.5029 59.7178 90.2957V68.1507C59.7175 67.8444 59.8342 67.5507 60.0422 67.3339C60.2501 67.1171 60.5323 66.9951 60.8268 66.9947H109.118C109.218 66.9683 109.322 66.9692 109.421 66.9975C109.52 67.0257 109.61 67.0802 109.683 67.1556C109.755 67.2311 109.808 67.3249 109.835 67.4278C109.862 67.5307 109.863 67.6392 109.837 67.7425H109.838Z" fill="#E0E0E0"/>
<g style="mix-blend-mode:multiply" opacity="0.24">
<path d="M117.722 76.6122V101.068H81.2862C81.1403 101.068 80.9957 101.038 80.8608 100.98C80.726 100.922 80.6034 100.837 80.5002 100.73C80.397 100.622 80.3151 100.495 80.2593 100.355C80.2034 100.214 80.1747 100.064 80.1748 99.9122V77.7671C80.1747 77.6153 80.2034 77.465 80.2593 77.3247C80.3151 77.1844 80.397 77.057 80.5002 76.9496C80.6034 76.8423 80.726 76.7571 80.8608 76.6991C80.9957 76.641 81.1403 76.6111 81.2862 76.6112L117.722 76.6122Z" fill="#35363B"/>
</g>
<path d="M85.0224 106.77V119.272C85.0208 119.494 84.9353 119.707 84.7844 119.864C84.6334 120.021 84.4291 120.11 84.2156 120.111H54.8283C54.7223 120.111 54.6174 120.09 54.5194 120.048C54.4215 120.006 54.3326 119.944 54.2576 119.866C54.1827 119.788 54.1233 119.695 54.0828 119.594C54.0423 119.492 54.0214 119.383 54.0215 119.272V106.77C54.0208 106.632 54.0535 106.496 54.1166 106.375C54.1854 106.241 54.288 106.129 54.4133 106.05C54.5387 105.972 54.6821 105.931 54.8283 105.931H84.2156C84.3216 105.931 84.4265 105.953 84.5244 105.995C84.6223 106.037 84.7113 106.099 84.7862 106.177C84.8611 106.255 84.9206 106.347 84.9611 106.449C85.0016 106.551 85.0224 106.66 85.0224 106.77V106.77Z" fill="#E0E0E0"/>
<path d="M84.8176 106.945V119.767C84.8181 119.788 84.8173 119.809 84.8152 119.83C84.7404 119.919 84.6482 119.99 84.5447 120.038C84.4413 120.087 84.3291 120.112 84.2156 120.111H54.8283C54.7223 120.112 54.6174 120.09 54.5194 120.048C54.4215 120.006 54.3326 119.944 54.2576 119.866C54.1827 119.788 54.1233 119.695 54.0828 119.594C54.0423 119.492 54.0214 119.383 54.0215 119.272V106.77C54.0208 106.632 54.0535 106.496 54.1166 106.375C54.2219 106.304 54.3445 106.266 54.47 106.266H84.1644C84.3376 106.266 84.5038 106.337 84.6263 106.465C84.7488 106.592 84.8176 106.765 84.8176 106.945Z" fill="#E0E0E0"/>
<g style="mix-blend-mode:multiply" opacity="0.24">
<path d="M82.0099 108.991V121.493C82.0099 121.603 81.9891 121.712 81.9486 121.814C81.908 121.916 81.8486 122.008 81.7737 122.086C81.6988 122.164 81.6098 122.226 81.5119 122.268C81.414 122.31 81.309 122.332 81.2031 122.332H52.0107V108.152H81.2031C81.309 108.152 81.414 108.173 81.5119 108.215C81.6098 108.258 81.6988 108.319 81.7737 108.397C81.8486 108.475 81.908 108.568 81.9486 108.67C81.9891 108.771 82.0099 108.881 82.0099 108.991V108.991Z" fill="#35363B"/>
</g>
<path d="M115.799 106.77V119.272C115.798 119.494 115.712 119.707 115.561 119.864C115.41 120.021 115.206 120.11 114.992 120.111H87.0675C86.9616 120.111 86.8566 120.09 86.7587 120.048C86.6608 120.006 86.5718 119.944 86.4969 119.866C86.422 119.788 86.3626 119.695 86.322 119.594C86.2815 119.492 86.2607 119.383 86.2608 119.272V106.77C86.2601 106.632 86.2928 106.496 86.3558 106.375C86.4246 106.241 86.5272 106.129 86.6526 106.05C86.7779 105.972 86.9214 105.931 87.0675 105.931H114.992C115.098 105.931 115.203 105.953 115.301 105.995C115.399 106.037 115.488 106.099 115.563 106.177C115.638 106.255 115.697 106.347 115.738 106.449C115.778 106.551 115.799 106.66 115.799 106.77Z" fill="#E0E0E0"/>
<path d="M115.594 106.945V119.767C115.594 119.788 115.594 119.809 115.592 119.83C115.517 119.919 115.425 119.99 115.321 120.038C115.218 120.087 115.105 120.112 114.992 120.111H87.067C86.9611 120.112 86.8561 120.09 86.7582 120.048C86.6603 120.006 86.5713 119.944 86.4964 119.866C86.4215 119.788 86.3621 119.695 86.3215 119.594C86.281 119.492 86.2602 119.383 86.2603 119.272V106.77C86.2596 106.632 86.2923 106.496 86.3553 106.375C86.4606 106.304 86.5833 106.266 86.7087 106.266H114.941C115.114 106.266 115.28 106.337 115.403 106.465C115.525 106.592 115.594 106.765 115.594 106.945V106.945Z" fill="#E0E0E0"/>
<g style="mix-blend-mode:multiply" opacity="0.24">
<path d="M117.722 110.692V123.227C117.723 123.827 117.524 124.409 117.159 124.875H98.9108C98.8048 124.875 98.6998 124.853 98.6019 124.811C98.504 124.769 98.415 124.707 98.3401 124.629C98.2652 124.551 98.2057 124.459 98.1652 124.357C98.1247 124.255 98.1039 124.146 98.104 124.035V111.533C98.1037 111.31 98.1886 111.097 98.3399 110.939C98.4911 110.781 98.6965 110.692 98.9108 110.692H117.722Z" fill="#35363B"/>
</g>
<path d="M126.508 72.1708H78.2179C77.6046 72.1708 77.1074 72.6878 77.1074 73.3257V95.4705C77.1074 96.1083 77.6046 96.6254 78.2179 96.6254H126.508C127.121 96.6254 127.618 96.1083 127.618 95.4705V73.3257C127.618 72.6878 127.121 72.1708 126.508 72.1708Z" fill="#FAFAFA"/>
<path d="M78.2441 95.3582L126.631 73.3777" stroke="white" stroke-miterlimit="10"/>
<path d="M126.631 95.3582L78.2441 73.3777" stroke="white" stroke-miterlimit="10"/>
<path d="M129.749 70.2967H74.9761V98.9017H129.749V70.2967Z" stroke="#42444F" stroke-width="1.508" stroke-miterlimit="10" stroke-linecap="round"/>
<path d="M75.7564 69.4856H74.1963V71.1082H75.7564V69.4856Z" fill="#42444F"/>
<path d="M103.344 69.4855H101.784V71.1081H103.344V69.4855Z" fill="#42444F"/>
<path d="M130.528 69.4855H128.968V71.1081H130.528V69.4855Z" fill="#42444F"/>
<path d="M75.756 83.7881H74.1958V85.4107H75.756V83.7881Z" fill="#42444F"/>
<path d="M130.528 83.788H128.968V85.4106H130.528V83.788Z" fill="#42444F"/>
<path d="M75.756 98.0903H74.1958V99.7129H75.756V98.0903Z" fill="#42444F"/>
<path d="M103.344 98.0903H101.784V99.7129H103.344V98.0903Z" fill="#42444F"/>
<path d="M130.528 98.0903H128.968V99.7129H130.528V98.0903Z" fill="#42444F"/>
<path d="M73.7923 50.9915V54.5734C73.7924 54.7242 73.7639 54.8736 73.7085 55.013C73.653 55.1523 73.5717 55.279 73.4692 55.3856C73.3666 55.4923 73.2448 55.5769 73.1108 55.6345C72.9768 55.6922 72.8332 55.7218 72.6881 55.7217H37.3488C37.056 55.7215 36.7752 55.6005 36.5682 55.3852C36.3611 55.1699 36.2448 54.8779 36.2446 54.5734V50.9915C36.2448 50.687 36.3611 50.395 36.5682 50.1797C36.7752 49.9644 37.056 49.8433 37.3488 49.8432H72.6881C72.8332 49.8431 72.9768 49.8727 73.1108 49.9303C73.2448 49.988 73.3666 50.0726 73.4692 50.1792C73.5717 50.2859 73.653 50.4125 73.7085 50.5519C73.7639 50.6913 73.7924 50.8407 73.7923 50.9915V50.9915Z" fill="#FAFAFA"/>
<path d="M73.7918 51.4596V54.5725C73.7916 54.877 73.6753 55.169 73.4682 55.3843C73.2612 55.5996 72.9804 55.7207 72.6876 55.7208H37.3483C37.0555 55.7207 36.7747 55.5996 36.5677 55.3843C36.3606 55.169 36.2443 54.877 36.2441 54.5725V51.4596C36.2443 51.1551 36.3606 50.8631 36.5677 50.6478C36.7747 50.4324 37.0555 50.3114 37.3483 50.3113H72.6876C72.8327 50.3111 72.9763 50.3408 73.1103 50.3984C73.2443 50.4561 73.3661 50.5407 73.4687 50.6473C73.5712 50.754 73.6525 50.8806 73.708 51.02C73.7634 51.1594 73.7919 51.3088 73.7918 51.4596V51.4596Z" fill="#FAFAFA"/>
<path d="M46.6781 104.3H78.2595C78.3656 104.3 78.4707 104.322 78.5687 104.364C78.6667 104.406 78.7558 104.468 78.8309 104.546C78.9059 104.624 78.9654 104.716 79.006 104.818C79.0466 104.92 79.0675 105.03 79.0675 105.14V117.642C79.0675 117.865 78.9825 118.078 78.8311 118.236C78.6797 118.393 78.4744 118.482 78.2603 118.482H46.6779C46.5718 118.482 46.4668 118.46 46.3689 118.418C46.2709 118.376 46.1819 118.314 46.107 118.236C46.032 118.158 45.9725 118.065 45.932 117.963C45.8914 117.862 45.8706 117.752 45.8706 117.642V105.14C45.8706 104.917 45.9557 104.704 46.1071 104.546C46.2586 104.389 46.4639 104.3 46.6781 104.3V104.3Z" fill="#FAFAFA"/>
<path d="M101.243 109.399H132.825C132.931 109.399 133.036 109.421 133.134 109.463C133.232 109.505 133.321 109.567 133.396 109.645C133.471 109.723 133.53 109.816 133.571 109.918C133.612 110.019 133.632 110.129 133.632 110.239V122.741C133.632 122.964 133.547 123.177 133.396 123.335C133.245 123.492 133.039 123.581 132.825 123.581H101.243C101.029 123.581 100.823 123.493 100.672 123.335C100.521 123.178 100.436 122.964 100.436 122.741V110.239C100.436 110.016 100.521 109.803 100.672 109.645C100.823 109.488 101.029 109.399 101.243 109.399V109.399Z" fill="#FAFAFA"/>
<path d="M129.949 114.363H125.092C124.826 114.363 124.609 114.588 124.609 114.865V121.187C124.609 121.465 124.826 121.69 125.092 121.69H129.949C130.216 121.69 130.432 121.465 130.432 121.187V114.865C130.432 114.588 130.216 114.363 129.949 114.363Z" fill="#C6CCD6"/>
<path d="M122.818 114.363H117.961C117.694 114.363 117.478 114.588 117.478 114.865V121.187C117.478 121.465 117.694 121.69 117.961 121.69H122.818C123.084 121.69 123.301 121.465 123.301 121.187V114.865C123.301 114.588 123.084 114.363 122.818 114.363Z" fill="#C6CCD6"/>
<path d="M115.686 114.363H110.829C110.562 114.363 110.346 114.588 110.346 114.865V121.187C110.346 121.465 110.562 121.69 110.829 121.69H115.686C115.953 121.69 116.169 121.465 116.169 121.187V114.865C116.169 114.588 115.953 114.363 115.686 114.363Z" fill="#C6CCD6"/>
<path d="M108.554 114.363H103.697C103.43 114.363 103.214 114.588 103.214 114.865V121.187C103.214 121.465 103.43 121.69 103.697 121.69H108.554C108.821 121.69 109.037 121.465 109.037 121.187V114.865C109.037 114.588 108.821 114.363 108.554 114.363Z" fill="#C6CCD6"/>
<path d="M129.873 114.253H125.016C124.749 114.253 124.533 114.478 124.533 114.756V121.078C124.533 121.355 124.749 121.58 125.016 121.58H129.873C130.14 121.58 130.356 121.355 130.356 121.078V114.756C130.356 114.478 130.14 114.253 129.873 114.253Z" fill="white"/>
<path d="M122.741 114.253H117.884C117.618 114.253 117.401 114.478 117.401 114.756V121.078C117.401 121.355 117.618 121.58 117.884 121.58H122.741C123.008 121.58 123.224 121.355 123.224 121.078V114.756C123.224 114.478 123.008 114.253 122.741 114.253Z" fill="white"/>
<path d="M115.61 114.253H110.753C110.486 114.253 110.27 114.478 110.27 114.756V121.078C110.27 121.355 110.486 121.58 110.753 121.58H115.61C115.876 121.58 116.093 121.355 116.093 121.078V114.756C116.093 114.478 115.876 114.253 115.61 114.253Z" fill="white"/>
<path d="M108.477 114.253H103.62C103.353 114.253 103.137 114.478 103.137 114.756V121.078C103.137 121.355 103.353 121.58 103.62 121.58H108.477C108.744 121.58 108.96 121.355 108.96 121.078V114.756C108.96 114.478 108.744 114.253 108.477 114.253Z" fill="white"/>
<path d="M129.65 114.922H125.239C125.143 114.922 125.065 115.004 125.065 115.104V120.729C125.065 120.83 125.143 120.911 125.239 120.911H129.65C129.746 120.911 129.824 120.83 129.824 120.729V115.104C129.824 115.004 129.746 114.922 129.65 114.922Z" fill="#CCCCCC"/>
<path d="M122.741 114.253H117.884C117.617 114.253 117.401 114.478 117.401 114.756V121.078C117.401 121.355 117.617 121.58 117.884 121.58H122.741C123.008 121.58 123.224 121.355 123.224 121.078V114.756C123.224 114.478 123.008 114.253 122.741 114.253Z" fill="white"/>
<path d="M122.518 114.923H118.107C118.011 114.923 117.933 115.004 117.933 115.104V120.73C117.933 120.83 118.011 120.911 118.107 120.911H122.518C122.614 120.911 122.692 120.83 122.692 120.73V115.104C122.692 115.004 122.614 114.923 122.518 114.923Z" fill="#CCCCCC"/>
<path d="M115.609 114.253H110.752C110.485 114.253 110.269 114.478 110.269 114.756V121.078C110.269 121.355 110.485 121.58 110.752 121.58H115.609C115.876 121.58 116.092 121.355 116.092 121.078V114.756C116.092 114.478 115.876 114.253 115.609 114.253Z" fill="white"/>
<path d="M115.386 114.923H110.975C110.879 114.923 110.801 115.004 110.801 115.104V120.73C110.801 120.83 110.879 120.911 110.975 120.911H115.386C115.482 120.911 115.56 120.83 115.56 120.73V115.104C115.56 115.004 115.482 114.923 115.386 114.923Z" fill="#CCCCCC"/>
<path d="M108.477 114.253H103.62C103.353 114.253 103.137 114.478 103.137 114.756V121.078C103.137 121.355 103.353 121.58 103.62 121.58H108.477C108.744 121.58 108.96 121.355 108.96 121.078V114.756C108.96 114.478 108.744 114.253 108.477 114.253Z" fill="white"/>
<path d="M108.254 114.922H103.843C103.747 114.922 103.669 115.004 103.669 115.104V120.729C103.669 120.83 103.747 120.911 103.843 120.911H108.254C108.35 120.911 108.428 120.83 108.428 120.729V115.104C108.428 115.004 108.35 114.922 108.254 114.922Z" fill="#CCCCCC"/>
<path d="M114.967 47.8474C114.967 48.0572 114.908 48.2622 114.795 48.4367C114.683 48.6111 114.524 48.747 114.338 48.8273C114.151 48.9076 113.946 48.9286 113.749 48.8876C113.551 48.8467 113.369 48.7457 113.226 48.5974C113.084 48.4491 112.987 48.2601 112.947 48.0543C112.908 47.8486 112.928 47.6353 113.005 47.4415C113.083 47.2477 113.213 47.0821 113.381 46.9655C113.549 46.849 113.746 46.7868 113.948 46.7868C114.218 46.7868 114.477 46.8985 114.669 47.0974C114.86 47.2964 114.967 47.5661 114.967 47.8474V47.8474Z" fill="#FAFAFA"/>
<path d="M110.863 47.8474C110.863 48.0572 110.803 48.2622 110.691 48.4367C110.579 48.6111 110.42 48.747 110.233 48.8273C110.047 48.9076 109.842 48.9286 109.644 48.8876C109.446 48.8467 109.265 48.7457 109.122 48.5974C108.979 48.4491 108.882 48.2601 108.843 48.0543C108.803 47.8486 108.824 47.6353 108.901 47.4415C108.978 47.2477 109.109 47.0821 109.276 46.9655C109.444 46.849 109.641 46.7868 109.843 46.7868C110.113 46.7868 110.373 46.8985 110.564 47.0974C110.755 47.2964 110.863 47.5661 110.863 47.8474V47.8474Z" fill="#FAFAFA"/>
<path d="M106.758 47.8474C106.758 48.0572 106.698 48.2622 106.586 48.4367C106.474 48.6111 106.315 48.747 106.128 48.8273C105.942 48.9076 105.737 48.9286 105.539 48.8876C105.341 48.8467 105.16 48.7457 105.017 48.5974C104.874 48.4491 104.777 48.2601 104.738 48.0543C104.699 47.8486 104.719 47.6353 104.796 47.4415C104.873 47.2477 105.004 47.0821 105.171 46.9655C105.339 46.849 105.536 46.7868 105.738 46.7868C106.009 46.7868 106.268 46.8985 106.459 47.0974C106.65 47.2964 106.758 47.5661 106.758 47.8474V47.8474Z" fill="#FAFAFA"/>
<path d="M63.5263 94.5331C63.567 94.3116 63.567 94.0841 63.5263 93.8626H63.2461C63.2338 93.8626 63.2218 93.8585 63.2121 93.8507C63.2023 93.843 63.1953 93.8321 63.1921 93.8197C63.189 93.8074 63.1898 93.7943 63.1945 93.7825C63.1993 93.7708 63.2076 93.7609 63.2183 93.7546L63.462 93.6088C63.3904 93.3959 63.2808 93.1989 63.1388 93.0283L62.8834 93.182C62.8728 93.1883 62.8605 93.1908 62.8485 93.1892C62.8364 93.1875 62.8252 93.1818 62.8165 93.1728C62.8079 93.1639 62.8023 93.1523 62.8006 93.1397C62.799 93.1272 62.8013 93.1144 62.8073 93.1034L62.9536 92.8365C62.7885 92.69 62.5983 92.5775 62.393 92.5046L62.264 92.7406C62.2579 92.7516 62.2484 92.7602 62.2371 92.7651C62.2258 92.77 62.2133 92.7708 62.2015 92.7676C62.1897 92.7643 62.1792 92.7571 62.1717 92.7471C62.1642 92.737 62.1601 92.7247 62.16 92.712V92.4405C61.947 92.3983 61.7282 92.3983 61.5153 92.4405V92.732C61.5153 92.7448 61.5113 92.7572 61.5039 92.7674C61.4964 92.7775 61.4859 92.7848 61.4741 92.7881C61.4622 92.7914 61.4496 92.7905 61.4383 92.7856C61.427 92.7807 61.4175 92.772 61.4114 92.7609L61.2713 92.5074C61.0666 92.5819 60.8773 92.696 60.7134 92.8435L60.8596 93.1092C60.8657 93.1202 60.8681 93.133 60.8665 93.1455C60.865 93.1581 60.8594 93.1698 60.8509 93.1787C60.8423 93.1877 60.8311 93.1935 60.819 93.1953C60.8069 93.197 60.7947 93.1945 60.7841 93.1883L60.5277 93.0362C60.3867 93.2078 60.2784 93.4057 60.2084 93.6192L60.4353 93.7536C60.4459 93.7599 60.4543 93.7697 60.459 93.7815C60.4637 93.7932 60.4646 93.8063 60.4614 93.8186C60.4583 93.8309 60.4513 93.8418 60.4416 93.8496C60.4319 93.8574 60.42 93.8616 60.4077 93.8616H60.1469C60.106 94.083 60.106 94.3106 60.1469 94.5321H60.427C60.4393 94.532 60.4513 94.5361 60.4611 94.5438C60.4709 94.5516 60.4779 94.5624 60.4811 94.5748C60.4843 94.5871 60.4835 94.6002 60.4788 94.6121C60.4741 94.6239 60.4657 94.6337 60.455 94.64L60.2113 94.7858C60.2827 94.9987 60.3923 95.1956 60.5342 95.3661L60.7897 95.2127C60.8002 95.2063 60.8125 95.2036 60.8247 95.2052C60.8368 95.2068 60.8481 95.2126 60.8568 95.2215C60.8655 95.2305 60.8711 95.2422 60.8728 95.2548C60.8744 95.2674 60.872 95.2802 60.866 95.2913L60.7197 95.5582C60.8848 95.7046 61.075 95.8172 61.2803 95.89L61.4095 95.654C61.4156 95.6429 61.425 95.6343 61.4363 95.6294C61.4476 95.6244 61.4602 95.6235 61.472 95.6268C61.4838 95.6301 61.4943 95.6373 61.5018 95.6474C61.5093 95.6575 61.5133 95.6699 61.5133 95.6827V95.9539C61.7263 95.9965 61.9451 95.9965 62.158 95.9539V95.6636C62.158 95.6509 62.162 95.6385 62.1694 95.6283C62.1769 95.6182 62.1874 95.6109 62.1992 95.6076C62.2111 95.6043 62.2237 95.6052 62.235 95.6101C62.2463 95.615 62.2558 95.6237 62.2618 95.6348L62.4022 95.887C62.6069 95.8127 62.7963 95.6987 62.9601 95.5511L62.8124 95.2854C62.8063 95.2745 62.8038 95.2617 62.8053 95.249C62.8068 95.2364 62.8123 95.2246 62.8209 95.2156C62.8295 95.2066 62.8408 95.2007 62.8529 95.199C62.865 95.1973 62.8774 95.1998 62.888 95.2061L63.1447 95.3582C63.2855 95.1866 63.3938 94.9887 63.4637 94.7752L63.2368 94.6411C63.2262 94.6347 63.2179 94.6248 63.2133 94.6131C63.2086 94.6013 63.2077 94.5883 63.2109 94.576C63.214 94.5637 63.2209 94.5528 63.2306 94.545C63.2402 94.5372 63.2521 94.5329 63.2643 94.5328L63.5263 94.5331ZM61.8867 94.9972C61.7305 95.0078 61.5749 94.9685 61.4406 94.8848C61.3064 94.801 61.1999 94.6767 61.1353 94.5283C61.0707 94.38 61.0511 94.2147 61.0791 94.0545C61.1071 93.8943 61.1814 93.7468 61.2921 93.6316C61.4027 93.5165 61.5445 93.4391 61.6986 93.4099C61.8526 93.3806 62.0115 93.4009 62.1542 93.4679C62.2968 93.535 62.4164 93.6457 62.4971 93.7853C62.5777 93.9249 62.6155 94.0867 62.6055 94.2492C62.5935 94.4434 62.514 94.6264 62.3817 94.7641C62.2494 94.9018 62.0735 94.9846 61.8867 94.9972V94.9972Z" fill="#FAFAFA"/>
<path d="M67.6124 92.9046L65.4609 95.1421L65.9585 95.6596L68.1099 93.422L67.6124 92.9046Z" fill="#F68B22"/>
<path d="M68.3825 93.1385L68.1103 93.4221L67.6128 92.9045L67.8853 92.6211C67.9513 92.5525 68.0408 92.5139 68.1341 92.5139C68.2275 92.5139 68.317 92.5525 68.383 92.6211C68.4489 92.6898 68.4858 92.7829 68.4857 92.8799C68.4856 92.9769 68.4485 93.0699 68.3825 93.1385V93.1385Z" fill="#E1E9F5"/>
<path d="M65.461 95.1424L65.9585 95.6598L65.5239 95.8119L65.2104 95.9209L65.3155 95.5954L65.461 95.1424Z" fill="#E1E9F5"/>
<path d="M65.3155 95.5943L65.5239 95.811L65.2104 95.92L65.3155 95.5943Z" fill="#6F7082"/>
<path d="M56.874 81.9715L54.6548 79.6635L56.874 77.3554" stroke="#FAFAFA" stroke-width="3.414" stroke-linecap="round" stroke-linejoin="round"/>
<path d="M46.6242 62.7936H37.7293C36.9174 62.7936 36.2593 63.4781 36.2593 64.3224V76.8558C36.2593 77.7001 36.9174 78.3846 37.7293 78.3846H46.6242C47.436 78.3846 48.0942 77.7001 48.0942 76.8558V64.3224C48.0942 63.4781 47.436 62.7936 46.6242 62.7936Z" fill="#CCD2DB"/>
<path d="M46.5698 62.6163H37.4009C36.6647 62.6163 36.0679 63.237 36.0679 64.0027V76.821C36.0679 77.5867 36.6647 78.2074 37.4009 78.2074H46.5698C47.3059 78.2074 47.9027 77.5867 47.9027 76.821V64.0027C47.9027 63.237 47.3059 62.6163 46.5698 62.6163Z" fill="#FAFAFA"/>
<path d="M48.2998 70.4564H54.3669C54.6569 70.4564 54.935 70.5763 55.1401 70.7896C55.3451 71.0029 55.4603 71.2922 55.4603 71.5938V76.3437" stroke="#6F7082" stroke-width="1.508" stroke-miterlimit="10" stroke-linecap="round"/>
<path d="M40.0422 68.8368L38.4062 67.1354L40.0422 65.434" fill="#F68B22"/>
<path d="M43.6855 67.1352L45.3215 68.8366V65.4337L43.6855 67.1352Z" fill="#F68B22"/>
<path d="M45.8061 72.7355L45.0225 73.5505V72.8899C45.0225 72.8467 45.0103 72.8044 44.9872 72.7685C44.9641 72.7325 44.9313 72.7045 44.8929 72.6879C44.8545 72.6714 44.8122 72.6671 44.7715 72.6756C44.7307 72.684 44.6933 72.7049 44.6639 72.7355L43.6224 73.8177C43.5831 73.8587 43.561 73.9142 43.561 73.9721C43.561 74.03 43.5831 74.0855 43.6224 74.1265L44.6639 75.2099C44.6933 75.2404 44.7307 75.2612 44.7714 75.2696C44.8122 75.278 44.8544 75.2737 44.8927 75.2571C44.9311 75.2406 44.9639 75.2127 44.987 75.1768C45.0101 75.1409 45.0224 75.0987 45.0225 75.0555V74.3949L45.8061 75.2099C45.8355 75.2404 45.8729 75.2612 45.9136 75.2696C45.9543 75.278 45.9965 75.2737 46.0349 75.2571C46.0732 75.2406 46.106 75.2127 46.1291 75.1768C46.1522 75.1409 46.1646 75.0987 46.1646 75.0555V72.8899C46.1647 72.8467 46.1524 72.8044 46.1293 72.7685C46.1063 72.7325 46.0734 72.7045 46.035 72.6879C45.9966 72.6714 45.9544 72.6671 45.9136 72.6756C45.8728 72.684 45.8354 72.7049 45.8061 72.7355V72.7355Z" fill="#F68B22"/>
<path d="M39.9235 73.4503V72.8453C39.9238 72.7848 39.9068 72.7257 39.8746 72.6754C39.8425 72.625 39.7966 72.5858 39.7429 72.5627C39.6893 72.5396 39.6302 72.5336 39.5732 72.5456C39.5163 72.5575 39.464 72.5868 39.4231 72.6298L38.127 73.9779L39.4231 75.3262C39.464 75.3692 39.5163 75.3985 39.5733 75.4104C39.6303 75.4224 39.6894 75.4164 39.7431 75.3932C39.7967 75.3701 39.8426 75.3308 39.8747 75.2805C39.9069 75.2301 39.9239 75.1709 39.9235 75.1105V74.5054H41.0905V73.4503H39.9235Z" fill="#F68B22"/>
<path d="M113.926 54.4504H84.9233V55.2866H113.926V54.4504Z" fill="#FAFAFA"/>
<path d="M113.926 56.4017H84.9233V57.238H113.926V56.4017Z" fill="#FAFAFA"/>
<path d="M113.926 58.3532H84.9233V59.1895H113.926V58.3532Z" fill="#FAFAFA"/>
<path d="M113.926 60.3045H84.9233V61.1408H113.926V60.3045Z" fill="#FAFAFA"/>
<path d="M125.673 89.8383C125.688 89.8262 122.361 87.7448 122.361 87.7448C122.361 87.7448 123.547 91.5897 123.561 91.5775C123.576 91.5654 124.24 90.5552 124.24 90.5552L125.212 91.831L125.532 91.5666L124.561 90.2908C124.561 90.2908 125.658 89.8495 125.673 89.8383Z" fill="#35363B"/>
<path d="M45.2657 111.458H42.4C41.837 111.458 41.297 111.691 40.8988 112.105C40.5006 112.519 40.2769 113.08 40.2769 113.666V129.393C40.2769 129.979 40.5006 130.54 40.8988 130.954C41.297 131.368 41.837 131.601 42.4 131.601H48.006" stroke="#6F7082" stroke-width="1.508" stroke-miterlimit="10" stroke-linecap="round"/>
<path d="M128.218 132.221C128.12 132.22 128.023 132.238 127.93 132.271C127.885 132.037 127.784 131.817 127.637 131.633C127.491 131.448 127.303 131.304 127.09 131.213C127.193 130.375 126.974 129.529 126.482 128.857C125.99 128.185 125.263 127.742 124.459 127.622C123.655 127.503 122.839 127.718 122.186 128.22C121.533 128.722 121.096 129.472 120.97 130.306C120.722 130.249 120.466 130.246 120.217 130.299C119.968 130.351 119.733 130.458 119.526 130.611C119.32 130.765 119.147 130.962 119.019 131.19C118.89 131.418 118.81 131.671 118.782 131.933C118.754 132.196 118.78 132.461 118.857 132.713C118.935 132.964 119.063 133.196 119.232 133.392C119.401 133.589 119.609 133.746 119.841 133.854C120.072 133.961 120.323 134.017 120.577 134.017H128.218C128.447 134.017 128.666 133.922 128.829 133.754C128.991 133.585 129.082 133.356 129.082 133.118C129.082 132.88 128.991 132.651 128.829 132.483C128.666 132.314 128.447 132.219 128.218 132.219V132.221Z" fill="#FAFAFA"/>
<path d="M94.3359 131.5H122.278C122.841 131.5 123.381 131.267 123.779 130.853C124.178 130.439 124.401 129.877 124.401 129.291V123.666" stroke="#6F7082" stroke-width="1.508" stroke-miterlimit="10" stroke-linecap="round"/>
<path d="M57.9312 131.5H84.9901" stroke="#6F7082" stroke-width="1.508" stroke-miterlimit="10" stroke-linecap="round"/>
<path d="M55.5062 127.705L49.4263 128.834L49.8757 131.452L55.9557 130.323L55.5062 127.705Z" fill="#CCD7E6"/>
<path d="M55.8323 128.465H49.6562V131.125H55.8323V128.465Z" fill="#E1E9F5"/>
<path d="M55.7563 129.352L50.0005 128.878L49.8275 131.149L55.5833 131.623L55.7563 129.352Z" fill="white"/>
<path d="M54.2815 129.026L53.6863 129.645C53.6436 129.689 53.5929 129.724 53.537 129.748C53.4812 129.773 53.4213 129.785 53.3609 129.785H49.4214C49.2992 129.785 49.1821 129.835 49.0958 129.925C49.0094 130.015 48.9609 130.137 48.9609 130.264V133.819C48.9609 133.946 49.0094 134.068 49.0958 134.158C49.1821 134.248 49.2992 134.298 49.4214 134.298H56.2394C56.3615 134.298 56.4786 134.248 56.565 134.158C56.6513 134.068 56.6998 133.946 56.6998 133.819V129.364C56.6998 129.237 56.6513 129.115 56.565 129.026C56.4786 128.936 56.3615 128.885 56.2394 128.885H54.6064C54.4844 128.885 54.3676 128.936 54.2815 129.026V129.026Z" fill="#F68B22"/>
<path d="M37.5815 85.7759H37.1868C37.0819 85.7759 36.9812 85.7325 36.907 85.6553C36.8327 85.5781 36.791 85.4734 36.791 85.3642V84.9538C36.7929 84.8561 36.7624 84.7607 36.7047 84.6836C36.6471 84.6064 36.5657 84.5522 36.4742 84.53C36.4163 84.5178 36.3566 84.5191 36.2993 84.5338C36.242 84.5486 36.1885 84.5763 36.1428 84.6151C36.097 84.6539 36.0601 84.7028 36.0348 84.7582C36.0094 84.8136 35.9961 84.8742 35.9959 84.9356V85.364C35.9959 85.4732 35.9542 85.5779 35.88 85.6551C35.8058 85.7323 35.7051 85.7756 35.6001 85.7756H35.2055C35.1116 85.7737 35.0198 85.8053 34.9456 85.8653C34.8714 85.9253 34.8193 86.01 34.798 86.1052C34.7863 86.1654 34.7875 86.2275 34.8017 86.2871C34.8158 86.3467 34.8425 86.4023 34.8798 86.4498C34.9171 86.4974 34.9641 86.5358 35.0174 86.5622C35.0707 86.5886 35.1289 86.6024 35.188 86.6025H35.6001C35.6521 86.6025 35.7036 86.6132 35.7516 86.6339C35.7996 86.6546 35.8433 86.6849 35.88 86.7231C35.9168 86.7613 35.9459 86.8067 35.9658 86.8567C35.9857 86.9066 35.9959 86.9602 35.9959 87.0142V87.4246C35.9941 87.5223 36.0245 87.6178 36.0822 87.6949C36.1399 87.7721 36.2213 87.8263 36.3128 87.8485C36.3707 87.8606 36.4304 87.8593 36.4877 87.8446C36.545 87.8299 36.5984 87.8021 36.6442 87.7633C36.6899 87.7245 36.7268 87.6757 36.7522 87.6203C36.7776 87.5648 36.7909 87.5043 36.791 87.4429V87.0142C36.791 86.9602 36.8013 86.9066 36.8211 86.8567C36.841 86.8067 36.8702 86.7613 36.907 86.7231C36.9437 86.6849 36.9873 86.6546 37.0354 86.6339C37.0834 86.6132 37.1349 86.6025 37.1868 86.6025H37.5988C37.6578 86.6023 37.716 86.5885 37.7693 86.5621C37.8225 86.5357 37.8695 86.4973 37.9068 86.4497C37.9441 86.4022 37.9708 86.3466 37.9849 86.287C37.9991 86.2275 38.0004 86.1653 37.9887 86.1052C37.9673 86.0101 37.9152 85.9256 37.8411 85.8656C37.767 85.8057 37.6753 85.774 37.5815 85.7759V85.7759Z" fill="#FAFAFA"/>
<path d="M131.191 58.7764H130.728C130.605 58.7764 130.488 58.7257 130.401 58.6354C130.314 58.545 130.265 58.4225 130.265 58.2948V57.8132C130.267 57.6985 130.231 57.5866 130.164 57.4962C130.096 57.4058 130 57.3424 129.893 57.3166C129.825 57.3023 129.755 57.3038 129.688 57.3211C129.621 57.3383 129.558 57.3709 129.504 57.4164C129.451 57.4619 129.407 57.5192 129.378 57.5841C129.348 57.6491 129.332 57.7202 129.332 57.7921V58.2943C129.332 58.422 129.283 58.5445 129.197 58.6349C129.11 58.7252 128.992 58.7759 128.869 58.7759H128.406C128.296 58.7737 128.188 58.811 128.101 58.8815C128.014 58.9521 127.953 59.0515 127.928 59.1633C127.915 59.2338 127.916 59.3066 127.933 59.3765C127.949 59.4464 127.98 59.5115 128.024 59.5673C128.068 59.6231 128.123 59.6681 128.186 59.699C128.248 59.73 128.316 59.7461 128.386 59.7463H128.869C128.991 59.7463 129.109 59.797 129.196 59.8874C129.283 59.9777 129.332 60.1002 129.332 60.2279V60.7096C129.33 60.8242 129.365 60.9362 129.433 61.0266C129.501 61.1171 129.597 61.1806 129.704 61.2064C129.772 61.2207 129.842 61.2192 129.909 61.2019C129.976 61.1846 130.039 61.1521 130.093 61.1066C130.146 61.0611 130.19 61.0038 130.219 60.9388C130.249 60.8739 130.265 60.8028 130.265 60.7309V60.2284C130.265 60.1007 130.314 59.9782 130.4 59.8879C130.487 59.7975 130.605 59.7468 130.728 59.7468H131.211C131.28 59.7466 131.348 59.7305 131.411 59.6995C131.473 59.6686 131.528 59.6236 131.572 59.5678C131.616 59.512 131.647 59.4469 131.664 59.377C131.68 59.3071 131.682 59.2343 131.668 59.1638C131.643 59.0522 131.582 58.9529 131.496 58.8824C131.409 58.8119 131.301 58.7745 131.191 58.7764Z" fill="#FAFAFA"/>
<path d="M70.2791 38.2938C70.1125 38.2941 69.9471 38.3241 69.7902 38.3823C69.7123 37.9829 69.5411 37.6096 69.2916 37.2954C69.0422 36.9811 68.7222 36.7356 68.3599 36.5804C68.5303 35.1572 68.1564 33.7213 67.3188 32.5819C66.4813 31.4425 65.247 30.6907 63.8817 30.4885C62.5164 30.2862 61.1294 30.6496 60.0192 31.5005C58.9091 32.3513 58.1646 33.6216 57.946 35.0377C57.5244 34.9398 57.0877 34.9354 56.6644 35.0249C56.241 35.1144 55.8406 35.2957 55.4892 35.557C55.1378 35.8183 54.8433 36.1538 54.625 36.5414C54.4066 36.9291 54.2694 37.3603 54.2221 37.8069C54.1748 38.2535 54.2186 38.7054 54.3506 39.1332C54.4826 39.561 54.6998 39.955 54.9881 40.2896C55.2765 40.6241 55.6294 40.8917 56.0238 41.0749C56.4183 41.258 56.8455 41.3526 57.2775 41.3524H70.2791C70.6691 41.3524 71.0431 41.1913 71.3189 40.9045C71.5946 40.6177 71.7496 40.2287 71.7496 39.8231C71.7496 39.4175 71.5946 39.0285 71.3189 38.7417C71.0431 38.4549 70.6691 38.2938 70.2791 38.2938V38.2938Z" fill="#CCCCCC"/>
<path d="M93.3082 131.43C93.2351 131.406 93.1704 131.36 93.1219 131.299C93.0734 131.237 93.0433 131.162 93.0353 131.082C93.0273 131.003 93.0417 130.923 93.0767 130.852C93.1118 130.781 93.166 130.723 93.2326 130.683V130.683C93.3117 130.637 93.3729 130.564 93.4058 130.476C93.4387 130.388 93.4414 130.291 93.4134 130.201C93.3854 130.111 93.3283 130.034 93.252 129.983C93.1757 129.932 93.0847 129.91 92.9945 129.921C92.9183 129.93 92.8413 129.915 92.7728 129.88C92.7044 129.844 92.6475 129.788 92.6091 129.719C92.5708 129.65 92.5527 129.57 92.557 129.491C92.5613 129.411 92.5879 129.335 92.6335 129.271C92.6877 129.195 92.715 129.102 92.7108 129.007C92.7066 128.913 92.6712 128.823 92.6106 128.753C92.5499 128.683 92.4678 128.636 92.3781 128.622C92.2884 128.607 92.1966 128.625 92.1183 128.673C92.0522 128.714 91.9761 128.734 91.8993 128.73C91.8226 128.727 91.7485 128.7 91.6863 128.653C91.6241 128.606 91.5764 128.541 91.5492 128.466C91.522 128.392 91.5165 128.31 91.5333 128.232C91.5531 128.14 91.5416 128.044 91.5009 127.959C91.4601 127.875 91.3925 127.808 91.3095 127.769C91.2266 127.731 91.1334 127.723 91.0458 127.748C90.9582 127.773 90.8816 127.829 90.8289 127.906C90.7845 127.971 90.7226 128.021 90.6511 128.05C90.5796 128.079 90.5014 128.086 90.4263 128.069C90.3511 128.053 90.2823 128.014 90.2282 127.957C90.1742 127.9 90.1373 127.828 90.1221 127.75V127.75C90.1041 127.657 90.0559 127.574 89.9856 127.514C89.9153 127.454 89.8273 127.422 89.7365 127.422C89.6457 127.422 89.5577 127.454 89.4874 127.514C89.4171 127.574 89.3689 127.657 89.3509 127.75C89.3357 127.828 89.2988 127.9 89.2447 127.957C89.1907 128.014 89.1218 128.053 89.0467 128.069C88.9716 128.086 88.8934 128.079 88.8219 128.05C88.7503 128.021 88.6885 127.971 88.6441 127.906V127.906C88.5913 127.829 88.5147 127.773 88.4271 127.749C88.3395 127.724 88.2464 127.731 88.1635 127.77C88.0806 127.808 88.013 127.875 87.9722 127.959C87.9314 128.044 87.9198 128.14 87.9394 128.232V128.232C87.9562 128.31 87.9507 128.392 87.9235 128.466C87.8963 128.541 87.8487 128.606 87.7864 128.653C87.7242 128.7 87.6502 128.727 87.5734 128.73C87.4966 128.734 87.4205 128.714 87.3544 128.673C87.2762 128.626 87.1846 128.607 87.0949 128.622C87.0053 128.636 86.9232 128.682 86.8625 128.752C86.8019 128.823 86.7663 128.912 86.7619 129.007C86.7575 129.101 86.7846 129.194 86.8385 129.27V129.27C86.884 129.334 86.9106 129.41 86.915 129.49C86.9193 129.569 86.9012 129.649 86.8629 129.718C86.8245 129.787 86.7676 129.843 86.6992 129.879C86.6307 129.914 86.5537 129.929 86.4775 129.92V129.92C86.3873 129.909 86.2963 129.931 86.2199 129.982C86.1435 130.033 86.0864 130.11 86.0583 130.2C86.0303 130.29 86.0329 130.387 86.0659 130.475C86.0988 130.563 86.16 130.636 86.2391 130.682C86.3059 130.722 86.3602 130.78 86.3953 130.851C86.4304 130.922 86.4449 131.002 86.4368 131.082C86.4288 131.161 86.3987 131.236 86.3501 131.298C86.3016 131.359 86.2367 131.405 86.1635 131.429V131.429C86.0769 131.457 86.0024 131.516 85.9527 131.595C85.9029 131.674 85.8808 131.768 85.8903 131.862C85.8998 131.956 85.9403 132.044 86.0047 132.11C86.0692 132.177 86.1538 132.218 86.2442 132.227C86.3205 132.235 86.3931 132.265 86.4529 132.315C86.5127 132.365 86.5572 132.432 86.5809 132.508C86.6046 132.584 86.6064 132.665 86.5862 132.742C86.5661 132.819 86.5247 132.888 86.4672 132.941C86.3992 133.003 86.3541 133.088 86.3395 133.182C86.325 133.275 86.3418 133.37 86.3872 133.452C86.4326 133.534 86.5038 133.597 86.5887 133.63C86.6736 133.664 86.767 133.666 86.8531 133.636V133.636C86.9258 133.61 87.004 133.608 87.0781 133.628C87.1522 133.648 87.219 133.691 87.2703 133.75C87.3216 133.809 87.3551 133.883 87.3668 133.961C87.3784 134.04 87.3677 134.121 87.3359 134.193V134.193C87.2984 134.279 87.2906 134.376 87.3137 134.467C87.3369 134.558 87.3896 134.638 87.4629 134.694C87.5363 134.749 87.6258 134.777 87.7164 134.771C87.8069 134.766 87.8929 134.728 87.9599 134.665V134.665C88.0164 134.611 88.0867 134.576 88.1623 134.563C88.2378 134.55 88.3154 134.56 88.3854 134.592C88.4554 134.625 88.5148 134.678 88.5564 134.744C88.598 134.811 88.6199 134.889 88.6194 134.969V134.969C88.6178 135.064 88.648 135.157 88.7049 135.231C88.7618 135.305 88.8417 135.357 88.9311 135.377C89.0204 135.396 89.1136 135.383 89.1946 135.339C89.2756 135.295 89.3394 135.223 89.375 135.136C89.4056 135.063 89.456 135 89.5201 134.957C89.5842 134.913 89.6592 134.89 89.7359 134.89C89.8125 134.89 89.8876 134.913 89.9517 134.957C90.0158 135 90.0662 135.063 90.0967 135.136C90.1325 135.223 90.1964 135.295 90.2773 135.338C90.3582 135.382 90.4512 135.395 90.5404 135.375C90.6297 135.356 90.7095 135.304 90.7664 135.23C90.8233 135.156 90.8536 135.064 90.8523 134.969V134.969C90.8521 134.89 90.8741 134.812 90.9156 134.745C90.9571 134.679 91.0163 134.626 91.0861 134.594C91.1558 134.562 91.233 134.551 91.3084 134.564C91.3837 134.576 91.4539 134.612 91.5104 134.665V134.665C91.5773 134.729 91.6634 134.767 91.754 134.772C91.8447 134.778 91.9344 134.75 92.0079 134.695C92.0814 134.639 92.1342 134.559 92.1572 134.467C92.1803 134.376 92.1722 134.279 92.1344 134.193V134.193C92.1025 134.121 92.0918 134.04 92.1035 133.961C92.1151 133.882 92.1487 133.809 92.2 133.75C92.2513 133.69 92.3182 133.648 92.3923 133.628C92.4665 133.608 92.5448 133.61 92.6175 133.636V133.636C92.7035 133.666 92.7969 133.664 92.8817 133.63C92.9665 133.597 93.0376 133.534 93.083 133.452C93.1284 133.37 93.1452 133.275 93.1306 133.182C93.116 133.088 93.071 133.003 93.003 132.941V132.941C92.9456 132.888 92.9042 132.819 92.8841 132.742C92.8639 132.665 92.8657 132.584 92.8894 132.508C92.9131 132.432 92.9576 132.365 93.0174 132.315C93.0772 132.265 93.1497 132.235 93.2261 132.227C93.3161 132.218 93.4003 132.176 93.4645 132.11C93.5287 132.044 93.569 131.957 93.5786 131.863C93.5883 131.77 93.5667 131.676 93.5174 131.597C93.4681 131.518 93.3943 131.459 93.3082 131.43V131.43ZM89.7372 133.738C89.2933 133.738 88.8594 133.601 88.4903 133.345C88.1213 133.088 87.8336 132.724 87.6637 132.297C87.4939 131.871 87.4494 131.401 87.536 130.949C87.6226 130.496 87.8364 130.08 88.1502 129.753C88.4641 129.427 88.864 129.205 89.2994 129.115C89.7347 129.025 90.186 129.071 90.5961 129.247C91.0062 129.424 91.3567 129.723 91.6033 130.107C91.8499 130.491 91.9815 130.942 91.9815 131.404C91.9816 131.71 91.9235 132.014 91.8108 132.297C91.698 132.58 91.5327 132.838 91.3243 133.054C91.1159 133.271 90.8684 133.443 90.5961 133.56C90.3238 133.678 90.032 133.738 89.7372 133.738V133.738Z" fill="#F68B22"/>
<path d="M78.8623 36.9683C78.8623 37.1108 78.8893 37.2519 78.9417 37.3836C78.9942 37.5153 79.071 37.6349 79.1679 37.7357C79.2648 37.8364 79.3798 37.9164 79.5064 37.9709C79.633 38.0254 79.7687 38.0535 79.9057 38.0535H83.67C83.7745 38.0535 83.8748 38.0967 83.9487 38.1736C84.0226 38.2504 84.0641 38.3547 84.0641 38.4634V38.4634C84.0641 38.5721 84.0226 38.6764 83.9487 38.7533C83.8748 38.8301 83.7745 38.8733 83.67 38.8733H83.1155C82.935 38.8733 82.7619 38.9479 82.6343 39.0806C82.5067 39.2133 82.435 39.3934 82.435 39.5811V39.6186C82.435 39.8063 82.5067 39.9863 82.6343 40.119C82.7619 40.2518 82.935 40.3263 83.1155 40.3263H90.4452C90.6256 40.3263 90.7987 40.2518 90.9264 40.119C91.054 39.9863 91.1257 39.8063 91.1257 39.6186V39.6186C91.1257 39.4308 91.054 39.2508 90.9264 39.118C90.7988 38.9853 90.6257 38.9106 90.4452 38.9106H85.4469C85.3951 38.9106 85.3439 38.9 85.296 38.8795C85.2482 38.8589 85.2048 38.8287 85.1682 38.7907C85.1316 38.7526 85.1025 38.7075 85.0827 38.6578C85.0629 38.608 85.0527 38.5547 85.0527 38.5009V38.4634C85.0527 38.3547 85.0943 38.2504 85.1682 38.1736C85.2421 38.0967 85.3423 38.0535 85.4469 38.0535H87.5693C87.7063 38.0535 87.842 38.0254 87.9686 37.9709C88.0952 37.9164 88.2102 37.8364 88.3071 37.7357C88.404 37.6349 88.4809 37.5153 88.5333 37.3836C88.5858 37.2519 88.6127 37.1108 88.6127 36.9683V36.9683C88.6127 36.6805 88.5028 36.4045 88.3071 36.201C88.1114 35.9975 87.846 35.8831 87.5693 35.8831H79.906C79.7689 35.8831 79.6332 35.9111 79.5066 35.9657C79.38 36.0202 79.2649 36.1001 79.168 36.2009C79.0711 36.3016 78.9942 36.4213 78.9418 36.553C78.8893 36.6846 78.8623 36.8258 78.8623 36.9683V36.9683Z" fill="#FAFAFA"/>
<path d="M80.5379 36.9681C80.5379 37.1018 80.4998 37.2324 80.4284 37.3436C80.357 37.4547 80.2555 37.5413 80.1368 37.5925C80.018 37.6436 79.8874 37.657 79.7613 37.6309C79.6353 37.6049 79.5195 37.5405 79.4286 37.446C79.3377 37.3515 79.2758 37.231 79.2508 37.1C79.2257 36.9689 79.2386 36.833 79.2877 36.7095C79.3369 36.586 79.4202 36.4805 79.5271 36.4062C79.6339 36.3319 79.7596 36.2923 79.8881 36.2923C80.0604 36.2923 80.2257 36.3635 80.3476 36.4902C80.4694 36.617 80.5379 36.7889 80.5379 36.9681Z" fill="white"/>
<path d="M86.7887 148.486C114.789 148.486 137.487 146.131 137.487 143.226C137.487 140.321 114.789 137.966 86.7887 137.966C58.7888 137.966 36.0903 140.321 36.0903 143.226C36.0903 146.131 58.7888 148.486 86.7887 148.486Z" fill="black" fill-opacity="0.12"/>
</svg>
