<svg width="169" height="142" viewBox="0 0 169 142" fill="none" xmlns="http://www.w3.org/2000/svg">
<path fill-rule="evenodd" clip-rule="evenodd" d="M43.2103 139.421C39.6735 138.7 -2.81984 132.197 0.307969 84.2377C3.43578 36.2788 7.36245 21.8563 23.883 16.5786C40.4035 11.3009 80.5629 -13.6667 112.076 10.0747C131.553 24.7467 162.582 55.0413 164.938 62.5476C167.294 70.0539 172.216 84.4571 164.1 93.0169C142.853 115.425 148.396 143.569 113.188 141.637C77.9807 139.704 60.027 142.855 43.2097 139.421" fill="#F9F9F9"/>
<path d="M50.3749 61.1456H35.3985C35.1778 61.1484 34.9587 61.1098 34.7539 61.032C34.5491 60.9543 34.3627 60.8389 34.2055 60.6926C34.0484 60.5463 33.9236 60.372 33.8384 60.1798C33.7532 59.9876 33.7094 59.7814 33.7094 59.5731C33.7094 59.3648 33.7532 59.1585 33.8384 58.9663C33.9236 58.7742 34.0484 58.5999 34.2055 58.4536C34.3627 58.3073 34.5491 58.1919 34.7539 58.1141C34.9587 58.0364 35.1778 57.9978 35.3985 58.0006H37.0449C37.2656 58.0034 37.4847 57.9648 37.6895 57.8871C37.8943 57.8093 38.0807 57.6939 38.2379 57.5476C38.395 57.4013 38.5198 57.227 38.605 57.0348C38.6901 56.8427 38.734 56.6364 38.734 56.4281C38.734 56.2198 38.6901 56.0135 38.605 55.8214C38.5198 55.6292 38.395 55.4549 38.2379 55.3086C38.0807 55.1623 37.8943 55.0469 37.6895 54.9691C37.4847 54.8914 37.2656 54.8528 37.0449 54.8556H26.9761C26.7554 54.8528 26.5362 54.8914 26.3314 54.9691C26.1266 55.0469 25.9402 55.1623 25.7831 55.3086C25.6259 55.4549 25.5012 55.6292 25.416 55.8214C25.3308 56.0135 25.287 56.2198 25.287 56.4281C25.287 56.6364 25.3308 56.8427 25.416 57.0348C25.5012 57.227 25.6259 57.4013 25.7831 57.5476C25.9402 57.6939 26.1266 57.8093 26.3314 57.8871C26.5362 57.9648 26.7554 58.0034 26.9761 58.0006H28.5411C28.7618 57.9978 28.9809 58.0364 29.1857 58.1141C29.3905 58.1919 29.5769 58.3073 29.7341 58.4536C29.8912 58.5999 30.016 58.7742 30.1012 58.9663C30.1864 59.1585 30.2302 59.3648 30.2302 59.5731C30.2302 59.7814 30.1864 59.9876 30.1012 60.1798C30.016 60.372 29.8912 60.5463 29.7341 60.6926C29.5769 60.8389 29.3905 60.9543 29.1857 61.032C28.9809 61.1098 28.7618 61.1484 28.5411 61.1456H23.9211C23.4791 61.1456 23.0551 61.3113 22.7426 61.6062C22.43 61.9012 22.2544 62.3012 22.2544 62.7183C22.2544 63.1355 22.43 63.5355 22.7426 63.8305C23.0551 64.1254 23.4791 64.2911 23.9211 64.2911H34.4494C34.8875 64.2967 35.3056 64.4649 35.6132 64.7592C35.9209 65.0534 36.0934 65.4502 36.0934 65.8636C36.0934 66.277 35.9209 66.6738 35.6132 66.9681C35.3056 67.2624 34.8875 67.4305 34.4494 67.4361H32.5507C32.3299 67.4333 32.1108 67.4719 31.906 67.5496C31.7012 67.6274 31.5148 67.7428 31.3576 67.8891C31.2005 68.0354 31.0757 68.2097 30.9906 68.4019C30.9054 68.594 30.8615 68.8003 30.8615 69.0086C30.8615 69.2169 30.9054 69.4231 30.9906 69.6153C31.0757 69.8075 31.2005 69.9818 31.3576 70.1281C31.5148 70.2744 31.7012 70.3898 31.906 70.4676C32.1108 70.5453 32.3299 70.5839 32.5507 70.5811H44.4463C44.667 70.5839 44.8862 70.5453 45.091 70.4676C45.2958 70.3898 45.4822 70.2744 45.6393 70.1281C45.7965 69.9818 45.9212 69.8075 46.0064 69.6153C46.0916 69.4231 46.1354 69.2169 46.1354 69.0086C46.1354 68.8003 46.0916 68.594 46.0064 68.4019C45.9212 68.2097 45.7965 68.0354 45.6393 67.8891C45.4822 67.7428 45.2958 67.6274 45.091 67.5496C44.8862 67.4719 44.667 67.4333 44.4463 67.4361H43.4287C43.208 67.4389 42.9888 67.4003 42.784 67.3226C42.5792 67.2448 42.3928 67.1294 42.2357 66.9831C42.0785 66.8369 41.9538 66.6625 41.8686 66.4704C41.7834 66.2782 41.7396 66.0719 41.7396 65.8636C41.7396 65.6553 41.7834 65.4491 41.8686 65.2569C41.9538 65.0647 42.0785 64.8904 42.2357 64.7441C42.3928 64.5978 42.5792 64.4824 42.784 64.4047C42.9888 64.3269 43.208 64.2883 43.4287 64.2911H50.3739C50.816 64.2911 51.2399 64.1254 51.5525 63.8305C51.8651 63.5355 52.0406 63.1355 52.0406 62.7183C52.0406 62.3012 51.8651 61.9012 51.5525 61.6062C51.2399 61.3113 50.816 61.1456 50.3739 61.1456H50.3749Z" stroke="#E8E8E8" stroke-width="2" stroke-linecap="round" stroke-linejoin="round"/>
<path d="M120.909 97.5548H124.979C125.421 97.5548 125.845 97.7205 126.157 98.0155C126.47 98.3105 126.645 98.7105 126.645 99.1276C126.645 99.5448 126.47 99.9448 126.157 100.24C125.845 100.535 125.421 100.7 124.979 100.7H123.078C122.636 100.7 122.213 100.866 121.9 101.161C121.588 101.456 121.412 101.856 121.412 102.273C121.412 102.69 121.588 103.09 121.9 103.385C122.213 103.679 122.636 103.845 123.078 103.845H134.977C135.419 103.845 135.843 103.679 136.156 103.385C136.468 103.09 136.644 102.69 136.644 102.273C136.644 101.856 136.468 101.456 136.156 101.161C135.843 100.866 135.419 100.7 134.977 100.7H133.959C133.517 100.7 133.093 100.535 132.78 100.24C132.468 99.9448 132.292 99.5448 132.292 99.1276C132.292 98.7105 132.468 98.3105 132.78 98.0155C133.093 97.7205 133.517 97.5548 133.959 97.5548H143.121C143.563 97.5548 143.987 97.3892 144.299 97.0943C144.612 96.7994 144.787 96.3995 144.787 95.9825C144.787 95.5655 144.612 95.1656 144.299 94.8707C143.987 94.5758 143.563 94.4102 143.121 94.4102H120.908C120.467 94.4102 120.043 94.5758 119.73 94.8707C119.418 95.1656 119.242 95.5655 119.242 95.9825C119.242 96.3995 119.418 96.7994 119.73 97.0943C120.043 97.3892 120.467 97.5548 120.908 97.5548H120.909Z" stroke="#E8E8E8" stroke-width="2" stroke-linecap="round" stroke-linejoin="round"/>
<path d="M44.4675 63.9436L122.459 63.2559L124.744 113.289L43.9832 112.74L44.4675 63.9436Z" fill="#E6E6E6"/>
<path d="M44.468 63.9441L81.3179 35.6869C82.0749 35.1064 83.0208 34.79 83.9961 34.791C84.9715 34.7921 85.9167 35.1105 86.6722 35.6927L122.46 63.2572" fill="#F68B22"/>
<path d="M43.9838 112.742C43.8865 112.655 50.1158 106.21 57.8966 98.3473C65.6774 90.4841 72.0659 84.1768 72.1631 84.2626C72.2604 84.3483 66.0327 90.7928 58.2497 98.6582C50.4667 106.524 44.0811 112.828 43.9838 112.742Z" fill="#4D4D4D"/>
<path d="M124.743 113.29C124.644 113.373 118.549 107.082 111.132 99.2396C103.715 91.3969 97.7814 84.9686 97.8809 84.8846C97.9803 84.8006 104.073 91.092 111.493 98.9361C118.912 106.78 124.843 113.206 124.743 113.29Z" fill="#4D4D4D"/>
<g opacity="0.5">
<g opacity="0.5">
<g opacity="0.5">
<path opacity="0.5" d="M122.459 63.2578L83.3601 92.8578L44.4673 63.9452" fill="black"/>
</g>
</g>
</g>
<path d="M48.4015 66.6712L48.2292 43.6851L116.519 42.79L117.342 66.9737L83.356 92.4708L48.4015 66.6712Z" fill="#FAFAFA"/>
<path d="M48.4015 66.6721C48.4015 66.6721 48.627 66.8257 49.0492 67.1314C49.4714 67.4372 50.0983 67.8948 50.9113 68.4864L57.9789 73.6662C64.0754 78.1503 72.8179 84.5797 83.4276 92.3848H83.2819L117.257 66.8699L117.204 66.9784C117.046 62.3647 116.881 57.5247 116.713 52.6004C116.6 49.2851 116.489 46.0078 116.38 42.7959L116.524 42.9261L48.2323 43.774L48.3241 43.6874C48.3593 50.9146 48.3853 56.6534 48.4061 60.5935C48.4104 62.5596 48.4137 64.076 48.4159 65.1081C48.4148 65.6172 48.4139 66.006 48.4131 66.2745C48.4116 66.537 48.4042 66.6735 48.4042 66.6735C48.4042 66.6735 48.3954 66.5442 48.3899 66.2849C48.385 66.0187 48.3781 65.633 48.3694 65.1277C48.3562 64.0982 48.3369 62.587 48.3115 60.6238C48.2715 56.6767 48.213 50.9276 48.1399 43.6874V43.6008H48.2317L116.522 42.6573L116.661 42.6553L116.666 42.7872C116.775 45.9998 116.887 49.2764 117 52.5917C117.167 57.5175 117.332 62.3575 117.488 66.9697L117.49 67.0367L117.434 67.0789L83.4291 92.5577L83.3566 92.6123L83.2841 92.5583L57.8675 73.7341L50.8495 68.5164C50.05 67.9182 49.4368 67.4594 49.0177 67.1453C48.6056 66.8355 48.4015 66.6721 48.4015 66.6721Z" fill="#4D4D4D"/>
<path fill-rule="evenodd" clip-rule="evenodd" d="M66.0418 56.4172L53.6945 56.4547L53.6658 48.0935L66.013 48.0557L66.0418 56.4172" fill="#EFEFEF"/>
<path fill-rule="evenodd" clip-rule="evenodd" d="M55.2945 53.8172L62.9707 53.7938C63.142 53.7938 63.4394 53.5481 63.1411 53.549L55.4646 53.5724C55.293 53.5724 54.9959 53.8181 55.2942 53.8172H55.2945ZM55.352 51.7913L63.0285 51.7679C63.2794 51.7679 63.3706 51.4659 63.0692 51.4671L55.3927 51.4905C55.1419 51.4905 55.0507 51.7922 55.352 51.7913ZM55.2792 49.2324L63.0432 49.2085L64.1487 49.2053C64.3243 49.2053 64.6155 48.9535 64.3169 48.9541L56.5532 48.9781L55.4481 48.9815C55.2722 48.9815 54.9809 49.233 55.2795 49.2324H55.2792ZM55.3649 55.8045L58.0399 55.7964C58.2877 55.7964 58.385 55.5022 58.083 55.5033L55.4077 55.5114C55.1599 55.5114 55.0629 55.8056 55.3649 55.8047V55.8045ZM59.9307 55.73L62.606 55.7216C62.7015 55.7216 63.1078 55.5484 62.893 55.5484L60.2177 55.5567C60.1222 55.5567 59.7159 55.73 59.9307 55.73Z" fill="#F68B22"/>
</svg>
