<svg width="321" height="286" viewBox="0 0 321 286" fill="none" xmlns="http://www.w3.org/2000/svg">
<path fill-rule="evenodd" clip-rule="evenodd" d="M82.0072 281.339C75.2723 279.883 -5.64286 266.76 0.313075 169.984C6.26901 73.2074 13.7461 44.1041 45.2043 33.4541C76.6624 22.8042 153.133 -27.578 213.141 20.3299C250.227 49.9365 309.313 111.068 313.8 126.215C318.286 141.362 327.658 170.427 312.203 187.7C271.745 232.917 282.301 289.709 215.259 285.81C148.216 281.91 114.029 288.268 82.006 281.339" fill="#F9F9F9"/>
<path d="M79.9191 116.979H51.4013C50.981 116.984 50.5638 116.907 50.1738 116.75C49.7838 116.593 49.4289 116.36 49.1297 116.065C48.8304 115.769 48.5928 115.418 48.4306 115.03C48.2684 114.642 48.1849 114.226 48.1849 113.806C48.1849 113.385 48.2684 112.969 48.4306 112.581C48.5928 112.193 48.8304 111.842 49.1297 111.546C49.4289 111.251 49.7838 111.018 50.1738 110.862C50.5638 110.705 50.981 110.627 51.4013 110.632H54.5363C54.9567 110.638 55.3739 110.56 55.7639 110.403C56.1539 110.246 56.5088 110.014 56.808 109.718C57.1073 109.423 57.3449 109.071 57.5071 108.684C57.6692 108.296 57.7527 107.88 57.7527 107.459C57.7527 107.039 57.6692 106.623 57.5071 106.235C57.3449 105.847 57.1073 105.495 56.808 105.2C56.5088 104.905 56.1539 104.672 55.7639 104.515C55.3739 104.358 54.9567 104.28 54.5363 104.286H35.3635C34.9432 104.28 34.5259 104.358 34.1359 104.515C33.746 104.672 33.391 104.905 33.0918 105.2C32.7925 105.495 32.5549 105.847 32.3928 106.235C32.2306 106.623 32.1471 107.039 32.1471 107.459C32.1471 107.88 32.2306 108.296 32.3928 108.684C32.5549 109.071 32.7925 109.423 33.0918 109.718C33.391 110.014 33.746 110.246 34.1359 110.403C34.5259 110.56 34.9432 110.638 35.3635 110.632H38.3435C38.7638 110.627 39.1811 110.705 39.5711 110.862C39.961 111.018 40.316 111.251 40.6152 111.546C40.9144 111.842 41.1521 112.193 41.3142 112.581C41.4764 112.969 41.5599 113.385 41.5599 113.806C41.5599 114.226 41.4764 114.642 41.3142 115.03C41.1521 115.418 40.9144 115.769 40.6152 116.065C40.316 116.36 39.961 116.593 39.5711 116.75C39.1811 116.907 38.7638 116.984 38.3435 116.979H29.5462C28.7045 116.979 27.8973 117.313 27.3021 117.908C26.7069 118.503 26.3725 119.311 26.3725 120.152C26.3725 120.994 26.7069 121.801 27.3021 122.397C27.8973 122.992 28.7045 123.326 29.5462 123.326H49.5941C50.4282 123.337 51.2244 123.677 51.8102 124.271C52.3961 124.864 52.7246 125.665 52.7246 126.499C52.7246 127.334 52.3961 128.134 51.8102 128.728C51.2244 129.322 50.4282 129.661 49.5941 129.672H45.9785C45.5582 129.667 45.1409 129.745 44.7509 129.902C44.361 130.058 44.006 130.291 43.7068 130.586C43.4075 130.882 43.1699 131.233 43.0078 131.621C42.8456 132.009 42.7621 132.425 42.7621 132.846C42.7621 133.266 42.8456 133.682 43.0078 134.07C43.1699 134.458 43.4075 134.809 43.7068 135.105C44.006 135.4 44.361 135.633 44.7509 135.79C45.1409 135.947 45.5582 136.024 45.9785 136.019H68.63C69.0503 136.024 69.4676 135.947 69.8576 135.79C70.2476 135.633 70.6025 135.4 70.9017 135.105C71.201 134.809 71.4386 134.458 71.6008 134.07C71.7629 133.682 71.8465 133.266 71.8465 132.846C71.8465 132.425 71.7629 132.009 71.6008 131.621C71.4386 131.233 71.201 130.882 70.9017 130.586C70.6025 130.291 70.2476 130.058 69.8576 129.902C69.4676 129.745 69.0503 129.667 68.63 129.672H66.6923C66.272 129.678 65.8547 129.6 65.4647 129.443C65.0748 129.286 64.7199 129.054 64.4206 128.758C64.1214 128.463 63.8837 128.111 63.7216 127.724C63.5594 127.336 63.4759 126.92 63.4759 126.499C63.4759 126.079 63.5594 125.663 63.7216 125.275C63.8837 124.887 64.1214 124.535 64.4206 124.24C64.7199 123.945 65.0748 123.712 65.4647 123.555C65.8547 123.398 66.272 123.32 66.6923 123.326H79.9173C80.7591 123.326 81.5663 122.992 82.1615 122.397C82.7567 121.801 83.0911 120.994 83.0911 120.152C83.0911 119.311 82.7567 118.503 82.1615 117.908C81.5663 117.313 80.7591 116.979 79.9173 116.979H79.9191Z" stroke="#E8E8E8" stroke-width="3" stroke-linecap="round" stroke-linejoin="round"/>
<path d="M237.534 199.187H245.283C246.125 199.187 246.932 199.522 247.527 200.117C248.122 200.712 248.457 201.519 248.457 202.361C248.457 203.203 248.122 204.01 247.527 204.605C246.932 205.2 246.125 205.535 245.283 205.535H241.664C240.823 205.535 240.016 205.869 239.421 206.464C238.826 207.059 238.492 207.866 238.492 208.708C238.492 209.549 238.826 210.356 239.421 210.951C240.016 211.546 240.823 211.88 241.664 211.88H264.322C265.164 211.88 265.971 211.546 266.566 210.951C267.161 210.356 267.495 209.549 267.495 208.708C267.495 207.866 267.161 207.059 266.566 206.464C265.971 205.869 265.164 205.535 264.322 205.535H262.383C261.541 205.535 260.734 205.2 260.139 204.605C259.544 204.01 259.209 203.203 259.209 202.361C259.209 201.519 259.544 200.712 260.139 200.117C260.734 199.522 261.541 199.187 262.383 199.187H279.829C280.671 199.187 281.478 198.853 282.073 198.258C282.668 197.663 283.002 196.856 283.002 196.014C283.002 195.173 282.668 194.366 282.073 193.771C281.478 193.176 280.671 192.842 279.829 192.842H237.533C236.691 192.842 235.884 193.176 235.289 193.771C234.694 194.366 234.36 195.173 234.36 196.014C234.36 196.856 234.694 197.663 235.289 198.258C235.884 198.853 236.691 199.187 237.533 199.187H237.534Z" stroke="#E8E8E8" stroke-width="3" stroke-linecap="round" stroke-linejoin="round"/>
<path d="M251.195 79.0013H76.476V232.939H251.195V79.0013Z" fill="#DBDBDB"/>
<path d="M247.699 75.5057H72.9804V229.443H247.699V75.5057Z" fill="white"/>
<path d="M247.699 169.228H72.9804V195.237H247.699V169.228Z" fill="white"/>
<path d="M247.699 139.469H72.9804V169.228H247.699V139.469Z" fill="#F5F5F5"/>
<path d="M247.699 199.486H72.9804V229.244H247.699V199.486Z" fill="#F5F5F5"/>
<path d="M178.473 148.739C178.473 148.823 157.868 148.89 132.458 148.89C107.038 148.89 86.4374 148.823 86.4374 148.739C86.4374 148.655 107.038 148.587 132.458 148.587C157.868 148.587 178.473 148.655 178.473 148.739Z" fill="#4D4D4D"/>
<path d="M125.286 157.021C125.286 157.105 116.529 157.173 105.731 157.173C94.9323 157.173 86.1735 157.105 86.1735 157.021C86.1735 156.937 94.9276 156.87 105.731 156.87C116.534 156.87 125.286 156.939 125.286 157.021Z" fill="#4D4D4D"/>
<path d="M178.473 178.091C178.473 178.175 157.868 178.243 132.458 178.243C107.038 178.243 86.4374 178.175 86.4374 178.091C86.4374 178.007 107.038 177.939 132.458 177.939C157.868 177.939 178.473 178.007 178.473 178.091Z" fill="#4D4D4D"/>
<path d="M125.286 186.374C125.286 186.457 116.529 186.525 105.731 186.525C94.9323 186.525 86.1735 186.457 86.1735 186.374C86.1735 186.29 94.9276 186.221 105.731 186.221C116.534 186.221 125.286 186.29 125.286 186.374Z" fill="#4D4D4D"/>
<path d="M178.473 207.443C178.473 207.527 157.868 207.595 132.458 207.595C107.038 207.595 86.4374 207.527 86.4374 207.443C86.4374 207.359 107.038 207.292 132.458 207.292C157.868 207.292 178.473 207.359 178.473 207.443Z" fill="#4D4D4D"/>
<path d="M125.286 215.723C125.286 215.807 116.529 215.875 105.731 215.875C94.9323 215.875 86.1735 215.807 86.1735 215.723C86.1735 215.639 94.9276 215.572 105.731 215.572C116.534 215.572 125.286 215.642 125.286 215.723Z" fill="#4D4D4D"/>
<path d="M247.699 75.3082H72.9804V89.9933H247.699V75.3082Z" fill="black" fill-opacity="0.12"/>
<path d="M247.699 88.6049H72.9804V103.29H247.699V88.6049Z" fill="#F5F5F5"/>
<path d="M247.732 229.443C247.732 228.466 247.698 169.451 247.644 75.3082L247.732 75.4282L73.1045 75.4597H73.0905L73.2012 75.3082C73.1977 130.024 73.1948 182.132 73.1925 229.443L73.0905 229.303L247.732 229.443L73.0905 229.583H72.9891V229.443C72.9891 182.132 72.9833 130.024 72.9804 75.3082V75.1561H73.1045L247.732 75.1882H247.819V75.3082C247.765 169.451 247.732 228.467 247.732 229.443Z" fill="#263238"/>
<path d="M206.83 150.873H232.352C233.719 150.873 235.031 151.417 235.999 152.384C236.966 153.351 237.509 154.663 237.509 156.031C237.509 156.708 237.376 157.379 237.117 158.005C236.857 158.631 236.477 159.2 235.998 159.679C235.031 160.646 233.719 161.189 232.351 161.189H206.83C206.153 161.189 205.482 161.056 204.856 160.797C204.23 160.538 203.662 160.158 203.183 159.679C202.704 159.2 202.324 158.631 202.065 158.005C201.806 157.379 201.672 156.708 201.672 156.031C201.672 154.663 202.216 153.351 203.183 152.384C204.15 151.417 205.462 150.873 206.83 150.873V150.873Z" fill="#F68B22"/>
<path d="M232.352 190.982H206.83C205.462 190.982 204.149 190.438 203.182 189.471C202.215 188.504 201.671 187.192 201.671 185.824C201.671 184.456 202.215 183.144 203.182 182.176C204.15 181.209 205.462 180.666 206.83 180.666H232.348C233.716 180.666 235.027 181.209 235.995 182.176C236.962 183.144 237.506 184.456 237.506 185.824C237.506 187.191 236.963 188.502 235.996 189.47C235.03 190.437 233.719 190.981 232.352 190.982Z" fill="#EBEBEB"/>
<path d="M246.44 108.364H73.9904V134.373H246.44V108.364Z" fill="white"/>
<path d="M178.113 117.227C178.113 117.311 157.776 117.379 132.695 117.379C107.605 117.379 87.2726 117.311 87.2726 117.227C87.2726 117.143 107.605 117.075 132.695 117.075C157.776 117.075 178.113 117.144 178.113 117.227Z" fill="#4D4D4D"/>
<path d="M125.617 125.51C125.617 125.594 116.974 125.661 106.316 125.661C95.6572 125.661 87.0121 125.594 87.0121 125.51C87.0121 125.426 95.6526 125.358 106.316 125.358C116.978 125.358 125.617 125.426 125.617 125.51Z" fill="#4D4D4D"/>
<path d="M231.292 130.118H206.102C204.751 130.118 203.456 129.575 202.501 128.607C201.547 127.64 201.01 126.328 201.01 124.96C201.01 123.592 201.547 122.28 202.502 121.313C203.456 120.345 204.751 119.802 206.102 119.802H231.288C232.638 119.802 233.933 120.345 234.888 121.313C235.843 122.28 236.379 123.592 236.38 124.96C236.38 126.327 235.844 127.639 234.89 128.606C233.936 129.573 232.642 130.117 231.292 130.118Z" fill="#EBEBEB"/>
<path d="M232.352 209.853H206.83C203.982 209.853 201.672 212.162 201.672 215.011V215.011C201.672 217.86 203.982 220.169 206.83 220.169H232.352C235.2 220.169 237.509 217.86 237.509 215.011V215.011C237.509 212.162 235.2 209.853 232.352 209.853Z" fill="#F68B22"/>
<path d="M160.368 254.21C210.54 254.21 251.212 250.153 251.212 245.148C251.212 240.143 210.54 236.086 160.368 236.086C110.197 236.086 69.5244 240.143 69.5244 245.148C69.5244 250.153 110.197 254.21 160.368 254.21Z" fill="black" fill-opacity="0.12"/>
</svg>
