<svg width="327" height="292" viewBox="0 0 327 292" fill="none" xmlns="http://www.w3.org/2000/svg">
<path fill-rule="evenodd" clip-rule="evenodd" d="M83.6075 286.829C76.7412 285.345 -5.75297 271.966 0.319184 173.301C6.39134 74.6359 14.0144 44.9647 46.0864 34.1069C78.1584 23.2492 156.122 -28.1162 217.3 20.7266C255.11 50.911 315.349 113.236 319.923 128.678C324.497 144.121 334.052 173.752 318.296 191.362C277.048 237.462 287.81 295.362 219.459 291.387C151.109 287.412 116.254 293.893 83.6063 286.829" fill="#F9F9F9"/>
<path d="M81.4787 119.261H52.4045C51.976 119.267 51.5506 119.188 51.153 119.028C50.7554 118.868 50.3935 118.63 50.0884 118.329C49.7834 118.028 49.5411 117.67 49.3758 117.275C49.2104 116.879 49.1253 116.455 49.1253 116.026C49.1253 115.598 49.2104 115.173 49.3758 114.778C49.5411 114.383 49.7834 114.024 50.0884 113.723C50.3935 113.422 50.7554 113.185 51.153 113.025C51.5506 112.865 51.976 112.785 52.4045 112.791H55.6006C56.0292 112.797 56.4546 112.718 56.8521 112.558C57.2497 112.398 57.6116 112.16 57.9167 111.859C58.2218 111.558 58.464 111.2 58.6293 110.804C58.7947 110.409 58.8798 109.985 58.8798 109.556C58.8798 109.128 58.7947 108.703 58.6293 108.308C58.464 107.913 58.2218 107.554 57.9167 107.253C57.6116 106.952 57.2497 106.715 56.8521 106.555C56.4546 106.395 56.0292 106.315 55.6006 106.321H36.0537C35.6251 106.315 35.1997 106.395 34.8021 106.555C34.4046 106.715 34.0427 106.952 33.7376 107.253C33.4325 107.554 33.1903 107.913 33.025 108.308C32.8596 108.703 32.7745 109.128 32.7745 109.556C32.7745 109.985 32.8596 110.409 33.025 110.804C33.1903 111.2 33.4325 111.558 33.7376 111.859C34.0427 112.16 34.4046 112.398 34.8021 112.558C35.1997 112.718 35.6251 112.797 36.0537 112.791H39.0918C39.5203 112.785 39.9457 112.865 40.3433 113.025C40.7409 113.185 41.1028 113.422 41.4079 113.723C41.7129 114.024 41.9552 114.383 42.1205 114.778C42.2859 115.173 42.371 115.598 42.371 116.026C42.371 116.455 42.2859 116.879 42.1205 117.275C41.9552 117.67 41.7129 118.028 41.4079 118.329C41.1028 118.63 40.7409 118.868 40.3433 119.028C39.9457 119.188 39.5203 119.267 39.0918 119.261H30.1229C29.2647 119.261 28.4417 119.602 27.8349 120.209C27.2281 120.816 26.8872 121.639 26.8872 122.497C26.8872 123.355 27.2281 124.178 27.8349 124.785C28.4417 125.392 29.2647 125.733 30.1229 125.733H50.562C51.4124 125.744 52.224 126.09 52.8213 126.696C53.4186 127.301 53.7535 128.117 53.7535 128.968C53.7535 129.818 53.4186 130.634 52.8213 131.24C52.224 131.845 51.4124 132.191 50.562 132.203H46.8758C46.4473 132.197 46.0219 132.276 45.6243 132.436C45.2267 132.596 44.8648 132.834 44.5598 133.135C44.2547 133.436 44.0124 133.794 43.8471 134.19C43.6818 134.585 43.5966 135.009 43.5966 135.438C43.5966 135.866 43.6818 136.291 43.8471 136.686C44.0124 137.081 44.2547 137.44 44.5598 137.741C44.8648 138.042 45.2267 138.279 45.6243 138.439C46.0219 138.599 46.4473 138.679 46.8758 138.673H69.9694C70.3979 138.679 70.8233 138.599 71.2209 138.439C71.6185 138.279 71.9803 138.042 72.2854 137.741C72.5905 137.44 72.8327 137.081 72.9981 136.686C73.1634 136.291 73.2486 135.866 73.2486 135.438C73.2486 135.009 73.1634 134.585 72.9981 134.19C72.8327 133.794 72.5905 133.436 72.2854 133.135C71.9803 132.834 71.6185 132.596 71.2209 132.436C70.8233 132.276 70.3979 132.197 69.9694 132.203H67.9938C67.5653 132.209 67.1399 132.129 66.7423 131.969C66.3447 131.809 65.9829 131.572 65.6778 131.271C65.3727 130.97 65.1305 130.611 64.9651 130.216C64.7998 129.821 64.7146 129.396 64.7146 128.968C64.7146 128.539 64.7998 128.115 64.9651 127.719C65.1305 127.324 65.3727 126.965 65.6778 126.665C65.9829 126.364 66.3447 126.126 66.7423 125.966C67.1399 125.806 67.5653 125.727 67.9938 125.733H81.4769C82.3351 125.733 83.1581 125.392 83.7649 124.785C84.3717 124.178 84.7126 123.355 84.7126 122.497C84.7126 121.639 84.3717 120.816 83.7649 120.209C83.1581 119.602 82.3351 119.261 81.4769 119.261H81.4787Z" stroke="#E8E8E8" stroke-width="3" stroke-linecap="round" stroke-linejoin="round"/>
<path d="M242.17 203.074H250.069C250.928 203.074 251.751 203.415 252.357 204.022C252.964 204.629 253.305 205.452 253.305 206.31C253.305 207.168 252.964 207.991 252.357 208.598C251.751 209.204 250.928 209.545 250.069 209.545H246.38C245.522 209.545 244.7 209.886 244.093 210.493C243.486 211.099 243.146 211.922 243.146 212.78C243.146 213.638 243.486 214.461 244.093 215.067C244.7 215.674 245.522 216.015 246.38 216.015H269.48C270.338 216.015 271.161 215.674 271.768 215.067C272.374 214.461 272.715 213.638 272.715 212.78C272.715 211.922 272.374 211.099 271.768 210.493C271.161 209.886 270.338 209.545 269.48 209.545H267.503C266.645 209.545 265.822 209.204 265.215 208.598C264.608 207.991 264.267 207.168 264.267 206.31C264.267 205.452 264.608 204.629 265.215 204.022C265.822 203.415 266.645 203.074 267.503 203.074H285.29C286.148 203.074 286.971 202.733 287.577 202.127C288.184 201.52 288.525 200.697 288.525 199.839C288.525 198.981 288.184 198.159 287.577 197.552C286.971 196.945 286.148 196.604 285.29 196.604H242.168C241.31 196.604 240.487 196.945 239.881 197.552C239.274 198.159 238.933 198.981 238.933 199.839C238.933 200.697 239.274 201.52 239.881 202.127C240.487 202.733 241.31 203.074 242.168 203.074H242.17Z" stroke="#E8E8E8" stroke-width="3" stroke-linecap="round" stroke-linejoin="round"/>
<path d="M256.098 80.5435H77.9695V237.485H256.098V80.5435Z" fill="#DBDBDB"/>
<path d="M252.533 76.979H74.4045V233.92H252.533V76.979Z" fill="white"/>
<path d="M252.533 172.53H74.4045V199.046H252.533V172.53Z" fill="white"/>
<path d="M217.228 183.663C217.228 183.749 196.494 183.818 170.923 183.818C145.344 183.818 124.614 183.749 124.614 183.663C124.614 183.578 145.344 183.509 170.923 183.509C196.494 183.509 217.228 183.578 217.228 183.663Z" fill="#4D4D4D"/>
<path d="M163.706 192.108C163.706 192.193 154.895 192.262 144.029 192.262C133.162 192.262 124.349 192.193 124.349 192.108C124.349 192.022 133.158 191.953 144.029 191.953C154.9 191.953 163.706 192.022 163.706 192.108Z" fill="#4D4D4D"/>
<path d="M252.533 142.191H74.4045V172.53H252.533V142.191Z" fill="#F5F5F5"/>
<path d="M217.227 153.371C217.227 153.456 196.493 153.526 170.923 153.526C145.343 153.526 124.614 153.456 124.614 153.371C124.614 153.285 145.343 153.216 170.923 153.216C196.493 153.216 217.227 153.286 217.227 153.371Z" fill="#4D4D4D"/>
<path d="M163.706 161.815C163.706 161.901 154.895 161.97 144.028 161.97C133.162 161.97 124.348 161.901 124.348 161.815C124.348 161.73 133.157 161.66 144.028 161.66C154.899 161.66 163.706 161.73 163.706 161.815Z" fill="#4D4D4D"/>
<path d="M105.81 193.92C105.81 192.532 105.258 191.201 104.277 190.22C103.295 189.238 101.964 188.687 100.576 188.687H99.0807C97.6928 188.687 96.3617 189.238 95.3802 190.22C94.3988 191.201 93.8474 192.532 93.8474 193.92V195.415H105.81V193.92Z" fill="#F68B22"/>
<path d="M99.8282 187.735C101.48 187.735 102.819 186.397 102.819 184.745C102.819 183.093 101.48 181.754 99.8282 181.754C98.1766 181.754 96.8376 183.093 96.8376 184.745C96.8376 186.397 98.1766 187.735 99.8282 187.735Z" fill="#F68B22"/>
<path d="M90.8022 179.996C91.4835 179.2 92.2683 178.498 93.1356 177.91L92.8045 175.027L97.3354 173.439L98.8767 175.898C99.9216 175.816 100.973 175.874 102.002 176.071L103.806 173.799L108.133 175.88L107.485 178.707C108.281 179.388 108.983 180.174 109.571 181.041L112.455 180.71L114.042 185.241L111.583 186.783C111.665 187.827 111.607 188.878 111.41 189.908L113.682 191.712L111.601 196.039L108.774 195.389C108.092 196.185 107.307 196.887 106.44 197.475L106.771 200.359L102.24 201.946L100.699 199.487C99.6538 199.569 98.6028 199.511 97.5735 199.314L95.7695 201.586L91.4425 199.505L92.0911 196.678C91.2947 195.996 90.593 195.211 90.0046 194.344L87.1215 194.675L85.5317 190.144L87.9907 188.603C87.9091 187.558 87.9672 186.507 88.1636 185.478L85.8918 183.674L87.9728 179.347L90.8006 179.995L90.8022 179.996ZM93.9508 184.885C93.3952 186.04 93.1944 187.333 93.374 188.602C93.5536 189.871 94.1054 191.058 94.9597 192.013C95.8139 192.968 96.9322 193.648 98.1731 193.968C99.4141 194.287 100.722 194.231 101.931 193.808C103.14 193.384 104.197 192.611 104.967 191.587C105.737 190.562 106.186 189.333 106.257 188.053C106.328 186.774 106.018 185.502 105.366 184.399C104.714 183.296 103.75 182.41 102.595 181.855C101.828 181.487 100.997 181.272 100.147 181.225C99.2977 181.178 98.4473 181.299 97.6444 181.58C96.8416 181.861 96.102 182.298 95.468 182.866C94.834 183.433 94.3179 184.119 93.9492 184.886L93.9508 184.885Z" fill="#EBEBEB"/>
<path d="M105.81 163.628C105.81 162.24 105.258 160.909 104.277 159.928C103.295 158.946 101.964 158.395 100.576 158.395H99.0807C97.6928 158.395 96.3617 158.946 95.3802 159.928C94.3988 160.909 93.8474 162.24 93.8474 163.628V165.123H105.81V163.628Z" fill="#F68B22"/>
<path d="M99.8282 157.443C101.48 157.443 102.819 156.104 102.819 154.452C102.819 152.801 101.48 151.462 99.8282 151.462C98.1766 151.462 96.8376 152.801 96.8376 154.452C96.8376 156.104 98.1766 157.443 99.8282 157.443Z" fill="#F68B22"/>
<path d="M90.8022 149.704C91.4835 148.908 92.2683 148.206 93.1356 147.618L92.8045 144.734L97.3354 143.146L98.8767 145.605C99.9216 145.523 100.973 145.581 102.002 145.778L103.806 143.506L108.133 145.588L107.485 148.415C108.281 149.096 108.983 149.881 109.571 150.749L112.455 150.418L114.042 154.949L111.583 156.49C111.665 157.535 111.607 158.586 111.41 159.615L113.682 161.419L111.601 165.746L108.774 165.096C108.092 165.893 107.307 166.594 106.44 167.183L106.771 170.066L102.24 171.654L100.699 169.195C99.6538 169.277 98.6028 169.218 97.5735 169.022L95.7695 171.294L91.4425 169.213L92.0911 166.385C91.2947 165.704 90.593 164.919 90.0046 164.052L87.1215 164.383L85.5317 159.852L87.9907 158.31C87.9091 157.265 87.9672 156.214 88.1636 155.185L85.8918 153.381L87.9728 149.054L90.8006 149.703L90.8022 149.704ZM93.9508 154.592C93.3952 155.747 93.1944 157.041 93.374 158.309C93.5536 159.578 94.1054 160.765 94.9597 161.72C95.8139 162.675 96.9322 163.356 98.1731 163.675C99.4141 163.995 100.722 163.939 101.931 163.515C103.14 163.091 104.197 162.318 104.967 161.294C105.737 160.27 106.186 159.04 106.257 157.761C106.328 156.481 106.018 155.21 105.366 154.106C104.714 153.003 103.75 152.118 102.595 151.563C101.828 151.194 100.997 150.98 100.147 150.933C99.2977 150.886 98.4473 151.006 97.6444 151.288C96.8416 151.569 96.102 152.006 95.468 152.573C94.834 153.14 94.3179 153.827 93.9492 154.594L93.9508 154.592Z" fill="#EBEBEB"/>
<path d="M252.374 203.731H74.2461V234.07H252.374V203.731Z" fill="#F5F5F5"/>
<path d="M217.227 213.955C217.227 214.04 196.493 214.11 170.923 214.11C145.343 214.11 124.614 214.04 124.614 213.955C124.614 213.869 145.343 213.8 170.923 213.8C196.493 213.8 217.227 213.87 217.227 213.955Z" fill="#4D4D4D"/>
<path d="M163.706 222.399C163.706 222.485 154.895 222.554 144.028 222.554C133.162 222.554 124.348 222.485 124.348 222.399C124.348 222.314 133.157 222.244 144.028 222.244C154.899 222.244 163.706 222.314 163.706 222.399Z" fill="#4D4D4D"/>
<path d="M105.809 224.807C105.809 223.419 105.258 222.088 104.277 221.107C103.295 220.125 101.964 219.574 100.576 219.574H99.0805C97.6925 219.574 96.3614 220.125 95.38 221.107C94.3985 222.088 93.8472 223.419 93.8472 224.807V226.302H105.809V224.807Z" fill="#F68B22"/>
<path d="M99.8279 218.621C101.48 218.621 102.818 217.282 102.818 215.631C102.818 213.979 101.48 212.64 99.8279 212.64C98.1763 212.64 96.8374 213.979 96.8374 215.631C96.8374 217.282 98.1763 218.621 99.8279 218.621Z" fill="#F68B22"/>
<path d="M90.802 210.882C91.4833 210.086 92.268 209.384 93.1354 208.796L92.8043 205.912L97.3352 204.325L98.8764 206.784C99.9213 206.701 100.972 206.76 102.002 206.957L103.806 204.684L108.133 206.766L107.484 209.593C108.281 210.274 108.983 211.059 109.571 211.927L112.454 211.596L114.042 216.127L111.583 217.668C111.665 218.713 111.607 219.764 111.41 220.794L113.682 222.598L111.601 226.925L108.774 226.275C108.092 227.071 107.307 227.773 106.44 228.361L106.771 231.244L102.24 232.832L100.698 230.373C99.6536 230.455 98.6026 230.397 97.5732 230.2L95.7692 232.472L91.4423 230.391L92.0909 227.564C91.2945 226.882 90.5928 226.097 90.0043 225.23L87.1213 225.561L85.5315 221.03L87.9905 219.488C87.9088 218.444 87.9669 217.393 88.1634 216.363L85.8916 214.559L87.9726 210.232L90.8004 210.881L90.802 210.882ZM93.9505 215.771C93.3949 216.925 93.1942 218.219 93.3738 219.488C93.5534 220.756 94.1052 221.943 94.9594 222.898C95.8137 223.854 96.932 224.534 98.1729 224.853C99.4138 225.173 100.722 225.117 101.931 224.693C103.14 224.27 104.197 223.497 104.967 222.472C105.737 221.448 106.185 220.218 106.257 218.939C106.328 217.66 106.018 216.388 105.366 215.285C104.714 214.181 103.75 213.296 102.595 212.741C101.828 212.372 100.996 212.158 100.147 212.111C99.2975 212.064 98.4471 212.184 97.6442 212.466C96.8413 212.747 96.1018 213.184 95.4678 213.751C94.8337 214.319 94.3176 215.005 93.9489 215.772L93.9505 215.771Z" fill="#EBEBEB"/>
<path d="M252.533 76.7773H74.4048V91.749H252.533V76.7773Z" fill="black" fill-opacity="0.12"/>
<path d="M252.533 90.333H74.4045V105.305H252.533V90.333Z" fill="#F5F5F5"/>
<path d="M252.565 233.92C252.565 232.924 252.531 172.757 252.476 76.7771L252.565 76.8995L74.5301 76.9315H74.5158L74.6287 76.7771C74.6251 132.561 74.6221 185.686 74.6198 233.92L74.5158 233.777L252.565 233.92L74.5158 234.062H74.4125V233.92C74.4125 185.686 74.4065 132.561 74.4036 76.7771V76.6221H74.5301L252.565 76.6547H252.654V76.7771C252.599 172.757 252.566 232.924 252.565 233.92Z" fill="#263238"/>
<path d="M251.249 110.478H75.4341V136.994H251.249V110.478Z" fill="white"/>
<path d="M105.809 129.771C105.809 128.383 105.258 127.052 104.277 126.071C103.295 125.089 101.964 124.538 100.576 124.538H99.0805C97.6925 124.538 96.3614 125.089 95.38 126.071C94.3985 127.052 93.8472 128.383 93.8472 129.771V131.266H105.809V129.771Z" fill="#F68B22"/>
<path d="M99.8279 123.587C101.48 123.587 102.818 122.248 102.818 120.596C102.818 118.944 101.48 117.605 99.8279 117.605C98.1763 117.605 96.8374 118.944 96.8374 120.596C96.8374 122.248 98.1763 123.587 99.8279 123.587Z" fill="#F68B22"/>
<path d="M90.802 115.847C91.4833 115.051 92.268 114.349 93.1354 113.761L92.8043 110.877L97.3352 109.29L98.8764 111.749C99.9213 111.666 100.972 111.724 102.002 111.921L103.806 109.649L108.133 111.731L107.484 114.558C108.281 115.239 108.983 116.024 109.571 116.892L112.454 116.561L114.042 121.092L111.583 122.633C111.665 123.678 111.607 124.729 111.41 125.758L113.682 127.562L111.601 131.889L108.774 131.24C108.092 132.036 107.307 132.737 106.44 133.326L106.771 136.209L102.24 137.797L100.698 135.338C99.6536 135.42 98.6026 135.361 97.5732 135.165L95.7692 137.437L91.4423 135.356L92.0909 132.528C91.2945 131.847 90.5928 131.062 90.0043 130.195L87.1213 130.526L85.5315 125.995L87.9905 124.453C87.9088 123.408 87.9669 122.357 88.1634 121.328L85.8916 119.524L87.9726 115.197L90.8004 115.846L90.802 115.847ZM93.9505 120.736C93.3949 121.89 93.1942 123.184 93.3738 124.452C93.5534 125.721 94.1052 126.908 94.9594 127.863C95.8137 128.818 96.932 129.499 98.1729 129.818C99.4138 130.138 100.722 130.082 101.931 129.658C103.14 129.234 104.197 128.461 104.967 127.437C105.737 126.413 106.185 125.183 106.257 123.904C106.328 122.624 106.018 121.353 105.366 120.249C104.714 119.146 103.75 118.261 102.595 117.706C101.828 117.337 100.996 117.123 100.147 117.076C99.2975 117.029 98.4471 117.149 97.6442 117.431C96.8413 117.712 96.1018 118.149 95.4678 118.716C94.8337 119.283 94.3176 119.97 93.9489 120.737L93.9505 120.736Z" fill="#EBEBEB"/>
<path d="M217.227 121.889C217.227 121.975 196.493 122.044 170.923 122.044C145.343 122.044 124.614 121.975 124.614 121.889C124.614 121.804 145.343 121.735 170.923 121.735C196.493 121.735 217.227 121.804 217.227 121.889Z" fill="#4D4D4D"/>
<path d="M163.706 130.334C163.706 130.419 154.895 130.488 144.028 130.488C133.162 130.488 124.348 130.419 124.348 130.334C124.348 130.248 133.157 130.179 144.028 130.179C154.899 130.179 163.706 130.248 163.706 130.334Z" fill="#4D4D4D"/>
<path d="M163.498 259.171C214.648 259.171 256.114 255.034 256.114 249.932C256.114 244.83 214.648 240.693 163.498 240.693C112.347 240.693 70.8811 244.83 70.8811 249.932C70.8811 255.034 112.347 259.171 163.498 259.171Z" fill="black" fill-opacity="0.12"/>
</svg>
