<svg width="312" height="279" viewBox="0 0 312 279" fill="none" xmlns="http://www.w3.org/2000/svg">
<path fill-rule="evenodd" clip-rule="evenodd" d="M79.7723 273.672C73.221 272.255 -5.48908 259.49 0.304543 165.351C6.09816 71.2123 13.3715 42.9021 43.9723 32.5424C74.5732 22.1827 148.96 -26.8265 207.332 19.7758C243.408 48.5756 300.884 108.041 305.248 122.776C309.612 137.51 318.729 165.782 303.695 182.584C264.34 226.569 274.607 281.814 209.392 278.021C144.177 274.228 110.922 280.412 79.7711 273.672" fill="#F9F9F9"/>
<path d="M77.7411 113.791H50.0006C49.5917 113.796 49.1858 113.721 48.8065 113.568C48.4271 113.415 48.0819 113.189 47.7908 112.902C47.4997 112.614 47.2685 112.272 47.1108 111.895C46.953 111.518 46.8718 111.113 46.8718 110.704C46.8718 110.295 46.953 109.89 47.1108 109.513C47.2685 109.136 47.4997 108.794 47.7908 108.507C48.0819 108.219 48.4271 107.993 48.8065 107.84C49.1858 107.688 49.5917 107.612 50.0006 107.617H53.0501C53.459 107.623 53.8649 107.547 54.2442 107.395C54.6236 107.242 54.9688 107.016 55.2599 106.728C55.551 106.441 55.7821 106.099 55.9399 105.722C56.0976 105.345 56.1789 104.94 56.1789 104.531C56.1789 104.122 56.0976 103.717 55.9399 103.34C55.7821 102.963 55.551 102.62 55.2599 102.333C54.9688 102.046 54.6236 101.82 54.2442 101.667C53.8649 101.514 53.459 101.439 53.0501 101.444H34.3998C33.9909 101.439 33.585 101.514 33.2057 101.667C32.8263 101.82 32.4811 102.046 32.19 102.333C31.8989 102.62 31.6678 102.963 31.51 103.34C31.3523 103.717 31.271 104.122 31.271 104.531C31.271 104.94 31.3523 105.345 31.51 105.722C31.6678 106.099 31.8989 106.441 32.19 106.728C32.4811 107.016 32.8263 107.242 33.2057 107.395C33.585 107.547 33.9909 107.623 34.3998 107.617H37.2986C37.7074 107.612 38.1133 107.688 38.4927 107.84C38.872 107.993 39.2173 108.219 39.5084 108.507C39.7995 108.794 40.0306 109.136 40.1884 109.513C40.3461 109.89 40.4273 110.295 40.4273 110.704C40.4273 111.113 40.3461 111.518 40.1884 111.895C40.0306 112.272 39.7995 112.614 39.5084 112.902C39.2173 113.189 38.872 113.415 38.4927 113.568C38.1133 113.721 37.7074 113.796 37.2986 113.791H28.741C27.9223 113.791 27.137 114.116 26.558 114.695C25.9791 115.274 25.6538 116.059 25.6538 116.878C25.6538 117.697 25.9791 118.482 26.558 119.061C27.137 119.64 27.9223 119.965 28.741 119.965H48.2426C49.054 119.976 49.8284 120.306 50.3983 120.884C50.9682 121.462 51.2877 122.24 51.2877 123.052C51.2877 123.863 50.9682 124.642 50.3983 125.22C49.8284 125.798 49.054 126.128 48.2426 126.139H44.7255C44.3166 126.133 43.9107 126.209 43.5314 126.361C43.152 126.514 42.8068 126.741 42.5157 127.028C42.2246 127.315 41.9935 127.657 41.8357 128.034C41.678 128.411 41.5967 128.816 41.5967 129.225C41.5967 129.634 41.678 130.039 41.8357 130.416C41.9935 130.793 42.2246 131.136 42.5157 131.423C42.8068 131.71 43.152 131.936 43.5314 132.089C43.9107 132.242 44.3166 132.317 44.7255 132.312H66.7597C67.1686 132.317 67.5745 132.242 67.9538 132.089C68.3332 131.936 68.6784 131.71 68.9695 131.423C69.2606 131.136 69.4917 130.793 69.6495 130.416C69.8073 130.039 69.8885 129.634 69.8885 129.225C69.8885 128.816 69.8073 128.411 69.6495 128.034C69.4917 127.657 69.2606 127.315 68.9695 127.028C68.6784 126.741 68.3332 126.514 67.9538 126.361C67.5745 126.209 67.1686 126.133 66.7597 126.139H64.8748C64.4659 126.144 64.06 126.068 63.6807 125.916C63.3014 125.763 62.9561 125.537 62.665 125.249C62.3739 124.962 62.1428 124.62 61.985 124.243C61.8273 123.866 61.746 123.461 61.746 123.052C61.746 122.643 61.8273 122.238 61.985 121.861C62.1428 121.484 62.3739 121.142 62.665 120.854C62.9561 120.567 63.3014 120.341 63.6807 120.188C64.06 120.035 64.4659 119.96 64.8748 119.965H77.7394C78.5582 119.965 79.3435 119.64 79.9224 119.061C80.5014 118.482 80.8267 117.697 80.8267 116.878C80.8267 116.059 80.5014 115.274 79.9224 114.695C79.3435 114.116 78.5582 113.791 77.7394 113.791H77.7411Z" stroke="#E8E8E8" stroke-width="3" stroke-linecap="round" stroke-linejoin="round"/>
<path d="M231.061 193.759H238.598C239.417 193.759 240.202 194.084 240.781 194.663C241.36 195.242 241.686 196.027 241.686 196.846C241.686 197.665 241.36 198.45 240.781 199.029C240.202 199.608 239.417 199.933 238.598 199.933H235.078C234.26 199.933 233.475 200.258 232.896 200.837C232.317 201.416 231.992 202.201 231.992 203.02C231.992 203.838 232.317 204.623 232.896 205.202C233.475 205.781 234.26 206.106 235.078 206.106H257.119C257.938 206.106 258.723 205.781 259.301 205.202C259.88 204.623 260.205 203.838 260.205 203.02C260.205 202.201 259.88 201.416 259.301 200.837C258.723 200.258 257.938 199.933 257.119 199.933H255.232C254.414 199.933 253.628 199.608 253.049 199.029C252.47 198.45 252.145 197.665 252.145 196.846C252.145 196.027 252.47 195.242 253.049 194.663C253.628 194.084 254.414 193.759 255.232 193.759H272.203C273.022 193.759 273.807 193.434 274.386 192.855C274.965 192.276 275.29 191.491 275.29 190.672C275.29 189.854 274.965 189.069 274.386 188.49C273.807 187.911 273.022 187.586 272.203 187.586H231.059C230.241 187.586 229.456 187.911 228.877 188.49C228.298 189.069 227.973 189.854 227.973 190.672C227.973 191.491 228.298 192.276 228.877 192.855C229.456 193.434 230.241 193.759 231.059 193.759H231.061Z" stroke="#E8E8E8" stroke-width="3" stroke-linecap="round" stroke-linejoin="round"/>
<path d="M244.349 75.7158H74.3919V225.458H244.349V75.7158Z" fill="#DBDBDB"/>
<path d="M240.949 72.3154H70.9915V222.058H240.949V72.3154Z" fill="white"/>
<g clip-path="url(#clip0_24_165)">
<path d="M177.347 163.289C190.042 163.289 200.334 152.997 200.334 140.301C200.334 127.605 190.042 117.313 177.347 117.313C164.651 117.313 154.359 127.605 154.359 140.301C154.359 152.997 164.651 163.289 177.347 163.289Z" fill="url(#paint0_linear_24_165)"/>
<path d="M168.412 126.703C166.334 127.277 164.324 126.568 163.923 125.118C163.522 123.668 164.881 122.026 166.96 121.452C169.038 120.877 171.047 121.587 171.448 123.037C171.849 124.487 170.49 126.128 168.412 126.703Z" fill="#4D4D4D" fill-opacity="0.31"/>
<path d="M163.334 130.443C162.547 131.832 161.122 132.513 160.153 131.964C159.185 131.415 159.036 129.843 159.824 128.454C160.611 127.065 162.035 126.384 163.004 126.933C163.973 127.483 164.121 129.054 163.334 130.443Z" fill="#4D4D4D" fill-opacity="0.31"/>
<path d="M171.83 134.674C173.153 132.339 172.905 129.697 171.275 128.773C169.645 127.849 167.251 128.994 165.928 131.329C164.604 133.665 164.852 136.307 166.482 137.23C168.112 138.154 170.506 137.009 171.83 134.674Z" fill="#4D4D4D" fill-opacity="0.3"/>
<path d="M194.117 153.117C196.117 150.072 196.015 146.473 193.891 145.078C191.766 143.683 188.423 145.02 186.424 148.065C184.424 151.109 184.526 154.709 186.65 156.104C188.775 157.499 192.118 156.162 194.117 153.117Z" fill="url(#paint1_linear_24_165)" fill-opacity="0.3"/>
<path d="M113.411 160.986C113.339 160.567 113.223 160.157 113.066 159.762C113.019 159.645 112.969 159.527 112.915 159.411C112.306 158.119 111.271 157.076 109.982 156.459C108.694 155.842 107.232 155.689 105.844 156.025C105.037 156.222 104.277 156.579 103.61 157.075C102.846 157.642 102.225 158.379 101.794 159.227C101.399 159.997 101.17 160.843 101.123 161.708C101.081 162.463 101.18 163.219 101.413 163.939C101.494 164.19 101.59 164.437 101.702 164.676C101.756 164.791 101.814 164.903 101.874 165.012C102.578 166.3 103.715 167.296 105.084 167.823C106.453 168.349 107.965 168.373 109.35 167.89C110.735 167.406 111.904 166.447 112.647 165.182C113.391 163.918 113.662 162.43 113.411 160.985V160.986Z" fill="url(#paint2_linear_24_165)"/>
<path d="M110.548 156.724L110.556 156.73L110.585 156.727C111.217 156.655 111.856 156.697 112.473 156.85C112.727 156.891 112.967 156.993 113.173 157.148C113.378 157.303 113.542 157.506 113.652 157.739C113.761 157.971 113.812 158.227 113.8 158.484C113.788 158.741 113.714 158.992 113.583 159.213C113.431 159.544 113.239 159.855 113.01 160.138C112.922 160.247 112.828 160.359 112.727 160.473C112.645 160.562 112.563 160.653 112.472 160.743C109.847 163.158 106.545 164.709 103.01 165.186C102.883 165.197 102.76 165.205 102.642 165.21C102.49 165.216 102.344 165.217 102.203 165.213C101.839 165.209 101.476 165.16 101.125 165.065C100.871 165.024 100.631 164.922 100.425 164.767C100.22 164.612 100.055 164.409 99.946 164.176C99.8366 163.944 99.7857 163.688 99.7977 163.431C99.8097 163.174 99.8841 162.924 100.015 162.702C100.291 162.13 100.668 161.611 101.127 161.171L101.148 161.151V161.141C99.1963 162.804 98.2108 164.53 98.7621 165.704C99.3134 166.878 101.272 167.222 103.797 166.782C103.966 166.752 104.138 166.719 104.312 166.682C107.395 165.988 110.288 164.629 112.791 162.7C112.93 162.589 113.065 162.478 113.196 162.366C115.148 160.704 116.133 158.978 115.582 157.803C115.03 156.629 113.073 156.284 110.548 156.724Z" fill="#4D4D4D" fill-opacity="0.3"/>
<path d="M101.516 133.28C101.547 133.053 101.554 132.824 101.538 132.595C101.533 132.527 101.527 132.459 101.518 132.391C101.499 132.25 101.472 132.111 101.436 131.975C101.277 131.37 100.95 130.822 100.494 130.394C100.312 130.225 100.112 130.075 99.8971 129.949C99.2072 129.546 98.3952 129.403 97.6091 129.548C96.8231 129.694 96.1153 130.116 95.6149 130.739C95.3948 131.012 95.2197 131.317 95.0959 131.645C94.9513 132.025 94.8783 132.429 94.8805 132.837C94.8806 132.979 94.89 133.121 94.9083 133.263C94.9174 133.33 94.9288 133.397 94.9415 133.463C94.9853 133.688 95.052 133.908 95.1406 134.119C95.2428 134.363 95.3742 134.594 95.5317 134.807C95.9256 135.34 96.4696 135.744 97.0943 135.967C97.7189 136.189 98.3957 136.221 99.0383 136.057C99.6808 135.893 100.26 135.541 100.701 135.046C101.143 134.551 101.427 133.936 101.517 133.279L101.516 133.28Z" fill="url(#paint3_linear_24_165)"/>
<path d="M98.3726 131.262C98.4093 131.224 98.4431 131.183 98.4738 131.14C98.4828 131.127 98.4914 131.114 98.5 131.101C98.5172 131.075 98.5329 131.047 98.5471 131.019C98.5669 130.981 98.5836 130.942 98.5971 130.902C98.6102 130.864 98.6197 130.825 98.6254 130.786C98.6314 130.747 98.6331 130.708 98.6303 130.669C98.6288 130.645 98.6254 130.623 98.62 130.6C98.616 130.582 98.6107 130.564 98.6041 130.546C98.575 130.469 98.5202 130.405 98.4488 130.363C98.4162 130.345 98.3814 130.332 98.3452 130.322C98.306 130.312 98.2657 130.306 98.2252 130.304C98.1196 130.302 98.0145 130.321 97.9164 130.36C97.8926 130.369 97.8684 130.379 97.8447 130.39C97.8209 130.401 97.7902 130.417 97.7628 130.431C97.719 130.457 97.6768 130.485 97.6366 130.516C97.5985 130.545 97.5624 130.576 97.5285 130.61C97.4949 130.643 97.4635 130.678 97.4343 130.715C97.4142 130.741 97.3933 130.767 97.3773 130.794C97.3692 130.807 97.3614 130.82 97.354 130.832C97.329 130.875 97.3076 130.919 97.2901 130.965C97.2706 131.013 97.2569 131.064 97.2491 131.116C97.2407 131.175 97.2429 131.236 97.2557 131.294C97.2705 131.362 97.3042 131.424 97.3528 131.473C97.4014 131.523 97.463 131.558 97.5305 131.574C97.7002 131.61 97.8772 131.586 98.031 131.506C98.1018 131.472 98.1689 131.431 98.2313 131.383C98.2815 131.347 98.3288 131.306 98.3726 131.262Z" fill="#4D4D4D" fill-opacity="0.3"/>
<path d="M99.2684 130.894C99.3008 130.918 99.3352 130.941 99.3712 130.96L99.4027 130.977C99.4251 130.987 99.4472 130.997 99.4691 131.005C99.4999 131.016 99.5315 131.025 99.5637 131.032C99.5938 131.038 99.6243 131.042 99.655 131.043C99.6854 131.044 99.7157 131.041 99.7455 131.036C99.763 131.032 99.7801 131.028 99.7967 131.022C99.8107 131.017 99.8244 131.011 99.8377 131.004C99.8941 130.975 99.9384 130.927 99.963 130.868C99.9743 130.842 99.9822 130.814 99.9864 130.786C99.9909 130.755 99.9917 130.724 99.9888 130.692C99.9808 130.611 99.9566 130.533 99.9176 130.461C99.9081 130.444 99.8983 130.426 99.8873 130.409C99.8762 130.392 99.8615 130.368 99.8463 130.351C99.8229 130.32 99.7975 130.29 99.7701 130.262C99.7444 130.236 99.717 130.211 99.6882 130.188C99.6596 130.166 99.6296 130.145 99.5985 130.126C99.5773 130.113 99.5555 130.101 99.533 130.09L99.5014 130.075C99.4668 130.06 99.4309 130.048 99.3941 130.039C99.355 130.029 99.3149 130.024 99.2745 130.023C99.2284 130.022 99.1825 130.03 99.1389 130.045C99.0884 130.062 99.0439 130.094 99.0105 130.136C98.9772 130.178 98.9564 130.228 98.9505 130.281C98.9386 130.415 98.9736 130.548 99.0497 130.658C99.082 130.709 99.1193 130.757 99.1611 130.8C99.1943 130.834 99.2301 130.865 99.2684 130.894Z" fill="#4D4D4D" fill-opacity="0.3"/>
<path d="M99.5911 131.609C99.5781 131.578 99.5627 131.548 99.5453 131.52C99.5404 131.511 99.535 131.503 99.5297 131.495C99.5187 131.478 99.5068 131.462 99.4941 131.447C99.4771 131.426 99.4583 131.406 99.438 131.388C99.4191 131.371 99.3988 131.356 99.3773 131.343C99.3561 131.329 99.3334 131.318 99.3098 131.31C99.2964 131.305 99.2827 131.302 99.2688 131.299C99.257 131.297 99.2451 131.296 99.2332 131.295C99.1808 131.293 99.1294 131.309 99.0874 131.34C99.0683 131.354 99.0512 131.371 99.0366 131.39C99.0203 131.41 99.0065 131.432 98.9956 131.456C98.9679 131.517 98.9526 131.583 98.9506 131.65C98.9506 131.666 98.9506 131.683 98.9506 131.699C98.9506 131.716 98.9526 131.738 98.9551 131.758C98.9589 131.79 98.9648 131.821 98.9727 131.853C98.9803 131.882 98.9897 131.911 99.0009 131.939C99.0116 131.968 99.0242 131.995 99.0386 132.021C99.0485 132.039 99.0591 132.057 99.0706 132.074L99.0874 132.097C99.1058 132.123 99.1262 132.146 99.1484 132.168C99.1723 132.191 99.1987 132.211 99.227 132.229C99.2594 132.249 99.2952 132.262 99.3327 132.27C99.376 132.278 99.4208 132.274 99.4619 132.258C99.503 132.242 99.5387 132.214 99.5649 132.179C99.6285 132.089 99.6588 131.979 99.6505 131.869C99.6485 131.82 99.6415 131.77 99.6296 131.722C99.6198 131.684 99.607 131.646 99.5911 131.609Z" fill="#4D4D4D" fill-opacity="0.3"/>
<path d="M100.742 130.627L100.745 130.632L100.761 130.635C101.096 130.7 101.417 130.825 101.709 131.003C101.833 131.066 101.939 131.158 102.019 131.271C102.099 131.383 102.15 131.514 102.168 131.651C102.186 131.788 102.171 131.928 102.123 132.058C102.075 132.187 101.996 132.304 101.893 132.396C101.761 132.541 101.611 132.669 101.447 132.777C101.385 132.82 101.318 132.861 101.248 132.903C101.192 132.935 101.133 132.968 101.073 133C99.3329 133.81 97.3863 134.068 95.4957 133.737C95.4289 133.722 95.3642 133.706 95.3015 133.689C95.2229 133.667 95.1477 133.644 95.0759 133.619C94.8897 133.558 94.712 133.473 94.5471 133.367C94.4237 133.304 94.3173 133.213 94.2373 133.1C94.1573 132.987 94.1061 132.856 94.0879 132.719C94.0698 132.582 94.0854 132.442 94.1334 132.312C94.1814 132.183 94.2602 132.067 94.3632 131.974C94.5982 131.726 94.8756 131.521 95.1823 131.37L95.1959 131.363L95.1983 131.359C93.9261 131.891 93.1389 132.618 93.2303 133.31C93.3216 134.002 94.2698 134.498 95.637 134.684C95.7283 134.696 95.8221 134.707 95.9176 134.717C97.6122 134.864 99.3185 134.639 100.917 134.058C101.007 134.024 101.094 133.989 101.18 133.953C102.452 133.418 103.239 132.694 103.146 132.002C103.052 131.309 102.109 130.812 100.742 130.627Z" fill="#4D4D4D" fill-opacity="0.3"/>
<path opacity="0.7" d="M161.931 177.943C161.931 177.943 195.03 199.001 218.189 240.807V228.954C218.189 228.954 203.967 194.319 172.568 166.291L161.931 177.943Z" fill="url(#paint4_linear_24_165)"/>
<path d="M166.249 190.07L149.983 175.221C149.78 175.036 149.631 174.799 149.551 174.535C149.472 174.272 149.465 173.992 149.532 173.725L151.009 167.847L161.741 177.642L168.192 187.942L166.249 190.07Z" fill="#F68B22"/>
<path d="M185.037 169.488L168.772 154.64C168.569 154.454 168.319 154.327 168.049 154.272C167.78 154.217 167.5 154.236 167.241 154.327L161.521 156.334L172.253 166.13L183.096 171.618L185.037 169.488Z" fill="#F68B22"/>
<path d="M124.757 145.961C126.139 148.048 127.773 149.958 129.621 151.646L161.315 177.254L171.826 165.74L143.446 136.505C141.597 134.818 139.547 133.365 137.343 132.178L124.757 145.961Z" fill="#F5F5F5"/>
<path d="M128.705 129.088L117.824 126.966C117.82 126.965 117.815 126.966 117.811 126.967C117.807 126.969 117.803 126.971 117.8 126.974C117.797 126.978 117.794 126.982 117.793 126.986C117.792 126.991 117.792 126.995 117.794 126.999L120.895 137.643C121.756 140.594 123.058 143.399 124.757 145.961L137.34 132.177C134.634 130.718 131.723 129.677 128.705 129.088Z" fill="#F68B22"/>
<path d="M170.748 164.629L160.111 176.281L161.931 177.943L172.569 166.291L170.748 164.629Z" fill="#E6E6E6"/>
<path d="M157.37 160.878L155.161 163.299L174.55 180.983L176.759 178.562L157.37 160.878Z" fill="#F68B22"/>
<path d="M149.455 161.613C152.802 161.419 155.358 158.55 155.165 155.203C154.971 151.856 152.101 149.3 148.754 149.493C145.408 149.686 142.851 152.556 143.045 155.903C143.238 159.25 146.108 161.806 149.455 161.613Z" fill="#4D4D4D"/>
<path d="M149.409 160.793C152.305 160.625 154.517 158.141 154.348 155.245C154.18 152.349 151.696 150.138 148.8 150.306C145.904 150.474 143.693 152.959 143.861 155.855C144.029 158.751 146.513 160.962 149.409 160.793Z" fill="#F68B22"/>
<g opacity="0.7">
<g opacity="0.7">
<path opacity="0.7" d="M152.323 151.934C152.091 151.728 151.84 151.545 151.573 151.386L144.525 153.977C144.266 154.732 144.198 155.539 144.325 156.327L153.25 153.047C152.999 152.632 152.686 152.257 152.323 151.934Z" fill="url(#paint5_linear_24_165)"/>
</g>
<g opacity="0.7">
<path opacity="0.7" d="M153.735 154.134L144.658 157.47C144.742 157.665 144.838 157.854 144.947 158.037L153.88 154.753C153.845 154.544 153.797 154.337 153.735 154.134Z" fill="url(#paint6_linear_24_165)"/>
</g>
</g>
<path d="M142.701 149.576C144.922 147.065 144.686 143.229 142.174 141.008C139.663 138.788 135.827 139.023 133.606 141.535C131.386 144.047 131.622 147.883 134.133 150.103C136.645 152.324 140.481 152.088 142.701 149.576Z" fill="#4D4D4D"/>
<path d="M138.429 150.803C141.327 150.651 143.553 148.179 143.401 145.281C143.249 142.383 140.777 140.157 137.879 140.309C134.981 140.46 132.755 142.933 132.907 145.83C133.059 148.728 135.531 150.954 138.429 150.803Z" fill="#F68B22"/>
<g opacity="0.7">
<g opacity="0.7">
<path opacity="0.7" d="M141.372 141.937C141.14 141.731 140.889 141.548 140.622 141.389L133.575 143.98C133.316 144.735 133.247 145.543 133.375 146.331L142.3 143.05C142.048 142.635 141.735 142.26 141.372 141.937Z" fill="url(#paint7_linear_24_165)"/>
</g>
<g opacity="0.7">
<path opacity="0.7" d="M142.784 144.137L133.707 147.473C133.79 147.668 133.886 147.857 133.994 148.04L142.927 144.756C142.893 144.547 142.845 144.34 142.784 144.137Z" fill="url(#paint8_linear_24_165)"/>
</g>
</g>
<path opacity="0.5" d="M176.732 151.406L143.815 122.198C143.566 121.964 143.421 121.642 143.411 121.301C143.4 120.96 143.526 120.63 143.759 120.381C143.993 120.133 144.315 119.988 144.656 119.978C144.996 119.967 145.327 120.093 145.575 120.326L176.732 151.406Z" fill="#8C8C8C"/>
<path d="M145.45 120.48C145.607 120.627 145.716 120.818 145.764 121.028C145.813 121.238 145.798 121.457 145.722 121.658C145.645 121.86 145.511 122.034 145.336 122.159C145.16 122.284 144.952 122.354 144.737 122.36C144.521 122.367 144.309 122.31 144.127 122.195C143.944 122.081 143.799 121.916 143.711 121.719C143.623 121.523 143.594 121.305 143.63 121.093C143.665 120.88 143.763 120.683 143.911 120.526C144.009 120.422 144.126 120.338 144.257 120.28C144.387 120.221 144.528 120.188 144.671 120.184C144.814 120.18 144.956 120.204 145.09 120.254C145.223 120.305 145.346 120.382 145.45 120.48Z" fill="#EC3725"/>
<path opacity="0.5" d="M183.463 220.371L152.893 206.824C152.659 206.713 152.48 206.513 152.394 206.269C152.307 206.024 152.322 205.756 152.434 205.523C152.489 205.407 152.566 205.303 152.662 205.218C152.757 205.132 152.869 205.066 152.99 205.023C153.11 204.981 153.239 204.962 153.367 204.969C153.495 204.976 153.62 205.008 153.736 205.064L183.463 220.371Z" fill="white"/>
<path d="M153.683 205.203C153.83 205.274 153.954 205.386 154.037 205.527C154.121 205.668 154.161 205.83 154.152 205.994C154.143 206.157 154.086 206.314 153.988 206.445C153.89 206.576 153.755 206.675 153.601 206.73C153.447 206.784 153.28 206.791 153.121 206.751C152.962 206.71 152.819 206.624 152.71 206.502C152.601 206.38 152.53 206.229 152.507 206.067C152.483 205.905 152.509 205.74 152.579 205.592C152.674 205.394 152.844 205.242 153.051 205.169C153.258 205.096 153.485 205.108 153.683 205.203Z" fill="white"/>
</g>
<g opacity="0.2">
<path opacity="0.2" d="M134.767 105.39C135.851 105.39 136.73 104.507 136.73 103.417C136.73 102.328 135.851 101.445 134.767 101.445C133.682 101.445 132.803 102.328 132.803 103.417C132.803 104.507 133.682 105.39 134.767 105.39Z" fill="#EC3725"/>
<path opacity="0.2" d="M111.989 177.152L109.661 177.399L109.174 179.698L111.201 180.875L112.941 179.3L111.989 177.152Z" fill="#EC3725"/>
<path opacity="0.2" d="M111.12 130.207H107.292V134.053H111.12V130.207Z" fill="#EC3725"/>
<path opacity="0.2" d="M101.704 152.113L101.219 155.318L104.224 154.137L101.704 152.113Z" fill="#EC3725"/>
<path opacity="0.2" d="M172.413 106.889L169.448 108.609L172.413 110.329V106.889Z" fill="#EC3725"/>
<path opacity="0.2" d="M200.011 132.685L199.427 130.877H197.535L196.951 132.685L198.481 133.802L200.011 132.685Z" fill="#EC3725"/>
<path opacity="0.2" d="M198.874 189.817L194.303 191.339L195.817 195.932L200.388 194.41L198.874 189.817Z" fill="#EC3725"/>
<path opacity="0.2" d="M195.87 158.816L191.205 160.968L195.393 163.951L195.87 158.816Z" fill="#EC3725"/>
<path opacity="0.2" d="M115.67 195.875L112.705 197.595L115.67 199.315V195.875Z" fill="#EC3725"/>
</g>
<path d="M240.949 72.123H70.9915V86.4079H240.949V72.123Z" fill="black" fill-opacity="0.12"/>
<path d="M240.949 85.0571H70.9915V99.342H240.949V85.0571Z" fill="#F5F5F5"/>
<path d="M81.226 78.8183C81.226 79.1732 81.1208 79.5202 80.9236 79.8154C80.7263 80.1106 80.446 80.3406 80.1181 80.4764C79.7901 80.6123 79.4292 80.6478 79.0811 80.5786C78.7329 80.5093 78.4131 80.3384 78.1621 80.0874C77.9111 79.8364 77.7402 79.5166 77.6709 79.1684C77.6016 78.8202 77.6372 78.4594 77.773 78.1314C77.9089 77.8035 78.1389 77.5231 78.4341 77.3259C78.7292 77.1287 79.0762 77.0234 79.4312 77.0234C79.9072 77.0234 80.3638 77.2125 80.7004 77.5491C81.037 77.8857 81.226 78.3422 81.226 78.8183Z" fill="#4D4D4D"/>
<path d="M87.8063 78.8183C87.8063 79.1733 87.701 79.5203 87.5038 79.8155C87.3065 80.1106 87.0262 80.3407 86.6982 80.4765C86.3702 80.6123 86.0093 80.6478 85.6611 80.5785C85.313 80.5092 84.9932 80.3382 84.7422 80.0872C84.4912 79.8361 84.3203 79.5163 84.2511 79.1681C84.1819 78.8199 84.2175 78.459 84.3535 78.131C84.4894 77.8031 84.7195 77.5228 85.0148 77.3256C85.31 77.1285 85.6571 77.0233 86.0121 77.0234C86.2477 77.0234 86.4811 77.0699 86.6988 77.1601C86.9165 77.2503 87.1144 77.3825 87.281 77.5492C87.4476 77.7158 87.5798 77.9137 87.6699 78.1314C87.76 78.3492 87.8064 78.5826 87.8063 78.8183Z" fill="#4D4D4D"/>
<path d="M94.3871 78.8183C94.3871 79.1732 94.2818 79.5202 94.0846 79.8154C93.8874 80.1106 93.607 80.3406 93.2791 80.4764C92.9511 80.6123 92.5902 80.6478 92.2421 80.5786C91.8939 80.5093 91.5741 80.3384 91.3231 80.0874C91.0721 79.8364 90.9012 79.5166 90.8319 79.1684C90.7627 78.8202 90.7982 78.4594 90.934 78.1314C91.0699 77.8035 91.2999 77.5231 91.5951 77.3259C91.8903 77.1287 92.2373 77.0234 92.5922 77.0234C93.0683 77.0234 93.5248 77.2125 93.8614 77.5491C94.198 77.8857 94.3871 78.3422 94.3871 78.8183Z" fill="#4D4D4D"/>
<path d="M240.98 222.057C240.98 221.106 240.948 163.7 240.895 72.1225L240.98 72.2393L71.1122 72.2699H71.0986L71.2063 72.1225C71.2029 125.348 71.2001 176.035 71.1978 222.057L71.0986 221.921L240.98 222.057L71.0986 222.193H71V222.057C71 176.035 70.9943 125.348 70.9915 72.1225V71.9746H71.1122L240.98 72.0058H241.065V72.1225C241.013 163.7 240.981 221.107 240.98 222.057Z" fill="#263238"/>
<path d="M155.998 247.282C204.802 247.282 244.366 243.335 244.366 238.467C244.366 233.599 204.802 229.652 155.998 229.652C107.193 229.652 67.6296 233.599 67.6296 238.467C67.6296 243.335 107.193 247.282 155.998 247.282Z" fill="black" fill-opacity="0.12"/>
<defs>
<linearGradient id="paint0_linear_24_165" x1="211.552" y1="200.207" x2="167.094" y2="122.325" gradientUnits="userSpaceOnUse">
<stop stop-color="#F5F5F5"/>
<stop offset="1" stop-color="#CCCCCC"/>
<stop offset="1" stop-color="#CCCCCC"/>
</linearGradient>
<linearGradient id="paint1_linear_24_165" x1="256.578" y1="142.864" x2="124.4" y2="116.897" gradientUnits="userSpaceOnUse">
<stop stop-color="#4D4D4D"/>
<stop offset="1" stop-color="#4D4D4D"/>
</linearGradient>
<linearGradient id="paint2_linear_24_165" x1="126.25" y1="179.296" x2="104.117" y2="159.127" gradientUnits="userSpaceOnUse">
<stop stop-color="#CCCCCC"/>
<stop offset="1" stop-color="#F5F5F5"/>
</linearGradient>
<linearGradient id="paint3_linear_24_165" x1="114.644" y1="138.301" x2="102.724" y2="127.449" gradientUnits="userSpaceOnUse">
<stop stop-color="#CCCCCC"/>
<stop offset="1" stop-color="#F5F5F5"/>
</linearGradient>
<linearGradient id="paint4_linear_24_165" x1="141.059" y1="149.226" x2="221.939" y2="195.199" gradientUnits="userSpaceOnUse">
<stop stop-color="#4D4D4D"/>
<stop offset="1" stop-color="white" stop-opacity="0"/>
</linearGradient>
<linearGradient id="paint5_linear_24_165" x1="144.263" y1="153.857" x2="153.25" y2="153.857" gradientUnits="userSpaceOnUse">
<stop stop-color="white"/>
<stop offset="0.788" stop-color="white" stop-opacity="0"/>
</linearGradient>
<linearGradient id="paint6_linear_24_165" x1="144.658" y1="156.085" x2="153.88" y2="156.085" gradientUnits="userSpaceOnUse">
<stop stop-color="white"/>
<stop offset="0.788" stop-color="white" stop-opacity="0"/>
</linearGradient>
<linearGradient id="paint7_linear_24_165" x1="133.313" y1="143.86" x2="142.3" y2="143.86" gradientUnits="userSpaceOnUse">
<stop stop-color="white"/>
<stop offset="0.788" stop-color="white" stop-opacity="0"/>
</linearGradient>
<linearGradient id="paint8_linear_24_165" x1="133.707" y1="146.088" x2="142.927" y2="146.088" gradientUnits="userSpaceOnUse">
<stop stop-color="white"/>
<stop offset="0.788" stop-color="white" stop-opacity="0"/>
</linearGradient>
<clipPath id="clip0_24_165">
<rect width="162.65" height="123.494" fill="white" transform="translate(55.5392 117.313)"/>
</clipPath>
</defs>
</svg>
