<svg width="312" height="278" viewBox="0 0 312 278" fill="none" xmlns="http://www.w3.org/2000/svg">
<path fill-rule="evenodd" clip-rule="evenodd" d="M79.7133 273.47C73.1668 272.054 -5.48502 259.298 0.304318 165.229C6.09365 71.1596 13.3616 42.8704 43.9398 32.5183C74.518 22.1663 148.85 -26.8066 207.179 19.7612C243.228 48.5397 300.661 107.961 305.022 122.685C309.383 137.408 318.493 165.659 303.47 182.449C264.144 226.402 274.404 281.605 209.237 277.815C144.07 274.025 110.84 280.204 79.7121 273.469" fill="#F9F9F9"/>
<path d="M155.693 248.669C204.461 248.669 243.996 244.726 243.996 239.861C243.996 234.996 204.461 231.053 155.693 231.053C106.925 231.053 67.3903 234.996 67.3903 239.861C67.3903 244.726 106.925 248.669 155.693 248.669Z" fill="black" fill-opacity="0.12"/>
<path d="M85.3138 191.601C85.7658 191.073 86.286 190.608 86.8609 190.218L86.6415 188.307L89.6451 187.254L90.6669 188.884C91.3595 188.83 92.0563 188.868 92.7387 188.998L93.9343 187.491L96.8026 188.871L96.3726 190.745C96.9004 191.197 97.3655 191.717 97.7554 192.292L99.6666 192.072L100.719 195.076L99.0894 196.098C99.1438 196.79 99.1052 197.487 98.9748 198.17L100.482 199.365L99.1029 202.233L97.2287 201.803C96.7769 202.331 96.2566 202.797 95.6816 203.187L95.901 205.098L92.8974 206.151L91.8756 204.52C91.1831 204.575 90.4864 204.536 89.8042 204.406L88.6082 205.913L85.7399 204.533L86.1698 202.659C85.6419 202.207 85.1769 201.687 84.7871 201.112L82.8755 201.331L81.8231 198.328L83.453 197.306C83.3989 196.613 83.4375 195.917 83.5677 195.235L82.0603 194.039L83.4396 191.17L85.3142 191.6L85.3138 191.601ZM87.4007 194.842C87.0327 195.607 86.8998 196.464 87.0189 197.305C87.1381 198.146 87.5038 198.933 88.07 199.565C88.6362 200.198 89.3773 200.649 90.1997 200.861C91.0221 201.073 91.8888 201.036 92.6902 200.755C93.4915 200.474 94.1917 199.962 94.7019 199.283C95.2122 198.604 95.5098 197.789 95.557 196.941C95.6042 196.094 95.3989 195.251 94.9671 194.519C94.5353 193.788 93.8963 193.202 93.131 192.833C92.6229 192.589 92.0716 192.447 91.5087 192.416C90.9457 192.385 90.382 192.464 89.8499 192.651C89.3178 192.837 88.8277 193.127 88.4074 193.503C87.9872 193.879 87.6451 194.334 87.4007 194.842Z" fill="#F5F5F5"/>
<path d="M62.7455 209.963C63.4254 209.168 64.2087 208.468 65.0744 207.881L64.7439 205.003L69.266 203.418L70.8043 205.872C71.8471 205.79 72.8963 205.848 73.9237 206.045L75.7242 203.777L80.0428 205.854L79.3954 208.676C80.1905 209.356 80.8909 210.139 81.4779 211.006L84.3558 210.675L85.9405 215.197L83.4863 216.736C83.5679 217.779 83.5099 218.827 83.3137 219.855L85.5811 221.655L83.5041 225.974L80.6822 225.325C80.002 226.12 79.2186 226.82 78.3529 227.407L78.6834 230.285L74.1613 231.87L72.6226 229.416C71.5799 229.497 70.531 229.439 69.5036 229.243L67.7031 231.511L63.3845 229.434L64.0319 226.612C63.2371 225.932 62.5367 225.148 61.9494 224.283L59.0719 224.613L57.4852 220.091L59.9394 218.552C59.8579 217.509 59.916 216.461 60.112 215.433L57.8446 213.633L59.9216 209.314L62.7439 209.961L62.7455 209.963ZM65.8879 214.842C65.3334 215.994 65.1331 217.285 65.3123 218.551C65.4915 219.818 66.0423 221.002 66.8949 221.956C67.7474 222.909 68.8636 223.588 70.1021 223.907C71.3406 224.226 72.6459 224.17 73.8528 223.747C75.0598 223.324 76.1141 222.553 76.8826 221.53C77.6511 220.508 78.0991 219.281 78.17 218.004C78.241 216.727 77.9316 215.458 77.2811 214.357C76.6306 213.255 75.6682 212.372 74.5155 211.818C73.7503 211.45 72.9201 211.236 72.0723 211.189C71.2245 211.142 70.3757 211.262 69.5744 211.543C68.7731 211.824 68.035 212.26 67.4022 212.826C66.7694 213.392 66.2543 214.078 65.8863 214.843L65.8879 214.842Z" fill="#EBEBEB"/>
<path d="M138.689 46.4209C142.506 44.1151 146.613 42.3299 150.903 41.1126L153.419 29.022L173.848 28.665L176.788 40.6584C181.118 41.724 185.287 43.3638 189.182 45.5343L199.507 38.7671L214.204 52.9576L207.805 63.5091C210.111 67.3267 211.897 71.4356 213.114 75.7266L225.203 78.2423L225.56 98.6709L213.566 101.611C212.5 105.941 210.861 110.11 208.691 114.005L215.457 124.33L201.267 139.028L190.712 132.629C186.895 134.935 182.786 136.72 178.495 137.937L175.978 150.027L155.549 150.384L152.609 138.39C148.279 137.324 144.111 135.684 140.215 133.514L129.891 140.281L115.195 126.091L121.595 115.537C119.288 111.72 117.503 107.611 116.286 103.32L104.197 100.805L103.84 80.376L115.835 77.435C116.901 73.106 118.54 68.9387 120.709 65.0434L113.942 54.7192L128.132 40.021L138.689 46.4209ZM144.873 70.3798C141.086 74.3014 138.548 79.2575 137.579 84.6216C136.61 89.9856 137.253 95.5167 139.427 100.515C141.601 105.514 145.209 109.755 149.793 112.704C154.378 115.652 159.734 117.175 165.184 117.079C170.634 116.983 175.934 115.273 180.412 112.166C184.891 109.058 188.347 104.692 190.344 99.6202C192.341 94.5483 192.789 88.9981 191.632 83.6714C190.475 78.3447 187.764 73.4808 183.842 69.6948C181.239 67.181 178.165 65.2046 174.798 63.8785C171.43 62.5525 167.834 61.9027 164.216 61.9663C160.597 62.03 157.026 62.8057 153.707 64.2493C150.388 65.6929 147.386 67.776 144.873 70.3798Z" fill="#EBEBEB"/>
<path d="M144.872 70.3796C144.872 70.3796 145.282 69.9322 146.124 69.1424C148.257 67.1668 150.696 65.5503 153.347 64.3557C154.665 63.7531 156.03 63.2594 157.429 62.8793C160.847 61.949 164.412 61.6784 167.931 62.082C172.205 62.5779 176.304 64.0678 179.899 66.4323C182.94 68.4431 185.562 71.0269 187.616 74.0397C188.331 75.105 188.976 76.2159 189.546 77.3654C191.949 82.2859 192.841 87.808 192.108 93.2346C191.919 94.6491 191.619 96.0465 191.21 97.414C190.805 98.8066 190.283 100.163 189.65 101.468C187.071 106.858 182.814 111.267 177.519 114.035C176.237 114.714 174.9 115.284 173.522 115.738C172.169 116.195 170.783 116.544 169.376 116.783C163.977 117.706 158.426 117.01 153.423 114.781C152.254 114.25 151.121 113.645 150.031 112.967C146.948 111.021 144.274 108.493 142.157 105.525C139.668 102.015 138.035 97.9714 137.389 93.7174C136.863 90.2139 137.008 86.6423 137.818 83.1933C138.149 81.7824 138.594 80.4009 139.15 79.0627C140.251 76.3722 141.781 73.8779 143.68 71.6771C144.44 70.8084 144.872 70.3832 144.872 70.3832C144.872 70.3832 144.775 70.4998 144.578 70.7195C144.381 70.9393 144.073 71.2523 143.712 71.7025C142.628 72.9869 141.663 74.3669 140.828 75.8255C140.227 76.8801 139.697 77.9735 139.241 79.0984C138.693 80.4338 138.254 81.8117 137.93 83.2183C137.136 86.6534 137.001 90.2082 137.533 93.6936C138.185 97.9214 139.816 101.938 142.296 105.424C144.403 108.371 147.064 110.881 150.13 112.812C151.214 113.483 152.34 114.084 153.502 114.609C158.471 116.817 163.983 117.505 169.343 116.586C170.74 116.348 172.115 116 173.458 115.547C174.825 115.095 176.152 114.53 177.425 113.855C182.68 111.107 186.904 106.73 189.465 101.381C190.094 100.086 190.613 98.7399 191.015 97.3576C191.421 96.0006 191.72 94.6138 191.909 93.21C192.638 87.8222 191.757 82.339 189.376 77.4511C188.811 76.309 188.172 75.2051 187.462 74.1464C185.426 71.1505 182.825 68.5797 179.807 66.5771C176.235 64.2202 172.162 62.7312 167.913 62.2292C164.411 61.8195 160.863 62.0785 157.457 62.9924C156.063 63.3662 154.701 63.8528 153.386 64.4474C152.277 64.9422 151.203 65.5103 150.17 66.1479C148.742 67.0334 147.396 68.0467 146.15 69.1753C145.714 69.5521 145.415 69.8762 145.198 70.0753C144.985 70.2804 144.872 70.3796 144.872 70.3796Z" fill="#263238"/>
<path d="M138.689 46.4212L128.115 40.0495L128.155 40.0443L113.979 54.7561L113.985 54.691L120.758 65.0104L120.779 65.0414L120.761 65.0735C118.598 68.9662 116.963 73.1293 115.898 77.4532L115.888 77.4929L115.848 77.5024L103.856 80.4493L103.912 80.3763C104.027 86.8072 104.15 93.6339 104.278 100.805L104.213 100.726L116.306 103.238L116.356 103.248L116.37 103.298C117.589 107.58 119.372 111.681 121.673 115.492L121.701 115.538L121.673 115.584C119.69 118.855 117.504 122.464 115.277 126.139L115.262 126.025L129.963 140.213L129.844 140.202L140.167 133.433L140.216 133.401L140.268 133.43C144.158 135.592 148.317 137.228 152.638 138.294L152.697 138.309L152.711 138.368C153.633 142.124 154.638 146.222 155.653 150.362L155.553 150.283L175.981 149.923L175.883 150.005C176.676 146.186 177.535 142.065 178.399 137.914L178.411 137.853L178.472 137.836C182.749 136.621 186.845 134.842 190.652 132.545L190.663 132.539L190.717 132.507L190.77 132.539L201.324 138.939L201.197 138.955L215.387 124.257L215.375 124.385C213.098 120.909 210.843 117.467 208.61 114.059L208.576 114.008L208.606 113.954C210.772 110.067 212.409 105.907 213.473 101.586L213.488 101.528L213.547 101.513L225.54 98.5744L225.465 98.6716C225.344 91.6979 225.225 84.8883 225.108 78.243L225.184 78.3343L213.094 75.8194L213.039 75.8083L213.023 75.7543C211.809 71.4712 210.028 67.3694 207.728 63.5574L207.7 63.511L207.728 63.465L214.13 52.9135L214.144 53.0199L199.451 38.823L199.548 38.8325L189.222 45.5953L189.182 45.6203L189.143 45.5981C185.252 43.4302 181.09 41.7908 176.766 40.7234L176.727 40.7135L176.717 40.6738C175.651 36.3128 174.69 32.3862 173.784 28.6789L173.844 28.7257L153.416 29.0688L153.46 29.0319L150.935 41.1197L150.931 41.1391L150.912 41.1447C147.686 42.057 144.559 43.2894 141.577 44.8234C140.592 45.328 139.877 45.7409 139.399 46.0103C138.923 46.2879 138.688 46.4212 138.688 46.4212L139.39 45.9952C139.866 45.7211 140.578 45.303 141.562 44.7933C144.539 43.2443 147.666 42.0005 150.894 41.0808L150.87 41.1058L153.374 29.0129L153.381 28.9764H153.418L173.847 28.6035H173.895L173.907 28.6511C174.819 32.3576 175.782 36.2831 176.853 40.6429L176.804 40.5933C181.141 41.6592 185.316 43.2994 189.22 45.4704L189.143 45.4732L199.464 38.7016L199.517 38.6671L199.563 38.7107L214.265 52.8977L214.315 52.9453L214.279 53.004C212.203 56.4304 210.071 59.9488 207.883 63.559V63.4666C210.193 67.2912 211.983 71.407 213.204 75.7051L213.134 75.6397C217.092 76.4626 221.121 77.3004 225.223 78.153L225.298 78.1688V78.2446C225.415 84.8859 225.536 91.6955 225.66 98.6732V98.7525L225.584 98.7712L213.591 101.713L213.664 101.64C212.596 105.977 210.953 110.152 208.779 114.054L208.776 113.949L215.543 124.273L215.588 124.341L215.53 124.401L201.341 139.099L201.284 139.158L201.214 139.115L190.659 132.716H190.766L190.755 132.723C186.932 135.029 182.819 136.815 178.524 138.035L178.597 137.956C177.733 142.106 176.875 146.227 176.08 150.046L176.063 150.126H175.981L155.553 150.483H155.473L155.454 150.403C154.44 146.264 153.436 142.165 152.515 138.409L152.588 138.482C148.251 137.41 144.076 135.767 140.172 133.595L140.274 133.591L129.949 140.356L129.885 140.398L129.829 140.345L115.134 126.151L115.081 126.1L115.12 126.037L121.522 115.485V115.577C119.214 111.752 117.427 107.636 116.207 103.338L116.271 103.398L104.181 100.884L104.117 100.871V100.806C103.994 93.6367 103.877 86.8099 103.767 80.3775V80.3184L103.824 80.3045L115.819 77.3692L115.769 77.4187C116.842 73.0847 118.486 68.9127 120.658 65.0124L120.66 65.0751L113.901 54.7462L113.878 54.7113L113.907 54.6811L128.111 39.9963L128.129 39.9777L128.152 39.9912L138.689 46.4212Z" fill="#263238"/>
<path d="M242.318 71.1279H72.4871V220.759H242.318V71.1279Z" fill="#DBDBDB"/>
<path d="M238.921 67.7295H69.0892V217.361H238.921V67.7295Z" fill="white"/>
<g clip-path="url(#clip0_56_1111)">
<path d="M92.2781 118.3V138.728H99.3784" stroke="#A7A9AC" stroke-width="0.75" stroke-miterlimit="10" stroke-linecap="round" stroke-dasharray="2 1"/>
<path d="M92.2776 124.829C98.2867 124.829 103.158 119.957 103.158 113.948C103.158 107.939 98.2867 103.067 92.2776 103.067C86.2684 103.067 81.397 107.939 81.397 113.948C81.397 119.957 86.2684 124.829 92.2776 124.829Z" fill="#61C454"/>
<path d="M209.167 189.145C215.176 189.145 220.048 184.274 220.048 178.264C220.048 172.255 215.176 167.384 209.167 167.384C203.158 167.384 198.287 172.255 198.287 178.264C198.287 184.274 203.158 189.145 209.167 189.145Z" fill="#ED6B5F"/>
<path d="M134.146 133.016H101.839C101.166 133.016 100.62 133.561 100.62 134.235V143.219C100.62 143.892 101.166 144.438 101.839 144.438H134.146C134.82 144.438 135.365 143.892 135.365 143.219V134.235C135.365 133.561 134.82 133.016 134.146 133.016Z" fill="#CCCCCC"/>
<path d="M225.321 123.336H193.014C192.34 123.336 191.795 123.882 191.795 124.555V133.539C191.795 134.213 192.34 134.758 193.014 134.758H225.321C225.994 134.758 226.54 134.213 226.54 133.539V124.555C226.54 123.882 225.994 123.336 225.321 123.336Z" fill="#CCCCCC"/>
<path d="M134.146 164.324H101.839C101.166 164.324 100.62 164.87 100.62 165.543V174.527C100.62 175.201 101.166 175.747 101.839 175.747H134.146C134.82 175.747 135.365 175.201 135.365 174.527V165.543C135.365 164.87 134.82 164.324 134.146 164.324Z" fill="#CCCCCC"/>
<path d="M175.763 133.016H143.456C142.782 133.016 142.237 133.561 142.237 134.235V143.219C142.237 143.892 142.782 144.438 143.456 144.438H175.763C176.436 144.438 176.982 143.892 176.982 143.219V134.235C176.982 133.561 176.436 133.016 175.763 133.016Z" fill="#CCCCCC"/>
<path d="M175.763 164.324H143.456C142.782 164.324 142.237 164.87 142.237 165.543V174.527C142.237 175.201 142.782 175.747 143.456 175.747H175.763C176.436 175.747 176.982 175.201 176.982 174.527V165.543C176.982 164.87 176.436 164.324 175.763 164.324Z" fill="#CCCCCC"/>
<path d="M209.167 162.673L195.093 157.34C194.492 157.112 193.975 156.707 193.61 156.179C193.246 155.65 193.05 155.023 193.05 154.381C193.05 153.739 193.246 153.112 193.61 152.583C193.975 152.055 194.492 151.65 195.093 151.422L209.167 146.089L223.242 151.422C223.842 151.65 224.359 152.055 224.724 152.583C225.089 153.112 225.285 153.739 225.285 154.381C225.285 155.023 225.089 155.65 224.724 156.179C224.359 156.707 223.842 157.112 223.242 157.34L209.167 162.673Z" fill="#F68B22"/>
<path d="M215.304 142.972V144.311H214.9V142.972L213.352 140.44H213.788L215.116 142.613L216.443 140.44H216.852L215.304 142.972ZM220.143 143.957V144.311H217.406V140.44H220.06V140.793H217.815V142.17H219.817V142.519H217.815V143.957H220.143ZM222.172 144.344C221.885 144.344 221.608 144.298 221.343 144.205C221.081 144.113 220.878 143.992 220.734 143.84L220.895 143.525C221.035 143.665 221.221 143.78 221.453 143.868C221.686 143.953 221.925 143.995 222.172 143.995C222.519 143.995 222.779 143.933 222.952 143.807C223.125 143.678 223.212 143.512 223.212 143.31C223.212 143.155 223.164 143.031 223.068 142.939C222.976 142.847 222.862 142.777 222.725 142.729C222.589 142.677 222.399 142.622 222.156 142.563C221.864 142.489 221.632 142.419 221.459 142.353C221.286 142.283 221.136 142.178 221.011 142.038C220.889 141.898 220.828 141.708 220.828 141.468C220.828 141.273 220.88 141.096 220.983 140.937C221.087 140.775 221.245 140.646 221.459 140.55C221.673 140.454 221.938 140.406 222.255 140.406C222.476 140.406 222.692 140.438 222.902 140.5C223.116 140.559 223.3 140.642 223.455 140.749L223.317 141.075C223.155 140.969 222.981 140.889 222.797 140.838C222.613 140.782 222.432 140.755 222.255 140.755C221.916 140.755 221.66 140.821 221.487 140.954C221.317 141.083 221.232 141.251 221.232 141.457C221.232 141.612 221.278 141.737 221.37 141.833C221.466 141.925 221.584 141.997 221.724 142.049C221.868 142.097 222.06 142.15 222.299 142.209C222.583 142.279 222.812 142.349 222.985 142.419C223.162 142.486 223.311 142.589 223.433 142.729C223.555 142.865 223.616 143.052 223.616 143.287C223.616 143.483 223.562 143.662 223.455 143.824C223.352 143.982 223.192 144.11 222.974 144.205C222.757 144.298 222.489 144.344 222.172 144.344Z" fill="#323C42"/>
<path d="M217.211 163.658V167.529H216.874L214.386 164.388V167.529H213.976V163.658H214.314L216.808 166.799V163.658H217.211ZM220.167 167.562C219.784 167.562 219.435 167.478 219.122 167.308C218.812 167.135 218.569 166.899 218.392 166.6C218.219 166.302 218.132 165.966 218.132 165.594C218.132 165.221 218.219 164.886 218.392 164.587C218.569 164.289 218.812 164.055 219.122 163.885C219.435 163.712 219.784 163.625 220.167 163.625C220.551 163.625 220.895 163.71 221.201 163.879C221.511 164.049 221.754 164.285 221.931 164.587C222.108 164.886 222.197 165.221 222.197 165.594C222.197 165.966 222.108 166.303 221.931 166.606C221.754 166.904 221.511 167.139 221.201 167.308C220.895 167.478 220.551 167.562 220.167 167.562ZM220.167 167.197C220.473 167.197 220.75 167.129 220.997 166.993C221.244 166.853 221.437 166.661 221.577 166.418C221.717 166.171 221.787 165.896 221.787 165.594C221.787 165.291 221.717 165.019 221.577 164.775C221.437 164.528 221.244 164.337 220.997 164.2C220.75 164.06 220.473 163.99 220.167 163.99C219.861 163.99 219.583 164.06 219.332 164.2C219.085 164.337 218.89 164.528 218.746 164.775C218.606 165.019 218.536 165.291 218.536 165.594C218.536 165.896 218.606 166.171 218.746 166.418C218.89 166.661 219.085 166.853 219.332 166.993C219.583 167.129 219.861 167.197 220.167 167.197Z" fill="#323C42"/>
<path d="M92.2781 138.728V170.036H99.3784" stroke="#A7A9AC" stroke-width="0.75" stroke-miterlimit="10" stroke-linecap="round" stroke-dasharray="2 1"/>
<path d="M136.067 138.728H141.588" stroke="#A7A9AC" stroke-width="0.75" stroke-miterlimit="10" stroke-linecap="round" stroke-dasharray="2 1"/>
<path d="M136.067 170.036H141.588" stroke="#A7A9AC" stroke-width="0.75" stroke-miterlimit="10" stroke-linecap="round" stroke-dasharray="2 1"/>
<path d="M177.689 138.728H183.523V154.381H191.795" stroke="#A7A9AC" stroke-width="0.75" stroke-miterlimit="10" stroke-linecap="round" stroke-dasharray="2 1"/>
<path d="M183.523 154.381V170.035H177.689" stroke="#A7A9AC" stroke-width="0.75" stroke-miterlimit="10" stroke-linecap="round" stroke-dasharray="2 1"/>
<path d="M209.168 145.242V135.448" stroke="#A7A9AC" stroke-width="0.75" stroke-miterlimit="10" stroke-linecap="round" stroke-dasharray="2 1"/>
<path d="M209.168 163.371V166.809" stroke="#A7A9AC" stroke-width="0.75" stroke-miterlimit="10" stroke-linecap="round" stroke-dasharray="2 1"/>
</g>
<path d="M238.921 67.5381H69.0892V81.8124H238.921V67.5381Z" fill="black" fill-opacity="0.12"/>
<path d="M238.921 80.4629H69.0892V94.7372H238.921V80.4629Z" fill="#F5F5F5"/>
<path d="M238.952 217.362C238.952 216.412 238.92 159.048 238.867 67.5384L238.952 67.6551L69.2099 67.6857H69.1963L69.3039 67.5384C69.3005 120.724 69.2976 171.374 69.2954 217.362L69.1963 217.226L238.952 217.362L69.1963 217.498H69.0977V217.362C69.0977 171.374 69.0921 120.724 69.0892 67.5384V67.3906H69.2099L238.952 67.4218H239.037V67.5384C238.985 159.048 238.953 216.413 238.952 217.362Z" fill="#263238"/>
<path d="M220.796 195.66C222.179 194.044 223.772 192.619 225.532 191.425L224.86 185.571L234.059 182.351L237.189 187.339C239.31 187.173 241.444 187.291 243.533 187.69L247.196 183.077L255.981 187.304L254.663 193.043C256.28 194.426 257.705 196.019 258.899 197.779L264.752 197.107L267.976 206.306L262.984 209.436C263.15 211.557 263.032 213.69 262.633 215.78L267.243 219.442L263.018 228.227L257.278 226.91C255.895 228.526 254.302 229.95 252.542 231.145L253.214 236.999L244.017 240.226L240.887 235.233C238.766 235.399 236.632 235.281 234.542 234.882L230.88 239.492L222.095 235.266L223.412 229.527C221.796 228.144 220.371 226.551 219.176 224.791L213.323 225.463L210.099 216.264L215.091 213.134C214.926 211.013 215.044 208.879 215.443 206.789L210.833 203.127L215.056 194.343L220.797 195.66H220.796ZM227.188 205.587C226.061 207.931 225.654 210.556 226.019 213.131C226.384 215.706 227.504 218.115 229.238 220.053C230.972 221.991 233.242 223.372 235.761 224.02C238.279 224.668 240.933 224.555 243.388 223.695C245.842 222.835 247.986 221.266 249.549 219.188C251.112 217.109 252.023 214.613 252.168 212.017C252.312 209.42 251.683 206.839 250.361 204.599C249.039 202.36 247.082 200.563 244.738 199.436C243.182 198.687 241.494 198.253 239.769 198.157C238.045 198.061 236.319 198.305 234.689 198.876C233.06 199.448 231.558 200.334 230.271 201.486C228.984 202.637 227.937 204.031 227.188 205.587Z" fill="#F68B22"/>
<defs>
<clipPath id="clip0_56_1111">
<rect width="145.143" height="86.0783" fill="white" transform="translate(81.397 103.067)"/>
</clipPath>
</defs>
</svg>
